<?xml version="1.0" encoding="UTF-8" standalone="no"?>
<svg xmlns="http://www.w3.org/2000/svg" width="26" height="21" shape-rendering="crispEdges">
<rect x="12" y="1" width="1" height="1" fill="#b7b71a" fill-opacity="0.016"/>
<rect x="13" y="1" width="1" height="1" fill="#b1b117" fill-opacity="0.502"/>
<rect x="14" y="1" width="1" height="1" fill="#b6b619" fill-opacity="0.106"/>
<rect x="12" y="2" width="1" height="1" fill="#aeae14" fill-opacity="0.69"/>
<rect x="13" y="2" width="1" height="1" fill="#a3a30e"/>
<rect x="14" y="2" width="1" height="1" fill="#a0a00c" fill-opacity="0.996"/>
<rect x="15" y="2" width="1" height="1" fill="#a2a20d" fill-opacity="0.98"/>
<rect x="16" y="2" width="1" height="1" fill="#9f9f0b"/>
<rect x="17" y="2" width="1" height="1" fill="#b3b317" fill-opacity="0.404"/>
<rect x="18" y="2" width="1" height="1" fill="#b7b71a" fill-opacity="0.031"/>
<rect x="19" y="2" width="1" height="1" fill="#b6b619" fill-opacity="0.09"/>
<rect x="12" y="3" width="1" height="1" fill="#acac13" fill-opacity="0.749"/>
<rect x="13" y="3" width="1" height="1" fill="#acac14"/>
<rect x="14" y="3" width="1" height="1" fill="#d8d833" fill-opacity="0.988"/>
<rect x="15" y="3" width="1" height="1" fill="#d3d335"/>
<rect x="16" y="3" width="1" height="1" fill="#c6c628"/>
<rect x="17" y="3" width="1" height="1" fill="#a5a50f" fill-opacity="0.953"/>
<rect x="18" y="3" width="1" height="1" fill="#a0a00b" fill-opacity="0.996"/>
<rect x="19" y="3" width="1" height="1" fill="#a1a10c" fill-opacity="0.988"/>
<rect x="20" y="3" width="1" height="1" fill="#b7b71a" fill-opacity="0.063"/>
<rect x="13" y="4" width="1" height="1" fill="#9f9f0b"/>
<rect x="14" y="4" width="1" height="1" fill="#a1a10c" fill-opacity="0.992"/>
<rect x="15" y="4" width="1" height="1" fill="#b3b317"/>
<rect x="16" y="4" width="1" height="1" fill="#a1a10d"/>
<rect x="17" y="4" width="1" height="1" fill="#b0b016" fill-opacity="0.988"/>
<rect x="18" y="4" width="1" height="1" fill="#d8d84c"/>
<rect x="19" y="4" width="1" height="1" fill="#9f9f0b"/>
<rect x="20" y="4" width="1" height="1" fill="#b6b619" fill-opacity="0.106"/>
<rect x="10" y="5" width="1" height="1" fill="#b7b71a" fill-opacity="0.063"/>
<rect x="13" y="5" width="1" height="1" fill="#a1a10c" fill-opacity="0.004"/>
<rect x="14" y="5" width="1" height="1" fill="#b4b418" fill-opacity="0.208"/>
<rect x="15" y="5" width="1" height="1" fill="#a7a710" fill-opacity="0.906"/>
<rect x="16" y="5" width="1" height="1" fill="#afaf15" fill-opacity="0.443"/>
<rect x="17" y="5" width="1" height="1" fill="#a1a10c"/>
<rect x="18" y="5" width="1" height="1" fill="#ebeb47"/>
<rect x="19" y="5" width="1" height="1" fill="#d5d52d"/>
<rect x="20" y="5" width="1" height="1" fill="#a2a20d" fill-opacity="0.984"/>
<rect x="21" y="5" width="1" height="1" fill="#a1a10c" fill-opacity="0.992"/>
<rect x="22" y="5" width="1" height="1" fill="#b2b217" fill-opacity="0.431"/>
<rect x="7" y="6" width="1" height="1" fill="#b7b71a" fill-opacity="0.047"/>
<rect x="8" y="6" width="1" height="1" fill="#a8a811" fill-opacity="0.882"/>
<rect x="9" y="6" width="1" height="1" fill="#a0a00b"/>
<rect x="10" y="6" width="1" height="1" fill="#a0a00c" fill-opacity="0.996"/>
<rect x="11" y="6" width="1" height="1" fill="#a1a10c" fill-opacity="0.992"/>
<rect x="12" y="6" width="1" height="1" fill="#a2a20d" fill-opacity="0.984"/>
<rect x="13" y="6" width="1" height="1" fill="#a4a40e" fill-opacity="0.957"/>
<rect x="14" y="6" width="1" height="1" fill="#aeae15" fill-opacity="0.651"/>
<rect x="17" y="6" width="1" height="1" fill="#a2a20d" fill-opacity="0.984"/>
<rect x="18" y="6" width="1" height="1" fill="#9f9f0b"/>
<rect x="19" y="6" width="1" height="1" fill="#f7f758" fill-opacity="0.988"/>
<rect x="20" y="6" width="1" height="1" fill="#d5d54f"/>
<rect x="21" y="6" width="1" height="1" fill="#dede35"/>
<rect x="22" y="6" width="1" height="1" fill="#a1a10c" fill-opacity="0.992"/>
<rect x="6" y="7" width="1" height="1" fill="#acac13" fill-opacity="0.78"/>
<rect x="7" y="7" width="1" height="1" fill="#9f9f0b"/>
<rect x="8" y="7" width="1" height="1" fill="#b5b519"/>
<rect x="9" y="7" width="1" height="1" fill="#dfdf32"/>
<rect x="10" y="7" width="1" height="1" fill="#d5d52f"/>
<rect x="11" y="7" width="1" height="1" fill="#cccc27"/>
<rect x="12" y="7" width="1" height="1" fill="#c5c524"/>
<rect x="13" y="7" width="1" height="1" fill="#baba1c"/>
<rect x="14" y="7" width="1" height="1" fill="#a6a610"/>
<rect x="15" y="7" width="1" height="1" fill="#a1a10c" fill-opacity="0.988"/>
<rect x="16" y="7" width="1" height="1" fill="#b5b519" fill-opacity="0.216"/>
<rect x="18" y="7" width="1" height="1" fill="#a1a10c" fill-opacity="0.004"/>
<rect x="19" y="7" width="1" height="1" fill="#9f9f0b"/>
<rect x="20" y="7" width="1" height="1" fill="#eded57"/>
<rect x="21" y="7" width="1" height="1" fill="#c5c524"/>
<rect x="22" y="7" width="1" height="1" fill="#a5a50f" fill-opacity="0.945"/>
<rect x="23" y="7" width="1" height="1" fill="#b7b71a" fill-opacity="0.031"/>
<rect x="5" y="8" width="1" height="1" fill="#adad14" fill-opacity="0.741"/>
<rect x="6" y="8" width="1" height="1" fill="#a9a912" fill-opacity="0.992"/>
<rect x="7" y="8" width="1" height="1" fill="#e4e436"/>
<rect x="8" y="8" width="1" height="1" fill="#f0f044"/>
<rect x="9" y="8" width="1" height="1" fill="#f6f65f"/>
<rect x="10" y="8" width="1" height="1" fill="#fbfb70"/>
<rect x="11" y="8" width="1" height="1" fill="#fefe7a"/>
<rect x="12" y="8" width="1" height="1" fill="#f7f771"/>
<rect x="13" y="8" width="1" height="1" fill="#eeee4b"/>
<rect x="14" y="8" width="1" height="1" fill="#e1e135"/>
<rect x="15" y="8" width="1" height="1" fill="#c2c222"/>
<rect x="16" y="8" width="1" height="1" fill="#a0a00b"/>
<rect x="17" y="8" width="1" height="1" fill="#b4b418" fill-opacity="0.098"/>
<rect x="18" y="8" width="1" height="1" fill="#b4b418" fill-opacity="0.275"/>
<rect x="19" y="8" width="1" height="1" fill="#a0a00c" fill-opacity="0.996"/>
<rect x="20" y="8" width="1" height="1" fill="#b0b016" fill-opacity="0.973"/>
<rect x="21" y="8" width="1" height="1" fill="#a5a50f" fill-opacity="0.949"/>
<rect x="22" y="8" width="1" height="1" fill="#b7b71a" fill-opacity="0.016"/>
<rect x="3" y="9" width="1" height="1" fill="#b7b71a" fill-opacity="0.016"/>
<rect x="4" y="9" width="1" height="1" fill="#a9a911" fill-opacity="0.855"/>
<rect x="5" y="9" width="1" height="1" fill="#aaaa12" fill-opacity="0.996"/>
<rect x="6" y="9" width="1" height="1" fill="#e7e73b"/>
<rect x="7" y="9" width="1" height="1" fill="#f9f95f"/>
<rect x="8" y="9" width="1" height="1" fill="#fefe75"/>
<rect x="9" y="9" width="1" height="1" fill="#ffff70"/>
<rect x="10" y="9" width="1" height="1" fill="#ffff56"/>
<rect x="11" y="9" width="1" height="1" fill="#ffff57"/>
<rect x="12" y="9" width="1" height="1" fill="#ffff5e"/>
<rect x="13" y="9" width="1" height="1" fill="#fcfc6f"/>
<rect x="14" y="9" width="1" height="1" fill="#ecec50"/>
<rect x="15" y="9" width="1" height="1" fill="#dfdf33"/>
<rect x="16" y="9" width="1" height="1" fill="#b9b91c"/>
<rect x="17" y="9" width="1" height="1" fill="#a4a40f" fill-opacity="0.953"/>
<rect x="19" y="9" width="1" height="1" fill="#b7b71a" fill-opacity="0.063"/>
<rect x="20" y="9" width="1" height="1" fill="#a7a710" fill-opacity="0.859"/>
<rect x="21" y="9" width="1" height="1" fill="#a4a40f" fill-opacity="0.976"/>
<rect x="22" y="9" width="1" height="1" fill="#9f9f0b"/>
<rect x="23" y="9" width="1" height="1" fill="#a4a40e" fill-opacity="0.965"/>
<rect x="24" y="9" width="1" height="1" fill="#b5b519" fill-opacity="0.271"/>
<rect x="3" y="10" width="1" height="1" fill="#b2b217" fill-opacity="0.431"/>
<rect x="4" y="10" width="1" height="1" fill="#a2a20d" fill-opacity="0.996"/>
<rect x="5" y="10" width="1" height="1" fill="#e5e53b"/>
<rect x="6" y="10" width="1" height="1" fill="#fdfd63"/>
<rect x="7" y="10" width="1" height="1" fill="#ffff76"/>
<rect x="8" y="10" width="1" height="1" fill="#ffff49"/>
<rect x="9" y="10" width="1" height="1" fill="#ffff44"/>
<rect x="10" y="10" width="1" height="1" fill="#ffff47"/>
<rect x="11" y="10" width="1" height="1" fill="#ffff48"/>
<rect x="12" y="10" width="1" height="1" fill="#ffff46"/>
<rect x="13" y="10" width="1" height="1" fill="#ffff53"/>
<rect x="14" y="10" width="1" height="1" fill="#ffff79"/>
<rect x="15" y="10" width="1" height="1" fill="#efef50"/>
<rect x="16" y="10" width="1" height="1" fill="#e5e537"/>
<rect x="17" y="10" width="1" height="1" fill="#9f9f0b"/>
<rect x="18" y="10" width="1" height="1" fill="#a6a610" fill-opacity="0.059"/>
<rect x="19" y="10" width="1" height="1" fill="#abab13" fill-opacity="0.784"/>
<rect x="20" y="10" width="1" height="1" fill="#a9a911" fill-opacity="0.996"/>
<rect x="21" y="10" width="1" height="1" fill="#cccc2a"/>
<rect x="22" y="10" width="1" height="1" fill="#eeee52"/>
<rect x="23" y="10" width="1" height="1" fill="#cbcb26"/>
<rect x="24" y="10" width="1" height="1" fill="#a2a20d" fill-opacity="0.984"/>
<rect x="3" y="11" width="1" height="1" fill="#a5a50f" fill-opacity="0.937"/>
<rect x="4" y="11" width="1" height="1" fill="#bcbc1d"/>
<rect x="5" y="11" width="1" height="1" fill="#f9f957"/>
<rect x="6" y="11" width="1" height="1" fill="#ffff66"/>
<rect x="7" y="11" width="1" height="1" fill="#ffff4c"/>
<rect x="8" y="11" width="1" height="1" fill="#ffff47"/>
<rect x="9" y="11" width="1" height="1" fill="#ffff48"/>
<rect x="10" y="11" width="1" height="1" fill="#ffff48"/>
<rect x="11" y="11" width="1" height="1" fill="#fbfb45" fill-opacity="0.996"/>
<rect x="12" y="11" width="1" height="1" fill="#fdfd47"/>
<rect x="13" y="11" width="1" height="1" fill="#ffff48"/>
<rect x="14" y="11" width="1" height="1" fill="#ffff5f"/>
<rect x="15" y="11" width="1" height="1" fill="#ffff86"/>
<rect x="16" y="11" width="1" height="1" fill="#e8e838"/>
<rect x="17" y="11" width="1" height="1" fill="#a5a50f"/>
<rect x="18" y="11" width="1" height="1" fill="#aaaa12" fill-opacity="0.761"/>
<rect x="19" y="11" width="1" height="1" fill="#a7a711" fill-opacity="0.961"/>
<rect x="20" y="11" width="1" height="1" fill="#d2d22b" fill-opacity="0.996"/>
<rect x="21" y="11" width="1" height="1" fill="#fefe6c"/>
<rect x="22" y="11" width="1" height="1" fill="#ffff98"/>
<rect x="23" y="11" width="1" height="1" fill="#d1d129"/>
<rect x="24" y="11" width="1" height="1" fill="#a2a20d" fill-opacity="0.976"/>
<rect x="25" y="11" width="1" height="1" fill="#b7b71a" fill-opacity="0.016"/>
<rect x="2" y="12" width="1" height="1" fill="#a0a00c" fill-opacity="0.02"/>
<rect x="3" y="12" width="1" height="1" fill="#9f9f0b"/>
<rect x="4" y="12" width="1" height="1" fill="#e2e238"/>
<rect x="5" y="12" width="1" height="1" fill="#fefe6f"/>
<rect x="6" y="12" width="1" height="1" fill="#ffff4f"/>
<rect x="7" y="12" width="1" height="1" fill="#ffff47"/>
<rect x="8" y="12" width="1" height="1" fill="#ffff48"/>
<rect x="9" y="12" width="1" height="1" fill="#fdfd47"/>
<rect x="10" y="12" width="1" height="1" fill="#f2f240"/>
<rect x="11" y="12" width="1" height="1" fill="#f3f341" fill-opacity="0.992"/>
<rect x="12" y="12" width="1" height="1" fill="#fafa44"/>
<rect x="13" y="12" width="1" height="1" fill="#fbfb45"/>
<rect x="14" y="12" width="1" height="1" fill="#fefe5c"/>
<rect x="15" y="12" width="1" height="1" fill="#ffff7a"/>
<rect x="16" y="12" width="1" height="1" fill="#f1f141"/>
<rect x="17" y="12" width="1" height="1" fill="#a9a912"/>
<rect x="18" y="12" width="1" height="1" fill="#a5a50f" fill-opacity="0.937"/>
<rect x="19" y="12" width="1" height="1" fill="#a2a20d" fill-opacity="0.976"/>
<rect x="20" y="12" width="1" height="1" fill="#c5c523" fill-opacity="0.992"/>
<rect x="21" y="12" width="1" height="1" fill="#fdfd46"/>
<rect x="22" y="12" width="1" height="1" fill="#c8c824"/>
<rect x="23" y="12" width="1" height="1" fill="#a7a710"/>
<rect x="24" y="12" width="1" height="1" fill="#adad14" fill-opacity="0.714"/>
<rect x="2" y="13" width="1" height="1" fill="#a7a710" fill-opacity="0.431"/>
<rect x="3" y="13" width="1" height="1" fill="#a0a00c"/>
<rect x="4" y="13" width="1" height="1" fill="#eaea3f"/>
<rect x="5" y="13" width="1" height="1" fill="#ffff71"/>
<rect x="6" y="13" width="1" height="1" fill="#ffff48"/>
<rect x="7" y="13" width="1" height="1" fill="#ffff48"/>
<rect x="8" y="13" width="1" height="1" fill="#ffff48"/>
<rect x="9" y="13" width="1" height="1" fill="#eeee3d"/>
<rect x="10" y="13" width="1" height="1" fill="#d5d52d"/>
<rect x="11" y="13" width="1" height="1" fill="#d4d42d"/>
<rect x="12" y="13" width="1" height="1" fill="#e3e337"/>
<rect x="13" y="13" width="1" height="1" fill="#f0f03f"/>
<rect x="14" y="13" width="1" height="1" fill="#fafa54"/>
<rect x="15" y="13" width="1" height="1" fill="#ffff7e"/>
<rect x="16" y="13" width="1" height="1" fill="#e7e73b"/>
<rect x="17" y="13" width="1" height="1" fill="#b0b016"/>
<rect x="18" y="13" width="1" height="1" fill="#a1a10c" fill-opacity="0.996"/>
<rect x="19" y="13" width="1" height="1" fill="#a7a710" fill-opacity="0.173"/>
<rect x="20" y="13" width="1" height="1" fill="#a0a00b"/>
<rect x="21" y="13" width="1" height="1" fill="#9f9f0b"/>
<rect x="22" y="13" width="1" height="1" fill="#a4a40e" fill-opacity="0.957"/>
<rect x="23" y="13" width="1" height="1" fill="#afaf15" fill-opacity="0.616"/>
<rect x="24" y="13" width="1" height="1" fill="#b7b71a" fill-opacity="0.016"/>
<rect x="2" y="14" width="1" height="1" fill="#a4a40f" fill-opacity="0.863"/>
<rect x="3" y="14" width="1" height="1" fill="#a1a10c"/>
<rect x="4" y="14" width="1" height="1" fill="#dede39"/>
<rect x="5" y="14" width="1" height="1" fill="#ffff70"/>
<rect x="6" y="14" width="1" height="1" fill="#ffff4f"/>
<rect x="7" y="14" width="1" height="1" fill="#ffff48"/>
<rect x="8" y="14" width="1" height="1" fill="#fefe47"/>
<rect x="9" y="14" width="1" height="1" fill="#d7d72f"/>
<rect x="10" y="14" width="1" height="1" fill="#b9b91c"/>
<rect x="11" y="14" width="1" height="1" fill="#c2c221"/>
<rect x="12" y="14" width="1" height="1" fill="#c5c523"/>
<rect x="13" y="14" width="1" height="1" fill="#d2d22c"/>
<rect x="14" y="14" width="1" height="1" fill="#e2e238"/>
<rect x="15" y="14" width="1" height="1" fill="#dfdf3f"/>
<rect x="16" y="14" width="1" height="1" fill="#c6c627"/>
<rect x="17" y="14" width="1" height="1" fill="#b0b016"/>
<rect x="18" y="14" width="1" height="1" fill="#a1a10c" fill-opacity="0.996"/>
<rect x="19" y="14" width="1" height="1" fill="#a1a10c" fill-opacity="0.004"/>
<rect x="20" y="14" width="1" height="1" fill="#a0a00c" fill-opacity="0.024"/>
<rect x="2" y="15" width="1" height="1" fill="#a7a710" fill-opacity="0.769"/>
<rect x="3" y="15" width="1" height="1" fill="#a1a10c"/>
<rect x="4" y="15" width="1" height="1" fill="#d2d232"/>
<rect x="5" y="15" width="1" height="1" fill="#ffff70"/>
<rect x="6" y="15" width="1" height="1" fill="#ffff52"/>
<rect x="7" y="15" width="1" height="1" fill="#ffff49"/>
<rect x="8" y="15" width="1" height="1" fill="#f2f240"/>
<rect x="9" y="15" width="1" height="1" fill="#bdbd1e"/>
<rect x="10" y="15" width="1" height="1" fill="#b2b217"/>
<rect x="11" y="15" width="1" height="1" fill="#a0a00c"/>
<rect x="12" y="15" width="1" height="1" fill="#a0a00c"/>
<rect x="13" y="15" width="1" height="1" fill="#a2a20d"/>
<rect x="14" y="15" width="1" height="1" fill="#a9a912"/>
<rect x="15" y="15" width="1" height="1" fill="#b3b317"/>
<rect x="16" y="15" width="1" height="1" fill="#afaf15"/>
<rect x="17" y="15" width="1" height="1" fill="#a1a10c" fill-opacity="0.996"/>
<rect x="18" y="15" width="1" height="1" fill="#adad14" fill-opacity="0.651"/>
<rect x="2" y="16" width="1" height="1" fill="#aeae14" fill-opacity="0.224"/>
<rect x="3" y="16" width="1" height="1" fill="#a0a00c"/>
<rect x="4" y="16" width="1" height="1" fill="#bdbd21"/>
<rect x="5" y="16" width="1" height="1" fill="#f5f561"/>
<rect x="6" y="16" width="1" height="1" fill="#fefe5d"/>
<rect x="7" y="16" width="1" height="1" fill="#f9f948"/>
<rect x="8" y="16" width="1" height="1" fill="#dada31"/>
<rect x="9" y="16" width="1" height="1" fill="#acac13"/>
<rect x="10" y="16" width="1" height="1" fill="#a1a10c" fill-opacity="0.996"/>
<rect x="11" y="16" width="1" height="1" fill="#b3b318" fill-opacity="0.263"/>
<rect x="12" y="16" width="1" height="1" fill="#a0a00c" fill-opacity="0.035"/>
<rect x="13" y="16" width="1" height="1" fill="#afaf16" fill-opacity="0.588"/>
<rect x="14" y="16" width="1" height="1" fill="#a5a50e" fill-opacity="0.941"/>
<rect x="15" y="16" width="1" height="1" fill="#a0a00c" fill-opacity="0.996"/>
<rect x="16" y="16" width="1" height="1" fill="#a1a10c" fill-opacity="0.996"/>
<rect x="17" y="16" width="1" height="1" fill="#aeae15" fill-opacity="0.549"/>
<rect x="2" y="17" width="1" height="1" fill="#b4b418" fill-opacity="0.035"/>
<rect x="3" y="17" width="1" height="1" fill="#a2a20d" fill-opacity="0.984"/>
<rect x="4" y="17" width="1" height="1" fill="#a7a711"/>
<rect x="5" y="17" width="1" height="1" fill="#cdcd3c"/>
<rect x="6" y="17" width="1" height="1" fill="#eeee60"/>
<rect x="7" y="17" width="1" height="1" fill="#e3e33b"/>
<rect x="8" y="17" width="1" height="1" fill="#bdbd1f"/>
<rect x="9" y="17" width="1" height="1" fill="#a0a00c"/>
<rect x="10" y="17" width="1" height="1" fill="#acac13" fill-opacity="0.384"/>
<rect x="3" y="18" width="1" height="1" fill="#afaf15" fill-opacity="0.616"/>
<rect x="4" y="18" width="1" height="1" fill="#a2a20d"/>
<rect x="5" y="18" width="1" height="1" fill="#a6a611"/>
<rect x="6" y="18" width="1" height="1" fill="#b3b320"/>
<rect x="7" y="18" width="1" height="1" fill="#b7b71d"/>
<rect x="8" y="18" width="1" height="1" fill="#b0b016"/>
<rect x="9" y="18" width="1" height="1" fill="#9f9f0b"/>
<rect x="10" y="18" width="1" height="1" fill="#a0a00c" fill-opacity="0.012"/>
<rect x="4" y="19" width="1" height="1" fill="#acac14" fill-opacity="0.733"/>
<rect x="5" y="19" width="1" height="1" fill="#a0a00c" fill-opacity="0.996"/>
<rect x="6" y="19" width="1" height="1" fill="#a1a10d"/>
<rect x="7" y="19" width="1" height="1" fill="#a0a00c"/>
<rect x="8" y="19" width="1" height="1" fill="#a0a00c" fill-opacity="0.992"/>
<rect x="9" y="19" width="1" height="1" fill="#aeae15" fill-opacity="0.651"/>
</svg>