<?xml version="1.0" encoding="UTF-8" standalone="no"?>
<svg xmlns="http://www.w3.org/2000/svg" width="26" height="21" shape-rendering="crispEdges">
<rect x="12" y="1" width="1" height="1" fill="#41d211" fill-opacity="0.008"/>
<rect x="13" y="1" width="1" height="1" fill="#40ce10" fill-opacity="0.294"/>
<rect x="14" y="1" width="1" height="1" fill="#41d211" fill-opacity="0.055"/>
<rect x="12" y="2" width="1" height="1" fill="#3ecc0f" fill-opacity="0.451"/>
<rect x="13" y="2" width="1" height="1" fill="#37b40d"/>
<rect x="14" y="2" width="1" height="1" fill="#37b50c" fill-opacity="0.957"/>
<rect x="15" y="2" width="1" height="1" fill="#3bbe0f" fill-opacity="0.863"/>
<rect x="16" y="2" width="1" height="1" fill="#34ac0b" fill-opacity="0.996"/>
<rect x="17" y="2" width="1" height="1" fill="#40d011" fill-opacity="0.188"/>
<rect x="18" y="2" width="1" height="1" fill="#41d211" fill-opacity="0.024"/>
<rect x="19" y="2" width="1" height="1" fill="#41d211" fill-opacity="0.047"/>
<rect x="12" y="3" width="1" height="1" fill="#3ecc10" fill-opacity="0.396"/>
<rect x="13" y="3" width="1" height="1" fill="#40ba17"/>
<rect x="14" y="3" width="1" height="1" fill="#66db3f" fill-opacity="0.996"/>
<rect x="15" y="3" width="1" height="1" fill="#62dd39" fill-opacity="0.976"/>
<rect x="16" y="3" width="1" height="1" fill="#74d155"/>
<rect x="17" y="3" width="1" height="1" fill="#3cc40f" fill-opacity="0.745"/>
<rect x="18" y="3" width="1" height="1" fill="#36b60c" fill-opacity="0.949"/>
<rect x="19" y="3" width="1" height="1" fill="#3abe0e" fill-opacity="0.859"/>
<rect x="13" y="4" width="1" height="1" fill="#39bd0e" fill-opacity="0.875"/>
<rect x="14" y="4" width="1" height="1" fill="#3abf0d" fill-opacity="0.847"/>
<rect x="15" y="4" width="1" height="1" fill="#38ba0d" fill-opacity="0.976"/>
<rect x="16" y="4" width="1" height="1" fill="#37b00f" fill-opacity="0.984"/>
<rect x="17" y="4" width="1" height="1" fill="#42cf13" fill-opacity="0.957"/>
<rect x="18" y="4" width="1" height="1" fill="#6de944"/>
<rect x="19" y="4" width="1" height="1" fill="#39b70f" fill-opacity="0.945"/>
<rect x="9" y="5" width="1" height="1" fill="#32aa0b" fill-opacity="0.004"/>
<rect x="10" y="5" width="1" height="1" fill="#3dc70f" fill-opacity="0.055"/>
<rect x="11" y="5" width="1" height="1" fill="#33aa0b" fill-opacity="0.004"/>
<rect x="12" y="5" width="1" height="1" fill="#33aa0b" fill-opacity="0.004"/>
<rect x="14" y="5" width="1" height="1" fill="#41d211" fill-opacity="0.024"/>
<rect x="15" y="5" width="1" height="1" fill="#3fcc10" fill-opacity="0.427"/>
<rect x="16" y="5" width="1" height="1" fill="#3fcf10" fill-opacity="0.235"/>
<rect x="17" y="5" width="1" height="1" fill="#35b10c"/>
<rect x="18" y="5" width="1" height="1" fill="#72f845"/>
<rect x="19" y="5" width="1" height="1" fill="#3ec013"/>
<rect x="20" y="5" width="1" height="1" fill="#3ec911" fill-opacity="0.522"/>
<rect x="21" y="5" width="1" height="1" fill="#39bb0e" fill-opacity="0.914"/>
<rect x="22" y="5" width="1" height="1" fill="#40cf11" fill-opacity="0.235"/>
<rect x="7" y="6" width="1" height="1" fill="#41d211" fill-opacity="0.024"/>
<rect x="8" y="6" width="1" height="1" fill="#3bc20e" fill-opacity="0.69"/>
<rect x="9" y="6" width="1" height="1" fill="#35b10c" fill-opacity="0.973"/>
<rect x="10" y="6" width="1" height="1" fill="#36b40d" fill-opacity="0.957"/>
<rect x="11" y="6" width="1" height="1" fill="#38b60d" fill-opacity="0.925"/>
<rect x="12" y="6" width="1" height="1" fill="#38b60e" fill-opacity="0.89"/>
<rect x="13" y="6" width="1" height="1" fill="#39bb0d" fill-opacity="0.808"/>
<rect x="14" y="6" width="1" height="1" fill="#3bc10e" fill-opacity="0.482"/>
<rect x="15" y="6" width="1" height="1" fill="#38b70d" fill-opacity="0.024"/>
<rect x="17" y="6" width="1" height="1" fill="#3bc20e" fill-opacity="0.788"/>
<rect x="18" y="6" width="1" height="1" fill="#33ac0b" fill-opacity="0.996"/>
<rect x="19" y="6" width="1" height="1" fill="#4ff218" fill-opacity="0.988"/>
<rect x="20" y="6" width="1" height="1" fill="#48c020"/>
<rect x="21" y="6" width="1" height="1" fill="#4cd81d"/>
<rect x="22" y="6" width="1" height="1" fill="#39b90e" fill-opacity="0.925"/>
<rect x="6" y="7" width="1" height="1" fill="#3eca0f" fill-opacity="0.525"/>
<rect x="7" y="7" width="1" height="1" fill="#34ae0b" fill-opacity="0.992"/>
<rect x="8" y="7" width="1" height="1" fill="#3abb0f"/>
<rect x="9" y="7" width="1" height="1" fill="#44c11b"/>
<rect x="10" y="7" width="1" height="1" fill="#47c01f"/>
<rect x="11" y="7" width="1" height="1" fill="#5fca3b"/>
<rect x="12" y="7" width="1" height="1" fill="#62ca3f"/>
<rect x="13" y="7" width="1" height="1" fill="#49ba23"/>
<rect x="14" y="7" width="1" height="1" fill="#37b20e" fill-opacity="0.996"/>
<rect x="15" y="7" width="1" height="1" fill="#39bc0e" fill-opacity="0.89"/>
<rect x="16" y="7" width="1" height="1" fill="#40d011" fill-opacity="0.122"/>
<rect x="19" y="7" width="1" height="1" fill="#34ab0d"/>
<rect x="20" y="7" width="1" height="1" fill="#56e824"/>
<rect x="21" y="7" width="1" height="1" fill="#42ca15"/>
<rect x="22" y="7" width="1" height="1" fill="#3cbc12" fill-opacity="0.871"/>
<rect x="23" y="7" width="1" height="1" fill="#41d211" fill-opacity="0.016"/>
<rect x="5" y="8" width="1" height="1" fill="#3eca0f" fill-opacity="0.494"/>
<rect x="6" y="8" width="1" height="1" fill="#39ba0d" fill-opacity="0.976"/>
<rect x="7" y="8" width="1" height="1" fill="#4fd623"/>
<rect x="8" y="8" width="1" height="1" fill="#70db4c"/>
<rect x="9" y="8" width="1" height="1" fill="#98e57f"/>
<rect x="10" y="8" width="1" height="1" fill="#b2f39d"/>
<rect x="11" y="8" width="1" height="1" fill="#c0fdac"/>
<rect x="12" y="8" width="1" height="1" fill="#befea8"/>
<rect x="13" y="8" width="1" height="1" fill="#a2f089"/>
<rect x="14" y="8" width="1" height="1" fill="#66da40"/>
<rect x="15" y="8" width="1" height="1" fill="#3ed50d"/>
<rect x="16" y="8" width="1" height="1" fill="#37b40d" fill-opacity="0.973"/>
<rect x="17" y="8" width="1" height="1" fill="#41ce13" fill-opacity="0.02"/>
<rect x="18" y="8" width="1" height="1" fill="#40d011" fill-opacity="0.149"/>
<rect x="19" y="8" width="1" height="1" fill="#39b70f" fill-opacity="0.961"/>
<rect x="20" y="8" width="1" height="1" fill="#3cba11" fill-opacity="0.976"/>
<rect x="21" y="8" width="1" height="1" fill="#3cbb13" fill-opacity="0.894"/>
<rect x="22" y="8" width="1" height="1" fill="#3fba17" fill-opacity="0.251"/>
<rect x="3" y="9" width="1" height="1" fill="#41d211" fill-opacity="0.008"/>
<rect x="4" y="9" width="1" height="1" fill="#3dc60f" fill-opacity="0.624"/>
<rect x="5" y="9" width="1" height="1" fill="#38b70d" fill-opacity="0.992"/>
<rect x="6" y="9" width="1" height="1" fill="#53cb2c"/>
<rect x="7" y="9" width="1" height="1" fill="#8ee471"/>
<rect x="8" y="9" width="1" height="1" fill="#adf694"/>
<rect x="9" y="9" width="1" height="1" fill="#b3f99b"/>
<rect x="10" y="9" width="1" height="1" fill="#befda7"/>
<rect x="11" y="9" width="1" height="1" fill="#bfffa9"/>
<rect x="12" y="9" width="1" height="1" fill="#b8ff9f"/>
<rect x="13" y="9" width="1" height="1" fill="#b0fc96"/>
<rect x="14" y="9" width="1" height="1" fill="#a8f68e"/>
<rect x="15" y="9" width="1" height="1" fill="#7ce659"/>
<rect x="16" y="9" width="1" height="1" fill="#3dc610"/>
<rect x="17" y="9" width="1" height="1" fill="#3dc510" fill-opacity="0.706"/>
<rect x="18" y="9" width="1" height="1" fill="#43be1b" fill-opacity="0.004"/>
<rect x="19" y="9" width="1" height="1" fill="#41cf13" fill-opacity="0.047"/>
<rect x="20" y="9" width="1" height="1" fill="#3ec113" fill-opacity="0.702"/>
<rect x="21" y="9" width="1" height="1" fill="#3ab610" fill-opacity="0.957"/>
<rect x="22" y="9" width="1" height="1" fill="#36b00e" fill-opacity="0.992"/>
<rect x="23" y="9" width="1" height="1" fill="#39b70e" fill-opacity="0.894"/>
<rect x="24" y="9" width="1" height="1" fill="#41cf12" fill-opacity="0.157"/>
<rect x="3" y="10" width="1" height="1" fill="#40ce10" fill-opacity="0.247"/>
<rect x="4" y="10" width="1" height="1" fill="#34af0b" fill-opacity="0.992"/>
<rect x="5" y="10" width="1" height="1" fill="#49c41f"/>
<rect x="6" y="10" width="1" height="1" fill="#7dd85f"/>
<rect x="7" y="10" width="1" height="1" fill="#aef894"/>
<rect x="8" y="10" width="1" height="1" fill="#a6fb89"/>
<rect x="9" y="10" width="1" height="1" fill="#acfe8f"/>
<rect x="10" y="10" width="1" height="1" fill="#afff93"/>
<rect x="11" y="10" width="1" height="1" fill="#abfe8e"/>
<rect x="12" y="10" width="1" height="1" fill="#b1fe96"/>
<rect x="13" y="10" width="1" height="1" fill="#abff8e"/>
<rect x="14" y="10" width="1" height="1" fill="#b0fd95"/>
<rect x="15" y="10" width="1" height="1" fill="#99ec7e"/>
<rect x="16" y="10" width="1" height="1" fill="#53d728"/>
<rect x="17" y="10" width="1" height="1" fill="#33ac0c" fill-opacity="0.992"/>
<rect x="18" y="10" width="1" height="1" fill="#43be1b" fill-opacity="0.008"/>
<rect x="19" y="10" width="1" height="1" fill="#3dc710" fill-opacity="0.557"/>
<rect x="20" y="10" width="1" height="1" fill="#38b50f" fill-opacity="0.996"/>
<rect x="21" y="10" width="1" height="1" fill="#45c61b"/>
<rect x="22" y="10" width="1" height="1" fill="#60da38"/>
<rect x="23" y="10" width="1" height="1" fill="#3fc611"/>
<rect x="24" y="10" width="1" height="1" fill="#38b90e" fill-opacity="0.902"/>
<rect x="3" y="11" width="1" height="1" fill="#3bc10f" fill-opacity="0.765"/>
<rect x="4" y="11" width="1" height="1" fill="#38b70e"/>
<rect x="5" y="11" width="1" height="1" fill="#54c32f"/>
<rect x="6" y="11" width="1" height="1" fill="#acf094"/>
<rect x="7" y="11" width="1" height="1" fill="#b1fc97"/>
<rect x="8" y="11" width="1" height="1" fill="#a8fe8b"/>
<rect x="9" y="11" width="1" height="1" fill="#95ff72"/>
<rect x="10" y="11" width="1" height="1" fill="#88fb62"/>
<rect x="11" y="11" width="1" height="1" fill="#85fe5c"/>
<rect x="12" y="11" width="1" height="1" fill="#affe92"/>
<rect x="13" y="11" width="1" height="1" fill="#b1ff96"/>
<rect x="14" y="11" width="1" height="1" fill="#bdffa6"/>
<rect x="15" y="11" width="1" height="1" fill="#9def80"/>
<rect x="16" y="11" width="1" height="1" fill="#64d33f"/>
<rect x="17" y="11" width="1" height="1" fill="#33ab0c"/>
<rect x="18" y="11" width="1" height="1" fill="#3bc30f" fill-opacity="0.212"/>
<rect x="19" y="11" width="1" height="1" fill="#38b80e" fill-opacity="0.91"/>
<rect x="20" y="11" width="1" height="1" fill="#3abc0f"/>
<rect x="21" y="11" width="1" height="1" fill="#7bfc50"/>
<rect x="22" y="11" width="1" height="1" fill="#86fe5f"/>
<rect x="23" y="11" width="1" height="1" fill="#3ecd0f"/>
<rect x="24" y="11" width="1" height="1" fill="#3abb10" fill-opacity="0.906"/>
<rect x="25" y="11" width="1" height="1" fill="#41d211" fill-opacity="0.008"/>
<rect x="3" y="12" width="1" height="1" fill="#32aa0b" fill-opacity="0.996"/>
<rect x="4" y="12" width="1" height="1" fill="#40ba18"/>
<rect x="5" y="12" width="1" height="1" fill="#71d152"/>
<rect x="6" y="12" width="1" height="1" fill="#b4f89b"/>
<rect x="7" y="12" width="1" height="1" fill="#adfd92"/>
<rect x="8" y="12" width="1" height="1" fill="#9eff7d"/>
<rect x="9" y="12" width="1" height="1" fill="#75fd49"/>
<rect x="10" y="12" width="1" height="1" fill="#54ee22"/>
<rect x="11" y="12" width="1" height="1" fill="#57f622"/>
<rect x="12" y="12" width="1" height="1" fill="#7bfe4f"/>
<rect x="13" y="12" width="1" height="1" fill="#a5ff86"/>
<rect x="14" y="12" width="1" height="1" fill="#b5fd9d"/>
<rect x="15" y="12" width="1" height="1" fill="#a5f28a"/>
<rect x="16" y="12" width="1" height="1" fill="#71d251"/>
<rect x="17" y="12" width="1" height="1" fill="#36af0e"/>
<rect x="18" y="12" width="1" height="1" fill="#35b10c" fill-opacity="0.796"/>
<rect x="19" y="12" width="1" height="1" fill="#3cbe10" fill-opacity="0.851"/>
<rect x="20" y="12" width="1" height="1" fill="#38b60e"/>
<rect x="21" y="12" width="1" height="1" fill="#41d50f"/>
<rect x="22" y="12" width="1" height="1" fill="#3bc30f"/>
<rect x="23" y="12" width="1" height="1" fill="#38b30f"/>
<rect x="24" y="12" width="1" height="1" fill="#3ec213" fill-opacity="0.635"/>
<rect x="2" y="13" width="1" height="1" fill="#40d011" fill-opacity="0.098"/>
<rect x="3" y="13" width="1" height="1" fill="#33aa0b"/>
<rect x="4" y="13" width="1" height="1" fill="#42b81c"/>
<rect x="5" y="13" width="1" height="1" fill="#8bde6f"/>
<rect x="6" y="13" width="1" height="1" fill="#b7fb9e"/>
<rect x="7" y="13" width="1" height="1" fill="#aefe92"/>
<rect x="8" y="13" width="1" height="1" fill="#9efe7e"/>
<rect x="9" y="13" width="1" height="1" fill="#67f837"/>
<rect x="10" y="13" width="1" height="1" fill="#49e216"/>
<rect x="11" y="13" width="1" height="1" fill="#47df15"/>
<rect x="12" y="13" width="1" height="1" fill="#58ec28"/>
<rect x="13" y="13" width="1" height="1" fill="#82f35c"/>
<rect x="14" y="13" width="1" height="1" fill="#8de96d"/>
<rect x="15" y="13" width="1" height="1" fill="#91eb72"/>
<rect x="16" y="13" width="1" height="1" fill="#72d452"/>
<rect x="17" y="13" width="1" height="1" fill="#3ab312"/>
<rect x="18" y="13" width="1" height="1" fill="#35af0c" fill-opacity="0.941"/>
<rect x="19" y="13" width="1" height="1" fill="#42cc14" fill-opacity="0.078"/>
<rect x="20" y="13" width="1" height="1" fill="#3ab711" fill-opacity="0.973"/>
<rect x="21" y="13" width="1" height="1" fill="#37ae0f"/>
<rect x="22" y="13" width="1" height="1" fill="#3bb911" fill-opacity="0.914"/>
<rect x="23" y="13" width="1" height="1" fill="#40c415" fill-opacity="0.549"/>
<rect x="24" y="13" width="1" height="1" fill="#43c219" fill-opacity="0.035"/>
<rect x="2" y="14" width="1" height="1" fill="#3fcb10" fill-opacity="0.412"/>
<rect x="3" y="14" width="1" height="1" fill="#36b40d" fill-opacity="0.996"/>
<rect x="4" y="14" width="1" height="1" fill="#47bb21"/>
<rect x="5" y="14" width="1" height="1" fill="#a2eb88"/>
<rect x="6" y="14" width="1" height="1" fill="#b9fea3"/>
<rect x="7" y="14" width="1" height="1" fill="#baffa2"/>
<rect x="8" y="14" width="1" height="1" fill="#9bfa7a"/>
<rect x="9" y="14" width="1" height="1" fill="#66f636"/>
<rect x="10" y="14" width="1" height="1" fill="#47e214"/>
<rect x="11" y="14" width="1" height="1" fill="#4acf1e"/>
<rect x="12" y="14" width="1" height="1" fill="#48c61f"/>
<rect x="13" y="14" width="1" height="1" fill="#40b917"/>
<rect x="14" y="14" width="1" height="1" fill="#53c62d"/>
<rect x="15" y="14" width="1" height="1" fill="#72d850"/>
<rect x="16" y="14" width="1" height="1" fill="#45b71f"/>
<rect x="17" y="14" width="1" height="1" fill="#33ab0b"/>
<rect x="18" y="14" width="1" height="1" fill="#35b10c" fill-opacity="0.961"/>
<rect x="2" y="15" width="1" height="1" fill="#3fcc10" fill-opacity="0.373"/>
<rect x="3" y="15" width="1" height="1" fill="#36b20c"/>
<rect x="4" y="15" width="1" height="1" fill="#4cbf26"/>
<rect x="5" y="15" width="1" height="1" fill="#99e77f"/>
<rect x="6" y="15" width="1" height="1" fill="#beffa7"/>
<rect x="7" y="15" width="1" height="1" fill="#c5ffb2"/>
<rect x="8" y="15" width="1" height="1" fill="#94f973"/>
<rect x="9" y="15" width="1" height="1" fill="#6af63c"/>
<rect x="10" y="15" width="1" height="1" fill="#3ecb11"/>
<rect x="11" y="15" width="1" height="1" fill="#33aa0b"/>
<rect x="12" y="15" width="1" height="1" fill="#33aa0b"/>
<rect x="13" y="15" width="1" height="1" fill="#33aa0b"/>
<rect x="14" y="15" width="1" height="1" fill="#33aa0b"/>
<rect x="15" y="15" width="1" height="1" fill="#34ac0c"/>
<rect x="16" y="15" width="1" height="1" fill="#33ab0b"/>
<rect x="17" y="15" width="1" height="1" fill="#33ab0b" fill-opacity="0.996"/>
<rect x="18" y="15" width="1" height="1" fill="#3dc70f" fill-opacity="0.427"/>
<rect x="2" y="16" width="1" height="1" fill="#41d211" fill-opacity="0.078"/>
<rect x="3" y="16" width="1" height="1" fill="#32a90a"/>
<rect x="4" y="16" width="1" height="1" fill="#47c31e"/>
<rect x="5" y="16" width="1" height="1" fill="#7bd65c"/>
<rect x="6" y="16" width="1" height="1" fill="#b8f8a2"/>
<rect x="7" y="16" width="1" height="1" fill="#b3fa9d"/>
<rect x="8" y="16" width="1" height="1" fill="#86ea65"/>
<rect x="9" y="16" width="1" height="1" fill="#5bde30"/>
<rect x="10" y="16" width="1" height="1" fill="#34ae0c" fill-opacity="0.98"/>
<rect x="11" y="16" width="1" height="1" fill="#35af0c" fill-opacity="0.541"/>
<rect x="12" y="16" width="1" height="1" fill="#33ab0b" fill-opacity="0.118"/>
<rect x="13" y="16" width="1" height="1" fill="#39bd0e" fill-opacity="0.514"/>
<rect x="14" y="16" width="1" height="1" fill="#37b70d" fill-opacity="0.812"/>
<rect x="15" y="16" width="1" height="1" fill="#36b60c" fill-opacity="0.89"/>
<rect x="16" y="16" width="1" height="1" fill="#37b80d" fill-opacity="0.886"/>
<rect x="17" y="16" width="1" height="1" fill="#3cc30e" fill-opacity="0.357"/>
<rect x="2" y="17" width="1" height="1" fill="#41d211" fill-opacity="0.016"/>
<rect x="3" y="17" width="1" height="1" fill="#36b30c" fill-opacity="0.925"/>
<rect x="4" y="17" width="1" height="1" fill="#38b40f"/>
<rect x="5" y="17" width="1" height="1" fill="#53c42e"/>
<rect x="6" y="17" width="1" height="1" fill="#8dde71"/>
<rect x="7" y="17" width="1" height="1" fill="#96e57d"/>
<rect x="8" y="17" width="1" height="1" fill="#7bde5a"/>
<rect x="9" y="17" width="1" height="1" fill="#36ad0f"/>
<rect x="10" y="17" width="1" height="1" fill="#37b40d" fill-opacity="0.455"/>
<rect x="11" y="17" width="1" height="1" fill="#33aa0b" fill-opacity="0.004"/>
<rect x="3" y="18" width="1" height="1" fill="#3bc20e" fill-opacity="0.455"/>
<rect x="4" y="18" width="1" height="1" fill="#34ad0b"/>
<rect x="5" y="18" width="1" height="1" fill="#45c71a"/>
<rect x="6" y="18" width="1" height="1" fill="#64d23f"/>
<rect x="7" y="18" width="1" height="1" fill="#73d751"/>
<rect x="8" y="18" width="1" height="1" fill="#47be1e"/>
<rect x="9" y="18" width="1" height="1" fill="#34ab0c" fill-opacity="0.996"/>
<rect x="10" y="18" width="1" height="1" fill="#33aa0b" fill-opacity="0.176"/>
<rect x="4" y="19" width="1" height="1" fill="#3bc30f" fill-opacity="0.541"/>
<rect x="5" y="19" width="1" height="1" fill="#35b20c" fill-opacity="0.961"/>
<rect x="6" y="19" width="1" height="1" fill="#36b10c" fill-opacity="0.992"/>
<rect x="7" y="19" width="1" height="1" fill="#34ac0c"/>
<rect x="8" y="19" width="1" height="1" fill="#33ab0b" fill-opacity="0.992"/>
<rect x="9" y="19" width="1" height="1" fill="#35b20c" fill-opacity="0.757"/>
<rect x="10" y="19" width="1" height="1" fill="#33aa0b" fill-opacity="0.008"/>
</svg>