<?xml version="1.0" encoding="UTF-8" standalone="no"?>
<svg xmlns="http://www.w3.org/2000/svg" width="26" height="21" shape-rendering="crispEdges">
<rect x="12" y="1" width="1" height="1" fill="#1536cf" fill-opacity="0.008"/>
<rect x="13" y="1" width="1" height="1" fill="#1536cb" fill-opacity="0.294"/>
<rect x="14" y="1" width="1" height="1" fill="#1536cf" fill-opacity="0.055"/>
<rect x="15" y="1" width="1" height="1" fill="#1534b4" fill-opacity="0.047"/>
<rect x="16" y="1" width="1" height="1" fill="#1534b4" fill-opacity="0.027"/>
<rect x="12" y="2" width="1" height="1" fill="#1536c7" fill-opacity="0.451"/>
<rect x="13" y="2" width="1" height="1" fill="#1532af"/>
<rect x="14" y="2" width="1" height="1" fill="#1532af" fill-opacity="0.965"/>
<rect x="15" y="2" width="1" height="1" fill="#1334b5" fill-opacity="0.91"/>
<rect x="16" y="2" width="1" height="1" fill="#1532a9" fill-opacity="0.996"/>
<rect x="17" y="2" width="1" height="1" fill="#1535c5" fill-opacity="0.224"/>
<rect x="18" y="2" width="1" height="1" fill="#1535c6" fill-opacity="0.059"/>
<rect x="19" y="2" width="1" height="1" fill="#1536cf" fill-opacity="0.055"/>
<rect x="12" y="3" width="1" height="1" fill="#1536c9" fill-opacity="0.396"/>
<rect x="13" y="3" width="1" height="1" fill="#1836b5"/>
<rect x="14" y="3" width="1" height="1" fill="#2443da" fill-opacity="0.988"/>
<rect x="15" y="3" width="1" height="1" fill="#2947d4" fill-opacity="0.98"/>
<rect x="16" y="3" width="1" height="1" fill="#2340d3"/>
<rect x="17" y="3" width="1" height="1" fill="#1735ba" fill-opacity="0.871"/>
<rect x="18" y="3" width="1" height="1" fill="#1534b0" fill-opacity="0.973"/>
<rect x="19" y="3" width="1" height="1" fill="#1534b3" fill-opacity="0.925"/>
<rect x="20" y="3" width="1" height="1" fill="#1736c0" fill-opacity="0.071"/>
<rect x="13" y="4" width="1" height="1" fill="#1534af" fill-opacity="0.965"/>
<rect x="14" y="4" width="1" height="1" fill="#1532a7" fill-opacity="0.996"/>
<rect x="15" y="4" width="1" height="1" fill="#1735bc"/>
<rect x="16" y="4" width="1" height="1" fill="#1734aa"/>
<rect x="17" y="4" width="1" height="1" fill="#1b3ac7" fill-opacity="0.988"/>
<rect x="18" y="4" width="1" height="1" fill="#2d4ae0"/>
<rect x="19" y="4" width="1" height="1" fill="#1532a6"/>
<rect x="20" y="4" width="1" height="1" fill="#1734b4" fill-opacity="0.204"/>
<rect x="21" y="4" width="1" height="1" fill="#183acf" fill-opacity="0.071"/>
<rect x="10" y="5" width="1" height="1" fill="#1536cf" fill-opacity="0.039"/>
<rect x="14" y="5" width="1" height="1" fill="#1736be" fill-opacity="0.145"/>
<rect x="15" y="5" width="1" height="1" fill="#1737c1" fill-opacity="0.6"/>
<rect x="16" y="5" width="1" height="1" fill="#1839c9" fill-opacity="0.231"/>
<rect x="17" y="5" width="1" height="1" fill="#1532ac"/>
<rect x="18" y="5" width="1" height="1" fill="#2d4cec"/>
<rect x="19" y="5" width="1" height="1" fill="#1a3bd4"/>
<rect x="20" y="5" width="1" height="1" fill="#1735b0" fill-opacity="0.953"/>
<rect x="21" y="5" width="1" height="1" fill="#1734b0" fill-opacity="0.957"/>
<rect x="22" y="5" width="1" height="1" fill="#1837c1" fill-opacity="0.663"/>
<rect x="7" y="6" width="1" height="1" fill="#1536cf" fill-opacity="0.024"/>
<rect x="8" y="6" width="1" height="1" fill="#1335c2" fill-opacity="0.659"/>
<rect x="9" y="6" width="1" height="1" fill="#1532b0" fill-opacity="0.961"/>
<rect x="10" y="6" width="1" height="1" fill="#1332b4" fill-opacity="0.929"/>
<rect x="11" y="6" width="1" height="1" fill="#1736b9" fill-opacity="0.886"/>
<rect x="12" y="6" width="1" height="1" fill="#1835ae" fill-opacity="0.976"/>
<rect x="13" y="6" width="1" height="1" fill="#1735bb" fill-opacity="0.835"/>
<rect x="14" y="6" width="1" height="1" fill="#1536c9" fill-opacity="0.384"/>
<rect x="15" y="6" width="1" height="1" fill="#1536cf" fill-opacity="0.008"/>
<rect x="17" y="6" width="1" height="1" fill="#1836bc" fill-opacity="0.82"/>
<rect x="18" y="6" width="1" height="1" fill="#1531a5"/>
<rect x="19" y="6" width="1" height="1" fill="#1739ca"/>
<rect x="20" y="6" width="1" height="1" fill="#2341d6"/>
<rect x="21" y="6" width="1" height="1" fill="#1339e3"/>
<rect x="22" y="6" width="1" height="1" fill="#1532a7" fill-opacity="0.996"/>
<rect x="23" y="6" width="1" height="1" fill="#1737cf" fill-opacity="0.078"/>
<rect x="6" y="7" width="1" height="1" fill="#1335c6" fill-opacity="0.525"/>
<rect x="7" y="7" width="1" height="1" fill="#1532a9" fill-opacity="0.992"/>
<rect x="8" y="7" width="1" height="1" fill="#203dc6"/>
<rect x="9" y="7" width="1" height="1" fill="#314fe4"/>
<rect x="10" y="7" width="1" height="1" fill="#3955dd"/>
<rect x="11" y="7" width="1" height="1" fill="#4869e2"/>
<rect x="12" y="7" width="1" height="1" fill="#3151e3"/>
<rect x="13" y="7" width="1" height="1" fill="#2444d8"/>
<rect x="14" y="7" width="1" height="1" fill="#1837b5" fill-opacity="0.992"/>
<rect x="15" y="7" width="1" height="1" fill="#1534b6" fill-opacity="0.906"/>
<rect x="16" y="7" width="1" height="1" fill="#1536ce" fill-opacity="0.114"/>
<rect x="17" y="7" width="1" height="1" fill="#1534b4" fill-opacity="0.004"/>
<rect x="18" y="7" width="1" height="1" fill="#1534b4" fill-opacity="0.039"/>
<rect x="19" y="7" width="1" height="1" fill="#1531a6"/>
<rect x="20" y="7" width="1" height="1" fill="#314ee0"/>
<rect x="21" y="7" width="1" height="1" fill="#1739d0"/>
<rect x="22" y="7" width="1" height="1" fill="#1535bc" fill-opacity="0.812"/>
<rect x="23" y="7" width="1" height="1" fill="#1536cf" fill-opacity="0.039"/>
<rect x="5" y="8" width="1" height="1" fill="#1335c7" fill-opacity="0.486"/>
<rect x="6" y="8" width="1" height="1" fill="#1735b9" fill-opacity="0.973"/>
<rect x="7" y="8" width="1" height="1" fill="#3652e9"/>
<rect x="8" y="8" width="1" height="1" fill="#576ff0"/>
<rect x="9" y="8" width="1" height="1" fill="#5c7ef8"/>
<rect x="10" y="8" width="1" height="1" fill="#5a7efc"/>
<rect x="11" y="8" width="1" height="1" fill="#5a81fe"/>
<rect x="12" y="8" width="1" height="1" fill="#577efc"/>
<rect x="13" y="8" width="1" height="1" fill="#5478fa"/>
<rect x="14" y="8" width="1" height="1" fill="#4162f6"/>
<rect x="15" y="8" width="1" height="1" fill="#2245e3"/>
<rect x="16" y="8" width="1" height="1" fill="#1835af" fill-opacity="0.973"/>
<rect x="17" y="8" width="1" height="1" fill="#1536cf" fill-opacity="0.016"/>
<rect x="18" y="8" width="1" height="1" fill="#1536cc" fill-opacity="0.149"/>
<rect x="19" y="8" width="1" height="1" fill="#1534b3" fill-opacity="0.949"/>
<rect x="20" y="8" width="1" height="1" fill="#1534bb" fill-opacity="0.961"/>
<rect x="21" y="8" width="1" height="1" fill="#1535ba" fill-opacity="0.835"/>
<rect x="22" y="8" width="1" height="1" fill="#1537ca" fill-opacity="0.302"/>
<rect x="23" y="8" width="1" height="1" fill="#1a3acf" fill-opacity="0.063"/>
<rect x="3" y="9" width="1" height="1" fill="#1536cf" fill-opacity="0.008"/>
<rect x="4" y="9" width="1" height="1" fill="#1335c4" fill-opacity="0.62"/>
<rect x="5" y="9" width="1" height="1" fill="#1535ba" fill-opacity="0.988"/>
<rect x="6" y="9" width="1" height="1" fill="#4e64e5"/>
<rect x="7" y="9" width="1" height="1" fill="#647df2"/>
<rect x="8" y="9" width="1" height="1" fill="#6991ff"/>
<rect x="9" y="9" width="1" height="1" fill="#6389ff"/>
<rect x="10" y="9" width="1" height="1" fill="#6a91fe"/>
<rect x="11" y="9" width="1" height="1" fill="#6b92fe"/>
<rect x="12" y="9" width="1" height="1" fill="#658cfe"/>
<rect x="13" y="9" width="1" height="1" fill="#6087fd"/>
<rect x="14" y="9" width="1" height="1" fill="#6085fc"/>
<rect x="15" y="9" width="1" height="1" fill="#6180f8"/>
<rect x="16" y="9" width="1" height="1" fill="#2d4cd2"/>
<rect x="17" y="9" width="1" height="1" fill="#1837c2" fill-opacity="0.706"/>
<rect x="19" y="9" width="1" height="1" fill="#1536cf" fill-opacity="0.063"/>
<rect x="20" y="9" width="1" height="1" fill="#1736bc" fill-opacity="0.8"/>
<rect x="21" y="9" width="1" height="1" fill="#1839cc" fill-opacity="0.965"/>
<rect x="22" y="9" width="1" height="1" fill="#1734af" fill-opacity="0.996"/>
<rect x="23" y="9" width="1" height="1" fill="#1735b3" fill-opacity="0.945"/>
<rect x="24" y="9" width="1" height="1" fill="#1839ca" fill-opacity="0.361"/>
<rect x="3" y="10" width="1" height="1" fill="#1536cb" fill-opacity="0.247"/>
<rect x="4" y="10" width="1" height="1" fill="#1532ac" fill-opacity="0.988"/>
<rect x="5" y="10" width="1" height="1" fill="#3d58ed"/>
<rect x="6" y="10" width="1" height="1" fill="#6176ed"/>
<rect x="7" y="10" width="1" height="1" fill="#7096ff"/>
<rect x="8" y="10" width="1" height="1" fill="#678eff"/>
<rect x="9" y="10" width="1" height="1" fill="#6e95ff"/>
<rect x="10" y="10" width="1" height="1" fill="#7299fe"/>
<rect x="11" y="10" width="1" height="1" fill="#729afe"/>
<rect x="12" y="10" width="1" height="1" fill="#7198fe"/>
<rect x="13" y="10" width="1" height="1" fill="#7097fe"/>
<rect x="14" y="10" width="1" height="1" fill="#6e94fe"/>
<rect x="15" y="10" width="1" height="1" fill="#7597fc"/>
<rect x="16" y="10" width="1" height="1" fill="#5371ef"/>
<rect x="17" y="10" width="1" height="1" fill="#1a37ac"/>
<rect x="18" y="10" width="1" height="1" fill="#133ae4" fill-opacity="0.031"/>
<rect x="19" y="10" width="1" height="1" fill="#1536c6" fill-opacity="0.545"/>
<rect x="20" y="10" width="1" height="1" fill="#1736bb" fill-opacity="0.992"/>
<rect x="21" y="10" width="1" height="1" fill="#1539e8"/>
<rect x="22" y="10" width="1" height="1" fill="#1a41fc"/>
<rect x="23" y="10" width="1" height="1" fill="#123ae8"/>
<rect x="24" y="10" width="1" height="1" fill="#1735b2" fill-opacity="0.945"/>
<rect x="3" y="11" width="1" height="1" fill="#1535bf" fill-opacity="0.753"/>
<rect x="4" y="11" width="1" height="1" fill="#1837c4"/>
<rect x="5" y="11" width="1" height="1" fill="#4c63e0"/>
<rect x="6" y="11" width="1" height="1" fill="#6c84f9"/>
<rect x="7" y="11" width="1" height="1" fill="#729aff"/>
<rect x="8" y="11" width="1" height="1" fill="#6f97ff"/>
<rect x="9" y="11" width="1" height="1" fill="#7299fe"/>
<rect x="10" y="11" width="1" height="1" fill="#739afd"/>
<rect x="11" y="11" width="1" height="1" fill="#739afe"/>
<rect x="12" y="11" width="1" height="1" fill="#7199fe"/>
<rect x="13" y="11" width="1" height="1" fill="#7196fe"/>
<rect x="14" y="11" width="1" height="1" fill="#7196fd"/>
<rect x="15" y="11" width="1" height="1" fill="#7294fc"/>
<rect x="16" y="11" width="1" height="1" fill="#5d7ef0"/>
<rect x="17" y="11" width="1" height="1" fill="#2341bd"/>
<rect x="18" y="11" width="1" height="1" fill="#1537cb" fill-opacity="0.494"/>
<rect x="19" y="11" width="1" height="1" fill="#1535b6" fill-opacity="0.894"/>
<rect x="20" y="11" width="1" height="1" fill="#1736c1"/>
<rect x="21" y="11" width="1" height="1" fill="#2447f5"/>
<rect x="22" y="11" width="1" height="1" fill="#566efc"/>
<rect x="23" y="11" width="1" height="1" fill="#1337d3"/>
<rect x="24" y="11" width="1" height="1" fill="#1534b2" fill-opacity="0.945"/>
<rect x="25" y="11" width="1" height="1" fill="#183acf" fill-opacity="0.047"/>
<rect x="3" y="12" width="1" height="1" fill="#1531a5" fill-opacity="0.996"/>
<rect x="4" y="12" width="1" height="1" fill="#2d49d0"/>
<rect x="5" y="12" width="1" height="1" fill="#5267e4"/>
<rect x="6" y="12" width="1" height="1" fill="#7593ff"/>
<rect x="7" y="12" width="1" height="1" fill="#759dff"/>
<rect x="8" y="12" width="1" height="1" fill="#6f96fd"/>
<rect x="9" y="12" width="1" height="1" fill="#6f96fc"/>
<rect x="10" y="12" width="1" height="1" fill="#6d93fb"/>
<rect x="11" y="12" width="1" height="1" fill="#678dfb"/>
<rect x="12" y="12" width="1" height="1" fill="#5f86fc"/>
<rect x="13" y="12" width="1" height="1" fill="#6287fd"/>
<rect x="14" y="12" width="1" height="1" fill="#658afd"/>
<rect x="15" y="12" width="1" height="1" fill="#6a8bfb"/>
<rect x="16" y="12" width="1" height="1" fill="#5877f0"/>
<rect x="17" y="12" width="1" height="1" fill="#2845c5"/>
<rect x="18" y="12" width="1" height="1" fill="#1736bf" fill-opacity="0.769"/>
<rect x="19" y="12" width="1" height="1" fill="#1535bb" fill-opacity="0.82"/>
<rect x="20" y="12" width="1" height="1" fill="#1736b9"/>
<rect x="21" y="12" width="1" height="1" fill="#1a3bd4"/>
<rect x="22" y="12" width="1" height="1" fill="#1735bc"/>
<rect x="23" y="12" width="1" height="1" fill="#1534b2"/>
<rect x="24" y="12" width="1" height="1" fill="#1535c1" fill-opacity="0.514"/>
<rect x="2" y="13" width="1" height="1" fill="#1536cc" fill-opacity="0.098"/>
<rect x="3" y="13" width="1" height="1" fill="#1531a6"/>
<rect x="4" y="13" width="1" height="1" fill="#2d48c7"/>
<rect x="5" y="13" width="1" height="1" fill="#5b70ea"/>
<rect x="6" y="13" width="1" height="1" fill="#779bff"/>
<rect x="7" y="13" width="1" height="1" fill="#769dfe"/>
<rect x="8" y="13" width="1" height="1" fill="#698efb"/>
<rect x="9" y="13" width="1" height="1" fill="#638af9"/>
<rect x="10" y="13" width="1" height="1" fill="#5d83f9"/>
<rect x="11" y="13" width="1" height="1" fill="#4369f4"/>
<rect x="12" y="13" width="1" height="1" fill="#4064f1"/>
<rect x="13" y="13" width="1" height="1" fill="#5679f7"/>
<rect x="14" y="13" width="1" height="1" fill="#6284f9"/>
<rect x="15" y="13" width="1" height="1" fill="#5c7ef4"/>
<rect x="16" y="13" width="1" height="1" fill="#4163df"/>
<rect x="17" y="13" width="1" height="1" fill="#2442c4"/>
<rect x="18" y="13" width="1" height="1" fill="#1534b0" fill-opacity="0.937"/>
<rect x="19" y="13" width="1" height="1" fill="#1737c6" fill-opacity="0.039"/>
<rect x="20" y="13" width="1" height="1" fill="#1534af" fill-opacity="0.961"/>
<rect x="21" y="13" width="1" height="1" fill="#1531a5"/>
<rect x="22" y="13" width="1" height="1" fill="#1534b9" fill-opacity="0.843"/>
<rect x="23" y="13" width="1" height="1" fill="#1535c4" fill-opacity="0.443"/>
<rect x="24" y="13" width="1" height="1" fill="#1536cf" fill-opacity="0.008"/>
<rect x="2" y="14" width="1" height="1" fill="#1536c9" fill-opacity="0.404"/>
<rect x="3" y="14" width="1" height="1" fill="#1534b2" fill-opacity="0.996"/>
<rect x="4" y="14" width="1" height="1" fill="#2d48c7"/>
<rect x="5" y="14" width="1" height="1" fill="#586ee5"/>
<rect x="6" y="14" width="1" height="1" fill="#748dff"/>
<rect x="7" y="14" width="1" height="1" fill="#7394ff"/>
<rect x="8" y="14" width="1" height="1" fill="#6386fb"/>
<rect x="9" y="14" width="1" height="1" fill="#577cf9"/>
<rect x="10" y="14" width="1" height="1" fill="#3d61ee"/>
<rect x="11" y="14" width="1" height="1" fill="#2145e7"/>
<rect x="12" y="14" width="1" height="1" fill="#1c3fd3"/>
<rect x="13" y="14" width="1" height="1" fill="#274adb"/>
<rect x="14" y="14" width="1" height="1" fill="#2f50df"/>
<rect x="15" y="14" width="1" height="1" fill="#3150d9"/>
<rect x="16" y="14" width="1" height="1" fill="#2a46c6"/>
<rect x="17" y="14" width="1" height="1" fill="#1737b8"/>
<rect x="18" y="14" width="1" height="1" fill="#1534b2" fill-opacity="0.937"/>
<rect x="2" y="15" width="1" height="1" fill="#1536c9" fill-opacity="0.365"/>
<rect x="3" y="15" width="1" height="1" fill="#1534b2"/>
<rect x="4" y="15" width="1" height="1" fill="#2945ca"/>
<rect x="5" y="15" width="1" height="1" fill="#4b61d7"/>
<rect x="6" y="15" width="1" height="1" fill="#6d7ff9"/>
<rect x="7" y="15" width="1" height="1" fill="#7086fe"/>
<rect x="8" y="15" width="1" height="1" fill="#5d7afb"/>
<rect x="9" y="15" width="1" height="1" fill="#3256e9"/>
<rect x="10" y="15" width="1" height="1" fill="#1e40c9"/>
<rect x="11" y="15" width="1" height="1" fill="#1534aa" fill-opacity="0.996"/>
<rect x="12" y="15" width="1" height="1" fill="#1734ac"/>
<rect x="13" y="15" width="1" height="1" fill="#1534b4"/>
<rect x="14" y="15" width="1" height="1" fill="#1837bb"/>
<rect x="15" y="15" width="1" height="1" fill="#1836b4"/>
<rect x="16" y="15" width="1" height="1" fill="#1534b0"/>
<rect x="17" y="15" width="1" height="1" fill="#1532aa" fill-opacity="0.984"/>
<rect x="18" y="15" width="1" height="1" fill="#1536c9" fill-opacity="0.384"/>
<rect x="2" y="16" width="1" height="1" fill="#1536cc" fill-opacity="0.082"/>
<rect x="3" y="16" width="1" height="1" fill="#1531a6"/>
<rect x="4" y="16" width="1" height="1" fill="#2543d0"/>
<rect x="5" y="16" width="1" height="1" fill="#3c54cf"/>
<rect x="6" y="16" width="1" height="1" fill="#5368df"/>
<rect x="7" y="16" width="1" height="1" fill="#586de5"/>
<rect x="8" y="16" width="1" height="1" fill="#344ed1"/>
<rect x="9" y="16" width="1" height="1" fill="#1839c2"/>
<rect x="10" y="16" width="1" height="1" fill="#1734ad" fill-opacity="0.976"/>
<rect x="11" y="16" width="1" height="1" fill="#1535c0" fill-opacity="0.184"/>
<rect x="12" y="16" width="1" height="1" fill="#1536c5" fill-opacity="0.008"/>
<rect x="13" y="16" width="1" height="1" fill="#1535c2" fill-opacity="0.42"/>
<rect x="14" y="16" width="1" height="1" fill="#1534ba" fill-opacity="0.753"/>
<rect x="15" y="16" width="1" height="1" fill="#1534b4" fill-opacity="0.875"/>
<rect x="16" y="16" width="1" height="1" fill="#1535b9" fill-opacity="0.851"/>
<rect x="17" y="16" width="1" height="1" fill="#1536cb" fill-opacity="0.275"/>
<rect x="2" y="17" width="1" height="1" fill="#1535c6" fill-opacity="0.02"/>
<rect x="3" y="17" width="1" height="1" fill="#1535ba" fill-opacity="0.847"/>
<rect x="4" y="17" width="1" height="1" fill="#1737c4"/>
<rect x="5" y="17" width="1" height="1" fill="#314ccf"/>
<rect x="6" y="17" width="1" height="1" fill="#374fcb"/>
<rect x="7" y="17" width="1" height="1" fill="#3751ce"/>
<rect x="8" y="17" width="1" height="1" fill="#1b3abe"/>
<rect x="9" y="17" width="1" height="1" fill="#1532a8"/>
<rect x="10" y="17" width="1" height="1" fill="#1534b5" fill-opacity="0.318"/>
<rect x="3" y="18" width="1" height="1" fill="#1536c9" fill-opacity="0.369"/>
<rect x="4" y="18" width="1" height="1" fill="#1534b2"/>
<rect x="5" y="18" width="1" height="1" fill="#1736c2"/>
<rect x="6" y="18" width="1" height="1" fill="#2440c1"/>
<rect x="7" y="18" width="1" height="1" fill="#1d3bc0"/>
<rect x="8" y="18" width="1" height="1" fill="#1535bc"/>
<rect x="9" y="18" width="1" height="1" fill="#1532ad" fill-opacity="0.973"/>
<rect x="4" y="19" width="1" height="1" fill="#1536c7" fill-opacity="0.475"/>
<rect x="5" y="19" width="1" height="1" fill="#1534b3" fill-opacity="0.937"/>
<rect x="6" y="19" width="1" height="1" fill="#1532ad" fill-opacity="0.992"/>
<rect x="7" y="19" width="1" height="1" fill="#1532a9"/>
<rect x="8" y="19" width="1" height="1" fill="#1534b5" fill-opacity="0.922"/>
<rect x="9" y="19" width="1" height="1" fill="#1536c9" fill-opacity="0.408"/>
</svg>