<?xml version="1.0" encoding="UTF-8" standalone="no"?>
<svg xmlns="http://www.w3.org/2000/svg" width="26" height="21" shape-rendering="crispEdges">
<rect x="12" y="1" width="1" height="1" fill="#0a119d" fill-opacity="0.016"/>
<rect x="13" y="1" width="1" height="1" fill="#090f93" fill-opacity="0.384"/>
<rect x="14" y="1" width="1" height="1" fill="#0a1099" fill-opacity="0.098"/>
<rect x="12" y="2" width="1" height="1" fill="#0a0e8e" fill-opacity="0.49"/>
<rect x="13" y="2" width="1" height="1" fill="#0e0e76"/>
<rect x="14" y="2" width="1" height="1" fill="#0d0d72" fill-opacity="0.973"/>
<rect x="15" y="2" width="1" height="1" fill="#0c0d7a" fill-opacity="0.914"/>
<rect x="16" y="2" width="1" height="1" fill="#0d0d66"/>
<rect x="17" y="2" width="1" height="1" fill="#0a0d8f" fill-opacity="0.38"/>
<rect x="18" y="2" width="1" height="1" fill="#0a119d" fill-opacity="0.063"/>
<rect x="19" y="2" width="1" height="1" fill="#0a119c" fill-opacity="0.055"/>
<rect x="12" y="3" width="1" height="1" fill="#0b0e87" fill-opacity="0.706"/>
<rect x="13" y="3" width="1" height="1" fill="#0f0e88"/>
<rect x="14" y="3" width="1" height="1" fill="#0c0c97"/>
<rect x="15" y="3" width="1" height="1" fill="#0c0c9a"/>
<rect x="16" y="3" width="1" height="1" fill="#0e0ea0"/>
<rect x="17" y="3" width="1" height="1" fill="#0c0c75" fill-opacity="0.949"/>
<rect x="18" y="3" width="1" height="1" fill="#0c0c72" fill-opacity="0.965"/>
<rect x="19" y="3" width="1" height="1" fill="#0b0c7c" fill-opacity="0.875"/>
<rect x="20" y="3" width="1" height="1" fill="#0a129e" fill-opacity="0.016"/>
<rect x="13" y="4" width="1" height="1" fill="#0c0c6e" fill-opacity="0.984"/>
<rect x="14" y="4" width="1" height="1" fill="#0b0b78" fill-opacity="0.875"/>
<rect x="15" y="4" width="1" height="1" fill="#0a0a7a"/>
<rect x="16" y="4" width="1" height="1" fill="#0a0987"/>
<rect x="17" y="4" width="1" height="1" fill="#06069e" fill-opacity="0.992"/>
<rect x="18" y="4" width="1" height="1" fill="#1b1ba9"/>
<rect x="19" y="4" width="1" height="1" fill="#0d0d71" fill-opacity="0.973"/>
<rect x="20" y="4" width="1" height="1" fill="#0a119d" fill-opacity="0.078"/>
<rect x="10" y="5" width="1" height="1" fill="#0a0f98" fill-opacity="0.086"/>
<rect x="15" y="5" width="1" height="1" fill="#0a0b87" fill-opacity="0.486"/>
<rect x="16" y="5" width="1" height="1" fill="#0b0d84" fill-opacity="0.71"/>
<rect x="17" y="5" width="1" height="1" fill="#0a0a87" fill-opacity="0.996"/>
<rect x="18" y="5" width="1" height="1" fill="#2221b2"/>
<rect x="19" y="5" width="1" height="1" fill="#0d0d70" fill-opacity="0.992"/>
<rect x="20" y="5" width="1" height="1" fill="#0a0e91" fill-opacity="0.263"/>
<rect x="21" y="5" width="1" height="1" fill="#0b0c7f" fill-opacity="0.812"/>
<rect x="7" y="6" width="1" height="1" fill="#0b0f8f" fill-opacity="0.051"/>
<rect x="8" y="6" width="1" height="1" fill="#0a0f8c" fill-opacity="0.482"/>
<rect x="9" y="6" width="1" height="1" fill="#0c0c72" fill-opacity="0.969"/>
<rect x="10" y="6" width="1" height="1" fill="#0c0c6e" fill-opacity="0.984"/>
<rect x="11" y="6" width="1" height="1" fill="#0c0d6f" fill-opacity="0.976"/>
<rect x="12" y="6" width="1" height="1" fill="#0c0d72" fill-opacity="0.945"/>
<rect x="13" y="6" width="1" height="1" fill="#0b0c76" fill-opacity="0.906"/>
<rect x="14" y="6" width="1" height="1" fill="#0b0e87" fill-opacity="0.584"/>
<rect x="15" y="6" width="1" height="1" fill="#0a109b" fill-opacity="0.063"/>
<rect x="17" y="6" width="1" height="1" fill="#0a0a7e" fill-opacity="0.729"/>
<rect x="18" y="6" width="1" height="1" fill="#0c0c6c" fill-opacity="0.988"/>
<rect x="19" y="6" width="1" height="1" fill="#0808a8" fill-opacity="0.992"/>
<rect x="20" y="6" width="1" height="1" fill="#0e0e71"/>
<rect x="21" y="6" width="1" height="1" fill="#0a0a8f"/>
<rect x="22" y="6" width="1" height="1" fill="#0b0c7d" fill-opacity="0.882"/>
<rect x="23" y="6" width="1" height="1" fill="#0a119e" fill-opacity="0.008"/>
<rect x="6" y="7" width="1" height="1" fill="#0a0f92" fill-opacity="0.439"/>
<rect x="7" y="7" width="1" height="1" fill="#0d0d6a" fill-opacity="0.996"/>
<rect x="8" y="7" width="1" height="1" fill="#0c0c74" fill-opacity="0.996"/>
<rect x="9" y="7" width="1" height="1" fill="#0e0e86"/>
<rect x="10" y="7" width="1" height="1" fill="#131386"/>
<rect x="11" y="7" width="1" height="1" fill="#19198d"/>
<rect x="12" y="7" width="1" height="1" fill="#141485"/>
<rect x="13" y="7" width="1" height="1" fill="#11117a"/>
<rect x="14" y="7" width="1" height="1" fill="#0c0c70"/>
<rect x="15" y="7" width="1" height="1" fill="#0c0c71" fill-opacity="0.969"/>
<rect x="16" y="7" width="1" height="1" fill="#0a0f94" fill-opacity="0.216"/>
<rect x="19" y="7" width="1" height="1" fill="#0d0d66"/>
<rect x="20" y="7" width="1" height="1" fill="#2b2bbd"/>
<rect x="21" y="7" width="1" height="1" fill="#0c0c90"/>
<rect x="22" y="7" width="1" height="1" fill="#0b0d81" fill-opacity="0.816"/>
<rect x="23" y="7" width="1" height="1" fill="#0a129e" fill-opacity="0.024"/>
<rect x="5" y="8" width="1" height="1" fill="#0a0e89" fill-opacity="0.655"/>
<rect x="6" y="8" width="1" height="1" fill="#0c0c77" fill-opacity="0.984"/>
<rect x="7" y="8" width="1" height="1" fill="#1515a3"/>
<rect x="8" y="8" width="1" height="1" fill="#2929b0"/>
<rect x="9" y="8" width="1" height="1" fill="#2f2fb5"/>
<rect x="10" y="8" width="1" height="1" fill="#3333bd"/>
<rect x="11" y="8" width="1" height="1" fill="#2f2fb9"/>
<rect x="12" y="8" width="1" height="1" fill="#2e2eb8"/>
<rect x="13" y="8" width="1" height="1" fill="#3232bc"/>
<rect x="14" y="8" width="1" height="1" fill="#2626a4"/>
<rect x="15" y="8" width="1" height="1" fill="#0e0e7d"/>
<rect x="16" y="8" width="1" height="1" fill="#0c0c72" fill-opacity="0.957"/>
<rect x="17" y="8" width="1" height="1" fill="#0b108d" fill-opacity="0.047"/>
<rect x="18" y="8" width="1" height="1" fill="#0a0e94" fill-opacity="0.255"/>
<rect x="19" y="8" width="1" height="1" fill="#0d0d66"/>
<rect x="20" y="8" width="1" height="1" fill="#06068d" fill-opacity="0.984"/>
<rect x="21" y="8" width="1" height="1" fill="#0c0c77" fill-opacity="0.925"/>
<rect x="22" y="8" width="1" height="1" fill="#0a0d90" fill-opacity="0.333"/>
<rect x="23" y="8" width="1" height="1" fill="#0a0b8b" fill-opacity="0.235"/>
<rect x="4" y="9" width="1" height="1" fill="#0a0e8c" fill-opacity="0.612"/>
<rect x="5" y="9" width="1" height="1" fill="#0a0a7f" fill-opacity="0.973"/>
<rect x="6" y="9" width="1" height="1" fill="#1e1da5"/>
<rect x="7" y="9" width="1" height="1" fill="#3434c0"/>
<rect x="8" y="9" width="1" height="1" fill="#3b3bc3"/>
<rect x="9" y="9" width="1" height="1" fill="#3333bd"/>
<rect x="10" y="9" width="1" height="1" fill="#3737c1"/>
<rect x="11" y="9" width="1" height="1" fill="#3c3cc4"/>
<rect x="12" y="9" width="1" height="1" fill="#3f3fc5"/>
<rect x="13" y="9" width="1" height="1" fill="#3e3ec4"/>
<rect x="14" y="9" width="1" height="1" fill="#3333b7"/>
<rect x="15" y="9" width="1" height="1" fill="#2727a1"/>
<rect x="16" y="9" width="1" height="1" fill="#0c0c7d"/>
<rect x="17" y="9" width="1" height="1" fill="#0b0d7d" fill-opacity="0.82"/>
<rect x="20" y="9" width="1" height="1" fill="#0b0c7b" fill-opacity="0.835"/>
<rect x="21" y="9" width="1" height="1" fill="#0c0c6f" fill-opacity="0.984"/>
<rect x="22" y="9" width="1" height="1" fill="#0c0c71"/>
<rect x="23" y="9" width="1" height="1" fill="#0c0c6e" fill-opacity="0.988"/>
<rect x="24" y="9" width="1" height="1" fill="#0a0a84" fill-opacity="0.486"/>
<rect x="3" y="10" width="1" height="1" fill="#0a1098" fill-opacity="0.227"/>
<rect x="4" y="10" width="1" height="1" fill="#0c0c6e" fill-opacity="0.988"/>
<rect x="5" y="10" width="1" height="1" fill="#1b1ba0"/>
<rect x="6" y="10" width="1" height="1" fill="#3535bc"/>
<rect x="7" y="10" width="1" height="1" fill="#4040c6"/>
<rect x="8" y="10" width="1" height="1" fill="#4040c6"/>
<rect x="9" y="10" width="1" height="1" fill="#4141c8"/>
<rect x="10" y="10" width="1" height="1" fill="#4343c8"/>
<rect x="11" y="10" width="1" height="1" fill="#4242c8"/>
<rect x="12" y="10" width="1" height="1" fill="#4444c9"/>
<rect x="13" y="10" width="1" height="1" fill="#4343c8"/>
<rect x="14" y="10" width="1" height="1" fill="#4242c8"/>
<rect x="15" y="10" width="1" height="1" fill="#3030b4"/>
<rect x="16" y="10" width="1" height="1" fill="#1b1b98"/>
<rect x="17" y="10" width="1" height="1" fill="#0d0d6a" fill-opacity="0.996"/>
<rect x="18" y="10" width="1" height="1" fill="#0d0d72" fill-opacity="0.047"/>
<rect x="19" y="10" width="1" height="1" fill="#0a0f94" fill-opacity="0.341"/>
<rect x="20" y="10" width="1" height="1" fill="#0b0c71" fill-opacity="0.988"/>
<rect x="21" y="10" width="1" height="1" fill="#111187"/>
<rect x="22" y="10" width="1" height="1" fill="#2222b8"/>
<rect x="23" y="10" width="1" height="1" fill="#09099f" fill-opacity="0.996"/>
<rect x="24" y="10" width="1" height="1" fill="#0c0c73" fill-opacity="0.957"/>
<rect x="3" y="11" width="1" height="1" fill="#0b0c7c" fill-opacity="0.886"/>
<rect x="4" y="11" width="1" height="1" fill="#100f92"/>
<rect x="5" y="11" width="1" height="1" fill="#2c2cb1"/>
<rect x="6" y="11" width="1" height="1" fill="#3f3fc5"/>
<rect x="7" y="11" width="1" height="1" fill="#4141c7"/>
<rect x="8" y="11" width="1" height="1" fill="#4242c9"/>
<rect x="9" y="11" width="1" height="1" fill="#4444c8"/>
<rect x="10" y="11" width="1" height="1" fill="#4242c8"/>
<rect x="11" y="11" width="1" height="1" fill="#3f3fc7"/>
<rect x="12" y="11" width="1" height="1" fill="#4242c8"/>
<rect x="13" y="11" width="1" height="1" fill="#4242c8"/>
<rect x="14" y="11" width="1" height="1" fill="#4141c8"/>
<rect x="15" y="11" width="1" height="1" fill="#3232bb"/>
<rect x="16" y="11" width="1" height="1" fill="#2424a0"/>
<rect x="17" y="11" width="1" height="1" fill="#0e0e71"/>
<rect x="18" y="11" width="1" height="1" fill="#0b0f8c" fill-opacity="0.408"/>
<rect x="19" y="11" width="1" height="1" fill="#0b0c7a" fill-opacity="0.898"/>
<rect x="20" y="11" width="1" height="1" fill="#0c0c95" fill-opacity="0.996"/>
<rect x="21" y="11" width="1" height="1" fill="#3636c3"/>
<rect x="22" y="11" width="1" height="1" fill="#2d2dbf"/>
<rect x="23" y="11" width="1" height="1" fill="#070798"/>
<rect x="24" y="11" width="1" height="1" fill="#0b0d79" fill-opacity="0.918"/>
<rect x="25" y="11" width="1" height="1" fill="#0a0f97" fill-opacity="0.055"/>
<rect x="3" y="12" width="1" height="1" fill="#0d0d68"/>
<rect x="4" y="12" width="1" height="1" fill="#1a1aa8"/>
<rect x="5" y="12" width="1" height="1" fill="#3a3abf"/>
<rect x="6" y="12" width="1" height="1" fill="#4040c7"/>
<rect x="7" y="12" width="1" height="1" fill="#4343c9"/>
<rect x="8" y="12" width="1" height="1" fill="#4343c9"/>
<rect x="9" y="12" width="1" height="1" fill="#3c3cc6"/>
<rect x="10" y="12" width="1" height="1" fill="#3232bf"/>
<rect x="11" y="12" width="1" height="1" fill="#3434bf"/>
<rect x="12" y="12" width="1" height="1" fill="#3939c2"/>
<rect x="13" y="12" width="1" height="1" fill="#3939c1"/>
<rect x="14" y="12" width="1" height="1" fill="#3636be"/>
<rect x="15" y="12" width="1" height="1" fill="#3030b8"/>
<rect x="16" y="12" width="1" height="1" fill="#2c2ca8"/>
<rect x="17" y="12" width="1" height="1" fill="#0f0f76"/>
<rect x="18" y="12" width="1" height="1" fill="#0a0d8c" fill-opacity="0.525"/>
<rect x="19" y="12" width="1" height="1" fill="#0b0d78" fill-opacity="0.918"/>
<rect x="20" y="12" width="1" height="1" fill="#090986" fill-opacity="0.996"/>
<rect x="21" y="12" width="1" height="1" fill="#0808a8"/>
<rect x="22" y="12" width="1" height="1" fill="#040499"/>
<rect x="23" y="12" width="1" height="1" fill="#0b0b78" fill-opacity="0.996"/>
<rect x="24" y="12" width="1" height="1" fill="#0b0f8f" fill-opacity="0.498"/>
<rect x="2" y="13" width="1" height="1" fill="#0a109a" fill-opacity="0.106"/>
<rect x="3" y="13" width="1" height="1" fill="#0d0d6a"/>
<rect x="4" y="13" width="1" height="1" fill="#2424ae"/>
<rect x="5" y="13" width="1" height="1" fill="#3f3fc5"/>
<rect x="6" y="13" width="1" height="1" fill="#4343c8"/>
<rect x="7" y="13" width="1" height="1" fill="#4444c8"/>
<rect x="8" y="13" width="1" height="1" fill="#3f3fc6"/>
<rect x="9" y="13" width="1" height="1" fill="#2d2dbc"/>
<rect x="10" y="13" width="1" height="1" fill="#2828b9"/>
<rect x="11" y="13" width="1" height="1" fill="#1212b1"/>
<rect x="12" y="13" width="1" height="1" fill="#1313ad"/>
<rect x="13" y="13" width="1" height="1" fill="#2828b3"/>
<rect x="14" y="13" width="1" height="1" fill="#2e2eaf"/>
<rect x="15" y="13" width="1" height="1" fill="#2f2fab"/>
<rect x="16" y="13" width="1" height="1" fill="#2d2da5"/>
<rect x="17" y="13" width="1" height="1" fill="#111189"/>
<rect x="18" y="13" width="1" height="1" fill="#0b0d7e" fill-opacity="0.843"/>
<rect x="19" y="13" width="1" height="1" fill="#0a0f94" fill-opacity="0.129"/>
<rect x="20" y="13" width="1" height="1" fill="#0c0c76" fill-opacity="0.875"/>
<rect x="21" y="13" width="1" height="1" fill="#0c0c6b" fill-opacity="0.996"/>
<rect x="22" y="13" width="1" height="1" fill="#0c0c71" fill-opacity="0.969"/>
<rect x="23" y="13" width="1" height="1" fill="#0b0e85" fill-opacity="0.675"/>
<rect x="2" y="14" width="1" height="1" fill="#0a0f92" fill-opacity="0.427"/>
<rect x="3" y="14" width="1" height="1" fill="#0d0d78"/>
<rect x="4" y="14" width="1" height="1" fill="#2727ab"/>
<rect x="5" y="14" width="1" height="1" fill="#3f3fc6"/>
<rect x="6" y="14" width="1" height="1" fill="#4343c9"/>
<rect x="7" y="14" width="1" height="1" fill="#4040c8"/>
<rect x="8" y="14" width="1" height="1" fill="#3838c3"/>
<rect x="9" y="14" width="1" height="1" fill="#2424b8"/>
<rect x="10" y="14" width="1" height="1" fill="#0a0aae"/>
<rect x="11" y="14" width="1" height="1" fill="#0606a8"/>
<rect x="12" y="14" width="1" height="1" fill="#06069d"/>
<rect x="13" y="14" width="1" height="1" fill="#060695"/>
<rect x="14" y="14" width="1" height="1" fill="#161697"/>
<rect x="15" y="14" width="1" height="1" fill="#1a1a9d"/>
<rect x="16" y="14" width="1" height="1" fill="#1a1aa0"/>
<rect x="17" y="14" width="1" height="1" fill="#0b0b8e"/>
<rect x="18" y="14" width="1" height="1" fill="#0b0c79" fill-opacity="0.91"/>
<rect x="20" y="14" width="1" height="1" fill="#0d0d6a" fill-opacity="0.008"/>
<rect x="21" y="14" width="1" height="1" fill="#0d0d6a" fill-opacity="0.012"/>
<rect x="23" y="14" width="1" height="1" fill="#0a119c" fill-opacity="0.008"/>
<rect x="2" y="15" width="1" height="1" fill="#0a0f90" fill-opacity="0.49"/>
<rect x="3" y="15" width="1" height="1" fill="#0c0c79" fill-opacity="0.996"/>
<rect x="4" y="15" width="1" height="1" fill="#2626a8"/>
<rect x="5" y="15" width="1" height="1" fill="#3c3cc2"/>
<rect x="6" y="15" width="1" height="1" fill="#4343c8"/>
<rect x="7" y="15" width="1" height="1" fill="#4343c9"/>
<rect x="8" y="15" width="1" height="1" fill="#3434c0"/>
<rect x="9" y="15" width="1" height="1" fill="#0f0fb1"/>
<rect x="10" y="15" width="1" height="1" fill="#07089f"/>
<rect x="11" y="15" width="1" height="1" fill="#0b0b76" fill-opacity="0.996"/>
<rect x="12" y="15" width="1" height="1" fill="#0b0b79"/>
<rect x="13" y="15" width="1" height="1" fill="#0b0b7b"/>
<rect x="14" y="15" width="1" height="1" fill="#0a0a81"/>
<rect x="15" y="15" width="1" height="1" fill="#0a0a85"/>
<rect x="16" y="15" width="1" height="1" fill="#090983"/>
<rect x="17" y="15" width="1" height="1" fill="#0c0c73" fill-opacity="0.988"/>
<rect x="18" y="15" width="1" height="1" fill="#0a1092" fill-opacity="0.463"/>
<rect x="2" y="16" width="1" height="1" fill="#0a1098" fill-opacity="0.208"/>
<rect x="3" y="16" width="1" height="1" fill="#0c0c6d" fill-opacity="0.996"/>
<rect x="4" y="16" width="1" height="1" fill="#15158b"/>
<rect x="5" y="16" width="1" height="1" fill="#3838b9"/>
<rect x="6" y="16" width="1" height="1" fill="#3e3ec5"/>
<rect x="7" y="16" width="1" height="1" fill="#3f3fc6"/>
<rect x="8" y="16" width="1" height="1" fill="#3737c2"/>
<rect x="9" y="16" width="1" height="1" fill="#0a0aa0"/>
<rect x="10" y="16" width="1" height="1" fill="#0c0c72" fill-opacity="0.98"/>
<rect x="11" y="16" width="1" height="1" fill="#0a0b86" fill-opacity="0.463"/>
<rect x="12" y="16" width="1" height="1" fill="#0a0a82" fill-opacity="0.529"/>
<rect x="13" y="16" width="1" height="1" fill="#0b0c78" fill-opacity="0.902"/>
<rect x="14" y="16" width="1" height="1" fill="#0c0c73" fill-opacity="0.973"/>
<rect x="15" y="16" width="1" height="1" fill="#0c0c74" fill-opacity="0.98"/>
<rect x="16" y="16" width="1" height="1" fill="#0c0c71" fill-opacity="0.98"/>
<rect x="17" y="16" width="1" height="1" fill="#0b0f8e" fill-opacity="0.396"/>
<rect x="2" y="17" width="1" height="1" fill="#0a119d" fill-opacity="0.039"/>
<rect x="3" y="17" width="1" height="1" fill="#0b0c77" fill-opacity="0.937"/>
<rect x="4" y="17" width="1" height="1" fill="#0d0d74"/>
<rect x="5" y="17" width="1" height="1" fill="#1a1a86"/>
<rect x="6" y="17" width="1" height="1" fill="#3232ae"/>
<rect x="7" y="17" width="1" height="1" fill="#3434b8"/>
<rect x="8" y="17" width="1" height="1" fill="#2222aa"/>
<rect x="9" y="17" width="1" height="1" fill="#0c0c72"/>
<rect x="10" y="17" width="1" height="1" fill="#0b0e84" fill-opacity="0.463"/>
<rect x="15" y="17" width="1" height="1" fill="#0a0f9a" fill-opacity="0.008"/>
<rect x="3" y="18" width="1" height="1" fill="#0a1091" fill-opacity="0.439"/>
<rect x="4" y="18" width="1" height="1" fill="#0b0b76"/>
<rect x="5" y="18" width="1" height="1" fill="#0e0e82"/>
<rect x="6" y="18" width="1" height="1" fill="#141480"/>
<rect x="7" y="18" width="1" height="1" fill="#19198d"/>
<rect x="8" y="18" width="1" height="1" fill="#0d0d93"/>
<rect x="9" y="18" width="1" height="1" fill="#0c0c72" fill-opacity="0.984"/>
<rect x="10" y="18" width="1" height="1" fill="#0c0e79" fill-opacity="0.047"/>
<rect x="3" y="19" width="1" height="1" fill="#0a119d" fill-opacity="0.039"/>
<rect x="4" y="19" width="1" height="1" fill="#0b0d83" fill-opacity="0.78"/>
<rect x="5" y="19" width="1" height="1" fill="#0d0d69"/>
<rect x="6" y="19" width="1" height="1" fill="#0c0c6f"/>
<rect x="7" y="19" width="1" height="1" fill="#0a0a77" fill-opacity="0.996"/>
<rect x="8" y="19" width="1" height="1" fill="#0c0c72" fill-opacity="0.976"/>
<rect x="9" y="19" width="1" height="1" fill="#0a0f91" fill-opacity="0.412"/>
</svg>