<?xml version="1.0" encoding="UTF-8" standalone="no"?>
<svg xmlns="http://www.w3.org/2000/svg" width="26" height="21" shape-rendering="crispEdges">
<rect x="14" y="0" width="1" height="1" fill="#bb8bbb" fill-opacity="0.039"/>
<rect x="12" y="1" width="1" height="1" fill="#bb17bb" fill-opacity="0.031"/>
<rect x="13" y="1" width="1" height="1" fill="#861986" fill-opacity="0.027"/>
<rect x="14" y="1" width="1" height="1" fill="#923392" fill-opacity="0.835"/>
<rect x="15" y="1" width="1" height="1" fill="#8e2e8e" fill-opacity="0.941"/>
<rect x="16" y="1" width="1" height="1" fill="#992f99" fill-opacity="0.4"/>
<rect x="17" y="1" width="1" height="1" fill="#861986" fill-opacity="0.008"/>
<rect x="12" y="2" width="1" height="1" fill="#b018b0" fill-opacity="0.502"/>
<rect x="13" y="2" width="1" height="1" fill="#7d197d"/>
<rect x="14" y="2" width="1" height="1" fill="#8d1d8d" fill-opacity="0.996"/>
<rect x="15" y="2" width="1" height="1" fill="#a833a8"/>
<rect x="16" y="2" width="1" height="1" fill="#841984" fill-opacity="0.996"/>
<rect x="17" y="2" width="1" height="1" fill="#a618a6" fill-opacity="0.149"/>
<rect x="11" y="3" width="1" height="1" fill="#bb17bb" fill-opacity="0.008"/>
<rect x="12" y="3" width="1" height="1" fill="#9e189e" fill-opacity="0.831"/>
<rect x="13" y="3" width="1" height="1" fill="#b526b5"/>
<rect x="14" y="3" width="1" height="1" fill="#cd16cd"/>
<rect x="15" y="3" width="1" height="1" fill="#f829f8"/>
<rect x="16" y="3" width="1" height="1" fill="#d838d8"/>
<rect x="17" y="3" width="1" height="1" fill="#941894" fill-opacity="0.922"/>
<rect x="18" y="3" width="1" height="1" fill="#8d1a8d" fill-opacity="0.965"/>
<rect x="19" y="3" width="1" height="1" fill="#961c96" fill-opacity="0.91"/>
<rect x="20" y="3" width="1" height="1" fill="#b518b5" fill-opacity="0.016"/>
<rect x="12" y="4" width="1" height="1" fill="#b117b1" fill-opacity="0.373"/>
<rect x="13" y="4" width="1" height="1" fill="#8a188a" fill-opacity="0.992"/>
<rect x="14" y="4" width="1" height="1" fill="#8b188b" fill-opacity="0.961"/>
<rect x="15" y="4" width="1" height="1" fill="#841984"/>
<rect x="16" y="4" width="1" height="1" fill="#921892" fill-opacity="0.988"/>
<rect x="17" y="4" width="1" height="1" fill="#cf15cf" fill-opacity="0.98"/>
<rect x="18" y="4" width="1" height="1" fill="#cc31cc"/>
<rect x="19" y="4" width="1" height="1" fill="#8c208c"/>
<rect x="20" y="4" width="1" height="1" fill="#ae17ae" fill-opacity="0.294"/>
<rect x="11" y="5" width="1" height="1" fill="#b317b3" fill-opacity="0.243"/>
<rect x="12" y="5" width="1" height="1" fill="#b917b9" fill-opacity="0.016"/>
<rect x="13" y="5" width="1" height="1" fill="#b117b1" fill-opacity="0.31"/>
<rect x="14" y="5" width="1" height="1" fill="#861986" fill-opacity="0.004"/>
<rect x="15" y="5" width="1" height="1" fill="#b418b4" fill-opacity="0.208"/>
<rect x="16" y="5" width="1" height="1" fill="#ad17ad" fill-opacity="0.38"/>
<rect x="17" y="5" width="1" height="1" fill="#8e188e"/>
<rect x="18" y="5" width="1" height="1" fill="#e016e0"/>
<rect x="19" y="5" width="1" height="1" fill="#f717f7" fill-opacity="0.996"/>
<rect x="20" y="5" width="1" height="1" fill="#8a1a8a"/>
<rect x="21" y="5" width="1" height="1" fill="#811981" fill-opacity="0.992"/>
<rect x="22" y="5" width="1" height="1" fill="#a417a4" fill-opacity="0.529"/>
<rect x="6" y="6" width="1" height="1" fill="#bb17bb" fill-opacity="0.008"/>
<rect x="7" y="6" width="1" height="1" fill="#af18af" fill-opacity="0.271"/>
<rect x="8" y="6" width="1" height="1" fill="#9e189e" fill-opacity="0.737"/>
<rect x="9" y="6" width="1" height="1" fill="#8b188b" fill-opacity="0.961"/>
<rect x="10" y="6" width="1" height="1" fill="#851985" fill-opacity="0.988"/>
<rect x="11" y="6" width="1" height="1" fill="#861886" fill-opacity="0.992"/>
<rect x="12" y="6" width="1" height="1" fill="#7b197b"/>
<rect x="13" y="6" width="1" height="1" fill="#891989" fill-opacity="0.973"/>
<rect x="14" y="6" width="1" height="1" fill="#a618a6" fill-opacity="0.627"/>
<rect x="17" y="6" width="1" height="1" fill="#971897" fill-opacity="0.859"/>
<rect x="18" y="6" width="1" height="1" fill="#8d188d" fill-opacity="0.98"/>
<rect x="19" y="6" width="1" height="1" fill="#ea18ea"/>
<rect x="20" y="6" width="1" height="1" fill="#ff50ff"/>
<rect x="21" y="6" width="1" height="1" fill="#ef36ef"/>
<rect x="22" y="6" width="1" height="1" fill="#841884" fill-opacity="0.992"/>
<rect x="23" y="6" width="1" height="1" fill="#af17af" fill-opacity="0.078"/>
<rect x="6" y="7" width="1" height="1" fill="#a518a5" fill-opacity="0.639"/>
<rect x="7" y="7" width="1" height="1" fill="#891889"/>
<rect x="8" y="7" width="1" height="1" fill="#a419a4"/>
<rect x="9" y="7" width="1" height="1" fill="#bd1dbd"/>
<rect x="10" y="7" width="1" height="1" fill="#cb22cb"/>
<rect x="11" y="7" width="1" height="1" fill="#d126d1"/>
<rect x="12" y="7" width="1" height="1" fill="#cb1fcb"/>
<rect x="13" y="7" width="1" height="1" fill="#bc18bc"/>
<rect x="14" y="7" width="1" height="1" fill="#a117a1"/>
<rect x="15" y="7" width="1" height="1" fill="#8c188c" fill-opacity="0.949"/>
<rect x="16" y="7" width="1" height="1" fill="#ac18ac" fill-opacity="0.255"/>
<rect x="18" y="7" width="1" height="1" fill="#ac17ac" fill-opacity="0.42"/>
<rect x="19" y="7" width="1" height="1" fill="#961896"/>
<rect x="20" y="7" width="1" height="1" fill="#fd1afd"/>
<rect x="21" y="7" width="1" height="1" fill="#e917e9"/>
<rect x="22" y="7" width="1" height="1" fill="#881888" fill-opacity="0.98"/>
<rect x="23" y="7" width="1" height="1" fill="#a817a8" fill-opacity="0.157"/>
<rect x="5" y="8" width="1" height="1" fill="#ac17ac" fill-opacity="0.525"/>
<rect x="6" y="8" width="1" height="1" fill="#9b189b" fill-opacity="0.988"/>
<rect x="7" y="8" width="1" height="1" fill="#cd1bcd"/>
<rect x="8" y="8" width="1" height="1" fill="#d429d4"/>
<rect x="9" y="8" width="1" height="1" fill="#f238f2"/>
<rect x="10" y="8" width="1" height="1" fill="#f941f9"/>
<rect x="11" y="8" width="1" height="1" fill="#f941f9"/>
<rect x="12" y="8" width="1" height="1" fill="#f53bf5"/>
<rect x="13" y="8" width="1" height="1" fill="#e12fe1"/>
<rect x="14" y="8" width="1" height="1" fill="#d720d7"/>
<rect x="15" y="8" width="1" height="1" fill="#c417c4"/>
<rect x="16" y="8" width="1" height="1" fill="#861986" fill-opacity="0.988"/>
<rect x="17" y="8" width="1" height="1" fill="#ac18ac" fill-opacity="0.31"/>
<rect x="18" y="8" width="1" height="1" fill="#ad18ad" fill-opacity="0.31"/>
<rect x="19" y="8" width="1" height="1" fill="#771977"/>
<rect x="20" y="8" width="1" height="1" fill="#c017c0" fill-opacity="0.992"/>
<rect x="21" y="8" width="1" height="1" fill="#9b189b"/>
<rect x="22" y="8" width="1" height="1" fill="#911891" fill-opacity="0.875"/>
<rect x="23" y="8" width="1" height="1" fill="#b018b0" fill-opacity="0.008"/>
<rect x="4" y="9" width="1" height="1" fill="#a318a3" fill-opacity="0.71"/>
<rect x="5" y="9" width="1" height="1" fill="#991899" fill-opacity="0.976"/>
<rect x="6" y="9" width="1" height="1" fill="#ce20ce"/>
<rect x="7" y="9" width="1" height="1" fill="#eb3aeb"/>
<rect x="8" y="9" width="1" height="1" fill="#fd4afd"/>
<rect x="9" y="9" width="1" height="1" fill="#ff4dff"/>
<rect x="10" y="9" width="1" height="1" fill="#ff46ff"/>
<rect x="11" y="9" width="1" height="1" fill="#ff44ff"/>
<rect x="12" y="9" width="1" height="1" fill="#ff4eff"/>
<rect x="13" y="9" width="1" height="1" fill="#ff4eff"/>
<rect x="14" y="9" width="1" height="1" fill="#f54af5"/>
<rect x="15" y="9" width="1" height="1" fill="#f130f1"/>
<rect x="16" y="9" width="1" height="1" fill="#d417d4"/>
<rect x="17" y="9" width="1" height="1" fill="#8b188b" fill-opacity="0.953"/>
<rect x="18" y="9" width="1" height="1" fill="#b217b2" fill-opacity="0.039"/>
<rect x="20" y="9" width="1" height="1" fill="#901890" fill-opacity="0.918"/>
<rect x="21" y="9" width="1" height="1" fill="#a318a3" fill-opacity="0.996"/>
<rect x="22" y="9" width="1" height="1" fill="#bb1abb"/>
<rect x="23" y="9" width="1" height="1" fill="#7d197d" fill-opacity="0.996"/>
<rect x="24" y="9" width="1" height="1" fill="#ac18ac" fill-opacity="0.286"/>
<rect x="3" y="10" width="1" height="1" fill="#aa18aa" fill-opacity="0.38"/>
<rect x="4" y="10" width="1" height="1" fill="#8f188f" fill-opacity="0.988"/>
<rect x="5" y="10" width="1" height="1" fill="#c51dc5"/>
<rect x="6" y="10" width="1" height="1" fill="#e640e6"/>
<rect x="7" y="10" width="1" height="1" fill="#ff51ff"/>
<rect x="8" y="10" width="1" height="1" fill="#ff45ff"/>
<rect x="9" y="10" width="1" height="1" fill="#ff2dff"/>
<rect x="10" y="10" width="1" height="1" fill="#ff19ff"/>
<rect x="11" y="10" width="1" height="1" fill="#ff18ff"/>
<rect x="12" y="10" width="1" height="1" fill="#ff46ff"/>
<rect x="13" y="10" width="1" height="1" fill="#ff4fff"/>
<rect x="14" y="10" width="1" height="1" fill="#ff55ff"/>
<rect x="15" y="10" width="1" height="1" fill="#f854f8"/>
<rect x="16" y="10" width="1" height="1" fill="#c327c3"/>
<rect x="17" y="10" width="1" height="1" fill="#841984"/>
<rect x="18" y="10" width="1" height="1" fill="#a016a0" fill-opacity="0.255"/>
<rect x="19" y="10" width="1" height="1" fill="#a718a7" fill-opacity="0.518"/>
<rect x="20" y="10" width="1" height="1" fill="#9b189b"/>
<rect x="21" y="10" width="1" height="1" fill="#e918e9"/>
<rect x="22" y="10" width="1" height="1" fill="#ff58ff"/>
<rect x="23" y="10" width="1" height="1" fill="#e02ae0"/>
<rect x="24" y="10" width="1" height="1" fill="#8d188d" fill-opacity="0.957"/>
<rect x="3" y="11" width="1" height="1" fill="#921892" fill-opacity="0.91"/>
<rect x="4" y="11" width="1" height="1" fill="#b918b9"/>
<rect x="5" y="11" width="1" height="1" fill="#cd2fcd"/>
<rect x="6" y="11" width="1" height="1" fill="#fd51fd"/>
<rect x="7" y="11" width="1" height="1" fill="#ff4dff"/>
<rect x="8" y="11" width="1" height="1" fill="#ff35ff"/>
<rect x="9" y="11" width="1" height="1" fill="#ff18ff"/>
<rect x="10" y="11" width="1" height="1" fill="#ff15ff"/>
<rect x="11" y="11" width="1" height="1" fill="#ff14ff"/>
<rect x="12" y="11" width="1" height="1" fill="#ff2cff"/>
<rect x="13" y="11" width="1" height="1" fill="#ff49ff"/>
<rect x="14" y="11" width="1" height="1" fill="#ff53ff"/>
<rect x="15" y="11" width="1" height="1" fill="#fe56fe"/>
<rect x="16" y="11" width="1" height="1" fill="#bc35bc"/>
<rect x="17" y="11" width="1" height="1" fill="#891889"/>
<rect x="18" y="11" width="1" height="1" fill="#961796" fill-opacity="0.675"/>
<rect x="19" y="11" width="1" height="1" fill="#971897" fill-opacity="0.867"/>
<rect x="20" y="11" width="1" height="1" fill="#b917b9"/>
<rect x="21" y="11" width="1" height="1" fill="#fd18fd"/>
<rect x="22" y="11" width="1" height="1" fill="#ff29ff"/>
<rect x="23" y="11" width="1" height="1" fill="#d71ad7"/>
<rect x="24" y="11" width="1" height="1" fill="#911891" fill-opacity="0.933"/>
<rect x="25" y="11" width="1" height="1" fill="#ad18ad" fill-opacity="0.071"/>
<rect x="2" y="12" width="1" height="1" fill="#ad17ad" fill-opacity="0.2"/>
<rect x="3" y="12" width="1" height="1" fill="#841884" fill-opacity="0.996"/>
<rect x="4" y="12" width="1" height="1" fill="#bd1fbd"/>
<rect x="5" y="12" width="1" height="1" fill="#e440e4"/>
<rect x="6" y="12" width="1" height="1" fill="#fe53fe"/>
<rect x="7" y="12" width="1" height="1" fill="#ff49ff"/>
<rect x="8" y="12" width="1" height="1" fill="#ff33ff"/>
<rect x="9" y="12" width="1" height="1" fill="#ff1bff"/>
<rect x="10" y="12" width="1" height="1" fill="#fd17fd"/>
<rect x="11" y="12" width="1" height="1" fill="#f91af9"/>
<rect x="12" y="12" width="1" height="1" fill="#fe21fe"/>
<rect x="13" y="12" width="1" height="1" fill="#ff45ff"/>
<rect x="14" y="12" width="1" height="1" fill="#ff5cff"/>
<rect x="15" y="12" width="1" height="1" fill="#ff54ff"/>
<rect x="16" y="12" width="1" height="1" fill="#de4cde"/>
<rect x="17" y="12" width="1" height="1" fill="#891989"/>
<rect x="18" y="12" width="1" height="1" fill="#8b188b" fill-opacity="0.922"/>
<rect x="19" y="12" width="1" height="1" fill="#981898" fill-opacity="0.851"/>
<rect x="20" y="12" width="1" height="1" fill="#ab18ab"/>
<rect x="21" y="12" width="1" height="1" fill="#d516d5"/>
<rect x="22" y="12" width="1" height="1" fill="#d415d4"/>
<rect x="23" y="12" width="1" height="1" fill="#9f189f"/>
<rect x="24" y="12" width="1" height="1" fill="#a517a5" fill-opacity="0.616"/>
<rect x="2" y="13" width="1" height="1" fill="#a517a5" fill-opacity="0.584"/>
<rect x="3" y="13" width="1" height="1" fill="#951795"/>
<rect x="4" y="13" width="1" height="1" fill="#c528c5"/>
<rect x="5" y="13" width="1" height="1" fill="#ed4ded"/>
<rect x="6" y="13" width="1" height="1" fill="#ff54ff"/>
<rect x="7" y="13" width="1" height="1" fill="#ff4aff"/>
<rect x="8" y="13" width="1" height="1" fill="#ff2fff"/>
<rect x="9" y="13" width="1" height="1" fill="#f71cf7"/>
<rect x="10" y="13" width="1" height="1" fill="#cd19cd"/>
<rect x="11" y="13" width="1" height="1" fill="#d71ad7"/>
<rect x="12" y="13" width="1" height="1" fill="#e916e9"/>
<rect x="13" y="13" width="1" height="1" fill="#fd43fd"/>
<rect x="14" y="13" width="1" height="1" fill="#ff5aff"/>
<rect x="15" y="13" width="1" height="1" fill="#ff5eff"/>
<rect x="16" y="13" width="1" height="1" fill="#ec54ec"/>
<rect x="17" y="13" width="1" height="1" fill="#971e97"/>
<rect x="18" y="13" width="1" height="1" fill="#831983"/>
<rect x="19" y="13" width="1" height="1" fill="#af18af" fill-opacity="0.063"/>
<rect x="20" y="13" width="1" height="1" fill="#a118a1" fill-opacity="0.733"/>
<rect x="21" y="13" width="1" height="1" fill="#8a198a" fill-opacity="0.969"/>
<rect x="22" y="13" width="1" height="1" fill="#8e188e" fill-opacity="0.949"/>
<rect x="23" y="13" width="1" height="1" fill="#9c189c" fill-opacity="0.776"/>
<rect x="2" y="14" width="1" height="1" fill="#a916a9" fill-opacity="0.506"/>
<rect x="3" y="14" width="1" height="1" fill="#8a178a"/>
<rect x="4" y="14" width="1" height="1" fill="#c630c6"/>
<rect x="5" y="14" width="1" height="1" fill="#f351f3"/>
<rect x="6" y="14" width="1" height="1" fill="#ff54ff"/>
<rect x="7" y="14" width="1" height="1" fill="#ff4aff"/>
<rect x="8" y="14" width="1" height="1" fill="#ff32ff"/>
<rect x="9" y="14" width="1" height="1" fill="#e51de5"/>
<rect x="10" y="14" width="1" height="1" fill="#a219a2"/>
<rect x="11" y="14" width="1" height="1" fill="#9e199e"/>
<rect x="12" y="14" width="1" height="1" fill="#a819a8"/>
<rect x="13" y="14" width="1" height="1" fill="#b51fb5"/>
<rect x="14" y="14" width="1" height="1" fill="#d63dd6"/>
<rect x="15" y="14" width="1" height="1" fill="#d946d9"/>
<rect x="16" y="14" width="1" height="1" fill="#ad2dad"/>
<rect x="17" y="14" width="1" height="1" fill="#9d1f9d"/>
<rect x="18" y="14" width="1" height="1" fill="#851885" fill-opacity="0.988"/>
<rect x="19" y="14" width="1" height="1" fill="#a918a9" fill-opacity="0.055"/>
<rect x="23" y="14" width="1" height="1" fill="#b018b0" fill-opacity="0.008"/>
<rect x="2" y="15" width="1" height="1" fill="#ab16ab" fill-opacity="0.51"/>
<rect x="3" y="15" width="1" height="1" fill="#8d188d"/>
<rect x="4" y="15" width="1" height="1" fill="#bf2fbf"/>
<rect x="5" y="15" width="1" height="1" fill="#ec48ec"/>
<rect x="6" y="15" width="1" height="1" fill="#ff4fff"/>
<rect x="7" y="15" width="1" height="1" fill="#ff4eff"/>
<rect x="8" y="15" width="1" height="1" fill="#fd33fd"/>
<rect x="9" y="15" width="1" height="1" fill="#d01cd0"/>
<rect x="10" y="15" width="1" height="1" fill="#9e199e"/>
<rect x="11" y="15" width="1" height="1" fill="#961996" fill-opacity="0.996"/>
<rect x="12" y="15" width="1" height="1" fill="#991999"/>
<rect x="13" y="15" width="1" height="1" fill="#9d199d"/>
<rect x="14" y="15" width="1" height="1" fill="#9d1a9d"/>
<rect x="15" y="15" width="1" height="1" fill="#9c1f9c"/>
<rect x="16" y="15" width="1" height="1" fill="#a123a1"/>
<rect x="17" y="15" width="1" height="1" fill="#981a98" fill-opacity="0.996"/>
<rect x="18" y="15" width="1" height="1" fill="#991799" fill-opacity="0.808"/>
<rect x="19" y="15" width="1" height="1" fill="#aa18aa" fill-opacity="0.035"/>
<rect x="2" y="16" width="1" height="1" fill="#b717b7" fill-opacity="0.208"/>
<rect x="3" y="16" width="1" height="1" fill="#821982"/>
<rect x="4" y="16" width="1" height="1" fill="#a522a5"/>
<rect x="5" y="16" width="1" height="1" fill="#de41de"/>
<rect x="6" y="16" width="1" height="1" fill="#fd53fd"/>
<rect x="7" y="16" width="1" height="1" fill="#ff52ff"/>
<rect x="8" y="16" width="1" height="1" fill="#ea29ea"/>
<rect x="9" y="16" width="1" height="1" fill="#b31ab3"/>
<rect x="10" y="16" width="1" height="1" fill="#941994"/>
<rect x="11" y="16" width="1" height="1" fill="#a517a5" fill-opacity="0.478"/>
<rect x="12" y="16" width="1" height="1" fill="#a317a3" fill-opacity="0.463"/>
<rect x="13" y="16" width="1" height="1" fill="#9e189e" fill-opacity="0.729"/>
<rect x="14" y="16" width="1" height="1" fill="#961896" fill-opacity="0.937"/>
<rect x="15" y="16" width="1" height="1" fill="#8f188f" fill-opacity="0.965"/>
<rect x="16" y="16" width="1" height="1" fill="#821982" fill-opacity="0.992"/>
<rect x="17" y="16" width="1" height="1" fill="#a618a6" fill-opacity="0.561"/>
<rect x="18" y="16" width="1" height="1" fill="#ae17ae" fill-opacity="0.047"/>
<rect x="2" y="17" width="1" height="1" fill="#ba17ba" fill-opacity="0.047"/>
<rect x="3" y="17" width="1" height="1" fill="#861886" fill-opacity="0.976"/>
<rect x="4" y="17" width="1" height="1" fill="#a41ea4"/>
<rect x="5" y="17" width="1" height="1" fill="#b22bb2"/>
<rect x="6" y="17" width="1" height="1" fill="#d643d6"/>
<rect x="7" y="17" width="1" height="1" fill="#d533d5"/>
<rect x="8" y="17" width="1" height="1" fill="#ba1bba"/>
<rect x="9" y="17" width="1" height="1" fill="#9a1a9a"/>
<rect x="10" y="17" width="1" height="1" fill="#9d189d" fill-opacity="0.769"/>
<rect x="15" y="17" width="1" height="1" fill="#b017b0" fill-opacity="0.086"/>
<rect x="16" y="17" width="1" height="1" fill="#af18af" fill-opacity="0.031"/>
<rect x="3" y="18" width="1" height="1" fill="#aa17aa" fill-opacity="0.518"/>
<rect x="4" y="18" width="1" height="1" fill="#9a189a"/>
<rect x="5" y="18" width="1" height="1" fill="#ad1cad"/>
<rect x="6" y="18" width="1" height="1" fill="#ad1dad"/>
<rect x="7" y="18" width="1" height="1" fill="#b91bb9"/>
<rect x="8" y="18" width="1" height="1" fill="#b81ab8"/>
<rect x="9" y="18" width="1" height="1" fill="#8b198b" fill-opacity="0.984"/>
<rect x="10" y="18" width="1" height="1" fill="#aa17aa" fill-opacity="0.188"/>
<rect x="4" y="19" width="1" height="1" fill="#981898" fill-opacity="0.855"/>
<rect x="5" y="19" width="1" height="1" fill="#8a188a"/>
<rect x="6" y="19" width="1" height="1" fill="#981898"/>
<rect x="7" y="19" width="1" height="1" fill="#9d179d"/>
<rect x="8" y="19" width="1" height="1" fill="#881888" fill-opacity="0.973"/>
<rect x="9" y="19" width="1" height="1" fill="#aa17aa" fill-opacity="0.384"/>
<rect x="10" y="19" width="1" height="1" fill="#ad17ad" fill-opacity="0.016"/>
<rect x="11" y="20" width="1" height="1" fill="#0b20be" fill-opacity="0.004"/>
</svg>