<?xml version="1.0" encoding="UTF-8" standalone="no"?>
<svg xmlns="http://www.w3.org/2000/svg" width="26" height="21" shape-rendering="crispEdges">
<rect x="15" y="1" width="1" height="1" fill="#b3210e" fill-opacity="0.475"/>
<rect x="16" y="1" width="1" height="1" fill="#a41a08"/>
<rect x="17" y="1" width="1" height="1" fill="#a41a08"/>
<rect x="18" y="1" width="1" height="1" fill="#a41a08"/>
<rect x="19" y="1" width="1" height="1" fill="#a41a08"/>
<rect x="20" y="1" width="1" height="1" fill="#a41a08"/>
<rect x="21" y="1" width="1" height="1" fill="#a41a08"/>
<rect x="22" y="1" width="1" height="1" fill="#a41b09"/>
<rect x="23" y="1" width="1" height="1" fill="#a41a08"/>
<rect x="24" y="1" width="1" height="1" fill="#a61a08" fill-opacity="0.988"/>
<rect x="15" y="2" width="1" height="1" fill="#b21e0b" fill-opacity="0.467"/>
<rect x="16" y="2" width="1" height="1" fill="#a71b08"/>
<rect x="17" y="2" width="1" height="1" fill="#ee4b35"/>
<rect x="18" y="2" width="1" height="1" fill="#f2705f"/>
<rect x="19" y="2" width="1" height="1" fill="#ed4730"/>
<rect x="20" y="2" width="1" height="1" fill="#ea280e"/>
<rect x="21" y="2" width="1" height="1" fill="#d2250f"/>
<rect x="22" y="2" width="1" height="1" fill="#b5230f"/>
<rect x="23" y="2" width="1" height="1" fill="#b2210e"/>
<rect x="24" y="2" width="1" height="1" fill="#a71c09" fill-opacity="0.969"/>
<rect x="15" y="3" width="1" height="1" fill="#b12b19" fill-opacity="0.616"/>
<rect x="16" y="3" width="1" height="1" fill="#aa200d"/>
<rect x="17" y="3" width="1" height="1" fill="#f27766"/>
<rect x="18" y="3" width="1" height="1" fill="#f38171"/>
<rect x="19" y="3" width="1" height="1" fill="#ef5844"/>
<rect x="20" y="3" width="1" height="1" fill="#ea280e"/>
<rect x="21" y="3" width="1" height="1" fill="#ca250f"/>
<rect x="22" y="3" width="1" height="1" fill="#b7220f"/>
<rect x="23" y="3" width="1" height="1" fill="#ac1f0d"/>
<rect x="24" y="3" width="1" height="1" fill="#a81f0e" fill-opacity="0.949"/>
<rect x="15" y="4" width="1" height="1" fill="#b02f1e" fill-opacity="0.737"/>
<rect x="16" y="4" width="1" height="1" fill="#b03829"/>
<rect x="17" y="4" width="1" height="1" fill="#fdeeec"/>
<rect x="18" y="4" width="1" height="1" fill="#faccc6"/>
<rect x="19" y="4" width="1" height="1" fill="#f8bcb4"/>
<rect x="20" y="4" width="1" height="1" fill="#f8bcb4"/>
<rect x="21" y="4" width="1" height="1" fill="#f8bcb4"/>
<rect x="22" y="4" width="1" height="1" fill="#f8bbb2"/>
<rect x="23" y="4" width="1" height="1" fill="#b33727"/>
<rect x="24" y="4" width="1" height="1" fill="#a82211" fill-opacity="0.961"/>
<rect x="15" y="5" width="1" height="1" fill="#ad1e0b" fill-opacity="0.831"/>
<rect x="16" y="5" width="1" height="1" fill="#b42a18"/>
<rect x="17" y="5" width="1" height="1" fill="#f8b1a7"/>
<rect x="18" y="5" width="1" height="1" fill="#fdeae8"/>
<rect x="19" y="5" width="1" height="1" fill="#fdedeb"/>
<rect x="20" y="5" width="1" height="1" fill="#fdedeb"/>
<rect x="21" y="5" width="1" height="1" fill="#fdedeb"/>
<rect x="22" y="5" width="1" height="1" fill="#fdedeb"/>
<rect x="23" y="5" width="1" height="1" fill="#b23d2e"/>
<rect x="24" y="5" width="1" height="1" fill="#a92413" fill-opacity="0.941"/>
<rect x="14" y="6" width="1" height="1" fill="#ba5345" fill-opacity="0.016"/>
<rect x="15" y="6" width="1" height="1" fill="#a61d0b" fill-opacity="0.984"/>
<rect x="16" y="6" width="1" height="1" fill="#cd2610"/>
<rect x="17" y="6" width="1" height="1" fill="#f0614e"/>
<rect x="18" y="6" width="1" height="1" fill="#f06754"/>
<rect x="19" y="6" width="1" height="1" fill="#eb351c"/>
<rect x="20" y="6" width="1" height="1" fill="#e8290f"/>
<rect x="21" y="6" width="1" height="1" fill="#d92810"/>
<rect x="22" y="6" width="1" height="1" fill="#cd240e"/>
<rect x="23" y="6" width="1" height="1" fill="#a51c0a"/>
<rect x="24" y="6" width="1" height="1" fill="#a72110" fill-opacity="0.259"/>
<rect x="14" y="7" width="1" height="1" fill="#b6220f" fill-opacity="0.173"/>
<rect x="15" y="7" width="1" height="1" fill="#a51b09"/>
<rect x="16" y="7" width="1" height="1" fill="#f8e0dc"/>
<rect x="17" y="7" width="1" height="1" fill="#f7aea5"/>
<rect x="18" y="7" width="1" height="1" fill="#f49286"/>
<rect x="19" y="7" width="1" height="1" fill="#f49486"/>
<rect x="20" y="7" width="1" height="1" fill="#f39a8e"/>
<rect x="21" y="7" width="1" height="1" fill="#e98f84"/>
<rect x="22" y="7" width="1" height="1" fill="#df7e72"/>
<rect x="23" y="7" width="1" height="1" fill="#a62110" fill-opacity="0.996"/>
<rect x="24" y="7" width="1" height="1" fill="#b23d2f" fill-opacity="0.557"/>
<rect x="13" y="8" width="1" height="1" fill="#b94f40" fill-opacity="0.173"/>
<rect x="14" y="8" width="1" height="1" fill="#a71e0c" fill-opacity="0.98"/>
<rect x="15" y="8" width="1" height="1" fill="#cc2812"/>
<rect x="16" y="8" width="1" height="1" fill="#f48e80" fill-opacity="0.996"/>
<rect x="17" y="8" width="1" height="1" fill="#fddfdc"/>
<rect x="18" y="8" width="1" height="1" fill="#fdeae7"/>
<rect x="19" y="8" width="1" height="1" fill="#fce4e1"/>
<rect x="20" y="8" width="1" height="1" fill="#fef3f2"/>
<rect x="21" y="8" width="1" height="1" fill="#ffffff"/>
<rect x="22" y="8" width="1" height="1" fill="#ffffff"/>
<rect x="23" y="8" width="1" height="1" fill="#a53627"/>
<rect x="24" y="8" width="1" height="1" fill="#a93828" fill-opacity="0.796"/>
<rect x="12" y="9" width="1" height="1" fill="#b84c3e" fill-opacity="0.208"/>
<rect x="13" y="9" width="1" height="1" fill="#a61e0d" fill-opacity="0.984"/>
<rect x="14" y="9" width="1" height="1" fill="#d5958d"/>
<rect x="15" y="9" width="1" height="1" fill="#f38374"/>
<rect x="16" y="9" width="1" height="1" fill="#f26f5d"/>
<rect x="17" y="9" width="1" height="1" fill="#f27d6d"/>
<rect x="18" y="9" width="1" height="1" fill="#f16f5d"/>
<rect x="19" y="9" width="1" height="1" fill="#f16c5b"/>
<rect x="20" y="9" width="1" height="1" fill="#f16d5b"/>
<rect x="21" y="9" width="1" height="1" fill="#f16d5b"/>
<rect x="22" y="9" width="1" height="1" fill="#ed6957"/>
<rect x="23" y="9" width="1" height="1" fill="#a42a19" fill-opacity="0.996"/>
<rect x="24" y="9" width="1" height="1" fill="#aa3121" fill-opacity="0.749"/>
<rect x="10" y="10" width="1" height="1" fill="#b64738" fill-opacity="0.431"/>
<rect x="11" y="10" width="1" height="1" fill="#aa2817" fill-opacity="0.941"/>
<rect x="12" y="10" width="1" height="1" fill="#a61c0a" fill-opacity="0.992"/>
<rect x="13" y="10" width="1" height="1" fill="#ce3823"/>
<rect x="14" y="10" width="1" height="1" fill="#fce2df"/>
<rect x="15" y="10" width="1" height="1" fill="#ffffff"/>
<rect x="16" y="10" width="1" height="1" fill="#f8bcb4"/>
<rect x="17" y="10" width="1" height="1" fill="#f38a7c"/>
<rect x="18" y="10" width="1" height="1" fill="#f38374"/>
<rect x="19" y="10" width="1" height="1" fill="#ef4c36"/>
<rect x="20" y="10" width="1" height="1" fill="#e32e16"/>
<rect x="21" y="10" width="1" height="1" fill="#cc2711"/>
<rect x="22" y="10" width="1" height="1" fill="#c9250f"/>
<rect x="23" y="10" width="1" height="1" fill="#a62210"/>
<rect x="24" y="10" width="1" height="1" fill="#aa2514" fill-opacity="0.769"/>
<rect x="8" y="11" width="1" height="1" fill="#ba5143" fill-opacity="0.09"/>
<rect x="9" y="11" width="1" height="1" fill="#a81c09" fill-opacity="0.02"/>
<rect x="10" y="11" width="1" height="1" fill="#a82110" fill-opacity="0.965"/>
<rect x="11" y="11" width="1" height="1" fill="#c06053"/>
<rect x="12" y="11" width="1" height="1" fill="#e0a69e"/>
<rect x="13" y="11" width="1" height="1" fill="#ef5946"/>
<rect x="14" y="11" width="1" height="1" fill="#f06653"/>
<rect x="15" y="11" width="1" height="1" fill="#fdeae7"/>
<rect x="16" y="11" width="1" height="1" fill="#fffefe"/>
<rect x="17" y="11" width="1" height="1" fill="#fffdfd"/>
<rect x="18" y="11" width="1" height="1" fill="#fcdbd6"/>
<rect x="19" y="11" width="1" height="1" fill="#fbd3cd"/>
<rect x="20" y="11" width="1" height="1" fill="#f5c3bc"/>
<rect x="21" y="11" width="1" height="1" fill="#e5a39a"/>
<rect x="22" y="11" width="1" height="1" fill="#e9aba3"/>
<rect x="23" y="11" width="1" height="1" fill="#b24233"/>
<rect x="24" y="11" width="1" height="1" fill="#a72818" fill-opacity="0.902"/>
<rect x="5" y="12" width="1" height="1" fill="#a81c09" fill-opacity="0.008"/>
<rect x="6" y="12" width="1" height="1" fill="#a81c09" fill-opacity="0.086"/>
<rect x="7" y="12" width="1" height="1" fill="#ab2918" fill-opacity="0.925"/>
<rect x="8" y="12" width="1" height="1" fill="#a61b0a"/>
<rect x="9" y="12" width="1" height="1" fill="#a51b09" fill-opacity="0.996"/>
<rect x="10" y="12" width="1" height="1" fill="#be230d"/>
<rect x="11" y="12" width="1" height="1" fill="#f8c5be"/>
<rect x="12" y="12" width="1" height="1" fill="#ffffff"/>
<rect x="13" y="12" width="1" height="1" fill="#f6a094"/>
<rect x="14" y="12" width="1" height="1" fill="#ef624f"/>
<rect x="15" y="12" width="1" height="1" fill="#f48c7e"/>
<rect x="16" y="12" width="1" height="1" fill="#ffffff"/>
<rect x="17" y="12" width="1" height="1" fill="#ffffff"/>
<rect x="18" y="12" width="1" height="1" fill="#ffffff"/>
<rect x="19" y="12" width="1" height="1" fill="#ffffff"/>
<rect x="20" y="12" width="1" height="1" fill="#ffffff"/>
<rect x="21" y="12" width="1" height="1" fill="#ffffff"/>
<rect x="22" y="12" width="1" height="1" fill="#ffffff"/>
<rect x="23" y="12" width="1" height="1" fill="#b74f41"/>
<rect x="24" y="12" width="1" height="1" fill="#a62312" fill-opacity="0.965"/>
<rect x="3" y="13" width="1" height="1" fill="#b11d09" fill-opacity="0.467"/>
<rect x="4" y="13" width="1" height="1" fill="#ac1c09" fill-opacity="0.835"/>
<rect x="5" y="13" width="1" height="1" fill="#aa1b09" fill-opacity="0.929"/>
<rect x="6" y="13" width="1" height="1" fill="#a81c09" fill-opacity="0.988"/>
<rect x="7" y="13" width="1" height="1" fill="#b33524" fill-opacity="0.988"/>
<rect x="8" y="13" width="1" height="1" fill="#e3b6b1"/>
<rect x="9" y="13" width="1" height="1" fill="#db7467"/>
<rect x="10" y="13" width="1" height="1" fill="#ef5a46"/>
<rect x="11" y="13" width="1" height="1" fill="#f16f5e"/>
<rect x="12" y="13" width="1" height="1" fill="#fffcfb"/>
<rect x="13" y="13" width="1" height="1" fill="#fce7e3"/>
<rect x="14" y="13" width="1" height="1" fill="#ee5f4c"/>
<rect x="15" y="13" width="1" height="1" fill="#ed4831"/>
<rect x="16" y="13" width="1" height="1" fill="#fdf0ee"/>
<rect x="17" y="13" width="1" height="1" fill="#ffffff"/>
<rect x="18" y="13" width="1" height="1" fill="#f8b6ae"/>
<rect x="19" y="13" width="1" height="1" fill="#ed4933"/>
<rect x="20" y="13" width="1" height="1" fill="#ed4a34"/>
<rect x="21" y="13" width="1" height="1" fill="#e54631"/>
<rect x="22" y="13" width="1" height="1" fill="#dc412c"/>
<rect x="23" y="13" width="1" height="1" fill="#b32916"/>
<rect x="24" y="13" width="1" height="1" fill="#a42211" fill-opacity="0.988"/>
<rect x="2" y="14" width="1" height="1" fill="#aa1b08" fill-opacity="0.91"/>
<rect x="3" y="14" width="1" height="1" fill="#a81c09" fill-opacity="0.996"/>
<rect x="4" y="14" width="1" height="1" fill="#b01e0a"/>
<rect x="5" y="14" width="1" height="1" fill="#b42714"/>
<rect x="6" y="14" width="1" height="1" fill="#d35c4b"/>
<rect x="7" y="14" width="1" height="1" fill="#e85a46"/>
<rect x="8" y="14" width="1" height="1" fill="#ffffff"/>
<rect x="9" y="14" width="1" height="1" fill="#fdeae7"/>
<rect x="10" y="14" width="1" height="1" fill="#ee5945"/>
<rect x="11" y="14" width="1" height="1" fill="#ee533e"/>
<rect x="12" y="14" width="1" height="1" fill="#fdedea"/>
<rect x="13" y="14" width="1" height="1" fill="#ffffff"/>
<rect x="14" y="14" width="1" height="1" fill="#f06e5d"/>
<rect x="15" y="14" width="1" height="1" fill="#d93621"/>
<rect x="16" y="14" width="1" height="1" fill="#f9bdb5"/>
<rect x="17" y="14" width="1" height="1" fill="#ffffff"/>
<rect x="18" y="14" width="1" height="1" fill="#f69f93"/>
<rect x="19" y="14" width="1" height="1" fill="#ea280e"/>
<rect x="20" y="14" width="1" height="1" fill="#ea280e"/>
<rect x="21" y="14" width="1" height="1" fill="#d9260f"/>
<rect x="22" y="14" width="1" height="1" fill="#c8240f"/>
<rect x="23" y="14" width="1" height="1" fill="#b5220f"/>
<rect x="24" y="14" width="1" height="1" fill="#a22212" fill-opacity="0.996"/>
<rect x="25" y="14" width="1" height="1" fill="#943123" fill-opacity="0.031"/>
<rect x="1" y="15" width="1" height="1" fill="#ae1e0b" fill-opacity="0.765"/>
<rect x="2" y="15" width="1" height="1" fill="#ae1d0a"/>
<rect x="3" y="15" width="1" height="1" fill="#d2311c"/>
<rect x="4" y="15" width="1" height="1" fill="#ea523e"/>
<rect x="5" y="15" width="1" height="1" fill="#f48778"/>
<rect x="6" y="15" width="1" height="1" fill="#f6a194"/>
<rect x="7" y="15" width="1" height="1" fill="#ee543f"/>
<rect x="8" y="15" width="1" height="1" fill="#fef3f2"/>
<rect x="9" y="15" width="1" height="1" fill="#ffffff"/>
<rect x="10" y="15" width="1" height="1" fill="#f06a58"/>
<rect x="11" y="15" width="1" height="1" fill="#cf3825"/>
<rect x="12" y="15" width="1" height="1" fill="#eca69b"/>
<rect x="13" y="15" width="1" height="1" fill="#ffffff"/>
<rect x="14" y="15" width="1" height="1" fill="#f27868"/>
<rect x="15" y="15" width="1" height="1" fill="#cd301b"/>
<rect x="16" y="15" width="1" height="1" fill="#ef7564"/>
<rect x="17" y="15" width="1" height="1" fill="#ffffff"/>
<rect x="18" y="15" width="1" height="1" fill="#f6a69b"/>
<rect x="19" y="15" width="1" height="1" fill="#e9280e"/>
<rect x="20" y="15" width="1" height="1" fill="#e8270d"/>
<rect x="21" y="15" width="1" height="1" fill="#d7260f"/>
<rect x="22" y="15" width="1" height="1" fill="#be230f"/>
<rect x="23" y="15" width="1" height="1" fill="#b1220f"/>
<rect x="24" y="15" width="1" height="1" fill="#a51f0e" fill-opacity="0.992"/>
<rect x="25" y="15" width="1" height="1" fill="#943123" fill-opacity="0.051"/>
<rect x="1" y="16" width="1" height="1" fill="#a51b09" fill-opacity="0.992"/>
<rect x="2" y="16" width="1" height="1" fill="#b8210e"/>
<rect x="3" y="16" width="1" height="1" fill="#c23624"/>
<rect x="4" y="16" width="1" height="1" fill="#e05340"/>
<rect x="5" y="16" width="1" height="1" fill="#e75d4b"/>
<rect x="6" y="16" width="1" height="1" fill="#e8503c"/>
<rect x="7" y="16" width="1" height="1" fill="#cd2914"/>
<rect x="8" y="16" width="1" height="1" fill="#fad5d0"/>
<rect x="9" y="16" width="1" height="1" fill="#ffffff"/>
<rect x="10" y="16" width="1" height="1" fill="#f6a094"/>
<rect x="11" y="16" width="1" height="1" fill="#b52411"/>
<rect x="12" y="16" width="1" height="1" fill="#c74f3f"/>
<rect x="13" y="16" width="1" height="1" fill="#fbf5f4"/>
<rect x="14" y="16" width="1" height="1" fill="#f27362"/>
<rect x="15" y="16" width="1" height="1" fill="#c0240f"/>
<rect x="16" y="16" width="1" height="1" fill="#e56756"/>
<rect x="17" y="16" width="1" height="1" fill="#ffffff"/>
<rect x="18" y="16" width="1" height="1" fill="#f6a59a"/>
<rect x="19" y="16" width="1" height="1" fill="#cb250f"/>
<rect x="20" y="16" width="1" height="1" fill="#cd250f"/>
<rect x="21" y="16" width="1" height="1" fill="#c1240f"/>
<rect x="22" y="16" width="1" height="1" fill="#b22210"/>
<rect x="23" y="16" width="1" height="1" fill="#af220f"/>
<rect x="24" y="16" width="1" height="1" fill="#a61e0d" fill-opacity="0.992"/>
<rect x="25" y="16" width="1" height="1" fill="#963021" fill-opacity="0.043"/>
<rect x="1" y="17" width="1" height="1" fill="#a81c09" fill-opacity="0.953"/>
<rect x="2" y="17" width="1" height="1" fill="#b1200d"/>
<rect x="3" y="17" width="1" height="1" fill="#af2311"/>
<rect x="4" y="17" width="1" height="1" fill="#b42613"/>
<rect x="5" y="17" width="1" height="1" fill="#b9220e"/>
<rect x="6" y="17" width="1" height="1" fill="#be220e"/>
<rect x="7" y="17" width="1" height="1" fill="#b52310"/>
<rect x="8" y="17" width="1" height="1" fill="#f8cbc4"/>
<rect x="9" y="17" width="1" height="1" fill="#ffffff"/>
<rect x="10" y="17" width="1" height="1" fill="#f6a69c"/>
<rect x="11" y="17" width="1" height="1" fill="#b12210"/>
<rect x="12" y="17" width="1" height="1" fill="#b62e1d"/>
<rect x="13" y="17" width="1" height="1" fill="#faf2f1"/>
<rect x="14" y="17" width="1" height="1" fill="#f17261"/>
<rect x="15" y="17" width="1" height="1" fill="#b9230f"/>
<rect x="16" y="17" width="1" height="1" fill="#d25140"/>
<rect x="17" y="17" width="1" height="1" fill="#ffffff"/>
<rect x="18" y="17" width="1" height="1" fill="#f7a499"/>
<rect x="19" y="17" width="1" height="1" fill="#bd230f"/>
<rect x="20" y="17" width="1" height="1" fill="#b62310"/>
<rect x="21" y="17" width="1" height="1" fill="#b32210"/>
<rect x="22" y="17" width="1" height="1" fill="#b02310"/>
<rect x="23" y="17" width="1" height="1" fill="#ab2210"/>
<rect x="24" y="17" width="1" height="1" fill="#a71e0d" fill-opacity="0.976"/>
<rect x="25" y="17" width="1" height="1" fill="#9d2919" fill-opacity="0.016"/>
<rect x="1" y="18" width="1" height="1" fill="#b72310" fill-opacity="0.149"/>
<rect x="2" y="18" width="1" height="1" fill="#a71c0a" fill-opacity="0.984"/>
<rect x="3" y="18" width="1" height="1" fill="#a81f0e"/>
<rect x="4" y="18" width="1" height="1" fill="#aa210f"/>
<rect x="5" y="18" width="1" height="1" fill="#aa2110"/>
<rect x="6" y="18" width="1" height="1" fill="#ab210f"/>
<rect x="7" y="18" width="1" height="1" fill="#b1220f"/>
<rect x="8" y="18" width="1" height="1" fill="#e9b0aa"/>
<rect x="9" y="18" width="1" height="1" fill="#f3e1df"/>
<rect x="10" y="18" width="1" height="1" fill="#df8073"/>
<rect x="11" y="18" width="1" height="1" fill="#b0210f"/>
<rect x="12" y="18" width="1" height="1" fill="#b63422"/>
<rect x="13" y="18" width="1" height="1" fill="#c77267"/>
<rect x="14" y="18" width="1" height="1" fill="#af2715"/>
<rect x="15" y="18" width="1" height="1" fill="#a51c0b"/>
<rect x="16" y="18" width="1" height="1" fill="#a8200f" fill-opacity="0.996"/>
<rect x="17" y="18" width="1" height="1" fill="#b84c3e"/>
<rect x="18" y="18" width="1" height="1" fill="#b93f2e"/>
<rect x="19" y="18" width="1" height="1" fill="#ae210f"/>
<rect x="20" y="18" width="1" height="1" fill="#ac2311"/>
<rect x="21" y="18" width="1" height="1" fill="#af2210"/>
<rect x="22" y="18" width="1" height="1" fill="#a72311"/>
<rect x="23" y="18" width="1" height="1" fill="#a32211"/>
<rect x="24" y="18" width="1" height="1" fill="#ad200d" fill-opacity="0.451"/>
<rect x="3" y="19" width="1" height="1" fill="#b1200d" fill-opacity="0.659"/>
<rect x="4" y="19" width="1" height="1" fill="#aa1c0a" fill-opacity="0.918"/>
<rect x="5" y="19" width="1" height="1" fill="#a71d0b" fill-opacity="0.976"/>
<rect x="6" y="19" width="1" height="1" fill="#a71c0a" fill-opacity="0.98"/>
<rect x="7" y="19" width="1" height="1" fill="#a61c09" fill-opacity="0.98"/>
<rect x="8" y="19" width="1" height="1" fill="#a41b09"/>
<rect x="9" y="19" width="1" height="1" fill="#a41a08"/>
<rect x="10" y="19" width="1" height="1" fill="#a51b09" fill-opacity="0.996"/>
<rect x="11" y="19" width="1" height="1" fill="#a61c09" fill-opacity="0.98"/>
<rect x="12" y="19" width="1" height="1" fill="#a71d0b" fill-opacity="0.973"/>
<rect x="13" y="19" width="1" height="1" fill="#a92311" fill-opacity="0.945"/>
<rect x="14" y="19" width="1" height="1" fill="#af2716" fill-opacity="0.737"/>
<rect x="15" y="19" width="1" height="1" fill="#b11d0a" fill-opacity="0.329"/>
<rect x="16" y="19" width="1" height="1" fill="#b23524" fill-opacity="0.576"/>
<rect x="17" y="19" width="1" height="1" fill="#a92413" fill-opacity="0.945"/>
<rect x="18" y="19" width="1" height="1" fill="#a8200f" fill-opacity="0.957"/>
<rect x="19" y="19" width="1" height="1" fill="#a91d0a" fill-opacity="0.945"/>
<rect x="20" y="19" width="1" height="1" fill="#a6210e" fill-opacity="0.98"/>
<rect x="21" y="19" width="1" height="1" fill="#a61f0c" fill-opacity="0.976"/>
<rect x="22" y="19" width="1" height="1" fill="#ac1f0d" fill-opacity="0.784"/>
<rect x="23" y="19" width="1" height="1" fill="#b01f0c" fill-opacity="0.141"/>
</svg>