<?xml version="1.0" encoding="UTF-8" standalone="no"?>
<svg xmlns="http://www.w3.org/2000/svg" width="26" height="21" shape-rendering="crispEdges">
<rect x="15" y="1" width="1" height="1" fill="#b55f05" fill-opacity="0.275"/>
<rect x="16" y="1" width="1" height="1" fill="#773f05"/>
<rect x="17" y="1" width="1" height="1" fill="#773f05"/>
<rect x="18" y="1" width="1" height="1" fill="#773f05"/>
<rect x="19" y="1" width="1" height="1" fill="#773f05"/>
<rect x="20" y="1" width="1" height="1" fill="#773f05"/>
<rect x="21" y="1" width="1" height="1" fill="#773f05"/>
<rect x="22" y="1" width="1" height="1" fill="#773f05"/>
<rect x="23" y="1" width="1" height="1" fill="#773f05"/>
<rect x="24" y="1" width="1" height="1" fill="#974f05" fill-opacity="0.902"/>
<rect x="15" y="2" width="1" height="1" fill="#b65f05" fill-opacity="0.271"/>
<rect x="16" y="2" width="1" height="1" fill="#8b4905"/>
<rect x="17" y="2" width="1" height="1" fill="#fe972e"/>
<rect x="18" y="2" width="1" height="1" fill="#fc9b3a"/>
<rect x="19" y="2" width="1" height="1" fill="#f1790b"/>
<rect x="20" y="2" width="1" height="1" fill="#da6811"/>
<rect x="21" y="2" width="1" height="1" fill="#d56413"/>
<rect x="22" y="2" width="1" height="1" fill="#ea720e"/>
<rect x="23" y="2" width="1" height="1" fill="#bd6206"/>
<rect x="24" y="2" width="1" height="1" fill="#954e05" fill-opacity="0.859"/>
<rect x="15" y="3" width="1" height="1" fill="#b37330" fill-opacity="0.38"/>
<rect x="16" y="3" width="1" height="1" fill="#985714"/>
<rect x="17" y="3" width="1" height="1" fill="#ffaa51"/>
<rect x="18" y="3" width="1" height="1" fill="#ffad56"/>
<rect x="19" y="3" width="1" height="1" fill="#f67d0a"/>
<rect x="20" y="3" width="1" height="1" fill="#d76710"/>
<rect x="21" y="3" width="1" height="1" fill="#d16311"/>
<rect x="22" y="3" width="1" height="1" fill="#e9720f"/>
<rect x="23" y="3" width="1" height="1" fill="#a75705"/>
<rect x="24" y="3" width="1" height="1" fill="#9a5105" fill-opacity="0.714"/>
<rect x="15" y="4" width="1" height="1" fill="#b07b45" fill-opacity="0.486"/>
<rect x="16" y="4" width="1" height="1" fill="#9e7549"/>
<rect x="17" y="4" width="1" height="1" fill="#ffd1a1"/>
<rect x="18" y="4" width="1" height="1" fill="#ffd3a5"/>
<rect x="19" y="4" width="1" height="1" fill="#ffd9b2"/>
<rect x="20" y="4" width="1" height="1" fill="#ffd9b2"/>
<rect x="21" y="4" width="1" height="1" fill="#ffd9b2"/>
<rect x="22" y="4" width="1" height="1" fill="#ffd9b3"/>
<rect x="23" y="4" width="1" height="1" fill="#a77541"/>
<rect x="24" y="4" width="1" height="1" fill="#9c6022" fill-opacity="0.722"/>
<rect x="15" y="5" width="1" height="1" fill="#ab5a05" fill-opacity="0.596"/>
<rect x="16" y="5" width="1" height="1" fill="#a5631f"/>
<rect x="17" y="5" width="1" height="1" fill="#ffd2a4"/>
<rect x="18" y="5" width="1" height="1" fill="#fff3e7"/>
<rect x="19" y="5" width="1" height="1" fill="#fff5ea"/>
<rect x="20" y="5" width="1" height="1" fill="#fff5ea"/>
<rect x="21" y="5" width="1" height="1" fill="#fff5ea"/>
<rect x="22" y="5" width="1" height="1" fill="#fff5ea"/>
<rect x="23" y="5" width="1" height="1" fill="#a0764a"/>
<rect x="24" y="5" width="1" height="1" fill="#99642d" fill-opacity="0.725"/>
<rect x="14" y="6" width="1" height="1" fill="#bb9f82" fill-opacity="0.008"/>
<rect x="15" y="6" width="1" height="1" fill="#93581a" fill-opacity="0.906"/>
<rect x="16" y="6" width="1" height="1" fill="#9a530a"/>
<rect x="17" y="6" width="1" height="1" fill="#ffa953"/>
<rect x="18" y="6" width="1" height="1" fill="#ff9931"/>
<rect x="19" y="6" width="1" height="1" fill="#fd8307"/>
<rect x="20" y="6" width="1" height="1" fill="#ee750d"/>
<rect x="21" y="6" width="1" height="1" fill="#eb730e"/>
<rect x="22" y="6" width="1" height="1" fill="#e5730a"/>
<rect x="23" y="6" width="1" height="1" fill="#834505" fill-opacity="0.984"/>
<rect x="24" y="6" width="1" height="1" fill="#794005" fill-opacity="0.235"/>
<rect x="14" y="7" width="1" height="1" fill="#ad5b06" fill-opacity="0.11"/>
<rect x="15" y="7" width="1" height="1" fill="#7c450e"/>
<rect x="16" y="7" width="1" height="1" fill="#916332"/>
<rect x="17" y="7" width="1" height="1" fill="#ffe0c2"/>
<rect x="18" y="7" width="1" height="1" fill="#ffd0a0"/>
<rect x="19" y="7" width="1" height="1" fill="#feca95"/>
<rect x="20" y="7" width="1" height="1" fill="#f7b981"/>
<rect x="21" y="7" width="1" height="1" fill="#f4b077"/>
<rect x="22" y="7" width="1" height="1" fill="#f1b780"/>
<rect x="23" y="7" width="1" height="1" fill="#824b11" fill-opacity="0.992"/>
<rect x="24" y="7" width="1" height="1" fill="#996f42" fill-opacity="0.431"/>
<rect x="13" y="8" width="1" height="1" fill="#b1916f" fill-opacity="0.102"/>
<rect x="14" y="8" width="1" height="1" fill="#8c551b" fill-opacity="0.933"/>
<rect x="15" y="8" width="1" height="1" fill="#945411"/>
<rect x="16" y="8" width="1" height="1" fill="#e5a766" fill-opacity="0.996"/>
<rect x="17" y="8" width="1" height="1" fill="#feeedf"/>
<rect x="18" y="8" width="1" height="1" fill="#fffdfd"/>
<rect x="19" y="8" width="1" height="1" fill="#ffffff"/>
<rect x="20" y="8" width="1" height="1" fill="#ffffff"/>
<rect x="21" y="8" width="1" height="1" fill="#ffffff"/>
<rect x="22" y="8" width="1" height="1" fill="#fefdfd"/>
<rect x="23" y="8" width="1" height="1" fill="#85531f"/>
<rect x="24" y="8" width="1" height="1" fill="#a17a52" fill-opacity="0.565"/>
<rect x="12" y="9" width="1" height="1" fill="#997044" fill-opacity="0.188"/>
<rect x="13" y="9" width="1" height="1" fill="#86501a" fill-opacity="0.957"/>
<rect x="14" y="9" width="1" height="1" fill="#9e764d"/>
<rect x="15" y="9" width="1" height="1" fill="#eba966"/>
<rect x="16" y="9" width="1" height="1" fill="#fe9222"/>
<rect x="17" y="9" width="1" height="1" fill="#ffa140"/>
<rect x="18" y="9" width="1" height="1" fill="#ffa243"/>
<rect x="19" y="9" width="1" height="1" fill="#ffab55"/>
<rect x="20" y="9" width="1" height="1" fill="#ffac56"/>
<rect x="21" y="9" width="1" height="1" fill="#ffac56"/>
<rect x="22" y="9" width="1" height="1" fill="#faa753"/>
<rect x="23" y="9" width="1" height="1" fill="#82480d" fill-opacity="0.996"/>
<rect x="24" y="9" width="1" height="1" fill="#a06b35" fill-opacity="0.541"/>
<rect x="10" y="10" width="1" height="1" fill="#af8f6e" fill-opacity="0.267"/>
<rect x="11" y="10" width="1" height="1" fill="#916232" fill-opacity="0.839"/>
<rect x="12" y="10" width="1" height="1" fill="#80460a" fill-opacity="0.976"/>
<rect x="13" y="10" width="1" height="1" fill="#ab7236"/>
<rect x="14" y="10" width="1" height="1" fill="#ecd9c7"/>
<rect x="15" y="10" width="1" height="1" fill="#ffffff"/>
<rect x="16" y="10" width="1" height="1" fill="#ffd4a8"/>
<rect x="17" y="10" width="1" height="1" fill="#ffa950"/>
<rect x="18" y="10" width="1" height="1" fill="#ff8509"/>
<rect x="19" y="10" width="1" height="1" fill="#f67c0a"/>
<rect x="20" y="10" width="1" height="1" fill="#df6913"/>
<rect x="21" y="10" width="1" height="1" fill="#d86513"/>
<rect x="22" y="10" width="1" height="1" fill="#e36c11"/>
<rect x="23" y="10" width="1" height="1" fill="#844605"/>
<rect x="24" y="10" width="1" height="1" fill="#9f5a14" fill-opacity="0.565"/>
<rect x="8" y="11" width="1" height="1" fill="#bb9f82" fill-opacity="0.047"/>
<rect x="9" y="11" width="1" height="1" fill="#773f05" fill-opacity="0.094"/>
<rect x="10" y="11" width="1" height="1" fill="#865018" fill-opacity="0.918"/>
<rect x="11" y="11" width="1" height="1" fill="#875622"/>
<rect x="12" y="11" width="1" height="1" fill="#bd9b7a"/>
<rect x="13" y="11" width="1" height="1" fill="#ffb367"/>
<rect x="14" y="11" width="1" height="1" fill="#ffac57"/>
<rect x="15" y="11" width="1" height="1" fill="#fff3e7"/>
<rect x="16" y="11" width="1" height="1" fill="#fffefe"/>
<rect x="17" y="11" width="1" height="1" fill="#fffefe"/>
<rect x="18" y="11" width="1" height="1" fill="#ffecd8"/>
<rect x="19" y="11" width="1" height="1" fill="#fde2c7"/>
<rect x="20" y="11" width="1" height="1" fill="#f3c8a3"/>
<rect x="21" y="11" width="1" height="1" fill="#e1af85"/>
<rect x="22" y="11" width="1" height="1" fill="#fcd9b9"/>
<rect x="23" y="11" width="1" height="1" fill="#8e5b26"/>
<rect x="24" y="11" width="1" height="1" fill="#9d642a" fill-opacity="0.718"/>
<rect x="6" y="12" width="1" height="1" fill="#773f05" fill-opacity="0.031"/>
<rect x="7" y="12" width="1" height="1" fill="#a0784f" fill-opacity="0.722"/>
<rect x="8" y="12" width="1" height="1" fill="#875420" fill-opacity="0.976"/>
<rect x="9" y="12" width="1" height="1" fill="#88490a" fill-opacity="0.957"/>
<rect x="10" y="12" width="1" height="1" fill="#9b5208"/>
<rect x="11" y="12" width="1" height="1" fill="#e4c09b"/>
<rect x="12" y="12" width="1" height="1" fill="#ffffff"/>
<rect x="13" y="12" width="1" height="1" fill="#ffc992"/>
<rect x="14" y="12" width="1" height="1" fill="#ff982e"/>
<rect x="15" y="12" width="1" height="1" fill="#ffbb76"/>
<rect x="16" y="12" width="1" height="1" fill="#ffffff"/>
<rect x="17" y="12" width="1" height="1" fill="#ffffff"/>
<rect x="18" y="12" width="1" height="1" fill="#ffffff"/>
<rect x="19" y="12" width="1" height="1" fill="#ffffff"/>
<rect x="20" y="12" width="1" height="1" fill="#fffefe"/>
<rect x="21" y="12" width="1" height="1" fill="#fffefe"/>
<rect x="22" y="12" width="1" height="1" fill="#ffffff"/>
<rect x="23" y="12" width="1" height="1" fill="#8a5a28"/>
<rect x="24" y="12" width="1" height="1" fill="#935c22" fill-opacity="0.831"/>
<rect x="3" y="13" width="1" height="1" fill="#b65f05" fill-opacity="0.271"/>
<rect x="4" y="13" width="1" height="1" fill="#a85805" fill-opacity="0.6"/>
<rect x="5" y="13" width="1" height="1" fill="#8f4b05" fill-opacity="0.792"/>
<rect x="6" y="13" width="1" height="1" fill="#854605" fill-opacity="0.929"/>
<rect x="7" y="13" width="1" height="1" fill="#8f5a24" fill-opacity="0.988"/>
<rect x="8" y="13" width="1" height="1" fill="#b59676"/>
<rect x="9" y="13" width="1" height="1" fill="#ce975f"/>
<rect x="10" y="13" width="1" height="1" fill="#fd8306"/>
<rect x="11" y="13" width="1" height="1" fill="#fea142"/>
<rect x="12" y="13" width="1" height="1" fill="#fffdfb"/>
<rect x="13" y="13" width="1" height="1" fill="#fff4e9"/>
<rect x="14" y="13" width="1" height="1" fill="#ff8e1c"/>
<rect x="15" y="13" width="1" height="1" fill="#ff8f1d"/>
<rect x="16" y="13" width="1" height="1" fill="#fff9f3"/>
<rect x="17" y="13" width="1" height="1" fill="#ffffff"/>
<rect x="18" y="13" width="1" height="1" fill="#ffd6ab"/>
<rect x="19" y="13" width="1" height="1" fill="#ff972c"/>
<rect x="20" y="13" width="1" height="1" fill="#ff972d"/>
<rect x="21" y="13" width="1" height="1" fill="#ff982e"/>
<rect x="22" y="13" width="1" height="1" fill="#ff982e"/>
<rect x="23" y="13" width="1" height="1" fill="#a05a11"/>
<rect x="24" y="13" width="1" height="1" fill="#894a08" fill-opacity="0.902"/>
<rect x="2" y="14" width="1" height="1" fill="#9a5105" fill-opacity="0.761"/>
<rect x="3" y="14" width="1" height="1" fill="#874606" fill-opacity="0.996"/>
<rect x="4" y="14" width="1" height="1" fill="#9d550c"/>
<rect x="5" y="14" width="1" height="1" fill="#c27526"/>
<rect x="6" y="14" width="1" height="1" fill="#ad6418"/>
<rect x="7" y="14" width="1" height="1" fill="#bf7020"/>
<rect x="8" y="14" width="1" height="1" fill="#fdfcfb"/>
<rect x="9" y="14" width="1" height="1" fill="#fff3e7"/>
<rect x="10" y="14" width="1" height="1" fill="#ff8a12"/>
<rect x="11" y="14" width="1" height="1" fill="#fe860d"/>
<rect x="12" y="14" width="1" height="1" fill="#fef0e4"/>
<rect x="13" y="14" width="1" height="1" fill="#ffffff"/>
<rect x="14" y="14" width="1" height="1" fill="#ffa84e"/>
<rect x="15" y="14" width="1" height="1" fill="#f87e09"/>
<rect x="16" y="14" width="1" height="1" fill="#f9caa0"/>
<rect x="17" y="14" width="1" height="1" fill="#ffffff"/>
<rect x="18" y="14" width="1" height="1" fill="#ffc890"/>
<rect x="19" y="14" width="1" height="1" fill="#f28013"/>
<rect x="20" y="14" width="1" height="1" fill="#fa9229"/>
<rect x="21" y="14" width="1" height="1" fill="#f98e27"/>
<rect x="22" y="14" width="1" height="1" fill="#ef7810"/>
<rect x="23" y="14" width="1" height="1" fill="#a55808"/>
<rect x="24" y="14" width="1" height="1" fill="#824505" fill-opacity="0.957"/>
<rect x="1" y="15" width="1" height="1" fill="#af5b05" fill-opacity="0.514"/>
<rect x="2" y="15" width="1" height="1" fill="#894805"/>
<rect x="3" y="15" width="1" height="1" fill="#be6008"/>
<rect x="4" y="15" width="1" height="1" fill="#f09539"/>
<rect x="5" y="15" width="1" height="1" fill="#fbae5f"/>
<rect x="6" y="15" width="1" height="1" fill="#f5912f"/>
<rect x="7" y="15" width="1" height="1" fill="#f38516"/>
<rect x="8" y="15" width="1" height="1" fill="#fff8f1"/>
<rect x="9" y="15" width="1" height="1" fill="#ffffff"/>
<rect x="10" y="15" width="1" height="1" fill="#ffa74d"/>
<rect x="11" y="15" width="1" height="1" fill="#f87f08"/>
<rect x="12" y="15" width="1" height="1" fill="#f9ca9f"/>
<rect x="13" y="15" width="1" height="1" fill="#ffffff"/>
<rect x="14" y="15" width="1" height="1" fill="#ffb161"/>
<rect x="15" y="15" width="1" height="1" fill="#e46e10"/>
<rect x="16" y="15" width="1" height="1" fill="#e7883e"/>
<rect x="17" y="15" width="1" height="1" fill="#ffffff"/>
<rect x="18" y="15" width="1" height="1" fill="#ffcc97"/>
<rect x="19" y="15" width="1" height="1" fill="#d97015"/>
<rect x="20" y="15" width="1" height="1" fill="#ee8925"/>
<rect x="21" y="15" width="1" height="1" fill="#f88c25"/>
<rect x="22" y="15" width="1" height="1" fill="#e46d11"/>
<rect x="23" y="15" width="1" height="1" fill="#9e5206"/>
<rect x="24" y="15" width="1" height="1" fill="#7b4105" fill-opacity="0.984"/>
<rect x="1" y="16" width="1" height="1" fill="#904c05" fill-opacity="0.929"/>
<rect x="2" y="16" width="1" height="1" fill="#924c05"/>
<rect x="3" y="16" width="1" height="1" fill="#e6740e"/>
<rect x="4" y="16" width="1" height="1" fill="#f49b40"/>
<rect x="5" y="16" width="1" height="1" fill="#eb9e51"/>
<rect x="6" y="16" width="1" height="1" fill="#f18a23"/>
<rect x="7" y="16" width="1" height="1" fill="#e9760c"/>
<rect x="8" y="16" width="1" height="1" fill="#f9d5b7"/>
<rect x="9" y="16" width="1" height="1" fill="#ffffff"/>
<rect x="10" y="16" width="1" height="1" fill="#ffc891"/>
<rect x="11" y="16" width="1" height="1" fill="#e4720b"/>
<rect x="12" y="16" width="1" height="1" fill="#e8a369"/>
<rect x="13" y="16" width="1" height="1" fill="#ffffff"/>
<rect x="14" y="16" width="1" height="1" fill="#ffae5c"/>
<rect x="15" y="16" width="1" height="1" fill="#df6a11"/>
<rect x="16" y="16" width="1" height="1" fill="#e38339"/>
<rect x="17" y="16" width="1" height="1" fill="#ffffff"/>
<rect x="18" y="16" width="1" height="1" fill="#ffcb97"/>
<rect x="19" y="16" width="1" height="1" fill="#da6a13"/>
<rect x="20" y="16" width="1" height="1" fill="#db6d17"/>
<rect x="21" y="16" width="1" height="1" fill="#e26c14"/>
<rect x="22" y="16" width="1" height="1" fill="#dc6913"/>
<rect x="23" y="16" width="1" height="1" fill="#9e5206"/>
<rect x="24" y="16" width="1" height="1" fill="#7e4305" fill-opacity="0.973"/>
<rect x="1" y="17" width="1" height="1" fill="#985005" fill-opacity="0.824"/>
<rect x="2" y="17" width="1" height="1" fill="#7e4305"/>
<rect x="3" y="17" width="1" height="1" fill="#a85607"/>
<rect x="4" y="17" width="1" height="1" fill="#ec770e"/>
<rect x="5" y="17" width="1" height="1" fill="#e26f0d"/>
<rect x="6" y="17" width="1" height="1" fill="#ec750c"/>
<rect x="7" y="17" width="1" height="1" fill="#e26f0e"/>
<rect x="8" y="17" width="1" height="1" fill="#f8cda9"/>
<rect x="9" y="17" width="1" height="1" fill="#ffffff"/>
<rect x="10" y="17" width="1" height="1" fill="#ffcc98"/>
<rect x="11" y="17" width="1" height="1" fill="#ea730e"/>
<rect x="12" y="17" width="1" height="1" fill="#ee9750"/>
<rect x="13" y="17" width="1" height="1" fill="#ffffff"/>
<rect x="14" y="17" width="1" height="1" fill="#feae5c"/>
<rect x="15" y="17" width="1" height="1" fill="#e16c10"/>
<rect x="16" y="17" width="1" height="1" fill="#ec9347"/>
<rect x="17" y="17" width="1" height="1" fill="#ffffff"/>
<rect x="18" y="17" width="1" height="1" fill="#ffcb96"/>
<rect x="19" y="17" width="1" height="1" fill="#e47516"/>
<rect x="20" y="17" width="1" height="1" fill="#c96516"/>
<rect x="21" y="17" width="1" height="1" fill="#c26116"/>
<rect x="22" y="17" width="1" height="1" fill="#9f530e"/>
<rect x="23" y="17" width="1" height="1" fill="#854606"/>
<rect x="24" y="17" width="1" height="1" fill="#8d4a05" fill-opacity="0.878"/>
<rect x="1" y="18" width="1" height="1" fill="#b85f05" fill-opacity="0.082"/>
<rect x="2" y="18" width="1" height="1" fill="#834505" fill-opacity="0.949"/>
<rect x="3" y="18" width="1" height="1" fill="#794005"/>
<rect x="4" y="18" width="1" height="1" fill="#844606"/>
<rect x="5" y="18" width="1" height="1" fill="#984e08"/>
<rect x="6" y="18" width="1" height="1" fill="#964e07"/>
<rect x="7" y="18" width="1" height="1" fill="#9d5007"/>
<rect x="8" y="18" width="1" height="1" fill="#c9a480"/>
<rect x="9" y="18" width="1" height="1" fill="#c2a88f"/>
<rect x="10" y="18" width="1" height="1" fill="#b27d47"/>
<rect x="11" y="18" width="1" height="1" fill="#d86a0c"/>
<rect x="12" y="18" width="1" height="1" fill="#b46013"/>
<rect x="13" y="18" width="1" height="1" fill="#804c16"/>
<rect x="14" y="18" width="1" height="1" fill="#7f460a"/>
<rect x="15" y="18" width="1" height="1" fill="#834406" fill-opacity="0.996"/>
<rect x="16" y="18" width="1" height="1" fill="#884e12" fill-opacity="0.992"/>
<rect x="17" y="18" width="1" height="1" fill="#94683b"/>
<rect x="18" y="18" width="1" height="1" fill="#844c13"/>
<rect x="19" y="18" width="1" height="1" fill="#96520b"/>
<rect x="20" y="18" width="1" height="1" fill="#9f590f"/>
<rect x="21" y="18" width="1" height="1" fill="#874708"/>
<rect x="22" y="18" width="1" height="1" fill="#7b4105"/>
<rect x="23" y="18" width="1" height="1" fill="#874705" fill-opacity="0.965"/>
<rect x="24" y="18" width="1" height="1" fill="#b35d05" fill-opacity="0.2"/>
<rect x="3" y="19" width="1" height="1" fill="#9e5305" fill-opacity="0.522"/>
<rect x="4" y="19" width="1" height="1" fill="#8b4905" fill-opacity="0.847"/>
<rect x="5" y="19" width="1" height="1" fill="#854605" fill-opacity="0.933"/>
<rect x="6" y="19" width="1" height="1" fill="#844505" fill-opacity="0.941"/>
<rect x="7" y="19" width="1" height="1" fill="#844605" fill-opacity="0.945"/>
<rect x="8" y="19" width="1" height="1" fill="#814a11" fill-opacity="0.984"/>
<rect x="9" y="19" width="1" height="1" fill="#7a430a" fill-opacity="0.996"/>
<rect x="10" y="19" width="1" height="1" fill="#7b4308" fill-opacity="0.992"/>
<rect x="11" y="19" width="1" height="1" fill="#7d4205" fill-opacity="0.976"/>
<rect x="12" y="19" width="1" height="1" fill="#7c4308" fill-opacity="0.976"/>
<rect x="13" y="19" width="1" height="1" fill="#80490f" fill-opacity="0.941"/>
<rect x="14" y="19" width="1" height="1" fill="#874d10" fill-opacity="0.769"/>
<rect x="15" y="19" width="1" height="1" fill="#9b5105" fill-opacity="0.263"/>
<rect x="16" y="19" width="1" height="1" fill="#a06e38" fill-opacity="0.42"/>
<rect x="17" y="19" width="1" height="1" fill="#8b551d" fill-opacity="0.863"/>
<rect x="18" y="19" width="1" height="1" fill="#7c4308" fill-opacity="0.965"/>
<rect x="19" y="19" width="1" height="1" fill="#7d4205" fill-opacity="0.953"/>
<rect x="20" y="19" width="1" height="1" fill="#814405" fill-opacity="0.949"/>
<rect x="21" y="19" width="1" height="1" fill="#8c4905" fill-opacity="0.894"/>
<rect x="22" y="19" width="1" height="1" fill="#a45605" fill-opacity="0.545"/>
<rect x="23" y="19" width="1" height="1" fill="#bb6105" fill-opacity="0.055"/>
<rect x="8" y="20" width="1" height="1" fill="#773f05" fill-opacity="0.012"/>
<rect x="9" y="20" width="1" height="1" fill="#773f05" fill-opacity="0.004"/>
</svg>