<?xml version="1.0" encoding="UTF-8" standalone="no"?>
<svg xmlns="http://www.w3.org/2000/svg" width="26" height="21" shape-rendering="crispEdges">
<rect x="15" y="1" width="1" height="1" fill="#b9b91b" fill-opacity="0.529"/>
<rect x="16" y="1" width="1" height="1" fill="#9f9f0b"/>
<rect x="17" y="1" width="1" height="1" fill="#9f9f0b"/>
<rect x="18" y="1" width="1" height="1" fill="#9f9f0b"/>
<rect x="19" y="1" width="1" height="1" fill="#9f9f0b"/>
<rect x="20" y="1" width="1" height="1" fill="#9f9f0b"/>
<rect x="21" y="1" width="1" height="1" fill="#9f9f0b"/>
<rect x="22" y="1" width="1" height="1" fill="#9f9f0b"/>
<rect x="23" y="1" width="1" height="1" fill="#9f9f0b"/>
<rect x="24" y="1" width="1" height="1" fill="#a4a40e" fill-opacity="0.988"/>
<rect x="15" y="2" width="1" height="1" fill="#b9b91b" fill-opacity="0.514"/>
<rect x="16" y="2" width="1" height="1" fill="#adad13"/>
<rect x="17" y="2" width="1" height="1" fill="#ffff84"/>
<rect x="18" y="2" width="1" height="1" fill="#fffec0"/>
<rect x="19" y="2" width="1" height="1" fill="#fffe9e"/>
<rect x="20" y="2" width="1" height="1" fill="#f1f145"/>
<rect x="21" y="2" width="1" height="1" fill="#d3d32f"/>
<rect x="22" y="2" width="1" height="1" fill="#d7d731"/>
<rect x="23" y="2" width="1" height="1" fill="#c4c424"/>
<rect x="24" y="2" width="1" height="1" fill="#a3a30e" fill-opacity="0.98"/>
<rect x="15" y="3" width="1" height="1" fill="#b6b623" fill-opacity="0.659"/>
<rect x="16" y="3" width="1" height="1" fill="#b4b41b"/>
<rect x="17" y="3" width="1" height="1" fill="#fffea8"/>
<rect x="18" y="3" width="1" height="1" fill="#fffec5"/>
<rect x="19" y="3" width="1" height="1" fill="#ffff76"/>
<rect x="20" y="3" width="1" height="1" fill="#d2d22f"/>
<rect x="21" y="3" width="1" height="1" fill="#c0c022"/>
<rect x="22" y="3" width="1" height="1" fill="#cbcb28"/>
<rect x="23" y="3" width="1" height="1" fill="#c0c020"/>
<rect x="24" y="3" width="1" height="1" fill="#a6a60f" fill-opacity="0.937"/>
<rect x="15" y="4" width="1" height="1" fill="#b3b326" fill-opacity="0.753"/>
<rect x="16" y="4" width="1" height="1" fill="#baba34"/>
<rect x="17" y="4" width="1" height="1" fill="#ffffed"/>
<rect x="18" y="4" width="1" height="1" fill="#ffffd5"/>
<rect x="19" y="4" width="1" height="1" fill="#ffffc8"/>
<rect x="20" y="4" width="1" height="1" fill="#f6f6b6"/>
<rect x="21" y="4" width="1" height="1" fill="#f9f9b8"/>
<rect x="22" y="4" width="1" height="1" fill="#f9f9b1"/>
<rect x="23" y="4" width="1" height="1" fill="#c4c440"/>
<rect x="24" y="4" width="1" height="1" fill="#a7a714" fill-opacity="0.933"/>
<rect x="15" y="5" width="1" height="1" fill="#b1b116" fill-opacity="0.831"/>
<rect x="16" y="5" width="1" height="1" fill="#c1c12b"/>
<rect x="17" y="5" width="1" height="1" fill="#ffffbf"/>
<rect x="18" y="5" width="1" height="1" fill="#ffffee"/>
<rect x="19" y="5" width="1" height="1" fill="#fffff1"/>
<rect x="20" y="5" width="1" height="1" fill="#fffff1"/>
<rect x="21" y="5" width="1" height="1" fill="#fffff1"/>
<rect x="22" y="5" width="1" height="1" fill="#fffff0"/>
<rect x="23" y="5" width="1" height="1" fill="#c4c44a"/>
<rect x="24" y="5" width="1" height="1" fill="#aaaa1a" fill-opacity="0.902"/>
<rect x="14" y="6" width="1" height="1" fill="#c0c04c" fill-opacity="0.016"/>
<rect x="15" y="6" width="1" height="1" fill="#a4a410" fill-opacity="0.984"/>
<rect x="16" y="6" width="1" height="1" fill="#e1e13c"/>
<rect x="17" y="6" width="1" height="1" fill="#ffff5d"/>
<rect x="18" y="6" width="1" height="1" fill="#ffff60"/>
<rect x="19" y="6" width="1" height="1" fill="#fcfc51"/>
<rect x="20" y="6" width="1" height="1" fill="#eeee4f"/>
<rect x="21" y="6" width="1" height="1" fill="#d9d93e"/>
<rect x="22" y="6" width="1" height="1" fill="#c8c82b"/>
<rect x="23" y="6" width="1" height="1" fill="#a0a00c"/>
<rect x="24" y="6" width="1" height="1" fill="#b2b217" fill-opacity="0.027"/>
<rect x="14" y="7" width="1" height="1" fill="#bebe1f" fill-opacity="0.173"/>
<rect x="15" y="7" width="1" height="1" fill="#a3a30e"/>
<rect x="16" y="7" width="1" height="1" fill="#fbfae5"/>
<rect x="17" y="7" width="1" height="1" fill="#fffed1"/>
<rect x="18" y="7" width="1" height="1" fill="#fffec3"/>
<rect x="19" y="7" width="1" height="1" fill="#fefead"/>
<rect x="20" y="7" width="1" height="1" fill="#f3f391"/>
<rect x="21" y="7" width="1" height="1" fill="#e2e267"/>
<rect x="22" y="7" width="1" height="1" fill="#dbdb5a"/>
<rect x="23" y="7" width="1" height="1" fill="#abab16" fill-opacity="0.996"/>
<rect x="24" y="7" width="1" height="1" fill="#b8b83a" fill-opacity="0.51"/>
<rect x="13" y="8" width="1" height="1" fill="#bebe47" fill-opacity="0.173"/>
<rect x="14" y="8" width="1" height="1" fill="#a5a511" fill-opacity="0.98"/>
<rect x="15" y="8" width="1" height="1" fill="#dfdf39"/>
<rect x="16" y="8" width="1" height="1" fill="#fffea0" fill-opacity="0.996"/>
<rect x="17" y="8" width="1" height="1" fill="#fffde6"/>
<rect x="18" y="8" width="1" height="1" fill="#fffdfd"/>
<rect x="19" y="8" width="1" height="1" fill="#ffffff"/>
<rect x="20" y="8" width="1" height="1" fill="#ffffff"/>
<rect x="21" y="8" width="1" height="1" fill="#ffffff"/>
<rect x="22" y="8" width="1" height="1" fill="#fdfdf4"/>
<rect x="23" y="8" width="1" height="1" fill="#b8b830"/>
<rect x="24" y="8" width="1" height="1" fill="#b2b22d" fill-opacity="0.757"/>
<rect x="12" y="9" width="1" height="1" fill="#bebe46" fill-opacity="0.2"/>
<rect x="13" y="9" width="1" height="1" fill="#a4a411" fill-opacity="0.984"/>
<rect x="14" y="9" width="1" height="1" fill="#dfdf94"/>
<rect x="15" y="9" width="1" height="1" fill="#ffff98"/>
<rect x="16" y="9" width="1" height="1" fill="#ffff64"/>
<rect x="17" y="9" width="1" height="1" fill="#ffff71"/>
<rect x="18" y="9" width="1" height="1" fill="#fefe78"/>
<rect x="19" y="9" width="1" height="1" fill="#fbfb7e"/>
<rect x="20" y="9" width="1" height="1" fill="#eded63"/>
<rect x="21" y="9" width="1" height="1" fill="#e7e754"/>
<rect x="22" y="9" width="1" height="1" fill="#efef64"/>
<rect x="23" y="9" width="1" height="1" fill="#b6b620" fill-opacity="0.996"/>
<rect x="24" y="9" width="1" height="1" fill="#b5b52a" fill-opacity="0.702"/>
<rect x="10" y="10" width="1" height="1" fill="#baba3f" fill-opacity="0.431"/>
<rect x="11" y="10" width="1" height="1" fill="#aaaa1d" fill-opacity="0.937"/>
<rect x="12" y="10" width="1" height="1" fill="#a4a40f" fill-opacity="0.992"/>
<rect x="13" y="10" width="1" height="1" fill="#e2e247"/>
<rect x="14" y="10" width="1" height="1" fill="#ffffe8"/>
<rect x="15" y="10" width="1" height="1" fill="#ffffff"/>
<rect x="16" y="10" width="1" height="1" fill="#fffecf"/>
<rect x="17" y="10" width="1" height="1" fill="#ffff8f"/>
<rect x="18" y="10" width="1" height="1" fill="#fafa5e"/>
<rect x="19" y="10" width="1" height="1" fill="#f6f662"/>
<rect x="20" y="10" width="1" height="1" fill="#eeee59"/>
<rect x="21" y="10" width="1" height="1" fill="#e1e145"/>
<rect x="22" y="10" width="1" height="1" fill="#e5e53f"/>
<rect x="23" y="10" width="1" height="1" fill="#bcbc1d"/>
<rect x="24" y="10" width="1" height="1" fill="#b4b41d" fill-opacity="0.725"/>
<rect x="8" y="11" width="1" height="1" fill="#bfbf49" fill-opacity="0.09"/>
<rect x="10" y="11" width="1" height="1" fill="#a8a817" fill-opacity="0.961"/>
<rect x="11" y="11" width="1" height="1" fill="#d0d06c"/>
<rect x="12" y="11" width="1" height="1" fill="#ebebac"/>
<rect x="13" y="11" width="1" height="1" fill="#ffff69"/>
<rect x="14" y="11" width="1" height="1" fill="#ffff8a"/>
<rect x="15" y="11" width="1" height="1" fill="#fffeee"/>
<rect x="16" y="11" width="1" height="1" fill="#fffefe"/>
<rect x="17" y="11" width="1" height="1" fill="#fffefe"/>
<rect x="18" y="11" width="1" height="1" fill="#fefed8"/>
<rect x="19" y="11" width="1" height="1" fill="#f5f5a6"/>
<rect x="20" y="11" width="1" height="1" fill="#f3f3a5"/>
<rect x="21" y="11" width="1" height="1" fill="#fbfbc9"/>
<rect x="22" y="11" width="1" height="1" fill="#fdfdcc"/>
<rect x="23" y="11" width="1" height="1" fill="#c6c648"/>
<rect x="24" y="11" width="1" height="1" fill="#aeae1d" fill-opacity="0.878"/>
<rect x="7" y="12" width="1" height="1" fill="#adad23" fill-opacity="0.898"/>
<rect x="8" y="12" width="1" height="1" fill="#a1a10d"/>
<rect x="9" y="12" width="1" height="1" fill="#a2a20d" fill-opacity="0.996"/>
<rect x="10" y="12" width="1" height="1" fill="#d6d632"/>
<rect x="11" y="12" width="1" height="1" fill="#ffffd2"/>
<rect x="12" y="12" width="1" height="1" fill="#ffffff"/>
<rect x="13" y="12" width="1" height="1" fill="#ffffba"/>
<rect x="14" y="12" width="1" height="1" fill="#fffec2"/>
<rect x="15" y="12" width="1" height="1" fill="#ffffa8"/>
<rect x="16" y="12" width="1" height="1" fill="#ffffff"/>
<rect x="17" y="12" width="1" height="1" fill="#ffffff"/>
<rect x="18" y="12" width="1" height="1" fill="#ffffff"/>
<rect x="19" y="12" width="1" height="1" fill="#ffffff"/>
<rect x="20" y="12" width="1" height="1" fill="#ffffff"/>
<rect x="21" y="12" width="1" height="1" fill="#ffffff"/>
<rect x="22" y="12" width="1" height="1" fill="#ffffff"/>
<rect x="23" y="12" width="1" height="1" fill="#d6d67d"/>
<rect x="24" y="12" width="1" height="1" fill="#aaaa18" fill-opacity="0.937"/>
<rect x="3" y="13" width="1" height="1" fill="#baba1c" fill-opacity="0.467"/>
<rect x="4" y="13" width="1" height="1" fill="#b1b116" fill-opacity="0.82"/>
<rect x="5" y="13" width="1" height="1" fill="#aeae14" fill-opacity="0.878"/>
<rect x="6" y="13" width="1" height="1" fill="#a7a710" fill-opacity="0.965"/>
<rect x="7" y="13" width="1" height="1" fill="#c7c745" fill-opacity="0.98"/>
<rect x="8" y="13" width="1" height="1" fill="#f2f2d3"/>
<rect x="9" y="13" width="1" height="1" fill="#e9e981"/>
<rect x="10" y="13" width="1" height="1" fill="#ffff6d"/>
<rect x="11" y="13" width="1" height="1" fill="#fffe99"/>
<rect x="12" y="13" width="1" height="1" fill="#fffffb"/>
<rect x="13" y="13" width="1" height="1" fill="#ffffed"/>
<rect x="14" y="13" width="1" height="1" fill="#fefea9"/>
<rect x="15" y="13" width="1" height="1" fill="#fefda5"/>
<rect x="16" y="13" width="1" height="1" fill="#f4f4c3"/>
<rect x="17" y="13" width="1" height="1" fill="#fffffd"/>
<rect x="18" y="13" width="1" height="1" fill="#ffffc5"/>
<rect x="19" y="13" width="1" height="1" fill="#ffff6a"/>
<rect x="20" y="13" width="1" height="1" fill="#ffff7a"/>
<rect x="21" y="13" width="1" height="1" fill="#f9f99a"/>
<rect x="22" y="13" width="1" height="1" fill="#f9f9c6"/>
<rect x="23" y="13" width="1" height="1" fill="#e0e06d"/>
<rect x="24" y="13" width="1" height="1" fill="#a8a811" fill-opacity="0.957"/>
<rect x="2" y="14" width="1" height="1" fill="#acac13" fill-opacity="0.914"/>
<rect x="3" y="14" width="1" height="1" fill="#a9a910" fill-opacity="0.996"/>
<rect x="4" y="14" width="1" height="1" fill="#baba1b"/>
<rect x="5" y="14" width="1" height="1" fill="#c2c220"/>
<rect x="6" y="14" width="1" height="1" fill="#d4d42f"/>
<rect x="7" y="14" width="1" height="1" fill="#f6f664"/>
<rect x="8" y="14" width="1" height="1" fill="#ffffff"/>
<rect x="9" y="14" width="1" height="1" fill="#ffffee"/>
<rect x="10" y="14" width="1" height="1" fill="#ffff6f"/>
<rect x="11" y="14" width="1" height="1" fill="#fefe7c"/>
<rect x="12" y="14" width="1" height="1" fill="#ffffe7"/>
<rect x="13" y="14" width="1" height="1" fill="#ffffff"/>
<rect x="14" y="14" width="1" height="1" fill="#f5f575"/>
<rect x="15" y="14" width="1" height="1" fill="#fdfdad"/>
<rect x="16" y="14" width="1" height="1" fill="#ecec6d"/>
<rect x="17" y="14" width="1" height="1" fill="#f9f9e2"/>
<rect x="18" y="14" width="1" height="1" fill="#ffffbe"/>
<rect x="19" y="14" width="1" height="1" fill="#fcf74a"/>
<rect x="20" y="14" width="1" height="1" fill="#fefb4c"/>
<rect x="21" y="14" width="1" height="1" fill="#eaea3f"/>
<rect x="22" y="14" width="1" height="1" fill="#dbdb34"/>
<rect x="23" y="14" width="1" height="1" fill="#c2c122"/>
<rect x="24" y="14" width="1" height="1" fill="#a6a60f" fill-opacity="0.992"/>
<rect x="1" y="15" width="1" height="1" fill="#b3b318" fill-opacity="0.765"/>
<rect x="2" y="15" width="1" height="1" fill="#b3b317"/>
<rect x="3" y="15" width="1" height="1" fill="#dddd36"/>
<rect x="4" y="15" width="1" height="1" fill="#eded42"/>
<rect x="5" y="15" width="1" height="1" fill="#f9f94c"/>
<rect x="6" y="15" width="1" height="1" fill="#fcfc86"/>
<rect x="7" y="15" width="1" height="1" fill="#fdfd93"/>
<rect x="8" y="15" width="1" height="1" fill="#fffff3"/>
<rect x="9" y="15" width="1" height="1" fill="#ffffff"/>
<rect x="10" y="15" width="1" height="1" fill="#f0f059"/>
<rect x="11" y="15" width="1" height="1" fill="#f5f54e"/>
<rect x="12" y="15" width="1" height="1" fill="#fbfba6"/>
<rect x="13" y="15" width="1" height="1" fill="#fffffe"/>
<rect x="14" y="15" width="1" height="1" fill="#e9e957"/>
<rect x="15" y="15" width="1" height="1" fill="#f8f78c"/>
<rect x="16" y="15" width="1" height="1" fill="#ebeb66"/>
<rect x="17" y="15" width="1" height="1" fill="#f6f6d4"/>
<rect x="18" y="15" width="1" height="1" fill="#ffffd3"/>
<rect x="19" y="15" width="1" height="1" fill="#eae33c"/>
<rect x="20" y="15" width="1" height="1" fill="#f6ee44"/>
<rect x="21" y="15" width="1" height="1" fill="#e2e138"/>
<rect x="22" y="15" width="1" height="1" fill="#cccb29"/>
<rect x="23" y="15" width="1" height="1" fill="#bab71b"/>
<rect x="24" y="15" width="1" height="1" fill="#a5a50e" fill-opacity="0.992"/>
<rect x="1" y="16" width="1" height="1" fill="#a3a30d" fill-opacity="0.992"/>
<rect x="2" y="16" width="1" height="1" fill="#cdcd2a"/>
<rect x="3" y="16" width="1" height="1" fill="#d2d22d"/>
<rect x="4" y="16" width="1" height="1" fill="#e3e33a"/>
<rect x="5" y="16" width="1" height="1" fill="#f1f147"/>
<rect x="6" y="16" width="1" height="1" fill="#f6f65d"/>
<rect x="7" y="16" width="1" height="1" fill="#f5f55b"/>
<rect x="8" y="16" width="1" height="1" fill="#fafabe"/>
<rect x="9" y="16" width="1" height="1" fill="#ffffff"/>
<rect x="10" y="16" width="1" height="1" fill="#d7d73d"/>
<rect x="11" y="16" width="1" height="1" fill="#e9e943"/>
<rect x="12" y="16" width="1" height="1" fill="#d5d54c"/>
<rect x="13" y="16" width="1" height="1" fill="#fbfbf2"/>
<rect x="14" y="16" width="1" height="1" fill="#dbdb44"/>
<rect x="15" y="16" width="1" height="1" fill="#dfdf4a"/>
<rect x="16" y="16" width="1" height="1" fill="#d7d742"/>
<rect x="17" y="16" width="1" height="1" fill="#f8f8e2"/>
<rect x="18" y="16" width="1" height="1" fill="#ffffd7"/>
<rect x="19" y="16" width="1" height="1" fill="#cfcb2a"/>
<rect x="20" y="16" width="1" height="1" fill="#d3cf2c"/>
<rect x="21" y="16" width="1" height="1" fill="#cccc29"/>
<rect x="22" y="16" width="1" height="1" fill="#bab91e"/>
<rect x="23" y="16" width="1" height="1" fill="#afae15"/>
<rect x="24" y="16" width="1" height="1" fill="#a5a50e" fill-opacity="0.988"/>
<rect x="1" y="17" width="1" height="1" fill="#a9a911" fill-opacity="0.953"/>
<rect x="2" y="17" width="1" height="1" fill="#baba1c"/>
<rect x="3" y="17" width="1" height="1" fill="#b6b619"/>
<rect x="4" y="17" width="1" height="1" fill="#c3c322"/>
<rect x="5" y="17" width="1" height="1" fill="#d3d32f"/>
<rect x="6" y="17" width="1" height="1" fill="#cdcd2b"/>
<rect x="7" y="17" width="1" height="1" fill="#dbdb35"/>
<rect x="8" y="17" width="1" height="1" fill="#f6f6ae"/>
<rect x="9" y="17" width="1" height="1" fill="#ffffff"/>
<rect x="10" y="17" width="1" height="1" fill="#caca38"/>
<rect x="11" y="17" width="1" height="1" fill="#d3d332"/>
<rect x="12" y="17" width="1" height="1" fill="#c7c737"/>
<rect x="13" y="17" width="1" height="1" fill="#f4f4df"/>
<rect x="14" y="17" width="1" height="1" fill="#d6d53e"/>
<rect x="15" y="17" width="1" height="1" fill="#c8c82c"/>
<rect x="16" y="17" width="1" height="1" fill="#cfcf38"/>
<rect x="17" y="17" width="1" height="1" fill="#fdfdf5"/>
<rect x="18" y="17" width="1" height="1" fill="#ffffc3"/>
<rect x="19" y="17" width="1" height="1" fill="#c9c727"/>
<rect x="20" y="17" width="1" height="1" fill="#bdbc1f"/>
<rect x="21" y="17" width="1" height="1" fill="#b7b61b"/>
<rect x="22" y="17" width="1" height="1" fill="#aead15"/>
<rect x="23" y="17" width="1" height="1" fill="#abab13"/>
<rect x="24" y="17" width="1" height="1" fill="#a8a811" fill-opacity="0.961"/>
<rect x="1" y="18" width="1" height="1" fill="#bebe1f" fill-opacity="0.149"/>
<rect x="2" y="18" width="1" height="1" fill="#a5a50f" fill-opacity="0.984"/>
<rect x="3" y="18" width="1" height="1" fill="#a9a911"/>
<rect x="4" y="18" width="1" height="1" fill="#aeae14"/>
<rect x="5" y="18" width="1" height="1" fill="#b5b519"/>
<rect x="6" y="18" width="1" height="1" fill="#b5b519"/>
<rect x="7" y="18" width="1" height="1" fill="#c1c121"/>
<rect x="8" y="18" width="1" height="1" fill="#efefad"/>
<rect x="9" y="18" width="1" height="1" fill="#f7f7e1"/>
<rect x="10" y="18" width="1" height="1" fill="#bbbb2d"/>
<rect x="11" y="18" width="1" height="1" fill="#b4b419"/>
<rect x="12" y="18" width="1" height="1" fill="#b9b928"/>
<rect x="13" y="18" width="1" height="1" fill="#cece69"/>
<rect x="14" y="18" width="1" height="1" fill="#bcbc22"/>
<rect x="15" y="18" width="1" height="1" fill="#b5b41a"/>
<rect x="16" y="18" width="1" height="1" fill="#b2b21a" fill-opacity="0.996"/>
<rect x="17" y="18" width="1" height="1" fill="#cece67"/>
<rect x="18" y="18" width="1" height="1" fill="#d1d152"/>
<rect x="19" y="18" width="1" height="1" fill="#cac927"/>
<rect x="20" y="18" width="1" height="1" fill="#b3b218"/>
<rect x="21" y="18" width="1" height="1" fill="#b1b016"/>
<rect x="22" y="18" width="1" height="1" fill="#a8a810"/>
<rect x="23" y="18" width="1" height="1" fill="#a2a20d" fill-opacity="0.996"/>
<rect x="24" y="18" width="1" height="1" fill="#bcbc1d" fill-opacity="0.353"/>
<rect x="3" y="19" width="1" height="1" fill="#b3b317" fill-opacity="0.694"/>
<rect x="4" y="19" width="1" height="1" fill="#a9a911" fill-opacity="0.961"/>
<rect x="5" y="19" width="1" height="1" fill="#a8a811" fill-opacity="0.996"/>
<rect x="6" y="19" width="1" height="1" fill="#abab13" fill-opacity="0.996"/>
<rect x="7" y="19" width="1" height="1" fill="#adad13" fill-opacity="0.984"/>
<rect x="8" y="19" width="1" height="1" fill="#a1a10c"/>
<rect x="9" y="19" width="1" height="1" fill="#a0a00c"/>
<rect x="10" y="19" width="1" height="1" fill="#a6a60f" fill-opacity="0.996"/>
<rect x="11" y="19" width="1" height="1" fill="#aaaa12" fill-opacity="0.988"/>
<rect x="12" y="19" width="1" height="1" fill="#a7a711" fill-opacity="0.98"/>
<rect x="13" y="19" width="1" height="1" fill="#aaaa18" fill-opacity="0.945"/>
<rect x="14" y="19" width="1" height="1" fill="#b1b11b" fill-opacity="0.839"/>
<rect x="15" y="19" width="1" height="1" fill="#afaf15" fill-opacity="0.725"/>
<rect x="16" y="19" width="1" height="1" fill="#b3b323" fill-opacity="0.694"/>
<rect x="17" y="19" width="1" height="1" fill="#abab1b" fill-opacity="0.925"/>
<rect x="18" y="19" width="1" height="1" fill="#aaaa16" fill-opacity="0.937"/>
<rect x="19" y="19" width="1" height="1" fill="#abab12" fill-opacity="0.929"/>
<rect x="20" y="19" width="1" height="1" fill="#a9a811" fill-opacity="0.976"/>
<rect x="21" y="19" width="1" height="1" fill="#a7a710" fill-opacity="0.98"/>
<rect x="22" y="19" width="1" height="1" fill="#b0b016" fill-opacity="0.788"/>
<rect x="23" y="19" width="1" height="1" fill="#bfbf1f" fill-opacity="0.106"/>
<rect x="5" y="20" width="1" height="1" fill="#a2a20d" fill-opacity="0.004"/>
<rect x="6" y="20" width="1" height="1" fill="#a2a20d" fill-opacity="0.004"/>
</svg>