<?xml version="1.0" encoding="UTF-8" standalone="no"?>
<svg xmlns="http://www.w3.org/2000/svg" width="26" height="21" shape-rendering="crispEdges">
<rect x="15" y="1" width="1" height="1" fill="#40ce10" fill-opacity="0.275"/>
<rect x="16" y="1" width="1" height="1" fill="#31a60a"/>
<rect x="17" y="1" width="1" height="1" fill="#31a60a"/>
<rect x="18" y="1" width="1" height="1" fill="#31a60a"/>
<rect x="19" y="1" width="1" height="1" fill="#31a60a"/>
<rect x="20" y="1" width="1" height="1" fill="#31a60a"/>
<rect x="21" y="1" width="1" height="1" fill="#31a60a"/>
<rect x="22" y="1" width="1" height="1" fill="#31a60a"/>
<rect x="23" y="1" width="1" height="1" fill="#31a70a"/>
<rect x="24" y="1" width="1" height="1" fill="#39bb0d" fill-opacity="0.902"/>
<rect x="15" y="2" width="1" height="1" fill="#40cf10" fill-opacity="0.271"/>
<rect x="16" y="2" width="1" height="1" fill="#35b10c"/>
<rect x="17" y="2" width="1" height="1" fill="#4ace1f"/>
<rect x="18" y="2" width="1" height="1" fill="#9afb7b"/>
<rect x="19" y="2" width="1" height="1" fill="#80f359"/>
<rect x="20" y="2" width="1" height="1" fill="#42c617"/>
<rect x="21" y="2" width="1" height="1" fill="#38ba0e"/>
<rect x="22" y="2" width="1" height="1" fill="#38bb0d"/>
<rect x="23" y="2" width="1" height="1" fill="#33ae0b"/>
<rect x="24" y="2" width="1" height="1" fill="#3abd0e" fill-opacity="0.851"/>
<rect x="15" y="3" width="1" height="1" fill="#5dcd38" fill-opacity="0.38"/>
<rect x="16" y="3" width="1" height="1" fill="#3fb717"/>
<rect x="17" y="3" width="1" height="1" fill="#70da4c"/>
<rect x="18" y="3" width="1" height="1" fill="#b5fb9c"/>
<rect x="19" y="3" width="1" height="1" fill="#97f677"/>
<rect x="20" y="3" width="1" height="1" fill="#63e438"/>
<rect x="21" y="3" width="1" height="1" fill="#41cb13"/>
<rect x="22" y="3" width="1" height="1" fill="#37b60d"/>
<rect x="23" y="3" width="1" height="1" fill="#34ae0c"/>
<rect x="24" y="3" width="1" height="1" fill="#3abf0e" fill-opacity="0.718"/>
<rect x="15" y="4" width="1" height="1" fill="#6bcb4b" fill-opacity="0.486"/>
<rect x="16" y="4" width="1" height="1" fill="#69bf4c"/>
<rect x="17" y="4" width="1" height="1" fill="#e3fcdb"/>
<rect x="18" y="4" width="1" height="1" fill="#c8fdb7"/>
<rect x="19" y="4" width="1" height="1" fill="#bbf7a7"/>
<rect x="20" y="4" width="1" height="1" fill="#b5f4a0"/>
<rect x="21" y="4" width="1" height="1" fill="#b0f19a"/>
<rect x="22" y="4" width="1" height="1" fill="#a3eb8b"/>
<rect x="23" y="4" width="1" height="1" fill="#4bb727"/>
<rect x="24" y="4" width="1" height="1" fill="#4bbd25" fill-opacity="0.749"/>
<rect x="15" y="5" width="1" height="1" fill="#3ec80f" fill-opacity="0.6"/>
<rect x="16" y="5" width="1" height="1" fill="#4cc225"/>
<rect x="17" y="5" width="1" height="1" fill="#c0ffab"/>
<rect x="18" y="5" width="1" height="1" fill="#ecffe6"/>
<rect x="19" y="5" width="1" height="1" fill="#f1ffec"/>
<rect x="20" y="5" width="1" height="1" fill="#eefee8"/>
<rect x="21" y="5" width="1" height="1" fill="#eafce4"/>
<rect x="22" y="5" width="1" height="1" fill="#effeea"/>
<rect x="23" y="5" width="1" height="1" fill="#59b939"/>
<rect x="24" y="5" width="1" height="1" fill="#59bf36" fill-opacity="0.71"/>
<rect x="14" y="6" width="1" height="1" fill="#98d284" fill-opacity="0.008"/>
<rect x="15" y="6" width="1" height="1" fill="#47ba21" fill-opacity="0.906"/>
<rect x="16" y="6" width="1" height="1" fill="#40c513"/>
<rect x="17" y="6" width="1" height="1" fill="#59fe22"/>
<rect x="18" y="6" width="1" height="1" fill="#88fd61"/>
<rect x="19" y="6" width="1" height="1" fill="#8ff76d"/>
<rect x="20" y="6" width="1" height="1" fill="#5bdd30"/>
<rect x="21" y="6" width="1" height="1" fill="#3cc111"/>
<rect x="22" y="6" width="1" height="1" fill="#38b90e"/>
<rect x="23" y="6" width="1" height="1" fill="#33ab0b" fill-opacity="0.988"/>
<rect x="24" y="6" width="1" height="1" fill="#32a90a" fill-opacity="0.133"/>
<rect x="14" y="7" width="1" height="1" fill="#3fcd10" fill-opacity="0.102"/>
<rect x="15" y="7" width="1" height="1" fill="#39ae12" fill-opacity="0.996"/>
<rect x="16" y="7" width="1" height="1" fill="#9bd986"/>
<rect x="17" y="7" width="1" height="1" fill="#cbfeb9"/>
<rect x="18" y="7" width="1" height="1" fill="#b1fd99"/>
<rect x="19" y="7" width="1" height="1" fill="#acfa92"/>
<rect x="20" y="7" width="1" height="1" fill="#8de570"/>
<rect x="21" y="7" width="1" height="1" fill="#5ec73b"/>
<rect x="22" y="7" width="1" height="1" fill="#40b01b"/>
<rect x="23" y="7" width="1" height="1" fill="#37aa10" fill-opacity="0.996"/>
<rect x="24" y="7" width="1" height="1" fill="#7ac661" fill-opacity="0.345"/>
<rect x="13" y="8" width="1" height="1" fill="#90d07a" fill-opacity="0.094"/>
<rect x="14" y="8" width="1" height="1" fill="#43b91c" fill-opacity="0.918"/>
<rect x="15" y="8" width="1" height="1" fill="#40ca13"/>
<rect x="16" y="8" width="1" height="1" fill="#9cf87c" fill-opacity="0.996"/>
<rect x="17" y="8" width="1" height="1" fill="#e8fddf"/>
<rect x="18" y="8" width="1" height="1" fill="#fffdfd"/>
<rect x="19" y="8" width="1" height="1" fill="#ffffff"/>
<rect x="20" y="8" width="1" height="1" fill="#fefffe"/>
<rect x="21" y="8" width="1" height="1" fill="#e9f6e5"/>
<rect x="22" y="8" width="1" height="1" fill="#b7e0a9"/>
<rect x="23" y="8" width="1" height="1" fill="#56b735"/>
<rect x="24" y="8" width="1" height="1" fill="#7dc765" fill-opacity="0.518"/>
<rect x="12" y="9" width="1" height="1" fill="#6ec451" fill-opacity="0.165"/>
<rect x="13" y="9" width="1" height="1" fill="#46b720" fill-opacity="0.941"/>
<rect x="14" y="9" width="1" height="1" fill="#6bc54d"/>
<rect x="15" y="9" width="1" height="1" fill="#94fa73"/>
<rect x="16" y="9" width="1" height="1" fill="#6dfe3d"/>
<rect x="17" y="9" width="1" height="1" fill="#84fd5c"/>
<rect x="18" y="9" width="1" height="1" fill="#89fa65"/>
<rect x="19" y="9" width="1" height="1" fill="#72e54c"/>
<rect x="20" y="9" width="1" height="1" fill="#5ad233"/>
<rect x="21" y="9" width="1" height="1" fill="#4cc525"/>
<rect x="22" y="9" width="1" height="1" fill="#4dc824"/>
<rect x="23" y="9" width="1" height="1" fill="#44bb1d" fill-opacity="0.992"/>
<rect x="24" y="9" width="1" height="1" fill="#69ca49" fill-opacity="0.475"/>
<rect x="10" y="10" width="1" height="1" fill="#90cf7a" fill-opacity="0.247"/>
<rect x="11" y="10" width="1" height="1" fill="#66c048" fill-opacity="0.788"/>
<rect x="12" y="10" width="1" height="1" fill="#3ab512" fill-opacity="0.969"/>
<rect x="13" y="10" width="1" height="1" fill="#48cb1c"/>
<rect x="14" y="10" width="1" height="1" fill="#ddfad4"/>
<rect x="15" y="10" width="1" height="1" fill="#ffffff"/>
<rect x="16" y="10" width="1" height="1" fill="#befea8"/>
<rect x="17" y="10" width="1" height="1" fill="#a0fb82"/>
<rect x="18" y="10" width="1" height="1" fill="#90f86d"/>
<rect x="19" y="10" width="1" height="1" fill="#94f475"/>
<rect x="20" y="10" width="1" height="1" fill="#56cf2e"/>
<rect x="21" y="10" width="1" height="1" fill="#3ab611"/>
<rect x="22" y="10" width="1" height="1" fill="#3bba11"/>
<rect x="23" y="10" width="1" height="1" fill="#3bbc11"/>
<rect x="24" y="10" width="1" height="1" fill="#49c61f" fill-opacity="0.525"/>
<rect x="8" y="11" width="1" height="1" fill="#98d284" fill-opacity="0.047"/>
<rect x="9" y="11" width="1" height="1" fill="#35b20c" fill-opacity="0.075"/>
<rect x="10" y="11" width="1" height="1" fill="#4ebc29" fill-opacity="0.871"/>
<rect x="11" y="11" width="1" height="1" fill="#5dbf3c"/>
<rect x="12" y="11" width="1" height="1" fill="#98d982"/>
<rect x="13" y="11" width="1" height="1" fill="#61fe2d"/>
<rect x="14" y="11" width="1" height="1" fill="#68fe37"/>
<rect x="15" y="11" width="1" height="1" fill="#effee8"/>
<rect x="16" y="11" width="1" height="1" fill="#fffefe"/>
<rect x="17" y="11" width="1" height="1" fill="#f7fef3"/>
<rect x="18" y="11" width="1" height="1" fill="#cafdb9"/>
<rect x="19" y="11" width="1" height="1" fill="#a8f58e"/>
<rect x="20" y="11" width="1" height="1" fill="#80d961"/>
<rect x="21" y="11" width="1" height="1" fill="#53c02f"/>
<rect x="22" y="11" width="1" height="1" fill="#46b821"/>
<rect x="23" y="11" width="1" height="1" fill="#4fba2c"/>
<rect x="24" y="11" width="1" height="1" fill="#4dbe28" fill-opacity="0.769"/>
<rect x="7" y="12" width="1" height="1" fill="#78c55f" fill-opacity="0.69"/>
<rect x="8" y="12" width="1" height="1" fill="#46b322" fill-opacity="0.98"/>
<rect x="9" y="12" width="1" height="1" fill="#38b50f" fill-opacity="0.969"/>
<rect x="10" y="12" width="1" height="1" fill="#3fc812"/>
<rect x="11" y="12" width="1" height="1" fill="#c2f7b1"/>
<rect x="12" y="12" width="1" height="1" fill="#ffffff"/>
<rect x="13" y="12" width="1" height="1" fill="#b3ff9a"/>
<rect x="14" y="12" width="1" height="1" fill="#57fe20"/>
<rect x="15" y="12" width="1" height="1" fill="#a2fe83"/>
<rect x="16" y="12" width="1" height="1" fill="#ffffff"/>
<rect x="17" y="12" width="1" height="1" fill="#ffffff"/>
<rect x="18" y="12" width="1" height="1" fill="#ffffff"/>
<rect x="19" y="12" width="1" height="1" fill="#fefffe"/>
<rect x="20" y="12" width="1" height="1" fill="#f8fcf6"/>
<rect x="21" y="12" width="1" height="1" fill="#e3f4dd"/>
<rect x="22" y="12" width="1" height="1" fill="#bde5b0"/>
<rect x="23" y="12" width="1" height="1" fill="#75c75b"/>
<rect x="24" y="12" width="1" height="1" fill="#46ba1f" fill-opacity="0.875"/>
<rect x="3" y="13" width="1" height="1" fill="#40cf10" fill-opacity="0.271"/>
<rect x="4" y="13" width="1" height="1" fill="#3ec910" fill-opacity="0.58"/>
<rect x="5" y="13" width="1" height="1" fill="#3cc40f" fill-opacity="0.682"/>
<rect x="6" y="13" width="1" height="1" fill="#39bc0d" fill-opacity="0.867"/>
<rect x="7" y="13" width="1" height="1" fill="#52be2d" fill-opacity="0.984"/>
<rect x="8" y="13" width="1" height="1" fill="#97d682"/>
<rect x="9" y="13" width="1" height="1" fill="#87e26a"/>
<rect x="10" y="13" width="1" height="1" fill="#4feb1b"/>
<rect x="11" y="13" width="1" height="1" fill="#8af866"/>
<rect x="12" y="13" width="1" height="1" fill="#f9fff7"/>
<rect x="13" y="13" width="1" height="1" fill="#efffea"/>
<rect x="14" y="13" width="1" height="1" fill="#8ffa6b"/>
<rect x="15" y="13" width="1" height="1" fill="#95fb73"/>
<rect x="16" y="13" width="1" height="1" fill="#f7fff4"/>
<rect x="17" y="13" width="1" height="1" fill="#ffffff"/>
<rect x="18" y="13" width="1" height="1" fill="#c4ffb1"/>
<rect x="19" y="13" width="1" height="1" fill="#69f938"/>
<rect x="20" y="13" width="1" height="1" fill="#67f637"/>
<rect x="21" y="13" width="1" height="1" fill="#54d927"/>
<rect x="22" y="13" width="1" height="1" fill="#48ca1e"/>
<rect x="23" y="13" width="1" height="1" fill="#40bd16"/>
<rect x="24" y="13" width="1" height="1" fill="#38b70e" fill-opacity="0.929"/>
<rect x="2" y="14" width="1" height="1" fill="#3cc40f" fill-opacity="0.71"/>
<rect x="3" y="14" width="1" height="1" fill="#35b20c" fill-opacity="0.992"/>
<rect x="4" y="14" width="1" height="1" fill="#3abe0e"/>
<rect x="5" y="14" width="1" height="1" fill="#3bc20f"/>
<rect x="6" y="14" width="1" height="1" fill="#3fcc11"/>
<rect x="7" y="14" width="1" height="1" fill="#64ed38"/>
<rect x="8" y="14" width="1" height="1" fill="#fefffe"/>
<rect x="9" y="14" width="1" height="1" fill="#edffe7"/>
<rect x="10" y="14" width="1" height="1" fill="#53e125"/>
<rect x="11" y="14" width="1" height="1" fill="#86f561"/>
<rect x="12" y="14" width="1" height="1" fill="#ebffe4"/>
<rect x="13" y="14" width="1" height="1" fill="#ffffff"/>
<rect x="14" y="14" width="1" height="1" fill="#88f067"/>
<rect x="15" y="14" width="1" height="1" fill="#9ff880"/>
<rect x="16" y="14" width="1" height="1" fill="#caffb9"/>
<rect x="17" y="14" width="1" height="1" fill="#ffffff"/>
<rect x="18" y="14" width="1" height="1" fill="#b0ff97"/>
<rect x="19" y="14" width="1" height="1" fill="#4bee15"/>
<rect x="20" y="14" width="1" height="1" fill="#47de16"/>
<rect x="21" y="14" width="1" height="1" fill="#41c216"/>
<rect x="22" y="14" width="1" height="1" fill="#3bb811"/>
<rect x="23" y="14" width="1" height="1" fill="#3ab910"/>
<rect x="24" y="14" width="1" height="1" fill="#38b70e" fill-opacity="0.961"/>
<rect x="25" y="14" width="1" height="1" fill="#35b20c" fill-opacity="0.012"/>
<rect x="1" y="15" width="1" height="1" fill="#3dc710" fill-opacity="0.545"/>
<rect x="2" y="15" width="1" height="1" fill="#39bb0e"/>
<rect x="3" y="15" width="1" height="1" fill="#41d012"/>
<rect x="4" y="15" width="1" height="1" fill="#45d815"/>
<rect x="5" y="15" width="1" height="1" fill="#54db27"/>
<rect x="6" y="15" width="1" height="1" fill="#64e738"/>
<rect x="7" y="15" width="1" height="1" fill="#6ef941"/>
<rect x="8" y="15" width="1" height="1" fill="#f4fff0"/>
<rect x="9" y="15" width="1" height="1" fill="#fbfefa"/>
<rect x="10" y="15" width="1" height="1" fill="#56d22d"/>
<rect x="11" y="15" width="1" height="1" fill="#52d627"/>
<rect x="12" y="15" width="1" height="1" fill="#c5feb4"/>
<rect x="13" y="15" width="1" height="1" fill="#fdfefc"/>
<rect x="14" y="15" width="1" height="1" fill="#60d43a"/>
<rect x="15" y="15" width="1" height="1" fill="#67dd40"/>
<rect x="16" y="15" width="1" height="1" fill="#76e551"/>
<rect x="17" y="15" width="1" height="1" fill="#fcfefb"/>
<rect x="18" y="15" width="1" height="1" fill="#a6f88b"/>
<rect x="19" y="15" width="1" height="1" fill="#44dc13"/>
<rect x="20" y="15" width="1" height="1" fill="#43da12"/>
<rect x="21" y="15" width="1" height="1" fill="#42c916"/>
<rect x="22" y="15" width="1" height="1" fill="#3cba12"/>
<rect x="23" y="15" width="1" height="1" fill="#3ab811"/>
<rect x="24" y="15" width="1" height="1" fill="#3ab910" fill-opacity="0.969"/>
<rect x="25" y="15" width="1" height="1" fill="#35b20c" fill-opacity="0.031"/>
<rect x="1" y="16" width="1" height="1" fill="#37b80d" fill-opacity="0.933"/>
<rect x="2" y="16" width="1" height="1" fill="#3cc40f"/>
<rect x="3" y="16" width="1" height="1" fill="#40cd12"/>
<rect x="4" y="16" width="1" height="1" fill="#49d91a"/>
<rect x="5" y="16" width="1" height="1" fill="#84f65f"/>
<rect x="6" y="16" width="1" height="1" fill="#84fa5f"/>
<rect x="7" y="16" width="1" height="1" fill="#69f33b"/>
<rect x="8" y="16" width="1" height="1" fill="#ccf8bf"/>
<rect x="9" y="16" width="1" height="1" fill="#ffffff"/>
<rect x="10" y="16" width="1" height="1" fill="#4cc125"/>
<rect x="11" y="16" width="1" height="1" fill="#3bba10"/>
<rect x="12" y="16" width="1" height="1" fill="#97ed7a"/>
<rect x="13" y="16" width="1" height="1" fill="#f9fdf7"/>
<rect x="14" y="16" width="1" height="1" fill="#55cd2d"/>
<rect x="15" y="16" width="1" height="1" fill="#42c418"/>
<rect x="16" y="16" width="1" height="1" fill="#46c01e"/>
<rect x="17" y="16" width="1" height="1" fill="#b7e4a8"/>
<rect x="18" y="16" width="1" height="1" fill="#a2f786"/>
<rect x="19" y="16" width="1" height="1" fill="#3fca11"/>
<rect x="20" y="16" width="1" height="1" fill="#40cd12"/>
<rect x="21" y="16" width="1" height="1" fill="#3ecb10"/>
<rect x="22" y="16" width="1" height="1" fill="#3dc510"/>
<rect x="23" y="16" width="1" height="1" fill="#3bbb11"/>
<rect x="24" y="16" width="1" height="1" fill="#39b90f" fill-opacity="0.976"/>
<rect x="25" y="16" width="1" height="1" fill="#35b20c" fill-opacity="0.012"/>
<rect x="1" y="17" width="1" height="1" fill="#3ac00e" fill-opacity="0.808"/>
<rect x="2" y="17" width="1" height="1" fill="#37b60d"/>
<rect x="3" y="17" width="1" height="1" fill="#39b70f"/>
<rect x="4" y="17" width="1" height="1" fill="#40ca12"/>
<rect x="5" y="17" width="1" height="1" fill="#55ec23"/>
<rect x="6" y="17" width="1" height="1" fill="#5bf12a"/>
<rect x="7" y="17" width="1" height="1" fill="#45d614"/>
<rect x="8" y="17" width="1" height="1" fill="#a9e994"/>
<rect x="9" y="17" width="1" height="1" fill="#ffffff"/>
<rect x="10" y="17" width="1" height="1" fill="#45be1d"/>
<rect x="11" y="17" width="1" height="1" fill="#39b80e"/>
<rect x="12" y="17" width="1" height="1" fill="#94eb77"/>
<rect x="13" y="17" width="1" height="1" fill="#cfedc6"/>
<rect x="14" y="17" width="1" height="1" fill="#41bc18"/>
<rect x="15" y="17" width="1" height="1" fill="#36b50c"/>
<rect x="16" y="17" width="1" height="1" fill="#38b510"/>
<rect x="17" y="17" width="1" height="1" fill="#65c645"/>
<rect x="18" y="17" width="1" height="1" fill="#9af27d"/>
<rect x="19" y="17" width="1" height="1" fill="#3fce10"/>
<rect x="20" y="17" width="1" height="1" fill="#3fcc10"/>
<rect x="21" y="17" width="1" height="1" fill="#3dc810"/>
<rect x="22" y="17" width="1" height="1" fill="#3cc50e"/>
<rect x="23" y="17" width="1" height="1" fill="#3bbe0f"/>
<rect x="24" y="17" width="1" height="1" fill="#37b60c" fill-opacity="0.957"/>
<rect x="1" y="18" width="1" height="1" fill="#41d211" fill-opacity="0.078"/>
<rect x="2" y="18" width="1" height="1" fill="#3abd0e" fill-opacity="0.906"/>
<rect x="3" y="18" width="1" height="1" fill="#36b30c"/>
<rect x="4" y="18" width="1" height="1" fill="#36b30e"/>
<rect x="5" y="18" width="1" height="1" fill="#38b80e"/>
<rect x="6" y="18" width="1" height="1" fill="#3abc0f"/>
<rect x="7" y="18" width="1" height="1" fill="#3bbf10"/>
<rect x="8" y="18" width="1" height="1" fill="#9edf88"/>
<rect x="9" y="18" width="1" height="1" fill="#b9e3ab"/>
<rect x="10" y="18" width="1" height="1" fill="#43bc1d"/>
<rect x="11" y="18" width="1" height="1" fill="#38ba0c"/>
<rect x="12" y="18" width="1" height="1" fill="#41ba19"/>
<rect x="13" y="18" width="1" height="1" fill="#37b50e"/>
<rect x="14" y="18" width="1" height="1" fill="#36b20c"/>
<rect x="15" y="18" width="1" height="1" fill="#35b30c"/>
<rect x="16" y="18" width="1" height="1" fill="#37b50e"/>
<rect x="17" y="18" width="1" height="1" fill="#38b60f"/>
<rect x="18" y="18" width="1" height="1" fill="#39b710"/>
<rect x="19" y="18" width="1" height="1" fill="#38bb0d"/>
<rect x="20" y="18" width="1" height="1" fill="#39be0d"/>
<rect x="21" y="18" width="1" height="1" fill="#3ac10e"/>
<rect x="22" y="18" width="1" height="1" fill="#39bd0e"/>
<rect x="23" y="18" width="1" height="1" fill="#37b80c" fill-opacity="0.996"/>
<rect x="24" y="18" width="1" height="1" fill="#39be0e" fill-opacity="0.365"/>
<rect x="3" y="19" width="1" height="1" fill="#3ec810" fill-opacity="0.553"/>
<rect x="4" y="19" width="1" height="1" fill="#39bb0e" fill-opacity="0.969"/>
<rect x="5" y="19" width="1" height="1" fill="#39b80e" fill-opacity="0.996"/>
<rect x="6" y="19" width="1" height="1" fill="#38b80e" fill-opacity="0.992"/>
<rect x="7" y="19" width="1" height="1" fill="#37b70c" fill-opacity="0.973"/>
<rect x="8" y="19" width="1" height="1" fill="#40b01c" fill-opacity="0.976"/>
<rect x="9" y="19" width="1" height="1" fill="#3eae1a" fill-opacity="0.988"/>
<rect x="10" y="19" width="1" height="1" fill="#40b519" fill-opacity="0.965"/>
<rect x="11" y="19" width="1" height="1" fill="#37b70d" fill-opacity="0.961"/>
<rect x="12" y="19" width="1" height="1" fill="#3bb811" fill-opacity="0.961"/>
<rect x="13" y="19" width="1" height="1" fill="#44ba1d" fill-opacity="0.902"/>
<rect x="14" y="19" width="1" height="1" fill="#4ac122" fill-opacity="0.631"/>
<rect x="15" y="19" width="1" height="1" fill="#3cc40e" fill-opacity="0.282"/>
<rect x="16" y="19" width="1" height="1" fill="#59c535" fill-opacity="0.478"/>
<rect x="17" y="19" width="1" height="1" fill="#4cbf25" fill-opacity="0.855"/>
<rect x="18" y="19" width="1" height="1" fill="#3fbb17" fill-opacity="0.894"/>
<rect x="19" y="19" width="1" height="1" fill="#36b60c" fill-opacity="0.949"/>
<rect x="20" y="19" width="1" height="1" fill="#37b80d" fill-opacity="0.945"/>
<rect x="21" y="19" width="1" height="1" fill="#38ba0d" fill-opacity="0.906"/>
<rect x="22" y="19" width="1" height="1" fill="#3cc50f" fill-opacity="0.565"/>
<rect x="23" y="19" width="1" height="1" fill="#40d011" fill-opacity="0.059"/>
<rect x="6" y="20" width="1" height="1" fill="#3eca10" fill-opacity="0.012"/>
<rect x="7" y="20" width="1" height="1" fill="#35b20c" fill-opacity="0.008"/>
<rect x="8" y="20" width="1" height="1" fill="#31a60a" fill-opacity="0.004"/>
<rect x="9" y="20" width="1" height="1" fill="#31a60a" fill-opacity="0.012"/>
</svg>