<?xml version="1.0" encoding="UTF-8" standalone="no"?>
<svg xmlns="http://www.w3.org/2000/svg" width="26" height="21" shape-rendering="crispEdges">
<rect x="15" y="1" width="1" height="1" fill="#1536cb" fill-opacity="0.275"/>
<rect x="16" y="1" width="1" height="1" fill="#1531a1"/>
<rect x="17" y="1" width="1" height="1" fill="#1531a1"/>
<rect x="18" y="1" width="1" height="1" fill="#1531a1"/>
<rect x="19" y="1" width="1" height="1" fill="#1531a1"/>
<rect x="20" y="1" width="1" height="1" fill="#1531a1"/>
<rect x="21" y="1" width="1" height="1" fill="#1531a1"/>
<rect x="22" y="1" width="1" height="1" fill="#1531a1"/>
<rect x="23" y="1" width="1" height="1" fill="#1531a1"/>
<rect x="24" y="1" width="1" height="1" fill="#1534b6" fill-opacity="0.898"/>
<rect x="15" y="2" width="1" height="1" fill="#1536cb" fill-opacity="0.271"/>
<rect x="16" y="2" width="1" height="1" fill="#1532ae"/>
<rect x="17" y="2" width="1" height="1" fill="#1a40fe"/>
<rect x="18" y="2" width="1" height="1" fill="#304ef2"/>
<rect x="19" y="2" width="1" height="1" fill="#1d3dd7"/>
<rect x="20" y="2" width="1" height="1" fill="#1535be"/>
<rect x="21" y="2" width="1" height="1" fill="#1534ba"/>
<rect x="22" y="2" width="1" height="1" fill="#1535bc"/>
<rect x="23" y="2" width="1" height="1" fill="#1335c2"/>
<rect x="24" y="2" width="1" height="1" fill="#1535bc" fill-opacity="0.816"/>
<rect x="15" y="3" width="1" height="1" fill="#4b5fca" fill-opacity="0.38"/>
<rect x="16" y="3" width="1" height="1" fill="#2841b4"/>
<rect x="17" y="3" width="1" height="1" fill="#3c59fb"/>
<rect x="18" y="3" width="1" height="1" fill="#4861f7"/>
<rect x="19" y="3" width="1" height="1" fill="#2544de"/>
<rect x="20" y="3" width="1" height="1" fill="#1534b9"/>
<rect x="21" y="3" width="1" height="1" fill="#1534b2"/>
<rect x="22" y="3" width="1" height="1" fill="#1534b0"/>
<rect x="23" y="3" width="1" height="1" fill="#1535b8"/>
<rect x="24" y="3" width="1" height="1" fill="#1535c4" fill-opacity="0.631"/>
<rect x="15" y="4" width="1" height="1" fill="#6171c7" fill-opacity="0.486"/>
<rect x="16" y="4" width="1" height="1" fill="#6673ba"/>
<rect x="17" y="4" width="1" height="1" fill="#f0f2ff"/>
<rect x="18" y="4" width="1" height="1" fill="#d0d6ff"/>
<rect x="19" y="4" width="1" height="1" fill="#c1c9ff"/>
<rect x="20" y="4" width="1" height="1" fill="#bcc4fb"/>
<rect x="21" y="4" width="1" height="1" fill="#b0b9f2"/>
<rect x="22" y="4" width="1" height="1" fill="#b3bcf3"/>
<rect x="23" y="4" width="1" height="1" fill="#6675c6"/>
<rect x="24" y="4" width="1" height="1" fill="#485cc2" fill-opacity="0.659"/>
<rect x="15" y="5" width="1" height="1" fill="#1536c5" fill-opacity="0.588"/>
<rect x="16" y="5" width="1" height="1" fill="#394fc1"/>
<rect x="17" y="5" width="1" height="1" fill="#b5beff"/>
<rect x="18" y="5" width="1" height="1" fill="#e9ecff"/>
<rect x="19" y="5" width="1" height="1" fill="#eff1ff"/>
<rect x="20" y="5" width="1" height="1" fill="#eff1ff"/>
<rect x="21" y="5" width="1" height="1" fill="#eff1ff"/>
<rect x="22" y="5" width="1" height="1" fill="#eff1ff"/>
<rect x="23" y="5" width="1" height="1" fill="#6e7bc1"/>
<rect x="24" y="5" width="1" height="1" fill="#5668c0" fill-opacity="0.667"/>
<rect x="14" y="6" width="1" height="1" fill="#9aa3cf" fill-opacity="0.008"/>
<rect x="15" y="6" width="1" height="1" fill="#374eb9" fill-opacity="0.882"/>
<rect x="16" y="6" width="1" height="1" fill="#1d3dd9"/>
<rect x="17" y="6" width="1" height="1" fill="#4962fb"/>
<rect x="18" y="6" width="1" height="1" fill="#5a70fb"/>
<rect x="19" y="6" width="1" height="1" fill="#133cfc"/>
<rect x="20" y="6" width="1" height="1" fill="#1337d7"/>
<rect x="21" y="6" width="1" height="1" fill="#1337d0"/>
<rect x="22" y="6" width="1" height="1" fill="#1339de"/>
<rect x="23" y="6" width="1" height="1" fill="#1532ad" fill-opacity="0.984"/>
<rect x="24" y="6" width="1" height="1" fill="#1532b0" fill-opacity="0.118"/>
<rect x="14" y="7" width="1" height="1" fill="#1536ca" fill-opacity="0.098"/>
<rect x="15" y="7" width="1" height="1" fill="#213ba9" fill-opacity="0.996"/>
<rect x="16" y="7" width="1" height="1" fill="#adb4de"/>
<rect x="17" y="7" width="1" height="1" fill="#afb8fc"/>
<rect x="18" y="7" width="1" height="1" fill="#919efb"/>
<rect x="19" y="7" width="1" height="1" fill="#a8b3fc"/>
<rect x="20" y="7" width="1" height="1" fill="#7484d6"/>
<rect x="21" y="7" width="1" height="1" fill="#5a6dc5"/>
<rect x="22" y="7" width="1" height="1" fill="#6676cc"/>
<rect x="23" y="7" width="1" height="1" fill="#2941ad" fill-opacity="0.992"/>
<rect x="24" y="7" width="1" height="1" fill="#7280c4" fill-opacity="0.361"/>
<rect x="13" y="8" width="1" height="1" fill="#8691c7" fill-opacity="0.106"/>
<rect x="14" y="8" width="1" height="1" fill="#2942b4" fill-opacity="0.925"/>
<rect x="15" y="8" width="1" height="1" fill="#1837bf"/>
<rect x="16" y="8" width="1" height="1" fill="#8a97f6" fill-opacity="0.996"/>
<rect x="17" y="8" width="1" height="1" fill="#e8e9fc"/>
<rect x="18" y="8" width="1" height="1" fill="#fffdfc"/>
<rect x="19" y="8" width="1" height="1" fill="#ffffff"/>
<rect x="20" y="8" width="1" height="1" fill="#ffffff"/>
<rect x="21" y="8" width="1" height="1" fill="#ffffff"/>
<rect x="22" y="8" width="1" height="1" fill="#ffffff"/>
<rect x="23" y="8" width="1" height="1" fill="#5162b6"/>
<rect x="24" y="8" width="1" height="1" fill="#7683c2" fill-opacity="0.537"/>
<rect x="12" y="9" width="1" height="1" fill="#6272bf" fill-opacity="0.18"/>
<rect x="13" y="9" width="1" height="1" fill="#2b42b2" fill-opacity="0.957"/>
<rect x="14" y="9" width="1" height="1" fill="#4a5cba"/>
<rect x="15" y="9" width="1" height="1" fill="#7686f1"/>
<rect x="16" y="9" width="1" height="1" fill="#576fff"/>
<rect x="17" y="9" width="1" height="1" fill="#667bff"/>
<rect x="18" y="9" width="1" height="1" fill="#5d73ff"/>
<rect x="19" y="9" width="1" height="1" fill="#6d81fb"/>
<rect x="20" y="9" width="1" height="1" fill="#5469dd"/>
<rect x="21" y="9" width="1" height="1" fill="#3f55c5"/>
<rect x="22" y="9" width="1" height="1" fill="#4b60d3"/>
<rect x="23" y="9" width="1" height="1" fill="#2d44b4" fill-opacity="0.992"/>
<rect x="24" y="9" width="1" height="1" fill="#5769c2" fill-opacity="0.506"/>
<rect x="10" y="10" width="1" height="1" fill="#7f8bc6" fill-opacity="0.282"/>
<rect x="11" y="10" width="1" height="1" fill="#4e60b8" fill-opacity="0.839"/>
<rect x="12" y="10" width="1" height="1" fill="#1a36af" fill-opacity="0.984"/>
<rect x="13" y="10" width="1" height="1" fill="#203cbc"/>
<rect x="14" y="10" width="1" height="1" fill="#d8ddf9"/>
<rect x="15" y="10" width="1" height="1" fill="#ffffff"/>
<rect x="16" y="10" width="1" height="1" fill="#cbd0fe"/>
<rect x="17" y="10" width="1" height="1" fill="#6c80ff"/>
<rect x="18" y="10" width="1" height="1" fill="#133bf9"/>
<rect x="19" y="10" width="1" height="1" fill="#1339e2"/>
<rect x="20" y="10" width="1" height="1" fill="#1534b5"/>
<rect x="21" y="10" width="1" height="1" fill="#1532a7"/>
<rect x="22" y="10" width="1" height="1" fill="#1532ae"/>
<rect x="23" y="10" width="1" height="1" fill="#1534b6"/>
<rect x="24" y="10" width="1" height="1" fill="#2d48c4" fill-opacity="0.522"/>
<rect x="8" y="11" width="1" height="1" fill="#848fc9" fill-opacity="0.059"/>
<rect x="9" y="11" width="1" height="1" fill="#1532ae" fill-opacity="0.208"/>
<rect x="10" y="11" width="1" height="1" fill="#354bb5" fill-opacity="0.898"/>
<rect x="11" y="11" width="1" height="1" fill="#3f53b6"/>
<rect x="12" y="11" width="1" height="1" fill="#7382ca"/>
<rect x="13" y="11" width="1" height="1" fill="#3251f9"/>
<rect x="14" y="11" width="1" height="1" fill="#5d73ff"/>
<rect x="15" y="11" width="1" height="1" fill="#edeffe"/>
<rect x="16" y="11" width="1" height="1" fill="#fffefe"/>
<rect x="17" y="11" width="1" height="1" fill="#fffefe"/>
<rect x="18" y="11" width="1" height="1" fill="#dee2fe"/>
<rect x="19" y="11" width="1" height="1" fill="#d4d9fc"/>
<rect x="20" y="11" width="1" height="1" fill="#c7cef6"/>
<rect x="21" y="11" width="1" height="1" fill="#b8c0ee"/>
<rect x="22" y="11" width="1" height="1" fill="#b7bfee"/>
<rect x="23" y="11" width="1" height="1" fill="#6675c1"/>
<rect x="24" y="11" width="1" height="1" fill="#4d61c1" fill-opacity="0.671"/>
<rect x="6" y="12" width="1" height="1" fill="#1532ae" fill-opacity="0.035"/>
<rect x="7" y="12" width="1" height="1" fill="#5e6ebb" fill-opacity="0.757"/>
<rect x="8" y="12" width="1" height="1" fill="#2d44ae" fill-opacity="0.984"/>
<rect x="9" y="12" width="1" height="1" fill="#1b37b0" fill-opacity="0.965"/>
<rect x="10" y="12" width="1" height="1" fill="#1a3aca"/>
<rect x="11" y="12" width="1" height="1" fill="#c6cdfb"/>
<rect x="12" y="12" width="1" height="1" fill="#ffffff"/>
<rect x="13" y="12" width="1" height="1" fill="#a7b2ff"/>
<rect x="14" y="12" width="1" height="1" fill="#7286ff"/>
<rect x="15" y="12" width="1" height="1" fill="#95a3ff"/>
<rect x="16" y="12" width="1" height="1" fill="#ffffff"/>
<rect x="17" y="12" width="1" height="1" fill="#ffffff"/>
<rect x="18" y="12" width="1" height="1" fill="#ffffff"/>
<rect x="19" y="12" width="1" height="1" fill="#ffffff"/>
<rect x="20" y="12" width="1" height="1" fill="#ffffff"/>
<rect x="21" y="12" width="1" height="1" fill="#ffffff"/>
<rect x="22" y="12" width="1" height="1" fill="#ffffff"/>
<rect x="23" y="12" width="1" height="1" fill="#98a1ce"/>
<rect x="24" y="12" width="1" height="1" fill="#4d60bf" fill-opacity="0.757"/>
<rect x="3" y="13" width="1" height="1" fill="#1536cb" fill-opacity="0.271"/>
<rect x="4" y="13" width="1" height="1" fill="#1536c5" fill-opacity="0.576"/>
<rect x="5" y="13" width="1" height="1" fill="#1535c2" fill-opacity="0.643"/>
<rect x="6" y="13" width="1" height="1" fill="#1535ba" fill-opacity="0.847"/>
<rect x="7" y="13" width="1" height="1" fill="#485abb" fill-opacity="0.984"/>
<rect x="8" y="13" width="1" height="1" fill="#b8bedf"/>
<rect x="9" y="13" width="1" height="1" fill="#8391e3"/>
<rect x="10" y="13" width="1" height="1" fill="#2f4fff"/>
<rect x="11" y="13" width="1" height="1" fill="#7789ff"/>
<rect x="12" y="13" width="1" height="1" fill="#fcfdff"/>
<rect x="13" y="13" width="1" height="1" fill="#eef0ff"/>
<rect x="14" y="13" width="1" height="1" fill="#2b4cff"/>
<rect x="15" y="13" width="1" height="1" fill="#3051ff"/>
<rect x="16" y="13" width="1" height="1" fill="#f6f7ff"/>
<rect x="17" y="13" width="1" height="1" fill="#ffffff"/>
<rect x="18" y="13" width="1" height="1" fill="#bcc5ff"/>
<rect x="19" y="13" width="1" height="1" fill="#4560fe"/>
<rect x="20" y="13" width="1" height="1" fill="#445ffa"/>
<rect x="21" y="13" width="1" height="1" fill="#405aee"/>
<rect x="22" y="13" width="1" height="1" fill="#3551da"/>
<rect x="23" y="13" width="1" height="1" fill="#2d49ca"/>
<rect x="24" y="13" width="1" height="1" fill="#1e3bbe" fill-opacity="0.792"/>
<rect x="2" y="14" width="1" height="1" fill="#1535c1" fill-opacity="0.702"/>
<rect x="3" y="14" width="1" height="1" fill="#1532ad" fill-opacity="0.992"/>
<rect x="4" y="14" width="1" height="1" fill="#1535c0"/>
<rect x="5" y="14" width="1" height="1" fill="#1536c6"/>
<rect x="6" y="14" width="1" height="1" fill="#1337d5"/>
<rect x="7" y="14" width="1" height="1" fill="#4a63f7"/>
<rect x="8" y="14" width="1" height="1" fill="#ffffff"/>
<rect x="9" y="14" width="1" height="1" fill="#ecefff"/>
<rect x="10" y="14" width="1" height="1" fill="#3453ff"/>
<rect x="11" y="14" width="1" height="1" fill="#536cff"/>
<rect x="12" y="14" width="1" height="1" fill="#eff0ff"/>
<rect x="13" y="14" width="1" height="1" fill="#ffffff"/>
<rect x="14" y="14" width="1" height="1" fill="#697eff"/>
<rect x="15" y="14" width="1" height="1" fill="#133aed"/>
<rect x="16" y="14" width="1" height="1" fill="#b2bbf2"/>
<rect x="17" y="14" width="1" height="1" fill="#ffffff"/>
<rect x="18" y="14" width="1" height="1" fill="#a5b0ff"/>
<rect x="19" y="14" width="1" height="1" fill="#183ff7"/>
<rect x="20" y="14" width="1" height="1" fill="#2c4bec"/>
<rect x="21" y="14" width="1" height="1" fill="#2c48d6"/>
<rect x="22" y="14" width="1" height="1" fill="#1a36b0"/>
<rect x="23" y="14" width="1" height="1" fill="#1736c0"/>
<rect x="24" y="14" width="1" height="1" fill="#1534b9" fill-opacity="0.875"/>
<rect x="1" y="15" width="1" height="1" fill="#1536c6" fill-opacity="0.514"/>
<rect x="2" y="15" width="1" height="1" fill="#1535bc"/>
<rect x="3" y="15" width="1" height="1" fill="#1339e2"/>
<rect x="4" y="15" width="1" height="1" fill="#3653e7"/>
<rect x="5" y="15" width="1" height="1" fill="#425cf5"/>
<rect x="6" y="15" width="1" height="1" fill="#1d43fe"/>
<rect x="7" y="15" width="1" height="1" fill="#3b58ff"/>
<rect x="8" y="15" width="1" height="1" fill="#f3f4fe"/>
<rect x="9" y="15" width="1" height="1" fill="#ffffff"/>
<rect x="10" y="15" width="1" height="1" fill="#6177f7"/>
<rect x="11" y="15" width="1" height="1" fill="#2042e8"/>
<rect x="12" y="15" width="1" height="1" fill="#acb6f9"/>
<rect x="13" y="15" width="1" height="1" fill="#ffffff"/>
<rect x="14" y="15" width="1" height="1" fill="#7b8dff"/>
<rect x="15" y="15" width="1" height="1" fill="#1534ba"/>
<rect x="16" y="15" width="1" height="1" fill="#576bd6"/>
<rect x="17" y="15" width="1" height="1" fill="#ffffff"/>
<rect x="18" y="15" width="1" height="1" fill="#acb6ff"/>
<rect x="19" y="15" width="1" height="1" fill="#2443d6"/>
<rect x="20" y="15" width="1" height="1" fill="#344fe3"/>
<rect x="21" y="15" width="1" height="1" fill="#2845d4"/>
<rect x="22" y="15" width="1" height="1" fill="#1b37b0"/>
<rect x="23" y="15" width="1" height="1" fill="#1535b9"/>
<rect x="24" y="15" width="1" height="1" fill="#1534b9" fill-opacity="0.875"/>
<rect x="1" y="16" width="1" height="1" fill="#1534b5" fill-opacity="0.918"/>
<rect x="2" y="16" width="1" height="1" fill="#1337d5"/>
<rect x="3" y="16" width="1" height="1" fill="#1535c0"/>
<rect x="4" y="16" width="1" height="1" fill="#2140d3"/>
<rect x="5" y="16" width="1" height="1" fill="#2545e2"/>
<rect x="6" y="16" width="1" height="1" fill="#153cf0"/>
<rect x="7" y="16" width="1" height="1" fill="#183ce5"/>
<rect x="8" y="16" width="1" height="1" fill="#d1d5f9"/>
<rect x="9" y="16" width="1" height="1" fill="#ffffff"/>
<rect x="10" y="16" width="1" height="1" fill="#8c99ea"/>
<rect x="11" y="16" width="1" height="1" fill="#1a39be"/>
<rect x="12" y="16" width="1" height="1" fill="#7d8dec"/>
<rect x="13" y="16" width="1" height="1" fill="#ffffff"/>
<rect x="14" y="16" width="1" height="1" fill="#7689ff"/>
<rect x="15" y="16" width="1" height="1" fill="#1534b3"/>
<rect x="16" y="16" width="1" height="1" fill="#5164d1"/>
<rect x="17" y="16" width="1" height="1" fill="#ffffff"/>
<rect x="18" y="16" width="1" height="1" fill="#abb6ff"/>
<rect x="19" y="16" width="1" height="1" fill="#1b39b6"/>
<rect x="20" y="16" width="1" height="1" fill="#2742c4"/>
<rect x="21" y="16" width="1" height="1" fill="#1e3ab8"/>
<rect x="22" y="16" width="1" height="1" fill="#1734ac"/>
<rect x="23" y="16" width="1" height="1" fill="#1534b4"/>
<rect x="24" y="16" width="1" height="1" fill="#1534b9" fill-opacity="0.875"/>
<rect x="1" y="17" width="1" height="1" fill="#1535bc" fill-opacity="0.784"/>
<rect x="2" y="17" width="1" height="1" fill="#1336c5"/>
<rect x="3" y="17" width="1" height="1" fill="#1532af"/>
<rect x="4" y="17" width="1" height="1" fill="#1532a8"/>
<rect x="5" y="17" width="1" height="1" fill="#1534b4"/>
<rect x="6" y="17" width="1" height="1" fill="#1535bf"/>
<rect x="7" y="17" width="1" height="1" fill="#1534b3"/>
<rect x="8" y="17" width="1" height="1" fill="#c3cbf6"/>
<rect x="9" y="17" width="1" height="1" fill="#ffffff"/>
<rect x="10" y="17" width="1" height="1" fill="#8e9be8"/>
<rect x="11" y="17" width="1" height="1" fill="#1532b0"/>
<rect x="12" y="17" width="1" height="1" fill="#7e8fee"/>
<rect x="13" y="17" width="1" height="1" fill="#fefeff"/>
<rect x="14" y="17" width="1" height="1" fill="#7689ff"/>
<rect x="15" y="17" width="1" height="1" fill="#1535bb"/>
<rect x="16" y="17" width="1" height="1" fill="#596edb"/>
<rect x="17" y="17" width="1" height="1" fill="#ffffff"/>
<rect x="18" y="17" width="1" height="1" fill="#aab6ff"/>
<rect x="19" y="17" width="1" height="1" fill="#1534b9"/>
<rect x="20" y="17" width="1" height="1" fill="#1534b2"/>
<rect x="21" y="17" width="1" height="1" fill="#1534b3"/>
<rect x="22" y="17" width="1" height="1" fill="#1534b5"/>
<rect x="23" y="17" width="1" height="1" fill="#1535bc"/>
<rect x="24" y="17" width="1" height="1" fill="#1535be" fill-opacity="0.784"/>
<rect x="1" y="18" width="1" height="1" fill="#1536cf" fill-opacity="0.078"/>
<rect x="2" y="18" width="1" height="1" fill="#1534b6" fill-opacity="0.871"/>
<rect x="3" y="18" width="1" height="1" fill="#1532ad"/>
<rect x="4" y="18" width="1" height="1" fill="#1532a8"/>
<rect x="5" y="18" width="1" height="1" fill="#1531a6"/>
<rect x="6" y="18" width="1" height="1" fill="#1532a9"/>
<rect x="7" y="18" width="1" height="1" fill="#1534b2"/>
<rect x="8" y="18" width="1" height="1" fill="#b5bce7"/>
<rect x="9" y="18" width="1" height="1" fill="#d1d6ea"/>
<rect x="10" y="18" width="1" height="1" fill="#7181d6"/>
<rect x="11" y="18" width="1" height="1" fill="#1535ba"/>
<rect x="12" y="18" width="1" height="1" fill="#374ebc"/>
<rect x="13" y="18" width="1" height="1" fill="#5263bc"/>
<rect x="14" y="18" width="1" height="1" fill="#2c44b6"/>
<rect x="15" y="18" width="1" height="1" fill="#1532a8" fill-opacity="0.992"/>
<rect x="16" y="18" width="1" height="1" fill="#2d45b0" fill-opacity="0.988"/>
<rect x="17" y="18" width="1" height="1" fill="#8893c9"/>
<rect x="18" y="18" width="1" height="1" fill="#4f62c4"/>
<rect x="19" y="18" width="1" height="1" fill="#1534ba"/>
<rect x="20" y="18" width="1" height="1" fill="#1534b2"/>
<rect x="21" y="18" width="1" height="1" fill="#1534b2"/>
<rect x="22" y="18" width="1" height="1" fill="#1534ae"/>
<rect x="23" y="18" width="1" height="1" fill="#1534b0" fill-opacity="0.949"/>
<rect x="24" y="18" width="1" height="1" fill="#1536cc" fill-opacity="0.192"/>
<rect x="2" y="19" width="1" height="1" fill="#1531a1" fill-opacity="0.004"/>
<rect x="3" y="19" width="1" height="1" fill="#1535c2" fill-opacity="0.451"/>
<rect x="4" y="19" width="1" height="1" fill="#1535be" fill-opacity="0.741"/>
<rect x="5" y="19" width="1" height="1" fill="#1534b2" fill-opacity="0.933"/>
<rect x="6" y="19" width="1" height="1" fill="#1534b2" fill-opacity="0.937"/>
<rect x="7" y="19" width="1" height="1" fill="#1534b3" fill-opacity="0.937"/>
<rect x="8" y="19" width="1" height="1" fill="#233cae" fill-opacity="0.988"/>
<rect x="9" y="19" width="1" height="1" fill="#203aad" fill-opacity="0.996"/>
<rect x="10" y="19" width="1" height="1" fill="#243db0" fill-opacity="0.973"/>
<rect x="11" y="19" width="1" height="1" fill="#1532b2" fill-opacity="0.969"/>
<rect x="12" y="19" width="1" height="1" fill="#1835b2" fill-opacity="0.984"/>
<rect x="13" y="19" width="1" height="1" fill="#1a36b2" fill-opacity="0.98"/>
<rect x="14" y="19" width="1" height="1" fill="#2540b6" fill-opacity="0.769"/>
<rect x="15" y="19" width="1" height="1" fill="#1534bc" fill-opacity="0.294"/>
<rect x="16" y="19" width="1" height="1" fill="#6071c5" fill-opacity="0.369"/>
<rect x="17" y="19" width="1" height="1" fill="#4458ba" fill-opacity="0.804"/>
<rect x="18" y="19" width="1" height="1" fill="#213cb3" fill-opacity="0.906"/>
<rect x="19" y="19" width="1" height="1" fill="#1534b4" fill-opacity="0.902"/>
<rect x="20" y="19" width="1" height="1" fill="#1534b8" fill-opacity="0.859"/>
<rect x="21" y="19" width="1" height="1" fill="#1534b8" fill-opacity="0.843"/>
<rect x="22" y="19" width="1" height="1" fill="#1536c6" fill-opacity="0.498"/>
<rect x="23" y="19" width="1" height="1" fill="#1536cf" fill-opacity="0.055"/>
</svg>