<?xml version="1.0" encoding="UTF-8" standalone="no"?>
<svg xmlns="http://www.w3.org/2000/svg" width="26" height="21" shape-rendering="crispEdges">
<rect x="12" y="1" width="1" height="1" fill="#b76c00" fill-opacity="0.008"/>
<rect x="13" y="1" width="1" height="1" fill="#a26200" fill-opacity="0.004"/>
<rect x="7" y="2" width="1" height="1" fill="#e77000" fill-opacity="0.047"/>
<rect x="8" y="2" width="1" height="1" fill="#e66d00" fill-opacity="0.671"/>
<rect x="9" y="2" width="1" height="1" fill="#e06201" fill-opacity="0.992"/>
<rect x="10" y="2" width="1" height="1" fill="#e95e02"/>
<rect x="11" y="2" width="1" height="1" fill="#ea5e02"/>
<rect x="12" y="2" width="1" height="1" fill="#dd6001"/>
<rect x="13" y="2" width="1" height="1" fill="#df6101" fill-opacity="0.922"/>
<rect x="14" y="2" width="1" height="1" fill="#e16400" fill-opacity="0.325"/>
<rect x="15" y="2" width="1" height="1" fill="#b76c00" fill-opacity="0.004"/>
<rect x="17" y="2" width="1" height="1" fill="#007309" fill-opacity="0.933"/>
<rect x="18" y="2" width="1" height="1" fill="#007309" fill-opacity="0.349"/>
<rect x="6" y="3" width="1" height="1" fill="#e56f00" fill-opacity="0.106"/>
<rect x="7" y="3" width="1" height="1" fill="#e27901" fill-opacity="0.922"/>
<rect x="8" y="3" width="1" height="1" fill="#e48002" fill-opacity="0.996"/>
<rect x="9" y="3" width="1" height="1" fill="#f18401"/>
<rect x="10" y="3" width="1" height="1" fill="#f18403"/>
<rect x="11" y="3" width="1" height="1" fill="#ef8f05"/>
<rect x="12" y="3" width="1" height="1" fill="#e68a02"/>
<rect x="13" y="3" width="1" height="1" fill="#e57c00"/>
<rect x="14" y="3" width="1" height="1" fill="#d76100"/>
<rect x="15" y="3" width="1" height="1" fill="#d85d00" fill-opacity="0.714"/>
<rect x="17" y="3" width="1" height="1" fill="#007309"/>
<rect x="18" y="3" width="1" height="1" fill="#00710a" fill-opacity="0.557"/>
<rect x="19" y="3" width="1" height="1" fill="#007309" fill-opacity="0.125"/>
<rect x="5" y="4" width="1" height="1" fill="#df7000" fill-opacity="0.059"/>
<rect x="6" y="4" width="1" height="1" fill="#dc7300" fill-opacity="0.878"/>
<rect x="7" y="4" width="1" height="1" fill="#e67e01" fill-opacity="0.996"/>
<rect x="8" y="4" width="1" height="1" fill="#ee9602"/>
<rect x="9" y="4" width="1" height="1" fill="#ffb009"/>
<rect x="10" y="4" width="1" height="1" fill="#ffaf0a"/>
<rect x="11" y="4" width="1" height="1" fill="#ffae08"/>
<rect x="12" y="4" width="1" height="1" fill="#ffa602"/>
<rect x="13" y="4" width="1" height="1" fill="#f9a002"/>
<rect x="14" y="4" width="1" height="1" fill="#ea8d02"/>
<rect x="15" y="4" width="1" height="1" fill="#d45e00" fill-opacity="0.984"/>
<rect x="16" y="4" width="1" height="1" fill="#df5a00" fill-opacity="0.514"/>
<rect x="17" y="4" width="1" height="1" fill="#007309"/>
<rect x="18" y="4" width="1" height="1" fill="#007309"/>
<rect x="19" y="4" width="1" height="1" fill="#007309"/>
<rect x="20" y="4" width="1" height="1" fill="#007309" fill-opacity="0.157"/>
<rect x="5" y="5" width="1" height="1" fill="#e06900" fill-opacity="0.855"/>
<rect x="6" y="5" width="1" height="1" fill="#e47103" fill-opacity="0.992"/>
<rect x="7" y="5" width="1" height="1" fill="#f29c0c"/>
<rect x="8" y="5" width="1" height="1" fill="#ffb415"/>
<rect x="9" y="5" width="1" height="1" fill="#ffb219"/>
<rect x="10" y="5" width="1" height="1" fill="#ffb814"/>
<rect x="11" y="5" width="1" height="1" fill="#ffb70e"/>
<rect x="12" y="5" width="1" height="1" fill="#ffb10a"/>
<rect x="13" y="5" width="1" height="1" fill="#ffab03"/>
<rect x="14" y="5" width="1" height="1" fill="#fc9f01"/>
<rect x="15" y="5" width="1" height="1" fill="#e67e01"/>
<rect x="16" y="5" width="1" height="1" fill="#d95f00"/>
<rect x="17" y="5" width="1" height="1" fill="#c26000" fill-opacity="0.075"/>
<rect x="3" y="6" width="1" height="1" fill="#e21500" fill-opacity="0.369"/>
<rect x="4" y="6" width="1" height="1" fill="#fc2300" fill-opacity="0.459"/>
<rect x="5" y="6" width="1" height="1" fill="#e05f01"/>
<rect x="6" y="6" width="1" height="1" fill="#ec8309"/>
<rect x="7" y="6" width="1" height="1" fill="#ffb321"/>
<rect x="8" y="6" width="1" height="1" fill="#ffb526"/>
<rect x="9" y="6" width="1" height="1" fill="#ffb721"/>
<rect x="10" y="6" width="1" height="1" fill="#ffb71e"/>
<rect x="11" y="6" width="1" height="1" fill="#ffbc12"/>
<rect x="12" y="6" width="1" height="1" fill="#ffb90c"/>
<rect x="13" y="6" width="1" height="1" fill="#ffad0c"/>
<rect x="14" y="6" width="1" height="1" fill="#ffa907"/>
<rect x="15" y="6" width="1" height="1" fill="#f89b05"/>
<rect x="16" y="6" width="1" height="1" fill="#e87401"/>
<rect x="17" y="6" width="1" height="1" fill="#d36701" fill-opacity="0.435"/>
<rect x="3" y="7" width="1" height="1" fill="#ec1500" fill-opacity="0.976"/>
<rect x="4" y="7" width="1" height="1" fill="#fd1e00"/>
<rect x="5" y="7" width="1" height="1" fill="#e95701"/>
<rect x="6" y="7" width="1" height="1" fill="#f29c10"/>
<rect x="7" y="7" width="1" height="1" fill="#ffb725"/>
<rect x="8" y="7" width="1" height="1" fill="#555453"/>
<rect x="9" y="7" width="1" height="1" fill="#777777"/>
<rect x="10" y="7" width="1" height="1" fill="#ffb620"/>
<rect x="11" y="7" width="1" height="1" fill="#ffbc15"/>
<rect x="12" y="7" width="1" height="1" fill="#ffb50c"/>
<rect x="13" y="7" width="1" height="1" fill="#ffb10a"/>
<rect x="14" y="7" width="1" height="1" fill="#ffae0d"/>
<rect x="15" y="7" width="1" height="1" fill="#fda001"/>
<rect x="16" y="7" width="1" height="1" fill="#f48e05"/>
<rect x="17" y="7" width="1" height="1" fill="#d16a00" fill-opacity="0.878"/>
<rect x="4" y="8" width="1" height="1" fill="#fe1d00" fill-opacity="0.953"/>
<rect x="5" y="8" width="1" height="1" fill="#db5700"/>
<rect x="6" y="8" width="1" height="1" fill="#f7a60e"/>
<rect x="7" y="8" width="1" height="1" fill="#ffba1e"/>
<rect x="8" y="8" width="1" height="1" fill="#4e4e4d"/>
<rect x="9" y="8" width="1" height="1" fill="#1c1c1d"/>
<rect x="10" y="8" width="1" height="1" fill="#ffb52e"/>
<rect x="11" y="8" width="1" height="1" fill="#ffb717"/>
<rect x="12" y="8" width="1" height="1" fill="#ffb50e"/>
<rect x="13" y="8" width="1" height="1" fill="#ffb70c"/>
<rect x="14" y="8" width="1" height="1" fill="#ffb00a"/>
<rect x="15" y="8" width="1" height="1" fill="#ffa608"/>
<rect x="16" y="8" width="1" height="1" fill="#fc9702"/>
<rect x="17" y="8" width="1" height="1" fill="#e97001" fill-opacity="0.988"/>
<rect x="18" y="8" width="1" height="1" fill="#d35e00" fill-opacity="0.373"/>
<rect x="4" y="9" width="1" height="1" fill="#fc6005" fill-opacity="0.086"/>
<rect x="5" y="9" width="1" height="1" fill="#e05a00"/>
<rect x="6" y="9" width="1" height="1" fill="#fbad0e"/>
<rect x="7" y="9" width="1" height="1" fill="#ffbe1e"/>
<rect x="8" y="9" width="1" height="1" fill="#ffb925"/>
<rect x="9" y="9" width="1" height="1" fill="#ffac26"/>
<rect x="10" y="9" width="1" height="1" fill="#f58a12"/>
<rect x="11" y="9" width="1" height="1" fill="#ff951c"/>
<rect x="12" y="9" width="1" height="1" fill="#ffac11"/>
<rect x="13" y="9" width="1" height="1" fill="#ffb70c"/>
<rect x="14" y="9" width="1" height="1" fill="#ffb20c"/>
<rect x="15" y="9" width="1" height="1" fill="#ffaa0e"/>
<rect x="16" y="9" width="1" height="1" fill="#fea301"/>
<rect x="17" y="9" width="1" height="1" fill="#f69103"/>
<rect x="18" y="9" width="1" height="1" fill="#df6801" fill-opacity="0.945"/>
<rect x="19" y="9" width="1" height="1" fill="#f14a00" fill-opacity="0.122"/>
<rect x="4" y="10" width="1" height="1" fill="#f15600" fill-opacity="0.098"/>
<rect x="5" y="10" width="1" height="1" fill="#e25700" fill-opacity="0.992"/>
<rect x="6" y="10" width="1" height="1" fill="#fcaa0a"/>
<rect x="7" y="10" width="1" height="1" fill="#ffbb13"/>
<rect x="8" y="10" width="1" height="1" fill="#ffb915"/>
<rect x="9" y="10" width="1" height="1" fill="#ffb416"/>
<rect x="10" y="10" width="1" height="1" fill="#ffb614"/>
<rect x="11" y="10" width="1" height="1" fill="#ffb00f"/>
<rect x="12" y="10" width="1" height="1" fill="#ffb40c"/>
<rect x="13" y="10" width="1" height="1" fill="#ffb40c"/>
<rect x="14" y="10" width="1" height="1" fill="#ffb00e"/>
<rect x="15" y="10" width="1" height="1" fill="#ffaa10"/>
<rect x="16" y="10" width="1" height="1" fill="#ffa808"/>
<rect x="17" y="10" width="1" height="1" fill="#f99e01"/>
<rect x="18" y="10" width="1" height="1" fill="#ef8702" fill-opacity="0.996"/>
<rect x="19" y="10" width="1" height="1" fill="#d46400" fill-opacity="0.918"/>
<rect x="20" y="10" width="1" height="1" fill="#eb5000" fill-opacity="0.227"/>
<rect x="4" y="11" width="1" height="1" fill="#f56100" fill-opacity="0.09"/>
<rect x="5" y="11" width="1" height="1" fill="#df5b00"/>
<rect x="6" y="11" width="1" height="1" fill="#faa807"/>
<rect x="7" y="11" width="1" height="1" fill="#ffba0e"/>
<rect x="8" y="11" width="1" height="1" fill="#ffb50c"/>
<rect x="9" y="11" width="1" height="1" fill="#ffb40a"/>
<rect x="10" y="11" width="1" height="1" fill="#ffb40a"/>
<rect x="11" y="11" width="1" height="1" fill="#ffb50c"/>
<rect x="12" y="11" width="1" height="1" fill="#ffad0a"/>
<rect x="13" y="11" width="1" height="1" fill="#ffb30a"/>
<rect x="14" y="11" width="1" height="1" fill="#ffaf0d"/>
<rect x="15" y="11" width="1" height="1" fill="#ffb010"/>
<rect x="16" y="11" width="1" height="1" fill="#ffa011"/>
<rect x="17" y="11" width="1" height="1" fill="#ffa002"/>
<rect x="18" y="11" width="1" height="1" fill="#f89e01"/>
<rect x="19" y="11" width="1" height="1" fill="#eb8e02"/>
<rect x="20" y="11" width="1" height="1" fill="#cf6100" fill-opacity="0.965"/>
<rect x="21" y="11" width="1" height="1" fill="#e15a00" fill-opacity="0.396"/>
<rect x="22" y="11" width="1" height="1" fill="#d96800" fill-opacity="0.012"/>
<rect x="4" y="12" width="1" height="1" fill="#f96300" fill-opacity="0.078"/>
<rect x="5" y="12" width="1" height="1" fill="#e05e00" fill-opacity="0.98"/>
<rect x="6" y="12" width="1" height="1" fill="#f19b05"/>
<rect x="7" y="12" width="1" height="1" fill="#ffb80d"/>
<rect x="8" y="12" width="1" height="1" fill="#ffb30e"/>
<rect x="9" y="12" width="1" height="1" fill="#ffb60c"/>
<rect x="10" y="12" width="1" height="1" fill="#ffb60c"/>
<rect x="11" y="12" width="1" height="1" fill="#ffaf0a"/>
<rect x="12" y="12" width="1" height="1" fill="#ed8f00"/>
<rect x="13" y="12" width="1" height="1" fill="#ffaf06"/>
<rect x="14" y="12" width="1" height="1" fill="#ffaf0d"/>
<rect x="15" y="12" width="1" height="1" fill="#ffb010"/>
<rect x="16" y="12" width="1" height="1" fill="#ffa60a"/>
<rect x="17" y="12" width="1" height="1" fill="#e28000"/>
<rect x="18" y="12" width="1" height="1" fill="#ffa903"/>
<rect x="19" y="12" width="1" height="1" fill="#f9a407"/>
<rect x="20" y="12" width="1" height="1" fill="#ee8e06"/>
<rect x="21" y="12" width="1" height="1" fill="#d46901" fill-opacity="0.996"/>
<rect x="22" y="12" width="1" height="1" fill="#d36400" fill-opacity="0.278"/>
<rect x="4" y="13" width="1" height="1" fill="#ff6b0d" fill-opacity="0.016"/>
<rect x="5" y="13" width="1" height="1" fill="#d35e00" fill-opacity="0.957"/>
<rect x="6" y="13" width="1" height="1" fill="#eb8902"/>
<rect x="7" y="13" width="1" height="1" fill="#ffb10a"/>
<rect x="8" y="13" width="1" height="1" fill="#ffaf11"/>
<rect x="9" y="13" width="1" height="1" fill="#ffaf0f"/>
<rect x="10" y="13" width="1" height="1" fill="#ffb60c"/>
<rect x="11" y="13" width="1" height="1" fill="#ffb10a"/>
<rect x="12" y="13" width="1" height="1" fill="#e68c00"/>
<rect x="13" y="13" width="1" height="1" fill="#d96a00"/>
<rect x="14" y="13" width="1" height="1" fill="#f99200"/>
<rect x="15" y="13" width="1" height="1" fill="#fea200"/>
<rect x="16" y="13" width="1" height="1" fill="#e48700"/>
<rect x="17" y="13" width="1" height="1" fill="#d56700"/>
<rect x="18" y="13" width="1" height="1" fill="#fea40d"/>
<rect x="19" y="13" width="1" height="1" fill="#fea602"/>
<rect x="20" y="13" width="1" height="1" fill="#ec8a06"/>
<rect x="21" y="13" width="1" height="1" fill="#db7201" fill-opacity="0.957"/>
<rect x="22" y="13" width="1" height="1" fill="#cc6900" fill-opacity="0.063"/>
<rect x="2" y="14" width="1" height="1" fill="#0033cf" fill-opacity="0.004"/>
<rect x="3" y="14" width="1" height="1" fill="#0033cf" fill-opacity="0.02"/>
<rect x="5" y="14" width="1" height="1" fill="#cf5f00" fill-opacity="0.878"/>
<rect x="6" y="14" width="1" height="1" fill="#ea7901"/>
<rect x="7" y="14" width="1" height="1" fill="#fba505"/>
<rect x="8" y="14" width="1" height="1" fill="#ffad10"/>
<rect x="9" y="14" width="1" height="1" fill="#ffb110"/>
<rect x="10" y="14" width="1" height="1" fill="#ffb60c"/>
<rect x="11" y="14" width="1" height="1" fill="#ffb20c"/>
<rect x="12" y="14" width="1" height="1" fill="#ffac14"/>
<rect x="13" y="14" width="1" height="1" fill="#e17b00"/>
<rect x="14" y="14" width="1" height="1" fill="#d95a00"/>
<rect x="15" y="14" width="1" height="1" fill="#e15400"/>
<rect x="16" y="14" width="1" height="1" fill="#e27000"/>
<rect x="17" y="14" width="1" height="1" fill="#ff9d11"/>
<rect x="18" y="14" width="1" height="1" fill="#ffa503"/>
<rect x="19" y="14" width="1" height="1" fill="#f09401"/>
<rect x="20" y="14" width="1" height="1" fill="#e76d05" fill-opacity="0.996"/>
<rect x="21" y="14" width="1" height="1" fill="#e36302" fill-opacity="0.416"/>
<rect x="5" y="15" width="1" height="1" fill="#c36000" fill-opacity="0.49"/>
<rect x="6" y="15" width="1" height="1" fill="#e76b00" fill-opacity="0.992"/>
<rect x="7" y="15" width="1" height="1" fill="#ef9b03"/>
<rect x="8" y="15" width="1" height="1" fill="#ffa909"/>
<rect x="9" y="15" width="1" height="1" fill="#ffad0f"/>
<rect x="10" y="15" width="1" height="1" fill="#ffaf0f"/>
<rect x="11" y="15" width="1" height="1" fill="#ffb30e"/>
<rect x="12" y="15" width="1" height="1" fill="#ffaf0a"/>
<rect x="13" y="15" width="1" height="1" fill="#ffaf0a"/>
<rect x="14" y="15" width="1" height="1" fill="#fda30d"/>
<rect x="15" y="15" width="1" height="1" fill="#fda610"/>
<rect x="16" y="15" width="1" height="1" fill="#ffae0f"/>
<rect x="17" y="15" width="1" height="1" fill="#ffa607"/>
<rect x="18" y="15" width="1" height="1" fill="#ed9401"/>
<rect x="19" y="15" width="1" height="1" fill="#e07302" fill-opacity="0.996"/>
<rect x="20" y="15" width="1" height="1" fill="#e96203" fill-opacity="0.682"/>
<rect x="21" y="15" width="1" height="1" fill="#ff6305" fill-opacity="0.012"/>
<rect x="5" y="16" width="1" height="1" fill="#a56100" fill-opacity="0.153"/>
<rect x="6" y="16" width="1" height="1" fill="#d95700" fill-opacity="0.949"/>
<rect x="7" y="16" width="1" height="1" fill="#ec8302"/>
<rect x="8" y="16" width="1" height="1" fill="#f79b05"/>
<rect x="9" y="16" width="1" height="1" fill="#ffa403"/>
<rect x="10" y="16" width="1" height="1" fill="#ffaa0d"/>
<rect x="11" y="16" width="1" height="1" fill="#ffb00e"/>
<rect x="12" y="16" width="1" height="1" fill="#ffaf0d"/>
<rect x="13" y="16" width="1" height="1" fill="#ffaf0d"/>
<rect x="14" y="16" width="1" height="1" fill="#ffb20c"/>
<rect x="15" y="16" width="1" height="1" fill="#ffaf0a"/>
<rect x="16" y="16" width="1" height="1" fill="#ffa708"/>
<rect x="17" y="16" width="1" height="1" fill="#f79903"/>
<rect x="18" y="16" width="1" height="1" fill="#ea7c06" fill-opacity="0.996"/>
<rect x="19" y="16" width="1" height="1" fill="#ee6303" fill-opacity="0.631"/>
<rect x="20" y="16" width="1" height="1" fill="#ff6305" fill-opacity="0.004"/>
<rect x="5" y="17" width="1" height="1" fill="#a26200" fill-opacity="0.02"/>
<rect x="6" y="17" width="1" height="1" fill="#b65e00" fill-opacity="0.494"/>
<rect x="7" y="17" width="1" height="1" fill="#d95700" fill-opacity="0.965"/>
<rect x="8" y="17" width="1" height="1" fill="#e78902"/>
<rect x="9" y="17" width="1" height="1" fill="#f69703"/>
<rect x="10" y="17" width="1" height="1" fill="#fb9f00"/>
<rect x="11" y="17" width="1" height="1" fill="#ffa60a"/>
<rect x="12" y="17" width="1" height="1" fill="#ffa90d"/>
<rect x="13" y="17" width="1" height="1" fill="#ffab0f"/>
<rect x="14" y="17" width="1" height="1" fill="#ffa80a"/>
<rect x="15" y="17" width="1" height="1" fill="#f79d02"/>
<rect x="16" y="17" width="1" height="1" fill="#f49905"/>
<rect x="17" y="17" width="1" height="1" fill="#dd7803"/>
<rect x="18" y="17" width="1" height="1" fill="#df6302" fill-opacity="0.545"/>
<rect x="6" y="18" width="1" height="1" fill="#a26200" fill-opacity="0.063"/>
<rect x="7" y="18" width="1" height="1" fill="#bb5b00" fill-opacity="0.557"/>
<rect x="8" y="18" width="1" height="1" fill="#e25500" fill-opacity="0.98"/>
<rect x="9" y="18" width="1" height="1" fill="#e98301"/>
<rect x="10" y="18" width="1" height="1" fill="#ed8c01"/>
<rect x="11" y="18" width="1" height="1" fill="#f59203"/>
<rect x="12" y="18" width="1" height="1" fill="#f79b02"/>
<rect x="13" y="18" width="1" height="1" fill="#ef9802"/>
<rect x="14" y="18" width="1" height="1" fill="#ed9502"/>
<rect x="15" y="18" width="1" height="1" fill="#ea9105"/>
<rect x="16" y="18" width="1" height="1" fill="#dd6c03" fill-opacity="0.969"/>
<rect x="17" y="18" width="1" height="1" fill="#e36102" fill-opacity="0.561"/>
<rect x="18" y="18" width="1" height="1" fill="#ff6305" fill-opacity="0.008"/>
<rect x="7" y="19" width="1" height="1" fill="#a26200" fill-opacity="0.071"/>
<rect x="8" y="19" width="1" height="1" fill="#c35d00" fill-opacity="0.341"/>
<rect x="9" y="19" width="1" height="1" fill="#d16800" fill-opacity="0.8"/>
<rect x="10" y="19" width="1" height="1" fill="#d96701" fill-opacity="0.984"/>
<rect x="11" y="19" width="1" height="1" fill="#df6702"/>
<rect x="12" y="19" width="1" height="1" fill="#e96802" fill-opacity="0.992"/>
<rect x="13" y="19" width="1" height="1" fill="#e76a02" fill-opacity="0.988"/>
<rect x="14" y="19" width="1" height="1" fill="#db6102" fill-opacity="0.945"/>
<rect x="15" y="19" width="1" height="1" fill="#ba5e00" fill-opacity="0.494"/>
<rect x="16" y="19" width="1" height="1" fill="#ba5e00" fill-opacity="0.071"/>
<rect x="9" y="20" width="1" height="1" fill="#ff6305" fill-opacity="0.008"/>
<rect x="10" y="20" width="1" height="1" fill="#fc6305" fill-opacity="0.125"/>
<rect x="11" y="20" width="1" height="1" fill="#d76302" fill-opacity="0.122"/>
<rect x="12" y="20" width="1" height="1" fill="#a26200" fill-opacity="0.059"/>
<rect x="13" y="20" width="1" height="1" fill="#a26200" fill-opacity="0.102"/>
<rect x="14" y="20" width="1" height="1" fill="#a26200" fill-opacity="0.09"/>
<rect x="15" y="20" width="1" height="1" fill="#ae6400" fill-opacity="0.012"/>
</svg>