<?xml version="1.0" encoding="UTF-8" standalone="no"?>
<svg xmlns="http://www.w3.org/2000/svg" width="26" height="21" shape-rendering="crispEdges">
<rect x="15" y="1" width="1" height="1" fill="#090987" fill-opacity="0.275"/>
<rect x="16" y="1" width="1" height="1" fill="#0d0d66"/>
<rect x="17" y="1" width="1" height="1" fill="#0d0d66"/>
<rect x="18" y="1" width="1" height="1" fill="#0d0d66"/>
<rect x="19" y="1" width="1" height="1" fill="#0d0d66"/>
<rect x="20" y="1" width="1" height="1" fill="#0d0d68"/>
<rect x="21" y="1" width="1" height="1" fill="#0e0e69"/>
<rect x="22" y="1" width="1" height="1" fill="#0e0e68"/>
<rect x="23" y="1" width="1" height="1" fill="#0d0d67"/>
<rect x="24" y="1" width="1" height="1" fill="#0b0b77" fill-opacity="0.902"/>
<rect x="15" y="2" width="1" height="1" fill="#090987" fill-opacity="0.271"/>
<rect x="16" y="2" width="1" height="1" fill="#0c0c70"/>
<rect x="17" y="2" width="1" height="1" fill="#1010b0"/>
<rect x="18" y="2" width="1" height="1" fill="#2929b9"/>
<rect x="19" y="2" width="1" height="1" fill="#0808a5"/>
<rect x="20" y="2" width="1" height="1" fill="#141488"/>
<rect x="21" y="2" width="1" height="1" fill="#151586"/>
<rect x="22" y="2" width="1" height="1" fill="#151586"/>
<rect x="23" y="2" width="1" height="1" fill="#121288"/>
<rect x="24" y="2" width="1" height="1" fill="#0b0b7c" fill-opacity="0.808"/>
<rect x="15" y="3" width="1" height="1" fill="#343494" fill-opacity="0.38"/>
<rect x="16" y="3" width="1" height="1" fill="#181879"/>
<rect x="17" y="3" width="1" height="1" fill="#4e4ec4"/>
<rect x="18" y="3" width="1" height="1" fill="#6464cc"/>
<rect x="19" y="3" width="1" height="1" fill="#0808a5"/>
<rect x="20" y="3" width="1" height="1" fill="#141489"/>
<rect x="21" y="3" width="1" height="1" fill="#151586"/>
<rect x="22" y="3" width="1" height="1" fill="#151586"/>
<rect x="23" y="3" width="1" height="1" fill="#121284"/>
<rect x="24" y="3" width="1" height="1" fill="#0a0a82" fill-opacity="0.596"/>
<rect x="15" y="4" width="1" height="1" fill="#4a4a99" fill-opacity="0.486"/>
<rect x="16" y="4" width="1" height="1" fill="#4f4f90"/>
<rect x="17" y="4" width="1" height="1" fill="#ebebf9"/>
<rect x="18" y="4" width="1" height="1" fill="#c3c3eb"/>
<rect x="19" y="4" width="1" height="1" fill="#b2b2e6"/>
<rect x="20" y="4" width="1" height="1" fill="#b2b2e6"/>
<rect x="21" y="4" width="1" height="1" fill="#a0a0db"/>
<rect x="22" y="4" width="1" height="1" fill="#a0a0db"/>
<rect x="23" y="4" width="1" height="1" fill="#4f4f9a"/>
<rect x="24" y="4" width="1" height="1" fill="#32328d" fill-opacity="0.651"/>
<rect x="15" y="5" width="1" height="1" fill="#0a0a82" fill-opacity="0.588"/>
<rect x="16" y="5" width="1" height="1" fill="#252588"/>
<rect x="17" y="5" width="1" height="1" fill="#a4a4e1"/>
<rect x="18" y="5" width="1" height="1" fill="#e6e6f7"/>
<rect x="19" y="5" width="1" height="1" fill="#eaeaf8"/>
<rect x="20" y="5" width="1" height="1" fill="#eaeaf8"/>
<rect x="21" y="5" width="1" height="1" fill="#eaeaf8"/>
<rect x="22" y="5" width="1" height="1" fill="#eaeaf8"/>
<rect x="23" y="5" width="1" height="1" fill="#6767a1"/>
<rect x="24" y="5" width="1" height="1" fill="#454594" fill-opacity="0.643"/>
<rect x="14" y="6" width="1" height="1" fill="#8686b2" fill-opacity="0.008"/>
<rect x="15" y="6" width="1" height="1" fill="#252581" fill-opacity="0.882"/>
<rect x="16" y="6" width="1" height="1" fill="#0e0e96"/>
<rect x="17" y="6" width="1" height="1" fill="#0505ad"/>
<rect x="18" y="6" width="1" height="1" fill="#0505ad"/>
<rect x="19" y="6" width="1" height="1" fill="#0505ad"/>
<rect x="20" y="6" width="1" height="1" fill="#0b0b9e"/>
<rect x="21" y="6" width="1" height="1" fill="#12128e"/>
<rect x="22" y="6" width="1" height="1" fill="#11118e"/>
<rect x="23" y="6" width="1" height="1" fill="#0e0e75" fill-opacity="0.98"/>
<rect x="24" y="6" width="1" height="1" fill="#090989" fill-opacity="0.008"/>
<rect x="14" y="7" width="1" height="1" fill="#090988" fill-opacity="0.09"/>
<rect x="15" y="7" width="1" height="1" fill="#19196f" fill-opacity="0.996"/>
<rect x="16" y="7" width="1" height="1" fill="#e2e1f0"/>
<rect x="17" y="7" width="1" height="1" fill="#b5b5e6"/>
<rect x="18" y="7" width="1" height="1" fill="#9897dd"/>
<rect x="19" y="7" width="1" height="1" fill="#9595dc"/>
<rect x="20" y="7" width="1" height="1" fill="#8484d1"/>
<rect x="21" y="7" width="1" height="1" fill="#5959b4"/>
<rect x="22" y="7" width="1" height="1" fill="#5252af"/>
<rect x="23" y="7" width="1" height="1" fill="#20207b" fill-opacity="0.992"/>
<rect x="24" y="7" width="1" height="1" fill="#7878ab" fill-opacity="0.294"/>
<rect x="13" y="8" width="1" height="1" fill="#8181af" fill-opacity="0.09"/>
<rect x="14" y="8" width="1" height="1" fill="#282883" fill-opacity="0.863"/>
<rect x="15" y="8" width="1" height="1" fill="#0e0e94"/>
<rect x="16" y="8" width="1" height="1" fill="#7c7ad2" fill-opacity="0.996"/>
<rect x="17" y="8" width="1" height="1" fill="#e1dff3"/>
<rect x="18" y="8" width="1" height="1" fill="#fffdfd"/>
<rect x="19" y="8" width="1" height="1" fill="#ffffff"/>
<rect x="20" y="8" width="1" height="1" fill="#ffffff"/>
<rect x="21" y="8" width="1" height="1" fill="#ffffff"/>
<rect x="22" y="8" width="1" height="1" fill="#ffffff"/>
<rect x="23" y="8" width="1" height="1" fill="#515191"/>
<rect x="24" y="8" width="1" height="1" fill="#7373a6" fill-opacity="0.486"/>
<rect x="12" y="9" width="1" height="1" fill="#8282b0" fill-opacity="0.106"/>
<rect x="13" y="9" width="1" height="1" fill="#373787" fill-opacity="0.882"/>
<rect x="14" y="9" width="1" height="1" fill="#a4a4c5"/>
<rect x="15" y="9" width="1" height="1" fill="#6d6dcf"/>
<rect x="16" y="9" width="1" height="1" fill="#0d0db0"/>
<rect x="17" y="9" width="1" height="1" fill="#3232bc"/>
<rect x="18" y="9" width="1" height="1" fill="#4343c1"/>
<rect x="19" y="9" width="1" height="1" fill="#5454c7"/>
<rect x="20" y="9" width="1" height="1" fill="#4c4cbe"/>
<rect x="21" y="9" width="1" height="1" fill="#3535a6"/>
<rect x="22" y="9" width="1" height="1" fill="#2f2fa0"/>
<rect x="23" y="9" width="1" height="1" fill="#222281" fill-opacity="0.992"/>
<rect x="24" y="9" width="1" height="1" fill="#4e4e9b" fill-opacity="0.451"/>
<rect x="10" y="10" width="1" height="1" fill="#7c7cac" fill-opacity="0.247"/>
<rect x="11" y="10" width="1" height="1" fill="#595997" fill-opacity="0.749"/>
<rect x="12" y="10" width="1" height="1" fill="#191979" fill-opacity="0.933"/>
<rect x="13" y="10" width="1" height="1" fill="#21219d"/>
<rect x="14" y="10" width="1" height="1" fill="#dfdff4"/>
<rect x="15" y="10" width="1" height="1" fill="#ffffff"/>
<rect x="16" y="10" width="1" height="1" fill="#b8b8e7"/>
<rect x="17" y="10" width="1" height="1" fill="#5d5cca"/>
<rect x="18" y="10" width="1" height="1" fill="#0707ae"/>
<rect x="19" y="10" width="1" height="1" fill="#0505ad"/>
<rect x="20" y="10" width="1" height="1" fill="#101092"/>
<rect x="21" y="10" width="1" height="1" fill="#151587"/>
<rect x="22" y="10" width="1" height="1" fill="#141488"/>
<rect x="23" y="10" width="1" height="1" fill="#0f0f7e"/>
<rect x="24" y="10" width="1" height="1" fill="#1f1f8b" fill-opacity="0.475"/>
<rect x="8" y="11" width="1" height="1" fill="#8686b2" fill-opacity="0.047"/>
<rect x="10" y="11" width="1" height="1" fill="#3e3e8d" fill-opacity="0.8"/>
<rect x="11" y="11" width="1" height="1" fill="#8686b2"/>
<rect x="12" y="11" width="1" height="1" fill="#afafd2"/>
<rect x="13" y="11" width="1" height="1" fill="#1c1cb4"/>
<rect x="14" y="11" width="1" height="1" fill="#4343c1"/>
<rect x="15" y="11" width="1" height="1" fill="#e6e6f6"/>
<rect x="16" y="11" width="1" height="1" fill="#fffefe"/>
<rect x="17" y="11" width="1" height="1" fill="#fffefe"/>
<rect x="18" y="11" width="1" height="1" fill="#d8d8f2"/>
<rect x="19" y="11" width="1" height="1" fill="#ceceef"/>
<rect x="20" y="11" width="1" height="1" fill="#bbbbe5"/>
<rect x="21" y="11" width="1" height="1" fill="#b3b3e1"/>
<rect x="22" y="11" width="1" height="1" fill="#bcbce6"/>
<rect x="23" y="11" width="1" height="1" fill="#59599d"/>
<rect x="24" y="11" width="1" height="1" fill="#3b3b90" fill-opacity="0.651"/>
<rect x="7" y="12" width="1" height="1" fill="#64649d" fill-opacity="0.682"/>
<rect x="8" y="12" width="1" height="1" fill="#2e2e7b" fill-opacity="0.973"/>
<rect x="9" y="12" width="1" height="1" fill="#131378" fill-opacity="0.929"/>
<rect x="10" y="12" width="1" height="1" fill="#0e0e8f"/>
<rect x="11" y="12" width="1" height="1" fill="#bfbfea"/>
<rect x="12" y="12" width="1" height="1" fill="#ffffff"/>
<rect x="13" y="12" width="1" height="1" fill="#9191db"/>
<rect x="14" y="12" width="1" height="1" fill="#4747c3"/>
<rect x="15" y="12" width="1" height="1" fill="#7979d3"/>
<rect x="16" y="12" width="1" height="1" fill="#ffffff"/>
<rect x="17" y="12" width="1" height="1" fill="#ffffff"/>
<rect x="18" y="12" width="1" height="1" fill="#ffffff"/>
<rect x="19" y="12" width="1" height="1" fill="#ffffff"/>
<rect x="20" y="12" width="1" height="1" fill="#ffffff"/>
<rect x="21" y="12" width="1" height="1" fill="#ffffff"/>
<rect x="22" y="12" width="1" height="1" fill="#ffffff"/>
<rect x="23" y="12" width="1" height="1" fill="#8686b3"/>
<rect x="24" y="12" width="1" height="1" fill="#38388d" fill-opacity="0.753"/>
<rect x="3" y="13" width="1" height="1" fill="#090987" fill-opacity="0.271"/>
<rect x="4" y="13" width="1" height="1" fill="#0a0a82" fill-opacity="0.576"/>
<rect x="5" y="13" width="1" height="1" fill="#0a0a80" fill-opacity="0.647"/>
<rect x="6" y="13" width="1" height="1" fill="#0b0b7e" fill-opacity="0.839"/>
<rect x="7" y="13" width="1" height="1" fill="#404099" fill-opacity="0.976"/>
<rect x="8" y="13" width="1" height="1" fill="#d6d6e5"/>
<rect x="9" y="13" width="1" height="1" fill="#6f6fbc"/>
<rect x="10" y="13" width="1" height="1" fill="#1616b3"/>
<rect x="11" y="13" width="1" height="1" fill="#6565cd"/>
<rect x="12" y="13" width="1" height="1" fill="#fbfbfe"/>
<rect x="13" y="13" width="1" height="1" fill="#e8e8f8"/>
<rect x="14" y="13" width="1" height="1" fill="#1919b3"/>
<rect x="15" y="13" width="1" height="1" fill="#1a1ab4"/>
<rect x="16" y="13" width="1" height="1" fill="#f3f3fb"/>
<rect x="17" y="13" width="1" height="1" fill="#ffffff"/>
<rect x="18" y="13" width="1" height="1" fill="#ababe3"/>
<rect x="19" y="13" width="1" height="1" fill="#2b2bba"/>
<rect x="20" y="13" width="1" height="1" fill="#2c2cb9"/>
<rect x="21" y="13" width="1" height="1" fill="#2d2dba"/>
<rect x="22" y="13" width="1" height="1" fill="#2c2cb7"/>
<rect x="23" y="13" width="1" height="1" fill="#1e1e94"/>
<rect x="24" y="13" width="1" height="1" fill="#11117e" fill-opacity="0.804"/>
<rect x="2" y="14" width="1" height="1" fill="#0a0a7f" fill-opacity="0.702"/>
<rect x="3" y="14" width="1" height="1" fill="#0c0c70" fill-opacity="0.992"/>
<rect x="4" y="14" width="1" height="1" fill="#0a0a81"/>
<rect x="5" y="14" width="1" height="1" fill="#090989"/>
<rect x="6" y="14" width="1" height="1" fill="#080891"/>
<rect x="7" y="14" width="1" height="1" fill="#1f1fa6"/>
<rect x="8" y="14" width="1" height="1" fill="#fefeff"/>
<rect x="9" y="14" width="1" height="1" fill="#e6e6f7"/>
<rect x="10" y="14" width="1" height="1" fill="#1e1eb5"/>
<rect x="11" y="14" width="1" height="1" fill="#5a5ac9"/>
<rect x="12" y="14" width="1" height="1" fill="#e4e4f6"/>
<rect x="13" y="14" width="1" height="1" fill="#ffffff"/>
<rect x="14" y="14" width="1" height="1" fill="#4e4ec5"/>
<rect x="15" y="14" width="1" height="1" fill="#0707a9"/>
<rect x="16" y="14" width="1" height="1" fill="#aaaae0"/>
<rect x="17" y="14" width="1" height="1" fill="#ffffff"/>
<rect x="18" y="14" width="1" height="1" fill="#8f8fda"/>
<rect x="19" y="14" width="1" height="1" fill="#0606a3"/>
<rect x="20" y="14" width="1" height="1" fill="#09098f"/>
<rect x="21" y="14" width="1" height="1" fill="#0808a7"/>
<rect x="22" y="14" width="1" height="1" fill="#0f0f6f"/>
<rect x="23" y="14" width="1" height="1" fill="#0e0e6e"/>
<rect x="24" y="14" width="1" height="1" fill="#0b0b77" fill-opacity="0.89"/>
<rect x="1" y="15" width="1" height="1" fill="#0a0a83" fill-opacity="0.514"/>
<rect x="2" y="15" width="1" height="1" fill="#0a0a80"/>
<rect x="3" y="15" width="1" height="1" fill="#070796"/>
<rect x="4" y="15" width="1" height="1" fill="#0606a5"/>
<rect x="5" y="15" width="1" height="1" fill="#0a0a9e"/>
<rect x="6" y="15" width="1" height="1" fill="#4848b8"/>
<rect x="7" y="15" width="1" height="1" fill="#2020af"/>
<rect x="8" y="15" width="1" height="1" fill="#ececf8"/>
<rect x="9" y="15" width="1" height="1" fill="#ffffff"/>
<rect x="10" y="15" width="1" height="1" fill="#4a4ac1"/>
<rect x="11" y="15" width="1" height="1" fill="#1c1cac"/>
<rect x="12" y="15" width="1" height="1" fill="#a5a5de"/>
<rect x="13" y="15" width="1" height="1" fill="#ffffff"/>
<rect x="14" y="15" width="1" height="1" fill="#6060cb"/>
<rect x="15" y="15" width="1" height="1" fill="#0f0f8c"/>
<rect x="16" y="15" width="1" height="1" fill="#2e2e9a"/>
<rect x="17" y="15" width="1" height="1" fill="#ffffff"/>
<rect x="18" y="15" width="1" height="1" fill="#9797dd"/>
<rect x="19" y="15" width="1" height="1" fill="#090997"/>
<rect x="20" y="15" width="1" height="1" fill="#12127e"/>
<rect x="21" y="15" width="1" height="1" fill="#161687"/>
<rect x="22" y="15" width="1" height="1" fill="#0e0e69"/>
<rect x="23" y="15" width="1" height="1" fill="#0d0d6d"/>
<rect x="24" y="15" width="1" height="1" fill="#0b0b78" fill-opacity="0.89"/>
<rect x="1" y="16" width="1" height="1" fill="#0b0b78" fill-opacity="0.922"/>
<rect x="2" y="16" width="1" height="1" fill="#080892"/>
<rect x="3" y="16" width="1" height="1" fill="#08088d"/>
<rect x="4" y="16" width="1" height="1" fill="#07079d"/>
<rect x="5" y="16" width="1" height="1" fill="#09099b"/>
<rect x="6" y="16" width="1" height="1" fill="#11119b"/>
<rect x="7" y="16" width="1" height="1" fill="#08089a"/>
<rect x="8" y="16" width="1" height="1" fill="#bebee8"/>
<rect x="9" y="16" width="1" height="1" fill="#ffffff"/>
<rect x="10" y="16" width="1" height="1" fill="#8181d0"/>
<rect x="11" y="16" width="1" height="1" fill="#141489"/>
<rect x="12" y="16" width="1" height="1" fill="#38389d"/>
<rect x="13" y="16" width="1" height="1" fill="#ffffff"/>
<rect x="14" y="16" width="1" height="1" fill="#5b5bc9"/>
<rect x="15" y="16" width="1" height="1" fill="#0f0f77"/>
<rect x="16" y="16" width="1" height="1" fill="#14147a"/>
<rect x="17" y="16" width="1" height="1" fill="#ebebf4"/>
<rect x="18" y="16" width="1" height="1" fill="#9696dd"/>
<rect x="19" y="16" width="1" height="1" fill="#101084"/>
<rect x="20" y="16" width="1" height="1" fill="#121274"/>
<rect x="21" y="16" width="1" height="1" fill="#101074"/>
<rect x="22" y="16" width="1" height="1" fill="#0e0e6c"/>
<rect x="23" y="16" width="1" height="1" fill="#0c0c6f"/>
<rect x="24" y="16" width="1" height="1" fill="#0b0b79" fill-opacity="0.878"/>
<rect x="1" y="17" width="1" height="1" fill="#0a0a7e" fill-opacity="0.792"/>
<rect x="2" y="17" width="1" height="1" fill="#08088e"/>
<rect x="3" y="17" width="1" height="1" fill="#09098a"/>
<rect x="4" y="17" width="1" height="1" fill="#0a0a7f"/>
<rect x="5" y="17" width="1" height="1" fill="#0a0a84"/>
<rect x="6" y="17" width="1" height="1" fill="#09098c"/>
<rect x="7" y="17" width="1" height="1" fill="#09098e"/>
<rect x="8" y="17" width="1" height="1" fill="#ababde"/>
<rect x="9" y="17" width="1" height="1" fill="#ffffff"/>
<rect x="10" y="17" width="1" height="1" fill="#9191d8"/>
<rect x="11" y="17" width="1" height="1" fill="#13137d"/>
<rect x="12" y="17" width="1" height="1" fill="#141472"/>
<rect x="13" y="17" width="1" height="1" fill="#fafafc"/>
<rect x="14" y="17" width="1" height="1" fill="#5b5bc9"/>
<rect x="15" y="17" width="1" height="1" fill="#0f0f7a"/>
<rect x="16" y="17" width="1" height="1" fill="#111175"/>
<rect x="17" y="17" width="1" height="1" fill="#e5e5f1"/>
<rect x="18" y="17" width="1" height="1" fill="#9595dc"/>
<rect x="19" y="17" width="1" height="1" fill="#090986"/>
<rect x="20" y="17" width="1" height="1" fill="#0d0d6d"/>
<rect x="21" y="17" width="1" height="1" fill="#0d0d6b"/>
<rect x="22" y="17" width="1" height="1" fill="#0c0c70"/>
<rect x="23" y="17" width="1" height="1" fill="#0b0b73"/>
<rect x="24" y="17" width="1" height="1" fill="#0a0a7c" fill-opacity="0.784"/>
<rect x="1" y="18" width="1" height="1" fill="#090989" fill-opacity="0.078"/>
<rect x="2" y="18" width="1" height="1" fill="#0a0a7d" fill-opacity="0.878"/>
<rect x="3" y="18" width="1" height="1" fill="#0a0a84"/>
<rect x="4" y="18" width="1" height="1" fill="#0b0b74"/>
<rect x="5" y="18" width="1" height="1" fill="#0c0c6c"/>
<rect x="6" y="18" width="1" height="1" fill="#0c0c6c"/>
<rect x="7" y="18" width="1" height="1" fill="#0b0b75"/>
<rect x="8" y="18" width="1" height="1" fill="#9898ca"/>
<rect x="9" y="18" width="1" height="1" fill="#e3e3ed"/>
<rect x="10" y="18" width="1" height="1" fill="#7777c0"/>
<rect x="11" y="18" width="1" height="1" fill="#111181"/>
<rect x="12" y="18" width="1" height="1" fill="#151570"/>
<rect x="13" y="18" width="1" height="1" fill="#7c7cac"/>
<rect x="14" y="18" width="1" height="1" fill="#242482"/>
<rect x="15" y="18" width="1" height="1" fill="#0d0d6f" fill-opacity="0.996"/>
<rect x="16" y="18" width="1" height="1" fill="#17177f" fill-opacity="0.996"/>
<rect x="17" y="18" width="1" height="1" fill="#7d7dad"/>
<rect x="18" y="18" width="1" height="1" fill="#5252a2"/>
<rect x="19" y="18" width="1" height="1" fill="#0a0a82"/>
<rect x="20" y="18" width="1" height="1" fill="#0c0c71"/>
<rect x="21" y="18" width="1" height="1" fill="#0c0c6f"/>
<rect x="22" y="18" width="1" height="1" fill="#0c0c6f"/>
<rect x="23" y="18" width="1" height="1" fill="#0b0b72" fill-opacity="0.949"/>
<rect x="24" y="18" width="1" height="1" fill="#090987" fill-opacity="0.192"/>
<rect x="3" y="19" width="1" height="1" fill="#0a0a85" fill-opacity="0.435"/>
<rect x="4" y="19" width="1" height="1" fill="#0a0a80" fill-opacity="0.737"/>
<rect x="5" y="19" width="1" height="1" fill="#0b0b77" fill-opacity="0.863"/>
<rect x="6" y="19" width="1" height="1" fill="#0c0c73" fill-opacity="0.902"/>
<rect x="7" y="19" width="1" height="1" fill="#0b0b76" fill-opacity="0.878"/>
<rect x="8" y="19" width="1" height="1" fill="#252579" fill-opacity="0.969"/>
<rect x="9" y="19" width="1" height="1" fill="#202074" fill-opacity="0.984"/>
<rect x="10" y="19" width="1" height="1" fill="#23237c" fill-opacity="0.941"/>
<rect x="11" y="19" width="1" height="1" fill="#0b0b7a" fill-opacity="0.855"/>
<rect x="12" y="19" width="1" height="1" fill="#1c1c7d" fill-opacity="0.863"/>
<rect x="13" y="19" width="1" height="1" fill="#3b3b8d" fill-opacity="0.769"/>
<rect x="14" y="19" width="1" height="1" fill="#313191" fill-opacity="0.486"/>
<rect x="15" y="19" width="1" height="1" fill="#090988" fill-opacity="0.165"/>
<rect x="16" y="19" width="1" height="1" fill="#56569f" fill-opacity="0.329"/>
<rect x="17" y="19" width="1" height="1" fill="#424291" fill-opacity="0.729"/>
<rect x="18" y="19" width="1" height="1" fill="#262687" fill-opacity="0.753"/>
<rect x="19" y="19" width="1" height="1" fill="#0a0a7e" fill-opacity="0.733"/>
<rect x="20" y="19" width="1" height="1" fill="#0b0b7a" fill-opacity="0.831"/>
<rect x="21" y="19" width="1" height="1" fill="#0b0b7b" fill-opacity="0.824"/>
<rect x="22" y="19" width="1" height="1" fill="#0a0a84" fill-opacity="0.49"/>
<rect x="23" y="19" width="1" height="1" fill="#090989" fill-opacity="0.055"/>
</svg>