<?xml version="1.0" encoding="UTF-8" standalone="no"?>
<svg xmlns="http://www.w3.org/2000/svg" width="26" height="21" shape-rendering="crispEdges">
<rect x="16" y="1" width="1" height="1" fill="#771977"/>
<rect x="17" y="1" width="1" height="1" fill="#771977"/>
<rect x="18" y="1" width="1" height="1" fill="#781978"/>
<rect x="19" y="1" width="1" height="1" fill="#791979"/>
<rect x="20" y="1" width="1" height="1" fill="#791979"/>
<rect x="21" y="1" width="1" height="1" fill="#781978"/>
<rect x="22" y="1" width="1" height="1" fill="#781978"/>
<rect x="23" y="1" width="1" height="1" fill="#771977"/>
<rect x="24" y="1" width="1" height="1" fill="#7a197a" fill-opacity="0.988"/>
<rect x="16" y="2" width="1" height="1" fill="#7e197e"/>
<rect x="17" y="2" width="1" height="1" fill="#fc2bfc"/>
<rect x="18" y="2" width="1" height="1" fill="#f877f7"/>
<rect x="19" y="2" width="1" height="1" fill="#dc32dc"/>
<rect x="20" y="2" width="1" height="1" fill="#cd17cd"/>
<rect x="21" y="2" width="1" height="1" fill="#a818a8"/>
<rect x="22" y="2" width="1" height="1" fill="#a618a6"/>
<rect x="23" y="2" width="1" height="1" fill="#a718a7"/>
<rect x="24" y="2" width="1" height="1" fill="#7d197d" fill-opacity="0.965"/>
<rect x="16" y="3" width="1" height="1" fill="#841e84"/>
<rect x="17" y="3" width="1" height="1" fill="#fc67fc"/>
<rect x="18" y="3" width="1" height="1" fill="#fbaafa"/>
<rect x="19" y="3" width="1" height="1" fill="#e434e3"/>
<rect x="20" y="3" width="1" height="1" fill="#cd17cd"/>
<rect x="21" y="3" width="1" height="1" fill="#a718a7"/>
<rect x="22" y="3" width="1" height="1" fill="#ab18ab"/>
<rect x="23" y="3" width="1" height="1" fill="#971897"/>
<rect x="24" y="3" width="1" height="1" fill="#851985" fill-opacity="0.863"/>
<rect x="16" y="4" width="1" height="1" fill="#8b3a8b"/>
<rect x="17" y="4" width="1" height="1" fill="#ffedff"/>
<rect x="18" y="4" width="1" height="1" fill="#fdc4fd"/>
<rect x="19" y="4" width="1" height="1" fill="#f9aef9"/>
<rect x="20" y="4" width="1" height="1" fill="#ea99ea"/>
<rect x="21" y="4" width="1" height="1" fill="#da85da"/>
<rect x="22" y="4" width="1" height="1" fill="#ec9eec"/>
<rect x="23" y="4" width="1" height="1" fill="#9b419b"/>
<rect x="24" y="4" width="1" height="1" fill="#842384" fill-opacity="0.878"/>
<rect x="15" y="5" width="1" height="1" fill="#871987" fill-opacity="0.831"/>
<rect x="16" y="5" width="1" height="1" fill="#932793"/>
<rect x="17" y="5" width="1" height="1" fill="#ffa9ff"/>
<rect x="18" y="5" width="1" height="1" fill="#fde2fd"/>
<rect x="19" y="5" width="1" height="1" fill="#f9dcf9"/>
<rect x="20" y="5" width="1" height="1" fill="#fadffa"/>
<rect x="21" y="5" width="1" height="1" fill="#fce3fc"/>
<rect x="22" y="5" width="1" height="1" fill="#fde7fd"/>
<rect x="23" y="5" width="1" height="1" fill="#9d549d"/>
<rect x="24" y="5" width="1" height="1" fill="#842684" fill-opacity="0.886"/>
<rect x="14" y="6" width="1" height="1" fill="#995299" fill-opacity="0.016"/>
<rect x="15" y="6" width="1" height="1" fill="#7b1b7b" fill-opacity="0.984"/>
<rect x="16" y="6" width="1" height="1" fill="#c51dc5"/>
<rect x="17" y="6" width="1" height="1" fill="#fc16fc"/>
<rect x="18" y="6" width="1" height="1" fill="#f316f3"/>
<rect x="19" y="6" width="1" height="1" fill="#e017e0"/>
<rect x="20" y="6" width="1" height="1" fill="#c617c6"/>
<rect x="21" y="6" width="1" height="1" fill="#af18af"/>
<rect x="22" y="6" width="1" height="1" fill="#b518b5"/>
<rect x="23" y="6" width="1" height="1" fill="#7d197d"/>
<rect x="24" y="6" width="1" height="1" fill="#951995" fill-opacity="0.365"/>
<rect x="14" y="7" width="1" height="1" fill="#961996" fill-opacity="0.173"/>
<rect x="15" y="7" width="1" height="1" fill="#781a78"/>
<rect x="16" y="7" width="1" height="1" fill="#f5e2f4"/>
<rect x="17" y="7" width="1" height="1" fill="#feb7fd"/>
<rect x="18" y="7" width="1" height="1" fill="#f48cf3"/>
<rect x="19" y="7" width="1" height="1" fill="#e26ce2"/>
<rect x="20" y="7" width="1" height="1" fill="#d359d3"/>
<rect x="21" y="7" width="1" height="1" fill="#be43be"/>
<rect x="22" y="7" width="1" height="1" fill="#b039b0"/>
<rect x="23" y="7" width="1" height="1" fill="#882088" fill-opacity="0.996"/>
<rect x="24" y="7" width="1" height="1" fill="#af18af" fill-opacity="0.027"/>
<rect x="13" y="8" width="1" height="1" fill="#964e96" fill-opacity="0.173"/>
<rect x="14" y="8" width="1" height="1" fill="#7b1c7b" fill-opacity="0.98"/>
<rect x="15" y="8" width="1" height="1" fill="#c01cc0"/>
<rect x="16" y="8" width="1" height="1" fill="#fc83fb" fill-opacity="0.996"/>
<rect x="17" y="8" width="1" height="1" fill="#fbdcf9"/>
<rect x="18" y="8" width="1" height="1" fill="#f7ebf5"/>
<rect x="19" y="8" width="1" height="1" fill="#f2ddf2"/>
<rect x="20" y="8" width="1" height="1" fill="#f2ddf2"/>
<rect x="21" y="8" width="1" height="1" fill="#f1dcf1"/>
<rect x="22" y="8" width="1" height="1" fill="#f0ddf0"/>
<rect x="23" y="8" width="1" height="1" fill="#914191"/>
<rect x="24" y="8" width="1" height="1" fill="#af18af" fill-opacity="0.008"/>
<rect x="12" y="9" width="1" height="1" fill="#964d96" fill-opacity="0.2"/>
<rect x="13" y="9" width="1" height="1" fill="#7a1d7a" fill-opacity="0.988"/>
<rect x="14" y="9" width="1" height="1" fill="#c094c0"/>
<rect x="15" y="9" width="1" height="1" fill="#fe76fe"/>
<rect x="16" y="9" width="1" height="1" fill="#fb16fb"/>
<rect x="17" y="9" width="1" height="1" fill="#f216f2"/>
<rect x="18" y="9" width="1" height="1" fill="#dd3ddd"/>
<rect x="19" y="9" width="1" height="1" fill="#d747d7"/>
<rect x="20" y="9" width="1" height="1" fill="#cd42cd"/>
<rect x="21" y="9" width="1" height="1" fill="#b134b1"/>
<rect x="22" y="9" width="1" height="1" fill="#af34af"/>
<rect x="23" y="9" width="1" height="1" fill="#882488" fill-opacity="0.996"/>
<rect x="10" y="10" width="1" height="1" fill="#924692" fill-opacity="0.431"/>
<rect x="11" y="10" width="1" height="1" fill="#802780" fill-opacity="0.937"/>
<rect x="12" y="10" width="1" height="1" fill="#7a1a7a" fill-opacity="0.992"/>
<rect x="13" y="10" width="1" height="1" fill="#c62cc6"/>
<rect x="14" y="10" width="1" height="1" fill="#ffe1ff"/>
<rect x="15" y="10" width="1" height="1" fill="#ffffff"/>
<rect x="16" y="10" width="1" height="1" fill="#febdfd"/>
<rect x="17" y="10" width="1" height="1" fill="#f74df7"/>
<rect x="18" y="10" width="1" height="1" fill="#e117e1"/>
<rect x="19" y="10" width="1" height="1" fill="#c217c2"/>
<rect x="20" y="10" width="1" height="1" fill="#a018a0"/>
<rect x="21" y="10" width="1" height="1" fill="#941894"/>
<rect x="22" y="10" width="1" height="1" fill="#971997"/>
<rect x="23" y="10" width="1" height="1" fill="#871987"/>
<rect x="24" y="10" width="1" height="1" fill="#8b208b" fill-opacity="0.714"/>
<rect x="8" y="11" width="1" height="1" fill="#985098" fill-opacity="0.09"/>
<rect x="10" y="11" width="1" height="1" fill="#7e217e" fill-opacity="0.961"/>
<rect x="11" y="11" width="1" height="1" fill="#aa6faa"/>
<rect x="12" y="11" width="1" height="1" fill="#d8add8"/>
<rect x="13" y="11" width="1" height="1" fill="#fd2bfd"/>
<rect x="14" y="11" width="1" height="1" fill="#fa34fa"/>
<rect x="15" y="11" width="1" height="1" fill="#fee6fd"/>
<rect x="16" y="11" width="1" height="1" fill="#fffefe"/>
<rect x="17" y="11" width="1" height="1" fill="#fefbfd"/>
<rect x="18" y="11" width="1" height="1" fill="#f9d0f9"/>
<rect x="19" y="11" width="1" height="1" fill="#edb5ed"/>
<rect x="20" y="11" width="1" height="1" fill="#e3a2e3"/>
<rect x="21" y="11" width="1" height="1" fill="#e39fe3"/>
<rect x="22" y="11" width="1" height="1" fill="#edafed"/>
<rect x="23" y="11" width="1" height="1" fill="#9b489b"/>
<rect x="24" y="11" width="1" height="1" fill="#842584" fill-opacity="0.878"/>
<rect x="7" y="12" width="1" height="1" fill="#832d83" fill-opacity="0.898"/>
<rect x="8" y="12" width="1" height="1" fill="#781a78"/>
<rect x="9" y="12" width="1" height="1" fill="#791979" fill-opacity="0.996"/>
<rect x="10" y="12" width="1" height="1" fill="#b31bb3"/>
<rect x="11" y="12" width="1" height="1" fill="#ffc4ff"/>
<rect x="12" y="12" width="1" height="1" fill="#fffeff"/>
<rect x="13" y="12" width="1" height="1" fill="#f890f8"/>
<rect x="14" y="12" width="1" height="1" fill="#e816e8"/>
<rect x="15" y="12" width="1" height="1" fill="#f376f3"/>
<rect x="16" y="12" width="1" height="1" fill="#fefcfe"/>
<rect x="17" y="12" width="1" height="1" fill="#ffffff"/>
<rect x="18" y="12" width="1" height="1" fill="#ffffff"/>
<rect x="19" y="12" width="1" height="1" fill="#ffffff"/>
<rect x="20" y="12" width="1" height="1" fill="#fffdff"/>
<rect x="21" y="12" width="1" height="1" fill="#fffeff"/>
<rect x="22" y="12" width="1" height="1" fill="#fffeff"/>
<rect x="23" y="12" width="1" height="1" fill="#aa70aa"/>
<rect x="24" y="12" width="1" height="1" fill="#802180" fill-opacity="0.937"/>
<rect x="4" y="13" width="1" height="1" fill="#871987" fill-opacity="0.82"/>
<rect x="5" y="13" width="1" height="1" fill="#841984" fill-opacity="0.875"/>
<rect x="6" y="13" width="1" height="1" fill="#7d197d" fill-opacity="0.965"/>
<rect x="7" y="13" width="1" height="1" fill="#9d469d" fill-opacity="0.98"/>
<rect x="8" y="13" width="1" height="1" fill="#e4d2e4"/>
<rect x="9" y="13" width="1" height="1" fill="#d471d4"/>
<rect x="10" y="13" width="1" height="1" fill="#fb41fb"/>
<rect x="11" y="13" width="1" height="1" fill="#fc52fc"/>
<rect x="12" y="13" width="1" height="1" fill="#fef9fe"/>
<rect x="13" y="13" width="1" height="1" fill="#f8ddf8"/>
<rect x="14" y="13" width="1" height="1" fill="#de22de"/>
<rect x="15" y="13" width="1" height="1" fill="#d623d6"/>
<rect x="16" y="13" width="1" height="1" fill="#f4def4"/>
<rect x="17" y="13" width="1" height="1" fill="#fefdfe"/>
<rect x="18" y="13" width="1" height="1" fill="#ffafff"/>
<rect x="19" y="13" width="1" height="1" fill="#fd39fd"/>
<rect x="20" y="13" width="1" height="1" fill="#fb37fb"/>
<rect x="21" y="13" width="1" height="1" fill="#fc38fc"/>
<rect x="22" y="13" width="1" height="1" fill="#f738f7"/>
<rect x="23" y="13" width="1" height="1" fill="#982198"/>
<rect x="24" y="13" width="1" height="1" fill="#7e1a7e" fill-opacity="0.961"/>
<rect x="1" y="14" width="1" height="1" fill="#891989" fill-opacity="0.008"/>
<rect x="2" y="14" width="1" height="1" fill="#821982" fill-opacity="0.914"/>
<rect x="3" y="14" width="1" height="1" fill="#7c197c" fill-opacity="0.996"/>
<rect x="4" y="14" width="1" height="1" fill="#921892"/>
<rect x="5" y="14" width="1" height="1" fill="#9a189a"/>
<rect x="6" y="14" width="1" height="1" fill="#b91cb9"/>
<rect x="7" y="14" width="1" height="1" fill="#ee3cee"/>
<rect x="8" y="14" width="1" height="1" fill="#fffeff"/>
<rect x="9" y="14" width="1" height="1" fill="#fee2fe"/>
<rect x="10" y="14" width="1" height="1" fill="#fa6bf9"/>
<rect x="11" y="14" width="1" height="1" fill="#f97cf9"/>
<rect x="12" y="14" width="1" height="1" fill="#fce3fc"/>
<rect x="13" y="14" width="1" height="1" fill="#fcfafc"/>
<rect x="14" y="14" width="1" height="1" fill="#e34ae3"/>
<rect x="15" y="14" width="1" height="1" fill="#bc17bc"/>
<rect x="16" y="14" width="1" height="1" fill="#dc88dc"/>
<rect x="17" y="14" width="1" height="1" fill="#fcf8fc"/>
<rect x="18" y="14" width="1" height="1" fill="#fe94fe"/>
<rect x="19" y="14" width="1" height="1" fill="#ee16ee"/>
<rect x="20" y="14" width="1" height="1" fill="#ea16ea"/>
<rect x="21" y="14" width="1" height="1" fill="#dd17dd"/>
<rect x="22" y="14" width="1" height="1" fill="#c617c6"/>
<rect x="23" y="14" width="1" height="1" fill="#831983"/>
<rect x="24" y="14" width="1" height="1" fill="#7b197b" fill-opacity="0.992"/>
<rect x="1" y="15" width="1" height="1" fill="#891989" fill-opacity="0.027"/>
<rect x="2" y="15" width="1" height="1" fill="#8b188b"/>
<rect x="3" y="15" width="1" height="1" fill="#d917d9"/>
<rect x="4" y="15" width="1" height="1" fill="#e617e6"/>
<rect x="5" y="15" width="1" height="1" fill="#f231f2"/>
<rect x="6" y="15" width="1" height="1" fill="#f981f9"/>
<rect x="7" y="15" width="1" height="1" fill="#f864f8"/>
<rect x="8" y="15" width="1" height="1" fill="#feeefe"/>
<rect x="9" y="15" width="1" height="1" fill="#fffeff"/>
<rect x="10" y="15" width="1" height="1" fill="#f557f5"/>
<rect x="11" y="15" width="1" height="1" fill="#ed55ed"/>
<rect x="12" y="15" width="1" height="1" fill="#ea92ea"/>
<rect x="13" y="15" width="1" height="1" fill="#fdf9fd"/>
<rect x="14" y="15" width="1" height="1" fill="#ef60ef"/>
<rect x="15" y="15" width="1" height="1" fill="#a018a0"/>
<rect x="16" y="15" width="1" height="1" fill="#aa31aa"/>
<rect x="17" y="15" width="1" height="1" fill="#f3e7f3"/>
<rect x="18" y="15" width="1" height="1" fill="#fc98fc"/>
<rect x="19" y="15" width="1" height="1" fill="#ce17ce"/>
<rect x="20" y="15" width="1" height="1" fill="#bf17bf"/>
<rect x="21" y="15" width="1" height="1" fill="#c217c2"/>
<rect x="22" y="15" width="1" height="1" fill="#a818a8"/>
<rect x="23" y="15" width="1" height="1" fill="#831983"/>
<rect x="24" y="15" width="1" height="1" fill="#7c197c" fill-opacity="0.992"/>
<rect x="1" y="16" width="1" height="1" fill="#7a197a" fill-opacity="0.992"/>
<rect x="2" y="16" width="1" height="1" fill="#b518b5"/>
<rect x="3" y="16" width="1" height="1" fill="#bd18bd"/>
<rect x="4" y="16" width="1" height="1" fill="#c717c7"/>
<rect x="5" y="16" width="1" height="1" fill="#d520d5"/>
<rect x="6" y="16" width="1" height="1" fill="#f462f4"/>
<rect x="7" y="16" width="1" height="1" fill="#f85af8"/>
<rect x="8" y="16" width="1" height="1" fill="#fed0fe"/>
<rect x="9" y="16" width="1" height="1" fill="#ffffff"/>
<rect x="10" y="16" width="1" height="1" fill="#f284f2"/>
<rect x="11" y="16" width="1" height="1" fill="#cd3ccd"/>
<rect x="12" y="16" width="1" height="1" fill="#c551c5"/>
<rect x="13" y="16" width="1" height="1" fill="#faf2fa"/>
<rect x="14" y="16" width="1" height="1" fill="#f862f8"/>
<rect x="15" y="16" width="1" height="1" fill="#921992"/>
<rect x="16" y="16" width="1" height="1" fill="#9a259a"/>
<rect x="17" y="16" width="1" height="1" fill="#eddbed"/>
<rect x="18" y="16" width="1" height="1" fill="#fd9bfd"/>
<rect x="19" y="16" width="1" height="1" fill="#b618b6"/>
<rect x="20" y="16" width="1" height="1" fill="#a718a7"/>
<rect x="21" y="16" width="1" height="1" fill="#b118b1"/>
<rect x="22" y="16" width="1" height="1" fill="#9c189c"/>
<rect x="23" y="16" width="1" height="1" fill="#841984"/>
<rect x="24" y="16" width="1" height="1" fill="#7c197c" fill-opacity="0.992"/>
<rect x="1" y="17" width="1" height="1" fill="#801980" fill-opacity="0.957"/>
<rect x="2" y="17" width="1" height="1" fill="#a118a1"/>
<rect x="3" y="17" width="1" height="1" fill="#a118a1"/>
<rect x="4" y="17" width="1" height="1" fill="#a118a1"/>
<rect x="5" y="17" width="1" height="1" fill="#b918b9"/>
<rect x="6" y="17" width="1" height="1" fill="#ba18ba"/>
<rect x="7" y="17" width="1" height="1" fill="#ce17ce"/>
<rect x="8" y="17" width="1" height="1" fill="#f0b5f0"/>
<rect x="9" y="17" width="1" height="1" fill="#ffffff"/>
<rect x="10" y="17" width="1" height="1" fill="#f48ef4"/>
<rect x="11" y="17" width="1" height="1" fill="#aa23aa"/>
<rect x="12" y="17" width="1" height="1" fill="#aa33aa"/>
<rect x="13" y="17" width="1" height="1" fill="#f7eaf7"/>
<rect x="14" y="17" width="1" height="1" fill="#fb65fb"/>
<rect x="15" y="17" width="1" height="1" fill="#901990"/>
<rect x="16" y="17" width="1" height="1" fill="#962596"/>
<rect x="17" y="17" width="1" height="1" fill="#efdfef"/>
<rect x="18" y="17" width="1" height="1" fill="#fd9afd"/>
<rect x="19" y="17" width="1" height="1" fill="#a118a1"/>
<rect x="20" y="17" width="1" height="1" fill="#9a199a"/>
<rect x="21" y="17" width="1" height="1" fill="#a219a2"/>
<rect x="22" y="17" width="1" height="1" fill="#961996"/>
<rect x="23" y="17" width="1" height="1" fill="#841984"/>
<rect x="24" y="17" width="1" height="1" fill="#7e197e" fill-opacity="0.961"/>
<rect x="1" y="18" width="1" height="1" fill="#961996" fill-opacity="0.161"/>
<rect x="2" y="18" width="1" height="1" fill="#7e197e" fill-opacity="0.984"/>
<rect x="3" y="18" width="1" height="1" fill="#851985"/>
<rect x="4" y="18" width="1" height="1" fill="#891989"/>
<rect x="5" y="18" width="1" height="1" fill="#8d198d"/>
<rect x="6" y="18" width="1" height="1" fill="#871987"/>
<rect x="7" y="18" width="1" height="1" fill="#8e188e"/>
<rect x="8" y="18" width="1" height="1" fill="#c685c6"/>
<rect x="9" y="18" width="1" height="1" fill="#ede1ed"/>
<rect x="10" y="18" width="1" height="1" fill="#d472d4"/>
<rect x="11" y="18" width="1" height="1" fill="#a818a8"/>
<rect x="12" y="18" width="1" height="1" fill="#ab3cab"/>
<rect x="13" y="18" width="1" height="1" fill="#ad6fad"/>
<rect x="14" y="18" width="1" height="1" fill="#892489"/>
<rect x="15" y="18" width="1" height="1" fill="#7a197a"/>
<rect x="16" y="18" width="1" height="1" fill="#801d80" fill-opacity="0.996"/>
<rect x="17" y="18" width="1" height="1" fill="#a565a5"/>
<rect x="18" y="18" width="1" height="1" fill="#aa4baa"/>
<rect x="19" y="18" width="1" height="1" fill="#941894"/>
<rect x="20" y="18" width="1" height="1" fill="#911891"/>
<rect x="21" y="18" width="1" height="1" fill="#9c189c"/>
<rect x="22" y="18" width="1" height="1" fill="#861986"/>
<rect x="23" y="18" width="1" height="1" fill="#781978" fill-opacity="0.996"/>
<rect x="24" y="18" width="1" height="1" fill="#941994" fill-opacity="0.353"/>
<rect x="2" y="19" width="1" height="1" fill="#891989" fill-opacity="0.024"/>
<rect x="3" y="19" width="1" height="1" fill="#8c198c" fill-opacity="0.702"/>
<rect x="4" y="19" width="1" height="1" fill="#831983" fill-opacity="0.929"/>
<rect x="5" y="19" width="1" height="1" fill="#7e197e" fill-opacity="0.973"/>
<rect x="6" y="19" width="1" height="1" fill="#7c197c" fill-opacity="0.98"/>
<rect x="7" y="19" width="1" height="1" fill="#7c197c" fill-opacity="0.98"/>
<rect x="8" y="19" width="1" height="1" fill="#781a78"/>
<rect x="9" y="19" width="1" height="1" fill="#771977"/>
<rect x="10" y="19" width="1" height="1" fill="#7a1a7a" fill-opacity="0.996"/>
<rect x="11" y="19" width="1" height="1" fill="#841984" fill-opacity="0.98"/>
<rect x="12" y="19" width="1" height="1" fill="#801b80" fill-opacity="0.976"/>
<rect x="13" y="19" width="1" height="1" fill="#802180" fill-opacity="0.945"/>
<rect x="14" y="19" width="1" height="1" fill="#8a258a" fill-opacity="0.737"/>
<rect x="15" y="19" width="1" height="1" fill="#941994" fill-opacity="0.306"/>
<rect x="16" y="19" width="1" height="1" fill="#8f348f" fill-opacity="0.553"/>
<rect x="17" y="19" width="1" height="1" fill="#812481" fill-opacity="0.925"/>
<rect x="18" y="19" width="1" height="1" fill="#801e80" fill-opacity="0.937"/>
<rect x="19" y="19" width="1" height="1" fill="#811981" fill-opacity="0.929"/>
<rect x="20" y="19" width="1" height="1" fill="#7d197d" fill-opacity="0.965"/>
<rect x="21" y="19" width="1" height="1" fill="#7d197d" fill-opacity="0.965"/>
<rect x="22" y="19" width="1" height="1" fill="#8a198a" fill-opacity="0.737"/>
<rect x="23" y="19" width="1" height="1" fill="#971997" fill-opacity="0.106"/>
</svg>