<?xml version="1.0" encoding="UTF-8" standalone="no"?>
<svg xmlns="http://www.w3.org/2000/svg" width="26" height="21" shape-rendering="crispEdges">
<rect x="9" y="7" width="1" height="1" fill="#ac1a07" fill-opacity="0.027"/>
<rect x="10" y="7" width="1" height="1" fill="#ac1a07" fill-opacity="0.11"/>
<rect x="8" y="8" width="1" height="1" fill="#ba210d" fill-opacity="0.157"/>
<rect x="9" y="8" width="1" height="1" fill="#b21e0b" fill-opacity="0.886"/>
<rect x="10" y="8" width="1" height="1" fill="#ad1c09" fill-opacity="0.992"/>
<rect x="11" y="8" width="1" height="1" fill="#c12916" fill-opacity="0.255"/>
<rect x="7" y="9" width="1" height="1" fill="#b31d0a" fill-opacity="0.188"/>
<rect x="8" y="9" width="1" height="1" fill="#af1d0a" fill-opacity="0.941"/>
<rect x="9" y="9" width="1" height="1" fill="#b21e0a" fill-opacity="0.992"/>
<rect x="10" y="9" width="1" height="1" fill="#af1d0a" fill-opacity="0.996"/>
<rect x="11" y="9" width="1" height="1" fill="#af1d09" fill-opacity="0.953"/>
<rect x="12" y="9" width="1" height="1" fill="#ac1b08" fill-opacity="0.094"/>
<rect x="6" y="10" width="1" height="1" fill="#ba1f0c" fill-opacity="0.459"/>
<rect x="7" y="10" width="1" height="1" fill="#ae1d0a" fill-opacity="0.984"/>
<rect x="8" y="10" width="1" height="1" fill="#d6422f" fill-opacity="0.996"/>
<rect x="9" y="10" width="1" height="1" fill="#f25d4b"/>
<rect x="10" y="10" width="1" height="1" fill="#e74b36"/>
<rect x="11" y="10" width="1" height="1" fill="#b52310" fill-opacity="0.996"/>
<rect x="12" y="10" width="1" height="1" fill="#b01c09" fill-opacity="0.937"/>
<rect x="13" y="10" width="1" height="1" fill="#ac1b08" fill-opacity="0.153"/>
<rect x="5" y="11" width="1" height="1" fill="#b41f0c" fill-opacity="0.78"/>
<rect x="6" y="11" width="1" height="1" fill="#ac1c0a" fill-opacity="0.996"/>
<rect x="7" y="11" width="1" height="1" fill="#e74e3b"/>
<rect x="8" y="11" width="1" height="1" fill="#f05540"/>
<rect x="9" y="11" width="1" height="1" fill="#ef442d"/>
<rect x="10" y="11" width="1" height="1" fill="#f0412b"/>
<rect x="11" y="11" width="1" height="1" fill="#eb5e4b"/>
<rect x="12" y="11" width="1" height="1" fill="#b72612" fill-opacity="0.996"/>
<rect x="13" y="11" width="1" height="1" fill="#b01c09" fill-opacity="0.933"/>
<rect x="14" y="11" width="1" height="1" fill="#ac1a07" fill-opacity="0.09"/>
<rect x="3" y="12" width="1" height="1" fill="#b4210e" fill-opacity="0.075"/>
<rect x="4" y="12" width="1" height="1" fill="#b01c09" fill-opacity="0.91"/>
<rect x="5" y="12" width="1" height="1" fill="#ae1c09" fill-opacity="0.996"/>
<rect x="6" y="12" width="1" height="1" fill="#e34b36"/>
<rect x="7" y="12" width="1" height="1" fill="#ef4630"/>
<rect x="8" y="12" width="1" height="1" fill="#ed2a11"/>
<rect x="9" y="12" width="1" height="1" fill="#ed2b13"/>
<rect x="10" y="12" width="1" height="1" fill="#ef3018"/>
<rect x="11" y="12" width="1" height="1" fill="#ee3b23"/>
<rect x="12" y="12" width="1" height="1" fill="#ea5e4b"/>
<rect x="13" y="12" width="1" height="1" fill="#b4220e" fill-opacity="0.992"/>
<rect x="14" y="12" width="1" height="1" fill="#b11d09" fill-opacity="0.89"/>
<rect x="15" y="12" width="1" height="1" fill="#ac1a07" fill-opacity="0.039"/>
<rect x="2" y="13" width="1" height="1" fill="#c32813" fill-opacity="0.027"/>
<rect x="3" y="13" width="1" height="1" fill="#b11e0b" fill-opacity="0.882"/>
<rect x="4" y="13" width="1" height="1" fill="#b01c09"/>
<rect x="5" y="13" width="1" height="1" fill="#da341f"/>
<rect x="6" y="13" width="1" height="1" fill="#f04832"/>
<rect x="7" y="13" width="1" height="1" fill="#ed2a11"/>
<rect x="8" y="13" width="1" height="1" fill="#ed2910"/>
<rect x="9" y="13" width="1" height="1" fill="#ee2c13"/>
<rect x="10" y="13" width="1" height="1" fill="#ef2d15"/>
<rect x="11" y="13" width="1" height="1" fill="#ee2c13"/>
<rect x="12" y="13" width="1" height="1" fill="#ef452f"/>
<rect x="13" y="13" width="1" height="1" fill="#eb5d4a"/>
<rect x="14" y="13" width="1" height="1" fill="#b01e0b" fill-opacity="0.992"/>
<rect x="15" y="13" width="1" height="1" fill="#b01c08" fill-opacity="0.839"/>
<rect x="16" y="13" width="1" height="1" fill="#ac1a07" fill-opacity="0.016"/>
<rect x="2" y="14" width="1" height="1" fill="#ac1a07" fill-opacity="0.004"/>
<rect x="3" y="14" width="1" height="1" fill="#b61f0c" fill-opacity="0.486"/>
<rect x="4" y="14" width="1" height="1" fill="#ac1b08" fill-opacity="0.988"/>
<rect x="5" y="14" width="1" height="1" fill="#d43e2a"/>
<rect x="6" y="14" width="1" height="1" fill="#ef4833"/>
<rect x="7" y="14" width="1" height="1" fill="#ed2911"/>
<rect x="8" y="14" width="1" height="1" fill="#ed2910"/>
<rect x="9" y="14" width="1" height="1" fill="#ed2910"/>
<rect x="10" y="14" width="1" height="1" fill="#ed2910"/>
<rect x="11" y="14" width="1" height="1" fill="#ed2a11"/>
<rect x="12" y="14" width="1" height="1" fill="#ed2c13"/>
<rect x="13" y="14" width="1" height="1" fill="#ee4933"/>
<rect x="14" y="14" width="1" height="1" fill="#e4513e"/>
<rect x="15" y="14" width="1" height="1" fill="#af1e0b" fill-opacity="0.992"/>
<rect x="16" y="14" width="1" height="1" fill="#b11c09" fill-opacity="0.78"/>
<rect x="17" y="14" width="1" height="1" fill="#a81a08" fill-opacity="0.027"/>
<rect x="18" y="14" width="1" height="1" fill="#a81a08" fill-opacity="0.004"/>
<rect x="1" y="15" width="1" height="1" fill="#d1321d" fill-opacity="0.024"/>
<rect x="2" y="15" width="1" height="1" fill="#d1321d" fill-opacity="0.031"/>
<rect x="3" y="15" width="1" height="1" fill="#c82b17" fill-opacity="0.031"/>
<rect x="4" y="15" width="1" height="1" fill="#bb210d" fill-opacity="0.588"/>
<rect x="5" y="15" width="1" height="1" fill="#ae1d0a"/>
<rect x="6" y="15" width="1" height="1" fill="#df4936"/>
<rect x="7" y="15" width="1" height="1" fill="#eb3822"/>
<rect x="8" y="15" width="1" height="1" fill="#e9230b"/>
<rect x="9" y="15" width="1" height="1" fill="#e9230a"/>
<rect x="10" y="15" width="1" height="1" fill="#ea240b"/>
<rect x="11" y="15" width="1" height="1" fill="#ea250c"/>
<rect x="12" y="15" width="1" height="1" fill="#eb260d"/>
<rect x="13" y="15" width="1" height="1" fill="#ec2b13"/>
<rect x="14" y="15" width="1" height="1" fill="#ee4733"/>
<rect x="15" y="15" width="1" height="1" fill="#e2513f"/>
<rect x="16" y="15" width="1" height="1" fill="#b12916" fill-opacity="0.996"/>
<rect x="17" y="15" width="1" height="1" fill="#ad2210" fill-opacity="0.98"/>
<rect x="18" y="15" width="1" height="1" fill="#ab1e0c" fill-opacity="0.984"/>
<rect x="19" y="15" width="1" height="1" fill="#aa1b09" fill-opacity="0.988"/>
<rect x="20" y="15" width="1" height="1" fill="#aa1b09" fill-opacity="0.984"/>
<rect x="21" y="15" width="1" height="1" fill="#ab1b09" fill-opacity="0.984"/>
<rect x="22" y="15" width="1" height="1" fill="#ab1c09" fill-opacity="0.976"/>
<rect x="23" y="15" width="1" height="1" fill="#ad1d0a" fill-opacity="0.973"/>
<rect x="24" y="15" width="1" height="1" fill="#b4210d" fill-opacity="0.91"/>
<rect x="25" y="15" width="1" height="1" fill="#a81a08" fill-opacity="0.039"/>
<rect x="1" y="16" width="1" height="1" fill="#b11d09" fill-opacity="0.953"/>
<rect x="2" y="16" width="1" height="1" fill="#ad1c09" fill-opacity="0.988"/>
<rect x="3" y="16" width="1" height="1" fill="#ac1d0a" fill-opacity="0.984"/>
<rect x="4" y="16" width="1" height="1" fill="#b11e0a" fill-opacity="0.976"/>
<rect x="5" y="16" width="1" height="1" fill="#b11c09"/>
<rect x="6" y="16" width="1" height="1" fill="#c22411"/>
<rect x="7" y="16" width="1" height="1" fill="#ea412c"/>
<rect x="8" y="16" width="1" height="1" fill="#e82810"/>
<rect x="9" y="16" width="1" height="1" fill="#e71e05"/>
<rect x="10" y="16" width="1" height="1" fill="#e61e05"/>
<rect x="11" y="16" width="1" height="1" fill="#e71e05"/>
<rect x="12" y="16" width="1" height="1" fill="#e72007"/>
<rect x="13" y="16" width="1" height="1" fill="#e82108"/>
<rect x="14" y="16" width="1" height="1" fill="#ea280f"/>
<rect x="15" y="16" width="1" height="1" fill="#ec5642"/>
<rect x="16" y="16" width="1" height="1" fill="#ea6150"/>
<rect x="17" y="16" width="1" height="1" fill="#e55e4c"/>
<rect x="18" y="16" width="1" height="1" fill="#e45946"/>
<rect x="19" y="16" width="1" height="1" fill="#e35341"/>
<rect x="20" y="16" width="1" height="1" fill="#e14b37"/>
<rect x="21" y="16" width="1" height="1" fill="#d93f2b"/>
<rect x="22" y="16" width="1" height="1" fill="#c7240f"/>
<rect x="23" y="16" width="1" height="1" fill="#c61e09" fill-opacity="0.996"/>
<rect x="24" y="16" width="1" height="1" fill="#a71b09" fill-opacity="0.996"/>
<rect x="25" y="16" width="1" height="1" fill="#a81a08" fill-opacity="0.039"/>
<rect x="1" y="17" width="1" height="1" fill="#ac1a07" fill-opacity="0.992"/>
<rect x="2" y="17" width="1" height="1" fill="#ca1a04"/>
<rect x="3" y="17" width="1" height="1" fill="#d91a02"/>
<rect x="4" y="17" width="1" height="1" fill="#d31903"/>
<rect x="5" y="17" width="1" height="1" fill="#d71a03"/>
<rect x="6" y="17" width="1" height="1" fill="#de1b03"/>
<rect x="7" y="17" width="1" height="1" fill="#e6260e"/>
<rect x="8" y="17" width="1" height="1" fill="#e51f06"/>
<rect x="9" y="17" width="1" height="1" fill="#e51b02"/>
<rect x="10" y="17" width="1" height="1" fill="#e51b02"/>
<rect x="11" y="17" width="1" height="1" fill="#e51b02"/>
<rect x="12" y="17" width="1" height="1" fill="#e51b02"/>
<rect x="13" y="17" width="1" height="1" fill="#e61c03"/>
<rect x="14" y="17" width="1" height="1" fill="#e51b03"/>
<rect x="15" y="17" width="1" height="1" fill="#e62109"/>
<rect x="16" y="17" width="1" height="1" fill="#e82c16"/>
<rect x="17" y="17" width="1" height="1" fill="#e62a13"/>
<rect x="18" y="17" width="1" height="1" fill="#e6250e"/>
<rect x="19" y="17" width="1" height="1" fill="#e62610"/>
<rect x="20" y="17" width="1" height="1" fill="#e5250d"/>
<rect x="21" y="17" width="1" height="1" fill="#e5230d"/>
<rect x="22" y="17" width="1" height="1" fill="#e41d05"/>
<rect x="23" y="17" width="1" height="1" fill="#e21f07"/>
<rect x="24" y="17" width="1" height="1" fill="#a91b09" fill-opacity="0.996"/>
<rect x="1" y="18" width="1" height="1" fill="#ac1a07" fill-opacity="0.98"/>
<rect x="2" y="18" width="1" height="1" fill="#da1b03"/>
<rect x="3" y="18" width="1" height="1" fill="#e01b02"/>
<rect x="4" y="18" width="1" height="1" fill="#e01b02"/>
<rect x="5" y="18" width="1" height="1" fill="#e01b02"/>
<rect x="6" y="18" width="1" height="1" fill="#e01b02"/>
<rect x="7" y="18" width="1" height="1" fill="#e01b02"/>
<rect x="8" y="18" width="1" height="1" fill="#e01b02"/>
<rect x="9" y="18" width="1" height="1" fill="#e01b02"/>
<rect x="10" y="18" width="1" height="1" fill="#e01b02"/>
<rect x="11" y="18" width="1" height="1" fill="#e01b02"/>
<rect x="12" y="18" width="1" height="1" fill="#e01b02"/>
<rect x="13" y="18" width="1" height="1" fill="#e11c03"/>
<rect x="14" y="18" width="1" height="1" fill="#e21c03"/>
<rect x="15" y="18" width="1" height="1" fill="#e21b03"/>
<rect x="16" y="18" width="1" height="1" fill="#e41d04"/>
<rect x="17" y="18" width="1" height="1" fill="#e41c04"/>
<rect x="18" y="18" width="1" height="1" fill="#e41c04"/>
<rect x="19" y="18" width="1" height="1" fill="#e41c03"/>
<rect x="20" y="18" width="1" height="1" fill="#e41b03"/>
<rect x="21" y="18" width="1" height="1" fill="#e31b03"/>
<rect x="22" y="18" width="1" height="1" fill="#e21a02"/>
<rect x="23" y="18" width="1" height="1" fill="#e41f07"/>
<rect x="24" y="18" width="1" height="1" fill="#a81b09" fill-opacity="0.996"/>
<rect x="1" y="19" width="1" height="1" fill="#b01b07" fill-opacity="0.953"/>
<rect x="2" y="19" width="1" height="1" fill="#a81a08" fill-opacity="0.996"/>
<rect x="3" y="19" width="1" height="1" fill="#a81a08" fill-opacity="0.996"/>
<rect x="4" y="19" width="1" height="1" fill="#a81a08" fill-opacity="0.996"/>
<rect x="5" y="19" width="1" height="1" fill="#a81a08" fill-opacity="0.996"/>
<rect x="6" y="19" width="1" height="1" fill="#a81a08" fill-opacity="0.996"/>
<rect x="7" y="19" width="1" height="1" fill="#a81a08" fill-opacity="0.996"/>
<rect x="8" y="19" width="1" height="1" fill="#a81a08" fill-opacity="0.996"/>
<rect x="9" y="19" width="1" height="1" fill="#a81a08" fill-opacity="0.996"/>
<rect x="10" y="19" width="1" height="1" fill="#a81a08" fill-opacity="0.996"/>
<rect x="11" y="19" width="1" height="1" fill="#a81a08" fill-opacity="0.996"/>
<rect x="12" y="19" width="1" height="1" fill="#a81a08" fill-opacity="0.996"/>
<rect x="13" y="19" width="1" height="1" fill="#a81a08" fill-opacity="0.996"/>
<rect x="14" y="19" width="1" height="1" fill="#a91a08" fill-opacity="0.996"/>
<rect x="15" y="19" width="1" height="1" fill="#a91a08" fill-opacity="0.996"/>
<rect x="16" y="19" width="1" height="1" fill="#aa1a08" fill-opacity="0.996"/>
<rect x="17" y="19" width="1" height="1" fill="#a91a08" fill-opacity="0.996"/>
<rect x="18" y="19" width="1" height="1" fill="#a91a08" fill-opacity="0.996"/>
<rect x="19" y="19" width="1" height="1" fill="#a91a08" fill-opacity="0.996"/>
<rect x="20" y="19" width="1" height="1" fill="#a81a08" fill-opacity="0.996"/>
<rect x="21" y="19" width="1" height="1" fill="#a81a08" fill-opacity="0.996"/>
<rect x="22" y="19" width="1" height="1" fill="#a81a08" fill-opacity="0.996"/>
<rect x="23" y="19" width="1" height="1" fill="#a61a08"/>
<rect x="24" y="19" width="1" height="1" fill="#ad1b09" fill-opacity="0.98"/>
</svg>