<?xml version="1.0" encoding="UTF-8" standalone="no"?>
<svg xmlns="http://www.w3.org/2000/svg" width="26" height="21" shape-rendering="crispEdges">
<rect x="11" y="0" width="1" height="1" fill="#0b20be" fill-opacity="0.008"/>
<rect x="12" y="0" width="1" height="1" fill="#0b20be" fill-opacity="0.012"/>
<rect x="8" y="8" width="1" height="1" fill="#b47017" fill-opacity="0.106"/>
<rect x="9" y="8" width="1" height="1" fill="#95560d" fill-opacity="0.859"/>
<rect x="10" y="8" width="1" height="1" fill="#894d0a" fill-opacity="0.984"/>
<rect x="11" y="8" width="1" height="1" fill="#ae6913" fill-opacity="0.424"/>
<rect x="7" y="9" width="1" height="1" fill="#9b5b0f" fill-opacity="0.184"/>
<rect x="8" y="9" width="1" height="1" fill="#8f520c" fill-opacity="0.937"/>
<rect x="9" y="9" width="1" height="1" fill="#9f5e10" fill-opacity="0.984"/>
<rect x="10" y="9" width="1" height="1" fill="#b46f17" fill-opacity="0.996"/>
<rect x="11" y="9" width="1" height="1" fill="#90520b" fill-opacity="0.941"/>
<rect x="12" y="9" width="1" height="1" fill="#874a08" fill-opacity="0.02"/>
<rect x="5" y="10" width="1" height="1" fill="#874a08" fill-opacity="0.004"/>
<rect x="6" y="10" width="1" height="1" fill="#9c5b0f" fill-opacity="0.529"/>
<rect x="7" y="10" width="1" height="1" fill="#8a4d09" fill-opacity="0.988"/>
<rect x="8" y="10" width="1" height="1" fill="#b26c15" fill-opacity="0.992"/>
<rect x="9" y="10" width="1" height="1" fill="#f6a430"/>
<rect x="10" y="10" width="1" height="1" fill="#f6ab42"/>
<rect x="11" y="10" width="1" height="1" fill="#a36113" fill-opacity="0.992"/>
<rect x="12" y="10" width="1" height="1" fill="#93550d" fill-opacity="0.894"/>
<rect x="13" y="10" width="1" height="1" fill="#874a08" fill-opacity="0.047"/>
<rect x="4" y="11" width="1" height="1" fill="#874a08" fill-opacity="0.031"/>
<rect x="5" y="11" width="1" height="1" fill="#97560c" fill-opacity="0.824"/>
<rect x="6" y="11" width="1" height="1" fill="#8a4d09" fill-opacity="0.996"/>
<rect x="7" y="11" width="1" height="1" fill="#c97c1a"/>
<rect x="8" y="11" width="1" height="1" fill="#fd9f23"/>
<rect x="9" y="11" width="1" height="1" fill="#ffa934"/>
<rect x="10" y="11" width="1" height="1" fill="#ffb74f"/>
<rect x="11" y="11" width="1" height="1" fill="#f4af4e"/>
<rect x="12" y="11" width="1" height="1" fill="#a26012" fill-opacity="0.992"/>
<rect x="13" y="11" width="1" height="1" fill="#91520b" fill-opacity="0.914"/>
<rect x="14" y="11" width="1" height="1" fill="#874a08" fill-opacity="0.035"/>
<rect x="3" y="12" width="1" height="1" fill="#b76c12" fill-opacity="0.094"/>
<rect x="4" y="12" width="1" height="1" fill="#95540b" fill-opacity="0.863"/>
<rect x="5" y="12" width="1" height="1" fill="#94540c" fill-opacity="0.992"/>
<rect x="6" y="12" width="1" height="1" fill="#d9861c"/>
<rect x="7" y="12" width="1" height="1" fill="#ff9c20"/>
<rect x="8" y="12" width="1" height="1" fill="#ffa125"/>
<rect x="9" y="12" width="1" height="1" fill="#ffa427"/>
<rect x="10" y="12" width="1" height="1" fill="#ffa429"/>
<rect x="11" y="12" width="1" height="1" fill="#ffb44b"/>
<rect x="12" y="12" width="1" height="1" fill="#f3ac4e"/>
<rect x="13" y="12" width="1" height="1" fill="#98570f" fill-opacity="0.988"/>
<rect x="14" y="12" width="1" height="1" fill="#96550c" fill-opacity="0.831"/>
<rect x="2" y="13" width="1" height="1" fill="#bb6e12" fill-opacity="0.031"/>
<rect x="3" y="13" width="1" height="1" fill="#9a570c" fill-opacity="0.863"/>
<rect x="4" y="13" width="1" height="1" fill="#9b570c" fill-opacity="0.996"/>
<rect x="5" y="13" width="1" height="1" fill="#e88f1d"/>
<rect x="6" y="13" width="1" height="1" fill="#ff9e21"/>
<rect x="7" y="13" width="1" height="1" fill="#ff9f22"/>
<rect x="8" y="13" width="1" height="1" fill="#ff9f22"/>
<rect x="9" y="13" width="1" height="1" fill="#ff9f22"/>
<rect x="10" y="13" width="1" height="1" fill="#ff9e22"/>
<rect x="11" y="13" width="1" height="1" fill="#ffa024"/>
<rect x="12" y="13" width="1" height="1" fill="#ffb555"/>
<rect x="13" y="13" width="1" height="1" fill="#eca851"/>
<rect x="14" y="13" width="1" height="1" fill="#94550d" fill-opacity="0.984"/>
<rect x="15" y="13" width="1" height="1" fill="#96550b" fill-opacity="0.776"/>
<rect x="16" y="13" width="1" height="1" fill="#874a08" fill-opacity="0.012"/>
<rect x="3" y="14" width="1" height="1" fill="#a85c0e" fill-opacity="0.369"/>
<rect x="4" y="14" width="1" height="1" fill="#8c4608" fill-opacity="0.992"/>
<rect x="5" y="14" width="1" height="1" fill="#d77913"/>
<rect x="6" y="14" width="1" height="1" fill="#ff981b"/>
<rect x="7" y="14" width="1" height="1" fill="#ff9a1d"/>
<rect x="8" y="14" width="1" height="1" fill="#ff9a1d"/>
<rect x="9" y="14" width="1" height="1" fill="#ff9a1d"/>
<rect x="10" y="14" width="1" height="1" fill="#ff9a1d"/>
<rect x="11" y="14" width="1" height="1" fill="#ff9a1d"/>
<rect x="12" y="14" width="1" height="1" fill="#ff9d24"/>
<rect x="13" y="14" width="1" height="1" fill="#ffb860"/>
<rect x="14" y="14" width="1" height="1" fill="#e59a40"/>
<rect x="15" y="14" width="1" height="1" fill="#8f510c" fill-opacity="0.988"/>
<rect x="16" y="14" width="1" height="1" fill="#9b590d" fill-opacity="0.643"/>
<rect x="1" y="15" width="1" height="1" fill="#bb771c" fill-opacity="0.024"/>
<rect x="2" y="15" width="1" height="1" fill="#bb771c" fill-opacity="0.031"/>
<rect x="3" y="15" width="1" height="1" fill="#b65714" fill-opacity="0.024"/>
<rect x="4" y="15" width="1" height="1" fill="#99530c" fill-opacity="0.694"/>
<rect x="5" y="15" width="1" height="1" fill="#9a4309"/>
<rect x="6" y="15" width="1" height="1" fill="#eb7f14"/>
<rect x="7" y="15" width="1" height="1" fill="#ff9518"/>
<rect x="8" y="15" width="1" height="1" fill="#ff9517"/>
<rect x="9" y="15" width="1" height="1" fill="#ff9518"/>
<rect x="10" y="15" width="1" height="1" fill="#ff9518"/>
<rect x="11" y="15" width="1" height="1" fill="#ff9518"/>
<rect x="12" y="15" width="1" height="1" fill="#ff9518"/>
<rect x="13" y="15" width="1" height="1" fill="#ff9b26"/>
<rect x="14" y="15" width="1" height="1" fill="#feaa49"/>
<rect x="15" y="15" width="1" height="1" fill="#e49539" fill-opacity="0.996"/>
<rect x="16" y="15" width="1" height="1" fill="#94550f" fill-opacity="0.984"/>
<rect x="17" y="15" width="1" height="1" fill="#945815" fill-opacity="0.949"/>
<rect x="18" y="15" width="1" height="1" fill="#945816" fill-opacity="0.957"/>
<rect x="19" y="15" width="1" height="1" fill="#915411" fill-opacity="0.957"/>
<rect x="20" y="15" width="1" height="1" fill="#925512" fill-opacity="0.957"/>
<rect x="21" y="15" width="1" height="1" fill="#8f510c" fill-opacity="0.957"/>
<rect x="22" y="15" width="1" height="1" fill="#8f500b" fill-opacity="0.953"/>
<rect x="23" y="15" width="1" height="1" fill="#8f510b" fill-opacity="0.953"/>
<rect x="24" y="15" width="1" height="1" fill="#9a5a0f" fill-opacity="0.878"/>
<rect x="1" y="16" width="1" height="1" fill="#94530b" fill-opacity="0.925"/>
<rect x="2" y="16" width="1" height="1" fill="#874a08" fill-opacity="0.98"/>
<rect x="3" y="16" width="1" height="1" fill="#874a08" fill-opacity="0.98"/>
<rect x="4" y="16" width="1" height="1" fill="#98560c" fill-opacity="0.965"/>
<rect x="5" y="16" width="1" height="1" fill="#ba5b0e" fill-opacity="0.996"/>
<rect x="6" y="16" width="1" height="1" fill="#a64a09"/>
<rect x="7" y="16" width="1" height="1" fill="#f88911"/>
<rect x="8" y="16" width="1" height="1" fill="#ff8f11"/>
<rect x="9" y="16" width="1" height="1" fill="#ff8f12"/>
<rect x="10" y="16" width="1" height="1" fill="#ff8f11"/>
<rect x="11" y="16" width="1" height="1" fill="#ff8f12"/>
<rect x="12" y="16" width="1" height="1" fill="#ff8f12"/>
<rect x="13" y="16" width="1" height="1" fill="#ff8f12"/>
<rect x="14" y="16" width="1" height="1" fill="#ff9621"/>
<rect x="15" y="16" width="1" height="1" fill="#ffb463"/>
<rect x="16" y="16" width="1" height="1" fill="#faac57"/>
<rect x="17" y="16" width="1" height="1" fill="#f9a950"/>
<rect x="18" y="16" width="1" height="1" fill="#fba74a"/>
<rect x="19" y="16" width="1" height="1" fill="#fca343"/>
<rect x="20" y="16" width="1" height="1" fill="#fb9f3d"/>
<rect x="21" y="16" width="1" height="1" fill="#f6962e"/>
<rect x="22" y="16" width="1" height="1" fill="#f38f25"/>
<rect x="23" y="16" width="1" height="1" fill="#e68013"/>
<rect x="24" y="16" width="1" height="1" fill="#7d4306" fill-opacity="0.996"/>
<rect x="1" y="17" width="1" height="1" fill="#884806" fill-opacity="0.98"/>
<rect x="2" y="17" width="1" height="1" fill="#ec7f0b"/>
<rect x="3" y="17" width="1" height="1" fill="#ed7f0b"/>
<rect x="4" y="17" width="1" height="1" fill="#ec7f0b"/>
<rect x="5" y="17" width="1" height="1" fill="#fd880d"/>
<rect x="6" y="17" width="1" height="1" fill="#f1810c"/>
<rect x="7" y="17" width="1" height="1" fill="#fa870c"/>
<rect x="8" y="17" width="1" height="1" fill="#ff8a0d"/>
<rect x="9" y="17" width="1" height="1" fill="#ff8a0c"/>
<rect x="10" y="17" width="1" height="1" fill="#ff8a0c"/>
<rect x="11" y="17" width="1" height="1" fill="#ff8a0c"/>
<rect x="12" y="17" width="1" height="1" fill="#ff8a0c"/>
<rect x="13" y="17" width="1" height="1" fill="#ff8a0d"/>
<rect x="14" y="17" width="1" height="1" fill="#ff8a0d"/>
<rect x="15" y="17" width="1" height="1" fill="#ff8f16"/>
<rect x="16" y="17" width="1" height="1" fill="#ff931f"/>
<rect x="17" y="17" width="1" height="1" fill="#ff921d"/>
<rect x="18" y="17" width="1" height="1" fill="#ff9018"/>
<rect x="19" y="17" width="1" height="1" fill="#ff8c11"/>
<rect x="20" y="17" width="1" height="1" fill="#ff8a0d"/>
<rect x="21" y="17" width="1" height="1" fill="#ff8a0d"/>
<rect x="22" y="17" width="1" height="1" fill="#ff890c"/>
<rect x="23" y="17" width="1" height="1" fill="#fa880e"/>
<rect x="24" y="17" width="1" height="1" fill="#814507" fill-opacity="0.996"/>
<rect x="1" y="18" width="1" height="1" fill="#894805" fill-opacity="0.98"/>
<rect x="2" y="18" width="1" height="1" fill="#eb7c08"/>
<rect x="3" y="18" width="1" height="1" fill="#f58108"/>
<rect x="4" y="18" width="1" height="1" fill="#f58108"/>
<rect x="5" y="18" width="1" height="1" fill="#f58108"/>
<rect x="6" y="18" width="1" height="1" fill="#f58108"/>
<rect x="7" y="18" width="1" height="1" fill="#f58108"/>
<rect x="8" y="18" width="1" height="1" fill="#f58108"/>
<rect x="9" y="18" width="1" height="1" fill="#f58108"/>
<rect x="10" y="18" width="1" height="1" fill="#f58108"/>
<rect x="11" y="18" width="1" height="1" fill="#f58108"/>
<rect x="12" y="18" width="1" height="1" fill="#f58108"/>
<rect x="13" y="18" width="1" height="1" fill="#f58108"/>
<rect x="14" y="18" width="1" height="1" fill="#f58108"/>
<rect x="15" y="18" width="1" height="1" fill="#f58108"/>
<rect x="16" y="18" width="1" height="1" fill="#f58108"/>
<rect x="17" y="18" width="1" height="1" fill="#f58108"/>
<rect x="18" y="18" width="1" height="1" fill="#f58108"/>
<rect x="19" y="18" width="1" height="1" fill="#f58108"/>
<rect x="20" y="18" width="1" height="1" fill="#f58108"/>
<rect x="21" y="18" width="1" height="1" fill="#f58108"/>
<rect x="22" y="18" width="1" height="1" fill="#f67f06"/>
<rect x="23" y="18" width="1" height="1" fill="#f6850c"/>
<rect x="24" y="18" width="1" height="1" fill="#7f4406" fill-opacity="0.996"/>
<rect x="1" y="19" width="1" height="1" fill="#904b05" fill-opacity="0.953"/>
<rect x="2" y="19" width="1" height="1" fill="#804305" fill-opacity="0.996"/>
<rect x="3" y="19" width="1" height="1" fill="#804305" fill-opacity="0.996"/>
<rect x="4" y="19" width="1" height="1" fill="#804305" fill-opacity="0.996"/>
<rect x="5" y="19" width="1" height="1" fill="#804305" fill-opacity="0.996"/>
<rect x="6" y="19" width="1" height="1" fill="#804305" fill-opacity="0.996"/>
<rect x="7" y="19" width="1" height="1" fill="#804305" fill-opacity="0.996"/>
<rect x="8" y="19" width="1" height="1" fill="#804305" fill-opacity="0.996"/>
<rect x="9" y="19" width="1" height="1" fill="#804305" fill-opacity="0.996"/>
<rect x="10" y="19" width="1" height="1" fill="#804305" fill-opacity="0.996"/>
<rect x="11" y="19" width="1" height="1" fill="#804305" fill-opacity="0.996"/>
<rect x="12" y="19" width="1" height="1" fill="#804305" fill-opacity="0.996"/>
<rect x="13" y="19" width="1" height="1" fill="#804305" fill-opacity="0.996"/>
<rect x="14" y="19" width="1" height="1" fill="#804305" fill-opacity="0.996"/>
<rect x="15" y="19" width="1" height="1" fill="#804305" fill-opacity="0.996"/>
<rect x="16" y="19" width="1" height="1" fill="#804305" fill-opacity="0.996"/>
<rect x="17" y="19" width="1" height="1" fill="#804305" fill-opacity="0.996"/>
<rect x="18" y="19" width="1" height="1" fill="#804305" fill-opacity="0.996"/>
<rect x="19" y="19" width="1" height="1" fill="#804305" fill-opacity="0.996"/>
<rect x="20" y="19" width="1" height="1" fill="#804305" fill-opacity="0.996"/>
<rect x="21" y="19" width="1" height="1" fill="#804305" fill-opacity="0.996"/>
<rect x="22" y="19" width="1" height="1" fill="#804305" fill-opacity="0.996"/>
<rect x="23" y="19" width="1" height="1" fill="#7b4105"/>
<rect x="24" y="19" width="1" height="1" fill="#884906" fill-opacity="0.98"/>
</svg>