<?xml version="1.0" encoding="UTF-8" standalone="no"?>
<svg xmlns="http://www.w3.org/2000/svg" width="26" height="21" shape-rendering="crispEdges">
<rect x="8" y="8" width="1" height="1" fill="#5cd035" fill-opacity="0.122"/>
<rect x="9" y="8" width="1" height="1" fill="#4cc125" fill-opacity="0.776"/>
<rect x="10" y="8" width="1" height="1" fill="#3bb114" fill-opacity="0.984"/>
<rect x="11" y="8" width="1" height="1" fill="#50c629" fill-opacity="0.498"/>
<rect x="7" y="9" width="1" height="1" fill="#5ad033" fill-opacity="0.082"/>
<rect x="8" y="9" width="1" height="1" fill="#46bb1f" fill-opacity="0.894"/>
<rect x="9" y="9" width="1" height="1" fill="#4ec427" fill-opacity="0.976"/>
<rect x="10" y="9" width="1" height="1" fill="#45be1e"/>
<rect x="11" y="9" width="1" height="1" fill="#3cb314" fill-opacity="0.973"/>
<rect x="12" y="9" width="1" height="1" fill="#38b010" fill-opacity="0.075"/>
<rect x="6" y="10" width="1" height="1" fill="#55cd2e" fill-opacity="0.361"/>
<rect x="7" y="10" width="1" height="1" fill="#3db315" fill-opacity="0.976"/>
<rect x="8" y="10" width="1" height="1" fill="#45bd1e" fill-opacity="0.996"/>
<rect x="9" y="10" width="1" height="1" fill="#6ce145"/>
<rect x="10" y="10" width="1" height="1" fill="#7bf354"/>
<rect x="11" y="10" width="1" height="1" fill="#48bf21" fill-opacity="0.996"/>
<rect x="12" y="10" width="1" height="1" fill="#3cb414" fill-opacity="0.949"/>
<rect x="13" y="10" width="1" height="1" fill="#38b010" fill-opacity="0.043"/>
<rect x="5" y="11" width="1" height="1" fill="#4ac322" fill-opacity="0.729"/>
<rect x="6" y="11" width="1" height="1" fill="#3bb414" fill-opacity="0.992"/>
<rect x="7" y="11" width="1" height="1" fill="#47c11f"/>
<rect x="8" y="11" width="1" height="1" fill="#7ce55b"/>
<rect x="9" y="11" width="1" height="1" fill="#9dfb7d"/>
<rect x="10" y="11" width="1" height="1" fill="#9dfb7f"/>
<rect x="11" y="11" width="1" height="1" fill="#97f677"/>
<rect x="12" y="11" width="1" height="1" fill="#4dc325" fill-opacity="0.996"/>
<rect x="13" y="11" width="1" height="1" fill="#3eb616" fill-opacity="0.929"/>
<rect x="14" y="11" width="1" height="1" fill="#38b010" fill-opacity="0.059"/>
<rect x="3" y="12" width="1" height="1" fill="#50d125" fill-opacity="0.137"/>
<rect x="4" y="12" width="1" height="1" fill="#45c01d" fill-opacity="0.792"/>
<rect x="5" y="12" width="1" height="1" fill="#40ba18" fill-opacity="0.996"/>
<rect x="6" y="12" width="1" height="1" fill="#52cc29"/>
<rect x="7" y="12" width="1" height="1" fill="#92f472"/>
<rect x="8" y="12" width="1" height="1" fill="#9efb7f"/>
<rect x="9" y="12" width="1" height="1" fill="#94fc71"/>
<rect x="10" y="12" width="1" height="1" fill="#95fb75"/>
<rect x="11" y="12" width="1" height="1" fill="#a0fb82"/>
<rect x="12" y="12" width="1" height="1" fill="#99f67b"/>
<rect x="13" y="12" width="1" height="1" fill="#46bf1d" fill-opacity="0.992"/>
<rect x="14" y="12" width="1" height="1" fill="#40b918" fill-opacity="0.847"/>
<rect x="15" y="12" width="1" height="1" fill="#38b010" fill-opacity="0.004"/>
<rect x="2" y="13" width="1" height="1" fill="#4fd223" fill-opacity="0.031"/>
<rect x="3" y="13" width="1" height="1" fill="#40bb17" fill-opacity="0.886"/>
<rect x="4" y="13" width="1" height="1" fill="#3fb917" fill-opacity="0.996"/>
<rect x="5" y="13" width="1" height="1" fill="#55d72a"/>
<rect x="6" y="13" width="1" height="1" fill="#99fa79"/>
<rect x="7" y="13" width="1" height="1" fill="#9efb7f"/>
<rect x="8" y="13" width="1" height="1" fill="#97fb75"/>
<rect x="9" y="13" width="1" height="1" fill="#9dfb7e"/>
<rect x="10" y="13" width="1" height="1" fill="#9efb7f"/>
<rect x="11" y="13" width="1" height="1" fill="#93fc70"/>
<rect x="12" y="13" width="1" height="1" fill="#9efb80"/>
<rect x="13" y="13" width="1" height="1" fill="#92f471"/>
<rect x="14" y="13" width="1" height="1" fill="#44bc1c" fill-opacity="0.996"/>
<rect x="15" y="13" width="1" height="1" fill="#41bb18" fill-opacity="0.78"/>
<rect x="16" y="13" width="1" height="1" fill="#38b010" fill-opacity="0.004"/>
<rect x="3" y="14" width="1" height="1" fill="#46c21c" fill-opacity="0.392"/>
<rect x="4" y="14" width="1" height="1" fill="#39b211" fill-opacity="0.996"/>
<rect x="5" y="14" width="1" height="1" fill="#54de26"/>
<rect x="6" y="14" width="1" height="1" fill="#93fc70"/>
<rect x="7" y="14" width="1" height="1" fill="#9afb7a"/>
<rect x="8" y="14" width="1" height="1" fill="#9ffb80"/>
<rect x="9" y="14" width="1" height="1" fill="#9cfb7d"/>
<rect x="10" y="14" width="1" height="1" fill="#7ffd54"/>
<rect x="11" y="14" width="1" height="1" fill="#6bff39"/>
<rect x="12" y="14" width="1" height="1" fill="#73fe44"/>
<rect x="13" y="14" width="1" height="1" fill="#9afb7a"/>
<rect x="14" y="14" width="1" height="1" fill="#8cf16a"/>
<rect x="15" y="14" width="1" height="1" fill="#47bd21" fill-opacity="0.996"/>
<rect x="16" y="14" width="1" height="1" fill="#44bb1c" fill-opacity="0.71"/>
<rect x="17" y="14" width="1" height="1" fill="#38b010" fill-opacity="0.012"/>
<rect x="1" y="15" width="1" height="1" fill="#61d23c" fill-opacity="0.024"/>
<rect x="2" y="15" width="1" height="1" fill="#62d23d" fill-opacity="0.031"/>
<rect x="3" y="15" width="1" height="1" fill="#5fd23a" fill-opacity="0.016"/>
<rect x="4" y="15" width="1" height="1" fill="#40ba18" fill-opacity="0.737"/>
<rect x="5" y="15" width="1" height="1" fill="#3ab412"/>
<rect x="6" y="15" width="1" height="1" fill="#5df32a"/>
<rect x="7" y="15" width="1" height="1" fill="#8ffc6b"/>
<rect x="8" y="15" width="1" height="1" fill="#91fc6e"/>
<rect x="9" y="15" width="1" height="1" fill="#6dfe3c"/>
<rect x="10" y="15" width="1" height="1" fill="#62ff2d"/>
<rect x="11" y="15" width="1" height="1" fill="#62ff2d"/>
<rect x="12" y="15" width="1" height="1" fill="#62ff2d"/>
<rect x="13" y="15" width="1" height="1" fill="#67fe34"/>
<rect x="14" y="15" width="1" height="1" fill="#8dfc68"/>
<rect x="15" y="15" width="1" height="1" fill="#85ef62"/>
<rect x="16" y="15" width="1" height="1" fill="#44ba1d" fill-opacity="0.992"/>
<rect x="17" y="15" width="1" height="1" fill="#42b91a" fill-opacity="0.914"/>
<rect x="18" y="15" width="1" height="1" fill="#42ba1a" fill-opacity="0.91"/>
<rect x="19" y="15" width="1" height="1" fill="#42ba1a" fill-opacity="0.91"/>
<rect x="20" y="15" width="1" height="1" fill="#42ba1a" fill-opacity="0.91"/>
<rect x="21" y="15" width="1" height="1" fill="#42ba1a" fill-opacity="0.91"/>
<rect x="22" y="15" width="1" height="1" fill="#42ba1a" fill-opacity="0.914"/>
<rect x="23" y="15" width="1" height="1" fill="#41b819" fill-opacity="0.929"/>
<rect x="24" y="15" width="1" height="1" fill="#46bd1f" fill-opacity="0.875"/>
<rect x="1" y="16" width="1" height="1" fill="#3fb916" fill-opacity="0.925"/>
<rect x="2" y="16" width="1" height="1" fill="#38b010" fill-opacity="0.98"/>
<rect x="3" y="16" width="1" height="1" fill="#38b010" fill-opacity="0.98"/>
<rect x="4" y="16" width="1" height="1" fill="#40ba17" fill-opacity="0.969"/>
<rect x="5" y="16" width="1" height="1" fill="#3db814"/>
<rect x="6" y="16" width="1" height="1" fill="#3dbc13"/>
<rect x="7" y="16" width="1" height="1" fill="#59fe22"/>
<rect x="8" y="16" width="1" height="1" fill="#5afe22"/>
<rect x="9" y="16" width="1" height="1" fill="#59ff22"/>
<rect x="10" y="16" width="1" height="1" fill="#5aff22"/>
<rect x="11" y="16" width="1" height="1" fill="#5afe22"/>
<rect x="12" y="16" width="1" height="1" fill="#59ff22"/>
<rect x="13" y="16" width="1" height="1" fill="#5aff22"/>
<rect x="14" y="16" width="1" height="1" fill="#5bff24"/>
<rect x="15" y="16" width="1" height="1" fill="#7cfc51"/>
<rect x="16" y="16" width="1" height="1" fill="#65f336"/>
<rect x="17" y="16" width="1" height="1" fill="#4de319" fill-opacity="0.996"/>
<rect x="18" y="16" width="1" height="1" fill="#4ce41a" fill-opacity="0.996"/>
<rect x="19" y="16" width="1" height="1" fill="#4ce419" fill-opacity="0.996"/>
<rect x="20" y="16" width="1" height="1" fill="#4ce41a" fill-opacity="0.996"/>
<rect x="21" y="16" width="1" height="1" fill="#4ce41a" fill-opacity="0.996"/>
<rect x="22" y="16" width="1" height="1" fill="#4ae517" fill-opacity="0.996"/>
<rect x="23" y="16" width="1" height="1" fill="#51e820" fill-opacity="0.996"/>
<rect x="24" y="16" width="1" height="1" fill="#34aa0c" fill-opacity="0.996"/>
<rect x="1" y="17" width="1" height="1" fill="#35b10b" fill-opacity="0.98"/>
<rect x="2" y="17" width="1" height="1" fill="#48e912"/>
<rect x="3" y="17" width="1" height="1" fill="#47ea12"/>
<rect x="4" y="17" width="1" height="1" fill="#46e311"/>
<rect x="5" y="17" width="1" height="1" fill="#45dc13"/>
<rect x="6" y="17" width="1" height="1" fill="#44d713"/>
<rect x="7" y="17" width="1" height="1" fill="#4ef716"/>
<rect x="8" y="17" width="1" height="1" fill="#4ff917"/>
<rect x="9" y="17" width="1" height="1" fill="#4ffb17"/>
<rect x="10" y="17" width="1" height="1" fill="#50fc18"/>
<rect x="11" y="17" width="1" height="1" fill="#50fd18"/>
<rect x="12" y="17" width="1" height="1" fill="#51ff18"/>
<rect x="13" y="17" width="1" height="1" fill="#51ff18"/>
<rect x="14" y="17" width="1" height="1" fill="#51ff18"/>
<rect x="15" y="17" width="1" height="1" fill="#52ff1a"/>
<rect x="16" y="17" width="1" height="1" fill="#54ff1b"/>
<rect x="17" y="17" width="1" height="1" fill="#50fe17"/>
<rect x="18" y="17" width="1" height="1" fill="#51fe17"/>
<rect x="19" y="17" width="1" height="1" fill="#51fd16"/>
<rect x="20" y="17" width="1" height="1" fill="#51fd17"/>
<rect x="21" y="17" width="1" height="1" fill="#51fe17"/>
<rect x="22" y="17" width="1" height="1" fill="#4efe13"/>
<rect x="23" y="17" width="1" height="1" fill="#54f81d"/>
<rect x="24" y="17" width="1" height="1" fill="#35ac0d" fill-opacity="0.996"/>
<rect x="1" y="18" width="1" height="1" fill="#34b20b" fill-opacity="0.98"/>
<rect x="2" y="18" width="1" height="1" fill="#3dd20b"/>
<rect x="3" y="18" width="1" height="1" fill="#3ed40c"/>
<rect x="4" y="18" width="1" height="1" fill="#42de0f"/>
<rect x="5" y="18" width="1" height="1" fill="#44e310"/>
<rect x="6" y="18" width="1" height="1" fill="#44e30f"/>
<rect x="7" y="18" width="1" height="1" fill="#45e510"/>
<rect x="8" y="18" width="1" height="1" fill="#45e610"/>
<rect x="9" y="18" width="1" height="1" fill="#45e710"/>
<rect x="10" y="18" width="1" height="1" fill="#46ea11"/>
<rect x="11" y="18" width="1" height="1" fill="#47ec11"/>
<rect x="12" y="18" width="1" height="1" fill="#47ed11"/>
<rect x="13" y="18" width="1" height="1" fill="#47ef11"/>
<rect x="14" y="18" width="1" height="1" fill="#48f310"/>
<rect x="15" y="18" width="1" height="1" fill="#49f710"/>
<rect x="16" y="18" width="1" height="1" fill="#49f90f"/>
<rect x="17" y="18" width="1" height="1" fill="#49fa0f"/>
<rect x="18" y="18" width="1" height="1" fill="#48f90f"/>
<rect x="19" y="18" width="1" height="1" fill="#48f90e"/>
<rect x="20" y="18" width="1" height="1" fill="#48f90e"/>
<rect x="21" y="18" width="1" height="1" fill="#48f90e"/>
<rect x="22" y="18" width="1" height="1" fill="#45f909"/>
<rect x="23" y="18" width="1" height="1" fill="#4ff917"/>
<rect x="24" y="18" width="1" height="1" fill="#34ab0c" fill-opacity="0.996"/>
<rect x="1" y="19" width="1" height="1" fill="#34b609" fill-opacity="0.953"/>
<rect x="2" y="19" width="1" height="1" fill="#33b10a" fill-opacity="0.996"/>
<rect x="3" y="19" width="1" height="1" fill="#33b209"/>
<rect x="4" y="19" width="1" height="1" fill="#34b40a"/>
<rect x="5" y="19" width="1" height="1" fill="#34b30a"/>
<rect x="6" y="19" width="1" height="1" fill="#33b209"/>
<rect x="7" y="19" width="1" height="1" fill="#33b10a" fill-opacity="0.996"/>
<rect x="8" y="19" width="1" height="1" fill="#33af0a" fill-opacity="0.996"/>
<rect x="9" y="19" width="1" height="1" fill="#33af0a" fill-opacity="0.996"/>
<rect x="10" y="19" width="1" height="1" fill="#32ae0a" fill-opacity="0.996"/>
<rect x="11" y="19" width="1" height="1" fill="#32ad0a" fill-opacity="0.996"/>
<rect x="12" y="19" width="1" height="1" fill="#33ae0a" fill-opacity="0.996"/>
<rect x="13" y="19" width="1" height="1" fill="#33af0a" fill-opacity="0.996"/>
<rect x="14" y="19" width="1" height="1" fill="#33b00a" fill-opacity="0.996"/>
<rect x="15" y="19" width="1" height="1" fill="#34b10b" fill-opacity="0.996"/>
<rect x="16" y="19" width="1" height="1" fill="#34b00b" fill-opacity="0.996"/>
<rect x="17" y="19" width="1" height="1" fill="#33b00b" fill-opacity="0.996"/>
<rect x="18" y="19" width="1" height="1" fill="#32ad0a" fill-opacity="0.996"/>
<rect x="19" y="19" width="1" height="1" fill="#32ac0a" fill-opacity="0.996"/>
<rect x="20" y="19" width="1" height="1" fill="#32ac0a" fill-opacity="0.996"/>
<rect x="21" y="19" width="1" height="1" fill="#32ac0a" fill-opacity="0.996"/>
<rect x="22" y="19" width="1" height="1" fill="#32ac0a" fill-opacity="0.996"/>
<rect x="23" y="19" width="1" height="1" fill="#32a90a"/>
<rect x="24" y="19" width="1" height="1" fill="#36b10c" fill-opacity="0.98"/>
</svg>