<?xml version="1.0" encoding="UTF-8" standalone="no"?>
<svg xmlns="http://www.w3.org/2000/svg" width="26" height="21" shape-rendering="crispEdges">
<rect x="8" y="8" width="1" height="1" fill="#0870cc" fill-opacity="0.141"/>
<rect x="9" y="8" width="1" height="1" fill="#0a5cc0" fill-opacity="0.859"/>
<rect x="10" y="8" width="1" height="1" fill="#0a4eba" fill-opacity="0.996"/>
<rect x="11" y="8" width="1" height="1" fill="#0a69c6" fill-opacity="0.525"/>
<rect x="12" y="8" width="1" height="1" fill="#0a4ebc" fill-opacity="0.004"/>
<rect x="7" y="9" width="1" height="1" fill="#0a59c1" fill-opacity="0.18"/>
<rect x="8" y="9" width="1" height="1" fill="#0a4fba" fill-opacity="0.961"/>
<rect x="9" y="9" width="1" height="1" fill="#1363c3" fill-opacity="0.988"/>
<rect x="10" y="9" width="1" height="1" fill="#0e6ccb"/>
<rect x="11" y="9" width="1" height="1" fill="#0c4cb7" fill-opacity="0.98"/>
<rect x="12" y="9" width="1" height="1" fill="#0c46b7" fill-opacity="0.231"/>
<rect x="6" y="10" width="1" height="1" fill="#0a5ec3" fill-opacity="0.486"/>
<rect x="7" y="10" width="1" height="1" fill="#0c4bb6" fill-opacity="0.988"/>
<rect x="8" y="10" width="1" height="1" fill="#176fcd" fill-opacity="0.996"/>
<rect x="9" y="10" width="1" height="1" fill="#37aaf4"/>
<rect x="10" y="10" width="1" height="1" fill="#58befc"/>
<rect x="11" y="10" width="1" height="1" fill="#1969c7" fill-opacity="0.996"/>
<rect x="12" y="10" width="1" height="1" fill="#0c49b7" fill-opacity="0.969"/>
<rect x="13" y="10" width="1" height="1" fill="#0c46b6" fill-opacity="0.133"/>
<rect x="5" y="11" width="1" height="1" fill="#0a59c1" fill-opacity="0.784"/>
<rect x="6" y="11" width="1" height="1" fill="#0c46b5" fill-opacity="0.996"/>
<rect x="7" y="11" width="1" height="1" fill="#267ed5"/>
<rect x="8" y="11" width="1" height="1" fill="#4cb3fb"/>
<rect x="9" y="11" width="1" height="1" fill="#2faafe"/>
<rect x="10" y="11" width="1" height="1" fill="#45b1fe"/>
<rect x="11" y="11" width="1" height="1" fill="#5bbafb"/>
<rect x="12" y="11" width="1" height="1" fill="#1a63c3" fill-opacity="0.992"/>
<rect x="13" y="11" width="1" height="1" fill="#0c46b4" fill-opacity="0.98"/>
<rect x="14" y="11" width="1" height="1" fill="#0c43b4" fill-opacity="0.251"/>
<rect x="3" y="12" width="1" height="1" fill="#0a64d3" fill-opacity="0.122"/>
<rect x="4" y="12" width="1" height="1" fill="#0b54c0" fill-opacity="0.835"/>
<rect x="5" y="12" width="1" height="1" fill="#0a4dba" fill-opacity="0.996"/>
<rect x="6" y="12" width="1" height="1" fill="#1570d5"/>
<rect x="7" y="12" width="1" height="1" fill="#53b2fc"/>
<rect x="8" y="12" width="1" height="1" fill="#259bfe"/>
<rect x="9" y="12" width="1" height="1" fill="#0e91fe"/>
<rect x="10" y="12" width="1" height="1" fill="#0a8dff"/>
<rect x="11" y="12" width="1" height="1" fill="#2ea0ff"/>
<rect x="12" y="12" width="1" height="1" fill="#5cb3fa"/>
<rect x="13" y="12" width="1" height="1" fill="#1e60bf" fill-opacity="0.992"/>
<rect x="14" y="12" width="1" height="1" fill="#0c45b4" fill-opacity="0.965"/>
<rect x="15" y="12" width="1" height="1" fill="#0c42b4" fill-opacity="0.129"/>
<rect x="2" y="13" width="1" height="1" fill="#0a5fd4" fill-opacity="0.031"/>
<rect x="3" y="13" width="1" height="1" fill="#0a4ebc" fill-opacity="0.894"/>
<rect x="4" y="13" width="1" height="1" fill="#0a4ebd" fill-opacity="0.996"/>
<rect x="5" y="13" width="1" height="1" fill="#0b6bd9"/>
<rect x="6" y="13" width="1" height="1" fill="#349afb"/>
<rect x="7" y="13" width="1" height="1" fill="#208df9"/>
<rect x="8" y="13" width="1" height="1" fill="#0e83fc"/>
<rect x="9" y="13" width="1" height="1" fill="#0981ff"/>
<rect x="10" y="13" width="1" height="1" fill="#067eff"/>
<rect x="11" y="13" width="1" height="1" fill="#067eff"/>
<rect x="12" y="13" width="1" height="1" fill="#2d96ff"/>
<rect x="13" y="13" width="1" height="1" fill="#69b2fa"/>
<rect x="14" y="13" width="1" height="1" fill="#2460bd" fill-opacity="0.992"/>
<rect x="15" y="13" width="1" height="1" fill="#0c43b4" fill-opacity="0.937"/>
<rect x="16" y="13" width="1" height="1" fill="#0c42b1" fill-opacity="0.106"/>
<rect x="3" y="14" width="1" height="1" fill="#0a4ebc" fill-opacity="0.71"/>
<rect x="4" y="14" width="1" height="1" fill="#0a4cbb"/>
<rect x="5" y="14" width="1" height="1" fill="#0f66db"/>
<rect x="6" y="14" width="1" height="1" fill="#248ffb"/>
<rect x="7" y="14" width="1" height="1" fill="#258cf6"/>
<rect x="8" y="14" width="1" height="1" fill="#0f79f8"/>
<rect x="9" y="14" width="1" height="1" fill="#0973fb"/>
<rect x="10" y="14" width="1" height="1" fill="#0772ff"/>
<rect x="11" y="14" width="1" height="1" fill="#0873ff"/>
<rect x="12" y="14" width="1" height="1" fill="#0872ff"/>
<rect x="13" y="14" width="1" height="1" fill="#2083ff"/>
<rect x="14" y="14" width="1" height="1" fill="#539bf2"/>
<rect x="15" y="14" width="1" height="1" fill="#2c65ba" fill-opacity="0.996"/>
<rect x="16" y="14" width="1" height="1" fill="#0c45b2" fill-opacity="0.933"/>
<rect x="17" y="14" width="1" height="1" fill="#0c41b0" fill-opacity="0.024"/>
<rect x="1" y="15" width="1" height="1" fill="#068ad4" fill-opacity="0.024"/>
<rect x="2" y="15" width="1" height="1" fill="#068bd4" fill-opacity="0.031"/>
<rect x="3" y="15" width="1" height="1" fill="#0a59c0" fill-opacity="0.078"/>
<rect x="4" y="15" width="1" height="1" fill="#0a4dbc" fill-opacity="0.961"/>
<rect x="5" y="15" width="1" height="1" fill="#0c4fbc"/>
<rect x="6" y="15" width="1" height="1" fill="#1b6ede"/>
<rect x="7" y="15" width="1" height="1" fill="#2a8ef9"/>
<rect x="8" y="15" width="1" height="1" fill="#147bf8"/>
<rect x="9" y="15" width="1" height="1" fill="#0b71fa"/>
<rect x="10" y="15" width="1" height="1" fill="#0a6cfc"/>
<rect x="11" y="15" width="1" height="1" fill="#0867ff"/>
<rect x="12" y="15" width="1" height="1" fill="#0867ff"/>
<rect x="13" y="15" width="1" height="1" fill="#0a66ff"/>
<rect x="14" y="15" width="1" height="1" fill="#166dff"/>
<rect x="15" y="15" width="1" height="1" fill="#559df2" fill-opacity="0.996"/>
<rect x="16" y="15" width="1" height="1" fill="#3e79c7" fill-opacity="0.996"/>
<rect x="17" y="15" width="1" height="1" fill="#1f5cbd" fill-opacity="0.984"/>
<rect x="18" y="15" width="1" height="1" fill="#1453bc" fill-opacity="0.98"/>
<rect x="19" y="15" width="1" height="1" fill="#0e4eba" fill-opacity="0.98"/>
<rect x="20" y="15" width="1" height="1" fill="#0f4db9" fill-opacity="0.98"/>
<rect x="21" y="15" width="1" height="1" fill="#0d4ab6" fill-opacity="0.984"/>
<rect x="22" y="15" width="1" height="1" fill="#0c49b3" fill-opacity="0.98"/>
<rect x="23" y="15" width="1" height="1" fill="#0c49b2" fill-opacity="0.984"/>
<rect x="24" y="15" width="1" height="1" fill="#0a51b5" fill-opacity="0.949"/>
<rect x="25" y="15" width="1" height="1" fill="#052fbd" fill-opacity="0.325"/>
<rect x="1" y="16" width="1" height="1" fill="#0a4cb6" fill-opacity="0.961"/>
<rect x="2" y="16" width="1" height="1" fill="#0c46b1" fill-opacity="0.992"/>
<rect x="3" y="16" width="1" height="1" fill="#0a47b2" fill-opacity="0.988"/>
<rect x="4" y="16" width="1" height="1" fill="#0c4db8" fill-opacity="0.984"/>
<rect x="5" y="16" width="1" height="1" fill="#0b4cc0"/>
<rect x="6" y="16" width="1" height="1" fill="#0c4ec1"/>
<rect x="7" y="16" width="1" height="1" fill="#186cf3"/>
<rect x="8" y="16" width="1" height="1" fill="#1872f7"/>
<rect x="9" y="16" width="1" height="1" fill="#0d6cf6"/>
<rect x="10" y="16" width="1" height="1" fill="#0a66fb"/>
<rect x="11" y="16" width="1" height="1" fill="#0a60ff"/>
<rect x="12" y="16" width="1" height="1" fill="#0960ff"/>
<rect x="13" y="16" width="1" height="1" fill="#0a61ff"/>
<rect x="14" y="16" width="1" height="1" fill="#0a61ff"/>
<rect x="15" y="16" width="1" height="1" fill="#0c63ff"/>
<rect x="16" y="16" width="1" height="1" fill="#2275fb"/>
<rect x="17" y="16" width="1" height="1" fill="#2776f4"/>
<rect x="18" y="16" width="1" height="1" fill="#1c6af3"/>
<rect x="19" y="16" width="1" height="1" fill="#1863f1"/>
<rect x="20" y="16" width="1" height="1" fill="#145bf0"/>
<rect x="21" y="16" width="1" height="1" fill="#1155f1"/>
<rect x="22" y="16" width="1" height="1" fill="#0c4ceb"/>
<rect x="23" y="16" width="1" height="1" fill="#0a51d9" fill-opacity="0.996"/>
<rect x="24" y="16" width="1" height="1" fill="#0c45ad" fill-opacity="0.996"/>
<rect x="25" y="16" width="1" height="1" fill="#052fbd" fill-opacity="0.337"/>
<rect x="1" y="17" width="1" height="1" fill="#0c41b2" fill-opacity="0.992"/>
<rect x="2" y="17" width="1" height="1" fill="#0c41dd"/>
<rect x="3" y="17" width="1" height="1" fill="#0c41ec"/>
<rect x="4" y="17" width="1" height="1" fill="#0c41ee"/>
<rect x="5" y="17" width="1" height="1" fill="#0c46fb"/>
<rect x="6" y="17" width="1" height="1" fill="#0a49fb"/>
<rect x="7" y="17" width="1" height="1" fill="#0c4cf8"/>
<rect x="8" y="17" width="1" height="1" fill="#0e55fb"/>
<rect x="9" y="17" width="1" height="1" fill="#0c59f7"/>
<rect x="10" y="17" width="1" height="1" fill="#0b58fb"/>
<rect x="11" y="17" width="1" height="1" fill="#0a55fe"/>
<rect x="12" y="17" width="1" height="1" fill="#0a5aff"/>
<rect x="13" y="17" width="1" height="1" fill="#095fff"/>
<rect x="14" y="17" width="1" height="1" fill="#0962ff"/>
<rect x="15" y="17" width="1" height="1" fill="#0964ff"/>
<rect x="16" y="17" width="1" height="1" fill="#0a65ff"/>
<rect x="17" y="17" width="1" height="1" fill="#0b66fe"/>
<rect x="18" y="17" width="1" height="1" fill="#0d65fd"/>
<rect x="19" y="17" width="1" height="1" fill="#0d64fd"/>
<rect x="20" y="17" width="1" height="1" fill="#0e61fd"/>
<rect x="21" y="17" width="1" height="1" fill="#0e58fd"/>
<rect x="22" y="17" width="1" height="1" fill="#0d4bfe"/>
<rect x="23" y="17" width="1" height="1" fill="#0a56f8"/>
<rect x="24" y="17" width="1" height="1" fill="#0c47af" fill-opacity="0.996"/>
<rect x="1" y="18" width="1" height="1" fill="#0c41b2" fill-opacity="0.988"/>
<rect x="2" y="18" width="1" height="1" fill="#0c3cd5"/>
<rect x="3" y="18" width="1" height="1" fill="#0c38fa"/>
<rect x="4" y="18" width="1" height="1" fill="#0c38fa"/>
<rect x="5" y="18" width="1" height="1" fill="#0c38fa"/>
<rect x="6" y="18" width="1" height="1" fill="#0d38fa"/>
<rect x="7" y="18" width="1" height="1" fill="#0c39fa"/>
<rect x="8" y="18" width="1" height="1" fill="#0c39fa"/>
<rect x="9" y="18" width="1" height="1" fill="#0c3bf8"/>
<rect x="10" y="18" width="1" height="1" fill="#0d39fa"/>
<rect x="11" y="18" width="1" height="1" fill="#0c3cfa"/>
<rect x="12" y="18" width="1" height="1" fill="#0c40fa"/>
<rect x="13" y="18" width="1" height="1" fill="#0c43fa"/>
<rect x="14" y="18" width="1" height="1" fill="#0c47fb"/>
<rect x="15" y="18" width="1" height="1" fill="#0c4bfb"/>
<rect x="16" y="18" width="1" height="1" fill="#0c4ffb"/>
<rect x="17" y="18" width="1" height="1" fill="#0c51fb"/>
<rect x="18" y="18" width="1" height="1" fill="#0d50fb"/>
<rect x="19" y="18" width="1" height="1" fill="#0e4cfb"/>
<rect x="20" y="18" width="1" height="1" fill="#0c45fb"/>
<rect x="21" y="18" width="1" height="1" fill="#0c42fb"/>
<rect x="22" y="18" width="1" height="1" fill="#0e33fa"/>
<rect x="23" y="18" width="1" height="1" fill="#0a49fa"/>
<rect x="24" y="18" width="1" height="1" fill="#0c46ae" fill-opacity="0.996"/>
<rect x="1" y="19" width="1" height="1" fill="#0c3eb7" fill-opacity="0.965"/>
<rect x="2" y="19" width="1" height="1" fill="#0c41af" fill-opacity="0.996"/>
<rect x="3" y="19" width="1" height="1" fill="#0c41af" fill-opacity="0.996"/>
<rect x="4" y="19" width="1" height="1" fill="#0c41af" fill-opacity="0.996"/>
<rect x="5" y="19" width="1" height="1" fill="#0c41af" fill-opacity="0.996"/>
<rect x="6" y="19" width="1" height="1" fill="#0c41af" fill-opacity="0.996"/>
<rect x="7" y="19" width="1" height="1" fill="#0c41af" fill-opacity="0.996"/>
<rect x="8" y="19" width="1" height="1" fill="#0c41af" fill-opacity="0.996"/>
<rect x="9" y="19" width="1" height="1" fill="#0c41af" fill-opacity="0.996"/>
<rect x="10" y="19" width="1" height="1" fill="#0c41af" fill-opacity="0.996"/>
<rect x="11" y="19" width="1" height="1" fill="#0c41af" fill-opacity="0.996"/>
<rect x="12" y="19" width="1" height="1" fill="#0c41af" fill-opacity="0.996"/>
<rect x="13" y="19" width="1" height="1" fill="#0c41af" fill-opacity="0.996"/>
<rect x="14" y="19" width="1" height="1" fill="#0c41af" fill-opacity="0.996"/>
<rect x="15" y="19" width="1" height="1" fill="#0c41af" fill-opacity="0.996"/>
<rect x="16" y="19" width="1" height="1" fill="#0c41b0" fill-opacity="0.996"/>
<rect x="17" y="19" width="1" height="1" fill="#0c44b5" fill-opacity="0.996"/>
<rect x="18" y="19" width="1" height="1" fill="#0c43b3" fill-opacity="0.996"/>
<rect x="19" y="19" width="1" height="1" fill="#0c42b2" fill-opacity="0.996"/>
<rect x="20" y="19" width="1" height="1" fill="#0c43b1" fill-opacity="0.996"/>
<rect x="21" y="19" width="1" height="1" fill="#0c42b0" fill-opacity="0.996"/>
<rect x="22" y="19" width="1" height="1" fill="#0c40af" fill-opacity="0.996"/>
<rect x="23" y="19" width="1" height="1" fill="#0c42ac"/>
<rect x="24" y="19" width="1" height="1" fill="#0c49b5" fill-opacity="0.98"/>
</svg>