<?xml version="1.0" encoding="UTF-8" standalone="no"?>
<svg xmlns="http://www.w3.org/2000/svg" width="26" height="21" shape-rendering="crispEdges">
<rect x="8" y="8" width="1" height="1" fill="#1212a9" fill-opacity="0.125"/>
<rect x="9" y="8" width="1" height="1" fill="#111194" fill-opacity="0.776"/>
<rect x="10" y="8" width="1" height="1" fill="#0f0f82" fill-opacity="0.933"/>
<rect x="11" y="8" width="1" height="1" fill="#0e0e85" fill-opacity="0.153"/>
<rect x="7" y="9" width="1" height="1" fill="#0f0f98" fill-opacity="0.11"/>
<rect x="8" y="9" width="1" height="1" fill="#0e0e80" fill-opacity="0.922"/>
<rect x="9" y="9" width="1" height="1" fill="#0e0e83" fill-opacity="0.988"/>
<rect x="10" y="9" width="1" height="1" fill="#0e0e8b" fill-opacity="0.992"/>
<rect x="11" y="9" width="1" height="1" fill="#0e0e80" fill-opacity="0.89"/>
<rect x="12" y="9" width="1" height="1" fill="#0c0c6f" fill-opacity="0.043"/>
<rect x="6" y="10" width="1" height="1" fill="#100f95" fill-opacity="0.42"/>
<rect x="7" y="10" width="1" height="1" fill="#0d0d75" fill-opacity="0.984"/>
<rect x="8" y="10" width="1" height="1" fill="#101089" fill-opacity="0.996"/>
<rect x="9" y="10" width="1" height="1" fill="#2c2cc7"/>
<rect x="10" y="10" width="1" height="1" fill="#3635de"/>
<rect x="11" y="10" width="1" height="1" fill="#0e0e89" fill-opacity="0.992"/>
<rect x="12" y="10" width="1" height="1" fill="#0e0d7e" fill-opacity="0.902"/>
<rect x="13" y="10" width="1" height="1" fill="#0c0c6f" fill-opacity="0.059"/>
<rect x="5" y="11" width="1" height="1" fill="#0e0e8a" fill-opacity="0.761"/>
<rect x="6" y="11" width="1" height="1" fill="#0d0d75" fill-opacity="0.992"/>
<rect x="7" y="11" width="1" height="1" fill="#101197"/>
<rect x="8" y="11" width="1" height="1" fill="#3d3dd8"/>
<rect x="9" y="11" width="1" height="1" fill="#4747ec"/>
<rect x="10" y="11" width="1" height="1" fill="#5151ee"/>
<rect x="11" y="11" width="1" height="1" fill="#4140d3"/>
<rect x="12" y="11" width="1" height="1" fill="#101084" fill-opacity="0.996"/>
<rect x="13" y="11" width="1" height="1" fill="#0d0d79" fill-opacity="0.933"/>
<rect x="14" y="11" width="1" height="1" fill="#0c0c6f" fill-opacity="0.047"/>
<rect x="3" y="12" width="1" height="1" fill="#0e0e9c" fill-opacity="0.125"/>
<rect x="4" y="12" width="1" height="1" fill="#0d0d82" fill-opacity="0.827"/>
<rect x="5" y="12" width="1" height="1" fill="#0d0d7e" fill-opacity="0.992"/>
<rect x="6" y="12" width="1" height="1" fill="#1010ac"/>
<rect x="7" y="12" width="1" height="1" fill="#4343e0"/>
<rect x="8" y="12" width="1" height="1" fill="#4444e6"/>
<rect x="9" y="12" width="1" height="1" fill="#1616e0"/>
<rect x="10" y="12" width="1" height="1" fill="#1717e0"/>
<rect x="11" y="12" width="1" height="1" fill="#4848e6"/>
<rect x="12" y="12" width="1" height="1" fill="#4141cf"/>
<rect x="13" y="12" width="1" height="1" fill="#0e0e7e" fill-opacity="0.992"/>
<rect x="14" y="12" width="1" height="1" fill="#0d0d79" fill-opacity="0.886"/>
<rect x="15" y="12" width="1" height="1" fill="#0c0c6f" fill-opacity="0.043"/>
<rect x="2" y="13" width="1" height="1" fill="#0d0d9c" fill-opacity="0.031"/>
<rect x="3" y="13" width="1" height="1" fill="#0e0e82" fill-opacity="0.871"/>
<rect x="4" y="13" width="1" height="1" fill="#0d0d87" fill-opacity="0.992"/>
<rect x="5" y="13" width="1" height="1" fill="#0e0eb7"/>
<rect x="6" y="13" width="1" height="1" fill="#2424d8"/>
<rect x="7" y="13" width="1" height="1" fill="#4343df"/>
<rect x="8" y="13" width="1" height="1" fill="#1313d7"/>
<rect x="9" y="13" width="1" height="1" fill="#0f0fd6"/>
<rect x="10" y="13" width="1" height="1" fill="#0f0fd6"/>
<rect x="11" y="13" width="1" height="1" fill="#1515d7"/>
<rect x="12" y="13" width="1" height="1" fill="#4040de"/>
<rect x="13" y="13" width="1" height="1" fill="#3535c5"/>
<rect x="14" y="13" width="1" height="1" fill="#0d0d77" fill-opacity="0.992"/>
<rect x="15" y="13" width="1" height="1" fill="#0c0c79" fill-opacity="0.8"/>
<rect x="16" y="13" width="1" height="1" fill="#0c0c6f" fill-opacity="0.106"/>
<rect x="3" y="14" width="1" height="1" fill="#0d0d8a" fill-opacity="0.384"/>
<rect x="4" y="14" width="1" height="1" fill="#0c0c72" fill-opacity="0.996"/>
<rect x="5" y="14" width="1" height="1" fill="#0c0c9d"/>
<rect x="6" y="14" width="1" height="1" fill="#0c0dcd"/>
<rect x="7" y="14" width="1" height="1" fill="#0d0dcc"/>
<rect x="8" y="14" width="1" height="1" fill="#0d0ccc"/>
<rect x="9" y="14" width="1" height="1" fill="#0c0ccc"/>
<rect x="10" y="14" width="1" height="1" fill="#0c0ccc"/>
<rect x="11" y="14" width="1" height="1" fill="#0c0ccc"/>
<rect x="12" y="14" width="1" height="1" fill="#0e0ecc"/>
<rect x="13" y="14" width="1" height="1" fill="#2f30d3"/>
<rect x="14" y="14" width="1" height="1" fill="#3536be" fill-opacity="0.996"/>
<rect x="15" y="14" width="1" height="1" fill="#101077" fill-opacity="0.988"/>
<rect x="16" y="14" width="1" height="1" fill="#0d0d7a" fill-opacity="0.796"/>
<rect x="17" y="14" width="1" height="1" fill="#0c0c74" fill-opacity="0.004"/>
<rect x="1" y="15" width="1" height="1" fill="#1313b2" fill-opacity="0.024"/>
<rect x="2" y="15" width="1" height="1" fill="#1414b2" fill-opacity="0.031"/>
<rect x="3" y="15" width="1" height="1" fill="#1212a4" fill-opacity="0.02"/>
<rect x="4" y="15" width="1" height="1" fill="#0e0e85" fill-opacity="0.643"/>
<rect x="5" y="15" width="1" height="1" fill="#0c0c74"/>
<rect x="6" y="15" width="1" height="1" fill="#0b0b96"/>
<rect x="7" y="15" width="1" height="1" fill="#0b0abe"/>
<rect x="8" y="15" width="1" height="1" fill="#0a0bc3"/>
<rect x="9" y="15" width="1" height="1" fill="#0a0ac3"/>
<rect x="10" y="15" width="1" height="1" fill="#0a0ac2"/>
<rect x="11" y="15" width="1" height="1" fill="#0a0ac2"/>
<rect x="12" y="15" width="1" height="1" fill="#0a0ac2"/>
<rect x="13" y="15" width="1" height="1" fill="#0b0bc2"/>
<rect x="14" y="15" width="1" height="1" fill="#2a2aca"/>
<rect x="15" y="15" width="1" height="1" fill="#3b3bc0" fill-opacity="0.996"/>
<rect x="16" y="15" width="1" height="1" fill="#1a1a81" fill-opacity="0.988"/>
<rect x="17" y="15" width="1" height="1" fill="#11117e" fill-opacity="0.953"/>
<rect x="18" y="15" width="1" height="1" fill="#0d0d7b" fill-opacity="0.961"/>
<rect x="19" y="15" width="1" height="1" fill="#0d0d7b" fill-opacity="0.961"/>
<rect x="20" y="15" width="1" height="1" fill="#0d0d7c" fill-opacity="0.961"/>
<rect x="21" y="15" width="1" height="1" fill="#0d0d7c" fill-opacity="0.957"/>
<rect x="22" y="15" width="1" height="1" fill="#0d0d7d" fill-opacity="0.957"/>
<rect x="23" y="15" width="1" height="1" fill="#0d0d7e" fill-opacity="0.953"/>
<rect x="24" y="15" width="1" height="1" fill="#0f0f87" fill-opacity="0.886"/>
<rect x="25" y="15" width="1" height="1" fill="#0c0c77" fill-opacity="0.012"/>
<rect x="1" y="16" width="1" height="1" fill="#0e0e7c" fill-opacity="0.933"/>
<rect x="2" y="16" width="1" height="1" fill="#0d0d72" fill-opacity="0.988"/>
<rect x="3" y="16" width="1" height="1" fill="#0d0d72" fill-opacity="0.988"/>
<rect x="4" y="16" width="1" height="1" fill="#0d0d7b" fill-opacity="0.976"/>
<rect x="5" y="16" width="1" height="1" fill="#0c0c84" fill-opacity="0.996"/>
<rect x="6" y="16" width="1" height="1" fill="#0b0b83"/>
<rect x="7" y="16" width="1" height="1" fill="#0909aa"/>
<rect x="8" y="16" width="1" height="1" fill="#0708b9"/>
<rect x="9" y="16" width="1" height="1" fill="#0808ba"/>
<rect x="10" y="16" width="1" height="1" fill="#0808b9"/>
<rect x="11" y="16" width="1" height="1" fill="#0708ba"/>
<rect x="12" y="16" width="1" height="1" fill="#0808b9"/>
<rect x="13" y="16" width="1" height="1" fill="#0807b9"/>
<rect x="14" y="16" width="1" height="1" fill="#0909b9"/>
<rect x="15" y="16" width="1" height="1" fill="#1919be"/>
<rect x="16" y="16" width="1" height="1" fill="#4141be"/>
<rect x="17" y="16" width="1" height="1" fill="#2627b4"/>
<rect x="18" y="16" width="1" height="1" fill="#0506ab"/>
<rect x="19" y="16" width="1" height="1" fill="#0506aa"/>
<rect x="20" y="16" width="1" height="1" fill="#0506aa"/>
<rect x="21" y="16" width="1" height="1" fill="#0506aa"/>
<rect x="22" y="16" width="1" height="1" fill="#0506aa"/>
<rect x="23" y="16" width="1" height="1" fill="#0a0a9c"/>
<rect x="24" y="16" width="1" height="1" fill="#0d0d6e" fill-opacity="0.996"/>
<rect x="25" y="16" width="1" height="1" fill="#0c0c77" fill-opacity="0.039"/>
<rect x="1" y="17" width="1" height="1" fill="#0c0c6f" fill-opacity="0.984"/>
<rect x="2" y="17" width="1" height="1" fill="#070797"/>
<rect x="3" y="17" width="1" height="1" fill="#0506a2"/>
<rect x="4" y="17" width="1" height="1" fill="#0606a3"/>
<rect x="5" y="17" width="1" height="1" fill="#0606a9"/>
<rect x="6" y="17" width="1" height="1" fill="#0707a8"/>
<rect x="7" y="17" width="1" height="1" fill="#0506ad"/>
<rect x="8" y="17" width="1" height="1" fill="#0606af"/>
<rect x="9" y="17" width="1" height="1" fill="#0605b0"/>
<rect x="10" y="17" width="1" height="1" fill="#0606af"/>
<rect x="11" y="17" width="1" height="1" fill="#0605b0"/>
<rect x="12" y="17" width="1" height="1" fill="#0606af"/>
<rect x="13" y="17" width="1" height="1" fill="#0606af"/>
<rect x="14" y="17" width="1" height="1" fill="#0605b0"/>
<rect x="15" y="17" width="1" height="1" fill="#0606b0"/>
<rect x="16" y="17" width="1" height="1" fill="#0707b0"/>
<rect x="17" y="17" width="1" height="1" fill="#0506ae"/>
<rect x="18" y="17" width="1" height="1" fill="#0506ae"/>
<rect x="19" y="17" width="1" height="1" fill="#0506ae"/>
<rect x="20" y="17" width="1" height="1" fill="#0506ae"/>
<rect x="21" y="17" width="1" height="1" fill="#0506ae"/>
<rect x="22" y="17" width="1" height="1" fill="#0505ac"/>
<rect x="23" y="17" width="1" height="1" fill="#0808b1"/>
<rect x="24" y="17" width="1" height="1" fill="#0d0d6f" fill-opacity="0.996"/>
<rect x="25" y="17" width="1" height="1" fill="#0c0c77" fill-opacity="0.082"/>
<rect x="1" y="18" width="1" height="1" fill="#0c0c6e" fill-opacity="0.98"/>
<rect x="2" y="18" width="1" height="1" fill="#05059e"/>
<rect x="3" y="18" width="1" height="1" fill="#0505a2"/>
<rect x="4" y="18" width="1" height="1" fill="#0405a2"/>
<rect x="5" y="18" width="1" height="1" fill="#0404a2"/>
<rect x="6" y="18" width="1" height="1" fill="#0505a3"/>
<rect x="7" y="18" width="1" height="1" fill="#0405a3"/>
<rect x="8" y="18" width="1" height="1" fill="#0505a2"/>
<rect x="9" y="18" width="1" height="1" fill="#0505a2"/>
<rect x="10" y="18" width="1" height="1" fill="#0404a3"/>
<rect x="11" y="18" width="1" height="1" fill="#0405a2"/>
<rect x="12" y="18" width="1" height="1" fill="#0405a3"/>
<rect x="13" y="18" width="1" height="1" fill="#0504a3"/>
<rect x="14" y="18" width="1" height="1" fill="#0505a2"/>
<rect x="15" y="18" width="1" height="1" fill="#0405a3"/>
<rect x="16" y="18" width="1" height="1" fill="#0405a3"/>
<rect x="17" y="18" width="1" height="1" fill="#0405a3"/>
<rect x="18" y="18" width="1" height="1" fill="#0504a3"/>
<rect x="19" y="18" width="1" height="1" fill="#0405a2"/>
<rect x="20" y="18" width="1" height="1" fill="#0505a2"/>
<rect x="21" y="18" width="1" height="1" fill="#0504a2"/>
<rect x="22" y="18" width="1" height="1" fill="#04049f"/>
<rect x="23" y="18" width="1" height="1" fill="#0606ab"/>
<rect x="24" y="18" width="1" height="1" fill="#0d0d6e" fill-opacity="0.996"/>
<rect x="25" y="18" width="1" height="1" fill="#0c0c77" fill-opacity="0.102"/>
<rect x="1" y="19" width="1" height="1" fill="#0b0b70" fill-opacity="0.953"/>
<rect x="2" y="19" width="1" height="1" fill="#0c0c6a" fill-opacity="0.996"/>
<rect x="3" y="19" width="1" height="1" fill="#0c0c6a" fill-opacity="0.996"/>
<rect x="4" y="19" width="1" height="1" fill="#0c0c6a" fill-opacity="0.996"/>
<rect x="5" y="19" width="1" height="1" fill="#0c0c6a" fill-opacity="0.996"/>
<rect x="6" y="19" width="1" height="1" fill="#0c0c6a" fill-opacity="0.996"/>
<rect x="7" y="19" width="1" height="1" fill="#0c0c6a" fill-opacity="0.996"/>
<rect x="8" y="19" width="1" height="1" fill="#0c0c6a" fill-opacity="0.996"/>
<rect x="9" y="19" width="1" height="1" fill="#0c0c6a" fill-opacity="0.996"/>
<rect x="10" y="19" width="1" height="1" fill="#0c0c6a" fill-opacity="0.996"/>
<rect x="11" y="19" width="1" height="1" fill="#0c0c6a" fill-opacity="0.996"/>
<rect x="12" y="19" width="1" height="1" fill="#0c0c6a" fill-opacity="0.996"/>
<rect x="13" y="19" width="1" height="1" fill="#0c0c6a" fill-opacity="0.996"/>
<rect x="14" y="19" width="1" height="1" fill="#0c0c6a" fill-opacity="0.996"/>
<rect x="15" y="19" width="1" height="1" fill="#0c0c6a" fill-opacity="0.996"/>
<rect x="16" y="19" width="1" height="1" fill="#0c0c6a" fill-opacity="0.996"/>
<rect x="17" y="19" width="1" height="1" fill="#0c0c6a" fill-opacity="0.996"/>
<rect x="18" y="19" width="1" height="1" fill="#0c0c6a" fill-opacity="0.996"/>
<rect x="19" y="19" width="1" height="1" fill="#0c0c6a" fill-opacity="0.996"/>
<rect x="20" y="19" width="1" height="1" fill="#0c0c6a" fill-opacity="0.996"/>
<rect x="21" y="19" width="1" height="1" fill="#0c0c6a" fill-opacity="0.996"/>
<rect x="22" y="19" width="1" height="1" fill="#0c0c69" fill-opacity="0.996"/>
<rect x="23" y="19" width="1" height="1" fill="#0d0d68"/>
<rect x="24" y="19" width="1" height="1" fill="#0d0d72" fill-opacity="0.98"/>
<rect x="25" y="19" width="1" height="1" fill="#0c0c77" fill-opacity="0.016"/>
</svg>