<?xml version="1.0" encoding="UTF-8" standalone="no"?>
<svg xmlns="http://www.w3.org/2000/svg" width="26" height="21" shape-rendering="crispEdges">
<rect x="8" y="8" width="1" height="1" fill="#bb48bb" fill-opacity="0.071"/>
<rect x="9" y="8" width="1" height="1" fill="#a337a3" fill-opacity="0.655"/>
<rect x="10" y="8" width="1" height="1" fill="#972d97" fill-opacity="0.878"/>
<rect x="11" y="8" width="1" height="1" fill="#ac38ac" fill-opacity="0.118"/>
<rect x="7" y="9" width="1" height="1" fill="#af3caf" fill-opacity="0.051"/>
<rect x="8" y="9" width="1" height="1" fill="#982b98" fill-opacity="0.855"/>
<rect x="9" y="9" width="1" height="1" fill="#932593" fill-opacity="0.988"/>
<rect x="10" y="9" width="1" height="1" fill="#942594" fill-opacity="0.988"/>
<rect x="11" y="9" width="1" height="1" fill="#942694" fill-opacity="0.855"/>
<rect x="12" y="9" width="1" height="1" fill="#881988" fill-opacity="0.027"/>
<rect x="6" y="10" width="1" height="1" fill="#b13bb1" fill-opacity="0.361"/>
<rect x="7" y="10" width="1" height="1" fill="#8c218c" fill-opacity="0.976"/>
<rect x="8" y="10" width="1" height="1" fill="#982798" fill-opacity="0.996"/>
<rect x="9" y="10" width="1" height="1" fill="#d65bd6"/>
<rect x="10" y="10" width="1" height="1" fill="#f074f0"/>
<rect x="11" y="10" width="1" height="1" fill="#9d2d9d" fill-opacity="0.98"/>
<rect x="12" y="10" width="1" height="1" fill="#9f2e9f" fill-opacity="0.745"/>
<rect x="13" y="10" width="1" height="1" fill="#881988" fill-opacity="0.024"/>
<rect x="5" y="11" width="1" height="1" fill="#a12fa1" fill-opacity="0.745"/>
<rect x="6" y="11" width="1" height="1" fill="#8a1e8a" fill-opacity="0.992"/>
<rect x="7" y="11" width="1" height="1" fill="#a72fa7"/>
<rect x="8" y="11" width="1" height="1" fill="#eb6deb"/>
<rect x="9" y="11" width="1" height="1" fill="#ff7eff"/>
<rect x="10" y="11" width="1" height="1" fill="#ff83ff"/>
<rect x="11" y="11" width="1" height="1" fill="#ed73ed"/>
<rect x="12" y="11" width="1" height="1" fill="#972897" fill-opacity="0.98"/>
<rect x="13" y="11" width="1" height="1" fill="#992799" fill-opacity="0.725"/>
<rect x="14" y="11" width="1" height="1" fill="#881988" fill-opacity="0.016"/>
<rect x="3" y="12" width="1" height="1" fill="#b831b8" fill-opacity="0.149"/>
<rect x="4" y="12" width="1" height="1" fill="#9e2a9e" fill-opacity="0.792"/>
<rect x="5" y="12" width="1" height="1" fill="#942294" fill-opacity="0.996"/>
<rect x="6" y="12" width="1" height="1" fill="#c23bc2"/>
<rect x="7" y="12" width="1" height="1" fill="#fd6dfd"/>
<rect x="8" y="12" width="1" height="1" fill="#ff75ff"/>
<rect x="9" y="12" width="1" height="1" fill="#ff5fff"/>
<rect x="10" y="12" width="1" height="1" fill="#ff5dff"/>
<rect x="11" y="12" width="1" height="1" fill="#ff78ff"/>
<rect x="12" y="12" width="1" height="1" fill="#ea6bea"/>
<rect x="13" y="12" width="1" height="1" fill="#922392" fill-opacity="0.98"/>
<rect x="14" y="12" width="1" height="1" fill="#982398" fill-opacity="0.706"/>
<rect x="15" y="12" width="1" height="1" fill="#881988" fill-opacity="0.012"/>
<rect x="2" y="13" width="1" height="1" fill="#bb30bb" fill-opacity="0.031"/>
<rect x="3" y="13" width="1" height="1" fill="#a028a0" fill-opacity="0.792"/>
<rect x="4" y="13" width="1" height="1" fill="#982298" fill-opacity="0.996"/>
<rect x="5" y="13" width="1" height="1" fill="#d33dd3"/>
<rect x="6" y="13" width="1" height="1" fill="#ff60ff"/>
<rect x="7" y="13" width="1" height="1" fill="#ff6fff"/>
<rect x="8" y="13" width="1" height="1" fill="#ff53ff"/>
<rect x="9" y="13" width="1" height="1" fill="#ff4fff"/>
<rect x="10" y="13" width="1" height="1" fill="#ff4fff"/>
<rect x="11" y="13" width="1" height="1" fill="#ff50ff"/>
<rect x="12" y="13" width="1" height="1" fill="#ff6eff"/>
<rect x="13" y="13" width="1" height="1" fill="#e860e8"/>
<rect x="14" y="13" width="1" height="1" fill="#8a1d8a" fill-opacity="0.984"/>
<rect x="15" y="13" width="1" height="1" fill="#962096" fill-opacity="0.584"/>
<rect x="16" y="13" width="1" height="1" fill="#881988" fill-opacity="0.008"/>
<rect x="3" y="14" width="1" height="1" fill="#a92ba9" fill-opacity="0.251"/>
<rect x="4" y="14" width="1" height="1" fill="#8c1c8c" fill-opacity="0.976"/>
<rect x="5" y="14" width="1" height="1" fill="#cb31cb"/>
<rect x="6" y="14" width="1" height="1" fill="#ff48ff"/>
<rect x="7" y="14" width="1" height="1" fill="#ff46ff"/>
<rect x="8" y="14" width="1" height="1" fill="#ff43ff"/>
<rect x="9" y="14" width="1" height="1" fill="#ff43ff"/>
<rect x="10" y="14" width="1" height="1" fill="#ff42ff"/>
<rect x="11" y="14" width="1" height="1" fill="#ff42ff"/>
<rect x="12" y="14" width="1" height="1" fill="#ff45ff"/>
<rect x="13" y="14" width="1" height="1" fill="#fe59fe"/>
<rect x="14" y="14" width="1" height="1" fill="#de4bde" fill-opacity="0.996"/>
<rect x="15" y="14" width="1" height="1" fill="#8c1e8c" fill-opacity="0.98"/>
<rect x="16" y="14" width="1" height="1" fill="#992599" fill-opacity="0.537"/>
<rect x="17" y="14" width="1" height="1" fill="#881988" fill-opacity="0.008"/>
<rect x="18" y="14" width="1" height="1" fill="#881988" fill-opacity="0.004"/>
<rect x="19" y="14" width="1" height="1" fill="#881988" fill-opacity="0.016"/>
<rect x="20" y="14" width="1" height="1" fill="#881988" fill-opacity="0.016"/>
<rect x="21" y="14" width="1" height="1" fill="#881988" fill-opacity="0.02"/>
<rect x="22" y="14" width="1" height="1" fill="#881988" fill-opacity="0.043"/>
<rect x="1" y="15" width="1" height="1" fill="#bb50bb" fill-opacity="0.024"/>
<rect x="2" y="15" width="1" height="1" fill="#b54cb5" fill-opacity="0.035"/>
<rect x="3" y="15" width="1" height="1" fill="#9c2f9c" fill-opacity="0.039"/>
<rect x="4" y="15" width="1" height="1" fill="#a12aa1" fill-opacity="0.58"/>
<rect x="5" y="15" width="1" height="1" fill="#8f1d8f"/>
<rect x="6" y="15" width="1" height="1" fill="#e42ee4"/>
<rect x="7" y="15" width="1" height="1" fill="#ff35ff"/>
<rect x="8" y="15" width="1" height="1" fill="#ff35ff"/>
<rect x="9" y="15" width="1" height="1" fill="#ff34ff"/>
<rect x="10" y="15" width="1" height="1" fill="#ff34ff"/>
<rect x="11" y="15" width="1" height="1" fill="#ff34ff"/>
<rect x="12" y="15" width="1" height="1" fill="#ff33ff"/>
<rect x="13" y="15" width="1" height="1" fill="#ff33ff"/>
<rect x="14" y="15" width="1" height="1" fill="#fe44fe"/>
<rect x="15" y="15" width="1" height="1" fill="#dd42dd" fill-opacity="0.992"/>
<rect x="16" y="15" width="1" height="1" fill="#8a1f8a" fill-opacity="0.992"/>
<rect x="17" y="15" width="1" height="1" fill="#902290" fill-opacity="0.949"/>
<rect x="18" y="15" width="1" height="1" fill="#8f218f" fill-opacity="0.953"/>
<rect x="19" y="15" width="1" height="1" fill="#8e218e" fill-opacity="0.961"/>
<rect x="20" y="15" width="1" height="1" fill="#8e208e" fill-opacity="0.965"/>
<rect x="21" y="15" width="1" height="1" fill="#8d1f8d" fill-opacity="0.965"/>
<rect x="22" y="15" width="1" height="1" fill="#8e1f8e" fill-opacity="0.965"/>
<rect x="23" y="15" width="1" height="1" fill="#8e228e" fill-opacity="0.957"/>
<rect x="24" y="15" width="1" height="1" fill="#962a96" fill-opacity="0.898"/>
<rect x="1" y="16" width="1" height="1" fill="#942594" fill-opacity="0.925"/>
<rect x="2" y="16" width="1" height="1" fill="#872087" fill-opacity="0.98"/>
<rect x="3" y="16" width="1" height="1" fill="#881e88" fill-opacity="0.984"/>
<rect x="4" y="16" width="1" height="1" fill="#942494" fill-opacity="0.973"/>
<rect x="5" y="16" width="1" height="1" fill="#cb30cb" fill-opacity="0.992"/>
<rect x="6" y="16" width="1" height="1" fill="#e425e4"/>
<rect x="7" y="16" width="1" height="1" fill="#ff29ff"/>
<rect x="8" y="16" width="1" height="1" fill="#ff28ff"/>
<rect x="9" y="16" width="1" height="1" fill="#ff28ff"/>
<rect x="10" y="16" width="1" height="1" fill="#ff28ff"/>
<rect x="11" y="16" width="1" height="1" fill="#ff27ff"/>
<rect x="12" y="16" width="1" height="1" fill="#ff27ff"/>
<rect x="13" y="16" width="1" height="1" fill="#ff27ff"/>
<rect x="14" y="16" width="1" height="1" fill="#ff26ff"/>
<rect x="15" y="16" width="1" height="1" fill="#fe2ffe"/>
<rect x="16" y="16" width="1" height="1" fill="#f041f0"/>
<rect x="17" y="16" width="1" height="1" fill="#ed46ed"/>
<rect x="18" y="16" width="1" height="1" fill="#f24bf2"/>
<rect x="19" y="16" width="1" height="1" fill="#f24bf2"/>
<rect x="20" y="16" width="1" height="1" fill="#f241f2"/>
<rect x="21" y="16" width="1" height="1" fill="#f339f3"/>
<rect x="22" y="16" width="1" height="1" fill="#ee2eee"/>
<rect x="23" y="16" width="1" height="1" fill="#da30da" fill-opacity="0.996"/>
<rect x="24" y="16" width="1" height="1" fill="#7e1c7e" fill-opacity="0.996"/>
<rect x="1" y="17" width="1" height="1" fill="#881988" fill-opacity="0.98"/>
<rect x="2" y="17" width="1" height="1" fill="#ed27ed"/>
<rect x="3" y="17" width="1" height="1" fill="#f268f2"/>
<rect x="4" y="17" width="1" height="1" fill="#f26cf2"/>
<rect x="5" y="17" width="1" height="1" fill="#fd31fd"/>
<rect x="6" y="17" width="1" height="1" fill="#ff1dff"/>
<rect x="7" y="17" width="1" height="1" fill="#ff1dff"/>
<rect x="8" y="17" width="1" height="1" fill="#ff1dff"/>
<rect x="9" y="17" width="1" height="1" fill="#ff1cff"/>
<rect x="10" y="17" width="1" height="1" fill="#ff1cff"/>
<rect x="11" y="17" width="1" height="1" fill="#ff1cff"/>
<rect x="12" y="17" width="1" height="1" fill="#ff1bff"/>
<rect x="13" y="17" width="1" height="1" fill="#ff1bff"/>
<rect x="14" y="17" width="1" height="1" fill="#ff1bff"/>
<rect x="15" y="17" width="1" height="1" fill="#ff19ff"/>
<rect x="16" y="17" width="1" height="1" fill="#ff2aff"/>
<rect x="17" y="17" width="1" height="1" fill="#ff38ff"/>
<rect x="18" y="17" width="1" height="1" fill="#ff37ff"/>
<rect x="19" y="17" width="1" height="1" fill="#ff31ff"/>
<rect x="20" y="17" width="1" height="1" fill="#fe25fe"/>
<rect x="21" y="17" width="1" height="1" fill="#fe1efe"/>
<rect x="22" y="17" width="1" height="1" fill="#fe16fe"/>
<rect x="23" y="17" width="1" height="1" fill="#f522f5"/>
<rect x="24" y="17" width="1" height="1" fill="#811c81" fill-opacity="0.996"/>
<rect x="1" y="18" width="1" height="1" fill="#891889" fill-opacity="0.98"/>
<rect x="2" y="18" width="1" height="1" fill="#eb17eb"/>
<rect x="3" y="18" width="1" height="1" fill="#f51ff5"/>
<rect x="4" y="18" width="1" height="1" fill="#f51af5"/>
<rect x="5" y="18" width="1" height="1" fill="#f512f5"/>
<rect x="6" y="18" width="1" height="1" fill="#f512f5"/>
<rect x="7" y="18" width="1" height="1" fill="#f512f5"/>
<rect x="8" y="18" width="1" height="1" fill="#f512f5"/>
<rect x="9" y="18" width="1" height="1" fill="#f512f5"/>
<rect x="10" y="18" width="1" height="1" fill="#f512f5"/>
<rect x="11" y="18" width="1" height="1" fill="#f511f5"/>
<rect x="12" y="18" width="1" height="1" fill="#f511f5"/>
<rect x="13" y="18" width="1" height="1" fill="#f511f5"/>
<rect x="14" y="18" width="1" height="1" fill="#f510f5"/>
<rect x="15" y="18" width="1" height="1" fill="#f510f5"/>
<rect x="16" y="18" width="1" height="1" fill="#f510f5"/>
<rect x="17" y="18" width="1" height="1" fill="#f50ff5"/>
<rect x="18" y="18" width="1" height="1" fill="#f50ff5"/>
<rect x="19" y="18" width="1" height="1" fill="#f50ff5"/>
<rect x="20" y="18" width="1" height="1" fill="#f50ff5"/>
<rect x="21" y="18" width="1" height="1" fill="#f50ef5"/>
<rect x="22" y="18" width="1" height="1" fill="#f608f6"/>
<rect x="23" y="18" width="1" height="1" fill="#f619f6"/>
<rect x="24" y="18" width="1" height="1" fill="#7f1b7f" fill-opacity="0.996"/>
<rect x="1" y="19" width="1" height="1" fill="#901690" fill-opacity="0.953"/>
<rect x="2" y="19" width="1" height="1" fill="#801880" fill-opacity="0.996"/>
<rect x="3" y="19" width="1" height="1" fill="#801880" fill-opacity="0.996"/>
<rect x="4" y="19" width="1" height="1" fill="#801880" fill-opacity="0.996"/>
<rect x="5" y="19" width="1" height="1" fill="#801880" fill-opacity="0.996"/>
<rect x="6" y="19" width="1" height="1" fill="#801880" fill-opacity="0.996"/>
<rect x="7" y="19" width="1" height="1" fill="#801880" fill-opacity="0.996"/>
<rect x="8" y="19" width="1" height="1" fill="#801880" fill-opacity="0.996"/>
<rect x="9" y="19" width="1" height="1" fill="#801880" fill-opacity="0.996"/>
<rect x="10" y="19" width="1" height="1" fill="#801880" fill-opacity="0.996"/>
<rect x="11" y="19" width="1" height="1" fill="#801880" fill-opacity="0.996"/>
<rect x="12" y="19" width="1" height="1" fill="#801880" fill-opacity="0.996"/>
<rect x="13" y="19" width="1" height="1" fill="#801880" fill-opacity="0.996"/>
<rect x="14" y="19" width="1" height="1" fill="#801880" fill-opacity="0.996"/>
<rect x="15" y="19" width="1" height="1" fill="#801880" fill-opacity="0.996"/>
<rect x="16" y="19" width="1" height="1" fill="#801880" fill-opacity="0.996"/>
<rect x="17" y="19" width="1" height="1" fill="#801880" fill-opacity="0.996"/>
<rect x="18" y="19" width="1" height="1" fill="#801880" fill-opacity="0.996"/>
<rect x="19" y="19" width="1" height="1" fill="#801880" fill-opacity="0.996"/>
<rect x="20" y="19" width="1" height="1" fill="#801880" fill-opacity="0.996"/>
<rect x="21" y="19" width="1" height="1" fill="#801880" fill-opacity="0.996"/>
<rect x="22" y="19" width="1" height="1" fill="#801780" fill-opacity="0.996"/>
<rect x="23" y="19" width="1" height="1" fill="#7b197b"/>
<rect x="24" y="19" width="1" height="1" fill="#881c88" fill-opacity="0.98"/>
</svg>