<?xml version="1.0" encoding="UTF-8" standalone="no"?>
<svg xmlns="http://www.w3.org/2000/svg" width="26" height="21" shape-rendering="crispEdges">
<rect x="14" y="1" width="1" height="1" fill="#bc5c51" fill-opacity="0.071"/>
<rect x="15" y="1" width="1" height="1" fill="#b54a3d" fill-opacity="0.816"/>
<rect x="16" y="1" width="1" height="1" fill="#ac3627" fill-opacity="0.949"/>
<rect x="17" y="1" width="1" height="1" fill="#b4493b" fill-opacity="0.596"/>
<rect x="18" y="1" width="1" height="1" fill="#a62717" fill-opacity="0.016"/>
<rect x="13" y="2" width="1" height="1" fill="#b75246" fill-opacity="0.067"/>
<rect x="14" y="2" width="1" height="1" fill="#b34436" fill-opacity="0.867"/>
<rect x="15" y="2" width="1" height="1" fill="#b14133" fill-opacity="0.996"/>
<rect x="16" y="2" width="1" height="1" fill="#c8796f"/>
<rect x="17" y="2" width="1" height="1" fill="#ab2f20" fill-opacity="0.992"/>
<rect x="18" y="2" width="1" height="1" fill="#ad3728" fill-opacity="0.867"/>
<rect x="19" y="2" width="1" height="1" fill="#a62717" fill-opacity="0.055"/>
<rect x="12" y="3" width="1" height="1" fill="#c78077" fill-opacity="0.039"/>
<rect x="13" y="3" width="1" height="1" fill="#b54d41" fill-opacity="0.753"/>
<rect x="14" y="3" width="1" height="1" fill="#ad392b" fill-opacity="0.996"/>
<rect x="15" y="3" width="1" height="1" fill="#d19289"/>
<rect x="16" y="3" width="1" height="1" fill="#fbf6f5"/>
<rect x="17" y="3" width="1" height="1" fill="#e5c0bc"/>
<rect x="18" y="3" width="1" height="1" fill="#ab3222" fill-opacity="0.996"/>
<rect x="19" y="3" width="1" height="1" fill="#aa2f1f" fill-opacity="0.961"/>
<rect x="20" y="3" width="1" height="1" fill="#ad3729" fill-opacity="0.192"/>
<rect x="12" y="4" width="1" height="1" fill="#c37368" fill-opacity="0.094"/>
<rect x="13" y="4" width="1" height="1" fill="#aa3021" fill-opacity="0.965"/>
<rect x="14" y="4" width="1" height="1" fill="#b65a4f"/>
<rect x="15" y="4" width="1" height="1" fill="#faf3f2"/>
<rect x="16" y="4" width="1" height="1" fill="#ffffff"/>
<rect x="17" y="4" width="1" height="1" fill="#ffffff"/>
<rect x="18" y="4" width="1" height="1" fill="#f1dddb"/>
<rect x="19" y="4" width="1" height="1" fill="#af3c2e" fill-opacity="0.996"/>
<rect x="20" y="4" width="1" height="1" fill="#a82c1c" fill-opacity="0.984"/>
<rect x="21" y="4" width="1" height="1" fill="#b34335" fill-opacity="0.443"/>
<rect x="12" y="5" width="1" height="1" fill="#b72614" fill-opacity="0.024"/>
<rect x="13" y="5" width="1" height="1" fill="#af3626" fill-opacity="0.753"/>
<rect x="14" y="5" width="1" height="1" fill="#a92c1c" fill-opacity="0.992"/>
<rect x="15" y="5" width="1" height="1" fill="#c78c85"/>
<rect x="16" y="5" width="1" height="1" fill="#ffffff"/>
<rect x="17" y="5" width="1" height="1" fill="#ffffff"/>
<rect x="18" y="5" width="1" height="1" fill="#fefeff"/>
<rect x="19" y="5" width="1" height="1" fill="#fbf5f4"/>
<rect x="20" y="5" width="1" height="1" fill="#bc5a4e"/>
<rect x="21" y="5" width="1" height="1" fill="#a82a1a" fill-opacity="0.996"/>
<rect x="22" y="5" width="1" height="1" fill="#b5483a" fill-opacity="0.651"/>
<rect x="23" y="5" width="1" height="1" fill="#a62717" fill-opacity="0.004"/>
<rect x="11" y="6" width="1" height="1" fill="#bc594d" fill-opacity="0.031"/>
<rect x="12" y="6" width="1" height="1" fill="#b95042" fill-opacity="0.639"/>
<rect x="13" y="6" width="1" height="1" fill="#b43f30" fill-opacity="0.969"/>
<rect x="14" y="6" width="1" height="1" fill="#bf5c4f" fill-opacity="0.949"/>
<rect x="15" y="6" width="1" height="1" fill="#ad3c2e"/>
<rect x="16" y="6" width="1" height="1" fill="#c7948f"/>
<rect x="17" y="6" width="1" height="1" fill="#fdfbfa"/>
<rect x="18" y="6" width="1" height="1" fill="#ffffff"/>
<rect x="19" y="6" width="1" height="1" fill="#fefeff"/>
<rect x="20" y="6" width="1" height="1" fill="#fcfafb"/>
<rect x="21" y="6" width="1" height="1" fill="#d69a93"/>
<rect x="22" y="6" width="1" height="1" fill="#aa2d1e" fill-opacity="0.996"/>
<rect x="23" y="6" width="1" height="1" fill="#b44537" fill-opacity="0.808"/>
<rect x="24" y="6" width="1" height="1" fill="#ce877f" fill-opacity="0.031"/>
<rect x="3" y="7" width="1" height="1" fill="#a71c0a" fill-opacity="0.035"/>
<rect x="4" y="7" width="1" height="1" fill="#aa1c0a" fill-opacity="0.4"/>
<rect x="5" y="7" width="1" height="1" fill="#aa1c0a" fill-opacity="0.886"/>
<rect x="6" y="7" width="1" height="1" fill="#aa1c0a" fill-opacity="0.957"/>
<rect x="7" y="7" width="1" height="1" fill="#aa1c0a" fill-opacity="0.965"/>
<rect x="8" y="7" width="1" height="1" fill="#aa1b09" fill-opacity="0.961"/>
<rect x="9" y="7" width="1" height="1" fill="#aa1b09" fill-opacity="0.906"/>
<rect x="10" y="7" width="1" height="1" fill="#aa1d0b" fill-opacity="0.859"/>
<rect x="11" y="7" width="1" height="1" fill="#b64537" fill-opacity="0.902"/>
<rect x="12" y="7" width="1" height="1" fill="#b03b2c" fill-opacity="0.984"/>
<rect x="13" y="7" width="1" height="1" fill="#e1c2c0"/>
<rect x="14" y="7" width="1" height="1" fill="#f6e8e7" fill-opacity="0.996"/>
<rect x="15" y="7" width="1" height="1" fill="#d7a099" fill-opacity="0.992"/>
<rect x="16" y="7" width="1" height="1" fill="#ab3e30"/>
<rect x="17" y="7" width="1" height="1" fill="#b76d63"/>
<rect x="18" y="7" width="1" height="1" fill="#f1f7f9"/>
<rect x="19" y="7" width="1" height="1" fill="#feffff"/>
<rect x="20" y="7" width="1" height="1" fill="#ffffff"/>
<rect x="21" y="7" width="1" height="1" fill="#fefefe"/>
<rect x="22" y="7" width="1" height="1" fill="#e0b6b1"/>
<rect x="23" y="7" width="1" height="1" fill="#af3a2b" fill-opacity="0.996"/>
<rect x="24" y="7" width="1" height="1" fill="#b54739" fill-opacity="0.863"/>
<rect x="2" y="8" width="1" height="1" fill="#a81e0c" fill-opacity="0.188"/>
<rect x="3" y="8" width="1" height="1" fill="#aa1c0a" fill-opacity="0.914"/>
<rect x="4" y="8" width="1" height="1" fill="#a91b09" fill-opacity="0.996"/>
<rect x="5" y="8" width="1" height="1" fill="#aa1b09"/>
<rect x="6" y="8" width="1" height="1" fill="#ad1e0b"/>
<rect x="7" y="8" width="1" height="1" fill="#b01e0c"/>
<rect x="8" y="8" width="1" height="1" fill="#ad1d0b"/>
<rect x="9" y="8" width="1" height="1" fill="#aa1b09"/>
<rect x="10" y="8" width="1" height="1" fill="#a91b09"/>
<rect x="11" y="8" width="1" height="1" fill="#b54b3d" fill-opacity="0.988"/>
<rect x="12" y="8" width="1" height="1" fill="#e7cbc9"/>
<rect x="13" y="8" width="1" height="1" fill="#f6f6f7"/>
<rect x="14" y="8" width="1" height="1" fill="#fbfbfc"/>
<rect x="15" y="8" width="1" height="1" fill="#fdfdfd"/>
<rect x="16" y="8" width="1" height="1" fill="#cf9088" fill-opacity="0.984"/>
<rect x="17" y="8" width="1" height="1" fill="#a62717"/>
<rect x="18" y="8" width="1" height="1" fill="#aa392c"/>
<rect x="19" y="8" width="1" height="1" fill="#d9cbcb"/>
<rect x="20" y="8" width="1" height="1" fill="#f7fcfd"/>
<rect x="21" y="8" width="1" height="1" fill="#fbfefe"/>
<rect x="22" y="8" width="1" height="1" fill="#fdfdfe"/>
<rect x="23" y="8" width="1" height="1" fill="#f8f1f1"/>
<rect x="24" y="8" width="1" height="1" fill="#a92311"/>
<rect x="25" y="8" width="1" height="1" fill="#ae2210" fill-opacity="0.008"/>
<rect x="1" y="9" width="1" height="1" fill="#ac200e" fill-opacity="0.118"/>
<rect x="2" y="9" width="1" height="1" fill="#a91c0a" fill-opacity="0.961"/>
<rect x="3" y="9" width="1" height="1" fill="#a91b09"/>
<rect x="4" y="9" width="1" height="1" fill="#b2200d"/>
<rect x="5" y="9" width="1" height="1" fill="#cf3521"/>
<rect x="6" y="9" width="1" height="1" fill="#d83925"/>
<rect x="7" y="9" width="1" height="1" fill="#d7321d"/>
<rect x="8" y="9" width="1" height="1" fill="#cf2b15"/>
<rect x="9" y="9" width="1" height="1" fill="#c62813"/>
<rect x="10" y="9" width="1" height="1" fill="#b7210e"/>
<rect x="11" y="9" width="1" height="1" fill="#b54637" fill-opacity="0.996"/>
<rect x="12" y="9" width="1" height="1" fill="#eaeceb"/>
<rect x="13" y="9" width="1" height="1" fill="#fcfdfe"/>
<rect x="14" y="9" width="1" height="1" fill="#fafafb"/>
<rect x="15" y="9" width="1" height="1" fill="#f7f4f5"/>
<rect x="16" y="9" width="1" height="1" fill="#be584c"/>
<rect x="17" y="9" width="1" height="1" fill="#ad2211"/>
<rect x="18" y="9" width="1" height="1" fill="#a82414"/>
<rect x="19" y="9" width="1" height="1" fill="#aa2716"/>
<rect x="20" y="9" width="1" height="1" fill="#bf8c87"/>
<rect x="21" y="9" width="1" height="1" fill="#e9eaeb"/>
<rect x="22" y="9" width="1" height="1" fill="#f7fcfe"/>
<rect x="23" y="9" width="1" height="1" fill="#c97a71"/>
<rect x="24" y="9" width="1" height="1" fill="#b23525" fill-opacity="0.922"/>
<rect x="25" y="9" width="1" height="1" fill="#ae2210" fill-opacity="0.031"/>
<rect x="1" y="10" width="1" height="1" fill="#aa1e0d" fill-opacity="0.663"/>
<rect x="2" y="10" width="1" height="1" fill="#a91b09"/>
<rect x="3" y="10" width="1" height="1" fill="#b92513"/>
<rect x="4" y="10" width="1" height="1" fill="#da4937"/>
<rect x="5" y="10" width="1" height="1" fill="#e36757"/>
<rect x="6" y="10" width="1" height="1" fill="#e04b37"/>
<rect x="7" y="10" width="1" height="1" fill="#de341e"/>
<rect x="8" y="10" width="1" height="1" fill="#d72d17"/>
<rect x="9" y="10" width="1" height="1" fill="#ce2a15"/>
<rect x="10" y="10" width="1" height="1" fill="#c32712"/>
<rect x="11" y="10" width="1" height="1" fill="#b7240f"/>
<rect x="12" y="10" width="1" height="1" fill="#b95447" fill-opacity="0.996"/>
<rect x="13" y="10" width="1" height="1" fill="#eaeaeb"/>
<rect x="14" y="10" width="1" height="1" fill="#f2eded" fill-opacity="0.992"/>
<rect x="15" y="10" width="1" height="1" fill="#bb6358"/>
<rect x="16" y="10" width="1" height="1" fill="#ae210e"/>
<rect x="17" y="10" width="1" height="1" fill="#c92a17"/>
<rect x="18" y="10" width="1" height="1" fill="#c32815"/>
<rect x="19" y="10" width="1" height="1" fill="#ae2110"/>
<rect x="20" y="10" width="1" height="1" fill="#ac2110"/>
<rect x="21" y="10" width="1" height="1" fill="#af5248"/>
<rect x="22" y="10" width="1" height="1" fill="#c99994"/>
<rect x="23" y="10" width="1" height="1" fill="#af2615" fill-opacity="0.992"/>
<rect x="24" y="10" width="1" height="1" fill="#b12a19" fill-opacity="0.714"/>
<rect x="0" y="11" width="1" height="1" fill="#9f1f0e" fill-opacity="0.016"/>
<rect x="1" y="11" width="1" height="1" fill="#a91c0a" fill-opacity="0.949"/>
<rect x="2" y="11" width="1" height="1" fill="#ac1d0b"/>
<rect x="3" y="11" width="1" height="1" fill="#c93321"/>
<rect x="4" y="11" width="1" height="1" fill="#de4733"/>
<rect x="5" y="11" width="1" height="1" fill="#e55441"/>
<rect x="6" y="11" width="1" height="1" fill="#e7331d"/>
<rect x="7" y="11" width="1" height="1" fill="#ec331d"/>
<rect x="8" y="11" width="1" height="1" fill="#eb331c"/>
<rect x="9" y="11" width="1" height="1" fill="#dc2e18"/>
<rect x="10" y="11" width="1" height="1" fill="#d12a15"/>
<rect x="11" y="11" width="1" height="1" fill="#d32b15"/>
<rect x="12" y="11" width="1" height="1" fill="#bd2410"/>
<rect x="13" y="11" width="1" height="1" fill="#b4311f"/>
<rect x="14" y="11" width="1" height="1" fill="#b33c2d" fill-opacity="0.996"/>
<rect x="15" y="11" width="1" height="1" fill="#ad200f"/>
<rect x="16" y="11" width="1" height="1" fill="#ca2a15"/>
<rect x="17" y="11" width="1" height="1" fill="#f1351c"/>
<rect x="18" y="11" width="1" height="1" fill="#e8321a"/>
<rect x="19" y="11" width="1" height="1" fill="#c52713"/>
<rect x="20" y="11" width="1" height="1" fill="#b72310"/>
<rect x="21" y="11" width="1" height="1" fill="#ae220f"/>
<rect x="22" y="11" width="1" height="1" fill="#ac2211"/>
<rect x="23" y="11" width="1" height="1" fill="#ae2312" fill-opacity="0.957"/>
<rect x="24" y="11" width="1" height="1" fill="#ae2210" fill-opacity="0.137"/>
<rect x="0" y="12" width="1" height="1" fill="#9f1e0d" fill-opacity="0.106"/>
<rect x="1" y="12" width="1" height="1" fill="#a91b09" fill-opacity="0.992"/>
<rect x="2" y="12" width="1" height="1" fill="#b2200d"/>
<rect x="3" y="12" width="1" height="1" fill="#c32a17"/>
<rect x="4" y="12" width="1" height="1" fill="#d32f1c"/>
<rect x="5" y="12" width="1" height="1" fill="#e0341e"/>
<rect x="6" y="12" width="1" height="1" fill="#e9341d"/>
<rect x="7" y="12" width="1" height="1" fill="#ed341d"/>
<rect x="8" y="12" width="1" height="1" fill="#f1351d"/>
<rect x="9" y="12" width="1" height="1" fill="#e8321b"/>
<rect x="10" y="12" width="1" height="1" fill="#da2d17"/>
<rect x="11" y="12" width="1" height="1" fill="#e4311a"/>
<rect x="12" y="12" width="1" height="1" fill="#da2d17"/>
<rect x="13" y="12" width="1" height="1" fill="#ba220e"/>
<rect x="14" y="12" width="1" height="1" fill="#bc2410"/>
<rect x="15" y="12" width="1" height="1" fill="#d42d19"/>
<rect x="16" y="12" width="1" height="1" fill="#f5361d"/>
<rect x="17" y="12" width="1" height="1" fill="#ec321c"/>
<rect x="18" y="12" width="1" height="1" fill="#e03019"/>
<rect x="19" y="12" width="1" height="1" fill="#ce2915"/>
<rect x="20" y="12" width="1" height="1" fill="#bb2310"/>
<rect x="21" y="12" width="1" height="1" fill="#b2210f"/>
<rect x="22" y="12" width="1" height="1" fill="#aa210f"/>
<rect x="23" y="12" width="1" height="1" fill="#a71f0e" fill-opacity="0.851"/>
<rect x="0" y="13" width="1" height="1" fill="#981505" fill-opacity="0.208"/>
<rect x="1" y="13" width="1" height="1" fill="#a71a08" fill-opacity="0.992"/>
<rect x="2" y="13" width="1" height="1" fill="#b3210e"/>
<rect x="3" y="13" width="1" height="1" fill="#bb2814"/>
<rect x="4" y="13" width="1" height="1" fill="#c82c19"/>
<rect x="5" y="13" width="1" height="1" fill="#d22f1a"/>
<rect x="6" y="13" width="1" height="1" fill="#db301c"/>
<rect x="7" y="13" width="1" height="1" fill="#e3331d"/>
<rect x="8" y="13" width="1" height="1" fill="#eb341d"/>
<rect x="9" y="13" width="1" height="1" fill="#ee341d"/>
<rect x="10" y="13" width="1" height="1" fill="#eb331c"/>
<rect x="11" y="13" width="1" height="1" fill="#ed351d"/>
<rect x="12" y="13" width="1" height="1" fill="#f0351d"/>
<rect x="13" y="13" width="1" height="1" fill="#ee341c"/>
<rect x="14" y="13" width="1" height="1" fill="#f1341d"/>
<rect x="15" y="13" width="1" height="1" fill="#ef351d"/>
<rect x="16" y="13" width="1" height="1" fill="#f0341d"/>
<rect x="17" y="13" width="1" height="1" fill="#df2f19"/>
<rect x="18" y="13" width="1" height="1" fill="#d42c16"/>
<rect x="19" y="13" width="1" height="1" fill="#ca2814"/>
<rect x="20" y="13" width="1" height="1" fill="#bc2411"/>
<rect x="21" y="13" width="1" height="1" fill="#af200e"/>
<rect x="22" y="13" width="1" height="1" fill="#ac210f"/>
<rect x="23" y="13" width="1" height="1" fill="#a51c0b" fill-opacity="0.922"/>
<rect x="0" y="14" width="1" height="1" fill="#b75549" fill-opacity="0.227"/>
<rect x="1" y="14" width="1" height="1" fill="#a92211" fill-opacity="0.98"/>
<rect x="2" y="14" width="1" height="1" fill="#aa210f"/>
<rect x="3" y="14" width="1" height="1" fill="#b3210e"/>
<rect x="4" y="14" width="1" height="1" fill="#bb2816"/>
<rect x="5" y="14" width="1" height="1" fill="#c02917"/>
<rect x="6" y="14" width="1" height="1" fill="#c52b18"/>
<rect x="7" y="14" width="1" height="1" fill="#cd2d1a"/>
<rect x="8" y="14" width="1" height="1" fill="#d6301b"/>
<rect x="9" y="14" width="1" height="1" fill="#d8301b"/>
<rect x="10" y="14" width="1" height="1" fill="#d52f1a"/>
<rect x="11" y="14" width="1" height="1" fill="#d72f1a"/>
<rect x="12" y="14" width="1" height="1" fill="#d02c17"/>
<rect x="13" y="14" width="1" height="1" fill="#c42813"/>
<rect x="14" y="14" width="1" height="1" fill="#bf2614"/>
<rect x="15" y="14" width="1" height="1" fill="#c62915"/>
<rect x="16" y="14" width="1" height="1" fill="#ce2a15"/>
<rect x="17" y="14" width="1" height="1" fill="#c82813"/>
<rect x="18" y="14" width="1" height="1" fill="#c22612"/>
<rect x="19" y="14" width="1" height="1" fill="#b82310"/>
<rect x="20" y="14" width="1" height="1" fill="#b2210e"/>
<rect x="21" y="14" width="1" height="1" fill="#ad1e0c"/>
<rect x="22" y="14" width="1" height="1" fill="#ab1f0d"/>
<rect x="23" y="14" width="1" height="1" fill="#a41d0b" fill-opacity="0.882"/>
<rect x="0" y="15" width="1" height="1" fill="#cf7f75" fill-opacity="0.345"/>
<rect x="1" y="15" width="1" height="1" fill="#b53e2f" fill-opacity="0.992"/>
<rect x="2" y="15" width="1" height="1" fill="#c79793"/>
<rect x="3" y="15" width="1" height="1" fill="#b04638" fill-opacity="0.996"/>
<rect x="4" y="15" width="1" height="1" fill="#ab2f20"/>
<rect x="5" y="15" width="1" height="1" fill="#ab2616"/>
<rect x="6" y="15" width="1" height="1" fill="#b02614"/>
<rect x="7" y="15" width="1" height="1" fill="#b62514"/>
<rect x="8" y="15" width="1" height="1" fill="#b92614"/>
<rect x="9" y="15" width="1" height="1" fill="#b42817"/>
<rect x="10" y="15" width="1" height="1" fill="#b62918"/>
<rect x="11" y="15" width="1" height="1" fill="#b52715"/>
<rect x="12" y="15" width="1" height="1" fill="#b42412"/>
<rect x="13" y="15" width="1" height="1" fill="#b32513"/>
<rect x="14" y="15" width="1" height="1" fill="#ae2918"/>
<rect x="15" y="15" width="1" height="1" fill="#b12512"/>
<rect x="16" y="15" width="1" height="1" fill="#b12310"/>
<rect x="17" y="15" width="1" height="1" fill="#b12210"/>
<rect x="18" y="15" width="1" height="1" fill="#b32210"/>
<rect x="19" y="15" width="1" height="1" fill="#b2210f"/>
<rect x="20" y="15" width="1" height="1" fill="#af200f"/>
<rect x="21" y="15" width="1" height="1" fill="#ac210f"/>
<rect x="22" y="15" width="1" height="1" fill="#a62110" fill-opacity="0.988"/>
<rect x="23" y="15" width="1" height="1" fill="#a51e0d" fill-opacity="0.592"/>
<rect x="0" y="16" width="1" height="1" fill="#c9766c" fill-opacity="0.514"/>
<rect x="1" y="16" width="1" height="1" fill="#c03725"/>
<rect x="2" y="16" width="1" height="1" fill="#e1c9c8"/>
<rect x="3" y="16" width="1" height="1" fill="#ebe5e5"/>
<rect x="4" y="16" width="1" height="1" fill="#e6d7d6"/>
<rect x="5" y="16" width="1" height="1" fill="#eee4e2"/>
<rect x="6" y="16" width="1" height="1" fill="#f0e8e7" fill-opacity="0.992"/>
<rect x="7" y="16" width="1" height="1" fill="#eddfde" fill-opacity="0.988"/>
<rect x="8" y="16" width="1" height="1" fill="#e9d5d3" fill-opacity="0.992"/>
<rect x="9" y="16" width="1" height="1" fill="#e7d1ce"/>
<rect x="10" y="16" width="1" height="1" fill="#e8d2d0" fill-opacity="0.996"/>
<rect x="11" y="16" width="1" height="1" fill="#e4c9c7" fill-opacity="0.98"/>
<rect x="12" y="16" width="1" height="1" fill="#e4cbc7" fill-opacity="0.973"/>
<rect x="13" y="16" width="1" height="1" fill="#e2c4c0" fill-opacity="0.969"/>
<rect x="14" y="16" width="1" height="1" fill="#e7cfcb" fill-opacity="0.984"/>
<rect x="15" y="16" width="1" height="1" fill="#e6c7c3" fill-opacity="0.988"/>
<rect x="16" y="16" width="1" height="1" fill="#dbaaa4" fill-opacity="0.996"/>
<rect x="17" y="16" width="1" height="1" fill="#d9b2af" fill-opacity="0.992"/>
<rect x="18" y="16" width="1" height="1" fill="#d1a49f" fill-opacity="0.976"/>
<rect x="19" y="16" width="1" height="1" fill="#cd9a95" fill-opacity="0.965"/>
<rect x="20" y="16" width="1" height="1" fill="#cea09b" fill-opacity="0.965"/>
<rect x="21" y="16" width="1" height="1" fill="#c9857d" fill-opacity="0.996"/>
<rect x="22" y="16" width="1" height="1" fill="#b53f30" fill-opacity="0.91"/>
<rect x="23" y="16" width="1" height="1" fill="#b54638" fill-opacity="0.165"/>
<rect x="0" y="17" width="1" height="1" fill="#ca766c" fill-opacity="0.514"/>
<rect x="1" y="17" width="1" height="1" fill="#bd4335"/>
<rect x="2" y="17" width="1" height="1" fill="#ddcbcb"/>
<rect x="3" y="17" width="1" height="1" fill="#f3f7f9"/>
<rect x="4" y="17" width="1" height="1" fill="#f9fefe"/>
<rect x="5" y="17" width="1" height="1" fill="#f8f9f9"/>
<rect x="6" y="17" width="1" height="1" fill="#f8f9f9"/>
<rect x="7" y="17" width="1" height="1" fill="#f8f9f9"/>
<rect x="8" y="17" width="1" height="1" fill="#f8f9f9"/>
<rect x="9" y="17" width="1" height="1" fill="#f8f9f9"/>
<rect x="10" y="17" width="1" height="1" fill="#f8f9f9"/>
<rect x="11" y="17" width="1" height="1" fill="#f9f9f9"/>
<rect x="12" y="17" width="1" height="1" fill="#f9f7f7"/>
<rect x="13" y="17" width="1" height="1" fill="#fbf7f6"/>
<rect x="14" y="17" width="1" height="1" fill="#fefbfb"/>
<rect x="15" y="17" width="1" height="1" fill="#fefcfc"/>
<rect x="16" y="17" width="1" height="1" fill="#fffefe"/>
<rect x="17" y="17" width="1" height="1" fill="#fefdfd"/>
<rect x="18" y="17" width="1" height="1" fill="#fdfaf9"/>
<rect x="19" y="17" width="1" height="1" fill="#fcf7f6"/>
<rect x="20" y="17" width="1" height="1" fill="#fcf7f6"/>
<rect x="21" y="17" width="1" height="1" fill="#edd5d1"/>
<rect x="22" y="17" width="1" height="1" fill="#af3020" fill-opacity="0.98"/>
<rect x="23" y="17" width="1" height="1" fill="#c26154" fill-opacity="0.22"/>
<rect x="0" y="18" width="1" height="1" fill="#cf8379" fill-opacity="0.255"/>
<rect x="1" y="18" width="1" height="1" fill="#b03323" fill-opacity="0.976"/>
<rect x="2" y="18" width="1" height="1" fill="#c8837a"/>
<rect x="3" y="18" width="1" height="1" fill="#e7d6d5"/>
<rect x="4" y="18" width="1" height="1" fill="#f4f1f3"/>
<rect x="5" y="18" width="1" height="1" fill="#fafbfb"/>
<rect x="6" y="18" width="1" height="1" fill="#fcfdfd"/>
<rect x="7" y="18" width="1" height="1" fill="#fdfefe"/>
<rect x="8" y="18" width="1" height="1" fill="#fcfdfd"/>
<rect x="9" y="18" width="1" height="1" fill="#fbfbfb"/>
<rect x="10" y="18" width="1" height="1" fill="#fbfbfb"/>
<rect x="11" y="18" width="1" height="1" fill="#fdfdfd"/>
<rect x="12" y="18" width="1" height="1" fill="#f2dfdc"/>
<rect x="13" y="18" width="1" height="1" fill="#c4675c"/>
<rect x="14" y="18" width="1" height="1" fill="#b94b3d"/>
<rect x="15" y="18" width="1" height="1" fill="#b33c2d"/>
<rect x="16" y="18" width="1" height="1" fill="#c3695e"/>
<rect x="17" y="18" width="1" height="1" fill="#eed4d1"/>
<rect x="18" y="18" width="1" height="1" fill="#f9efed"/>
<rect x="19" y="18" width="1" height="1" fill="#fefdfd"/>
<rect x="20" y="18" width="1" height="1" fill="#f7ebea"/>
<rect x="21" y="18" width="1" height="1" fill="#e6c1be"/>
<rect x="22" y="18" width="1" height="1" fill="#af3020" fill-opacity="0.976"/>
<rect x="23" y="18" width="1" height="1" fill="#b94f42" fill-opacity="0.259"/>
<rect x="0" y="19" width="1" height="1" fill="#d38c83" fill-opacity="0.016"/>
<rect x="1" y="19" width="1" height="1" fill="#ae2c1c" fill-opacity="0.816"/>
<rect x="2" y="19" width="1" height="1" fill="#aa2313" fill-opacity="0.996"/>
<rect x="3" y="19" width="1" height="1" fill="#ac2818" fill-opacity="0.992"/>
<rect x="4" y="19" width="1" height="1" fill="#b64639" fill-opacity="0.996"/>
<rect x="5" y="19" width="1" height="1" fill="#bc594c"/>
<rect x="6" y="19" width="1" height="1" fill="#c06458"/>
<rect x="7" y="19" width="1" height="1" fill="#c36b60"/>
<rect x="8" y="19" width="1" height="1" fill="#c46d62"/>
<rect x="9" y="19" width="1" height="1" fill="#c8746a"/>
<rect x="10" y="19" width="1" height="1" fill="#ca756b"/>
<rect x="11" y="19" width="1" height="1" fill="#c0594c"/>
<rect x="12" y="19" width="1" height="1" fill="#b33828" fill-opacity="0.98"/>
<rect x="13" y="19" width="1" height="1" fill="#ad2b1b" fill-opacity="0.976"/>
<rect x="14" y="19" width="1" height="1" fill="#ba4c3e" fill-opacity="0.8"/>
<rect x="15" y="19" width="1" height="1" fill="#bf5a4e" fill-opacity="0.737"/>
<rect x="16" y="19" width="1" height="1" fill="#ac2a19" fill-opacity="0.988"/>
<rect x="17" y="19" width="1" height="1" fill="#b13b2c"/>
<rect x="18" y="19" width="1" height="1" fill="#b23b2d"/>
<rect x="19" y="19" width="1" height="1" fill="#b33d2f"/>
<rect x="20" y="19" width="1" height="1" fill="#b54234"/>
<rect x="21" y="19" width="1" height="1" fill="#c26458"/>
<rect x="22" y="19" width="1" height="1" fill="#bc5245" fill-opacity="0.843"/>
<rect x="23" y="19" width="1" height="1" fill="#c56c62" fill-opacity="0.098"/>
</svg>