<?xml version="1.0" encoding="UTF-8" standalone="no"?>
<svg xmlns="http://www.w3.org/2000/svg" width="26" height="21" shape-rendering="crispEdges">
<rect x="8" y="2" width="1" height="1" fill="#c8a200" fill-opacity="0.506"/>
<rect x="9" y="2" width="1" height="1" fill="#d0a700" fill-opacity="0.957"/>
<rect x="10" y="2" width="1" height="1" fill="#d2a900"/>
<rect x="11" y="2" width="1" height="1" fill="#d2a900"/>
<rect x="12" y="2" width="1" height="1" fill="#cda700"/>
<rect x="13" y="2" width="1" height="1" fill="#bfa300" fill-opacity="0.749"/>
<rect x="14" y="2" width="1" height="1" fill="#b49d00" fill-opacity="0.184"/>
<rect x="17" y="2" width="1" height="1" fill="#006700" fill-opacity="0.933"/>
<rect x="18" y="2" width="1" height="1" fill="#006700" fill-opacity="0.349"/>
<rect x="6" y="3" width="1" height="1" fill="#eeaf00" fill-opacity="0.008"/>
<rect x="7" y="3" width="1" height="1" fill="#caa300" fill-opacity="0.925"/>
<rect x="8" y="3" width="1" height="1" fill="#dcab00"/>
<rect x="9" y="3" width="1" height="1" fill="#eac900"/>
<rect x="10" y="3" width="1" height="1" fill="#edca00"/>
<rect x="11" y="3" width="1" height="1" fill="#e8cc00"/>
<rect x="12" y="3" width="1" height="1" fill="#e1c300"/>
<rect x="13" y="3" width="1" height="1" fill="#d8b100"/>
<rect x="14" y="3" width="1" height="1" fill="#d3ab00"/>
<rect x="15" y="3" width="1" height="1" fill="#b4a000" fill-opacity="0.518"/>
<rect x="17" y="3" width="1" height="1" fill="#006700"/>
<rect x="18" y="3" width="1" height="1" fill="#006500" fill-opacity="0.557"/>
<rect x="19" y="3" width="1" height="1" fill="#006700" fill-opacity="0.125"/>
<rect x="6" y="4" width="1" height="1" fill="#c8a200" fill-opacity="0.784"/>
<rect x="7" y="4" width="1" height="1" fill="#e2ae00"/>
<rect x="8" y="4" width="1" height="1" fill="#f7dc00"/>
<rect x="9" y="4" width="1" height="1" fill="#ffee07"/>
<rect x="10" y="4" width="1" height="1" fill="#ffec0c"/>
<rect x="11" y="4" width="1" height="1" fill="#ffee03"/>
<rect x="12" y="4" width="1" height="1" fill="#fbe500"/>
<rect x="13" y="4" width="1" height="1" fill="#e7cc00"/>
<rect x="14" y="4" width="1" height="1" fill="#eabd00"/>
<rect x="15" y="4" width="1" height="1" fill="#dfae00" fill-opacity="0.988"/>
<rect x="16" y="4" width="1" height="1" fill="#c6a800" fill-opacity="0.373"/>
<rect x="17" y="4" width="1" height="1" fill="#006700"/>
<rect x="18" y="4" width="1" height="1" fill="#006700"/>
<rect x="19" y="4" width="1" height="1" fill="#006700"/>
<rect x="20" y="4" width="1" height="1" fill="#006700" fill-opacity="0.157"/>
<rect x="5" y="5" width="1" height="1" fill="#c3a000" fill-opacity="0.725"/>
<rect x="6" y="5" width="1" height="1" fill="#e6b102"/>
<rect x="7" y="5" width="1" height="1" fill="#f2d706"/>
<rect x="8" y="5" width="1" height="1" fill="#fff015"/>
<rect x="9" y="5" width="1" height="1" fill="#fff11e"/>
<rect x="10" y="5" width="1" height="1" fill="#fff31a"/>
<rect x="11" y="5" width="1" height="1" fill="#fff109"/>
<rect x="12" y="5" width="1" height="1" fill="#ffef06"/>
<rect x="13" y="5" width="1" height="1" fill="#f8e600"/>
<rect x="14" y="5" width="1" height="1" fill="#f6da00"/>
<rect x="15" y="5" width="1" height="1" fill="#e2bf00"/>
<rect x="16" y="5" width="1" height="1" fill="#d1a600"/>
<rect x="17" y="5" width="1" height="1" fill="#bfb000" fill-opacity="0.122"/>
<rect x="3" y="6" width="1" height="1" fill="#e30000" fill-opacity="0.369"/>
<rect x="4" y="6" width="1" height="1" fill="#ff0000" fill-opacity="0.427"/>
<rect x="5" y="6" width="1" height="1" fill="#d29d00" fill-opacity="0.992"/>
<rect x="6" y="6" width="1" height="1" fill="#efc206"/>
<rect x="7" y="6" width="1" height="1" fill="#ffee14"/>
<rect x="8" y="6" width="1" height="1" fill="#fff228"/>
<rect x="9" y="6" width="1" height="1" fill="#fff733"/>
<rect x="10" y="6" width="1" height="1" fill="#fff730"/>
<rect x="11" y="6" width="1" height="1" fill="#fff51b"/>
<rect x="12" y="6" width="1" height="1" fill="#fff10a"/>
<rect x="13" y="6" width="1" height="1" fill="#fff005"/>
<rect x="14" y="6" width="1" height="1" fill="#f9e700"/>
<rect x="15" y="6" width="1" height="1" fill="#eed100"/>
<rect x="16" y="6" width="1" height="1" fill="#dbb200"/>
<rect x="17" y="6" width="1" height="1" fill="#c2ac00" fill-opacity="0.243"/>
<rect x="3" y="7" width="1" height="1" fill="#ec0000" fill-opacity="0.976"/>
<rect x="4" y="7" width="1" height="1" fill="#ff0000"/>
<rect x="5" y="7" width="1" height="1" fill="#daa400"/>
<rect x="6" y="7" width="1" height="1" fill="#f6d909"/>
<rect x="7" y="7" width="1" height="1" fill="#ffef19"/>
<rect x="8" y="7" width="1" height="1" fill="#555453"/>
<rect x="9" y="7" width="1" height="1" fill="#777777"/>
<rect x="10" y="7" width="1" height="1" fill="#ffef1d"/>
<rect x="11" y="7" width="1" height="1" fill="#fff628"/>
<rect x="12" y="7" width="1" height="1" fill="#fff51a"/>
<rect x="13" y="7" width="1" height="1" fill="#fff308"/>
<rect x="14" y="7" width="1" height="1" fill="#fceb00"/>
<rect x="15" y="7" width="1" height="1" fill="#f9e100"/>
<rect x="16" y="7" width="1" height="1" fill="#e1b900"/>
<rect x="17" y="7" width="1" height="1" fill="#d5ac00" fill-opacity="0.714"/>
<rect x="4" y="8" width="1" height="1" fill="#ff0000" fill-opacity="0.953"/>
<rect x="5" y="8" width="1" height="1" fill="#e4aa00"/>
<rect x="6" y="8" width="1" height="1" fill="#fcdd09"/>
<rect x="7" y="8" width="1" height="1" fill="#fff020"/>
<rect x="8" y="8" width="1" height="1" fill="#4e4e4d"/>
<rect x="9" y="8" width="1" height="1" fill="#1c1c1d"/>
<rect x="10" y="8" width="1" height="1" fill="#ffe71a"/>
<rect x="11" y="8" width="1" height="1" fill="#fff633"/>
<rect x="12" y="8" width="1" height="1" fill="#fff225"/>
<rect x="13" y="8" width="1" height="1" fill="#fff20c"/>
<rect x="14" y="8" width="1" height="1" fill="#fbeb00"/>
<rect x="15" y="8" width="1" height="1" fill="#fbe700"/>
<rect x="16" y="8" width="1" height="1" fill="#ebd100"/>
<rect x="17" y="8" width="1" height="1" fill="#dbb200" fill-opacity="0.957"/>
<rect x="18" y="8" width="1" height="1" fill="#d4a600" fill-opacity="0.149"/>
<rect x="5" y="9" width="1" height="1" fill="#e5ad00"/>
<rect x="6" y="9" width="1" height="1" fill="#f9dc06"/>
<rect x="7" y="9" width="1" height="1" fill="#fff01d"/>
<rect x="8" y="9" width="1" height="1" fill="#ffeb17"/>
<rect x="9" y="9" width="1" height="1" fill="#fdd712"/>
<rect x="10" y="9" width="1" height="1" fill="#ef8c12"/>
<rect x="11" y="9" width="1" height="1" fill="#f1a606"/>
<rect x="12" y="9" width="1" height="1" fill="#fee500"/>
<rect x="13" y="9" width="1" height="1" fill="#fff522"/>
<rect x="14" y="9" width="1" height="1" fill="#fff209"/>
<rect x="15" y="9" width="1" height="1" fill="#f3e400"/>
<rect x="16" y="9" width="1" height="1" fill="#f8e400"/>
<rect x="17" y="9" width="1" height="1" fill="#ebc900"/>
<rect x="18" y="9" width="1" height="1" fill="#d4ad00" fill-opacity="0.878"/>
<rect x="19" y="9" width="1" height="1" fill="#d9b200" fill-opacity="0.043"/>
<rect x="5" y="10" width="1" height="1" fill="#e0ab00" fill-opacity="0.988"/>
<rect x="6" y="10" width="1" height="1" fill="#f6dc02"/>
<rect x="7" y="10" width="1" height="1" fill="#fff008"/>
<rect x="8" y="10" width="1" height="1" fill="#fff30d"/>
<rect x="9" y="10" width="1" height="1" fill="#fff637"/>
<rect x="10" y="10" width="1" height="1" fill="#fff634"/>
<rect x="11" y="10" width="1" height="1" fill="#fff735"/>
<rect x="12" y="10" width="1" height="1" fill="#fff531"/>
<rect x="13" y="10" width="1" height="1" fill="#fff411"/>
<rect x="14" y="10" width="1" height="1" fill="#fff109"/>
<rect x="15" y="10" width="1" height="1" fill="#f8ec00"/>
<rect x="16" y="10" width="1" height="1" fill="#efdc00"/>
<rect x="17" y="10" width="1" height="1" fill="#f0d800"/>
<rect x="18" y="10" width="1" height="1" fill="#e5c100" fill-opacity="0.996"/>
<rect x="19" y="10" width="1" height="1" fill="#d3ae00" fill-opacity="0.925"/>
<rect x="20" y="10" width="1" height="1" fill="#b79f00" fill-opacity="0.153"/>
<rect x="5" y="11" width="1" height="1" fill="#d9aa00"/>
<rect x="6" y="11" width="1" height="1" fill="#f3d500"/>
<rect x="7" y="11" width="1" height="1" fill="#fdec00"/>
<rect x="8" y="11" width="1" height="1" fill="#fff106"/>
<rect x="9" y="11" width="1" height="1" fill="#fff637"/>
<rect x="10" y="11" width="1" height="1" fill="#fff530"/>
<rect x="11" y="11" width="1" height="1" fill="#fff527"/>
<rect x="12" y="11" width="1" height="1" fill="#ffeb05"/>
<rect x="13" y="11" width="1" height="1" fill="#f1e500"/>
<rect x="14" y="11" width="1" height="1" fill="#fcef00"/>
<rect x="15" y="11" width="1" height="1" fill="#fff204"/>
<rect x="16" y="11" width="1" height="1" fill="#f1e600"/>
<rect x="17" y="11" width="1" height="1" fill="#f8df00"/>
<rect x="18" y="11" width="1" height="1" fill="#f2da00"/>
<rect x="19" y="11" width="1" height="1" fill="#e4c400"/>
<rect x="20" y="11" width="1" height="1" fill="#d7ad00" fill-opacity="0.949"/>
<rect x="21" y="11" width="1" height="1" fill="#c4a100" fill-opacity="0.467"/>
<rect x="22" y="11" width="1" height="1" fill="#b59c00" fill-opacity="0.02"/>
<rect x="5" y="12" width="1" height="1" fill="#d6ab00" fill-opacity="0.973"/>
<rect x="6" y="12" width="1" height="1" fill="#edce00"/>
<rect x="7" y="12" width="1" height="1" fill="#fdef00"/>
<rect x="8" y="12" width="1" height="1" fill="#fff503"/>
<rect x="9" y="12" width="1" height="1" fill="#fff704"/>
<rect x="10" y="12" width="1" height="1" fill="#fff60b"/>
<rect x="11" y="12" width="1" height="1" fill="#f2e600"/>
<rect x="12" y="12" width="1" height="1" fill="#d9c100"/>
<rect x="13" y="12" width="1" height="1" fill="#edd200"/>
<rect x="14" y="12" width="1" height="1" fill="#f1e400"/>
<rect x="15" y="12" width="1" height="1" fill="#efe400"/>
<rect x="16" y="12" width="1" height="1" fill="#edd600"/>
<rect x="17" y="12" width="1" height="1" fill="#d6bf00"/>
<rect x="18" y="12" width="1" height="1" fill="#fcdf00"/>
<rect x="19" y="12" width="1" height="1" fill="#f3da00"/>
<rect x="20" y="12" width="1" height="1" fill="#e5c300"/>
<rect x="21" y="12" width="1" height="1" fill="#dcae00" fill-opacity="0.996"/>
<rect x="22" y="12" width="1" height="1" fill="#d7aa00" fill-opacity="0.22"/>
<rect x="4" y="13" width="1" height="1" fill="#c3ac00" fill-opacity="0.004"/>
<rect x="5" y="13" width="1" height="1" fill="#daac00" fill-opacity="0.918"/>
<rect x="6" y="13" width="1" height="1" fill="#e9c000"/>
<rect x="7" y="13" width="1" height="1" fill="#ffea01" fill-opacity="0.996"/>
<rect x="8" y="13" width="1" height="1" fill="#fff407"/>
<rect x="9" y="13" width="1" height="1" fill="#fff704"/>
<rect x="10" y="13" width="1" height="1" fill="#fff606"/>
<rect x="11" y="13" width="1" height="1" fill="#f5ea00"/>
<rect x="12" y="13" width="1" height="1" fill="#d7b600"/>
<rect x="13" y="13" width="1" height="1" fill="#d4b500"/>
<rect x="14" y="13" width="1" height="1" fill="#e5cf00"/>
<rect x="15" y="13" width="1" height="1" fill="#e9d100"/>
<rect x="16" y="13" width="1" height="1" fill="#d6bd00"/>
<rect x="17" y="13" width="1" height="1" fill="#dcb800"/>
<rect x="18" y="13" width="1" height="1" fill="#ebda00"/>
<rect x="19" y="13" width="1" height="1" fill="#f1d800"/>
<rect x="20" y="13" width="1" height="1" fill="#e2c100"/>
<rect x="21" y="13" width="1" height="1" fill="#d7aa00" fill-opacity="0.925"/>
<rect x="22" y="13" width="1" height="1" fill="#ecb100" fill-opacity="0.09"/>
<rect x="4" y="14" width="1" height="1" fill="#c3ac00" fill-opacity="0.008"/>
<rect x="5" y="14" width="1" height="1" fill="#d1a900" fill-opacity="0.722"/>
<rect x="6" y="14" width="1" height="1" fill="#e8b400"/>
<rect x="7" y="14" width="1" height="1" fill="#fcdd00" fill-opacity="0.996"/>
<rect x="8" y="14" width="1" height="1" fill="#fff006"/>
<rect x="9" y="14" width="1" height="1" fill="#fff707"/>
<rect x="10" y="14" width="1" height="1" fill="#fff505"/>
<rect x="11" y="14" width="1" height="1" fill="#fbee00"/>
<rect x="12" y="14" width="1" height="1" fill="#eee200"/>
<rect x="13" y="14" width="1" height="1" fill="#d2b400"/>
<rect x="14" y="14" width="1" height="1" fill="#dcae00"/>
<rect x="15" y="14" width="1" height="1" fill="#ddaf00"/>
<rect x="16" y="14" width="1" height="1" fill="#e3c000"/>
<rect x="17" y="14" width="1" height="1" fill="#f2e100"/>
<rect x="18" y="14" width="1" height="1" fill="#f0dc00"/>
<rect x="19" y="14" width="1" height="1" fill="#e3c500"/>
<rect x="20" y="14" width="1" height="1" fill="#daae00" fill-opacity="0.996"/>
<rect x="21" y="14" width="1" height="1" fill="#caad00" fill-opacity="0.369"/>
<rect x="22" y="14" width="1" height="1" fill="#afb000" fill-opacity="0.004"/>
<rect x="5" y="15" width="1" height="1" fill="#c6ac00" fill-opacity="0.314"/>
<rect x="6" y="15" width="1" height="1" fill="#daaa00" fill-opacity="0.957"/>
<rect x="7" y="15" width="1" height="1" fill="#f7d200"/>
<rect x="8" y="15" width="1" height="1" fill="#ffe300"/>
<rect x="9" y="15" width="1" height="1" fill="#fff407"/>
<rect x="10" y="15" width="1" height="1" fill="#fff608"/>
<rect x="11" y="15" width="1" height="1" fill="#ffec14"/>
<rect x="12" y="15" width="1" height="1" fill="#ffe804"/>
<rect x="13" y="15" width="1" height="1" fill="#feee00"/>
<rect x="14" y="15" width="1" height="1" fill="#f7e400"/>
<rect x="15" y="15" width="1" height="1" fill="#fae800"/>
<rect x="16" y="15" width="1" height="1" fill="#f6e000"/>
<rect x="17" y="15" width="1" height="1" fill="#efd900"/>
<rect x="18" y="15" width="1" height="1" fill="#e7c400"/>
<rect x="19" y="15" width="1" height="1" fill="#e3ad00" fill-opacity="0.996"/>
<rect x="20" y="15" width="1" height="1" fill="#c7a900" fill-opacity="0.478"/>
<rect x="21" y="15" width="1" height="1" fill="#afb000" fill-opacity="0.004"/>
<rect x="5" y="16" width="1" height="1" fill="#c3ac00" fill-opacity="0.106"/>
<rect x="6" y="16" width="1" height="1" fill="#d3ad00" fill-opacity="0.824"/>
<rect x="7" y="16" width="1" height="1" fill="#e1b700" fill-opacity="0.988"/>
<rect x="8" y="16" width="1" height="1" fill="#f8d800"/>
<rect x="9" y="16" width="1" height="1" fill="#ffe802"/>
<rect x="10" y="16" width="1" height="1" fill="#fff304"/>
<rect x="11" y="16" width="1" height="1" fill="#fff21d"/>
<rect x="12" y="16" width="1" height="1" fill="#ffed10"/>
<rect x="13" y="16" width="1" height="1" fill="#ffea02"/>
<rect x="14" y="16" width="1" height="1" fill="#ffea00"/>
<rect x="15" y="16" width="1" height="1" fill="#f2db00"/>
<rect x="16" y="16" width="1" height="1" fill="#eed600"/>
<rect x="17" y="16" width="1" height="1" fill="#e8c300"/>
<rect x="18" y="16" width="1" height="1" fill="#deb000"/>
<rect x="19" y="16" width="1" height="1" fill="#cba700" fill-opacity="0.502"/>
<rect x="20" y="16" width="1" height="1" fill="#f3bb00" fill-opacity="0.012"/>
<rect x="5" y="17" width="1" height="1" fill="#c3ac00" fill-opacity="0.012"/>
<rect x="6" y="17" width="1" height="1" fill="#c3ac00" fill-opacity="0.431"/>
<rect x="7" y="17" width="1" height="1" fill="#d7b000" fill-opacity="0.929"/>
<rect x="8" y="17" width="1" height="1" fill="#e7ba00"/>
<rect x="9" y="17" width="1" height="1" fill="#fdda00"/>
<rect x="10" y="17" width="1" height="1" fill="#ffe809"/>
<rect x="11" y="17" width="1" height="1" fill="#ffeb0b"/>
<rect x="12" y="17" width="1" height="1" fill="#ffea10"/>
<rect x="13" y="17" width="1" height="1" fill="#fde700"/>
<rect x="14" y="17" width="1" height="1" fill="#f0d900"/>
<rect x="15" y="17" width="1" height="1" fill="#e9cc00"/>
<rect x="16" y="17" width="1" height="1" fill="#e6be00"/>
<rect x="17" y="17" width="1" height="1" fill="#e0b000"/>
<rect x="18" y="17" width="1" height="1" fill="#c2a600" fill-opacity="0.522"/>
<rect x="19" y="17" width="1" height="1" fill="#b59c00" fill-opacity="0.004"/>
<rect x="6" y="18" width="1" height="1" fill="#c3ac00" fill-opacity="0.094"/>
<rect x="7" y="18" width="1" height="1" fill="#c4aa00" fill-opacity="0.533"/>
<rect x="8" y="18" width="1" height="1" fill="#d2aa00" fill-opacity="0.965"/>
<rect x="9" y="18" width="1" height="1" fill="#e1b400"/>
<rect x="10" y="18" width="1" height="1" fill="#fad500"/>
<rect x="11" y="18" width="1" height="1" fill="#f9d800"/>
<rect x="12" y="18" width="1" height="1" fill="#f5d400"/>
<rect x="13" y="18" width="1" height="1" fill="#f0ce00"/>
<rect x="14" y="18" width="1" height="1" fill="#edca00"/>
<rect x="15" y="18" width="1" height="1" fill="#dfb800"/>
<rect x="16" y="18" width="1" height="1" fill="#ddad00" fill-opacity="0.996"/>
<rect x="17" y="18" width="1" height="1" fill="#c9a500" fill-opacity="0.447"/>
<rect x="18" y="18" width="1" height="1" fill="#b59c00" fill-opacity="0.004"/>
<rect x="7" y="19" width="1" height="1" fill="#c3ac00" fill-opacity="0.02"/>
<rect x="8" y="19" width="1" height="1" fill="#b69d00" fill-opacity="0.369"/>
<rect x="9" y="19" width="1" height="1" fill="#caa900" fill-opacity="0.784"/>
<rect x="10" y="19" width="1" height="1" fill="#dfad00" fill-opacity="0.996"/>
<rect x="11" y="19" width="1" height="1" fill="#e8af00"/>
<rect x="12" y="19" width="1" height="1" fill="#e7ae00"/>
<rect x="13" y="19" width="1" height="1" fill="#dfad00"/>
<rect x="14" y="19" width="1" height="1" fill="#daaa00" fill-opacity="0.996"/>
<rect x="15" y="19" width="1" height="1" fill="#d5a800" fill-opacity="0.643"/>
<rect x="16" y="19" width="1" height="1" fill="#c6a700" fill-opacity="0.141"/>
<rect x="17" y="19" width="1" height="1" fill="#b59c00" fill-opacity="0.004"/>
<rect x="11" y="20" width="1" height="1" fill="#aeaf00" fill-opacity="0.075"/>
<rect x="12" y="20" width="1" height="1" fill="#acad00" fill-opacity="0.055"/>
</svg>