<?xml version="1.0" encoding="UTF-8" standalone="no"?>
<svg xmlns="http://www.w3.org/2000/svg" width="26" height="21" shape-rendering="crispEdges">
<rect x="14" y="1" width="1" height="1" fill="#ba9c7e" fill-opacity="0.039"/>
<rect x="15" y="1" width="1" height="1" fill="#9d6d3c" fill-opacity="0.796"/>
<rect x="16" y="1" width="1" height="1" fill="#95612b" fill-opacity="0.918"/>
<rect x="17" y="1" width="1" height="1" fill="#a6794c" fill-opacity="0.475"/>
<rect x="18" y="1" width="1" height="1" fill="#904b07" fill-opacity="0.016"/>
<rect x="13" y="2" width="1" height="1" fill="#ae8962" fill-opacity="0.039"/>
<rect x="14" y="2" width="1" height="1" fill="#9f7447" fill-opacity="0.8"/>
<rect x="15" y="2" width="1" height="1" fill="#a7794c" fill-opacity="0.996"/>
<rect x="16" y="2" width="1" height="1" fill="#bc9976"/>
<rect x="17" y="2" width="1" height="1" fill="#935a20" fill-opacity="0.98"/>
<rect x="18" y="2" width="1" height="1" fill="#a16e3b" fill-opacity="0.714"/>
<rect x="19" y="2" width="1" height="1" fill="#904b07" fill-opacity="0.031"/>
<rect x="12" y="3" width="1" height="1" fill="#b29576" fill-opacity="0.039"/>
<rect x="13" y="3" width="1" height="1" fill="#9e6e3d" fill-opacity="0.741"/>
<rect x="14" y="3" width="1" height="1" fill="#9e6b39" fill-opacity="0.996"/>
<rect x="15" y="3" width="1" height="1" fill="#f4efea"/>
<rect x="16" y="3" width="1" height="1" fill="#ffffff"/>
<rect x="17" y="3" width="1" height="1" fill="#e3d5c8"/>
<rect x="18" y="3" width="1" height="1" fill="#a1703f" fill-opacity="0.984"/>
<rect x="19" y="3" width="1" height="1" fill="#a27242" fill-opacity="0.812"/>
<rect x="20" y="3" width="1" height="1" fill="#aa7c4f" fill-opacity="0.067"/>
<rect x="12" y="4" width="1" height="1" fill="#b49678" fill-opacity="0.078"/>
<rect x="13" y="4" width="1" height="1" fill="#94591e" fill-opacity="0.941"/>
<rect x="14" y="4" width="1" height="1" fill="#b08f6d"/>
<rect x="15" y="4" width="1" height="1" fill="#ffffff"/>
<rect x="16" y="4" width="1" height="1" fill="#ffffff"/>
<rect x="17" y="4" width="1" height="1" fill="#ffffff"/>
<rect x="18" y="4" width="1" height="1" fill="#f4efea"/>
<rect x="19" y="4" width="1" height="1" fill="#b99876" fill-opacity="0.984"/>
<rect x="20" y="4" width="1" height="1" fill="#9d6e3d" fill-opacity="0.89"/>
<rect x="21" y="4" width="1" height="1" fill="#b18a62" fill-opacity="0.235"/>
<rect x="12" y="5" width="1" height="1" fill="#bf6406" fill-opacity="0.016"/>
<rect x="13" y="5" width="1" height="1" fill="#ac7640" fill-opacity="0.51"/>
<rect x="14" y="5" width="1" height="1" fill="#955a1f" fill-opacity="0.976"/>
<rect x="15" y="5" width="1" height="1" fill="#d2c6b9"/>
<rect x="16" y="5" width="1" height="1" fill="#ffffff"/>
<rect x="17" y="5" width="1" height="1" fill="#ffffff"/>
<rect x="18" y="5" width="1" height="1" fill="#fefeff"/>
<rect x="19" y="5" width="1" height="1" fill="#fbf9f8"/>
<rect x="20" y="5" width="1" height="1" fill="#ceb8a3" fill-opacity="0.996"/>
<rect x="21" y="5" width="1" height="1" fill="#92612b" fill-opacity="0.965"/>
<rect x="22" y="5" width="1" height="1" fill="#b69471" fill-opacity="0.42"/>
<rect x="11" y="6" width="1" height="1" fill="#bea182" fill-opacity="0.016"/>
<rect x="12" y="6" width="1" height="1" fill="#b38e65" fill-opacity="0.502"/>
<rect x="13" y="6" width="1" height="1" fill="#9c6b38" fill-opacity="0.957"/>
<rect x="14" y="6" width="1" height="1" fill="#a96422" fill-opacity="0.925"/>
<rect x="15" y="6" width="1" height="1" fill="#a65b11"/>
<rect x="16" y="6" width="1" height="1" fill="#d3b397"/>
<rect x="17" y="6" width="1" height="1" fill="#fefefe"/>
<rect x="18" y="6" width="1" height="1" fill="#ffffff"/>
<rect x="19" y="6" width="1" height="1" fill="#fefeff"/>
<rect x="20" y="6" width="1" height="1" fill="#fdfdfd"/>
<rect x="21" y="6" width="1" height="1" fill="#e5dacf"/>
<rect x="22" y="6" width="1" height="1" fill="#9a6c3b" fill-opacity="0.976"/>
<rect x="23" y="6" width="1" height="1" fill="#ac8761" fill-opacity="0.639"/>
<rect x="24" y="6" width="1" height="1" fill="#ba9c7e" fill-opacity="0.031"/>
<rect x="3" y="7" width="1" height="1" fill="#b15c09" fill-opacity="0.008"/>
<rect x="4" y="7" width="1" height="1" fill="#b15e08" fill-opacity="0.09"/>
<rect x="5" y="7" width="1" height="1" fill="#ae5b07" fill-opacity="0.396"/>
<rect x="6" y="7" width="1" height="1" fill="#a55707" fill-opacity="0.639"/>
<rect x="7" y="7" width="1" height="1" fill="#a45707" fill-opacity="0.678"/>
<rect x="8" y="7" width="1" height="1" fill="#a75808" fill-opacity="0.557"/>
<rect x="9" y="7" width="1" height="1" fill="#ac5a08" fill-opacity="0.31"/>
<rect x="10" y="7" width="1" height="1" fill="#b37c4a" fill-opacity="0.188"/>
<rect x="11" y="7" width="1" height="1" fill="#a17547" fill-opacity="0.863"/>
<rect x="12" y="7" width="1" height="1" fill="#a07549" fill-opacity="0.961"/>
<rect x="13" y="7" width="1" height="1" fill="#e1d8d0"/>
<rect x="14" y="7" width="1" height="1" fill="#ebe1d6" fill-opacity="0.976"/>
<rect x="15" y="7" width="1" height="1" fill="#b4712f" fill-opacity="0.937"/>
<rect x="16" y="7" width="1" height="1" fill="#9e540a"/>
<rect x="17" y="7" width="1" height="1" fill="#b87840"/>
<rect x="18" y="7" width="1" height="1" fill="#eff1ed"/>
<rect x="19" y="7" width="1" height="1" fill="#feffff"/>
<rect x="20" y="7" width="1" height="1" fill="#fefefe"/>
<rect x="21" y="7" width="1" height="1" fill="#fefefe"/>
<rect x="22" y="7" width="1" height="1" fill="#f1ebe7"/>
<rect x="23" y="7" width="1" height="1" fill="#af8c66" fill-opacity="0.992"/>
<rect x="24" y="7" width="1" height="1" fill="#a47c51" fill-opacity="0.784"/>
<rect x="2" y="8" width="1" height="1" fill="#a7520a" fill-opacity="0.071"/>
<rect x="3" y="8" width="1" height="1" fill="#a75708" fill-opacity="0.573"/>
<rect x="4" y="8" width="1" height="1" fill="#924e07" fill-opacity="0.949"/>
<rect x="5" y="8" width="1" height="1" fill="#944e07" fill-opacity="0.996"/>
<rect x="6" y="8" width="1" height="1" fill="#a05407"/>
<rect x="7" y="8" width="1" height="1" fill="#9f5308"/>
<rect x="8" y="8" width="1" height="1" fill="#985008"/>
<rect x="9" y="8" width="1" height="1" fill="#8f4c07" fill-opacity="0.996"/>
<rect x="10" y="8" width="1" height="1" fill="#8f4c07" fill-opacity="0.988"/>
<rect x="11" y="8" width="1" height="1" fill="#b1875c" fill-opacity="0.949"/>
<rect x="12" y="8" width="1" height="1" fill="#ece7e2"/>
<rect x="13" y="8" width="1" height="1" fill="#fbfbfc"/>
<rect x="14" y="8" width="1" height="1" fill="#fcfcfc"/>
<rect x="15" y="8" width="1" height="1" fill="#f4f0ec"/>
<rect x="16" y="8" width="1" height="1" fill="#c57d3c" fill-opacity="0.961"/>
<rect x="17" y="8" width="1" height="1" fill="#9a5107"/>
<rect x="18" y="8" width="1" height="1" fill="#ac5e17"/>
<rect x="19" y="8" width="1" height="1" fill="#d8bda7"/>
<rect x="20" y="8" width="1" height="1" fill="#f4f6f5" fill-opacity="0.996"/>
<rect x="21" y="8" width="1" height="1" fill="#fbfcfc"/>
<rect x="22" y="8" width="1" height="1" fill="#fdfdfe"/>
<rect x="23" y="8" width="1" height="1" fill="#f6f2ef"/>
<rect x="24" y="8" width="1" height="1" fill="#844a0d"/>
<rect x="25" y="8" width="1" height="1" fill="#904b07" fill-opacity="0.043"/>
<rect x="1" y="9" width="1" height="1" fill="#ac590b" fill-opacity="0.047"/>
<rect x="2" y="9" width="1" height="1" fill="#9f5408" fill-opacity="0.741"/>
<rect x="3" y="9" width="1" height="1" fill="#9d5308"/>
<rect x="4" y="9" width="1" height="1" fill="#bd620a"/>
<rect x="5" y="9" width="1" height="1" fill="#d5710f"/>
<rect x="6" y="9" width="1" height="1" fill="#e38221"/>
<rect x="7" y="9" width="1" height="1" fill="#e0780e"/>
<rect x="8" y="9" width="1" height="1" fill="#d6700b"/>
<rect x="9" y="9" width="1" height="1" fill="#bb6109"/>
<rect x="10" y="9" width="1" height="1" fill="#9d5308"/>
<rect x="11" y="9" width="1" height="1" fill="#a1580f" fill-opacity="0.984"/>
<rect x="12" y="9" width="1" height="1" fill="#cdb499" fill-opacity="0.949"/>
<rect x="13" y="9" width="1" height="1" fill="#fcfbfb"/>
<rect x="14" y="9" width="1" height="1" fill="#fbfbfb"/>
<rect x="15" y="9" width="1" height="1" fill="#efe6df" fill-opacity="0.992"/>
<rect x="16" y="9" width="1" height="1" fill="#cf7f3e" fill-opacity="0.996"/>
<rect x="17" y="9" width="1" height="1" fill="#ad5a08"/>
<rect x="18" y="9" width="1" height="1" fill="#9b5207"/>
<rect x="19" y="9" width="1" height="1" fill="#a15509"/>
<rect x="20" y="9" width="1" height="1" fill="#c17f45"/>
<rect x="21" y="9" width="1" height="1" fill="#e5d8cd" fill-opacity="0.992"/>
<rect x="22" y="9" width="1" height="1" fill="#f4f6f5"/>
<rect x="23" y="9" width="1" height="1" fill="#a67646"/>
<rect x="24" y="9" width="1" height="1" fill="#98612a" fill-opacity="0.886"/>
<rect x="25" y="9" width="1" height="1" fill="#904b07" fill-opacity="0.031"/>
<rect x="1" y="10" width="1" height="1" fill="#a4550a" fill-opacity="0.506"/>
<rect x="2" y="10" width="1" height="1" fill="#984f09" fill-opacity="0.992"/>
<rect x="3" y="10" width="1" height="1" fill="#bb600c"/>
<rect x="4" y="10" width="1" height="1" fill="#d5761d"/>
<rect x="5" y="10" width="1" height="1" fill="#f3b67a"/>
<rect x="6" y="10" width="1" height="1" fill="#feb56a"/>
<rect x="7" y="10" width="1" height="1" fill="#fe9528"/>
<rect x="8" y="10" width="1" height="1" fill="#fa8b19"/>
<rect x="9" y="10" width="1" height="1" fill="#f07f0d"/>
<rect x="10" y="10" width="1" height="1" fill="#e2770a"/>
<rect x="11" y="10" width="1" height="1" fill="#b96108"/>
<rect x="12" y="10" width="1" height="1" fill="#9e570f" fill-opacity="0.988"/>
<rect x="13" y="10" width="1" height="1" fill="#bf9a77" fill-opacity="0.98"/>
<rect x="14" y="10" width="1" height="1" fill="#e5d1c1" fill-opacity="0.945"/>
<rect x="15" y="10" width="1" height="1" fill="#a5590e"/>
<rect x="16" y="10" width="1" height="1" fill="#a35508"/>
<rect x="17" y="10" width="1" height="1" fill="#c16407"/>
<rect x="18" y="10" width="1" height="1" fill="#d36e0c"/>
<rect x="19" y="10" width="1" height="1" fill="#a95a0b"/>
<rect x="20" y="10" width="1" height="1" fill="#a4570a"/>
<rect x="21" y="10" width="1" height="1" fill="#b56418"/>
<rect x="22" y="10" width="1" height="1" fill="#b58354"/>
<rect x="23" y="10" width="1" height="1" fill="#915111" fill-opacity="0.988"/>
<rect x="24" y="10" width="1" height="1" fill="#a87d4f" fill-opacity="0.243"/>
<rect x="1" y="11" width="1" height="1" fill="#964e09" fill-opacity="0.878"/>
<rect x="2" y="11" width="1" height="1" fill="#a0520a"/>
<rect x="3" y="11" width="1" height="1" fill="#ba5f0d"/>
<rect x="4" y="11" width="1" height="1" fill="#dd8837"/>
<rect x="5" y="11" width="1" height="1" fill="#fdb66d"/>
<rect x="6" y="11" width="1" height="1" fill="#ffaa53"/>
<rect x="7" y="11" width="1" height="1" fill="#ffa141"/>
<rect x="8" y="11" width="1" height="1" fill="#ff9c39"/>
<rect x="9" y="11" width="1" height="1" fill="#fd9325"/>
<rect x="10" y="11" width="1" height="1" fill="#f98c1c"/>
<rect x="11" y="11" width="1" height="1" fill="#f08314"/>
<rect x="12" y="11" width="1" height="1" fill="#c96b0b"/>
<rect x="13" y="11" width="1" height="1" fill="#ab5e10"/>
<rect x="14" y="11" width="1" height="1" fill="#b76413" fill-opacity="0.984"/>
<rect x="15" y="11" width="1" height="1" fill="#a55607"/>
<rect x="16" y="11" width="1" height="1" fill="#d87209"/>
<rect x="17" y="11" width="1" height="1" fill="#fd8a14"/>
<rect x="18" y="11" width="1" height="1" fill="#f68d23"/>
<rect x="19" y="11" width="1" height="1" fill="#ed8923"/>
<rect x="20" y="11" width="1" height="1" fill="#ce7318"/>
<rect x="21" y="11" width="1" height="1" fill="#a8590c"/>
<rect x="22" y="11" width="1" height="1" fill="#954e08"/>
<rect x="23" y="11" width="1" height="1" fill="#9c5713" fill-opacity="0.643"/>
<rect x="1" y="12" width="1" height="1" fill="#8c4a07" fill-opacity="0.976"/>
<rect x="2" y="12" width="1" height="1" fill="#9c500a"/>
<rect x="3" y="12" width="1" height="1" fill="#b25b0d"/>
<rect x="4" y="12" width="1" height="1" fill="#e07710"/>
<rect x="5" y="12" width="1" height="1" fill="#fa942d"/>
<rect x="6" y="12" width="1" height="1" fill="#fea142"/>
<rect x="7" y="12" width="1" height="1" fill="#ffa244"/>
<rect x="8" y="12" width="1" height="1" fill="#ffa041"/>
<rect x="9" y="12" width="1" height="1" fill="#ff9e3b"/>
<rect x="10" y="12" width="1" height="1" fill="#ff9b35"/>
<rect x="11" y="12" width="1" height="1" fill="#fd962b"/>
<rect x="12" y="12" width="1" height="1" fill="#fd8e1d"/>
<rect x="13" y="12" width="1" height="1" fill="#f48310"/>
<rect x="14" y="12" width="1" height="1" fill="#f2800a"/>
<rect x="15" y="12" width="1" height="1" fill="#fd860b"/>
<rect x="16" y="12" width="1" height="1" fill="#ff8d18"/>
<rect x="17" y="12" width="1" height="1" fill="#fe972e"/>
<rect x="18" y="12" width="1" height="1" fill="#fe9b37"/>
<rect x="19" y="12" width="1" height="1" fill="#fd9830"/>
<rect x="20" y="12" width="1" height="1" fill="#f48f28"/>
<rect x="21" y="12" width="1" height="1" fill="#be6a15"/>
<rect x="22" y="12" width="1" height="1" fill="#9b5209" fill-opacity="0.996"/>
<rect x="23" y="12" width="1" height="1" fill="#aa5a07" fill-opacity="0.447"/>
<rect x="1" y="13" width="1" height="1" fill="#8d4a08" fill-opacity="0.976"/>
<rect x="2" y="13" width="1" height="1" fill="#9a4f09"/>
<rect x="3" y="13" width="1" height="1" fill="#b25c0d"/>
<rect x="4" y="13" width="1" height="1" fill="#cb6a0c"/>
<rect x="5" y="13" width="1" height="1" fill="#ec851d"/>
<rect x="6" y="13" width="1" height="1" fill="#f39435"/>
<rect x="7" y="13" width="1" height="1" fill="#f69839"/>
<rect x="8" y="13" width="1" height="1" fill="#f99834"/>
<rect x="9" y="13" width="1" height="1" fill="#fa9632"/>
<rect x="10" y="13" width="1" height="1" fill="#fc9831"/>
<rect x="11" y="13" width="1" height="1" fill="#fd952b"/>
<rect x="12" y="13" width="1" height="1" fill="#fe9120"/>
<rect x="13" y="13" width="1" height="1" fill="#fb8914"/>
<rect x="14" y="13" width="1" height="1" fill="#f7830e"/>
<rect x="15" y="13" width="1" height="1" fill="#f88714"/>
<rect x="16" y="13" width="1" height="1" fill="#fa9328"/>
<rect x="17" y="13" width="1" height="1" fill="#fe9b36"/>
<rect x="18" y="13" width="1" height="1" fill="#ff9d39"/>
<rect x="19" y="13" width="1" height="1" fill="#fd9830"/>
<rect x="20" y="13" width="1" height="1" fill="#f99128"/>
<rect x="21" y="13" width="1" height="1" fill="#c26d16"/>
<rect x="22" y="13" width="1" height="1" fill="#9d5209"/>
<rect x="23" y="13" width="1" height="1" fill="#a05207" fill-opacity="0.682"/>
<rect x="24" y="13" width="1" height="1" fill="#a45508" fill-opacity="0.004"/>
<rect x="0" y="14" width="1" height="1" fill="#bd9e7e" fill-opacity="0.106"/>
<rect x="1" y="14" width="1" height="1" fill="#935010" fill-opacity="0.91"/>
<rect x="2" y="14" width="1" height="1" fill="#944d09"/>
<rect x="3" y="14" width="1" height="1" fill="#a6540d"/>
<rect x="4" y="14" width="1" height="1" fill="#b25c0b"/>
<rect x="5" y="14" width="1" height="1" fill="#be640f"/>
<rect x="6" y="14" width="1" height="1" fill="#d67415"/>
<rect x="7" y="14" width="1" height="1" fill="#e07c18"/>
<rect x="8" y="14" width="1" height="1" fill="#e27b15"/>
<rect x="9" y="14" width="1" height="1" fill="#e97f16"/>
<rect x="10" y="14" width="1" height="1" fill="#ee8217"/>
<rect x="11" y="14" width="1" height="1" fill="#f48413"/>
<rect x="12" y="14" width="1" height="1" fill="#f58310"/>
<rect x="13" y="14" width="1" height="1" fill="#ed7f10"/>
<rect x="14" y="14" width="1" height="1" fill="#ea7d10"/>
<rect x="15" y="14" width="1" height="1" fill="#e87d10"/>
<rect x="16" y="14" width="1" height="1" fill="#eb841b"/>
<rect x="17" y="14" width="1" height="1" fill="#f18d28"/>
<rect x="18" y="14" width="1" height="1" fill="#f7932c"/>
<rect x="19" y="14" width="1" height="1" fill="#f18921"/>
<rect x="20" y="14" width="1" height="1" fill="#cf7315"/>
<rect x="21" y="14" width="1" height="1" fill="#a5590c"/>
<rect x="22" y="14" width="1" height="1" fill="#985008"/>
<rect x="23" y="14" width="1" height="1" fill="#a45607" fill-opacity="0.584"/>
<rect x="0" y="15" width="1" height="1" fill="#b59371" fill-opacity="0.373"/>
<rect x="1" y="15" width="1" height="1" fill="#915e2b" fill-opacity="0.965"/>
<rect x="2" y="15" width="1" height="1" fill="#c28656" fill-opacity="0.886"/>
<rect x="3" y="15" width="1" height="1" fill="#aa5b17" fill-opacity="0.988"/>
<rect x="4" y="15" width="1" height="1" fill="#9b500a"/>
<rect x="5" y="15" width="1" height="1" fill="#9f520a"/>
<rect x="6" y="15" width="1" height="1" fill="#a2540a"/>
<rect x="7" y="15" width="1" height="1" fill="#a8570b"/>
<rect x="8" y="15" width="1" height="1" fill="#ab580a"/>
<rect x="9" y="15" width="1" height="1" fill="#b75f0a"/>
<rect x="10" y="15" width="1" height="1" fill="#ae5a09"/>
<rect x="11" y="15" width="1" height="1" fill="#974f08"/>
<rect x="12" y="15" width="1" height="1" fill="#964e08"/>
<rect x="13" y="15" width="1" height="1" fill="#a65709"/>
<rect x="14" y="15" width="1" height="1" fill="#b8610b"/>
<rect x="15" y="15" width="1" height="1" fill="#be640c"/>
<rect x="16" y="15" width="1" height="1" fill="#b15f0c"/>
<rect x="17" y="15" width="1" height="1" fill="#b25f0e"/>
<rect x="18" y="15" width="1" height="1" fill="#b3610e"/>
<rect x="19" y="15" width="1" height="1" fill="#ac5b0b"/>
<rect x="20" y="15" width="1" height="1" fill="#9d5308"/>
<rect x="21" y="15" width="1" height="1" fill="#9a5108"/>
<rect x="22" y="15" width="1" height="1" fill="#924d06" fill-opacity="0.969"/>
<rect x="23" y="15" width="1" height="1" fill="#af5c07" fill-opacity="0.22"/>
<rect x="0" y="16" width="1" height="1" fill="#b18f6a" fill-opacity="0.518"/>
<rect x="1" y="16" width="1" height="1" fill="#9d754b"/>
<rect x="2" y="16" width="1" height="1" fill="#edece9" fill-opacity="0.996"/>
<rect x="3" y="16" width="1" height="1" fill="#ece4df" fill-opacity="0.965"/>
<rect x="4" y="16" width="1" height="1" fill="#dbc5b2" fill-opacity="0.937"/>
<rect x="5" y="16" width="1" height="1" fill="#d7bda6" fill-opacity="0.961"/>
<rect x="6" y="16" width="1" height="1" fill="#d5bca2" fill-opacity="0.98"/>
<rect x="7" y="16" width="1" height="1" fill="#d4ba9e" fill-opacity="0.988"/>
<rect x="8" y="16" width="1" height="1" fill="#d3b89c" fill-opacity="0.992"/>
<rect x="9" y="16" width="1" height="1" fill="#d8c0a9"/>
<rect x="10" y="16" width="1" height="1" fill="#ddc7b3" fill-opacity="0.996"/>
<rect x="11" y="16" width="1" height="1" fill="#d3baa1" fill-opacity="0.988"/>
<rect x="12" y="16" width="1" height="1" fill="#e9dcd1" fill-opacity="0.988"/>
<rect x="13" y="16" width="1" height="1" fill="#f1eae3" fill-opacity="0.984"/>
<rect x="14" y="16" width="1" height="1" fill="#f0e9e2" fill-opacity="0.988"/>
<rect x="15" y="16" width="1" height="1" fill="#ebe0d5" fill-opacity="0.988"/>
<rect x="16" y="16" width="1" height="1" fill="#e1c9b4" fill-opacity="0.984"/>
<rect x="17" y="16" width="1" height="1" fill="#d0ad8d" fill-opacity="0.976"/>
<rect x="18" y="16" width="1" height="1" fill="#d6b89e" fill-opacity="0.98"/>
<rect x="19" y="16" width="1" height="1" fill="#d6b799" fill-opacity="0.965"/>
<rect x="20" y="16" width="1" height="1" fill="#d6b293" fill-opacity="0.922"/>
<rect x="21" y="16" width="1" height="1" fill="#b68861" fill-opacity="0.902"/>
<rect x="22" y="16" width="1" height="1" fill="#a06e3d" fill-opacity="0.804"/>
<rect x="23" y="16" width="1" height="1" fill="#b99777" fill-opacity="0.086"/>
<rect x="0" y="17" width="1" height="1" fill="#b28f6a" fill-opacity="0.514"/>
<rect x="1" y="17" width="1" height="1" fill="#9c7348"/>
<rect x="2" y="17" width="1" height="1" fill="#eff0f0"/>
<rect x="3" y="17" width="1" height="1" fill="#f6f7f6"/>
<rect x="4" y="17" width="1" height="1" fill="#f7f7f6"/>
<rect x="5" y="17" width="1" height="1" fill="#f7f7f6"/>
<rect x="6" y="17" width="1" height="1" fill="#f6f7f5"/>
<rect x="7" y="17" width="1" height="1" fill="#f8f8f8"/>
<rect x="8" y="17" width="1" height="1" fill="#f8f8f8"/>
<rect x="9" y="17" width="1" height="1" fill="#f7f7f6"/>
<rect x="10" y="17" width="1" height="1" fill="#f8f9f9"/>
<rect x="11" y="17" width="1" height="1" fill="#f8f9f9"/>
<rect x="12" y="17" width="1" height="1" fill="#f8f9f9"/>
<rect x="13" y="17" width="1" height="1" fill="#f7f7f7"/>
<rect x="14" y="17" width="1" height="1" fill="#f3f2ef"/>
<rect x="15" y="17" width="1" height="1" fill="#f8f9f8"/>
<rect x="16" y="17" width="1" height="1" fill="#f8f8f8"/>
<rect x="17" y="17" width="1" height="1" fill="#f7f8f7"/>
<rect x="18" y="17" width="1" height="1" fill="#f8f7f7"/>
<rect x="19" y="17" width="1" height="1" fill="#f7f8f7"/>
<rect x="20" y="17" width="1" height="1" fill="#f5f4f3"/>
<rect x="21" y="17" width="1" height="1" fill="#f0ede9"/>
<rect x="22" y="17" width="1" height="1" fill="#a07547" fill-opacity="0.973"/>
<rect x="23" y="17" width="1" height="1" fill="#b99c7c" fill-opacity="0.149"/>
<rect x="0" y="18" width="1" height="1" fill="#b99a78" fill-opacity="0.255"/>
<rect x="1" y="18" width="1" height="1" fill="#8f5d28" fill-opacity="0.969"/>
<rect x="2" y="18" width="1" height="1" fill="#c3ae99"/>
<rect x="3" y="18" width="1" height="1" fill="#e9e4df"/>
<rect x="4" y="18" width="1" height="1" fill="#f5f4f4"/>
<rect x="5" y="18" width="1" height="1" fill="#f8f9f9"/>
<rect x="6" y="18" width="1" height="1" fill="#f9f9f9"/>
<rect x="7" y="18" width="1" height="1" fill="#f7f8f7"/>
<rect x="8" y="18" width="1" height="1" fill="#f7f7f6"/>
<rect x="9" y="18" width="1" height="1" fill="#f9f8f8"/>
<rect x="10" y="18" width="1" height="1" fill="#fbfbfa"/>
<rect x="11" y="18" width="1" height="1" fill="#fbfcfb"/>
<rect x="12" y="18" width="1" height="1" fill="#efe9e2"/>
<rect x="13" y="18" width="1" height="1" fill="#bc9d7d"/>
<rect x="14" y="18" width="1" height="1" fill="#ab865e"/>
<rect x="15" y="18" width="1" height="1" fill="#ae8a65"/>
<rect x="16" y="18" width="1" height="1" fill="#e2d8cd"/>
<rect x="17" y="18" width="1" height="1" fill="#fefeff"/>
<rect x="18" y="18" width="1" height="1" fill="#fefefe"/>
<rect x="19" y="18" width="1" height="1" fill="#ffffff"/>
<rect x="20" y="18" width="1" height="1" fill="#fdfdfc"/>
<rect x="21" y="18" width="1" height="1" fill="#ded0c2"/>
<rect x="22" y="18" width="1" height="1" fill="#966736" fill-opacity="0.941"/>
<rect x="23" y="18" width="1" height="1" fill="#b89a7b" fill-opacity="0.137"/>
<rect x="0" y="19" width="1" height="1" fill="#bfa182" fill-opacity="0.016"/>
<rect x="1" y="19" width="1" height="1" fill="#b79775" fill-opacity="0.322"/>
<rect x="2" y="19" width="1" height="1" fill="#9f7448" fill-opacity="0.851"/>
<rect x="3" y="19" width="1" height="1" fill="#8a551d" fill-opacity="0.984"/>
<rect x="4" y="19" width="1" height="1" fill="#966737" fill-opacity="0.996"/>
<rect x="5" y="19" width="1" height="1" fill="#a0784d"/>
<rect x="6" y="19" width="1" height="1" fill="#a68058"/>
<rect x="7" y="19" width="1" height="1" fill="#a9855f"/>
<rect x="8" y="19" width="1" height="1" fill="#ab8661"/>
<rect x="9" y="19" width="1" height="1" fill="#b08d69"/>
<rect x="10" y="19" width="1" height="1" fill="#b18e6a"/>
<rect x="11" y="19" width="1" height="1" fill="#a2774a"/>
<rect x="12" y="19" width="1" height="1" fill="#8f5c26" fill-opacity="0.98"/>
<rect x="13" y="19" width="1" height="1" fill="#986938" fill-opacity="0.929"/>
<rect x="14" y="19" width="1" height="1" fill="#a88055" fill-opacity="0.733"/>
<rect x="15" y="19" width="1" height="1" fill="#a2774b" fill-opacity="0.769"/>
<rect x="16" y="19" width="1" height="1" fill="#8f5d29" fill-opacity="0.969"/>
<rect x="17" y="19" width="1" height="1" fill="#a57f59"/>
<rect x="18" y="19" width="1" height="1" fill="#b79a7c"/>
<rect x="19" y="19" width="1" height="1" fill="#b89b7d"/>
<rect x="20" y="19" width="1" height="1" fill="#b59575"/>
<rect x="21" y="19" width="1" height="1" fill="#a9835b"/>
<rect x="22" y="19" width="1" height="1" fill="#a47b51" fill-opacity="0.812"/>
<rect x="23" y="19" width="1" height="1" fill="#bc9e80" fill-opacity="0.071"/>
</svg>