<?xml version="1.0" encoding="UTF-8" standalone="no"?>
<svg xmlns="http://www.w3.org/2000/svg" width="26" height="21" shape-rendering="crispEdges">
<rect x="14" y="1" width="1" height="1" fill="#caca80" fill-opacity="0.039"/>
<rect x="15" y="1" width="1" height="1" fill="#b7b756" fill-opacity="0.733"/>
<rect x="16" y="1" width="1" height="1" fill="#acab2e" fill-opacity="0.925"/>
<rect x="17" y="1" width="1" height="1" fill="#b6b649" fill-opacity="0.514"/>
<rect x="13" y="2" width="1" height="1" fill="#c5c57b" fill-opacity="0.031"/>
<rect x="14" y="2" width="1" height="1" fill="#b0b040" fill-opacity="0.831"/>
<rect x="15" y="2" width="1" height="1" fill="#acab2a"/>
<rect x="16" y="2" width="1" height="1" fill="#bdbc56"/>
<rect x="17" y="2" width="1" height="1" fill="#a8a61d" fill-opacity="0.992"/>
<rect x="18" y="2" width="1" height="1" fill="#b5b545" fill-opacity="0.702"/>
<rect x="19" y="2" width="1" height="1" fill="#a4a413" fill-opacity="0.016"/>
<rect x="12" y="3" width="1" height="1" fill="#c2c279" fill-opacity="0.039"/>
<rect x="13" y="3" width="1" height="1" fill="#b5b54f" fill-opacity="0.694"/>
<rect x="14" y="3" width="1" height="1" fill="#a7a71e"/>
<rect x="15" y="3" width="1" height="1" fill="#b4b338"/>
<rect x="16" y="3" width="1" height="1" fill="#f8f8ec"/>
<rect x="17" y="3" width="1" height="1" fill="#ddddad"/>
<rect x="18" y="3" width="1" height="1" fill="#adad34" fill-opacity="0.988"/>
<rect x="19" y="3" width="1" height="1" fill="#b1b03a" fill-opacity="0.855"/>
<rect x="20" y="3" width="1" height="1" fill="#c2c262" fill-opacity="0.055"/>
<rect x="12" y="4" width="1" height="1" fill="#c4c47a" fill-opacity="0.078"/>
<rect x="13" y="4" width="1" height="1" fill="#a9a929" fill-opacity="0.937"/>
<rect x="14" y="4" width="1" height="1" fill="#aaa923"/>
<rect x="15" y="4" width="1" height="1" fill="#e7e6be"/>
<rect x="16" y="4" width="1" height="1" fill="#ffffff"/>
<rect x="17" y="4" width="1" height="1" fill="#ffffff"/>
<rect x="18" y="4" width="1" height="1" fill="#f4f4e7"/>
<rect x="19" y="4" width="1" height="1" fill="#bab953" fill-opacity="0.992"/>
<rect x="20" y="4" width="1" height="1" fill="#abaa2e" fill-opacity="0.937"/>
<rect x="21" y="4" width="1" height="1" fill="#bbbb55" fill-opacity="0.282"/>
<rect x="12" y="5" width="1" height="1" fill="#cfcf2e" fill-opacity="0.016"/>
<rect x="13" y="5" width="1" height="1" fill="#bdbc49" fill-opacity="0.533"/>
<rect x="14" y="5" width="1" height="1" fill="#a4a325" fill-opacity="0.984"/>
<rect x="15" y="5" width="1" height="1" fill="#d2d2af"/>
<rect x="16" y="5" width="1" height="1" fill="#ffffff"/>
<rect x="17" y="5" width="1" height="1" fill="#ffffff"/>
<rect x="18" y="5" width="1" height="1" fill="#fefeff"/>
<rect x="19" y="5" width="1" height="1" fill="#f8f8f1"/>
<rect x="20" y="5" width="1" height="1" fill="#caca7e" fill-opacity="0.996"/>
<rect x="21" y="5" width="1" height="1" fill="#a7a623" fill-opacity="0.984"/>
<rect x="22" y="5" width="1" height="1" fill="#bcbc57" fill-opacity="0.51"/>
<rect x="6" y="6" width="1" height="1" fill="#b3b11a" fill-opacity="0.008"/>
<rect x="7" y="6" width="1" height="1" fill="#b3b11a" fill-opacity="0.004"/>
<rect x="8" y="6" width="1" height="1" fill="#b3b11a" fill-opacity="0.008"/>
<rect x="9" y="6" width="1" height="1" fill="#b3b11a" fill-opacity="0.004"/>
<rect x="10" y="6" width="1" height="1" fill="#b3b11a" fill-opacity="0.004"/>
<rect x="11" y="6" width="1" height="1" fill="#c9c86f" fill-opacity="0.02"/>
<rect x="12" y="6" width="1" height="1" fill="#c6c66c" fill-opacity="0.49"/>
<rect x="13" y="6" width="1" height="1" fill="#b5b544" fill-opacity="0.953"/>
<rect x="14" y="6" width="1" height="1" fill="#bab544" fill-opacity="0.925"/>
<rect x="15" y="6" width="1" height="1" fill="#9c9b19"/>
<rect x="16" y="6" width="1" height="1" fill="#cac48a"/>
<rect x="17" y="6" width="1" height="1" fill="#feffff"/>
<rect x="18" y="6" width="1" height="1" fill="#ffffff"/>
<rect x="19" y="6" width="1" height="1" fill="#fefeff"/>
<rect x="20" y="6" width="1" height="1" fill="#fefefe"/>
<rect x="21" y="6" width="1" height="1" fill="#dfdeb1"/>
<rect x="22" y="6" width="1" height="1" fill="#aaa829" fill-opacity="0.988"/>
<rect x="23" y="6" width="1" height="1" fill="#bbbb56" fill-opacity="0.686"/>
<rect x="24" y="6" width="1" height="1" fill="#caca80" fill-opacity="0.031"/>
<rect x="3" y="7" width="1" height="1" fill="#bfbe20" fill-opacity="0.016"/>
<rect x="4" y="7" width="1" height="1" fill="#bebd20" fill-opacity="0.18"/>
<rect x="5" y="7" width="1" height="1" fill="#b9b81d" fill-opacity="0.561"/>
<rect x="6" y="7" width="1" height="1" fill="#b3b219" fill-opacity="0.792"/>
<rect x="7" y="7" width="1" height="1" fill="#afaf18" fill-opacity="0.843"/>
<rect x="8" y="7" width="1" height="1" fill="#b0af19" fill-opacity="0.792"/>
<rect x="9" y="7" width="1" height="1" fill="#b4b31c" fill-opacity="0.58"/>
<rect x="10" y="7" width="1" height="1" fill="#b9b538" fill-opacity="0.298"/>
<rect x="11" y="7" width="1" height="1" fill="#b8b84a" fill-opacity="0.867"/>
<rect x="12" y="7" width="1" height="1" fill="#b6b648" fill-opacity="0.961"/>
<rect x="13" y="7" width="1" height="1" fill="#eaead9"/>
<rect x="14" y="7" width="1" height="1" fill="#f0f0d9" fill-opacity="0.969"/>
<rect x="15" y="7" width="1" height="1" fill="#afac30" fill-opacity="0.976"/>
<rect x="16" y="7" width="1" height="1" fill="#a09e17"/>
<rect x="17" y="7" width="1" height="1" fill="#c0b459"/>
<rect x="18" y="7" width="1" height="1" fill="#f0f6f3"/>
<rect x="19" y="7" width="1" height="1" fill="#feffff"/>
<rect x="20" y="7" width="1" height="1" fill="#fffffe"/>
<rect x="21" y="7" width="1" height="1" fill="#ffffff"/>
<rect x="22" y="7" width="1" height="1" fill="#ebeace"/>
<rect x="23" y="7" width="1" height="1" fill="#b3b241" fill-opacity="0.996"/>
<rect x="24" y="7" width="1" height="1" fill="#b5b548" fill-opacity="0.82"/>
<rect x="2" y="8" width="1" height="1" fill="#b9ae1f" fill-opacity="0.09"/>
<rect x="3" y="8" width="1" height="1" fill="#b5b41b" fill-opacity="0.667"/>
<rect x="4" y="8" width="1" height="1" fill="#a6a611" fill-opacity="0.984"/>
<rect x="5" y="8" width="1" height="1" fill="#aaaa16"/>
<rect x="6" y="8" width="1" height="1" fill="#afaf19"/>
<rect x="7" y="8" width="1" height="1" fill="#b0af1b"/>
<rect x="8" y="8" width="1" height="1" fill="#adac19"/>
<rect x="9" y="8" width="1" height="1" fill="#adac1a"/>
<rect x="10" y="8" width="1" height="1" fill="#afae1a"/>
<rect x="11" y="8" width="1" height="1" fill="#c0bf57" fill-opacity="0.965"/>
<rect x="12" y="8" width="1" height="1" fill="#f1f3e4"/>
<rect x="13" y="8" width="1" height="1" fill="#fefefe"/>
<rect x="14" y="8" width="1" height="1" fill="#fefefd"/>
<rect x="15" y="8" width="1" height="1" fill="#f8f8ef"/>
<rect x="16" y="8" width="1" height="1" fill="#b1ac31" fill-opacity="0.992"/>
<rect x="17" y="8" width="1" height="1" fill="#a9a718"/>
<rect x="18" y="8" width="1" height="1" fill="#b8ad2f"/>
<rect x="19" y="8" width="1" height="1" fill="#e8e6d2"/>
<rect x="20" y="8" width="1" height="1" fill="#fdfefe"/>
<rect x="21" y="8" width="1" height="1" fill="#fdfefe"/>
<rect x="22" y="8" width="1" height="1" fill="#ffffff"/>
<rect x="23" y="8" width="1" height="1" fill="#f2f2df"/>
<rect x="24" y="8" width="1" height="1" fill="#a3a313"/>
<rect x="25" y="8" width="1" height="1" fill="#a2a115" fill-opacity="0.059"/>
<rect x="1" y="9" width="1" height="1" fill="#c1c022" fill-opacity="0.055"/>
<rect x="2" y="9" width="1" height="1" fill="#b3b219" fill-opacity="0.788"/>
<rect x="3" y="9" width="1" height="1" fill="#afae17"/>
<rect x="4" y="9" width="1" height="1" fill="#b1b11a"/>
<rect x="5" y="9" width="1" height="1" fill="#bab921"/>
<rect x="6" y="9" width="1" height="1" fill="#c7c634"/>
<rect x="7" y="9" width="1" height="1" fill="#c5c427"/>
<rect x="8" y="9" width="1" height="1" fill="#c0bf26"/>
<rect x="9" y="9" width="1" height="1" fill="#c0be26"/>
<rect x="10" y="9" width="1" height="1" fill="#acab1a"/>
<rect x="11" y="9" width="1" height="1" fill="#b3b122" fill-opacity="0.996"/>
<rect x="12" y="9" width="1" height="1" fill="#e2e4bf" fill-opacity="0.953"/>
<rect x="13" y="9" width="1" height="1" fill="#fefefd"/>
<rect x="14" y="9" width="1" height="1" fill="#fefefc"/>
<rect x="15" y="9" width="1" height="1" fill="#e4e0cd" fill-opacity="0.984"/>
<rect x="16" y="9" width="1" height="1" fill="#b1a92f" fill-opacity="0.996"/>
<rect x="17" y="9" width="1" height="1" fill="#b2b11f"/>
<rect x="18" y="9" width="1" height="1" fill="#b0ae1b"/>
<rect x="19" y="9" width="1" height="1" fill="#b7b31f"/>
<rect x="20" y="9" width="1" height="1" fill="#e4ddb0"/>
<rect x="21" y="9" width="1" height="1" fill="#fcfbf9"/>
<rect x="22" y="9" width="1" height="1" fill="#fdfdfc"/>
<rect x="23" y="9" width="1" height="1" fill="#deddae"/>
<rect x="24" y="9" width="1" height="1" fill="#aaaa23" fill-opacity="0.929"/>
<rect x="25" y="9" width="1" height="1" fill="#a09e17" fill-opacity="0.012"/>
<rect x="1" y="10" width="1" height="1" fill="#b9b81d" fill-opacity="0.545"/>
<rect x="2" y="10" width="1" height="1" fill="#aead17"/>
<rect x="3" y="10" width="1" height="1" fill="#afae1e"/>
<rect x="4" y="10" width="1" height="1" fill="#bfbd2f"/>
<rect x="5" y="10" width="1" height="1" fill="#eaea54"/>
<rect x="6" y="10" width="1" height="1" fill="#f8f852"/>
<rect x="7" y="10" width="1" height="1" fill="#f6f648"/>
<rect x="8" y="10" width="1" height="1" fill="#f0f043"/>
<rect x="9" y="10" width="1" height="1" fill="#f3f245"/>
<rect x="10" y="10" width="1" height="1" fill="#e1e03c"/>
<rect x="11" y="10" width="1" height="1" fill="#b4b320"/>
<rect x="12" y="10" width="1" height="1" fill="#bdba2e" fill-opacity="0.98"/>
<rect x="13" y="10" width="1" height="1" fill="#e8e8ce" fill-opacity="0.973"/>
<rect x="14" y="10" width="1" height="1" fill="#e4e0bb" fill-opacity="0.949"/>
<rect x="15" y="10" width="1" height="1" fill="#b7b323"/>
<rect x="16" y="10" width="1" height="1" fill="#c7c72b"/>
<rect x="17" y="10" width="1" height="1" fill="#ebeb43"/>
<rect x="18" y="10" width="1" height="1" fill="#e6e53c"/>
<rect x="19" y="10" width="1" height="1" fill="#c1c124"/>
<rect x="20" y="10" width="1" height="1" fill="#bcba20"/>
<rect x="21" y="10" width="1" height="1" fill="#d0c95f"/>
<rect x="22" y="10" width="1" height="1" fill="#ecead2"/>
<rect x="23" y="10" width="1" height="1" fill="#b4b53b" fill-opacity="0.988"/>
<rect x="24" y="10" width="1" height="1" fill="#b4b63e" fill-opacity="0.325"/>
<rect x="1" y="11" width="1" height="1" fill="#acac15" fill-opacity="0.89"/>
<rect x="2" y="11" width="1" height="1" fill="#acaa18"/>
<rect x="3" y="11" width="1" height="1" fill="#b6b42c"/>
<rect x="4" y="11" width="1" height="1" fill="#dfdf43"/>
<rect x="5" y="11" width="1" height="1" fill="#fafa4d"/>
<rect x="6" y="11" width="1" height="1" fill="#fafa4c"/>
<rect x="7" y="11" width="1" height="1" fill="#fafa4b"/>
<rect x="8" y="11" width="1" height="1" fill="#fbfb4c"/>
<rect x="9" y="11" width="1" height="1" fill="#fbfb4c"/>
<rect x="10" y="11" width="1" height="1" fill="#fcfc4d"/>
<rect x="11" y="11" width="1" height="1" fill="#f7f74a"/>
<rect x="12" y="11" width="1" height="1" fill="#cccb2e"/>
<rect x="13" y="11" width="1" height="1" fill="#bebb2d"/>
<rect x="14" y="11" width="1" height="1" fill="#bfbb2e" fill-opacity="0.992"/>
<rect x="15" y="11" width="1" height="1" fill="#d8d734"/>
<rect x="16" y="11" width="1" height="1" fill="#fafa4d"/>
<rect x="17" y="11" width="1" height="1" fill="#f8f84c"/>
<rect x="18" y="11" width="1" height="1" fill="#f4f448"/>
<rect x="19" y="11" width="1" height="1" fill="#e7e63d"/>
<rect x="20" y="11" width="1" height="1" fill="#c3c125"/>
<rect x="21" y="11" width="1" height="1" fill="#aaa91b"/>
<rect x="22" y="11" width="1" height="1" fill="#b0ae2c"/>
<rect x="23" y="11" width="1" height="1" fill="#b1ae20" fill-opacity="0.737"/>
<rect x="1" y="12" width="1" height="1" fill="#a6a511" fill-opacity="0.976"/>
<rect x="2" y="12" width="1" height="1" fill="#a5a416"/>
<rect x="3" y="12" width="1" height="1" fill="#bbb926"/>
<rect x="4" y="12" width="1" height="1" fill="#e4e343"/>
<rect x="5" y="12" width="1" height="1" fill="#f1f147"/>
<rect x="6" y="12" width="1" height="1" fill="#efef43"/>
<rect x="7" y="12" width="1" height="1" fill="#f6f648"/>
<rect x="8" y="12" width="1" height="1" fill="#fafa4c"/>
<rect x="9" y="12" width="1" height="1" fill="#fcfc4d"/>
<rect x="10" y="12" width="1" height="1" fill="#fdfd4e"/>
<rect x="11" y="12" width="1" height="1" fill="#fcfc4d"/>
<rect x="12" y="12" width="1" height="1" fill="#fbfb4d"/>
<rect x="13" y="12" width="1" height="1" fill="#efef45"/>
<rect x="14" y="12" width="1" height="1" fill="#e5e43d"/>
<rect x="15" y="12" width="1" height="1" fill="#f8f84b"/>
<rect x="16" y="12" width="1" height="1" fill="#f9f94b"/>
<rect x="17" y="12" width="1" height="1" fill="#f8f84a"/>
<rect x="18" y="12" width="1" height="1" fill="#f7f649"/>
<rect x="19" y="12" width="1" height="1" fill="#efef44"/>
<rect x="20" y="12" width="1" height="1" fill="#dcdb35"/>
<rect x="21" y="12" width="1" height="1" fill="#b2b11d"/>
<rect x="22" y="12" width="1" height="1" fill="#a7a617"/>
<rect x="23" y="12" width="1" height="1" fill="#acac15" fill-opacity="0.792"/>
<rect x="1" y="13" width="1" height="1" fill="#a6a611" fill-opacity="0.976"/>
<rect x="2" y="13" width="1" height="1" fill="#a3a316"/>
<rect x="3" y="13" width="1" height="1" fill="#b2b11d"/>
<rect x="4" y="13" width="1" height="1" fill="#bfbe24"/>
<rect x="5" y="13" width="1" height="1" fill="#dbda36"/>
<rect x="6" y="13" width="1" height="1" fill="#e0e039"/>
<rect x="7" y="13" width="1" height="1" fill="#e5e43b"/>
<rect x="8" y="13" width="1" height="1" fill="#edec42"/>
<rect x="9" y="13" width="1" height="1" fill="#f5f548"/>
<rect x="10" y="13" width="1" height="1" fill="#f8f84a"/>
<rect x="11" y="13" width="1" height="1" fill="#f5f548"/>
<rect x="12" y="13" width="1" height="1" fill="#f3f347"/>
<rect x="13" y="13" width="1" height="1" fill="#f3f247"/>
<rect x="14" y="13" width="1" height="1" fill="#f3f248"/>
<rect x="15" y="13" width="1" height="1" fill="#f2f146"/>
<rect x="16" y="13" width="1" height="1" fill="#f4f448"/>
<rect x="17" y="13" width="1" height="1" fill="#f5f548"/>
<rect x="18" y="13" width="1" height="1" fill="#f5f447"/>
<rect x="19" y="13" width="1" height="1" fill="#eceb41"/>
<rect x="20" y="13" width="1" height="1" fill="#dbda34"/>
<rect x="21" y="13" width="1" height="1" fill="#c9c72a"/>
<rect x="22" y="13" width="1" height="1" fill="#a8a616"/>
<rect x="23" y="13" width="1" height="1" fill="#a8a713" fill-opacity="0.875"/>
<rect x="0" y="14" width="1" height="1" fill="#cdcd81" fill-opacity="0.106"/>
<rect x="1" y="14" width="1" height="1" fill="#a7a714" fill-opacity="0.961"/>
<rect x="2" y="14" width="1" height="1" fill="#a5a515"/>
<rect x="3" y="14" width="1" height="1" fill="#aaaa17"/>
<rect x="4" y="14" width="1" height="1" fill="#b4b31b"/>
<rect x="5" y="14" width="1" height="1" fill="#bcbb20"/>
<rect x="6" y="14" width="1" height="1" fill="#c9c928"/>
<rect x="7" y="14" width="1" height="1" fill="#cfcd2b"/>
<rect x="8" y="14" width="1" height="1" fill="#d6d632"/>
<rect x="9" y="14" width="1" height="1" fill="#e1e039"/>
<rect x="10" y="14" width="1" height="1" fill="#e8e840"/>
<rect x="11" y="14" width="1" height="1" fill="#e7e63f"/>
<rect x="12" y="14" width="1" height="1" fill="#e0e03a"/>
<rect x="13" y="14" width="1" height="1" fill="#d5d431"/>
<rect x="14" y="14" width="1" height="1" fill="#cecd2c"/>
<rect x="15" y="14" width="1" height="1" fill="#d5d532"/>
<rect x="16" y="14" width="1" height="1" fill="#eae940"/>
<rect x="17" y="14" width="1" height="1" fill="#f1f145"/>
<rect x="18" y="14" width="1" height="1" fill="#ecec42"/>
<rect x="19" y="14" width="1" height="1" fill="#dedd38"/>
<rect x="20" y="14" width="1" height="1" fill="#cac82a"/>
<rect x="21" y="14" width="1" height="1" fill="#b6b520"/>
<rect x="22" y="14" width="1" height="1" fill="#aaaa18"/>
<rect x="23" y="14" width="1" height="1" fill="#a9a813" fill-opacity="0.816"/>
<rect x="0" y="15" width="1" height="1" fill="#c7c674" fill-opacity="0.373"/>
<rect x="1" y="15" width="1" height="1" fill="#acaa2f" fill-opacity="0.973"/>
<rect x="2" y="15" width="1" height="1" fill="#bfb74a" fill-opacity="0.945"/>
<rect x="3" y="15" width="1" height="1" fill="#abaa16"/>
<rect x="4" y="15" width="1" height="1" fill="#a9a912"/>
<rect x="5" y="15" width="1" height="1" fill="#aaaa13"/>
<rect x="6" y="15" width="1" height="1" fill="#acac15"/>
<rect x="7" y="15" width="1" height="1" fill="#b4b41a"/>
<rect x="8" y="15" width="1" height="1" fill="#b5b51a"/>
<rect x="9" y="15" width="1" height="1" fill="#bbbb1f"/>
<rect x="10" y="15" width="1" height="1" fill="#c2c223"/>
<rect x="11" y="15" width="1" height="1" fill="#c2c022"/>
<rect x="12" y="15" width="1" height="1" fill="#bdbc1f"/>
<rect x="13" y="15" width="1" height="1" fill="#bcbb1f"/>
<rect x="14" y="15" width="1" height="1" fill="#b8b71d"/>
<rect x="15" y="15" width="1" height="1" fill="#b2b21c"/>
<rect x="16" y="15" width="1" height="1" fill="#b5b51e"/>
<rect x="17" y="15" width="1" height="1" fill="#bab922"/>
<rect x="18" y="15" width="1" height="1" fill="#b9b922"/>
<rect x="19" y="15" width="1" height="1" fill="#b3b31e"/>
<rect x="20" y="15" width="1" height="1" fill="#aeae1c"/>
<rect x="21" y="15" width="1" height="1" fill="#b2b11d"/>
<rect x="22" y="15" width="1" height="1" fill="#a1a113" fill-opacity="0.996"/>
<rect x="23" y="15" width="1" height="1" fill="#b3b31b" fill-opacity="0.463"/>
<rect x="0" y="16" width="1" height="1" fill="#c4c56d" fill-opacity="0.518"/>
<rect x="1" y="16" width="1" height="1" fill="#b3b44f"/>
<rect x="2" y="16" width="1" height="1" fill="#e6e6d7" fill-opacity="0.992"/>
<rect x="3" y="16" width="1" height="1" fill="#efecda" fill-opacity="0.984"/>
<rect x="4" y="16" width="1" height="1" fill="#e4e1b9" fill-opacity="0.988"/>
<rect x="5" y="16" width="1" height="1" fill="#dddaa5" fill-opacity="0.992"/>
<rect x="6" y="16" width="1" height="1" fill="#e0dead" fill-opacity="0.992"/>
<rect x="7" y="16" width="1" height="1" fill="#e2e1b4" fill-opacity="0.996"/>
<rect x="8" y="16" width="1" height="1" fill="#e4e2b6" fill-opacity="0.996"/>
<rect x="9" y="16" width="1" height="1" fill="#e7e4bc"/>
<rect x="10" y="16" width="1" height="1" fill="#ebe9c6" fill-opacity="0.996"/>
<rect x="11" y="16" width="1" height="1" fill="#e8e4bb" fill-opacity="0.98"/>
<rect x="12" y="16" width="1" height="1" fill="#e9e5c1" fill-opacity="0.973"/>
<rect x="13" y="16" width="1" height="1" fill="#e9e5c3" fill-opacity="0.976"/>
<rect x="14" y="16" width="1" height="1" fill="#e7e4be" fill-opacity="0.98"/>
<rect x="15" y="16" width="1" height="1" fill="#dedbaa" fill-opacity="0.988"/>
<rect x="16" y="16" width="1" height="1" fill="#d2ce8a" fill-opacity="0.988"/>
<rect x="17" y="16" width="1" height="1" fill="#d5d088" fill-opacity="0.984"/>
<rect x="18" y="16" width="1" height="1" fill="#d1cc77" fill-opacity="0.973"/>
<rect x="19" y="16" width="1" height="1" fill="#ccc35f" fill-opacity="0.945"/>
<rect x="20" y="16" width="1" height="1" fill="#cec671" fill-opacity="0.949"/>
<rect x="21" y="16" width="1" height="1" fill="#bab554" fill-opacity="0.965"/>
<rect x="22" y="16" width="1" height="1" fill="#a5a41f" fill-opacity="0.953"/>
<rect x="23" y="16" width="1" height="1" fill="#c6c35a" fill-opacity="0.129"/>
<rect x="0" y="17" width="1" height="1" fill="#c4c46d" fill-opacity="0.514"/>
<rect x="1" y="17" width="1" height="1" fill="#b3b24c"/>
<rect x="2" y="17" width="1" height="1" fill="#f0efe6"/>
<rect x="3" y="17" width="1" height="1" fill="#f5f3e8"/>
<rect x="4" y="17" width="1" height="1" fill="#f5f3e8"/>
<rect x="5" y="17" width="1" height="1" fill="#f5f3e8"/>
<rect x="6" y="17" width="1" height="1" fill="#f5f3e8"/>
<rect x="7" y="17" width="1" height="1" fill="#f5f3e8"/>
<rect x="8" y="17" width="1" height="1" fill="#f5f3e8"/>
<rect x="9" y="17" width="1" height="1" fill="#f5f3e8"/>
<rect x="10" y="17" width="1" height="1" fill="#f5f3e8"/>
<rect x="11" y="17" width="1" height="1" fill="#f5f3e8"/>
<rect x="12" y="17" width="1" height="1" fill="#f5f3e7"/>
<rect x="13" y="17" width="1" height="1" fill="#f5f3e7"/>
<rect x="14" y="17" width="1" height="1" fill="#f5f3e8"/>
<rect x="15" y="17" width="1" height="1" fill="#f5f4e9"/>
<rect x="16" y="17" width="1" height="1" fill="#f7f5ea"/>
<rect x="17" y="17" width="1" height="1" fill="#f5f3e8"/>
<rect x="18" y="17" width="1" height="1" fill="#f5f3e8"/>
<rect x="19" y="17" width="1" height="1" fill="#f5f3e7"/>
<rect x="20" y="17" width="1" height="1" fill="#f5f3e7"/>
<rect x="21" y="17" width="1" height="1" fill="#f0f0dd"/>
<rect x="22" y="17" width="1" height="1" fill="#aaaa23" fill-opacity="0.98"/>
<rect x="23" y="17" width="1" height="1" fill="#cacc7f" fill-opacity="0.149"/>
<rect x="0" y="18" width="1" height="1" fill="#caca7b" fill-opacity="0.255"/>
<rect x="1" y="18" width="1" height="1" fill="#aaaa2b" fill-opacity="0.969"/>
<rect x="2" y="18" width="1" height="1" fill="#b6b544"/>
<rect x="3" y="18" width="1" height="1" fill="#edecde"/>
<rect x="4" y="18" width="1" height="1" fill="#f7f6f3"/>
<rect x="5" y="18" width="1" height="1" fill="#fbfaf7"/>
<rect x="6" y="18" width="1" height="1" fill="#f9f9f3"/>
<rect x="7" y="18" width="1" height="1" fill="#f8f7f0"/>
<rect x="8" y="18" width="1" height="1" fill="#fafaf5"/>
<rect x="9" y="18" width="1" height="1" fill="#fdfdfa"/>
<rect x="10" y="18" width="1" height="1" fill="#fdfcfa"/>
<rect x="11" y="18" width="1" height="1" fill="#fdfdfb"/>
<rect x="12" y="18" width="1" height="1" fill="#f0f1dd"/>
<rect x="13" y="18" width="1" height="1" fill="#d7d799"/>
<rect x="14" y="18" width="1" height="1" fill="#bbbb4e"/>
<rect x="15" y="18" width="1" height="1" fill="#b0b02f"/>
<rect x="16" y="18" width="1" height="1" fill="#c2c260"/>
<rect x="17" y="18" width="1" height="1" fill="#fbfaf8"/>
<rect x="18" y="18" width="1" height="1" fill="#fbfaf5"/>
<rect x="19" y="18" width="1" height="1" fill="#fefdfc"/>
<rect x="20" y="18" width="1" height="1" fill="#fcfcf8"/>
<rect x="21" y="18" width="1" height="1" fill="#e6e6c4"/>
<rect x="22" y="18" width="1" height="1" fill="#acac29" fill-opacity="0.965"/>
<rect x="23" y="18" width="1" height="1" fill="#bebe5c" fill-opacity="0.188"/>
<rect x="0" y="19" width="1" height="1" fill="#cfcf85" fill-opacity="0.016"/>
<rect x="1" y="19" width="1" height="1" fill="#c1c161" fill-opacity="0.376"/>
<rect x="2" y="19" width="1" height="1" fill="#aaaa1f" fill-opacity="0.961"/>
<rect x="3" y="19" width="1" height="1" fill="#a7a721" fill-opacity="0.984"/>
<rect x="4" y="19" width="1" height="1" fill="#afaf3b" fill-opacity="0.996"/>
<rect x="5" y="19" width="1" height="1" fill="#b6b64e"/>
<rect x="6" y="19" width="1" height="1" fill="#baba5a"/>
<rect x="7" y="19" width="1" height="1" fill="#bdbd62"/>
<rect x="8" y="19" width="1" height="1" fill="#bfbf64"/>
<rect x="9" y="19" width="1" height="1" fill="#c2c26d"/>
<rect x="10" y="19" width="1" height="1" fill="#c4c46e"/>
<rect x="11" y="19" width="1" height="1" fill="#b9b94e"/>
<rect x="12" y="19" width="1" height="1" fill="#abab2a" fill-opacity="0.98"/>
<rect x="13" y="19" width="1" height="1" fill="#adad26" fill-opacity="0.949"/>
<rect x="14" y="19" width="1" height="1" fill="#b3b338" fill-opacity="0.827"/>
<rect x="15" y="19" width="1" height="1" fill="#b9b94d" fill-opacity="0.745"/>
<rect x="16" y="19" width="1" height="1" fill="#a8a820" fill-opacity="0.98"/>
<rect x="17" y="19" width="1" height="1" fill="#b6b64f"/>
<rect x="18" y="19" width="1" height="1" fill="#c0c068"/>
<rect x="19" y="19" width="1" height="1" fill="#c1c168"/>
<rect x="20" y="19" width="1" height="1" fill="#bfbf60"/>
<rect x="21" y="19" width="1" height="1" fill="#b8b84d"/>
<rect x="22" y="19" width="1" height="1" fill="#b4b43e" fill-opacity="0.863"/>
<rect x="23" y="19" width="1" height="1" fill="#bebe58" fill-opacity="0.106"/>
</svg>