<?xml version="1.0" encoding="UTF-8" standalone="no"?>
<svg xmlns="http://www.w3.org/2000/svg" width="26" height="21" shape-rendering="crispEdges">
<rect x="14" y="1" width="1" height="1" fill="#93d080" fill-opacity="0.039"/>
<rect x="15" y="1" width="1" height="1" fill="#4db32b" fill-opacity="0.863"/>
<rect x="16" y="1" width="1" height="1" fill="#3aad14" fill-opacity="0.976"/>
<rect x="17" y="1" width="1" height="1" fill="#46af22" fill-opacity="0.729"/>
<rect x="18" y="1" width="1" height="1" fill="#32a30c" fill-opacity="0.059"/>
<rect x="13" y="2" width="1" height="1" fill="#8fcc7b" fill-opacity="0.031"/>
<rect x="14" y="2" width="1" height="1" fill="#55b735" fill-opacity="0.855"/>
<rect x="15" y="2" width="1" height="1" fill="#41af1c"/>
<rect x="16" y="2" width="1" height="1" fill="#70c354"/>
<rect x="17" y="2" width="1" height="1" fill="#36a610" fill-opacity="0.996"/>
<rect x="18" y="2" width="1" height="1" fill="#3ba716" fill-opacity="0.925"/>
<rect x="19" y="2" width="1" height="1" fill="#35a60d" fill-opacity="0.031"/>
<rect x="12" y="3" width="1" height="1" fill="#8cc978" fill-opacity="0.039"/>
<rect x="13" y="3" width="1" height="1" fill="#5ab83a" fill-opacity="0.761"/>
<rect x="14" y="3" width="1" height="1" fill="#39ac12"/>
<rect x="15" y="3" width="1" height="1" fill="#93d17e"/>
<rect x="16" y="3" width="1" height="1" fill="#fdfefd"/>
<rect x="17" y="3" width="1" height="1" fill="#d5edce"/>
<rect x="18" y="3" width="1" height="1" fill="#43ac1f"/>
<rect x="19" y="3" width="1" height="1" fill="#40ac1c" fill-opacity="0.949"/>
<rect x="20" y="3" width="1" height="1" fill="#68be4b" fill-opacity="0.075"/>
<rect x="12" y="4" width="1" height="1" fill="#7ac362" fill-opacity="0.102"/>
<rect x="13" y="4" width="1" height="1" fill="#39ac13" fill-opacity="0.98"/>
<rect x="14" y="4" width="1" height="1" fill="#8dce78"/>
<rect x="15" y="4" width="1" height="1" fill="#fcfefb"/>
<rect x="16" y="4" width="1" height="1" fill="#ffffff"/>
<rect x="17" y="4" width="1" height="1" fill="#ffffff"/>
<rect x="18" y="4" width="1" height="1" fill="#e8f5e4"/>
<rect x="19" y="4" width="1" height="1" fill="#49b125" fill-opacity="0.996"/>
<rect x="20" y="4" width="1" height="1" fill="#44af1f" fill-opacity="0.965"/>
<rect x="21" y="4" width="1" height="1" fill="#7fca66" fill-opacity="0.235"/>
<rect x="12" y="5" width="1" height="1" fill="#3bb015" fill-opacity="0.145"/>
<rect x="13" y="5" width="1" height="1" fill="#3cae16" fill-opacity="0.914"/>
<rect x="14" y="5" width="1" height="1" fill="#5db93d" fill-opacity="0.996"/>
<rect x="15" y="5" width="1" height="1" fill="#e7f4e3"/>
<rect x="16" y="5" width="1" height="1" fill="#ffffff"/>
<rect x="17" y="5" width="1" height="1" fill="#ffffff"/>
<rect x="18" y="5" width="1" height="1" fill="#ffffff"/>
<rect x="19" y="5" width="1" height="1" fill="#f5fbf4"/>
<rect x="20" y="5" width="1" height="1" fill="#69c04b"/>
<rect x="21" y="5" width="1" height="1" fill="#44b21f" fill-opacity="0.984"/>
<rect x="22" y="5" width="1" height="1" fill="#78c75d" fill-opacity="0.486"/>
<rect x="6" y="6" width="1" height="1" fill="#33a80d" fill-opacity="0.027"/>
<rect x="7" y="6" width="1" height="1" fill="#33a70d" fill-opacity="0.02"/>
<rect x="8" y="6" width="1" height="1" fill="#33a80d" fill-opacity="0.035"/>
<rect x="9" y="6" width="1" height="1" fill="#33a70d" fill-opacity="0.004"/>
<rect x="10" y="6" width="1" height="1" fill="#33a70d" fill-opacity="0.008"/>
<rect x="11" y="6" width="1" height="1" fill="#42ae1f" fill-opacity="0.102"/>
<rect x="12" y="6" width="1" height="1" fill="#61be44" fill-opacity="0.627"/>
<rect x="13" y="6" width="1" height="1" fill="#49b526" fill-opacity="0.98"/>
<rect x="14" y="6" width="1" height="1" fill="#41b01a" fill-opacity="0.996"/>
<rect x="15" y="6" width="1" height="1" fill="#55b434"/>
<rect x="16" y="6" width="1" height="1" fill="#d8edd0"/>
<rect x="17" y="6" width="1" height="1" fill="#fefffe"/>
<rect x="18" y="6" width="1" height="1" fill="#ffffff"/>
<rect x="19" y="6" width="1" height="1" fill="#ffffff"/>
<rect x="20" y="6" width="1" height="1" fill="#f0f8ed"/>
<rect x="21" y="6" width="1" height="1" fill="#86cd6d"/>
<rect x="22" y="6" width="1" height="1" fill="#44b21e" fill-opacity="0.996"/>
<rect x="23" y="6" width="1" height="1" fill="#66c048" fill-opacity="0.729"/>
<rect x="24" y="6" width="1" height="1" fill="#93d080" fill-opacity="0.031"/>
<rect x="3" y="7" width="1" height="1" fill="#38b210" fill-opacity="0.071"/>
<rect x="4" y="7" width="1" height="1" fill="#36b00e" fill-opacity="0.482"/>
<rect x="5" y="7" width="1" height="1" fill="#35ac0d" fill-opacity="0.863"/>
<rect x="6" y="7" width="1" height="1" fill="#35ad0d" fill-opacity="0.929"/>
<rect x="7" y="7" width="1" height="1" fill="#36af0e" fill-opacity="0.925"/>
<rect x="8" y="7" width="1" height="1" fill="#38b210" fill-opacity="0.863"/>
<rect x="9" y="7" width="1" height="1" fill="#37b00f" fill-opacity="0.745"/>
<rect x="10" y="7" width="1" height="1" fill="#3daf16" fill-opacity="0.667"/>
<rect x="11" y="7" width="1" height="1" fill="#4ab427" fill-opacity="0.937"/>
<rect x="12" y="7" width="1" height="1" fill="#4eb52c" fill-opacity="0.984"/>
<rect x="13" y="7" width="1" height="1" fill="#e4f1e1"/>
<rect x="14" y="7" width="1" height="1" fill="#e8f7e3" fill-opacity="0.984"/>
<rect x="15" y="7" width="1" height="1" fill="#3cae14"/>
<rect x="16" y="7" width="1" height="1" fill="#35a40f"/>
<rect x="17" y="7" width="1" height="1" fill="#bbe3ac"/>
<rect x="18" y="7" width="1" height="1" fill="#fbfdfb"/>
<rect x="19" y="7" width="1" height="1" fill="#ffffff"/>
<rect x="20" y="7" width="1" height="1" fill="#ffffff"/>
<rect x="21" y="7" width="1" height="1" fill="#fafdf8"/>
<rect x="22" y="7" width="1" height="1" fill="#89ce71"/>
<rect x="23" y="7" width="1" height="1" fill="#45b220"/>
<rect x="24" y="7" width="1" height="1" fill="#55b834" fill-opacity="0.875"/>
<rect x="25" y="7" width="1" height="1" fill="#39ad11" fill-opacity="0.008"/>
<rect x="2" y="8" width="1" height="1" fill="#3cb211" fill-opacity="0.235"/>
<rect x="3" y="8" width="1" height="1" fill="#36ae0e" fill-opacity="0.914"/>
<rect x="4" y="8" width="1" height="1" fill="#33a80c"/>
<rect x="5" y="8" width="1" height="1" fill="#35a90d"/>
<rect x="6" y="8" width="1" height="1" fill="#36ad0e"/>
<rect x="7" y="8" width="1" height="1" fill="#37b00e"/>
<rect x="8" y="8" width="1" height="1" fill="#36b00e"/>
<rect x="9" y="8" width="1" height="1" fill="#36af0d"/>
<rect x="10" y="8" width="1" height="1" fill="#36ae0e" fill-opacity="0.996"/>
<rect x="11" y="8" width="1" height="1" fill="#3eb117" fill-opacity="0.996"/>
<rect x="12" y="8" width="1" height="1" fill="#edf7e9"/>
<rect x="13" y="8" width="1" height="1" fill="#ffffff"/>
<rect x="14" y="8" width="1" height="1" fill="#ffffff"/>
<rect x="15" y="8" width="1" height="1" fill="#f3faf1"/>
<rect x="16" y="8" width="1" height="1" fill="#3faf17"/>
<rect x="17" y="8" width="1" height="1" fill="#35a90c"/>
<rect x="18" y="8" width="1" height="1" fill="#6dc64d"/>
<rect x="19" y="8" width="1" height="1" fill="#f0f8ec"/>
<rect x="20" y="8" width="1" height="1" fill="#fdfefd"/>
<rect x="21" y="8" width="1" height="1" fill="#fdfefe"/>
<rect x="22" y="8" width="1" height="1" fill="#fcfdfc"/>
<rect x="23" y="8" width="1" height="1" fill="#9dd68a"/>
<rect x="24" y="8" width="1" height="1" fill="#3aad12"/>
<rect x="25" y="8" width="1" height="1" fill="#34aa0c" fill-opacity="0.376"/>
<rect x="1" y="9" width="1" height="1" fill="#3dbe13" fill-opacity="0.122"/>
<rect x="2" y="9" width="1" height="1" fill="#36ae0d" fill-opacity="0.937"/>
<rect x="3" y="9" width="1" height="1" fill="#34a80d"/>
<rect x="4" y="9" width="1" height="1" fill="#38ad0f"/>
<rect x="5" y="9" width="1" height="1" fill="#43be1b"/>
<rect x="6" y="9" width="1" height="1" fill="#56cd2f"/>
<rect x="7" y="9" width="1" height="1" fill="#64d73d"/>
<rect x="8" y="9" width="1" height="1" fill="#4ad41e"/>
<rect x="9" y="9" width="1" height="1" fill="#46ce19"/>
<rect x="10" y="9" width="1" height="1" fill="#3ebf14"/>
<rect x="11" y="9" width="1" height="1" fill="#3bb312"/>
<rect x="12" y="9" width="1" height="1" fill="#bce4ae" fill-opacity="0.996"/>
<rect x="13" y="9" width="1" height="1" fill="#ffffff"/>
<rect x="14" y="9" width="1" height="1" fill="#ffffff"/>
<rect x="15" y="9" width="1" height="1" fill="#fefefe"/>
<rect x="16" y="9" width="1" height="1" fill="#5dd02e"/>
<rect x="17" y="9" width="1" height="1" fill="#41c316"/>
<rect x="18" y="9" width="1" height="1" fill="#36b00d"/>
<rect x="19" y="9" width="1" height="1" fill="#4ab826"/>
<rect x="20" y="9" width="1" height="1" fill="#d6efcd"/>
<rect x="21" y="9" width="1" height="1" fill="#f7faf5"/>
<rect x="22" y="9" width="1" height="1" fill="#feffff"/>
<rect x="23" y="9" width="1" height="1" fill="#90d17c"/>
<rect x="24" y="9" width="1" height="1" fill="#3daf17" fill-opacity="0.961"/>
<rect x="25" y="9" width="1" height="1" fill="#33aa0b" fill-opacity="0.565"/>
<rect x="0" y="10" width="1" height="1" fill="#35b10c" fill-opacity="0.004"/>
<rect x="1" y="10" width="1" height="1" fill="#3bb911" fill-opacity="0.675"/>
<rect x="2" y="10" width="1" height="1" fill="#34a80d"/>
<rect x="3" y="10" width="1" height="1" fill="#36aa0e"/>
<rect x="4" y="10" width="1" height="1" fill="#48c420"/>
<rect x="5" y="10" width="1" height="1" fill="#a6ea90"/>
<rect x="6" y="10" width="1" height="1" fill="#bdf4a9"/>
<rect x="7" y="10" width="1" height="1" fill="#a2f287"/>
<rect x="8" y="10" width="1" height="1" fill="#5ae92b"/>
<rect x="9" y="10" width="1" height="1" fill="#53e521"/>
<rect x="10" y="10" width="1" height="1" fill="#51e121"/>
<rect x="11" y="10" width="1" height="1" fill="#4ad21c"/>
<rect x="12" y="10" width="1" height="1" fill="#5ec23b" fill-opacity="0.992"/>
<rect x="13" y="10" width="1" height="1" fill="#fefffe"/>
<rect x="14" y="10" width="1" height="1" fill="#fefffe"/>
<rect x="15" y="10" width="1" height="1" fill="#b9eaa7"/>
<rect x="16" y="10" width="1" height="1" fill="#4ad31b"/>
<rect x="17" y="10" width="1" height="1" fill="#5bf027"/>
<rect x="18" y="10" width="1" height="1" fill="#5aed27"/>
<rect x="19" y="10" width="1" height="1" fill="#3ebc13"/>
<rect x="20" y="10" width="1" height="1" fill="#3eb118"/>
<rect x="21" y="10" width="1" height="1" fill="#dff2d8"/>
<rect x="22" y="10" width="1" height="1" fill="#def0d7"/>
<rect x="23" y="10" width="1" height="1" fill="#3fb019"/>
<rect x="24" y="10" width="1" height="1" fill="#40b01a" fill-opacity="0.71"/>
<rect x="25" y="10" width="1" height="1" fill="#33aa0b" fill-opacity="0.043"/>
<rect x="0" y="11" width="1" height="1" fill="#35b10c" fill-opacity="0.008"/>
<rect x="1" y="11" width="1" height="1" fill="#36b00d" fill-opacity="0.953"/>
<rect x="2" y="11" width="1" height="1" fill="#34a40c"/>
<rect x="3" y="11" width="1" height="1" fill="#3ab311"/>
<rect x="4" y="11" width="1" height="1" fill="#57d32e"/>
<rect x="5" y="11" width="1" height="1" fill="#a2f188"/>
<rect x="6" y="11" width="1" height="1" fill="#9ef080"/>
<rect x="7" y="11" width="1" height="1" fill="#6af23a"/>
<rect x="8" y="11" width="1" height="1" fill="#5cf629"/>
<rect x="9" y="11" width="1" height="1" fill="#5cf428"/>
<rect x="10" y="11" width="1" height="1" fill="#59f027"/>
<rect x="11" y="11" width="1" height="1" fill="#5cf429"/>
<rect x="12" y="11" width="1" height="1" fill="#59ee27"/>
<rect x="13" y="11" width="1" height="1" fill="#72dd48"/>
<rect x="14" y="11" width="1" height="1" fill="#6cd244" fill-opacity="0.992"/>
<rect x="15" y="11" width="1" height="1" fill="#4dd91e"/>
<rect x="16" y="11" width="1" height="1" fill="#57e925"/>
<rect x="17" y="11" width="1" height="1" fill="#61f92c"/>
<rect x="18" y="11" width="1" height="1" fill="#62f42e"/>
<rect x="19" y="11" width="1" height="1" fill="#56e125"/>
<rect x="20" y="11" width="1" height="1" fill="#3ab210"/>
<rect x="21" y="11" width="1" height="1" fill="#3eb017"/>
<rect x="22" y="11" width="1" height="1" fill="#48b523"/>
<rect x="23" y="11" width="1" height="1" fill="#38ae0f" fill-opacity="0.929"/>
<rect x="24" y="11" width="1" height="1" fill="#34aa0c" fill-opacity="0.11"/>
<rect x="0" y="12" width="1" height="1" fill="#35b10c" fill-opacity="0.008"/>
<rect x="1" y="12" width="1" height="1" fill="#34aa0c" fill-opacity="0.996"/>
<rect x="2" y="12" width="1" height="1" fill="#33a20c"/>
<rect x="3" y="12" width="1" height="1" fill="#3ab311"/>
<rect x="4" y="12" width="1" height="1" fill="#65d73f"/>
<rect x="5" y="12" width="1" height="1" fill="#7dea58"/>
<rect x="6" y="12" width="1" height="1" fill="#7dee54"/>
<rect x="7" y="12" width="1" height="1" fill="#60f22e"/>
<rect x="8" y="12" width="1" height="1" fill="#5df72a"/>
<rect x="9" y="12" width="1" height="1" fill="#5df72a"/>
<rect x="10" y="12" width="1" height="1" fill="#5ef82a"/>
<rect x="11" y="12" width="1" height="1" fill="#5ffa2b"/>
<rect x="12" y="12" width="1" height="1" fill="#60fc2c"/>
<rect x="13" y="12" width="1" height="1" fill="#60fb2b"/>
<rect x="14" y="12" width="1" height="1" fill="#5ef62b"/>
<rect x="15" y="12" width="1" height="1" fill="#60f52c"/>
<rect x="16" y="12" width="1" height="1" fill="#63f72d"/>
<rect x="17" y="12" width="1" height="1" fill="#63f72e"/>
<rect x="18" y="12" width="1" height="1" fill="#64f22f"/>
<rect x="19" y="12" width="1" height="1" fill="#62e22e"/>
<rect x="20" y="12" width="1" height="1" fill="#47c41a"/>
<rect x="21" y="12" width="1" height="1" fill="#39b110"/>
<rect x="22" y="12" width="1" height="1" fill="#35ae0d"/>
<rect x="23" y="12" width="1" height="1" fill="#36b20d" fill-opacity="0.753"/>
<rect x="0" y="13" width="1" height="1" fill="#35b10c" fill-opacity="0.012"/>
<rect x="1" y="13" width="1" height="1" fill="#33a70d" fill-opacity="0.996"/>
<rect x="2" y="13" width="1" height="1" fill="#34a40d"/>
<rect x="3" y="13" width="1" height="1" fill="#35aa0f"/>
<rect x="4" y="13" width="1" height="1" fill="#57ca2f"/>
<rect x="5" y="13" width="1" height="1" fill="#6cde45"/>
<rect x="6" y="13" width="1" height="1" fill="#68e93c"/>
<rect x="7" y="13" width="1" height="1" fill="#5cee2b"/>
<rect x="8" y="13" width="1" height="1" fill="#5bf228"/>
<rect x="9" y="13" width="1" height="1" fill="#5bf428"/>
<rect x="10" y="13" width="1" height="1" fill="#5bf428"/>
<rect x="11" y="13" width="1" height="1" fill="#5bf328"/>
<rect x="12" y="13" width="1" height="1" fill="#5df529"/>
<rect x="13" y="13" width="1" height="1" fill="#60f72b"/>
<rect x="14" y="13" width="1" height="1" fill="#63f52e"/>
<rect x="15" y="13" width="1" height="1" fill="#63f32e"/>
<rect x="16" y="13" width="1" height="1" fill="#65f12f"/>
<rect x="17" y="13" width="1" height="1" fill="#64f02f"/>
<rect x="18" y="13" width="1" height="1" fill="#64ea31"/>
<rect x="19" y="13" width="1" height="1" fill="#5fde2e"/>
<rect x="20" y="13" width="1" height="1" fill="#4ac91d"/>
<rect x="21" y="13" width="1" height="1" fill="#3ab211"/>
<rect x="22" y="13" width="1" height="1" fill="#37b00d"/>
<rect x="23" y="13" width="1" height="1" fill="#37b00d" fill-opacity="0.839"/>
<rect x="0" y="14" width="1" height="1" fill="#95d480" fill-opacity="0.106"/>
<rect x="1" y="14" width="1" height="1" fill="#35a70e" fill-opacity="0.992"/>
<rect x="2" y="14" width="1" height="1" fill="#34a40e"/>
<rect x="3" y="14" width="1" height="1" fill="#33a30d"/>
<rect x="4" y="14" width="1" height="1" fill="#37ab10"/>
<rect x="5" y="14" width="1" height="1" fill="#44b81d"/>
<rect x="6" y="14" width="1" height="1" fill="#48c61f"/>
<rect x="7" y="14" width="1" height="1" fill="#4cd61e"/>
<rect x="8" y="14" width="1" height="1" fill="#4ed61e"/>
<rect x="9" y="14" width="1" height="1" fill="#51db21"/>
<rect x="10" y="14" width="1" height="1" fill="#56e325"/>
<rect x="11" y="14" width="1" height="1" fill="#53de23"/>
<rect x="12" y="14" width="1" height="1" fill="#57e426"/>
<rect x="13" y="14" width="1" height="1" fill="#54de23"/>
<rect x="14" y="14" width="1" height="1" fill="#53da23"/>
<rect x="15" y="14" width="1" height="1" fill="#58dd26"/>
<rect x="16" y="14" width="1" height="1" fill="#5cdf29"/>
<rect x="17" y="14" width="1" height="1" fill="#5cdc2a"/>
<rect x="18" y="14" width="1" height="1" fill="#59d428"/>
<rect x="19" y="14" width="1" height="1" fill="#50c822"/>
<rect x="20" y="14" width="1" height="1" fill="#40b716"/>
<rect x="21" y="14" width="1" height="1" fill="#38b10f"/>
<rect x="22" y="14" width="1" height="1" fill="#38b410"/>
<rect x="23" y="14" width="1" height="1" fill="#37b30e" fill-opacity="0.816"/>
<rect x="0" y="15" width="1" height="1" fill="#8acd73" fill-opacity="0.373"/>
<rect x="1" y="15" width="1" height="1" fill="#49b026" fill-opacity="0.98"/>
<rect x="2" y="15" width="1" height="1" fill="#3faa1a" fill-opacity="0.996"/>
<rect x="3" y="15" width="1" height="1" fill="#33a40c"/>
<rect x="4" y="15" width="1" height="1" fill="#35aa0e"/>
<rect x="5" y="15" width="1" height="1" fill="#36ad0e"/>
<rect x="6" y="15" width="1" height="1" fill="#37b00f"/>
<rect x="7" y="15" width="1" height="1" fill="#3ab410"/>
<rect x="8" y="15" width="1" height="1" fill="#3cb612"/>
<rect x="9" y="15" width="1" height="1" fill="#40be15"/>
<rect x="10" y="15" width="1" height="1" fill="#43c318"/>
<rect x="11" y="15" width="1" height="1" fill="#43c417"/>
<rect x="12" y="15" width="1" height="1" fill="#43c517"/>
<rect x="13" y="15" width="1" height="1" fill="#41c016"/>
<rect x="14" y="15" width="1" height="1" fill="#3fba16"/>
<rect x="15" y="15" width="1" height="1" fill="#40b715"/>
<rect x="16" y="15" width="1" height="1" fill="#43b818"/>
<rect x="17" y="15" width="1" height="1" fill="#43b818"/>
<rect x="18" y="15" width="1" height="1" fill="#42b818"/>
<rect x="19" y="15" width="1" height="1" fill="#41b716"/>
<rect x="20" y="15" width="1" height="1" fill="#3db813"/>
<rect x="21" y="15" width="1" height="1" fill="#39b510"/>
<rect x="22" y="15" width="1" height="1" fill="#36b10e"/>
<rect x="23" y="15" width="1" height="1" fill="#39b810" fill-opacity="0.514"/>
<rect x="0" y="16" width="1" height="1" fill="#84cc6c" fill-opacity="0.518"/>
<rect x="1" y="16" width="1" height="1" fill="#62bc45"/>
<rect x="2" y="16" width="1" height="1" fill="#d0ebc8"/>
<rect x="3" y="16" width="1" height="1" fill="#ecf6e9" fill-opacity="0.992"/>
<rect x="4" y="16" width="1" height="1" fill="#daefd3"/>
<rect x="5" y="16" width="1" height="1" fill="#f2f8ee" fill-opacity="0.996"/>
<rect x="6" y="16" width="1" height="1" fill="#f7fbf5" fill-opacity="0.996"/>
<rect x="7" y="16" width="1" height="1" fill="#f2faef" fill-opacity="0.996"/>
<rect x="8" y="16" width="1" height="1" fill="#e8f6e3"/>
<rect x="9" y="16" width="1" height="1" fill="#eff8ed"/>
<rect x="10" y="16" width="1" height="1" fill="#f6fcf5"/>
<rect x="11" y="16" width="1" height="1" fill="#f7fcf7"/>
<rect x="12" y="16" width="1" height="1" fill="#f3f9f0" fill-opacity="0.996"/>
<rect x="13" y="16" width="1" height="1" fill="#ecf7e8" fill-opacity="0.992"/>
<rect x="14" y="16" width="1" height="1" fill="#ebf7e8" fill-opacity="0.996"/>
<rect x="15" y="16" width="1" height="1" fill="#e8f6e5" fill-opacity="0.996"/>
<rect x="16" y="16" width="1" height="1" fill="#ecf7e9"/>
<rect x="17" y="16" width="1" height="1" fill="#eff8eb"/>
<rect x="18" y="16" width="1" height="1" fill="#f8fbf7"/>
<rect x="19" y="16" width="1" height="1" fill="#f6fbf4"/>
<rect x="20" y="16" width="1" height="1" fill="#f0f8ed" fill-opacity="0.992"/>
<rect x="21" y="16" width="1" height="1" fill="#d4eac9" fill-opacity="0.984"/>
<rect x="22" y="16" width="1" height="1" fill="#42b11c" fill-opacity="0.98"/>
<rect x="23" y="16" width="1" height="1" fill="#61c140" fill-opacity="0.169"/>
<rect x="0" y="17" width="1" height="1" fill="#84cc6d" fill-opacity="0.514"/>
<rect x="1" y="17" width="1" height="1" fill="#5cb93d"/>
<rect x="2" y="17" width="1" height="1" fill="#f8fcf7"/>
<rect x="3" y="17" width="1" height="1" fill="#fdfefd"/>
<rect x="4" y="17" width="1" height="1" fill="#fdfefd"/>
<rect x="5" y="17" width="1" height="1" fill="#fdfefd"/>
<rect x="6" y="17" width="1" height="1" fill="#fdfefd"/>
<rect x="7" y="17" width="1" height="1" fill="#fdfefd"/>
<rect x="8" y="17" width="1" height="1" fill="#fdfefd"/>
<rect x="9" y="17" width="1" height="1" fill="#fdfefd"/>
<rect x="10" y="17" width="1" height="1" fill="#fdfefd"/>
<rect x="11" y="17" width="1" height="1" fill="#fdfefd"/>
<rect x="12" y="17" width="1" height="1" fill="#fdfefd"/>
<rect x="13" y="17" width="1" height="1" fill="#fbfdfa"/>
<rect x="14" y="17" width="1" height="1" fill="#fbfefa"/>
<rect x="15" y="17" width="1" height="1" fill="#fafefa"/>
<rect x="16" y="17" width="1" height="1" fill="#fcfefc"/>
<rect x="17" y="17" width="1" height="1" fill="#fdfefd"/>
<rect x="18" y="17" width="1" height="1" fill="#fdfefd"/>
<rect x="19" y="17" width="1" height="1" fill="#fdfefd"/>
<rect x="20" y="17" width="1" height="1" fill="#fdfefd"/>
<rect x="21" y="17" width="1" height="1" fill="#fcfefc"/>
<rect x="22" y="17" width="1" height="1" fill="#3eae17" fill-opacity="0.996"/>
<rect x="23" y="17" width="1" height="1" fill="#6ac14e" fill-opacity="0.227"/>
<rect x="0" y="18" width="1" height="1" fill="#90d17a" fill-opacity="0.255"/>
<rect x="1" y="18" width="1" height="1" fill="#47b324" fill-opacity="0.976"/>
<rect x="2" y="18" width="1" height="1" fill="#def0d9"/>
<rect x="3" y="18" width="1" height="1" fill="#fafcfa"/>
<rect x="4" y="18" width="1" height="1" fill="#f9faf9"/>
<rect x="5" y="18" width="1" height="1" fill="#fbfcfc"/>
<rect x="6" y="18" width="1" height="1" fill="#fcfefd"/>
<rect x="7" y="18" width="1" height="1" fill="#fdfefd"/>
<rect x="8" y="18" width="1" height="1" fill="#fcfefb"/>
<rect x="9" y="18" width="1" height="1" fill="#fcfefb"/>
<rect x="10" y="18" width="1" height="1" fill="#fcfefb"/>
<rect x="11" y="18" width="1" height="1" fill="#fdfefd"/>
<rect x="12" y="18" width="1" height="1" fill="#e0f3db"/>
<rect x="13" y="18" width="1" height="1" fill="#b7e1a9"/>
<rect x="14" y="18" width="1" height="1" fill="#8dd077"/>
<rect x="15" y="18" width="1" height="1" fill="#89cd73"/>
<rect x="16" y="18" width="1" height="1" fill="#d3e9cd"/>
<rect x="17" y="18" width="1" height="1" fill="#fefeff"/>
<rect x="18" y="18" width="1" height="1" fill="#ffffff"/>
<rect x="19" y="18" width="1" height="1" fill="#ffffff"/>
<rect x="20" y="18" width="1" height="1" fill="#fdfefc"/>
<rect x="21" y="18" width="1" height="1" fill="#ecf7e9"/>
<rect x="22" y="18" width="1" height="1" fill="#47b324" fill-opacity="0.969"/>
<rect x="23" y="18" width="1" height="1" fill="#6ec153" fill-opacity="0.2"/>
<rect x="0" y="19" width="1" height="1" fill="#98d584" fill-opacity="0.016"/>
<rect x="1" y="19" width="1" height="1" fill="#8dd077" fill-opacity="0.322"/>
<rect x="2" y="19" width="1" height="1" fill="#79c761" fill-opacity="0.867"/>
<rect x="3" y="19" width="1" height="1" fill="#72c456" fill-opacity="0.988"/>
<rect x="4" y="19" width="1" height="1" fill="#59b93a" fill-opacity="0.996"/>
<rect x="5" y="19" width="1" height="1" fill="#69bf4e"/>
<rect x="6" y="19" width="1" height="1" fill="#73c35a"/>
<rect x="7" y="19" width="1" height="1" fill="#7ac561"/>
<rect x="8" y="19" width="1" height="1" fill="#7bc764"/>
<rect x="9" y="19" width="1" height="1" fill="#82ca6c"/>
<rect x="10" y="19" width="1" height="1" fill="#83cc6c"/>
<rect x="11" y="19" width="1" height="1" fill="#6ac34d"/>
<rect x="12" y="19" width="1" height="1" fill="#4cb72a" fill-opacity="0.98"/>
<rect x="13" y="19" width="1" height="1" fill="#67c149" fill-opacity="0.878"/>
<rect x="14" y="19" width="1" height="1" fill="#7bca61" fill-opacity="0.694"/>
<rect x="15" y="19" width="1" height="1" fill="#7ac860" fill-opacity="0.686"/>
<rect x="16" y="19" width="1" height="1" fill="#4eb52c" fill-opacity="0.965"/>
<rect x="17" y="19" width="1" height="1" fill="#74c25b"/>
<rect x="18" y="19" width="1" height="1" fill="#91cd7e"/>
<rect x="19" y="19" width="1" height="1" fill="#92ce7f"/>
<rect x="20" y="19" width="1" height="1" fill="#8ccd77"/>
<rect x="21" y="19" width="1" height="1" fill="#77c65e"/>
<rect x="22" y="19" width="1" height="1" fill="#6bc24e" fill-opacity="0.824"/>
<rect x="23" y="19" width="1" height="1" fill="#87cc71" fill-opacity="0.082"/>
</svg>