<?xml version="1.0" encoding="UTF-8" standalone="no"?>
<svg xmlns="http://www.w3.org/2000/svg" width="26" height="21" shape-rendering="crispEdges">
<rect x="14" y="1" width="1" height="1" fill="#8c96ca" fill-opacity="0.043"/>
<rect x="15" y="1" width="1" height="1" fill="#616fb9" fill-opacity="0.765"/>
<rect x="16" y="1" width="1" height="1" fill="#3249b0" fill-opacity="0.949"/>
<rect x="17" y="1" width="1" height="1" fill="#4357b6" fill-opacity="0.643"/>
<rect x="18" y="1" width="1" height="1" fill="#1734ae" fill-opacity="0.024"/>
<rect x="13" y="2" width="1" height="1" fill="#6f7bbe" fill-opacity="0.047"/>
<rect x="14" y="2" width="1" height="1" fill="#4e5fb5" fill-opacity="0.847"/>
<rect x="15" y="2" width="1" height="1" fill="#5768bb" fill-opacity="0.996"/>
<rect x="16" y="2" width="1" height="1" fill="#949dcf"/>
<rect x="17" y="2" width="1" height="1" fill="#2f45b2" fill-opacity="0.988"/>
<rect x="18" y="2" width="1" height="1" fill="#3a4eb4" fill-opacity="0.831"/>
<rect x="19" y="2" width="1" height="1" fill="#1734ae" fill-opacity="0.102"/>
<rect x="12" y="3" width="1" height="1" fill="#7783be" fill-opacity="0.051"/>
<rect x="13" y="3" width="1" height="1" fill="#4a5bb5" fill-opacity="0.792"/>
<rect x="14" y="3" width="1" height="1" fill="#4d5fb5" fill-opacity="0.996"/>
<rect x="15" y="3" width="1" height="1" fill="#e8eaf2"/>
<rect x="16" y="3" width="1" height="1" fill="#ffffff"/>
<rect x="17" y="3" width="1" height="1" fill="#d5d8ec"/>
<rect x="18" y="3" width="1" height="1" fill="#3d52b5" fill-opacity="0.992"/>
<rect x="19" y="3" width="1" height="1" fill="#3249b3" fill-opacity="0.925"/>
<rect x="20" y="3" width="1" height="1" fill="#4054b6" fill-opacity="0.133"/>
<rect x="12" y="4" width="1" height="1" fill="#6170bb" fill-opacity="0.133"/>
<rect x="13" y="4" width="1" height="1" fill="#354bb2" fill-opacity="0.941"/>
<rect x="14" y="4" width="1" height="1" fill="#7e8ac1"/>
<rect x="15" y="4" width="1" height="1" fill="#fdfdfe"/>
<rect x="16" y="4" width="1" height="1" fill="#ffffff"/>
<rect x="17" y="4" width="1" height="1" fill="#ffffff"/>
<rect x="18" y="4" width="1" height="1" fill="#ebecf6"/>
<rect x="19" y="4" width="1" height="1" fill="#5a6bbe" fill-opacity="0.992"/>
<rect x="20" y="4" width="1" height="1" fill="#354bb3" fill-opacity="0.953"/>
<rect x="21" y="4" width="1" height="1" fill="#5869be" fill-opacity="0.337"/>
<rect x="12" y="5" width="1" height="1" fill="#153ad1" fill-opacity="0.016"/>
<rect x="13" y="5" width="1" height="1" fill="#5566c1" fill-opacity="0.549"/>
<rect x="14" y="5" width="1" height="1" fill="#2d43af" fill-opacity="0.984"/>
<rect x="15" y="5" width="1" height="1" fill="#a2aacb"/>
<rect x="16" y="5" width="1" height="1" fill="#fdfdfe"/>
<rect x="17" y="5" width="1" height="1" fill="#ffffff"/>
<rect x="18" y="5" width="1" height="1" fill="#fefeff"/>
<rect x="19" y="5" width="1" height="1" fill="#f3f4fa"/>
<rect x="20" y="5" width="1" height="1" fill="#838ecb" fill-opacity="0.996"/>
<rect x="21" y="5" width="1" height="1" fill="#2840b0" fill-opacity="0.988"/>
<rect x="22" y="5" width="1" height="1" fill="#5768be" fill-opacity="0.592"/>
<rect x="7" y="6" width="1" height="1" fill="#1232c2" fill-opacity="0.008"/>
<rect x="11" y="6" width="1" height="1" fill="#848ecb" fill-opacity="0.02"/>
<rect x="12" y="6" width="1" height="1" fill="#5d6ec0" fill-opacity="0.612"/>
<rect x="13" y="6" width="1" height="1" fill="#4759b8" fill-opacity="0.969"/>
<rect x="14" y="6" width="1" height="1" fill="#5766c7" fill-opacity="0.925"/>
<rect x="15" y="6" width="1" height="1" fill="#364bbe"/>
<rect x="16" y="6" width="1" height="1" fill="#c1c3d6"/>
<rect x="17" y="6" width="1" height="1" fill="#f9fafb"/>
<rect x="18" y="6" width="1" height="1" fill="#fefefe"/>
<rect x="19" y="6" width="1" height="1" fill="#fefeff"/>
<rect x="20" y="6" width="1" height="1" fill="#fdfdfe"/>
<rect x="21" y="6" width="1" height="1" fill="#afb6dd"/>
<rect x="22" y="6" width="1" height="1" fill="#2d44b2" fill-opacity="0.992"/>
<rect x="23" y="6" width="1" height="1" fill="#5d6dbc" fill-opacity="0.729"/>
<rect x="24" y="6" width="1" height="1" fill="#959ecc" fill-opacity="0.031"/>
<rect x="3" y="7" width="1" height="1" fill="#122fb9" fill-opacity="0.047"/>
<rect x="4" y="7" width="1" height="1" fill="#102fb9" fill-opacity="0.333"/>
<rect x="5" y="7" width="1" height="1" fill="#1331b9" fill-opacity="0.675"/>
<rect x="6" y="7" width="1" height="1" fill="#1d449c" fill-opacity="0.933"/>
<rect x="7" y="7" width="1" height="1" fill="#1d4995" fill-opacity="0.973"/>
<rect x="8" y="7" width="1" height="1" fill="#1b449b" fill-opacity="0.969"/>
<rect x="9" y="7" width="1" height="1" fill="#1e4b93" fill-opacity="0.835"/>
<rect x="10" y="7" width="1" height="1" fill="#344ab2" fill-opacity="0.467"/>
<rect x="11" y="7" width="1" height="1" fill="#5564bb" fill-opacity="0.89"/>
<rect x="12" y="7" width="1" height="1" fill="#4155b6" fill-opacity="0.98"/>
<rect x="13" y="7" width="1" height="1" fill="#ccd0e5"/>
<rect x="14" y="7" width="1" height="1" fill="#d6d9ed" fill-opacity="0.973"/>
<rect x="15" y="7" width="1" height="1" fill="#394dbf" fill-opacity="0.98"/>
<rect x="16" y="7" width="1" height="1" fill="#1b37b9"/>
<rect x="17" y="7" width="1" height="1" fill="#777dbc"/>
<rect x="18" y="7" width="1" height="1" fill="#ebeff3"/>
<rect x="19" y="7" width="1" height="1" fill="#fdfefe"/>
<rect x="20" y="7" width="1" height="1" fill="#fdfefe"/>
<rect x="21" y="7" width="1" height="1" fill="#fefefe"/>
<rect x="22" y="7" width="1" height="1" fill="#c3c9e4"/>
<rect x="23" y="7" width="1" height="1" fill="#4e60ba" fill-opacity="0.996"/>
<rect x="24" y="7" width="1" height="1" fill="#4a5bb6" fill-opacity="0.871"/>
<rect x="25" y="7" width="1" height="1" fill="#1734ae" fill-opacity="0.059"/>
<rect x="2" y="8" width="1" height="1" fill="#1730b3" fill-opacity="0.239"/>
<rect x="3" y="8" width="1" height="1" fill="#1331b3" fill-opacity="0.847"/>
<rect x="4" y="8" width="1" height="1" fill="#1532b3" fill-opacity="0.996"/>
<rect x="5" y="8" width="1" height="1" fill="#1534ba"/>
<rect x="6" y="8" width="1" height="1" fill="#1836b3"/>
<rect x="7" y="8" width="1" height="1" fill="#1734b0"/>
<rect x="8" y="8" width="1" height="1" fill="#1532b3"/>
<rect x="9" y="8" width="1" height="1" fill="#1734b2"/>
<rect x="10" y="8" width="1" height="1" fill="#1736ae" fill-opacity="0.996"/>
<rect x="11" y="8" width="1" height="1" fill="#4e5fba" fill-opacity="0.976"/>
<rect x="12" y="8" width="1" height="1" fill="#d6daed"/>
<rect x="13" y="8" width="1" height="1" fill="#fefeff"/>
<rect x="14" y="8" width="1" height="1" fill="#fdfdfe"/>
<rect x="15" y="8" width="1" height="1" fill="#d8dcf0"/>
<rect x="16" y="8" width="1" height="1" fill="#2f44ba" fill-opacity="0.996"/>
<rect x="17" y="8" width="1" height="1" fill="#1a36bb"/>
<rect x="18" y="8" width="1" height="1" fill="#2940b9"/>
<rect x="19" y="8" width="1" height="1" fill="#b6bcdd"/>
<rect x="20" y="8" width="1" height="1" fill="#fafbfc"/>
<rect x="21" y="8" width="1" height="1" fill="#fcfdfc"/>
<rect x="22" y="8" width="1" height="1" fill="#fdfdfe"/>
<rect x="23" y="8" width="1" height="1" fill="#b0b6de"/>
<rect x="24" y="8" width="1" height="1" fill="#1a35ae"/>
<rect x="25" y="8" width="1" height="1" fill="#1734ae" fill-opacity="0.161"/>
<rect x="0" y="9" width="1" height="1" fill="#4abb04" fill-opacity="0.004"/>
<rect x="1" y="9" width="1" height="1" fill="#122fb9" fill-opacity="0.165"/>
<rect x="2" y="9" width="1" height="1" fill="#1331b2" fill-opacity="0.914"/>
<rect x="3" y="9" width="1" height="1" fill="#1534bb"/>
<rect x="4" y="9" width="1" height="1" fill="#1535c1"/>
<rect x="5" y="9" width="1" height="1" fill="#1837ca"/>
<rect x="6" y="9" width="1" height="1" fill="#3d55d6"/>
<rect x="7" y="9" width="1" height="1" fill="#415bde"/>
<rect x="8" y="9" width="1" height="1" fill="#1a3bd1"/>
<rect x="9" y="9" width="1" height="1" fill="#1534c5"/>
<rect x="10" y="9" width="1" height="1" fill="#1534c0"/>
<rect x="11" y="9" width="1" height="1" fill="#203bb9" fill-opacity="0.992"/>
<rect x="12" y="9" width="1" height="1" fill="#b0b7db" fill-opacity="0.969"/>
<rect x="13" y="9" width="1" height="1" fill="#fdfeff"/>
<rect x="14" y="9" width="1" height="1" fill="#fdfdfe"/>
<rect x="15" y="9" width="1" height="1" fill="#dbdcdf" fill-opacity="0.984"/>
<rect x="16" y="9" width="1" height="1" fill="#6869b2" fill-opacity="0.992"/>
<rect x="17" y="9" width="1" height="1" fill="#1736c1"/>
<rect x="18" y="9" width="1" height="1" fill="#1a36bb"/>
<rect x="19" y="9" width="1" height="1" fill="#1d37b9"/>
<rect x="20" y="9" width="1" height="1" fill="#6d78c4"/>
<rect x="21" y="9" width="1" height="1" fill="#eff2f3"/>
<rect x="22" y="9" width="1" height="1" fill="#cbd1e8"/>
<rect x="23" y="9" width="1" height="1" fill="#394db5"/>
<rect x="24" y="9" width="1" height="1" fill="#4356b4" fill-opacity="0.882"/>
<rect x="25" y="9" width="1" height="1" fill="#1734b0" fill-opacity="0.02"/>
<rect x="1" y="10" width="1" height="1" fill="#1330b6" fill-opacity="0.667"/>
<rect x="2" y="10" width="1" height="1" fill="#1734b8"/>
<rect x="3" y="10" width="1" height="1" fill="#1535be"/>
<rect x="4" y="10" width="1" height="1" fill="#1536cc"/>
<rect x="5" y="10" width="1" height="1" fill="#7989e7"/>
<rect x="6" y="10" width="1" height="1" fill="#9da9f0"/>
<rect x="7" y="10" width="1" height="1" fill="#5e75ec"/>
<rect x="8" y="10" width="1" height="1" fill="#2147ec"/>
<rect x="9" y="10" width="1" height="1" fill="#123ff1"/>
<rect x="10" y="10" width="1" height="1" fill="#123ced"/>
<rect x="11" y="10" width="1" height="1" fill="#1536c1"/>
<rect x="12" y="10" width="1" height="1" fill="#203bb6" fill-opacity="0.992"/>
<rect x="13" y="10" width="1" height="1" fill="#838fc9" fill-opacity="0.98"/>
<rect x="14" y="10" width="1" height="1" fill="#8892ca" fill-opacity="0.961"/>
<rect x="15" y="10" width="1" height="1" fill="#203ab9"/>
<rect x="16" y="10" width="1" height="1" fill="#1836c2"/>
<rect x="17" y="10" width="1" height="1" fill="#1540ed"/>
<rect x="18" y="10" width="1" height="1" fill="#133fdf"/>
<rect x="19" y="10" width="1" height="1" fill="#1537c4"/>
<rect x="20" y="10" width="1" height="1" fill="#1835b9"/>
<rect x="21" y="10" width="1" height="1" fill="#3145bb"/>
<rect x="22" y="10" width="1" height="1" fill="#4a5bb6"/>
<rect x="23" y="10" width="1" height="1" fill="#2c43b2" fill-opacity="0.98"/>
<rect x="24" y="10" width="1" height="1" fill="#8895ce" fill-opacity="0.176"/>
<rect x="1" y="11" width="1" height="1" fill="#1531b0" fill-opacity="0.933"/>
<rect x="2" y="11" width="1" height="1" fill="#1734bb"/>
<rect x="3" y="11" width="1" height="1" fill="#1535c7"/>
<rect x="4" y="11" width="1" height="1" fill="#435bde"/>
<rect x="5" y="11" width="1" height="1" fill="#a3aff1"/>
<rect x="6" y="11" width="1" height="1" fill="#5a70ea"/>
<rect x="7" y="11" width="1" height="1" fill="#1b42ec"/>
<rect x="8" y="11" width="1" height="1" fill="#1341f5"/>
<rect x="9" y="11" width="1" height="1" fill="#1342f9"/>
<rect x="10" y="11" width="1" height="1" fill="#1341f9"/>
<rect x="11" y="11" width="1" height="1" fill="#123ff1"/>
<rect x="12" y="11" width="1" height="1" fill="#1339cc"/>
<rect x="13" y="11" width="1" height="1" fill="#1e3bba"/>
<rect x="14" y="11" width="1" height="1" fill="#1d3ab9"/>
<rect x="15" y="11" width="1" height="1" fill="#173acc"/>
<rect x="16" y="11" width="1" height="1" fill="#1541f3"/>
<rect x="17" y="11" width="1" height="1" fill="#1344ff"/>
<rect x="18" y="11" width="1" height="1" fill="#1342f6"/>
<rect x="19" y="11" width="1" height="1" fill="#1240f0"/>
<rect x="20" y="11" width="1" height="1" fill="#1237d5"/>
<rect x="21" y="11" width="1" height="1" fill="#1a35b9"/>
<rect x="22" y="11" width="1" height="1" fill="#1a35b4"/>
<rect x="23" y="11" width="1" height="1" fill="#3042b5" fill-opacity="0.659"/>
<rect x="1" y="12" width="1" height="1" fill="#1530aa" fill-opacity="0.984"/>
<rect x="2" y="12" width="1" height="1" fill="#1734bb"/>
<rect x="3" y="12" width="1" height="1" fill="#1535cb"/>
<rect x="4" y="12" width="1" height="1" fill="#203dd7"/>
<rect x="5" y="12" width="1" height="1" fill="#2848e0"/>
<rect x="6" y="12" width="1" height="1" fill="#1740ea"/>
<rect x="7" y="12" width="1" height="1" fill="#1341f1"/>
<rect x="8" y="12" width="1" height="1" fill="#1341f5"/>
<rect x="9" y="12" width="1" height="1" fill="#1342f5"/>
<rect x="10" y="12" width="1" height="1" fill="#1343f9"/>
<rect x="11" y="12" width="1" height="1" fill="#1343fb"/>
<rect x="12" y="12" width="1" height="1" fill="#1241f9"/>
<rect x="13" y="12" width="1" height="1" fill="#1342f9"/>
<rect x="14" y="12" width="1" height="1" fill="#1343f9"/>
<rect x="15" y="12" width="1" height="1" fill="#1343ff"/>
<rect x="16" y="12" width="1" height="1" fill="#1547fe"/>
<rect x="17" y="12" width="1" height="1" fill="#1345ff"/>
<rect x="18" y="12" width="1" height="1" fill="#1344ff"/>
<rect x="19" y="12" width="1" height="1" fill="#1342f6"/>
<rect x="20" y="12" width="1" height="1" fill="#123dec"/>
<rect x="21" y="12" width="1" height="1" fill="#1735c5"/>
<rect x="22" y="12" width="1" height="1" fill="#1a35b8"/>
<rect x="23" y="12" width="1" height="1" fill="#1530b2" fill-opacity="0.8"/>
<rect x="1" y="13" width="1" height="1" fill="#1530aa" fill-opacity="0.988"/>
<rect x="2" y="13" width="1" height="1" fill="#1734bc"/>
<rect x="3" y="13" width="1" height="1" fill="#1735c6"/>
<rect x="4" y="13" width="1" height="1" fill="#1b39d1"/>
<rect x="5" y="13" width="1" height="1" fill="#1a3bdb"/>
<rect x="6" y="13" width="1" height="1" fill="#153fe9"/>
<rect x="7" y="13" width="1" height="1" fill="#1341ee"/>
<rect x="8" y="13" width="1" height="1" fill="#1342f7"/>
<rect x="9" y="13" width="1" height="1" fill="#1541f6"/>
<rect x="10" y="13" width="1" height="1" fill="#1542f9"/>
<rect x="11" y="13" width="1" height="1" fill="#1343fc"/>
<rect x="12" y="13" width="1" height="1" fill="#1344ff"/>
<rect x="13" y="13" width="1" height="1" fill="#1343fe"/>
<rect x="14" y="13" width="1" height="1" fill="#1545fe"/>
<rect x="15" y="13" width="1" height="1" fill="#1345fc"/>
<rect x="16" y="13" width="1" height="1" fill="#1344ff"/>
<rect x="17" y="13" width="1" height="1" fill="#1344ff"/>
<rect x="18" y="13" width="1" height="1" fill="#1343fe"/>
<rect x="19" y="13" width="1" height="1" fill="#1342f7"/>
<rect x="20" y="13" width="1" height="1" fill="#133fe9"/>
<rect x="21" y="13" width="1" height="1" fill="#1535c9"/>
<rect x="22" y="13" width="1" height="1" fill="#1834b9"/>
<rect x="23" y="13" width="1" height="1" fill="#1731ae" fill-opacity="0.839"/>
<rect x="0" y="14" width="1" height="1" fill="#969fd0" fill-opacity="0.106"/>
<rect x="1" y="14" width="1" height="1" fill="#1b35aa" fill-opacity="0.984"/>
<rect x="2" y="14" width="1" height="1" fill="#1834bc"/>
<rect x="3" y="14" width="1" height="1" fill="#1734bf"/>
<rect x="4" y="14" width="1" height="1" fill="#1a37cc"/>
<rect x="5" y="14" width="1" height="1" fill="#183ad9"/>
<rect x="6" y="14" width="1" height="1" fill="#153fe4"/>
<rect x="7" y="14" width="1" height="1" fill="#1540ec"/>
<rect x="8" y="14" width="1" height="1" fill="#1542f3"/>
<rect x="9" y="14" width="1" height="1" fill="#1542f6"/>
<rect x="10" y="14" width="1" height="1" fill="#1342f7"/>
<rect x="11" y="14" width="1" height="1" fill="#1342f9"/>
<rect x="12" y="14" width="1" height="1" fill="#1344fc"/>
<rect x="13" y="14" width="1" height="1" fill="#1345fc"/>
<rect x="14" y="14" width="1" height="1" fill="#1344fc"/>
<rect x="15" y="14" width="1" height="1" fill="#1341f3"/>
<rect x="16" y="14" width="1" height="1" fill="#1340f2"/>
<rect x="17" y="14" width="1" height="1" fill="#1340f2"/>
<rect x="18" y="14" width="1" height="1" fill="#1340f0"/>
<rect x="19" y="14" width="1" height="1" fill="#123de9"/>
<rect x="20" y="14" width="1" height="1" fill="#133add"/>
<rect x="21" y="14" width="1" height="1" fill="#1734c0"/>
<rect x="22" y="14" width="1" height="1" fill="#1734b9"/>
<rect x="23" y="14" width="1" height="1" fill="#1731b2" fill-opacity="0.78"/>
<rect x="0" y="15" width="1" height="1" fill="#8b94c9" fill-opacity="0.373"/>
<rect x="1" y="15" width="1" height="1" fill="#4555ae" fill-opacity="0.973"/>
<rect x="2" y="15" width="1" height="1" fill="#7579be" fill-opacity="0.941"/>
<rect x="3" y="15" width="1" height="1" fill="#243abf"/>
<rect x="4" y="15" width="1" height="1" fill="#1534c1"/>
<rect x="5" y="15" width="1" height="1" fill="#1734c1"/>
<rect x="6" y="15" width="1" height="1" fill="#1534c4"/>
<rect x="7" y="15" width="1" height="1" fill="#1535c6"/>
<rect x="8" y="15" width="1" height="1" fill="#1536c9"/>
<rect x="9" y="15" width="1" height="1" fill="#1536ca"/>
<rect x="10" y="15" width="1" height="1" fill="#1736ca"/>
<rect x="11" y="15" width="1" height="1" fill="#1b3ac6"/>
<rect x="12" y="15" width="1" height="1" fill="#203dc6"/>
<rect x="13" y="15" width="1" height="1" fill="#233fc9"/>
<rect x="14" y="15" width="1" height="1" fill="#1335cb"/>
<rect x="15" y="15" width="1" height="1" fill="#1335cb"/>
<rect x="16" y="15" width="1" height="1" fill="#1235cc"/>
<rect x="17" y="15" width="1" height="1" fill="#1235cf"/>
<rect x="18" y="15" width="1" height="1" fill="#1235d0"/>
<rect x="19" y="15" width="1" height="1" fill="#1234ca"/>
<rect x="20" y="15" width="1" height="1" fill="#1534c2"/>
<rect x="21" y="15" width="1" height="1" fill="#1734bc"/>
<rect x="22" y="15" width="1" height="1" fill="#1732b6"/>
<rect x="23" y="15" width="1" height="1" fill="#1535bf" fill-opacity="0.467"/>
<rect x="0" y="16" width="1" height="1" fill="#848fc7" fill-opacity="0.518"/>
<rect x="1" y="16" width="1" height="1" fill="#6472b9"/>
<rect x="2" y="16" width="1" height="1" fill="#d5d8db" fill-opacity="0.984"/>
<rect x="3" y="16" width="1" height="1" fill="#d2cfd6" fill-opacity="0.925"/>
<rect x="4" y="16" width="1" height="1" fill="#dcdeed" fill-opacity="0.98"/>
<rect x="5" y="16" width="1" height="1" fill="#ced2ea" fill-opacity="0.988"/>
<rect x="6" y="16" width="1" height="1" fill="#d8daed" fill-opacity="0.992"/>
<rect x="7" y="16" width="1" height="1" fill="#e0e3f2" fill-opacity="0.996"/>
<rect x="8" y="16" width="1" height="1" fill="#e6e8f5"/>
<rect x="9" y="16" width="1" height="1" fill="#ecedf7"/>
<rect x="10" y="16" width="1" height="1" fill="#eeeff9"/>
<rect x="11" y="16" width="1" height="1" fill="#eff1f7" fill-opacity="0.996"/>
<rect x="12" y="16" width="1" height="1" fill="#f2f3f9" fill-opacity="0.996"/>
<rect x="13" y="16" width="1" height="1" fill="#e6e8f2" fill-opacity="0.988"/>
<rect x="14" y="16" width="1" height="1" fill="#d8dced" fill-opacity="0.98"/>
<rect x="15" y="16" width="1" height="1" fill="#dee0ee" fill-opacity="0.988"/>
<rect x="16" y="16" width="1" height="1" fill="#e4e4ec" fill-opacity="0.988"/>
<rect x="17" y="16" width="1" height="1" fill="#e4e3ea" fill-opacity="0.988"/>
<rect x="18" y="16" width="1" height="1" fill="#dcdce9" fill-opacity="0.984"/>
<rect x="19" y="16" width="1" height="1" fill="#e2e2ec" fill-opacity="0.988"/>
<rect x="20" y="16" width="1" height="1" fill="#e0e0ea" fill-opacity="0.973"/>
<rect x="21" y="16" width="1" height="1" fill="#7074b9" fill-opacity="0.953"/>
<rect x="22" y="16" width="1" height="1" fill="#3d4eb3" fill-opacity="0.925"/>
<rect x="23" y="16" width="1" height="1" fill="#5f6ec5" fill-opacity="0.149"/>
<rect x="0" y="17" width="1" height="1" fill="#858fc7" fill-opacity="0.514"/>
<rect x="1" y="17" width="1" height="1" fill="#6370b5"/>
<rect x="2" y="17" width="1" height="1" fill="#e4e6db"/>
<rect x="3" y="17" width="1" height="1" fill="#f3f5f7"/>
<rect x="4" y="17" width="1" height="1" fill="#f9fafb"/>
<rect x="5" y="17" width="1" height="1" fill="#fafafb"/>
<rect x="6" y="17" width="1" height="1" fill="#fafafa"/>
<rect x="7" y="17" width="1" height="1" fill="#f9fafa"/>
<rect x="8" y="17" width="1" height="1" fill="#fafafa"/>
<rect x="9" y="17" width="1" height="1" fill="#fafafa"/>
<rect x="10" y="17" width="1" height="1" fill="#fafafb"/>
<rect x="11" y="17" width="1" height="1" fill="#f9fafb"/>
<rect x="12" y="17" width="1" height="1" fill="#f7f8fa"/>
<rect x="13" y="17" width="1" height="1" fill="#f7f9fa"/>
<rect x="14" y="17" width="1" height="1" fill="#f6f8f9"/>
<rect x="15" y="17" width="1" height="1" fill="#f8f9fa"/>
<rect x="16" y="17" width="1" height="1" fill="#f9faf9"/>
<rect x="17" y="17" width="1" height="1" fill="#fafaf9"/>
<rect x="18" y="17" width="1" height="1" fill="#fafaf9"/>
<rect x="19" y="17" width="1" height="1" fill="#fafaf9"/>
<rect x="20" y="17" width="1" height="1" fill="#fafbfa"/>
<rect x="21" y="17" width="1" height="1" fill="#eceef5"/>
<rect x="22" y="17" width="1" height="1" fill="#4356b3" fill-opacity="0.969"/>
<rect x="23" y="17" width="1" height="1" fill="#929cd0" fill-opacity="0.149"/>
<rect x="0" y="18" width="1" height="1" fill="#919bce" fill-opacity="0.255"/>
<rect x="1" y="18" width="1" height="1" fill="#4153b0" fill-opacity="0.969"/>
<rect x="2" y="18" width="1" height="1" fill="#a5abca"/>
<rect x="3" y="18" width="1" height="1" fill="#e2e3e7"/>
<rect x="4" y="18" width="1" height="1" fill="#f5f5f2"/>
<rect x="5" y="18" width="1" height="1" fill="#fbfcfa"/>
<rect x="6" y="18" width="1" height="1" fill="#fcfdfc"/>
<rect x="7" y="18" width="1" height="1" fill="#fcfdfe"/>
<rect x="8" y="18" width="1" height="1" fill="#fafafc"/>
<rect x="9" y="18" width="1" height="1" fill="#fcfcfe"/>
<rect x="10" y="18" width="1" height="1" fill="#fcfcfe"/>
<rect x="11" y="18" width="1" height="1" fill="#fdfdfe"/>
<rect x="12" y="18" width="1" height="1" fill="#e3e5f2"/>
<rect x="13" y="18" width="1" height="1" fill="#babfdf"/>
<rect x="14" y="18" width="1" height="1" fill="#8e97cc"/>
<rect x="15" y="18" width="1" height="1" fill="#8a93ca"/>
<rect x="16" y="18" width="1" height="1" fill="#d6d9e7"/>
<rect x="17" y="18" width="1" height="1" fill="#fefeff"/>
<rect x="18" y="18" width="1" height="1" fill="#ffffff"/>
<rect x="19" y="18" width="1" height="1" fill="#fefefe"/>
<rect x="20" y="18" width="1" height="1" fill="#fdfdfe"/>
<rect x="21" y="18" width="1" height="1" fill="#d8dbea"/>
<rect x="22" y="18" width="1" height="1" fill="#4e5fb5" fill-opacity="0.941"/>
<rect x="23" y="18" width="1" height="1" fill="#929bcc" fill-opacity="0.137"/>
<rect x="0" y="19" width="1" height="1" fill="#9aa3d1" fill-opacity="0.016"/>
<rect x="1" y="19" width="1" height="1" fill="#8e97cc" fill-opacity="0.322"/>
<rect x="2" y="19" width="1" height="1" fill="#6370ba" fill-opacity="0.851"/>
<rect x="3" y="19" width="1" height="1" fill="#3549ad" fill-opacity="0.984"/>
<rect x="4" y="19" width="1" height="1" fill="#5261b4" fill-opacity="0.996"/>
<rect x="5" y="19" width="1" height="1" fill="#6673ba"/>
<rect x="6" y="19" width="1" height="1" fill="#717ebe"/>
<rect x="7" y="19" width="1" height="1" fill="#7985c0"/>
<rect x="8" y="19" width="1" height="1" fill="#7b86c2"/>
<rect x="9" y="19" width="1" height="1" fill="#838dc6"/>
<rect x="10" y="19" width="1" height="1" fill="#838ec9"/>
<rect x="11" y="19" width="1" height="1" fill="#6673be"/>
<rect x="12" y="19" width="1" height="1" fill="#4052b2" fill-opacity="0.98"/>
<rect x="13" y="19" width="1" height="1" fill="#6170bc" fill-opacity="0.878"/>
<rect x="14" y="19" width="1" height="1" fill="#7986c5" fill-opacity="0.694"/>
<rect x="15" y="19" width="1" height="1" fill="#7884c2" fill-opacity="0.686"/>
<rect x="16" y="19" width="1" height="1" fill="#4254b0" fill-opacity="0.965"/>
<rect x="17" y="19" width="1" height="1" fill="#727ebc"/>
<rect x="18" y="19" width="1" height="1" fill="#939cc9"/>
<rect x="19" y="19" width="1" height="1" fill="#949dca"/>
<rect x="20" y="19" width="1" height="1" fill="#8d96c9"/>
<rect x="21" y="19" width="1" height="1" fill="#7582c2"/>
<rect x="22" y="19" width="1" height="1" fill="#6c78bf" fill-opacity="0.812"/>
<rect x="23" y="19" width="1" height="1" fill="#97a0cf" fill-opacity="0.071"/>
</svg>