<?xml version="1.0" encoding="UTF-8" standalone="no"?>
<svg xmlns="http://www.w3.org/2000/svg" width="26" height="21" shape-rendering="crispEdges">
<rect x="15" y="0" width="1" height="1" fill="#b495a7" fill-opacity="0.212"/>
<rect x="16" y="0" width="1" height="1" fill="#ad6d9f" fill-opacity="0.51"/>
<rect x="17" y="0" width="1" height="1" fill="#b264a4" fill-opacity="0.114"/>
<rect x="14" y="1" width="1" height="1" fill="#b352b3" fill-opacity="0.075"/>
<rect x="15" y="1" width="1" height="1" fill="#a73ca7" fill-opacity="0.843"/>
<rect x="16" y="1" width="1" height="1" fill="#a328a3" fill-opacity="0.957"/>
<rect x="17" y="1" width="1" height="1" fill="#ab2bab" fill-opacity="0.753"/>
<rect x="18" y="1" width="1" height="1" fill="#ab18aa" fill-opacity="0.122"/>
<rect x="13" y="2" width="1" height="1" fill="#b259b1" fill-opacity="0.051"/>
<rect x="14" y="2" width="1" height="1" fill="#a43aa4" fill-opacity="0.875"/>
<rect x="15" y="2" width="1" height="1" fill="#aa2aa9"/>
<rect x="16" y="2" width="1" height="1" fill="#c67bc5"/>
<rect x="17" y="2" width="1" height="1" fill="#b047af" fill-opacity="0.992"/>
<rect x="18" y="2" width="1" height="1" fill="#ab2aaa" fill-opacity="0.871"/>
<rect x="19" y="2" width="1" height="1" fill="#ab18aa" fill-opacity="0.224"/>
<rect x="12" y="3" width="1" height="1" fill="#af51af" fill-opacity="0.071"/>
<rect x="13" y="3" width="1" height="1" fill="#a635a5" fill-opacity="0.831"/>
<rect x="14" y="3" width="1" height="1" fill="#a827a7"/>
<rect x="15" y="3" width="1" height="1" fill="#d28bd1"/>
<rect x="16" y="3" width="1" height="1" fill="#fefbfe"/>
<rect x="17" y="3" width="1" height="1" fill="#f9f3f9"/>
<rect x="18" y="3" width="1" height="1" fill="#bb60bb" fill-opacity="0.992"/>
<rect x="19" y="3" width="1" height="1" fill="#aa27a9" fill-opacity="0.941"/>
<rect x="20" y="3" width="1" height="1" fill="#ab21ab" fill-opacity="0.357"/>
<rect x="21" y="3" width="1" height="1" fill="#ab18aa" fill-opacity="0.008"/>
<rect x="12" y="4" width="1" height="1" fill="#ac23ab" fill-opacity="0.451"/>
<rect x="13" y="4" width="1" height="1" fill="#a81da7" fill-opacity="0.984"/>
<rect x="14" y="4" width="1" height="1" fill="#b85bb9"/>
<rect x="15" y="4" width="1" height="1" fill="#faf3fa"/>
<rect x="16" y="4" width="1" height="1" fill="#ffffff"/>
<rect x="17" y="4" width="1" height="1" fill="#ffffff"/>
<rect x="18" y="4" width="1" height="1" fill="#fdfbfd"/>
<rect x="19" y="4" width="1" height="1" fill="#c775c7" fill-opacity="0.996"/>
<rect x="20" y="4" width="1" height="1" fill="#aa24a9" fill-opacity="0.98"/>
<rect x="21" y="4" width="1" height="1" fill="#ae30ad" fill-opacity="0.514"/>
<rect x="12" y="5" width="1" height="1" fill="#ae17ad" fill-opacity="0.075"/>
<rect x="13" y="5" width="1" height="1" fill="#ab1faa" fill-opacity="0.886"/>
<rect x="14" y="5" width="1" height="1" fill="#a820a7" fill-opacity="0.996"/>
<rect x="15" y="5" width="1" height="1" fill="#e5d0e5"/>
<rect x="16" y="5" width="1" height="1" fill="#ffffff"/>
<rect x="17" y="5" width="1" height="1" fill="#ffffff"/>
<rect x="18" y="5" width="1" height="1" fill="#ffffff"/>
<rect x="19" y="5" width="1" height="1" fill="#fefdfe"/>
<rect x="20" y="5" width="1" height="1" fill="#dda3dc"/>
<rect x="21" y="5" width="1" height="1" fill="#ab28aa" fill-opacity="0.996"/>
<rect x="22" y="5" width="1" height="1" fill="#ac37ab" fill-opacity="0.698"/>
<rect x="23" y="5" width="1" height="1" fill="#a918a8" fill-opacity="0.027"/>
<rect x="5" y="6" width="1" height="1" fill="#ae18ad" fill-opacity="0.004"/>
<rect x="6" y="6" width="1" height="1" fill="#aa18aa" fill-opacity="0.008"/>
<rect x="7" y="6" width="1" height="1" fill="#a918a9" fill-opacity="0.008"/>
<rect x="8" y="6" width="1" height="1" fill="#aa18a9" fill-opacity="0.008"/>
<rect x="11" y="6" width="1" height="1" fill="#bf8bbf" fill-opacity="0.016"/>
<rect x="12" y="6" width="1" height="1" fill="#b36eb3" fill-opacity="0.502"/>
<rect x="13" y="6" width="1" height="1" fill="#a54ba5" fill-opacity="0.965"/>
<rect x="14" y="6" width="1" height="1" fill="#b12bb0" fill-opacity="0.984"/>
<rect x="15" y="6" width="1" height="1" fill="#ae25aa"/>
<rect x="16" y="6" width="1" height="1" fill="#eed8eb"/>
<rect x="17" y="6" width="1" height="1" fill="#ffffff"/>
<rect x="18" y="6" width="1" height="1" fill="#ffffff"/>
<rect x="19" y="6" width="1" height="1" fill="#ffffff"/>
<rect x="20" y="6" width="1" height="1" fill="#ffffff"/>
<rect x="21" y="6" width="1" height="1" fill="#f1dbf1"/>
<rect x="22" y="6" width="1" height="1" fill="#bc5abb" fill-opacity="0.996"/>
<rect x="23" y="6" width="1" height="1" fill="#ae3aae" fill-opacity="0.875"/>
<rect x="24" y="6" width="1" height="1" fill="#af37af" fill-opacity="0.098"/>
<rect x="3" y="7" width="1" height="1" fill="#aa18a9" fill-opacity="0.086"/>
<rect x="4" y="7" width="1" height="1" fill="#a519a4" fill-opacity="0.455"/>
<rect x="5" y="7" width="1" height="1" fill="#9c199c" fill-opacity="0.761"/>
<rect x="6" y="7" width="1" height="1" fill="#971897" fill-opacity="0.871"/>
<rect x="7" y="7" width="1" height="1" fill="#951894" fill-opacity="0.894"/>
<rect x="8" y="7" width="1" height="1" fill="#991898" fill-opacity="0.824"/>
<rect x="9" y="7" width="1" height="1" fill="#a118a0" fill-opacity="0.604"/>
<rect x="10" y="7" width="1" height="1" fill="#ad35a9" fill-opacity="0.349"/>
<rect x="11" y="7" width="1" height="1" fill="#a355a3" fill-opacity="0.867"/>
<rect x="12" y="7" width="1" height="1" fill="#d6a8d5" fill-opacity="0.992"/>
<rect x="13" y="7" width="1" height="1" fill="#f7ecf7"/>
<rect x="14" y="7" width="1" height="1" fill="#f1e1f1" fill-opacity="0.988"/>
<rect x="15" y="7" width="1" height="1" fill="#a92da7" fill-opacity="0.996"/>
<rect x="16" y="7" width="1" height="1" fill="#a21ba0"/>
<rect x="17" y="7" width="1" height="1" fill="#dca5d4"/>
<rect x="18" y="7" width="1" height="1" fill="#fcfcfd"/>
<rect x="19" y="7" width="1" height="1" fill="#ffffff"/>
<rect x="20" y="7" width="1" height="1" fill="#ffffff"/>
<rect x="21" y="7" width="1" height="1" fill="#ffffff"/>
<rect x="22" y="7" width="1" height="1" fill="#fbf5fb"/>
<rect x="23" y="7" width="1" height="1" fill="#c370c2"/>
<rect x="24" y="7" width="1" height="1" fill="#a62ca5" fill-opacity="0.925"/>
<rect x="25" y="7" width="1" height="1" fill="#a618a5" fill-opacity="0.082"/>
<rect x="0" y="8" width="1" height="1" fill="#1b1a81" fill-opacity="0.039"/>
<rect x="2" y="8" width="1" height="1" fill="#a618a2" fill-opacity="0.251"/>
<rect x="3" y="8" width="1" height="1" fill="#971896" fill-opacity="0.859"/>
<rect x="4" y="8" width="1" height="1" fill="#971996" fill-opacity="0.996"/>
<rect x="5" y="8" width="1" height="1" fill="#a21aa1"/>
<rect x="6" y="8" width="1" height="1" fill="#aa1ba9"/>
<rect x="7" y="8" width="1" height="1" fill="#b01bae"/>
<rect x="8" y="8" width="1" height="1" fill="#a71ba4"/>
<rect x="9" y="8" width="1" height="1" fill="#9b1a9a"/>
<rect x="10" y="8" width="1" height="1" fill="#8e198d" fill-opacity="0.988"/>
<rect x="11" y="8" width="1" height="1" fill="#c38cc1" fill-opacity="0.945"/>
<rect x="12" y="8" width="1" height="1" fill="#fdfcfd"/>
<rect x="13" y="8" width="1" height="1" fill="#fffeff"/>
<rect x="14" y="8" width="1" height="1" fill="#fefdff"/>
<rect x="15" y="8" width="1" height="1" fill="#eedcee"/>
<rect x="16" y="8" width="1" height="1" fill="#a628a1" fill-opacity="0.996"/>
<rect x="17" y="8" width="1" height="1" fill="#a51aa4"/>
<rect x="18" y="8" width="1" height="1" fill="#c665ba"/>
<rect x="19" y="8" width="1" height="1" fill="#fbf7fb"/>
<rect x="20" y="8" width="1" height="1" fill="#feffff"/>
<rect x="21" y="8" width="1" height="1" fill="#fdfdfe"/>
<rect x="22" y="8" width="1" height="1" fill="#fefeff"/>
<rect x="23" y="8" width="1" height="1" fill="#f7f1f8"/>
<rect x="24" y="8" width="1" height="1" fill="#8f1c8e"/>
<rect x="25" y="8" width="1" height="1" fill="#9c189b" fill-opacity="0.22"/>
<rect x="0" y="9" width="1" height="1" fill="#1b1a81" fill-opacity="0.024"/>
<rect x="1" y="9" width="1" height="1" fill="#a818a7" fill-opacity="0.176"/>
<rect x="2" y="9" width="1" height="1" fill="#951995" fill-opacity="0.906"/>
<rect x="3" y="9" width="1" height="1" fill="#ac1caa"/>
<rect x="4" y="9" width="1" height="1" fill="#ba22b9"/>
<rect x="5" y="9" width="1" height="1" fill="#c329c2"/>
<rect x="6" y="9" width="1" height="1" fill="#ce38ce"/>
<rect x="7" y="9" width="1" height="1" fill="#d63fd6"/>
<rect x="8" y="9" width="1" height="1" fill="#d62fd6"/>
<rect x="9" y="9" width="1" height="1" fill="#c723c7"/>
<rect x="10" y="9" width="1" height="1" fill="#ab1caa"/>
<rect x="11" y="9" width="1" height="1" fill="#b12aad" fill-opacity="0.988"/>
<rect x="12" y="9" width="1" height="1" fill="#eee3f0" fill-opacity="0.961"/>
<rect x="13" y="9" width="1" height="1" fill="#fffeff"/>
<rect x="14" y="9" width="1" height="1" fill="#f5f3f6"/>
<rect x="15" y="9" width="1" height="1" fill="#e0c3dd" fill-opacity="0.98"/>
<rect x="16" y="9" width="1" height="1" fill="#bd3daf" fill-opacity="0.996"/>
<rect x="17" y="9" width="1" height="1" fill="#a821a6"/>
<rect x="18" y="9" width="1" height="1" fill="#a41ca2"/>
<rect x="19" y="9" width="1" height="1" fill="#b23ab0"/>
<rect x="20" y="9" width="1" height="1" fill="#f4e2f2"/>
<rect x="21" y="9" width="1" height="1" fill="#fefefe"/>
<rect x="22" y="9" width="1" height="1" fill="#fafbfd"/>
<rect x="23" y="9" width="1" height="1" fill="#ae59ae"/>
<rect x="24" y="9" width="1" height="1" fill="#9d319d" fill-opacity="0.91"/>
<rect x="25" y="9" width="1" height="1" fill="#9b189a" fill-opacity="0.055"/>
<rect x="1" y="10" width="1" height="1" fill="#9e189d" fill-opacity="0.675"/>
<rect x="2" y="10" width="1" height="1" fill="#a01b9f"/>
<rect x="3" y="10" width="1" height="1" fill="#b523b4"/>
<rect x="4" y="10" width="1" height="1" fill="#c639c5"/>
<rect x="5" y="10" width="1" height="1" fill="#df54df"/>
<rect x="6" y="10" width="1" height="1" fill="#f073f0"/>
<rect x="7" y="10" width="1" height="1" fill="#f57bf5"/>
<rect x="8" y="10" width="1" height="1" fill="#f26ef2"/>
<rect x="9" y="10" width="1" height="1" fill="#ee4cee"/>
<rect x="10" y="10" width="1" height="1" fill="#df37df"/>
<rect x="11" y="10" width="1" height="1" fill="#b122b1"/>
<rect x="12" y="10" width="1" height="1" fill="#bd34b8" fill-opacity="0.973"/>
<rect x="13" y="10" width="1" height="1" fill="#e3cee3" fill-opacity="0.965"/>
<rect x="14" y="10" width="1" height="1" fill="#e0b8dc" fill-opacity="0.922"/>
<rect x="15" y="10" width="1" height="1" fill="#ca1ec4"/>
<rect x="16" y="10" width="1" height="1" fill="#bf1ebe"/>
<rect x="17" y="10" width="1" height="1" fill="#b023ad"/>
<rect x="18" y="10" width="1" height="1" fill="#ae22ab"/>
<rect x="19" y="10" width="1" height="1" fill="#a321a1"/>
<rect x="20" y="10" width="1" height="1" fill="#a320a1"/>
<rect x="21" y="10" width="1" height="1" fill="#de92d8"/>
<rect x="22" y="10" width="1" height="1" fill="#d198ce"/>
<rect x="23" y="10" width="1" height="1" fill="#972897" fill-opacity="0.98"/>
<rect x="24" y="10" width="1" height="1" fill="#b370b5" fill-opacity="0.196"/>
<rect x="1" y="11" width="1" height="1" fill="#901890" fill-opacity="0.949"/>
<rect x="2" y="11" width="1" height="1" fill="#971a96"/>
<rect x="3" y="11" width="1" height="1" fill="#bb2ebb"/>
<rect x="4" y="11" width="1" height="1" fill="#d249d1"/>
<rect x="5" y="11" width="1" height="1" fill="#f584f5"/>
<rect x="6" y="11" width="1" height="1" fill="#f789f7"/>
<rect x="7" y="11" width="1" height="1" fill="#f788f7"/>
<rect x="8" y="11" width="1" height="1" fill="#f784f7"/>
<rect x="9" y="11" width="1" height="1" fill="#f96cf9"/>
<rect x="10" y="11" width="1" height="1" fill="#f85bf8"/>
<rect x="11" y="11" width="1" height="1" fill="#ea49ea"/>
<rect x="12" y="11" width="1" height="1" fill="#c32dc3"/>
<rect x="13" y="11" width="1" height="1" fill="#b425b1"/>
<rect x="14" y="11" width="1" height="1" fill="#b725b2" fill-opacity="0.992"/>
<rect x="15" y="11" width="1" height="1" fill="#c219c2"/>
<rect x="16" y="11" width="1" height="1" fill="#d719d7"/>
<rect x="17" y="11" width="1" height="1" fill="#d425d2"/>
<rect x="18" y="11" width="1" height="1" fill="#d338d1"/>
<rect x="19" y="11" width="1" height="1" fill="#c430c1"/>
<rect x="20" y="11" width="1" height="1" fill="#a721a5"/>
<rect x="21" y="11" width="1" height="1" fill="#a01d9d"/>
<rect x="22" y="11" width="1" height="1" fill="#9d1a9a"/>
<rect x="23" y="11" width="1" height="1" fill="#a2269c" fill-opacity="0.655"/>
<rect x="1" y="12" width="1" height="1" fill="#8a1889" fill-opacity="0.996"/>
<rect x="2" y="12" width="1" height="1" fill="#941b93"/>
<rect x="3" y="12" width="1" height="1" fill="#be31bd"/>
<rect x="4" y="12" width="1" height="1" fill="#d347d3"/>
<rect x="5" y="12" width="1" height="1" fill="#f685f6"/>
<rect x="6" y="12" width="1" height="1" fill="#f788f7"/>
<rect x="7" y="12" width="1" height="1" fill="#f788f7"/>
<rect x="8" y="12" width="1" height="1" fill="#f873f8"/>
<rect x="9" y="12" width="1" height="1" fill="#f86ff8"/>
<rect x="10" y="12" width="1" height="1" fill="#f868f8"/>
<rect x="11" y="12" width="1" height="1" fill="#f75ff7"/>
<rect x="12" y="12" width="1" height="1" fill="#f150f1"/>
<rect x="13" y="12" width="1" height="1" fill="#de33de"/>
<rect x="14" y="12" width="1" height="1" fill="#c225c1"/>
<rect x="15" y="12" width="1" height="1" fill="#d728d6"/>
<rect x="16" y="12" width="1" height="1" fill="#ed4eec"/>
<rect x="17" y="12" width="1" height="1" fill="#f278f3"/>
<rect x="18" y="12" width="1" height="1" fill="#f36af3"/>
<rect x="19" y="12" width="1" height="1" fill="#ed54ed"/>
<rect x="20" y="12" width="1" height="1" fill="#ce37ce"/>
<rect x="21" y="12" width="1" height="1" fill="#a71ca5"/>
<rect x="22" y="12" width="1" height="1" fill="#a219a1"/>
<rect x="23" y="12" width="1" height="1" fill="#9b189b" fill-opacity="0.733"/>
<rect x="1" y="13" width="1" height="1" fill="#891888" fill-opacity="0.996"/>
<rect x="2" y="13" width="1" height="1" fill="#911990"/>
<rect x="3" y="13" width="1" height="1" fill="#b629b5"/>
<rect x="4" y="13" width="1" height="1" fill="#c93cc9"/>
<rect x="5" y="13" width="1" height="1" fill="#e86be8"/>
<rect x="6" y="13" width="1" height="1" fill="#f583f5"/>
<rect x="7" y="13" width="1" height="1" fill="#f57af5"/>
<rect x="8" y="13" width="1" height="1" fill="#f670f6"/>
<rect x="9" y="13" width="1" height="1" fill="#f771f7"/>
<rect x="10" y="13" width="1" height="1" fill="#f86df8"/>
<rect x="11" y="13" width="1" height="1" fill="#f864f8"/>
<rect x="12" y="13" width="1" height="1" fill="#f75ef7"/>
<rect x="13" y="13" width="1" height="1" fill="#f85af8"/>
<rect x="14" y="13" width="1" height="1" fill="#f857f8"/>
<rect x="15" y="13" width="1" height="1" fill="#f670f6"/>
<rect x="16" y="13" width="1" height="1" fill="#f687f6"/>
<rect x="17" y="13" width="1" height="1" fill="#f789f7"/>
<rect x="18" y="13" width="1" height="1" fill="#f680f6"/>
<rect x="19" y="13" width="1" height="1" fill="#f159f1"/>
<rect x="20" y="13" width="1" height="1" fill="#e043e0"/>
<rect x="21" y="13" width="1" height="1" fill="#b01bb0"/>
<rect x="22" y="13" width="1" height="1" fill="#a719a5"/>
<rect x="23" y="13" width="1" height="1" fill="#961894" fill-opacity="0.835"/>
<rect x="0" y="14" width="1" height="1" fill="#bd87bd" fill-opacity="0.106"/>
<rect x="1" y="14" width="1" height="1" fill="#911d90" fill-opacity="0.953"/>
<rect x="2" y="14" width="1" height="1" fill="#931992"/>
<rect x="3" y="14" width="1" height="1" fill="#9a1c99"/>
<rect x="4" y="14" width="1" height="1" fill="#b52ab4"/>
<rect x="5" y="14" width="1" height="1" fill="#cb3dcb"/>
<rect x="6" y="14" width="1" height="1" fill="#db4ddb"/>
<rect x="7" y="14" width="1" height="1" fill="#e455e3"/>
<rect x="8" y="14" width="1" height="1" fill="#ee5ced"/>
<rect x="9" y="14" width="1" height="1" fill="#f25ff2"/>
<rect x="10" y="14" width="1" height="1" fill="#f35df3"/>
<rect x="11" y="14" width="1" height="1" fill="#f659f6"/>
<rect x="12" y="14" width="1" height="1" fill="#f556f5"/>
<rect x="13" y="14" width="1" height="1" fill="#f158f1"/>
<rect x="14" y="14" width="1" height="1" fill="#f359f3"/>
<rect x="15" y="14" width="1" height="1" fill="#f75cf7"/>
<rect x="16" y="14" width="1" height="1" fill="#f453f4"/>
<rect x="17" y="14" width="1" height="1" fill="#ef4aef"/>
<rect x="18" y="14" width="1" height="1" fill="#ee4fee"/>
<rect x="19" y="14" width="1" height="1" fill="#e84ee8"/>
<rect x="20" y="14" width="1" height="1" fill="#d02ed0"/>
<rect x="21" y="14" width="1" height="1" fill="#b519b4"/>
<rect x="22" y="14" width="1" height="1" fill="#a719a7"/>
<rect x="23" y="14" width="1" height="1" fill="#951994" fill-opacity="0.851"/>
<rect x="0" y="15" width="1" height="1" fill="#b67bb5" fill-opacity="0.373"/>
<rect x="1" y="15" width="1" height="1" fill="#923990" fill-opacity="0.965"/>
<rect x="2" y="15" width="1" height="1" fill="#b846b0" fill-opacity="0.918"/>
<rect x="3" y="15" width="1" height="1" fill="#9d1c9b"/>
<rect x="4" y="15" width="1" height="1" fill="#a21ea1"/>
<rect x="5" y="15" width="1" height="1" fill="#ae22ac"/>
<rect x="6" y="15" width="1" height="1" fill="#b527b4"/>
<rect x="7" y="15" width="1" height="1" fill="#bb2db9"/>
<rect x="8" y="15" width="1" height="1" fill="#be2ebb"/>
<rect x="9" y="15" width="1" height="1" fill="#be2cbd"/>
<rect x="10" y="15" width="1" height="1" fill="#be2abb"/>
<rect x="11" y="15" width="1" height="1" fill="#b627b4"/>
<rect x="12" y="15" width="1" height="1" fill="#b527b3"/>
<rect x="13" y="15" width="1" height="1" fill="#b028ac"/>
<rect x="14" y="15" width="1" height="1" fill="#af29ab"/>
<rect x="15" y="15" width="1" height="1" fill="#bb31b7"/>
<rect x="16" y="15" width="1" height="1" fill="#bd2dba"/>
<rect x="17" y="15" width="1" height="1" fill="#b726b4"/>
<rect x="18" y="15" width="1" height="1" fill="#b126ae"/>
<rect x="19" y="15" width="1" height="1" fill="#b123ae"/>
<rect x="20" y="15" width="1" height="1" fill="#ae19ae"/>
<rect x="21" y="15" width="1" height="1" fill="#af19ae"/>
<rect x="22" y="15" width="1" height="1" fill="#991899"/>
<rect x="23" y="15" width="1" height="1" fill="#a318a2" fill-opacity="0.533"/>
<rect x="0" y="16" width="1" height="1" fill="#b275b2" fill-opacity="0.518"/>
<rect x="1" y="16" width="1" height="1" fill="#9e57a0"/>
<rect x="2" y="16" width="1" height="1" fill="#daccdd" fill-opacity="0.988"/>
<rect x="3" y="16" width="1" height="1" fill="#f2e4f0" fill-opacity="0.976"/>
<rect x="4" y="16" width="1" height="1" fill="#fbf8fb" fill-opacity="0.996"/>
<rect x="5" y="16" width="1" height="1" fill="#faf7fb"/>
<rect x="6" y="16" width="1" height="1" fill="#f9f3fa"/>
<rect x="7" y="16" width="1" height="1" fill="#f8f0f9"/>
<rect x="8" y="16" width="1" height="1" fill="#f7ecf7"/>
<rect x="9" y="16" width="1" height="1" fill="#f6eaf7"/>
<rect x="10" y="16" width="1" height="1" fill="#f8f0f8"/>
<rect x="11" y="16" width="1" height="1" fill="#f7ecf7"/>
<rect x="12" y="16" width="1" height="1" fill="#f7eef8"/>
<rect x="13" y="16" width="1" height="1" fill="#f9f2fa"/>
<rect x="14" y="16" width="1" height="1" fill="#f8f1f9"/>
<rect x="15" y="16" width="1" height="1" fill="#f7edf7"/>
<rect x="16" y="16" width="1" height="1" fill="#f9f4fa"/>
<rect x="17" y="16" width="1" height="1" fill="#f8f2f9"/>
<rect x="18" y="16" width="1" height="1" fill="#f7ecf6"/>
<rect x="19" y="16" width="1" height="1" fill="#f6eaf6" fill-opacity="0.996"/>
<rect x="20" y="16" width="1" height="1" fill="#ecc9e9" fill-opacity="0.969"/>
<rect x="21" y="16" width="1" height="1" fill="#ca86bf" fill-opacity="0.941"/>
<rect x="22" y="16" width="1" height="1" fill="#993896" fill-opacity="0.906"/>
<rect x="23" y="16" width="1" height="1" fill="#b457b1" fill-opacity="0.137"/>
<rect x="0" y="17" width="1" height="1" fill="#b275b2" fill-opacity="0.514"/>
<rect x="1" y="17" width="1" height="1" fill="#9d549d"/>
<rect x="2" y="17" width="1" height="1" fill="#e5e5e7"/>
<rect x="3" y="17" width="1" height="1" fill="#fbfafd"/>
<rect x="4" y="17" width="1" height="1" fill="#fcfcfd"/>
<rect x="5" y="17" width="1" height="1" fill="#fcfcfd"/>
<rect x="6" y="17" width="1" height="1" fill="#fcfcfd"/>
<rect x="7" y="17" width="1" height="1" fill="#fcfcfd"/>
<rect x="8" y="17" width="1" height="1" fill="#fcfcfd"/>
<rect x="9" y="17" width="1" height="1" fill="#fcfcfd"/>
<rect x="10" y="17" width="1" height="1" fill="#fcfcfd"/>
<rect x="11" y="17" width="1" height="1" fill="#fcfcfd"/>
<rect x="12" y="17" width="1" height="1" fill="#fcfcfd"/>
<rect x="13" y="17" width="1" height="1" fill="#fcfcfd"/>
<rect x="14" y="17" width="1" height="1" fill="#fcfcfd"/>
<rect x="15" y="17" width="1" height="1" fill="#fcfcfd"/>
<rect x="16" y="17" width="1" height="1" fill="#fcfcfd"/>
<rect x="17" y="17" width="1" height="1" fill="#fcfcfd"/>
<rect x="18" y="17" width="1" height="1" fill="#fcfcfd"/>
<rect x="19" y="17" width="1" height="1" fill="#fcfbfd"/>
<rect x="20" y="17" width="1" height="1" fill="#fcfafc"/>
<rect x="21" y="17" width="1" height="1" fill="#f5eef6"/>
<rect x="22" y="17" width="1" height="1" fill="#923992" fill-opacity="0.969"/>
<rect x="23" y="17" width="1" height="1" fill="#ba85bc" fill-opacity="0.149"/>
<rect x="0" y="18" width="1" height="1" fill="#ba82ba" fill-opacity="0.255"/>
<rect x="1" y="18" width="1" height="1" fill="#903790" fill-opacity="0.969"/>
<rect x="2" y="18" width="1" height="1" fill="#be96bf"/>
<rect x="3" y="18" width="1" height="1" fill="#e3d7e4"/>
<rect x="4" y="18" width="1" height="1" fill="#f6f4f7"/>
<rect x="5" y="18" width="1" height="1" fill="#fbfbfc"/>
<rect x="6" y="18" width="1" height="1" fill="#fcfcfd"/>
<rect x="7" y="18" width="1" height="1" fill="#fdfcfe"/>
<rect x="8" y="18" width="1" height="1" fill="#fdfafd"/>
<rect x="9" y="18" width="1" height="1" fill="#fdfbfd"/>
<rect x="10" y="18" width="1" height="1" fill="#fdfbfd"/>
<rect x="11" y="18" width="1" height="1" fill="#fdfcfd"/>
<rect x="12" y="18" width="1" height="1" fill="#f0e4f1"/>
<rect x="13" y="18" width="1" height="1" fill="#d3b0d4"/>
<rect x="14" y="18" width="1" height="1" fill="#ba82ba"/>
<rect x="15" y="18" width="1" height="1" fill="#bb84bb"/>
<rect x="16" y="18" width="1" height="1" fill="#e4d3e5"/>
<rect x="17" y="18" width="1" height="1" fill="#fefeff"/>
<rect x="18" y="18" width="1" height="1" fill="#fefdfe"/>
<rect x="19" y="18" width="1" height="1" fill="#fefcfe"/>
<rect x="20" y="18" width="1" height="1" fill="#fdfbfe"/>
<rect x="21" y="18" width="1" height="1" fill="#e2cde3"/>
<rect x="22" y="18" width="1" height="1" fill="#964297" fill-opacity="0.941"/>
<rect x="23" y="18" width="1" height="1" fill="#b983ba" fill-opacity="0.137"/>
<rect x="0" y="19" width="1" height="1" fill="#bf8bbf" fill-opacity="0.016"/>
<rect x="1" y="19" width="1" height="1" fill="#b77eb8" fill-opacity="0.322"/>
<rect x="2" y="19" width="1" height="1" fill="#9f55a0" fill-opacity="0.851"/>
<rect x="3" y="19" width="1" height="1" fill="#8b2d8b" fill-opacity="0.984"/>
<rect x="4" y="19" width="1" height="1" fill="#964597" fill-opacity="0.996"/>
<rect x="5" y="19" width="1" height="1" fill="#a057a0"/>
<rect x="6" y="19" width="1" height="1" fill="#a662a6"/>
<rect x="7" y="19" width="1" height="1" fill="#aa69aa"/>
<rect x="8" y="19" width="1" height="1" fill="#ab6bac"/>
<rect x="9" y="19" width="1" height="1" fill="#b073b1"/>
<rect x="10" y="19" width="1" height="1" fill="#b274b2"/>
<rect x="11" y="19" width="1" height="1" fill="#a357a3"/>
<rect x="12" y="19" width="1" height="1" fill="#903690" fill-opacity="0.98"/>
<rect x="13" y="19" width="1" height="1" fill="#a154a1" fill-opacity="0.878"/>
<rect x="14" y="19" width="1" height="1" fill="#ad6aad" fill-opacity="0.694"/>
<rect x="15" y="19" width="1" height="1" fill="#ac69ac" fill-opacity="0.686"/>
<rect x="16" y="19" width="1" height="1" fill="#903890" fill-opacity="0.965"/>
<rect x="17" y="19" width="1" height="1" fill="#a663a7"/>
<rect x="18" y="19" width="1" height="1" fill="#b884b9"/>
<rect x="19" y="19" width="1" height="1" fill="#bf90c0"/>
<rect x="20" y="19" width="1" height="1" fill="#ba85ba"/>
<rect x="21" y="19" width="1" height="1" fill="#aa66aa"/>
<rect x="22" y="19" width="1" height="1" fill="#a55da5" fill-opacity="0.812"/>
<rect x="23" y="19" width="1" height="1" fill="#bc88bd" fill-opacity="0.071"/>
</svg>