<?xml version="1.0" encoding="UTF-8" standalone="no"?>
<svg xmlns="http://www.w3.org/2000/svg" width="26" height="21" shape-rendering="crispEdges">
<rect x="21" y="0" width="1" height="1" fill="#ab1d0a" fill-opacity="0.012"/>
<rect x="22" y="0" width="1" height="1" fill="#ac2413" fill-opacity="0.388"/>
<rect x="23" y="0" width="1" height="1" fill="#ae2a19" fill-opacity="0.722"/>
<rect x="24" y="0" width="1" height="1" fill="#ab2211" fill-opacity="0.965"/>
<rect x="19" y="1" width="1" height="1" fill="#a91a08" fill-opacity="0.835"/>
<rect x="20" y="1" width="1" height="1" fill="#a81a08"/>
<rect x="21" y="1" width="1" height="1" fill="#ae2b1a"/>
<rect x="22" y="1" width="1" height="1" fill="#bd5143"/>
<rect x="23" y="1" width="1" height="1" fill="#c46458"/>
<rect x="24" y="1" width="1" height="1" fill="#aa2b1b"/>
<rect x="12" y="2" width="1" height="1" fill="#aa1b08" fill-opacity="0.157"/>
<rect x="13" y="2" width="1" height="1" fill="#aa1b08"/>
<rect x="14" y="2" width="1" height="1" fill="#a81a08"/>
<rect x="15" y="2" width="1" height="1" fill="#a91c0a"/>
<rect x="16" y="2" width="1" height="1" fill="#aa1f0d"/>
<rect x="17" y="2" width="1" height="1" fill="#aa1c0a"/>
<rect x="18" y="2" width="1" height="1" fill="#a81a08"/>
<rect x="19" y="2" width="1" height="1" fill="#e4655f"/>
<rect x="20" y="2" width="1" height="1" fill="#f6e5e3"/>
<rect x="21" y="2" width="1" height="1" fill="#f7efed"/>
<rect x="22" y="2" width="1" height="1" fill="#f5ecea"/>
<rect x="23" y="2" width="1" height="1" fill="#ebd4d2"/>
<rect x="24" y="2" width="1" height="1" fill="#9a2415" fill-opacity="0.953"/>
<rect x="12" y="3" width="1" height="1" fill="#aa1b08" fill-opacity="0.306"/>
<rect x="13" y="3" width="1" height="1" fill="#aa1b08"/>
<rect x="14" y="3" width="1" height="1" fill="#f3e3e0"/>
<rect x="15" y="3" width="1" height="1" fill="#f7f2f0"/>
<rect x="16" y="3" width="1" height="1" fill="#f8f1f0"/>
<rect x="17" y="3" width="1" height="1" fill="#f6eeec"/>
<rect x="18" y="3" width="1" height="1" fill="#f7f3f1"/>
<rect x="19" y="3" width="1" height="1" fill="#f6e8e6"/>
<rect x="20" y="3" width="1" height="1" fill="#f6e5e3"/>
<rect x="21" y="3" width="1" height="1" fill="#f6e8e6"/>
<rect x="22" y="3" width="1" height="1" fill="#f5e9e7"/>
<rect x="23" y="3" width="1" height="1" fill="#a93425"/>
<rect x="24" y="3" width="1" height="1" fill="#921809" fill-opacity="0.922"/>
<rect x="5" y="4" width="1" height="1" fill="#ab1d0a" fill-opacity="0.055"/>
<rect x="6" y="4" width="1" height="1" fill="#ab1d0a" fill-opacity="0.078"/>
<rect x="13" y="4" width="1" height="1" fill="#aa1b0a" fill-opacity="0.973"/>
<rect x="14" y="4" width="1" height="1" fill="#ead6d3"/>
<rect x="15" y="4" width="1" height="1" fill="#f7f2f0"/>
<rect x="16" y="4" width="1" height="1" fill="#f7f2f0"/>
<rect x="17" y="4" width="1" height="1" fill="#f7f1ef"/>
<rect x="18" y="4" width="1" height="1" fill="#f7f1ef"/>
<rect x="19" y="4" width="1" height="1" fill="#f7f1ef"/>
<rect x="20" y="4" width="1" height="1" fill="#f7eeec"/>
<rect x="21" y="4" width="1" height="1" fill="#f2cfcc"/>
<rect x="22" y="4" width="1" height="1" fill="#b94435"/>
<rect x="23" y="4" width="1" height="1" fill="#ae2210" fill-opacity="0.561"/>
<rect x="24" y="4" width="1" height="1" fill="#a61b0a" fill-opacity="0.027"/>
<rect x="3" y="5" width="1" height="1" fill="#ae1b09" fill-opacity="0.286"/>
<rect x="4" y="5" width="1" height="1" fill="#a91a08"/>
<rect x="5" y="5" width="1" height="1" fill="#aa1a08"/>
<rect x="6" y="5" width="1" height="1" fill="#aa1a08"/>
<rect x="7" y="5" width="1" height="1" fill="#aa1a08"/>
<rect x="8" y="5" width="1" height="1" fill="#ad1b09" fill-opacity="0.914"/>
<rect x="9" y="5" width="1" height="1" fill="#aa1a08" fill-opacity="0.047"/>
<rect x="11" y="5" width="1" height="1" fill="#aa1b08" fill-opacity="0.992"/>
<rect x="12" y="5" width="1" height="1" fill="#aa1b08" fill-opacity="0.996"/>
<rect x="13" y="5" width="1" height="1" fill="#a21a08" fill-opacity="0.243"/>
<rect x="14" y="5" width="1" height="1" fill="#a92010"/>
<rect x="15" y="5" width="1" height="1" fill="#ecd2cf"/>
<rect x="16" y="5" width="1" height="1" fill="#f7f2f0"/>
<rect x="17" y="5" width="1" height="1" fill="#f8f2f1"/>
<rect x="18" y="5" width="1" height="1" fill="#f7f2f0"/>
<rect x="19" y="5" width="1" height="1" fill="#f7edeb"/>
<rect x="20" y="5" width="1" height="1" fill="#eb9791" fill-opacity="0.996"/>
<rect x="21" y="5" width="1" height="1" fill="#be3f30"/>
<rect x="22" y="5" width="1" height="1" fill="#b82c1c" fill-opacity="0.533"/>
<rect x="23" y="5" width="1" height="1" fill="#b72b1a" fill-opacity="0.016"/>
<rect x="2" y="6" width="1" height="1" fill="#b01b09" fill-opacity="0.616"/>
<rect x="3" y="6" width="1" height="1" fill="#aa1b08"/>
<rect x="4" y="6" width="1" height="1" fill="#bc1707"/>
<rect x="5" y="6" width="1" height="1" fill="#ce1406"/>
<rect x="6" y="6" width="1" height="1" fill="#d61206"/>
<rect x="7" y="6" width="1" height="1" fill="#de1206"/>
<rect x="8" y="6" width="1" height="1" fill="#b51908"/>
<rect x="9" y="6" width="1" height="1" fill="#ab1b09" fill-opacity="0.988"/>
<rect x="10" y="6" width="1" height="1" fill="#aa1b08" fill-opacity="0.063"/>
<rect x="11" y="6" width="1" height="1" fill="#aa1a08"/>
<rect x="12" y="6" width="1" height="1" fill="#ae1a08"/>
<rect x="13" y="6" width="1" height="1" fill="#ad1a08"/>
<rect x="14" y="6" width="1" height="1" fill="#b62617"/>
<rect x="15" y="6" width="1" height="1" fill="#ba3b2d"/>
<rect x="16" y="6" width="1" height="1" fill="#f6edeb"/>
<rect x="17" y="6" width="1" height="1" fill="#f7f1ef"/>
<rect x="18" y="6" width="1" height="1" fill="#faf8f7"/>
<rect x="19" y="6" width="1" height="1" fill="#f9f5f3"/>
<rect x="20" y="6" width="1" height="1" fill="#f8f0ed"/>
<rect x="21" y="6" width="1" height="1" fill="#bf392a" fill-opacity="0.996"/>
<rect x="22" y="6" width="1" height="1" fill="#b01f0d" fill-opacity="0.765"/>
<rect x="23" y="6" width="1" height="1" fill="#ab1d0a" fill-opacity="0.016"/>
<rect x="1" y="7" width="1" height="1" fill="#ab1d0a" fill-opacity="0.031"/>
<rect x="2" y="7" width="1" height="1" fill="#a91a08"/>
<rect x="3" y="7" width="1" height="1" fill="#b81807"/>
<rect x="4" y="7" width="1" height="1" fill="#c81506"/>
<rect x="5" y="7" width="1" height="1" fill="#e52219"/>
<rect x="6" y="7" width="1" height="1" fill="#fa4b3f"/>
<rect x="7" y="7" width="1" height="1" fill="#f23126"/>
<rect x="8" y="7" width="1" height="1" fill="#de1105"/>
<rect x="9" y="7" width="1" height="1" fill="#ab1a08"/>
<rect x="10" y="7" width="1" height="1" fill="#ab1c09" fill-opacity="0.525"/>
<rect x="11" y="7" width="1" height="1" fill="#aa1a08"/>
<rect x="12" y="7" width="1" height="1" fill="#b11908"/>
<rect x="13" y="7" width="1" height="1" fill="#b12615"/>
<rect x="14" y="7" width="1" height="1" fill="#ad2110"/>
<rect x="15" y="7" width="1" height="1" fill="#edd3cf"/>
<rect x="16" y="7" width="1" height="1" fill="#f8f2f0"/>
<rect x="17" y="7" width="1" height="1" fill="#f8f2f0"/>
<rect x="18" y="7" width="1" height="1" fill="#f8f4f2"/>
<rect x="19" y="7" width="1" height="1" fill="#f9f6f4"/>
<rect x="20" y="7" width="1" height="1" fill="#f9f6f4"/>
<rect x="21" y="7" width="1" height="1" fill="#f9e7e5"/>
<rect x="22" y="7" width="1" height="1" fill="#bb2717"/>
<rect x="23" y="7" width="1" height="1" fill="#af1f0d" fill-opacity="0.863"/>
<rect x="24" y="7" width="1" height="1" fill="#ab1d0a" fill-opacity="0.008"/>
<rect x="1" y="8" width="1" height="1" fill="#b01b09" fill-opacity="0.58"/>
<rect x="2" y="8" width="1" height="1" fill="#ad1a09"/>
<rect x="3" y="8" width="1" height="1" fill="#b81807"/>
<rect x="4" y="8" width="1" height="1" fill="#d11306"/>
<rect x="5" y="8" width="1" height="1" fill="#fd5447"/>
<rect x="6" y="8" width="1" height="1" fill="#fe584a"/>
<rect x="7" y="8" width="1" height="1" fill="#f9382d"/>
<rect x="8" y="8" width="1" height="1" fill="#ed1006"/>
<rect x="9" y="8" width="1" height="1" fill="#d01406"/>
<rect x="10" y="8" width="1" height="1" fill="#a91a08" fill-opacity="0.996"/>
<rect x="11" y="8" width="1" height="1" fill="#b11908"/>
<rect x="12" y="8" width="1" height="1" fill="#ba3122"/>
<rect x="13" y="8" width="1" height="1" fill="#f1e1dd"/>
<rect x="14" y="8" width="1" height="1" fill="#f8f2f0"/>
<rect x="15" y="8" width="1" height="1" fill="#f8f2f0"/>
<rect x="16" y="8" width="1" height="1" fill="#f8f2f0"/>
<rect x="17" y="8" width="1" height="1" fill="#f9f3f1"/>
<rect x="18" y="8" width="1" height="1" fill="#f9f4f3"/>
<rect x="19" y="8" width="1" height="1" fill="#f8f1ef"/>
<rect x="20" y="8" width="1" height="1" fill="#f9f5f4"/>
<rect x="21" y="8" width="1" height="1" fill="#faf7f6"/>
<rect x="22" y="8" width="1" height="1" fill="#c04939"/>
<rect x="23" y="8" width="1" height="1" fill="#ad1c0a"/>
<rect x="24" y="8" width="1" height="1" fill="#ae1c0b" fill-opacity="0.929"/>
<rect x="0" y="9" width="1" height="1" fill="#ae1c0a" fill-opacity="0.306"/>
<rect x="1" y="9" width="1" height="1" fill="#ac1d0b" fill-opacity="0.996"/>
<rect x="2" y="9" width="1" height="1" fill="#b81e0d"/>
<rect x="3" y="9" width="1" height="1" fill="#b21a0a"/>
<rect x="4" y="9" width="1" height="1" fill="#cc1507"/>
<rect x="5" y="9" width="1" height="1" fill="#f6372c"/>
<rect x="6" y="9" width="1" height="1" fill="#f32e24"/>
<rect x="7" y="9" width="1" height="1" fill="#e20f08"/>
<rect x="8" y="9" width="1" height="1" fill="#de0e06"/>
<rect x="9" y="9" width="1" height="1" fill="#ca0d06"/>
<rect x="10" y="9" width="1" height="1" fill="#ca1407"/>
<rect x="11" y="9" width="1" height="1" fill="#d0180b"/>
<rect x="12" y="9" width="1" height="1" fill="#eea7a2"/>
<rect x="13" y="9" width="1" height="1" fill="#f7f1ef"/>
<rect x="14" y="9" width="1" height="1" fill="#f5e9e6"/>
<rect x="15" y="9" width="1" height="1" fill="#db8d85"/>
<rect x="16" y="9" width="1" height="1" fill="#c84b40"/>
<rect x="17" y="9" width="1" height="1" fill="#d89188"/>
<rect x="18" y="9" width="1" height="1" fill="#f8f2f0"/>
<rect x="19" y="9" width="1" height="1" fill="#f8edec"/>
<rect x="20" y="9" width="1" height="1" fill="#b12d1c" fill-opacity="0.996"/>
<rect x="21" y="9" width="1" height="1" fill="#ad1e0b" fill-opacity="0.961"/>
<rect x="22" y="9" width="1" height="1" fill="#b12d1b" fill-opacity="0.988"/>
<rect x="23" y="9" width="1" height="1" fill="#b12d1c" fill-opacity="0.996"/>
<rect x="24" y="9" width="1" height="1" fill="#b12c1b" fill-opacity="0.937"/>
<rect x="0" y="10" width="1" height="1" fill="#ac1d0b" fill-opacity="0.976"/>
<rect x="1" y="10" width="1" height="1" fill="#bd4639"/>
<rect x="2" y="10" width="1" height="1" fill="#d18177"/>
<rect x="3" y="10" width="1" height="1" fill="#b21e0d"/>
<rect x="4" y="10" width="1" height="1" fill="#b91b0b"/>
<rect x="5" y="10" width="1" height="1" fill="#444242"/>
<rect x="6" y="10" width="1" height="1" fill="#020000"/>
<rect x="7" y="10" width="1" height="1" fill="#000000"/>
<rect x="8" y="10" width="1" height="1" fill="#000000"/>
<rect x="9" y="10" width="1" height="1" fill="#444242"/>
<rect x="10" y="10" width="1" height="1" fill="#ed150d"/>
<rect x="11" y="10" width="1" height="1" fill="#e3180f"/>
<rect x="12" y="10" width="1" height="1" fill="#efcbc7"/>
<rect x="13" y="10" width="1" height="1" fill="#f8f1ef"/>
<rect x="14" y="10" width="1" height="1" fill="#cb5f53"/>
<rect x="15" y="10" width="1" height="1" fill="#d38178"/>
<rect x="16" y="10" width="1" height="1" fill="#d6958d"/>
<rect x="17" y="10" width="1" height="1" fill="#bf4638"/>
<rect x="18" y="10" width="1" height="1" fill="#ecd2cf"/>
<rect x="19" y="10" width="1" height="1" fill="#f4e6e3"/>
<rect x="20" y="10" width="1" height="1" fill="#b33322" fill-opacity="0.973"/>
<rect x="21" y="10" width="1" height="1" fill="#aa1c09" fill-opacity="0.549"/>
<rect x="22" y="10" width="1" height="1" fill="#b12d1c" fill-opacity="0.408"/>
<rect x="23" y="10" width="1" height="1" fill="#b12d1c" fill-opacity="0.573"/>
<rect x="24" y="10" width="1" height="1" fill="#b12d1c" fill-opacity="0.29"/>
<rect x="0" y="11" width="1" height="1" fill="#af1e0c" fill-opacity="0.965"/>
<rect x="1" y="11" width="1" height="1" fill="#f2d6d3"/>
<rect x="2" y="11" width="1" height="1" fill="#f8ecea"/>
<rect x="3" y="11" width="1" height="1" fill="#d38379"/>
<rect x="4" y="11" width="1" height="1" fill="#b72111"/>
<rect x="5" y="11" width="1" height="1" fill="#ffffff"/>
<rect x="6" y="11" width="1" height="1" fill="#ffffff"/>
<rect x="7" y="11" width="1" height="1" fill="#000000"/>
<rect x="8" y="11" width="1" height="1" fill="#ffffff"/>
<rect x="9" y="11" width="1" height="1" fill="#ffffff"/>
<rect x="10" y="11" width="1" height="1" fill="#e70f06"/>
<rect x="11" y="11" width="1" height="1" fill="#d21409"/>
<rect x="12" y="11" width="1" height="1" fill="#d17369"/>
<rect x="13" y="11" width="1" height="1" fill="#f5eae8"/>
<rect x="14" y="11" width="1" height="1" fill="#de9d96"/>
<rect x="15" y="11" width="1" height="1" fill="#edd7d3"/>
<rect x="16" y="11" width="1" height="1" fill="#f7f1ef"/>
<rect x="17" y="11" width="1" height="1" fill="#cd796f"/>
<rect x="18" y="11" width="1" height="1" fill="#d58f86"/>
<rect x="19" y="11" width="1" height="1" fill="#f0dad7"/>
<rect x="20" y="11" width="1" height="1" fill="#b12f1e" fill-opacity="0.98"/>
<rect x="21" y="11" width="1" height="1" fill="#ab1b08" fill-opacity="0.255"/>
<rect x="0" y="12" width="1" height="1" fill="#bf1809" fill-opacity="0.8"/>
<rect x="1" y="12" width="1" height="1" fill="#c32a1b" fill-opacity="0.996"/>
<rect x="2" y="12" width="1" height="1" fill="#f8e8e6"/>
<rect x="3" y="12" width="1" height="1" fill="#f9ecea"/>
<rect x="4" y="12" width="1" height="1" fill="#e8b3af"/>
<rect x="5" y="12" width="1" height="1" fill="#c02b1d"/>
<rect x="6" y="12" width="1" height="1" fill="#ffffff"/>
<rect x="7" y="12" width="1" height="1" fill="#ffffff"/>
<rect x="8" y="12" width="1" height="1" fill="#ffffff"/>
<rect x="9" y="12" width="1" height="1" fill="#ed5a54"/>
<rect x="10" y="12" width="1" height="1" fill="#e70f06"/>
<rect x="11" y="12" width="1" height="1" fill="#d81408"/>
<rect x="12" y="12" width="1" height="1" fill="#b52111"/>
<rect x="13" y="12" width="1" height="1" fill="#e4b4ad"/>
<rect x="14" y="12" width="1" height="1" fill="#f4e9e5"/>
<rect x="15" y="12" width="1" height="1" fill="#f3e4e2"/>
<rect x="16" y="12" width="1" height="1" fill="#f6f1ef"/>
<rect x="17" y="12" width="1" height="1" fill="#bf5142"/>
<rect x="18" y="12" width="1" height="1" fill="#b43526"/>
<rect x="19" y="12" width="1" height="1" fill="#d08277"/>
<rect x="20" y="12" width="1" height="1" fill="#ac210f" fill-opacity="0.988"/>
<rect x="21" y="12" width="1" height="1" fill="#ac1c09" fill-opacity="0.118"/>
<rect x="0" y="13" width="1" height="1" fill="#c91507" fill-opacity="0.122"/>
<rect x="1" y="13" width="1" height="1" fill="#b81a0a" fill-opacity="0.976"/>
<rect x="2" y="13" width="1" height="1" fill="#c83b2e" fill-opacity="0.996"/>
<rect x="3" y="13" width="1" height="1" fill="#faedeb"/>
<rect x="4" y="13" width="1" height="1" fill="#faefed"/>
<rect x="5" y="13" width="1" height="1" fill="#df9d96"/>
<rect x="6" y="13" width="1" height="1" fill="#bb2818"/>
<rect x="7" y="13" width="1" height="1" fill="#e9837d"/>
<rect x="8" y="13" width="1" height="1" fill="#ec5049"/>
<rect x="9" y="13" width="1" height="1" fill="#e8130a"/>
<rect x="10" y="13" width="1" height="1" fill="#e81209"/>
<rect x="11" y="13" width="1" height="1" fill="#e61108"/>
<rect x="12" y="13" width="1" height="1" fill="#b91b0b"/>
<rect x="13" y="13" width="1" height="1" fill="#ad2010"/>
<rect x="14" y="13" width="1" height="1" fill="#b83d2f"/>
<rect x="15" y="13" width="1" height="1" fill="#b84234"/>
<rect x="16" y="13" width="1" height="1" fill="#ad2212"/>
<rect x="17" y="13" width="1" height="1" fill="#ad200e" fill-opacity="0.996"/>
<rect x="18" y="13" width="1" height="1" fill="#af200f" fill-opacity="0.976"/>
<rect x="19" y="13" width="1" height="1" fill="#ab1e0c"/>
<rect x="20" y="13" width="1" height="1" fill="#aa1b08" fill-opacity="0.996"/>
<rect x="21" y="13" width="1" height="1" fill="#aa1b08" fill-opacity="0.051"/>
<rect x="1" y="14" width="1" height="1" fill="#bc1808" fill-opacity="0.078"/>
<rect x="2" y="14" width="1" height="1" fill="#b31d0c" fill-opacity="0.988"/>
<rect x="3" y="14" width="1" height="1" fill="#dc746a"/>
<rect x="4" y="14" width="1" height="1" fill="#f9eeed"/>
<rect x="5" y="14" width="1" height="1" fill="#faefed"/>
<rect x="6" y="14" width="1" height="1" fill="#dc938a"/>
<rect x="7" y="14" width="1" height="1" fill="#df150b"/>
<rect x="8" y="14" width="1" height="1" fill="#e81209"/>
<rect x="9" y="14" width="1" height="1" fill="#e81209"/>
<rect x="10" y="14" width="1" height="1" fill="#e61208"/>
<rect x="11" y="14" width="1" height="1" fill="#e71108"/>
<rect x="12" y="14" width="1" height="1" fill="#de1208"/>
<rect x="13" y="14" width="1" height="1" fill="#b41a0b"/>
<rect x="14" y="14" width="1" height="1" fill="#ab1b0a"/>
<rect x="15" y="14" width="1" height="1" fill="#a91b09"/>
<rect x="16" y="14" width="1" height="1" fill="#ac1f0e" fill-opacity="0.867"/>
<rect x="17" y="14" width="1" height="1" fill="#b92f1f" fill-opacity="0.102"/>
<rect x="18" y="14" width="1" height="1" fill="#ae1d0a" fill-opacity="0.192"/>
<rect x="19" y="14" width="1" height="1" fill="#aa1b09" fill-opacity="0.976"/>
<rect x="20" y="14" width="1" height="1" fill="#aa1b08" fill-opacity="0.941"/>
<rect x="21" y="14" width="1" height="1" fill="#aa1b08" fill-opacity="0.035"/>
<rect x="2" y="15" width="1" height="1" fill="#ad1d0a" fill-opacity="0.165"/>
<rect x="3" y="15" width="1" height="1" fill="#af210e"/>
<rect x="4" y="15" width="1" height="1" fill="#de645c"/>
<rect x="5" y="15" width="1" height="1" fill="#f9ebe9"/>
<rect x="6" y="15" width="1" height="1" fill="#fbf2f1"/>
<rect x="7" y="15" width="1" height="1" fill="#e7b4b0"/>
<rect x="8" y="15" width="1" height="1" fill="#b52a1a"/>
<rect x="9" y="15" width="1" height="1" fill="#c11a0d"/>
<rect x="10" y="15" width="1" height="1" fill="#dd1309"/>
<rect x="11" y="15" width="1" height="1" fill="#e01308"/>
<rect x="12" y="15" width="1" height="1" fill="#dd1307"/>
<rect x="13" y="15" width="1" height="1" fill="#d21507"/>
<rect x="14" y="15" width="1" height="1" fill="#ad1b08"/>
<rect x="15" y="15" width="1" height="1" fill="#aa1c0a" fill-opacity="0.941"/>
<rect x="16" y="15" width="1" height="1" fill="#ab1b0b" fill-opacity="0.063"/>
<rect x="19" y="15" width="1" height="1" fill="#aa1b08" fill-opacity="0.565"/>
<rect x="20" y="15" width="1" height="1" fill="#aa1b08" fill-opacity="0.706"/>
<rect x="21" y="15" width="1" height="1" fill="#aa1b08" fill-opacity="0.016"/>
<rect x="3" y="16" width="1" height="1" fill="#af1e0b" fill-opacity="0.141"/>
<rect x="4" y="16" width="1" height="1" fill="#b51b0a" fill-opacity="0.996"/>
<rect x="5" y="16" width="1" height="1" fill="#c92d20" fill-opacity="0.996"/>
<rect x="6" y="16" width="1" height="1" fill="#f5dcda"/>
<rect x="7" y="16" width="1" height="1" fill="#fbf1ef"/>
<rect x="8" y="16" width="1" height="1" fill="#e9bdb7"/>
<rect x="9" y="16" width="1" height="1" fill="#b73021"/>
<rect x="10" y="16" width="1" height="1" fill="#bb1d0d"/>
<rect x="11" y="16" width="1" height="1" fill="#ca180b"/>
<rect x="12" y="16" width="1" height="1" fill="#c31809"/>
<rect x="13" y="16" width="1" height="1" fill="#b71909"/>
<rect x="14" y="16" width="1" height="1" fill="#ab1d0b" fill-opacity="0.996"/>
<rect x="15" y="16" width="1" height="1" fill="#a91c0a" fill-opacity="0.122"/>
<rect x="16" y="16" width="1" height="1" fill="#b12413" fill-opacity="0.004"/>
<rect x="4" y="17" width="1" height="1" fill="#ae1c0a" fill-opacity="0.118"/>
<rect x="5" y="17" width="1" height="1" fill="#ba1909" fill-opacity="0.973"/>
<rect x="6" y="17" width="1" height="1" fill="#c11809"/>
<rect x="7" y="17" width="1" height="1" fill="#eebcb7" fill-opacity="0.996"/>
<rect x="8" y="17" width="1" height="1" fill="#faedec"/>
<rect x="9" y="17" width="1" height="1" fill="#fbf2f0"/>
<rect x="10" y="17" width="1" height="1" fill="#d07669"/>
<rect x="11" y="17" width="1" height="1" fill="#b11f0e"/>
<rect x="12" y="17" width="1" height="1" fill="#b22110"/>
<rect x="13" y="17" width="1" height="1" fill="#ad1e0c" fill-opacity="0.996"/>
<rect x="14" y="17" width="1" height="1" fill="#ad1e0c" fill-opacity="0.098"/>
<rect x="5" y="18" width="1" height="1" fill="#c51507" fill-opacity="0.012"/>
<rect x="6" y="18" width="1" height="1" fill="#bf1808" fill-opacity="0.714"/>
<rect x="7" y="18" width="1" height="1" fill="#bf190b"/>
<rect x="8" y="18" width="1" height="1" fill="#cf6d63"/>
<rect x="9" y="18" width="1" height="1" fill="#f1d6d4"/>
<rect x="10" y="18" width="1" height="1" fill="#faf1ef"/>
<rect x="11" y="18" width="1" height="1" fill="#f5c7c5"/>
<rect x="12" y="18" width="1" height="1" fill="#aa2111"/>
<rect x="13" y="18" width="1" height="1" fill="#ac1c0a" fill-opacity="0.78"/>
<rect x="14" y="18" width="1" height="1" fill="#ac1d0b" fill-opacity="0.016"/>
<rect x="6" y="19" width="1" height="1" fill="#d11306" fill-opacity="0.004"/>
<rect x="7" y="19" width="1" height="1" fill="#c21507" fill-opacity="0.357"/>
<rect x="8" y="19" width="1" height="1" fill="#b81708" fill-opacity="0.969"/>
<rect x="9" y="19" width="1" height="1" fill="#b62819" fill-opacity="0.992"/>
<rect x="10" y="19" width="1" height="1" fill="#bd493b" fill-opacity="0.996"/>
<rect x="11" y="19" width="1" height="1" fill="#a82211"/>
<rect x="12" y="19" width="1" height="1" fill="#a81f0e" fill-opacity="0.937"/>
<rect x="13" y="19" width="1" height="1" fill="#ac1e0d" fill-opacity="0.137"/>
<rect x="14" y="19" width="1" height="1" fill="#aa1b08" fill-opacity="0.004"/>
</svg>