<?xml version="1.0" encoding="UTF-8" standalone="no"?>
<svg xmlns="http://www.w3.org/2000/svg" width="26" height="21" shape-rendering="crispEdges">
<rect x="23" y="0" width="1" height="1" fill="#c76b0f" fill-opacity="0.635"/>
<rect x="24" y="0" width="1" height="1" fill="#af5c09" fill-opacity="0.965"/>
<rect x="19" y="1" width="1" height="1" fill="#b15d07" fill-opacity="0.827"/>
<rect x="20" y="1" width="1" height="1" fill="#a35607"/>
<rect x="21" y="1" width="1" height="1" fill="#a75707"/>
<rect x="22" y="1" width="1" height="1" fill="#aa5b0b"/>
<rect x="23" y="1" width="1" height="1" fill="#e88219"/>
<rect x="24" y="1" width="1" height="1" fill="#ca6e10"/>
<rect x="13" y="2" width="1" height="1" fill="#bd6309" fill-opacity="0.961"/>
<rect x="14" y="2" width="1" height="1" fill="#a35607"/>
<rect x="15" y="2" width="1" height="1" fill="#a65707"/>
<rect x="16" y="2" width="1" height="1" fill="#a75807"/>
<rect x="17" y="2" width="1" height="1" fill="#ad5b07"/>
<rect x="18" y="2" width="1" height="1" fill="#a45707"/>
<rect x="19" y="2" width="1" height="1" fill="#fffbc4"/>
<rect x="20" y="2" width="1" height="1" fill="#ffffff"/>
<rect x="21" y="2" width="1" height="1" fill="#ffffff"/>
<rect x="22" y="2" width="1" height="1" fill="#ffffff"/>
<rect x="23" y="2" width="1" height="1" fill="#fffff8"/>
<rect x="24" y="2" width="1" height="1" fill="#c46c11" fill-opacity="0.737"/>
<rect x="13" y="3" width="1" height="1" fill="#ac5b07" fill-opacity="0.996"/>
<rect x="14" y="3" width="1" height="1" fill="#ffffff"/>
<rect x="15" y="3" width="1" height="1" fill="#ffffff"/>
<rect x="16" y="3" width="1" height="1" fill="#ffffff"/>
<rect x="17" y="3" width="1" height="1" fill="#ffffff"/>
<rect x="18" y="3" width="1" height="1" fill="#ffffff"/>
<rect x="19" y="3" width="1" height="1" fill="#ffffff"/>
<rect x="20" y="3" width="1" height="1" fill="#ffffff"/>
<rect x="21" y="3" width="1" height="1" fill="#ffffff"/>
<rect x="22" y="3" width="1" height="1" fill="#ffffff"/>
<rect x="23" y="3" width="1" height="1" fill="#d5914d" fill-opacity="0.996"/>
<rect x="24" y="3" width="1" height="1" fill="#b35e0a" fill-opacity="0.906"/>
<rect x="5" y="4" width="1" height="1" fill="#e87907" fill-opacity="0.004"/>
<rect x="6" y="4" width="1" height="1" fill="#ca6b0a" fill-opacity="0.012"/>
<rect x="13" y="4" width="1" height="1" fill="#be660a" fill-opacity="0.929"/>
<rect x="14" y="4" width="1" height="1" fill="#ffffff"/>
<rect x="15" y="4" width="1" height="1" fill="#ffffff"/>
<rect x="16" y="4" width="1" height="1" fill="#ffffff"/>
<rect x="17" y="4" width="1" height="1" fill="#ffffff"/>
<rect x="18" y="4" width="1" height="1" fill="#ffffff"/>
<rect x="19" y="4" width="1" height="1" fill="#ffffff"/>
<rect x="20" y="4" width="1" height="1" fill="#ffffff"/>
<rect x="21" y="4" width="1" height="1" fill="#fff0b8"/>
<rect x="22" y="4" width="1" height="1" fill="#b76716" fill-opacity="0.996"/>
<rect x="23" y="4" width="1" height="1" fill="#ba630b" fill-opacity="0.529"/>
<rect x="24" y="4" width="1" height="1" fill="#b8620c" fill-opacity="0.004"/>
<rect x="3" y="5" width="1" height="1" fill="#f08211" fill-opacity="0.071"/>
<rect x="4" y="5" width="1" height="1" fill="#a75807"/>
<rect x="5" y="5" width="1" height="1" fill="#af5c07"/>
<rect x="6" y="5" width="1" height="1" fill="#ac5b07"/>
<rect x="7" y="5" width="1" height="1" fill="#ad5c07"/>
<rect x="8" y="5" width="1" height="1" fill="#c06609" fill-opacity="0.847"/>
<rect x="9" y="5" width="1" height="1" fill="#ae5b09" fill-opacity="0.016"/>
<rect x="11" y="5" width="1" height="1" fill="#ba6209" fill-opacity="0.973"/>
<rect x="12" y="5" width="1" height="1" fill="#b96109" fill-opacity="0.984"/>
<rect x="13" y="5" width="1" height="1" fill="#b35d09" fill-opacity="0.094"/>
<rect x="14" y="5" width="1" height="1" fill="#ae6112"/>
<rect x="15" y="5" width="1" height="1" fill="#ffffff"/>
<rect x="16" y="5" width="1" height="1" fill="#ffffff"/>
<rect x="17" y="5" width="1" height="1" fill="#ffffff"/>
<rect x="18" y="5" width="1" height="1" fill="#ffffff"/>
<rect x="19" y="5" width="1" height="1" fill="#ffffff"/>
<rect x="20" y="5" width="1" height="1" fill="#e49646" fill-opacity="0.996"/>
<rect x="21" y="5" width="1" height="1" fill="#b3600b" fill-opacity="0.992"/>
<rect x="22" y="5" width="1" height="1" fill="#b5610a" fill-opacity="0.443"/>
<rect x="2" y="6" width="1" height="1" fill="#db770f" fill-opacity="0.388"/>
<rect x="3" y="6" width="1" height="1" fill="#b35e07"/>
<rect x="4" y="6" width="1" height="1" fill="#cf6d09"/>
<rect x="5" y="6" width="1" height="1" fill="#ca6909"/>
<rect x="6" y="6" width="1" height="1" fill="#d27009"/>
<rect x="7" y="6" width="1" height="1" fill="#ea7b09"/>
<rect x="8" y="6" width="1" height="1" fill="#c56709"/>
<rect x="9" y="6" width="1" height="1" fill="#b15c09" fill-opacity="0.98"/>
<rect x="10" y="6" width="1" height="1" fill="#d46e09" fill-opacity="0.004"/>
<rect x="11" y="6" width="1" height="1" fill="#a45607"/>
<rect x="12" y="6" width="1" height="1" fill="#aa5907"/>
<rect x="13" y="6" width="1" height="1" fill="#b25d07"/>
<rect x="14" y="6" width="1" height="1" fill="#ca690b"/>
<rect x="15" y="6" width="1" height="1" fill="#d7883b"/>
<rect x="16" y="6" width="1" height="1" fill="#ffffff"/>
<rect x="17" y="6" width="1" height="1" fill="#ffffff"/>
<rect x="18" y="6" width="1" height="1" fill="#ffffff"/>
<rect x="19" y="6" width="1" height="1" fill="#ffffff"/>
<rect x="20" y="6" width="1" height="1" fill="#f0bc87"/>
<rect x="21" y="6" width="1" height="1" fill="#c7711c" fill-opacity="0.996"/>
<rect x="22" y="6" width="1" height="1" fill="#be670c" fill-opacity="0.725"/>
<rect x="2" y="7" width="1" height="1" fill="#ae5b07"/>
<rect x="3" y="7" width="1" height="1" fill="#ba6309"/>
<rect x="4" y="7" width="1" height="1" fill="#bf6609"/>
<rect x="5" y="7" width="1" height="1" fill="#e6790b"/>
<rect x="6" y="7" width="1" height="1" fill="#ffb150"/>
<rect x="7" y="7" width="1" height="1" fill="#ffaa41"/>
<rect x="8" y="7" width="1" height="1" fill="#ff880a"/>
<rect x="9" y="7" width="1" height="1" fill="#bc6207"/>
<rect x="10" y="7" width="1" height="1" fill="#b7600a" fill-opacity="0.392"/>
<rect x="11" y="7" width="1" height="1" fill="#af5c07"/>
<rect x="12" y="7" width="1" height="1" fill="#a95807"/>
<rect x="13" y="7" width="1" height="1" fill="#b5610a"/>
<rect x="14" y="7" width="1" height="1" fill="#dba166"/>
<rect x="15" y="7" width="1" height="1" fill="#ffffff"/>
<rect x="16" y="7" width="1" height="1" fill="#ffffff"/>
<rect x="17" y="7" width="1" height="1" fill="#ffffff"/>
<rect x="18" y="7" width="1" height="1" fill="#ffffff"/>
<rect x="19" y="7" width="1" height="1" fill="#ffffff"/>
<rect x="20" y="7" width="1" height="1" fill="#ffffff"/>
<rect x="21" y="7" width="1" height="1" fill="#ffffff"/>
<rect x="22" y="7" width="1" height="1" fill="#e59846"/>
<rect x="23" y="7" width="1" height="1" fill="#c76b0b" fill-opacity="0.8"/>
<rect x="1" y="8" width="1" height="1" fill="#e67d12" fill-opacity="0.337"/>
<rect x="2" y="8" width="1" height="1" fill="#c26507"/>
<rect x="3" y="8" width="1" height="1" fill="#b55e07"/>
<rect x="4" y="8" width="1" height="1" fill="#fd8b15"/>
<rect x="5" y="8" width="1" height="1" fill="#ff9f20"/>
<rect x="6" y="8" width="1" height="1" fill="#ffcd73"/>
<rect x="7" y="8" width="1" height="1" fill="#ffcf73"/>
<rect x="8" y="8" width="1" height="1" fill="#ff9309"/>
<rect x="9" y="8" width="1" height="1" fill="#cc6b09"/>
<rect x="10" y="8" width="1" height="1" fill="#b25c09" fill-opacity="0.996"/>
<rect x="11" y="8" width="1" height="1" fill="#bc6207"/>
<rect x="12" y="8" width="1" height="1" fill="#ae5e0d"/>
<rect x="13" y="8" width="1" height="1" fill="#ffffff"/>
<rect x="14" y="8" width="1" height="1" fill="#ffffff"/>
<rect x="15" y="8" width="1" height="1" fill="#ffffff"/>
<rect x="16" y="8" width="1" height="1" fill="#ffffff"/>
<rect x="17" y="8" width="1" height="1" fill="#ffffff"/>
<rect x="18" y="8" width="1" height="1" fill="#ffffff"/>
<rect x="19" y="8" width="1" height="1" fill="#ffffff"/>
<rect x="20" y="8" width="1" height="1" fill="#ffffff"/>
<rect x="21" y="8" width="1" height="1" fill="#ffffff"/>
<rect x="22" y="8" width="1" height="1" fill="#ffffff"/>
<rect x="23" y="8" width="1" height="1" fill="#bc6309"/>
<rect x="24" y="8" width="1" height="1" fill="#bd650b" fill-opacity="0.91"/>
<rect x="0" y="9" width="1" height="1" fill="#e57c10" fill-opacity="0.094"/>
<rect x="1" y="9" width="1" height="1" fill="#af600f" fill-opacity="0.996"/>
<rect x="2" y="9" width="1" height="1" fill="#b5620c"/>
<rect x="3" y="9" width="1" height="1" fill="#b56009"/>
<rect x="4" y="9" width="1" height="1" fill="#ff9219"/>
<rect x="5" y="9" width="1" height="1" fill="#ffa21d"/>
<rect x="6" y="9" width="1" height="1" fill="#ffae25"/>
<rect x="7" y="9" width="1" height="1" fill="#ffa30a"/>
<rect x="8" y="9" width="1" height="1" fill="#ffa107"/>
<rect x="9" y="9" width="1" height="1" fill="#f47e07"/>
<rect x="10" y="9" width="1" height="1" fill="#c76809"/>
<rect x="11" y="9" width="1" height="1" fill="#c86709"/>
<rect x="12" y="9" width="1" height="1" fill="#dea369"/>
<rect x="13" y="9" width="1" height="1" fill="#ffffff"/>
<rect x="14" y="9" width="1" height="1" fill="#ffffff"/>
<rect x="15" y="9" width="1" height="1" fill="#ffaf59"/>
<rect x="16" y="9" width="1" height="1" fill="#eb9236"/>
<rect x="17" y="9" width="1" height="1" fill="#e39f59"/>
<rect x="18" y="9" width="1" height="1" fill="#ffffff"/>
<rect x="19" y="9" width="1" height="1" fill="#ffffff"/>
<rect x="20" y="9" width="1" height="1" fill="#e29f60" fill-opacity="0.984"/>
<rect x="21" y="9" width="1" height="1" fill="#cc7821" fill-opacity="0.918"/>
<rect x="22" y="9" width="1" height="1" fill="#cd843b" fill-opacity="0.933"/>
<rect x="23" y="9" width="1" height="1" fill="#af5c07" fill-opacity="0.98"/>
<rect x="24" y="9" width="1" height="1" fill="#b25d07" fill-opacity="0.902"/>
<rect x="0" y="10" width="1" height="1" fill="#be650a" fill-opacity="0.961"/>
<rect x="1" y="10" width="1" height="1" fill="#b56615"/>
<rect x="2" y="10" width="1" height="1" fill="#eab786"/>
<rect x="3" y="10" width="1" height="1" fill="#c26c12"/>
<rect x="4" y="10" width="1" height="1" fill="#d2710c"/>
<rect x="5" y="10" width="1" height="1" fill="#535151"/>
<rect x="6" y="10" width="1" height="1" fill="#010100"/>
<rect x="7" y="10" width="1" height="1" fill="#000000"/>
<rect x="8" y="10" width="1" height="1" fill="#000000"/>
<rect x="9" y="10" width="1" height="1" fill="#535151"/>
<rect x="10" y="10" width="1" height="1" fill="#ff8f07"/>
<rect x="11" y="10" width="1" height="1" fill="#ff880a"/>
<rect x="12" y="10" width="1" height="1" fill="#ffdaad"/>
<rect x="13" y="10" width="1" height="1" fill="#ffffff"/>
<rect x="14" y="10" width="1" height="1" fill="#ffc478"/>
<rect x="15" y="10" width="1" height="1" fill="#e89f55"/>
<rect x="16" y="10" width="1" height="1" fill="#ffeed0"/>
<rect x="17" y="10" width="1" height="1" fill="#c07122"/>
<rect x="18" y="10" width="1" height="1" fill="#ffffff"/>
<rect x="19" y="10" width="1" height="1" fill="#ffffff"/>
<rect x="20" y="10" width="1" height="1" fill="#e6b27b" fill-opacity="0.929"/>
<rect x="21" y="10" width="1" height="1" fill="#b3600b" fill-opacity="0.498"/>
<rect x="22" y="10" width="1" height="1" fill="#b25e09" fill-opacity="0.259"/>
<rect x="23" y="10" width="1" height="1" fill="#b25e09" fill-opacity="0.451"/>
<rect x="24" y="10" width="1" height="1" fill="#b25e09" fill-opacity="0.157"/>
<rect x="0" y="11" width="1" height="1" fill="#bd620a" fill-opacity="0.949"/>
<rect x="1" y="11" width="1" height="1" fill="#d99148"/>
<rect x="2" y="11" width="1" height="1" fill="#ffffff"/>
<rect x="3" y="11" width="1" height="1" fill="#ffffe9"/>
<rect x="4" y="11" width="1" height="1" fill="#be6810"/>
<rect x="5" y="11" width="1" height="1" fill="#ffffff"/>
<rect x="6" y="11" width="1" height="1" fill="#ffffff"/>
<rect x="7" y="11" width="1" height="1" fill="#000000"/>
<rect x="8" y="11" width="1" height="1" fill="#ffffff"/>
<rect x="9" y="11" width="1" height="1" fill="#ffffff"/>
<rect x="10" y="11" width="1" height="1" fill="#ff9a0a"/>
<rect x="11" y="11" width="1" height="1" fill="#ff9307"/>
<rect x="12" y="11" width="1" height="1" fill="#e09242"/>
<rect x="13" y="11" width="1" height="1" fill="#ffffff"/>
<rect x="14" y="11" width="1" height="1" fill="#ffffe5"/>
<rect x="15" y="11" width="1" height="1" fill="#fffff0"/>
<rect x="16" y="11" width="1" height="1" fill="#ffffff"/>
<rect x="17" y="11" width="1" height="1" fill="#fed7af"/>
<rect x="18" y="11" width="1" height="1" fill="#fffffb"/>
<rect x="19" y="11" width="1" height="1" fill="#ffffff"/>
<rect x="20" y="11" width="1" height="1" fill="#d79453" fill-opacity="0.973"/>
<rect x="21" y="11" width="1" height="1" fill="#b4600a" fill-opacity="0.165"/>
<rect x="0" y="12" width="1" height="1" fill="#c7690b" fill-opacity="0.62"/>
<rect x="1" y="12" width="1" height="1" fill="#ba6007" fill-opacity="0.996"/>
<rect x="2" y="12" width="1" height="1" fill="#ffffff"/>
<rect x="3" y="12" width="1" height="1" fill="#ffffff"/>
<rect x="4" y="12" width="1" height="1" fill="#ffd7a9"/>
<rect x="5" y="12" width="1" height="1" fill="#d3873a"/>
<rect x="6" y="12" width="1" height="1" fill="#ffffff"/>
<rect x="7" y="12" width="1" height="1" fill="#ffffff"/>
<rect x="8" y="12" width="1" height="1" fill="#ffffff"/>
<rect x="9" y="12" width="1" height="1" fill="#ffffd4"/>
<rect x="10" y="12" width="1" height="1" fill="#ff9d0a"/>
<rect x="11" y="12" width="1" height="1" fill="#ff9607"/>
<rect x="12" y="12" width="1" height="1" fill="#d5700b"/>
<rect x="13" y="12" width="1" height="1" fill="#fffffe"/>
<rect x="14" y="12" width="1" height="1" fill="#ffffff"/>
<rect x="15" y="12" width="1" height="1" fill="#ffffff"/>
<rect x="16" y="12" width="1" height="1" fill="#ffffff"/>
<rect x="17" y="12" width="1" height="1" fill="#d79c65"/>
<rect x="18" y="12" width="1" height="1" fill="#d49250" fill-opacity="0.996"/>
<rect x="19" y="12" width="1" height="1" fill="#ffffff"/>
<rect x="20" y="12" width="1" height="1" fill="#ca8136" fill-opacity="0.984"/>
<rect x="21" y="12" width="1" height="1" fill="#b8620b" fill-opacity="0.027"/>
<rect x="0" y="13" width="1" height="1" fill="#b35d07" fill-opacity="0.004"/>
<rect x="1" y="13" width="1" height="1" fill="#bd610a" fill-opacity="0.945"/>
<rect x="2" y="13" width="1" height="1" fill="#cd8135" fill-opacity="0.996"/>
<rect x="3" y="13" width="1" height="1" fill="#ffffff"/>
<rect x="4" y="13" width="1" height="1" fill="#ffffff"/>
<rect x="5" y="13" width="1" height="1" fill="#f4be83"/>
<rect x="6" y="13" width="1" height="1" fill="#cf7921"/>
<rect x="7" y="13" width="1" height="1" fill="#fff6c7"/>
<rect x="8" y="13" width="1" height="1" fill="#ffd56e"/>
<rect x="9" y="13" width="1" height="1" fill="#ffa30f"/>
<rect x="10" y="13" width="1" height="1" fill="#ff9f0b"/>
<rect x="11" y="13" width="1" height="1" fill="#ff9807"/>
<rect x="12" y="13" width="1" height="1" fill="#ff8907"/>
<rect x="13" y="13" width="1" height="1" fill="#c06815"/>
<rect x="14" y="13" width="1" height="1" fill="#e5aa72"/>
<rect x="15" y="13" width="1" height="1" fill="#e6ae79"/>
<rect x="16" y="13" width="1" height="1" fill="#b5681a" fill-opacity="0.996"/>
<rect x="17" y="13" width="1" height="1" fill="#b26112" fill-opacity="0.992"/>
<rect x="18" y="13" width="1" height="1" fill="#b15e0b" fill-opacity="0.965"/>
<rect x="19" y="13" width="1" height="1" fill="#d29455"/>
<rect x="20" y="13" width="1" height="1" fill="#ba6610" fill-opacity="0.996"/>
<rect x="21" y="13" width="1" height="1" fill="#b8620b" fill-opacity="0.008"/>
<rect x="1" y="14" width="1" height="1" fill="#db7207" fill-opacity="0.004"/>
<rect x="2" y="14" width="1" height="1" fill="#bd610a" fill-opacity="0.988"/>
<rect x="3" y="14" width="1" height="1" fill="#d58b41"/>
<rect x="4" y="14" width="1" height="1" fill="#ffffff"/>
<rect x="5" y="14" width="1" height="1" fill="#ffffff"/>
<rect x="6" y="14" width="1" height="1" fill="#f6c088"/>
<rect x="7" y="14" width="1" height="1" fill="#d47615"/>
<rect x="8" y="14" width="1" height="1" fill="#ff8e0b"/>
<rect x="9" y="14" width="1" height="1" fill="#ff9c09"/>
<rect x="10" y="14" width="1" height="1" fill="#ff9d09"/>
<rect x="11" y="14" width="1" height="1" fill="#ff9d07"/>
<rect x="12" y="14" width="1" height="1" fill="#ff9807"/>
<rect x="13" y="14" width="1" height="1" fill="#f58009"/>
<rect x="14" y="14" width="1" height="1" fill="#bc6209"/>
<rect x="15" y="14" width="1" height="1" fill="#b15c0a"/>
<rect x="16" y="14" width="1" height="1" fill="#b35e0a" fill-opacity="0.827"/>
<rect x="17" y="14" width="1" height="1" fill="#be620a" fill-opacity="0.059"/>
<rect x="18" y="14" width="1" height="1" fill="#a85807" fill-opacity="0.176"/>
<rect x="19" y="14" width="1" height="1" fill="#a75807" fill-opacity="0.976"/>
<rect x="20" y="14" width="1" height="1" fill="#b8620b" fill-opacity="0.937"/>
<rect x="21" y="14" width="1" height="1" fill="#bc650a" fill-opacity="0.004"/>
<rect x="2" y="15" width="1" height="1" fill="#d86e0a" fill-opacity="0.051"/>
<rect x="3" y="15" width="1" height="1" fill="#bd620c" fill-opacity="0.996"/>
<rect x="4" y="15" width="1" height="1" fill="#f4bc84"/>
<rect x="5" y="15" width="1" height="1" fill="#ffffff"/>
<rect x="6" y="15" width="1" height="1" fill="#ffffff"/>
<rect x="7" y="15" width="1" height="1" fill="#fffade"/>
<rect x="8" y="15" width="1" height="1" fill="#d5781b"/>
<rect x="9" y="15" width="1" height="1" fill="#ff880a"/>
<rect x="10" y="15" width="1" height="1" fill="#ff9209"/>
<rect x="11" y="15" width="1" height="1" fill="#ff9707"/>
<rect x="12" y="15" width="1" height="1" fill="#ff9807"/>
<rect x="13" y="15" width="1" height="1" fill="#ff9107"/>
<rect x="14" y="15" width="1" height="1" fill="#df7309"/>
<rect x="15" y="15" width="1" height="1" fill="#b55e09" fill-opacity="0.929"/>
<rect x="16" y="15" width="1" height="1" fill="#b86009" fill-opacity="0.008"/>
<rect x="19" y="15" width="1" height="1" fill="#a85807" fill-opacity="0.557"/>
<rect x="20" y="15" width="1" height="1" fill="#b8620b" fill-opacity="0.69"/>
<rect x="3" y="16" width="1" height="1" fill="#df7307" fill-opacity="0.02"/>
<rect x="4" y="16" width="1" height="1" fill="#b7600a" fill-opacity="0.988"/>
<rect x="5" y="16" width="1" height="1" fill="#d9812d" fill-opacity="0.996"/>
<rect x="6" y="16" width="1" height="1" fill="#ffffff"/>
<rect x="7" y="16" width="1" height="1" fill="#ffffff"/>
<rect x="8" y="16" width="1" height="1" fill="#ffffff"/>
<rect x="9" y="16" width="1" height="1" fill="#d9822d"/>
<rect x="10" y="16" width="1" height="1" fill="#cf6c0a"/>
<rect x="11" y="16" width="1" height="1" fill="#ef7d09"/>
<rect x="12" y="16" width="1" height="1" fill="#fb820a"/>
<rect x="13" y="16" width="1" height="1" fill="#e0740a"/>
<rect x="14" y="16" width="1" height="1" fill="#b25c09" fill-opacity="0.992"/>
<rect x="15" y="16" width="1" height="1" fill="#ac5907" fill-opacity="0.098"/>
<rect x="4" y="17" width="1" height="1" fill="#db7207" fill-opacity="0.016"/>
<rect x="5" y="17" width="1" height="1" fill="#ba6109" fill-opacity="0.941"/>
<rect x="6" y="17" width="1" height="1" fill="#b8630f"/>
<rect x="7" y="17" width="1" height="1" fill="#ffe8c4" fill-opacity="0.996"/>
<rect x="8" y="17" width="1" height="1" fill="#ffffff"/>
<rect x="9" y="17" width="1" height="1" fill="#ffffff"/>
<rect x="10" y="17" width="1" height="1" fill="#c7792f"/>
<rect x="11" y="17" width="1" height="1" fill="#b45d09"/>
<rect x="12" y="17" width="1" height="1" fill="#b75e09"/>
<rect x="13" y="17" width="1" height="1" fill="#af5b09" fill-opacity="0.992"/>
<rect x="14" y="17" width="1" height="1" fill="#ac5907" fill-opacity="0.086"/>
<rect x="6" y="18" width="1" height="1" fill="#b86007" fill-opacity="0.58"/>
<rect x="7" y="18" width="1" height="1" fill="#b15c09"/>
<rect x="8" y="18" width="1" height="1" fill="#c5782b" fill-opacity="0.996"/>
<rect x="9" y="18" width="1" height="1" fill="#ffffff"/>
<rect x="10" y="18" width="1" height="1" fill="#ffffff"/>
<rect x="11" y="18" width="1" height="1" fill="#bc6b17"/>
<rect x="12" y="18" width="1" height="1" fill="#af5b09"/>
<rect x="13" y="18" width="1" height="1" fill="#af5c09" fill-opacity="0.745"/>
<rect x="14" y="18" width="1" height="1" fill="#a95807" fill-opacity="0.004"/>
<rect x="7" y="19" width="1" height="1" fill="#b15c07" fill-opacity="0.204"/>
<rect x="8" y="19" width="1" height="1" fill="#b45d09" fill-opacity="0.91"/>
<rect x="9" y="19" width="1" height="1" fill="#c06812" fill-opacity="0.973"/>
<rect x="10" y="19" width="1" height="1" fill="#d08841" fill-opacity="0.992"/>
<rect x="11" y="19" width="1" height="1" fill="#b76719"/>
<rect x="12" y="19" width="1" height="1" fill="#b9620b" fill-opacity="0.855"/>
<rect x="13" y="19" width="1" height="1" fill="#af5c09" fill-opacity="0.024"/>
</svg>