<?xml version="1.0" encoding="UTF-8" standalone="no"?>
<svg xmlns="http://www.w3.org/2000/svg" width="26" height="21" shape-rendering="crispEdges">
<rect x="1" y="0" width="1" height="1" fill="#c32713" fill-opacity="0.027"/>
<rect x="2" y="0" width="1" height="1" fill="#c32713" fill-opacity="0.082"/>
<rect x="23" y="0" width="1" height="1" fill="#d4b700" fill-opacity="0.749"/>
<rect x="24" y="0" width="1" height="1" fill="#d6bb00" fill-opacity="0.996"/>
<rect x="2" y="1" width="1" height="1" fill="#c32713" fill-opacity="0.016"/>
<rect x="3" y="1" width="1" height="1" fill="#c32713" fill-opacity="0.004"/>
<rect x="19" y="1" width="1" height="1" fill="#d1b200" fill-opacity="0.827"/>
<rect x="20" y="1" width="1" height="1" fill="#cbaa00"/>
<rect x="21" y="1" width="1" height="1" fill="#ccab00"/>
<rect x="22" y="1" width="1" height="1" fill="#cead00"/>
<rect x="23" y="1" width="1" height="1" fill="#d7bc00"/>
<rect x="24" y="1" width="1" height="1" fill="#d4b700"/>
<rect x="12" y="2" width="1" height="1" fill="#d1b200" fill-opacity="0.094"/>
<rect x="13" y="2" width="1" height="1" fill="#d7bc00" fill-opacity="0.957"/>
<rect x="14" y="2" width="1" height="1" fill="#cbaa00"/>
<rect x="15" y="2" width="1" height="1" fill="#ccab00"/>
<rect x="16" y="2" width="1" height="1" fill="#ccab00"/>
<rect x="17" y="2" width="1" height="1" fill="#d1b200"/>
<rect x="18" y="2" width="1" height="1" fill="#ccab00"/>
<rect x="19" y="2" width="1" height="1" fill="#ebdd00"/>
<rect x="20" y="2" width="1" height="1" fill="#ffff82"/>
<rect x="21" y="2" width="1" height="1" fill="#ffffff"/>
<rect x="22" y="2" width="1" height="1" fill="#ffffff"/>
<rect x="23" y="2" width="1" height="1" fill="#ffffdd"/>
<rect x="24" y="2" width="1" height="1" fill="#d9bf00" fill-opacity="0.824"/>
<rect x="12" y="3" width="1" height="1" fill="#d1b200" fill-opacity="0.212"/>
<rect x="13" y="3" width="1" height="1" fill="#d1b200"/>
<rect x="14" y="3" width="1" height="1" fill="#ffff6a"/>
<rect x="15" y="3" width="1" height="1" fill="#ffffff"/>
<rect x="16" y="3" width="1" height="1" fill="#ffffff"/>
<rect x="17" y="3" width="1" height="1" fill="#ffffff"/>
<rect x="18" y="3" width="1" height="1" fill="#ffffff"/>
<rect x="19" y="3" width="1" height="1" fill="#ffffbc"/>
<rect x="20" y="3" width="1" height="1" fill="#ffffce"/>
<rect x="21" y="3" width="1" height="1" fill="#ffffd1"/>
<rect x="22" y="3" width="1" height="1" fill="#ffffdd"/>
<rect x="23" y="3" width="1" height="1" fill="#e4d100"/>
<rect x="24" y="3" width="1" height="1" fill="#d1b200" fill-opacity="0.69"/>
<rect x="5" y="4" width="1" height="1" fill="#e0ca00" fill-opacity="0.004"/>
<rect x="6" y="4" width="1" height="1" fill="#d4b700" fill-opacity="0.031"/>
<rect x="13" y="4" width="1" height="1" fill="#d9bf00" fill-opacity="0.925"/>
<rect x="14" y="4" width="1" height="1" fill="#ffffff"/>
<rect x="15" y="4" width="1" height="1" fill="#ffffff"/>
<rect x="16" y="4" width="1" height="1" fill="#ffffff"/>
<rect x="17" y="4" width="1" height="1" fill="#ffffff"/>
<rect x="18" y="4" width="1" height="1" fill="#ffffff"/>
<rect x="19" y="4" width="1" height="1" fill="#ffffff"/>
<rect x="20" y="4" width="1" height="1" fill="#ffffff"/>
<rect x="21" y="4" width="1" height="1" fill="#ffffdd"/>
<rect x="22" y="4" width="1" height="1" fill="#faf61d"/>
<rect x="23" y="4" width="1" height="1" fill="#d2b400" fill-opacity="0.533"/>
<rect x="24" y="4" width="1" height="1" fill="#d1b200" fill-opacity="0.004"/>
<rect x="3" y="5" width="1" height="1" fill="#d9bf00" fill-opacity="0.314"/>
<rect x="4" y="5" width="1" height="1" fill="#d1b200"/>
<rect x="5" y="5" width="1" height="1" fill="#d2b201"/>
<rect x="6" y="5" width="1" height="1" fill="#d2b002"/>
<rect x="7" y="5" width="1" height="1" fill="#d2b101"/>
<rect x="8" y="5" width="1" height="1" fill="#d3b600" fill-opacity="0.863"/>
<rect x="9" y="5" width="1" height="1" fill="#d1b200" fill-opacity="0.012"/>
<rect x="11" y="5" width="1" height="1" fill="#d6bb00" fill-opacity="0.973"/>
<rect x="12" y="5" width="1" height="1" fill="#d4b700" fill-opacity="0.98"/>
<rect x="13" y="5" width="1" height="1" fill="#d1b200" fill-opacity="0.039"/>
<rect x="14" y="5" width="1" height="1" fill="#e4d000"/>
<rect x="15" y="5" width="1" height="1" fill="#ffffff"/>
<rect x="16" y="5" width="1" height="1" fill="#ffffff"/>
<rect x="17" y="5" width="1" height="1" fill="#ffffff"/>
<rect x="18" y="5" width="1" height="1" fill="#ffffff"/>
<rect x="19" y="5" width="1" height="1" fill="#ffffce"/>
<rect x="20" y="5" width="1" height="1" fill="#ffffeb" fill-opacity="0.996"/>
<rect x="21" y="5" width="1" height="1" fill="#ffff54"/>
<rect x="22" y="5" width="1" height="1" fill="#d2b400" fill-opacity="0.486"/>
<rect x="23" y="5" width="1" height="1" fill="#d1b200" fill-opacity="0.008"/>
<rect x="2" y="6" width="1" height="1" fill="#d9c000" fill-opacity="0.604"/>
<rect x="3" y="6" width="1" height="1" fill="#d7b902"/>
<rect x="4" y="6" width="1" height="1" fill="#e1ac0b"/>
<rect x="5" y="6" width="1" height="1" fill="#e4b809"/>
<rect x="6" y="6" width="1" height="1" fill="#eacc06"/>
<rect x="7" y="6" width="1" height="1" fill="#ebca07"/>
<rect x="8" y="6" width="1" height="1" fill="#d6b104"/>
<rect x="9" y="6" width="1" height="1" fill="#d2b101" fill-opacity="0.988"/>
<rect x="10" y="6" width="1" height="1" fill="#d1b200" fill-opacity="0.027"/>
<rect x="11" y="6" width="1" height="1" fill="#ccab00"/>
<rect x="12" y="6" width="1" height="1" fill="#d2b101"/>
<rect x="13" y="6" width="1" height="1" fill="#daaa09"/>
<rect x="14" y="6" width="1" height="1" fill="#dbb904"/>
<rect x="15" y="6" width="1" height="1" fill="#f3ea0a"/>
<rect x="16" y="6" width="1" height="1" fill="#ffffff"/>
<rect x="17" y="6" width="1" height="1" fill="#ffffff"/>
<rect x="18" y="6" width="1" height="1" fill="#ffffff"/>
<rect x="19" y="6" width="1" height="1" fill="#ffffff"/>
<rect x="20" y="6" width="1" height="1" fill="#ffffbc"/>
<rect x="21" y="6" width="1" height="1" fill="#dec700" fill-opacity="0.996"/>
<rect x="22" y="6" width="1" height="1" fill="#d4b700" fill-opacity="0.706"/>
<rect x="2" y="7" width="1" height="1" fill="#d8b802"/>
<rect x="3" y="7" width="1" height="1" fill="#e1a90d"/>
<rect x="4" y="7" width="1" height="1" fill="#e7b50c"/>
<rect x="5" y="7" width="1" height="1" fill="#f1cb0a"/>
<rect x="6" y="7" width="1" height="1" fill="#f2d905"/>
<rect x="7" y="7" width="1" height="1" fill="#f6e403"/>
<rect x="8" y="7" width="1" height="1" fill="#efd107"/>
<rect x="9" y="7" width="1" height="1" fill="#d5b203"/>
<rect x="10" y="7" width="1" height="1" fill="#d4b700" fill-opacity="0.475"/>
<rect x="11" y="7" width="1" height="1" fill="#d2b400"/>
<rect x="12" y="7" width="1" height="1" fill="#d2b101"/>
<rect x="13" y="7" width="1" height="1" fill="#d9b703"/>
<rect x="14" y="7" width="1" height="1" fill="#f5ee19"/>
<rect x="15" y="7" width="1" height="1" fill="#ffffff"/>
<rect x="16" y="7" width="1" height="1" fill="#ffffff"/>
<rect x="17" y="7" width="1" height="1" fill="#ffffff"/>
<rect x="18" y="7" width="1" height="1" fill="#ffffff"/>
<rect x="19" y="7" width="1" height="1" fill="#ffffff"/>
<rect x="20" y="7" width="1" height="1" fill="#ffffff"/>
<rect x="21" y="7" width="1" height="1" fill="#ffffff"/>
<rect x="22" y="7" width="1" height="1" fill="#ffff38"/>
<rect x="23" y="7" width="1" height="1" fill="#e4d000" fill-opacity="0.737"/>
<rect x="1" y="8" width="1" height="1" fill="#ddc500" fill-opacity="0.588"/>
<rect x="2" y="8" width="1" height="1" fill="#dead0a"/>
<rect x="3" y="8" width="1" height="1" fill="#e4ae0d"/>
<rect x="4" y="8" width="1" height="1" fill="#f7db08"/>
<rect x="5" y="8" width="1" height="1" fill="#f6e404"/>
<rect x="6" y="8" width="1" height="1" fill="#fffc04"/>
<rect x="7" y="8" width="1" height="1" fill="#fffc0c"/>
<rect x="8" y="8" width="1" height="1" fill="#fdf204"/>
<rect x="9" y="8" width="1" height="1" fill="#f1d705"/>
<rect x="10" y="8" width="1" height="1" fill="#d3b501" fill-opacity="0.996"/>
<rect x="11" y="8" width="1" height="1" fill="#d6bb00"/>
<rect x="12" y="8" width="1" height="1" fill="#d6af04"/>
<rect x="13" y="8" width="1" height="1" fill="#fefc97"/>
<rect x="14" y="8" width="1" height="1" fill="#ffffff"/>
<rect x="15" y="8" width="1" height="1" fill="#ffffff"/>
<rect x="16" y="8" width="1" height="1" fill="#ffffff"/>
<rect x="17" y="8" width="1" height="1" fill="#ffffff"/>
<rect x="18" y="8" width="1" height="1" fill="#ffffff"/>
<rect x="19" y="8" width="1" height="1" fill="#ffffff"/>
<rect x="20" y="8" width="1" height="1" fill="#ffffff"/>
<rect x="21" y="8" width="1" height="1" fill="#ffffff"/>
<rect x="22" y="8" width="1" height="1" fill="#ffffff"/>
<rect x="23" y="8" width="1" height="1" fill="#d9c000"/>
<rect x="24" y="8" width="1" height="1" fill="#ddc500" fill-opacity="0.863"/>
<rect x="0" y="9" width="1" height="1" fill="#e9d900" fill-opacity="0.09"/>
<rect x="1" y="9" width="1" height="1" fill="#d8ba01"/>
<rect x="2" y="9" width="1" height="1" fill="#dfad09"/>
<rect x="3" y="9" width="1" height="1" fill="#e7b70c"/>
<rect x="4" y="9" width="1" height="1" fill="#fbeb05"/>
<rect x="5" y="9" width="1" height="1" fill="#fdfa00"/>
<rect x="6" y="9" width="1" height="1" fill="#ffff00"/>
<rect x="7" y="9" width="1" height="1" fill="#ffff01"/>
<rect x="8" y="9" width="1" height="1" fill="#fffe00"/>
<rect x="9" y="9" width="1" height="1" fill="#fdf104"/>
<rect x="10" y="9" width="1" height="1" fill="#ecd204"/>
<rect x="11" y="9" width="1" height="1" fill="#e3cb02"/>
<rect x="12" y="9" width="1" height="1" fill="#ebd611"/>
<rect x="13" y="9" width="1" height="1" fill="#ffffff"/>
<rect x="14" y="9" width="1" height="1" fill="#ffffff"/>
<rect x="15" y="9" width="1" height="1" fill="#fbf345"/>
<rect x="16" y="9" width="1" height="1" fill="#f0e102"/>
<rect x="17" y="9" width="1" height="1" fill="#fefda0"/>
<rect x="18" y="9" width="1" height="1" fill="#ffffff"/>
<rect x="19" y="9" width="1" height="1" fill="#ffffff"/>
<rect x="20" y="9" width="1" height="1" fill="#ddc500" fill-opacity="0.969"/>
<rect x="21" y="9" width="1" height="1" fill="#d3b600" fill-opacity="0.937"/>
<rect x="22" y="9" width="1" height="1" fill="#d4b700" fill-opacity="0.91"/>
<rect x="23" y="9" width="1" height="1" fill="#d3b600" fill-opacity="0.898"/>
<rect x="24" y="9" width="1" height="1" fill="#d6bb00" fill-opacity="0.914"/>
<rect x="0" y="10" width="1" height="1" fill="#d7bc00" fill-opacity="0.965"/>
<rect x="1" y="10" width="1" height="1" fill="#d9c004"/>
<rect x="2" y="10" width="1" height="1" fill="#f1dc65"/>
<rect x="3" y="10" width="1" height="1" fill="#dfad09"/>
<rect x="4" y="10" width="1" height="1" fill="#f1cd0a"/>
<rect x="5" y="10" width="1" height="1" fill="#232220"/>
<rect x="6" y="10" width="1" height="1" fill="#010100"/>
<rect x="7" y="10" width="1" height="1" fill="#000000"/>
<rect x="8" y="10" width="1" height="1" fill="#000000"/>
<rect x="9" y="10" width="1" height="1" fill="#212020"/>
<rect x="10" y="10" width="1" height="1" fill="#fbea05"/>
<rect x="11" y="10" width="1" height="1" fill="#eac207"/>
<rect x="12" y="10" width="1" height="1" fill="#fcf7cb"/>
<rect x="13" y="10" width="1" height="1" fill="#ffffff"/>
<rect x="14" y="10" width="1" height="1" fill="#fbf6a6"/>
<rect x="15" y="10" width="1" height="1" fill="#edd704"/>
<rect x="16" y="10" width="1" height="1" fill="#eccd0a"/>
<rect x="17" y="10" width="1" height="1" fill="#eac409"/>
<rect x="18" y="10" width="1" height="1" fill="#fefbf5"/>
<rect x="19" y="10" width="1" height="1" fill="#ffffff"/>
<rect x="20" y="10" width="1" height="1" fill="#d9bf00" fill-opacity="0.761"/>
<rect x="21" y="10" width="1" height="1" fill="#d2b400" fill-opacity="0.576"/>
<rect x="22" y="10" width="1" height="1" fill="#d2b400" fill-opacity="0.333"/>
<rect x="23" y="10" width="1" height="1" fill="#d6bb00" fill-opacity="0.557"/>
<rect x="24" y="10" width="1" height="1" fill="#d7bc00" fill-opacity="0.259"/>
<rect x="0" y="11" width="1" height="1" fill="#d9b903" fill-opacity="0.984"/>
<rect x="1" y="11" width="1" height="1" fill="#faed91"/>
<rect x="2" y="11" width="1" height="1" fill="#fef8f0"/>
<rect x="3" y="11" width="1" height="1" fill="#e7b70c"/>
<rect x="4" y="11" width="1" height="1" fill="#e1c012"/>
<rect x="5" y="11" width="1" height="1" fill="#fff3e5"/>
<rect x="6" y="11" width="1" height="1" fill="#fffffd"/>
<rect x="7" y="11" width="1" height="1" fill="#320e00"/>
<rect x="8" y="11" width="1" height="1" fill="#ffffff"/>
<rect x="9" y="11" width="1" height="1" fill="#ffffff"/>
<rect x="10" y="11" width="1" height="1" fill="#fdf801"/>
<rect x="11" y="11" width="1" height="1" fill="#eabf0a"/>
<rect x="12" y="11" width="1" height="1" fill="#fcf7d7"/>
<rect x="13" y="11" width="1" height="1" fill="#ffffff"/>
<rect x="14" y="11" width="1" height="1" fill="#efe236"/>
<rect x="15" y="11" width="1" height="1" fill="#ffffa4"/>
<rect x="16" y="11" width="1" height="1" fill="#fdf8ec"/>
<rect x="17" y="11" width="1" height="1" fill="#e7c407"/>
<rect x="18" y="11" width="1" height="1" fill="#fdf870"/>
<rect x="19" y="11" width="1" height="1" fill="#ffffff"/>
<rect x="20" y="11" width="1" height="1" fill="#ddc500" fill-opacity="0.922"/>
<rect x="21" y="11" width="1" height="1" fill="#d3b600" fill-opacity="0.376"/>
<rect x="0" y="12" width="1" height="1" fill="#dbb904" fill-opacity="0.914"/>
<rect x="1" y="12" width="1" height="1" fill="#e0b416"/>
<rect x="2" y="12" width="1" height="1" fill="#fffbf6"/>
<rect x="3" y="12" width="1" height="1" fill="#fffefe"/>
<rect x="4" y="12" width="1" height="1" fill="#fefb8d"/>
<rect x="5" y="12" width="1" height="1" fill="#e3c209"/>
<rect x="6" y="12" width="1" height="1" fill="#fffcf2"/>
<rect x="7" y="12" width="1" height="1" fill="#ffffff"/>
<rect x="8" y="12" width="1" height="1" fill="#ffffff"/>
<rect x="9" y="12" width="1" height="1" fill="#ffffff"/>
<rect x="10" y="12" width="1" height="1" fill="#fefd00"/>
<rect x="11" y="12" width="1" height="1" fill="#ebbc0c"/>
<rect x="12" y="12" width="1" height="1" fill="#edc426"/>
<rect x="13" y="12" width="1" height="1" fill="#fffdf9"/>
<rect x="14" y="12" width="1" height="1" fill="#ffffff"/>
<rect x="15" y="12" width="1" height="1" fill="#ffffff"/>
<rect x="16" y="12" width="1" height="1" fill="#ffffff"/>
<rect x="17" y="12" width="1" height="1" fill="#d9bf00" fill-opacity="0.98"/>
<rect x="18" y="12" width="1" height="1" fill="#f6ef12"/>
<rect x="19" y="12" width="1" height="1" fill="#ffffef"/>
<rect x="20" y="12" width="1" height="1" fill="#e0c500" fill-opacity="0.976"/>
<rect x="21" y="12" width="1" height="1" fill="#d3b600" fill-opacity="0.118"/>
<rect x="0" y="13" width="1" height="1" fill="#d9b804" fill-opacity="0.102"/>
<rect x="1" y="13" width="1" height="1" fill="#ddb009" fill-opacity="0.996"/>
<rect x="2" y="13" width="1" height="1" fill="#e7be09" fill-opacity="0.996"/>
<rect x="3" y="13" width="1" height="1" fill="#fefaf2"/>
<rect x="4" y="13" width="1" height="1" fill="#ffffff"/>
<rect x="5" y="13" width="1" height="1" fill="#fefe4d"/>
<rect x="6" y="13" width="1" height="1" fill="#e4cd02"/>
<rect x="7" y="13" width="1" height="1" fill="#faf62d"/>
<rect x="8" y="13" width="1" height="1" fill="#ffffff"/>
<rect x="9" y="13" width="1" height="1" fill="#ffff0b"/>
<rect x="10" y="13" width="1" height="1" fill="#fffe00"/>
<rect x="11" y="13" width="1" height="1" fill="#f4d407"/>
<rect x="12" y="13" width="1" height="1" fill="#e3a80f"/>
<rect x="13" y="13" width="1" height="1" fill="#f8e756"/>
<rect x="14" y="13" width="1" height="1" fill="#fffefb"/>
<rect x="15" y="13" width="1" height="1" fill="#ffffff"/>
<rect x="16" y="13" width="1" height="1" fill="#e0ca00"/>
<rect x="17" y="13" width="1" height="1" fill="#d1b200" fill-opacity="0.988"/>
<rect x="18" y="13" width="1" height="1" fill="#d9bb00" fill-opacity="0.973"/>
<rect x="19" y="13" width="1" height="1" fill="#ffff80"/>
<rect x="20" y="13" width="1" height="1" fill="#e2ca00" fill-opacity="0.992"/>
<rect x="21" y="13" width="1" height="1" fill="#d3b400" fill-opacity="0.047"/>
<rect x="1" y="14" width="1" height="1" fill="#deaf08" fill-opacity="0.125"/>
<rect x="2" y="14" width="1" height="1" fill="#dead0b"/>
<rect x="3" y="14" width="1" height="1" fill="#eac60a"/>
<rect x="4" y="14" width="1" height="1" fill="#fffdf7"/>
<rect x="5" y="14" width="1" height="1" fill="#ffffff"/>
<rect x="6" y="14" width="1" height="1" fill="#ffff4d"/>
<rect x="7" y="14" width="1" height="1" fill="#dabc02"/>
<rect x="8" y="14" width="1" height="1" fill="#efde02"/>
<rect x="9" y="14" width="1" height="1" fill="#fefa01"/>
<rect x="10" y="14" width="1" height="1" fill="#fefa01"/>
<rect x="11" y="14" width="1" height="1" fill="#fdf004"/>
<rect x="12" y="14" width="1" height="1" fill="#e5b10d"/>
<rect x="13" y="14" width="1" height="1" fill="#e2a610"/>
<rect x="14" y="14" width="1" height="1" fill="#dca80b"/>
<rect x="15" y="14" width="1" height="1" fill="#d7ae05"/>
<rect x="16" y="14" width="1" height="1" fill="#d6ac05" fill-opacity="0.882"/>
<rect x="17" y="14" width="1" height="1" fill="#daa70a" fill-opacity="0.11"/>
<rect x="18" y="14" width="1" height="1" fill="#d1b200" fill-opacity="0.169"/>
<rect x="19" y="14" width="1" height="1" fill="#d4b700" fill-opacity="0.976"/>
<rect x="20" y="14" width="1" height="1" fill="#d9bc00" fill-opacity="0.945"/>
<rect x="21" y="14" width="1" height="1" fill="#d3b400" fill-opacity="0.031"/>
<rect x="2" y="15" width="1" height="1" fill="#dcb904" fill-opacity="0.2"/>
<rect x="3" y="15" width="1" height="1" fill="#ddaf08"/>
<rect x="4" y="15" width="1" height="1" fill="#e8c906"/>
<rect x="5" y="15" width="1" height="1" fill="#fefdf8"/>
<rect x="6" y="15" width="1" height="1" fill="#ffffff"/>
<rect x="7" y="15" width="1" height="1" fill="#ffff8c"/>
<rect x="8" y="15" width="1" height="1" fill="#dec001"/>
<rect x="9" y="15" width="1" height="1" fill="#e5bf07"/>
<rect x="10" y="15" width="1" height="1" fill="#f9e206"/>
<rect x="11" y="15" width="1" height="1" fill="#f9e406"/>
<rect x="12" y="15" width="1" height="1" fill="#f7d70a"/>
<rect x="13" y="15" width="1" height="1" fill="#e8b20f"/>
<rect x="14" y="15" width="1" height="1" fill="#e1ac0d"/>
<rect x="15" y="15" width="1" height="1" fill="#d8aa07" fill-opacity="0.949"/>
<rect x="16" y="15" width="1" height="1" fill="#e59b15" fill-opacity="0.11"/>
<rect x="17" y="15" width="1" height="1" fill="#f18a23" fill-opacity="0.016"/>
<rect x="19" y="15" width="1" height="1" fill="#d3b600" fill-opacity="0.694"/>
<rect x="20" y="15" width="1" height="1" fill="#d7bb00" fill-opacity="0.906"/>
<rect x="21" y="15" width="1" height="1" fill="#d4b600" fill-opacity="0.012"/>
<rect x="3" y="16" width="1" height="1" fill="#dcba04" fill-opacity="0.157"/>
<rect x="4" y="16" width="1" height="1" fill="#dbb305"/>
<rect x="5" y="16" width="1" height="1" fill="#e5c803" fill-opacity="0.996"/>
<rect x="6" y="16" width="1" height="1" fill="#fffffb"/>
<rect x="7" y="16" width="1" height="1" fill="#ffffff"/>
<rect x="8" y="16" width="1" height="1" fill="#fdfbe3"/>
<rect x="9" y="16" width="1" height="1" fill="#e0bb07"/>
<rect x="10" y="16" width="1" height="1" fill="#e0af0b"/>
<rect x="11" y="16" width="1" height="1" fill="#ecbb0c"/>
<rect x="12" y="16" width="1" height="1" fill="#ebba0c"/>
<rect x="13" y="16" width="1" height="1" fill="#e5b00d"/>
<rect x="14" y="16" width="1" height="1" fill="#d7ad06" fill-opacity="0.992"/>
<rect x="15" y="16" width="1" height="1" fill="#d4b002" fill-opacity="0.122"/>
<rect x="4" y="17" width="1" height="1" fill="#dbbb02" fill-opacity="0.129"/>
<rect x="5" y="17" width="1" height="1" fill="#dab604" fill-opacity="0.992"/>
<rect x="6" y="17" width="1" height="1" fill="#dbbd03" fill-opacity="0.996"/>
<rect x="7" y="17" width="1" height="1" fill="#fffffe" fill-opacity="0.996"/>
<rect x="8" y="17" width="1" height="1" fill="#ffffff"/>
<rect x="9" y="17" width="1" height="1" fill="#fffefc"/>
<rect x="10" y="17" width="1" height="1" fill="#dbb905"/>
<rect x="11" y="17" width="1" height="1" fill="#dbaa0a"/>
<rect x="12" y="17" width="1" height="1" fill="#ddaa0c"/>
<rect x="13" y="17" width="1" height="1" fill="#dcac0a" fill-opacity="0.996"/>
<rect x="14" y="17" width="1" height="1" fill="#dba90a" fill-opacity="0.157"/>
<rect x="5" y="18" width="1" height="1" fill="#e0ab0c" fill-opacity="0.012"/>
<rect x="6" y="18" width="1" height="1" fill="#d8ba02" fill-opacity="0.843"/>
<rect x="7" y="18" width="1" height="1" fill="#d8b902"/>
<rect x="8" y="18" width="1" height="1" fill="#ffffba"/>
<rect x="9" y="18" width="1" height="1" fill="#ffffff"/>
<rect x="10" y="18" width="1" height="1" fill="#ffffff"/>
<rect x="11" y="18" width="1" height="1" fill="#ddc002"/>
<rect x="12" y="18" width="1" height="1" fill="#d7ae05"/>
<rect x="13" y="18" width="1" height="1" fill="#d4b402" fill-opacity="0.729"/>
<rect x="14" y="18" width="1" height="1" fill="#d7bb00" fill-opacity="0.008"/>
<rect x="6" y="19" width="1" height="1" fill="#e4a312" fill-opacity="0.008"/>
<rect x="7" y="19" width="1" height="1" fill="#d7ba01" fill-opacity="0.459"/>
<rect x="8" y="19" width="1" height="1" fill="#d6ba00" fill-opacity="0.969"/>
<rect x="9" y="19" width="1" height="1" fill="#e4d100" fill-opacity="0.984"/>
<rect x="10" y="19" width="1" height="1" fill="#ebdd02" fill-opacity="0.996"/>
<rect x="11" y="19" width="1" height="1" fill="#cead00"/>
<rect x="12" y="19" width="1" height="1" fill="#d9bf00" fill-opacity="0.745"/>
<rect x="13" y="19" width="1" height="1" fill="#d1b200" fill-opacity="0.004"/>
</svg>