<?xml version="1.0" encoding="UTF-8" standalone="no"?>
<svg xmlns="http://www.w3.org/2000/svg" width="26" height="21" shape-rendering="crispEdges">
<rect x="23" y="0" width="1" height="1" fill="#20aa04" fill-opacity="0.486"/>
<rect x="24" y="0" width="1" height="1" fill="#1fa904" fill-opacity="0.965"/>
<rect x="19" y="1" width="1" height="1" fill="#1aa303" fill-opacity="0.827"/>
<rect x="20" y="1" width="1" height="1" fill="#189b02"/>
<rect x="21" y="1" width="1" height="1" fill="#189c02"/>
<rect x="22" y="1" width="1" height="1" fill="#189d02"/>
<rect x="23" y="1" width="1" height="1" fill="#20aa04"/>
<rect x="24" y="1" width="1" height="1" fill="#20aa04"/>
<rect x="12" y="2" width="1" height="1" fill="#1c9f03" fill-opacity="0.165"/>
<rect x="13" y="2" width="1" height="1" fill="#1b9703"/>
<rect x="14" y="2" width="1" height="1" fill="#189b02"/>
<rect x="15" y="2" width="1" height="1" fill="#189c02"/>
<rect x="16" y="2" width="1" height="1" fill="#189d02"/>
<rect x="17" y="2" width="1" height="1" fill="#19a003"/>
<rect x="18" y="2" width="1" height="1" fill="#189c02"/>
<rect x="19" y="2" width="1" height="1" fill="#2ced0a"/>
<rect x="20" y="2" width="1" height="1" fill="#ffffff"/>
<rect x="21" y="2" width="1" height="1" fill="#ffffff"/>
<rect x="22" y="2" width="1" height="1" fill="#ffffff"/>
<rect x="23" y="2" width="1" height="1" fill="#61cd41"/>
<rect x="24" y="2" width="1" height="1" fill="#20aa04" fill-opacity="0.945"/>
<rect x="12" y="3" width="1" height="1" fill="#1da103" fill-opacity="0.353"/>
<rect x="13" y="3" width="1" height="1" fill="#1c9b03"/>
<rect x="14" y="3" width="1" height="1" fill="#f4ffed"/>
<rect x="15" y="3" width="1" height="1" fill="#ffffff"/>
<rect x="16" y="3" width="1" height="1" fill="#ffffff"/>
<rect x="17" y="3" width="1" height="1" fill="#ffffff"/>
<rect x="18" y="3" width="1" height="1" fill="#ffffff"/>
<rect x="19" y="3" width="1" height="1" fill="#ffffff"/>
<rect x="20" y="3" width="1" height="1" fill="#ffffff"/>
<rect x="21" y="3" width="1" height="1" fill="#ffffff"/>
<rect x="22" y="3" width="1" height="1" fill="#f9fff2"/>
<rect x="23" y="3" width="1" height="1" fill="#40bd1c"/>
<rect x="24" y="3" width="1" height="1" fill="#20aa04" fill-opacity="0.871"/>
<rect x="5" y="4" width="1" height="1" fill="#23c606" fill-opacity="0.004"/>
<rect x="6" y="4" width="1" height="1" fill="#24c506" fill-opacity="0.008"/>
<rect x="13" y="4" width="1" height="1" fill="#21a906" fill-opacity="0.976"/>
<rect x="14" y="4" width="1" height="1" fill="#e1fed5"/>
<rect x="15" y="4" width="1" height="1" fill="#ffffff"/>
<rect x="16" y="4" width="1" height="1" fill="#ffffff"/>
<rect x="17" y="4" width="1" height="1" fill="#ffffff"/>
<rect x="18" y="4" width="1" height="1" fill="#ffffff"/>
<rect x="19" y="4" width="1" height="1" fill="#ffffff"/>
<rect x="20" y="4" width="1" height="1" fill="#ffffff"/>
<rect x="21" y="4" width="1" height="1" fill="#daffca"/>
<rect x="22" y="4" width="1" height="1" fill="#23ad04"/>
<rect x="23" y="4" width="1" height="1" fill="#21ad04" fill-opacity="0.522"/>
<rect x="24" y="4" width="1" height="1" fill="#23ad04" fill-opacity="0.004"/>
<rect x="3" y="5" width="1" height="1" fill="#23b706" fill-opacity="0.122"/>
<rect x="4" y="5" width="1" height="1" fill="#1ca403"/>
<rect x="5" y="5" width="1" height="1" fill="#1da703"/>
<rect x="6" y="5" width="1" height="1" fill="#1faa04"/>
<rect x="7" y="5" width="1" height="1" fill="#20ac04"/>
<rect x="8" y="5" width="1" height="1" fill="#1fae04" fill-opacity="0.898"/>
<rect x="9" y="5" width="1" height="1" fill="#1a9d03" fill-opacity="0.008"/>
<rect x="11" y="5" width="1" height="1" fill="#1ca703" fill-opacity="0.976"/>
<rect x="12" y="5" width="1" height="1" fill="#1aa403" fill-opacity="0.98"/>
<rect x="13" y="5" width="1" height="1" fill="#188e03" fill-opacity="0.071"/>
<rect x="14" y="5" width="1" height="1" fill="#31b212"/>
<rect x="15" y="5" width="1" height="1" fill="#efffe6"/>
<rect x="16" y="5" width="1" height="1" fill="#ffffff"/>
<rect x="17" y="5" width="1" height="1" fill="#ffffff"/>
<rect x="18" y="5" width="1" height="1" fill="#ffffff"/>
<rect x="19" y="5" width="1" height="1" fill="#ffffff"/>
<rect x="20" y="5" width="1" height="1" fill="#b9ffa1" fill-opacity="0.996"/>
<rect x="21" y="5" width="1" height="1" fill="#20aa04" fill-opacity="0.988"/>
<rect x="22" y="5" width="1" height="1" fill="#25b004" fill-opacity="0.443"/>
<rect x="23" y="5" width="1" height="1" fill="#24ae04" fill-opacity="0.004"/>
<rect x="2" y="6" width="1" height="1" fill="#21b406" fill-opacity="0.471"/>
<rect x="3" y="6" width="1" height="1" fill="#20aa04"/>
<rect x="4" y="6" width="1" height="1" fill="#21b005"/>
<rect x="5" y="6" width="1" height="1" fill="#21bb05"/>
<rect x="6" y="6" width="1" height="1" fill="#25c806"/>
<rect x="7" y="6" width="1" height="1" fill="#23c006"/>
<rect x="8" y="6" width="1" height="1" fill="#1fb904"/>
<rect x="9" y="6" width="1" height="1" fill="#1ea704" fill-opacity="0.984"/>
<rect x="10" y="6" width="1" height="1" fill="#1c9f03" fill-opacity="0.031"/>
<rect x="11" y="6" width="1" height="1" fill="#1a9c03"/>
<rect x="12" y="6" width="1" height="1" fill="#189303"/>
<rect x="13" y="6" width="1" height="1" fill="#1aa003"/>
<rect x="14" y="6" width="1" height="1" fill="#1eae04"/>
<rect x="15" y="6" width="1" height="1" fill="#2dc00e"/>
<rect x="16" y="6" width="1" height="1" fill="#ffffff"/>
<rect x="17" y="6" width="1" height="1" fill="#ffffff"/>
<rect x="18" y="6" width="1" height="1" fill="#ffffff"/>
<rect x="19" y="6" width="1" height="1" fill="#ffffff"/>
<rect x="20" y="6" width="1" height="1" fill="#ffffff"/>
<rect x="21" y="6" width="1" height="1" fill="#5ada39" fill-opacity="0.996"/>
<rect x="22" y="6" width="1" height="1" fill="#23b106" fill-opacity="0.71"/>
<rect x="23" y="6" width="1" height="1" fill="#24b004" fill-opacity="0.004"/>
<rect x="2" y="7" width="1" height="1" fill="#20aa04"/>
<rect x="3" y="7" width="1" height="1" fill="#26c204"/>
<rect x="4" y="7" width="1" height="1" fill="#2ad404"/>
<rect x="5" y="7" width="1" height="1" fill="#2de407"/>
<rect x="6" y="7" width="1" height="1" fill="#2be40a"/>
<rect x="7" y="7" width="1" height="1" fill="#32e90f"/>
<rect x="8" y="7" width="1" height="1" fill="#58f232"/>
<rect x="9" y="7" width="1" height="1" fill="#1eae05"/>
<rect x="10" y="7" width="1" height="1" fill="#1ea504" fill-opacity="0.667"/>
<rect x="11" y="7" width="1" height="1" fill="#199503"/>
<rect x="12" y="7" width="1" height="1" fill="#1a9b03"/>
<rect x="13" y="7" width="1" height="1" fill="#29a40f"/>
<rect x="14" y="7" width="1" height="1" fill="#baecaa"/>
<rect x="15" y="7" width="1" height="1" fill="#ffffff"/>
<rect x="16" y="7" width="1" height="1" fill="#ffffff"/>
<rect x="17" y="7" width="1" height="1" fill="#ffffff"/>
<rect x="18" y="7" width="1" height="1" fill="#ffffff"/>
<rect x="19" y="7" width="1" height="1" fill="#ffffff"/>
<rect x="20" y="7" width="1" height="1" fill="#ffffff"/>
<rect x="21" y="7" width="1" height="1" fill="#ffffff"/>
<rect x="22" y="7" width="1" height="1" fill="#38b918"/>
<rect x="23" y="7" width="1" height="1" fill="#20ac04" fill-opacity="0.855"/>
<rect x="1" y="8" width="1" height="1" fill="#21b206" fill-opacity="0.459"/>
<rect x="2" y="8" width="1" height="1" fill="#1ca304"/>
<rect x="3" y="8" width="1" height="1" fill="#1eae04"/>
<rect x="4" y="8" width="1" height="1" fill="#2cde07"/>
<rect x="5" y="8" width="1" height="1" fill="#2deb09"/>
<rect x="6" y="8" width="1" height="1" fill="#7dff59"/>
<rect x="7" y="8" width="1" height="1" fill="#92ff71"/>
<rect x="8" y="8" width="1" height="1" fill="#84ff62"/>
<rect x="9" y="8" width="1" height="1" fill="#25c108"/>
<rect x="10" y="8" width="1" height="1" fill="#1a9903"/>
<rect x="11" y="8" width="1" height="1" fill="#1a9c03"/>
<rect x="12" y="8" width="1" height="1" fill="#36b918"/>
<rect x="13" y="8" width="1" height="1" fill="#ffffff"/>
<rect x="14" y="8" width="1" height="1" fill="#ffffff"/>
<rect x="15" y="8" width="1" height="1" fill="#ffffff"/>
<rect x="16" y="8" width="1" height="1" fill="#ffffff"/>
<rect x="17" y="8" width="1" height="1" fill="#ffffff"/>
<rect x="18" y="8" width="1" height="1" fill="#ffffff"/>
<rect x="19" y="8" width="1" height="1" fill="#ffffff"/>
<rect x="20" y="8" width="1" height="1" fill="#ffffff"/>
<rect x="21" y="8" width="1" height="1" fill="#ffffff"/>
<rect x="22" y="8" width="1" height="1" fill="#ffffff"/>
<rect x="23" y="8" width="1" height="1" fill="#1eac04"/>
<rect x="24" y="8" width="1" height="1" fill="#20ac04" fill-opacity="0.925"/>
<rect x="0" y="9" width="1" height="1" fill="#24bd06" fill-opacity="0.118"/>
<rect x="1" y="9" width="1" height="1" fill="#1faa04" fill-opacity="0.996"/>
<rect x="2" y="9" width="1" height="1" fill="#1ca403"/>
<rect x="3" y="9" width="1" height="1" fill="#1cac04"/>
<rect x="4" y="9" width="1" height="1" fill="#29da09"/>
<rect x="5" y="9" width="1" height="1" fill="#2def0a"/>
<rect x="6" y="9" width="1" height="1" fill="#5cfe35"/>
<rect x="7" y="9" width="1" height="1" fill="#85ff63"/>
<rect x="8" y="9" width="1" height="1" fill="#4dfc26"/>
<rect x="9" y="9" width="1" height="1" fill="#30f20c"/>
<rect x="10" y="9" width="1" height="1" fill="#23c606"/>
<rect x="11" y="9" width="1" height="1" fill="#21c506"/>
<rect x="12" y="9" width="1" height="1" fill="#edffe6"/>
<rect x="13" y="9" width="1" height="1" fill="#ffffff"/>
<rect x="14" y="9" width="1" height="1" fill="#ffffff"/>
<rect x="15" y="9" width="1" height="1" fill="#53d432"/>
<rect x="16" y="9" width="1" height="1" fill="#2ac90b"/>
<rect x="17" y="9" width="1" height="1" fill="#cafcba"/>
<rect x="18" y="9" width="1" height="1" fill="#ffffff"/>
<rect x="19" y="9" width="1" height="1" fill="#ffffff"/>
<rect x="20" y="9" width="1" height="1" fill="#ffffff" fill-opacity="0.996"/>
<rect x="21" y="9" width="1" height="1" fill="#37bd19" fill-opacity="0.937"/>
<rect x="22" y="9" width="1" height="1" fill="#41c21f" fill-opacity="0.875"/>
<rect x="23" y="9" width="1" height="1" fill="#21ad05" fill-opacity="0.859"/>
<rect x="24" y="9" width="1" height="1" fill="#20ac04" fill-opacity="0.902"/>
<rect x="0" y="10" width="1" height="1" fill="#1eac04" fill-opacity="0.969"/>
<rect x="1" y="10" width="1" height="1" fill="#3dba1c"/>
<rect x="2" y="10" width="1" height="1" fill="#5cc23f"/>
<rect x="3" y="10" width="1" height="1" fill="#1a9c03"/>
<rect x="4" y="10" width="1" height="1" fill="#24c806"/>
<rect x="5" y="10" width="1" height="1" fill="#212020"/>
<rect x="6" y="10" width="1" height="1" fill="#000000"/>
<rect x="7" y="10" width="1" height="1" fill="#000000"/>
<rect x="8" y="10" width="1" height="1" fill="#000000"/>
<rect x="9" y="10" width="1" height="1" fill="#212020"/>
<rect x="10" y="10" width="1" height="1" fill="#2ef20b"/>
<rect x="11" y="10" width="1" height="1" fill="#26cf08"/>
<rect x="12" y="10" width="1" height="1" fill="#ffffff"/>
<rect x="13" y="10" width="1" height="1" fill="#ffffff"/>
<rect x="14" y="10" width="1" height="1" fill="#4cda28"/>
<rect x="15" y="10" width="1" height="1" fill="#2aa010"/>
<rect x="16" y="10" width="1" height="1" fill="#29a70d"/>
<rect x="17" y="10" width="1" height="1" fill="#1faa05"/>
<rect x="18" y="10" width="1" height="1" fill="#e4ffda"/>
<rect x="19" y="10" width="1" height="1" fill="#ffffff"/>
<rect x="20" y="10" width="1" height="1" fill="#ffffff" fill-opacity="0.969"/>
<rect x="21" y="10" width="1" height="1" fill="#21aa06" fill-opacity="0.706"/>
<rect x="22" y="10" width="1" height="1" fill="#20aa04" fill-opacity="0.518"/>
<rect x="23" y="10" width="1" height="1" fill="#20aa04" fill-opacity="0.467"/>
<rect x="24" y="10" width="1" height="1" fill="#20aa04" fill-opacity="0.153"/>
<rect x="0" y="11" width="1" height="1" fill="#1eae04" fill-opacity="0.945"/>
<rect x="1" y="11" width="1" height="1" fill="#dffed2"/>
<rect x="2" y="11" width="1" height="1" fill="#f9fff2"/>
<rect x="3" y="11" width="1" height="1" fill="#28a50d"/>
<rect x="4" y="11" width="1" height="1" fill="#1ca904"/>
<rect x="5" y="11" width="1" height="1" fill="#ffffff"/>
<rect x="6" y="11" width="1" height="1" fill="#ffffff"/>
<rect x="7" y="11" width="1" height="1" fill="#000000"/>
<rect x="8" y="11" width="1" height="1" fill="#ffffff"/>
<rect x="9" y="11" width="1" height="1" fill="#ffffff"/>
<rect x="10" y="11" width="1" height="1" fill="#36f510"/>
<rect x="11" y="11" width="1" height="1" fill="#25ca08"/>
<rect x="12" y="11" width="1" height="1" fill="#ffffff"/>
<rect x="13" y="11" width="1" height="1" fill="#ffffff"/>
<rect x="14" y="11" width="1" height="1" fill="#75e953"/>
<rect x="15" y="11" width="1" height="1" fill="#d1f9c2"/>
<rect x="16" y="11" width="1" height="1" fill="#f9fff4"/>
<rect x="17" y="11" width="1" height="1" fill="#3bb21e"/>
<rect x="18" y="11" width="1" height="1" fill="#49c929"/>
<rect x="19" y="11" width="1" height="1" fill="#ffffff"/>
<rect x="20" y="11" width="1" height="1" fill="#69d149" fill-opacity="0.984"/>
<rect x="21" y="11" width="1" height="1" fill="#1fa904" fill-opacity="0.408"/>
<rect x="0" y="12" width="1" height="1" fill="#21b105" fill-opacity="0.655"/>
<rect x="1" y="12" width="1" height="1" fill="#1eb004" fill-opacity="0.996"/>
<rect x="2" y="12" width="1" height="1" fill="#ffffff"/>
<rect x="3" y="12" width="1" height="1" fill="#e5ffda"/>
<rect x="4" y="12" width="1" height="1" fill="#2ab40d"/>
<rect x="5" y="12" width="1" height="1" fill="#2cb60f"/>
<rect x="6" y="12" width="1" height="1" fill="#ffffff"/>
<rect x="7" y="12" width="1" height="1" fill="#ffffff"/>
<rect x="8" y="12" width="1" height="1" fill="#ffffff"/>
<rect x="9" y="12" width="1" height="1" fill="#fcfff5"/>
<rect x="10" y="12" width="1" height="1" fill="#39f713"/>
<rect x="11" y="12" width="1" height="1" fill="#1fb405"/>
<rect x="12" y="12" width="1" height="1" fill="#d1fbc2"/>
<rect x="13" y="12" width="1" height="1" fill="#ffffff"/>
<rect x="14" y="12" width="1" height="1" fill="#ffffff"/>
<rect x="15" y="12" width="1" height="1" fill="#ffffff"/>
<rect x="16" y="12" width="1" height="1" fill="#ffffff"/>
<rect x="17" y="12" width="1" height="1" fill="#31b112" fill-opacity="0.988"/>
<rect x="18" y="12" width="1" height="1" fill="#1ba103"/>
<rect x="19" y="12" width="1" height="1" fill="#f7fff0"/>
<rect x="20" y="12" width="1" height="1" fill="#2ab00c" fill-opacity="0.996"/>
<rect x="21" y="12" width="1" height="1" fill="#20a904" fill-opacity="0.208"/>
<rect x="0" y="13" width="1" height="1" fill="#20aa04" fill-opacity="0.024"/>
<rect x="1" y="13" width="1" height="1" fill="#1fac04" fill-opacity="0.961"/>
<rect x="2" y="13" width="1" height="1" fill="#53cf32" fill-opacity="0.996"/>
<rect x="3" y="13" width="1" height="1" fill="#ffffff"/>
<rect x="4" y="13" width="1" height="1" fill="#c9fcba"/>
<rect x="5" y="13" width="1" height="1" fill="#21ae06"/>
<rect x="6" y="13" width="1" height="1" fill="#48c128"/>
<rect x="7" y="13" width="1" height="1" fill="#f2ffe8"/>
<rect x="8" y="13" width="1" height="1" fill="#fffffc"/>
<rect x="9" y="13" width="1" height="1" fill="#97ff79"/>
<rect x="10" y="13" width="1" height="1" fill="#31f70c"/>
<rect x="11" y="13" width="1" height="1" fill="#24c006"/>
<rect x="12" y="13" width="1" height="1" fill="#28ac0b"/>
<rect x="13" y="13" width="1" height="1" fill="#f0ffe9"/>
<rect x="14" y="13" width="1" height="1" fill="#ffffff"/>
<rect x="15" y="13" width="1" height="1" fill="#ffffff"/>
<rect x="16" y="13" width="1" height="1" fill="#8ce471" fill-opacity="0.996"/>
<rect x="17" y="13" width="1" height="1" fill="#25b209" fill-opacity="0.996"/>
<rect x="18" y="13" width="1" height="1" fill="#1ca503" fill-opacity="0.976"/>
<rect x="19" y="13" width="1" height="1" fill="#6ccd4f"/>
<rect x="20" y="13" width="1" height="1" fill="#34b615" fill-opacity="0.996"/>
<rect x="21" y="13" width="1" height="1" fill="#1fa904" fill-opacity="0.075"/>
<rect x="1" y="14" width="1" height="1" fill="#1ea704" fill-opacity="0.027"/>
<rect x="2" y="14" width="1" height="1" fill="#1ea404" fill-opacity="0.988"/>
<rect x="3" y="14" width="1" height="1" fill="#79d85c"/>
<rect x="4" y="14" width="1" height="1" fill="#ffffff"/>
<rect x="5" y="14" width="1" height="1" fill="#deffd1"/>
<rect x="6" y="14" width="1" height="1" fill="#35b717"/>
<rect x="7" y="14" width="1" height="1" fill="#25b00a"/>
<rect x="8" y="14" width="1" height="1" fill="#3be918"/>
<rect x="9" y="14" width="1" height="1" fill="#30f70b"/>
<rect x="10" y="14" width="1" height="1" fill="#30f70b"/>
<rect x="11" y="14" width="1" height="1" fill="#2ef40b"/>
<rect x="12" y="14" width="1" height="1" fill="#1ca704"/>
<rect x="13" y="14" width="1" height="1" fill="#1ea505"/>
<rect x="14" y="14" width="1" height="1" fill="#21ae06"/>
<rect x="15" y="14" width="1" height="1" fill="#24b206"/>
<rect x="16" y="14" width="1" height="1" fill="#25b209" fill-opacity="0.988"/>
<rect x="17" y="14" width="1" height="1" fill="#24b008" fill-opacity="0.227"/>
<rect x="18" y="14" width="1" height="1" fill="#1ea703" fill-opacity="0.149"/>
<rect x="19" y="14" width="1" height="1" fill="#1fa904" fill-opacity="0.976"/>
<rect x="20" y="14" width="1" height="1" fill="#1ea904" fill-opacity="0.961"/>
<rect x="21" y="14" width="1" height="1" fill="#21aa03" fill-opacity="0.035"/>
<rect x="2" y="15" width="1" height="1" fill="#21b105" fill-opacity="0.086"/>
<rect x="3" y="15" width="1" height="1" fill="#21a306"/>
<rect x="4" y="15" width="1" height="1" fill="#71d154"/>
<rect x="5" y="15" width="1" height="1" fill="#ffffff"/>
<rect x="6" y="15" width="1" height="1" fill="#fbfff4"/>
<rect x="7" y="15" width="1" height="1" fill="#77d759"/>
<rect x="8" y="15" width="1" height="1" fill="#1fac06"/>
<rect x="9" y="15" width="1" height="1" fill="#23c506"/>
<rect x="10" y="15" width="1" height="1" fill="#2ef20b"/>
<rect x="11" y="15" width="1" height="1" fill="#30f70b"/>
<rect x="12" y="15" width="1" height="1" fill="#2ef20b"/>
<rect x="13" y="15" width="1" height="1" fill="#1eac04"/>
<rect x="14" y="15" width="1" height="1" fill="#1a9d03"/>
<rect x="15" y="15" width="1" height="1" fill="#1ca403"/>
<rect x="16" y="15" width="1" height="1" fill="#1ea304" fill-opacity="0.184"/>
<rect x="19" y="15" width="1" height="1" fill="#1fa904" fill-opacity="0.596"/>
<rect x="20" y="15" width="1" height="1" fill="#20aa04" fill-opacity="0.898"/>
<rect x="21" y="15" width="1" height="1" fill="#21ac03" fill-opacity="0.016"/>
<rect x="3" y="16" width="1" height="1" fill="#1da404" fill-opacity="0.114"/>
<rect x="4" y="16" width="1" height="1" fill="#1ea005" fill-opacity="0.996"/>
<rect x="5" y="16" width="1" height="1" fill="#5cc53f" fill-opacity="0.996"/>
<rect x="6" y="16" width="1" height="1" fill="#ffffff"/>
<rect x="7" y="16" width="1" height="1" fill="#ffffff"/>
<rect x="8" y="16" width="1" height="1" fill="#b0e99d"/>
<rect x="9" y="16" width="1" height="1" fill="#1e9d06"/>
<rect x="10" y="16" width="1" height="1" fill="#1a9d03"/>
<rect x="11" y="16" width="1" height="1" fill="#24c506"/>
<rect x="12" y="16" width="1" height="1" fill="#23c006"/>
<rect x="13" y="16" width="1" height="1" fill="#178c02"/>
<rect x="14" y="16" width="1" height="1" fill="#1a9c03"/>
<rect x="15" y="16" width="1" height="1" fill="#1fac03" fill-opacity="0.231"/>
<rect x="4" y="17" width="1" height="1" fill="#1b9c03" fill-opacity="0.118"/>
<rect x="5" y="17" width="1" height="1" fill="#1a9b03" fill-opacity="0.973"/>
<rect x="6" y="17" width="1" height="1" fill="#58c23d"/>
<rect x="7" y="17" width="1" height="1" fill="#fffff9"/>
<rect x="8" y="17" width="1" height="1" fill="#ffffff"/>
<rect x="9" y="17" width="1" height="1" fill="#e8ffdf"/>
<rect x="10" y="17" width="1" height="1" fill="#31a516"/>
<rect x="11" y="17" width="1" height="1" fill="#199103"/>
<rect x="12" y="17" width="1" height="1" fill="#178b02"/>
<rect x="13" y="17" width="1" height="1" fill="#189103"/>
<rect x="14" y="17" width="1" height="1" fill="#1da703" fill-opacity="0.188"/>
<rect x="5" y="18" width="1" height="1" fill="#188c03" fill-opacity="0.031"/>
<rect x="6" y="18" width="1" height="1" fill="#199603" fill-opacity="0.769"/>
<rect x="7" y="18" width="1" height="1" fill="#1c9d04" fill-opacity="0.996"/>
<rect x="8" y="18" width="1" height="1" fill="#ccf9be"/>
<rect x="9" y="18" width="1" height="1" fill="#ffffff"/>
<rect x="10" y="18" width="1" height="1" fill="#fffffe"/>
<rect x="11" y="18" width="1" height="1" fill="#67c84b"/>
<rect x="12" y="18" width="1" height="1" fill="#199503"/>
<rect x="13" y="18" width="1" height="1" fill="#1ca703" fill-opacity="0.91"/>
<rect x="14" y="18" width="1" height="1" fill="#1caa03" fill-opacity="0.004"/>
<rect x="6" y="19" width="1" height="1" fill="#168902" fill-opacity="0.055"/>
<rect x="7" y="19" width="1" height="1" fill="#189203" fill-opacity="0.506"/>
<rect x="8" y="19" width="1" height="1" fill="#1ca004" fill-opacity="0.898"/>
<rect x="9" y="19" width="1" height="1" fill="#41c021" fill-opacity="0.976"/>
<rect x="10" y="19" width="1" height="1" fill="#42c025" fill-opacity="0.996"/>
<rect x="11" y="19" width="1" height="1" fill="#21ae06"/>
<rect x="12" y="19" width="1" height="1" fill="#1cac03" fill-opacity="0.992"/>
<rect x="13" y="19" width="1" height="1" fill="#1eac04" fill-opacity="0.082"/>
</svg>