<?xml version="1.0" encoding="UTF-8" standalone="no"?>
<svg xmlns="http://www.w3.org/2000/svg" width="26" height="21" shape-rendering="crispEdges">
<rect x="8" y="2" width="1" height="1" fill="#02a100" fill-opacity="0.408"/>
<rect x="9" y="2" width="1" height="1" fill="#0baa00" fill-opacity="0.933"/>
<rect x="10" y="2" width="1" height="1" fill="#0bab00"/>
<rect x="11" y="2" width="1" height="1" fill="#01a000"/>
<rect x="12" y="2" width="1" height="1" fill="#01a000"/>
<rect x="13" y="2" width="1" height="1" fill="#00a000" fill-opacity="0.612"/>
<rect x="14" y="2" width="1" height="1" fill="#00a000" fill-opacity="0.165"/>
<rect x="17" y="2" width="1" height="1" fill="#006700" fill-opacity="0.933"/>
<rect x="18" y="2" width="1" height="1" fill="#006700" fill-opacity="0.349"/>
<rect x="6" y="3" width="1" height="1" fill="#14a400" fill-opacity="0.012"/>
<rect x="7" y="3" width="1" height="1" fill="#03a200" fill-opacity="0.89"/>
<rect x="8" y="3" width="1" height="1" fill="#18b200" fill-opacity="0.996"/>
<rect x="9" y="3" width="1" height="1" fill="#23ca00"/>
<rect x="10" y="3" width="1" height="1" fill="#32d411"/>
<rect x="11" y="3" width="1" height="1" fill="#35d711"/>
<rect x="12" y="3" width="1" height="1" fill="#2bd707"/>
<rect x="13" y="3" width="1" height="1" fill="#21c100"/>
<rect x="14" y="3" width="1" height="1" fill="#0dab00"/>
<rect x="15" y="3" width="1" height="1" fill="#08a500" fill-opacity="0.459"/>
<rect x="17" y="3" width="1" height="1" fill="#006700"/>
<rect x="18" y="3" width="1" height="1" fill="#006500" fill-opacity="0.557"/>
<rect x="19" y="3" width="1" height="1" fill="#006700" fill-opacity="0.125"/>
<rect x="6" y="4" width="1" height="1" fill="#02a200" fill-opacity="0.702"/>
<rect x="7" y="4" width="1" height="1" fill="#15b600"/>
<rect x="8" y="4" width="1" height="1" fill="#2cdf01"/>
<rect x="9" y="4" width="1" height="1" fill="#3be516"/>
<rect x="10" y="4" width="1" height="1" fill="#47e824"/>
<rect x="11" y="4" width="1" height="1" fill="#37de17"/>
<rect x="12" y="4" width="1" height="1" fill="#34df12"/>
<rect x="13" y="4" width="1" height="1" fill="#32dd0d"/>
<rect x="14" y="4" width="1" height="1" fill="#2fd700"/>
<rect x="15" y="4" width="1" height="1" fill="#19b400" fill-opacity="0.902"/>
<rect x="16" y="4" width="1" height="1" fill="#12ac00" fill-opacity="0.286"/>
<rect x="17" y="4" width="1" height="1" fill="#006700"/>
<rect x="18" y="4" width="1" height="1" fill="#006700"/>
<rect x="19" y="4" width="1" height="1" fill="#006700"/>
<rect x="20" y="4" width="1" height="1" fill="#006700" fill-opacity="0.157"/>
<rect x="5" y="5" width="1" height="1" fill="#01a000" fill-opacity="0.675"/>
<rect x="6" y="5" width="1" height="1" fill="#15b602"/>
<rect x="7" y="5" width="1" height="1" fill="#33df0b"/>
<rect x="8" y="5" width="1" height="1" fill="#42ef21"/>
<rect x="9" y="5" width="1" height="1" fill="#4df130"/>
<rect x="10" y="5" width="1" height="1" fill="#49ef29"/>
<rect x="11" y="5" width="1" height="1" fill="#46fa29"/>
<rect x="12" y="5" width="1" height="1" fill="#41fa24"/>
<rect x="13" y="5" width="1" height="1" fill="#37ef17"/>
<rect x="14" y="5" width="1" height="1" fill="#29dc07"/>
<rect x="15" y="5" width="1" height="1" fill="#1fc100"/>
<rect x="16" y="5" width="1" height="1" fill="#119b00"/>
<rect x="17" y="5" width="1" height="1" fill="#26b400" fill-opacity="0.024"/>
<rect x="3" y="6" width="1" height="1" fill="#dd0000" fill-opacity="0.369"/>
<rect x="4" y="6" width="1" height="1" fill="#ff0000" fill-opacity="0.427"/>
<rect x="5" y="6" width="1" height="1" fill="#1aac00" fill-opacity="0.988"/>
<rect x="6" y="6" width="1" height="1" fill="#3ed412"/>
<rect x="7" y="6" width="1" height="1" fill="#50eb2c"/>
<rect x="8" y="6" width="1" height="1" fill="#53f035"/>
<rect x="9" y="6" width="1" height="1" fill="#56f933"/>
<rect x="10" y="6" width="1" height="1" fill="#61ff3f"/>
<rect x="11" y="6" width="1" height="1" fill="#59ff3b"/>
<rect x="12" y="6" width="1" height="1" fill="#45ff2b"/>
<rect x="13" y="6" width="1" height="1" fill="#40f724"/>
<rect x="14" y="6" width="1" height="1" fill="#31e211"/>
<rect x="15" y="6" width="1" height="1" fill="#27da00"/>
<rect x="16" y="6" width="1" height="1" fill="#0dac00"/>
<rect x="17" y="6" width="1" height="1" fill="#05a100" fill-opacity="0.063"/>
<rect x="3" y="7" width="1" height="1" fill="#e90000" fill-opacity="0.976"/>
<rect x="4" y="7" width="1" height="1" fill="#ff0000"/>
<rect x="5" y="7" width="1" height="1" fill="#23b400"/>
<rect x="6" y="7" width="1" height="1" fill="#49db20"/>
<rect x="7" y="7" width="1" height="1" fill="#50f22b"/>
<rect x="8" y="7" width="1" height="1" fill="#555453"/>
<rect x="9" y="7" width="1" height="1" fill="#777777"/>
<rect x="10" y="7" width="1" height="1" fill="#5fff33"/>
<rect x="11" y="7" width="1" height="1" fill="#65ff48"/>
<rect x="12" y="7" width="1" height="1" fill="#54ff39"/>
<rect x="13" y="7" width="1" height="1" fill="#45fd2b"/>
<rect x="14" y="7" width="1" height="1" fill="#39e81e"/>
<rect x="15" y="7" width="1" height="1" fill="#2ad70b"/>
<rect x="16" y="7" width="1" height="1" fill="#0ec000"/>
<rect x="17" y="7" width="1" height="1" fill="#05a400" fill-opacity="0.392"/>
<rect x="4" y="8" width="1" height="1" fill="#ff0000" fill-opacity="0.953"/>
<rect x="5" y="8" width="1" height="1" fill="#25b500"/>
<rect x="6" y="8" width="1" height="1" fill="#4de224"/>
<rect x="7" y="8" width="1" height="1" fill="#4af620"/>
<rect x="8" y="8" width="1" height="1" fill="#4e4e4d"/>
<rect x="9" y="8" width="1" height="1" fill="#1c1c1d"/>
<rect x="10" y="8" width="1" height="1" fill="#51fd2c"/>
<rect x="11" y="8" width="1" height="1" fill="#5aff37"/>
<rect x="12" y="8" width="1" height="1" fill="#55ff36"/>
<rect x="13" y="8" width="1" height="1" fill="#4aff2d"/>
<rect x="14" y="8" width="1" height="1" fill="#3eeb20"/>
<rect x="15" y="8" width="1" height="1" fill="#2bdb0c"/>
<rect x="16" y="8" width="1" height="1" fill="#1fd200"/>
<rect x="17" y="8" width="1" height="1" fill="#0aa600" fill-opacity="0.78"/>
<rect x="18" y="8" width="1" height="1" fill="#00a000" fill-opacity="0.067"/>
<rect x="5" y="9" width="1" height="1" fill="#23b900"/>
<rect x="6" y="9" width="1" height="1" fill="#41e017"/>
<rect x="7" y="9" width="1" height="1" fill="#4cf426"/>
<rect x="8" y="9" width="1" height="1" fill="#53f831"/>
<rect x="9" y="9" width="1" height="1" fill="#44d527"/>
<rect x="10" y="9" width="1" height="1" fill="#2db813"/>
<rect x="11" y="9" width="1" height="1" fill="#30ce0a"/>
<rect x="12" y="9" width="1" height="1" fill="#4fff28"/>
<rect x="13" y="9" width="1" height="1" fill="#53ff2e"/>
<rect x="14" y="9" width="1" height="1" fill="#40f51d"/>
<rect x="15" y="9" width="1" height="1" fill="#38e416"/>
<rect x="16" y="9" width="1" height="1" fill="#2ada0a"/>
<rect x="17" y="9" width="1" height="1" fill="#11c300"/>
<rect x="18" y="9" width="1" height="1" fill="#07a500" fill-opacity="0.569"/>
<rect x="5" y="10" width="1" height="1" fill="#1ab600" fill-opacity="0.973"/>
<rect x="6" y="10" width="1" height="1" fill="#39de0c"/>
<rect x="7" y="10" width="1" height="1" fill="#44f11c"/>
<rect x="8" y="10" width="1" height="1" fill="#52fb2b"/>
<rect x="9" y="10" width="1" height="1" fill="#5aff31"/>
<rect x="10" y="10" width="1" height="1" fill="#5ffd33"/>
<rect x="11" y="10" width="1" height="1" fill="#59ff2f"/>
<rect x="12" y="10" width="1" height="1" fill="#53ff30"/>
<rect x="13" y="10" width="1" height="1" fill="#4aff25"/>
<rect x="14" y="10" width="1" height="1" fill="#44fd21"/>
<rect x="15" y="10" width="1" height="1" fill="#3af014"/>
<rect x="16" y="10" width="1" height="1" fill="#33e513"/>
<rect x="17" y="10" width="1" height="1" fill="#24da03"/>
<rect x="18" y="10" width="1" height="1" fill="#19ba00" fill-opacity="0.992"/>
<rect x="19" y="10" width="1" height="1" fill="#10a900" fill-opacity="0.706"/>
<rect x="20" y="10" width="1" height="1" fill="#029500" fill-opacity="0.114"/>
<rect x="5" y="11" width="1" height="1" fill="#16b000"/>
<rect x="6" y="11" width="1" height="1" fill="#35de05"/>
<rect x="7" y="11" width="1" height="1" fill="#3ae714"/>
<rect x="8" y="11" width="1" height="1" fill="#4cf927"/>
<rect x="9" y="11" width="1" height="1" fill="#5efe35"/>
<rect x="10" y="11" width="1" height="1" fill="#62ff41"/>
<rect x="11" y="11" width="1" height="1" fill="#5cff3b"/>
<rect x="12" y="11" width="1" height="1" fill="#51ff29"/>
<rect x="13" y="11" width="1" height="1" fill="#4fff2f"/>
<rect x="14" y="11" width="1" height="1" fill="#4bfd31"/>
<rect x="15" y="11" width="1" height="1" fill="#46fe21"/>
<rect x="16" y="11" width="1" height="1" fill="#3efd1c"/>
<rect x="17" y="11" width="1" height="1" fill="#30ec0f"/>
<rect x="18" y="11" width="1" height="1" fill="#1fd701"/>
<rect x="19" y="11" width="1" height="1" fill="#1abc00"/>
<rect x="20" y="11" width="1" height="1" fill="#10a700" fill-opacity="0.89"/>
<rect x="21" y="11" width="1" height="1" fill="#009d00" fill-opacity="0.451"/>
<rect x="22" y="11" width="1" height="1" fill="#00a000" fill-opacity="0.016"/>
<rect x="5" y="12" width="1" height="1" fill="#19b300" fill-opacity="0.953"/>
<rect x="6" y="12" width="1" height="1" fill="#32d400"/>
<rect x="7" y="12" width="1" height="1" fill="#3cdc14"/>
<rect x="8" y="12" width="1" height="1" fill="#47f325"/>
<rect x="9" y="12" width="1" height="1" fill="#55fc2c"/>
<rect x="10" y="12" width="1" height="1" fill="#65ff3a"/>
<rect x="11" y="12" width="1" height="1" fill="#55ff2a"/>
<rect x="12" y="12" width="1" height="1" fill="#2ad301"/>
<rect x="13" y="12" width="1" height="1" fill="#4ce026"/>
<rect x="14" y="12" width="1" height="1" fill="#53f935"/>
<rect x="15" y="12" width="1" height="1" fill="#46f925"/>
<rect x="16" y="12" width="1" height="1" fill="#31ee08"/>
<rect x="17" y="12" width="1" height="1" fill="#18d300"/>
<rect x="18" y="12" width="1" height="1" fill="#33e610"/>
<rect x="19" y="12" width="1" height="1" fill="#2bdd09"/>
<rect x="20" y="12" width="1" height="1" fill="#26c100"/>
<rect x="21" y="12" width="1" height="1" fill="#19af00"/>
<rect x="22" y="12" width="1" height="1" fill="#1eb300" fill-opacity="0.145"/>
<rect x="5" y="13" width="1" height="1" fill="#14ae00" fill-opacity="0.753"/>
<rect x="6" y="13" width="1" height="1" fill="#2bc300"/>
<rect x="7" y="13" width="1" height="1" fill="#45db1b"/>
<rect x="8" y="13" width="1" height="1" fill="#46ea1f"/>
<rect x="9" y="13" width="1" height="1" fill="#4bf527"/>
<rect x="10" y="13" width="1" height="1" fill="#4dfc21"/>
<rect x="11" y="13" width="1" height="1" fill="#55ff28"/>
<rect x="12" y="13" width="1" height="1" fill="#2cce07"/>
<rect x="13" y="13" width="1" height="1" fill="#1bbb01"/>
<rect x="14" y="13" width="1" height="1" fill="#42dd1c"/>
<rect x="15" y="13" width="1" height="1" fill="#3ade19"/>
<rect x="16" y="13" width="1" height="1" fill="#11c000"/>
<rect x="17" y="13" width="1" height="1" fill="#10c900"/>
<rect x="18" y="13" width="1" height="1" fill="#40ec1f"/>
<rect x="19" y="13" width="1" height="1" fill="#34ea13"/>
<rect x="20" y="13" width="1" height="1" fill="#19c200"/>
<rect x="21" y="13" width="1" height="1" fill="#13aa00" fill-opacity="0.847"/>
<rect x="22" y="13" width="1" height="1" fill="#2fd100" fill-opacity="0.133"/>
<rect x="5" y="14" width="1" height="1" fill="#09a600" fill-opacity="0.424"/>
<rect x="6" y="14" width="1" height="1" fill="#20b500" fill-opacity="0.996"/>
<rect x="7" y="14" width="1" height="1" fill="#42d91b"/>
<rect x="8" y="14" width="1" height="1" fill="#39e116"/>
<rect x="9" y="14" width="1" height="1" fill="#45ed1f"/>
<rect x="10" y="14" width="1" height="1" fill="#4bf61d"/>
<rect x="11" y="14" width="1" height="1" fill="#4aff20"/>
<rect x="12" y="14" width="1" height="1" fill="#48fb1f"/>
<rect x="13" y="14" width="1" height="1" fill="#13b700"/>
<rect x="14" y="14" width="1" height="1" fill="#16af00"/>
<rect x="15" y="14" width="1" height="1" fill="#15af00"/>
<rect x="16" y="14" width="1" height="1" fill="#06c100"/>
<rect x="17" y="14" width="1" height="1" fill="#47f525"/>
<rect x="18" y="14" width="1" height="1" fill="#37fa12"/>
<rect x="19" y="14" width="1" height="1" fill="#20df01"/>
<rect x="20" y="14" width="1" height="1" fill="#15b700" fill-opacity="0.996"/>
<rect x="21" y="14" width="1" height="1" fill="#19d800" fill-opacity="0.161"/>
<rect x="22" y="14" width="1" height="1" fill="#55ff36" fill-opacity="0.004"/>
<rect x="5" y="15" width="1" height="1" fill="#30bc00" fill-opacity="0.216"/>
<rect x="6" y="15" width="1" height="1" fill="#20b500" fill-opacity="0.973"/>
<rect x="7" y="15" width="1" height="1" fill="#2dcc07"/>
<rect x="8" y="15" width="1" height="1" fill="#34df13"/>
<rect x="9" y="15" width="1" height="1" fill="#42ee19"/>
<rect x="10" y="15" width="1" height="1" fill="#44ed19"/>
<rect x="11" y="15" width="1" height="1" fill="#4ff724"/>
<rect x="12" y="15" width="1" height="1" fill="#4dff26"/>
<rect x="13" y="15" width="1" height="1" fill="#48fd25"/>
<rect x="14" y="15" width="1" height="1" fill="#4bf625"/>
<rect x="15" y="15" width="1" height="1" fill="#4af525"/>
<rect x="16" y="15" width="1" height="1" fill="#3ffe19"/>
<rect x="17" y="15" width="1" height="1" fill="#3af515"/>
<rect x="18" y="15" width="1" height="1" fill="#22df01"/>
<rect x="19" y="15" width="1" height="1" fill="#1ebc00" fill-opacity="0.996"/>
<rect x="20" y="15" width="1" height="1" fill="#22c300" fill-opacity="0.329"/>
<rect x="21" y="15" width="1" height="1" fill="#55ff36" fill-opacity="0.02"/>
<rect x="5" y="16" width="1" height="1" fill="#30bc00" fill-opacity="0.078"/>
<rect x="6" y="16" width="1" height="1" fill="#21b400" fill-opacity="0.796"/>
<rect x="7" y="16" width="1" height="1" fill="#20c300" fill-opacity="0.992"/>
<rect x="8" y="16" width="1" height="1" fill="#27da05"/>
<rect x="9" y="16" width="1" height="1" fill="#30db0d"/>
<rect x="10" y="16" width="1" height="1" fill="#36e610"/>
<rect x="11" y="16" width="1" height="1" fill="#44ed1c"/>
<rect x="12" y="16" width="1" height="1" fill="#4bf921"/>
<rect x="13" y="16" width="1" height="1" fill="#4bff25"/>
<rect x="14" y="16" width="1" height="1" fill="#46fd1b"/>
<rect x="15" y="16" width="1" height="1" fill="#3df915"/>
<rect x="16" y="16" width="1" height="1" fill="#33f110"/>
<rect x="17" y="16" width="1" height="1" fill="#2bde08"/>
<rect x="18" y="16" width="1" height="1" fill="#1ab800" fill-opacity="0.996"/>
<rect x="19" y="16" width="1" height="1" fill="#24b800" fill-opacity="0.42"/>
<rect x="20" y="16" width="1" height="1" fill="#55ff36" fill-opacity="0.024"/>
<rect x="21" y="16" width="1" height="1" fill="#55ff36" fill-opacity="0.008"/>
<rect x="6" y="17" width="1" height="1" fill="#30bc00" fill-opacity="0.286"/>
<rect x="7" y="17" width="1" height="1" fill="#27b700" fill-opacity="0.961"/>
<rect x="8" y="17" width="1" height="1" fill="#21c300" fill-opacity="0.996"/>
<rect x="9" y="17" width="1" height="1" fill="#26d700"/>
<rect x="10" y="17" width="1" height="1" fill="#31e20b"/>
<rect x="11" y="17" width="1" height="1" fill="#3ce313"/>
<rect x="12" y="17" width="1" height="1" fill="#3ee816"/>
<rect x="13" y="17" width="1" height="1" fill="#3ced18"/>
<rect x="14" y="17" width="1" height="1" fill="#37ee12"/>
<rect x="15" y="17" width="1" height="1" fill="#2ee60a"/>
<rect x="16" y="17" width="1" height="1" fill="#27d700" fill-opacity="0.988"/>
<rect x="17" y="17" width="1" height="1" fill="#0caf00" fill-opacity="0.98"/>
<rect x="18" y="17" width="1" height="1" fill="#15ac00" fill-opacity="0.329"/>
<rect x="19" y="17" width="1" height="1" fill="#3afe16" fill-opacity="0.031"/>
<rect x="20" y="17" width="1" height="1" fill="#55ff36" fill-opacity="0.004"/>
<rect x="6" y="18" width="1" height="1" fill="#30bc00" fill-opacity="0.02"/>
<rect x="7" y="18" width="1" height="1" fill="#2aba00" fill-opacity="0.384"/>
<rect x="8" y="18" width="1" height="1" fill="#22b700" fill-opacity="0.945"/>
<rect x="9" y="18" width="1" height="1" fill="#1fc700"/>
<rect x="10" y="18" width="1" height="1" fill="#2bda06"/>
<rect x="11" y="18" width="1" height="1" fill="#36da10"/>
<rect x="12" y="18" width="1" height="1" fill="#36db0f"/>
<rect x="13" y="18" width="1" height="1" fill="#2dd605"/>
<rect x="14" y="18" width="1" height="1" fill="#26d000"/>
<rect x="15" y="18" width="1" height="1" fill="#12b800" fill-opacity="0.988"/>
<rect x="16" y="18" width="1" height="1" fill="#11a600" fill-opacity="0.945"/>
<rect x="17" y="18" width="1" height="1" fill="#13ac00" fill-opacity="0.278"/>
<rect x="18" y="18" width="1" height="1" fill="#29b800" fill-opacity="0.02"/>
<rect x="7" y="19" width="1" height="1" fill="#30bc00" fill-opacity="0.059"/>
<rect x="8" y="19" width="1" height="1" fill="#16ad00" fill-opacity="0.298"/>
<rect x="9" y="19" width="1" height="1" fill="#19af00" fill-opacity="0.596"/>
<rect x="10" y="19" width="1" height="1" fill="#1bb400" fill-opacity="0.984"/>
<rect x="11" y="19" width="1" height="1" fill="#21b800" fill-opacity="0.996"/>
<rect x="12" y="19" width="1" height="1" fill="#1fb300"/>
<rect x="13" y="19" width="1" height="1" fill="#1cb100"/>
<rect x="14" y="19" width="1" height="1" fill="#14ac00" fill-opacity="0.992"/>
<rect x="15" y="19" width="1" height="1" fill="#0ca600" fill-opacity="0.529"/>
<rect x="16" y="19" width="1" height="1" fill="#14ad00" fill-opacity="0.09"/>
<rect x="17" y="19" width="1" height="1" fill="#00a000" fill-opacity="0.004"/>
</svg>