<?xml version="1.0" encoding="UTF-8" standalone="no"?>
<svg xmlns="http://www.w3.org/2000/svg" width="26" height="21" shape-rendering="crispEdges">
<rect x="23" y="0" width="1" height="1" fill="#1c41b5" fill-opacity="0.714"/>
<rect x="24" y="0" width="1" height="1" fill="#1c41b5"/>
<rect x="19" y="1" width="1" height="1" fill="#1b3bc6" fill-opacity="0.827"/>
<rect x="20" y="1" width="1" height="1" fill="#1330be"/>
<rect x="21" y="1" width="1" height="1" fill="#1533c0"/>
<rect x="22" y="1" width="1" height="1" fill="#1735c2"/>
<rect x="23" y="1" width="1" height="1" fill="#1d43b9"/>
<rect x="24" y="1" width="1" height="1" fill="#1c41b5"/>
<rect x="13" y="2" width="1" height="1" fill="#2647d2" fill-opacity="0.949"/>
<rect x="14" y="2" width="1" height="1" fill="#1330be"/>
<rect x="15" y="2" width="1" height="1" fill="#1533c0"/>
<rect x="16" y="2" width="1" height="1" fill="#1634c0"/>
<rect x="17" y="2" width="1" height="1" fill="#1838c4"/>
<rect x="18" y="2" width="1" height="1" fill="#1432bf"/>
<rect x="19" y="2" width="1" height="1" fill="#6f9bff"/>
<rect x="20" y="2" width="1" height="1" fill="#ffffff"/>
<rect x="21" y="2" width="1" height="1" fill="#ffffff"/>
<rect x="22" y="2" width="1" height="1" fill="#ffffff"/>
<rect x="23" y="2" width="1" height="1" fill="#3456d4"/>
<rect x="24" y="2" width="1" height="1" fill="#1d44b5" fill-opacity="0.988"/>
<rect x="13" y="3" width="1" height="1" fill="#1b3bc6" fill-opacity="0.996"/>
<rect x="14" y="3" width="1" height="1" fill="#83a9ff"/>
<rect x="15" y="3" width="1" height="1" fill="#ffffff"/>
<rect x="16" y="3" width="1" height="1" fill="#ffffff"/>
<rect x="17" y="3" width="1" height="1" fill="#ffffff"/>
<rect x="18" y="3" width="1" height="1" fill="#ffffff"/>
<rect x="19" y="3" width="1" height="1" fill="#ffffff"/>
<rect x="20" y="3" width="1" height="1" fill="#ffffff"/>
<rect x="21" y="3" width="1" height="1" fill="#ffffff"/>
<rect x="22" y="3" width="1" height="1" fill="#e1f3ff"/>
<rect x="23" y="3" width="1" height="1" fill="#3659c3" fill-opacity="0.996"/>
<rect x="24" y="3" width="1" height="1" fill="#1d44b4" fill-opacity="0.984"/>
<rect x="5" y="4" width="1" height="1" fill="#1f45bb" fill-opacity="0.031"/>
<rect x="6" y="4" width="1" height="1" fill="#466df3" fill-opacity="0.008"/>
<rect x="13" y="4" width="1" height="1" fill="#2445cf" fill-opacity="0.929"/>
<rect x="14" y="4" width="1" height="1" fill="#738be8"/>
<rect x="15" y="4" width="1" height="1" fill="#ffffff"/>
<rect x="16" y="4" width="1" height="1" fill="#ffffff"/>
<rect x="17" y="4" width="1" height="1" fill="#ffffff"/>
<rect x="18" y="4" width="1" height="1" fill="#ffffff"/>
<rect x="19" y="4" width="1" height="1" fill="#ffffff"/>
<rect x="20" y="4" width="1" height="1" fill="#ffffff"/>
<rect x="21" y="4" width="1" height="1" fill="#f2feff"/>
<rect x="22" y="4" width="1" height="1" fill="#4664d0" fill-opacity="0.996"/>
<rect x="23" y="4" width="1" height="1" fill="#1f4cad" fill-opacity="0.78"/>
<rect x="24" y="4" width="1" height="1" fill="#1c41b5" fill-opacity="0.035"/>
<rect x="3" y="5" width="1" height="1" fill="#1f46bc" fill-opacity="0.408"/>
<rect x="4" y="5" width="1" height="1" fill="#1c41b6"/>
<rect x="5" y="5" width="1" height="1" fill="#1634bf"/>
<rect x="6" y="5" width="1" height="1" fill="#1533bf"/>
<rect x="7" y="5" width="1" height="1" fill="#1432bf"/>
<rect x="8" y="5" width="1" height="1" fill="#2748d2" fill-opacity="0.82"/>
<rect x="9" y="5" width="1" height="1" fill="#1330be" fill-opacity="0.024"/>
<rect x="11" y="5" width="1" height="1" fill="#2241ce" fill-opacity="0.973"/>
<rect x="12" y="5" width="1" height="1" fill="#2040cd" fill-opacity="0.98"/>
<rect x="13" y="5" width="1" height="1" fill="#1330be" fill-opacity="0.047"/>
<rect x="14" y="5" width="1" height="1" fill="#3c5ad7"/>
<rect x="15" y="5" width="1" height="1" fill="#ccd6ff"/>
<rect x="16" y="5" width="1" height="1" fill="#ffffff"/>
<rect x="17" y="5" width="1" height="1" fill="#ffffff"/>
<rect x="18" y="5" width="1" height="1" fill="#ffffff"/>
<rect x="19" y="5" width="1" height="1" fill="#f6ffff"/>
<rect x="20" y="5" width="1" height="1" fill="#a6c4ff" fill-opacity="0.996"/>
<rect x="21" y="5" width="1" height="1" fill="#2244c6" fill-opacity="0.984"/>
<rect x="22" y="5" width="1" height="1" fill="#1f49ad" fill-opacity="0.69"/>
<rect x="23" y="5" width="1" height="1" fill="#1c41b5" fill-opacity="0.016"/>
<rect x="2" y="6" width="1" height="1" fill="#1f45bb" fill-opacity="0.812"/>
<rect x="3" y="6" width="1" height="1" fill="#1d43b6"/>
<rect x="4" y="6" width="1" height="1" fill="#3e62e5"/>
<rect x="5" y="6" width="1" height="1" fill="#4066ec"/>
<rect x="6" y="6" width="1" height="1" fill="#365ae3"/>
<rect x="7" y="6" width="1" height="1" fill="#3356de"/>
<rect x="8" y="6" width="1" height="1" fill="#1e3ec9"/>
<rect x="9" y="6" width="1" height="1" fill="#1838c5" fill-opacity="0.973"/>
<rect x="10" y="6" width="1" height="1" fill="#1330be" fill-opacity="0.027"/>
<rect x="11" y="6" width="1" height="1" fill="#1330be"/>
<rect x="12" y="6" width="1" height="1" fill="#2344d0"/>
<rect x="13" y="6" width="1" height="1" fill="#2749d2"/>
<rect x="14" y="6" width="1" height="1" fill="#466df3"/>
<rect x="15" y="6" width="1" height="1" fill="#476ae9"/>
<rect x="16" y="6" width="1" height="1" fill="#ffffff"/>
<rect x="17" y="6" width="1" height="1" fill="#ffffff"/>
<rect x="18" y="6" width="1" height="1" fill="#ffffff"/>
<rect x="19" y="6" width="1" height="1" fill="#ffffff"/>
<rect x="20" y="6" width="1" height="1" fill="#feffff"/>
<rect x="21" y="6" width="1" height="1" fill="#395dd7" fill-opacity="0.996"/>
<rect x="22" y="6" width="1" height="1" fill="#1d45b3" fill-opacity="0.937"/>
<rect x="23" y="6" width="1" height="1" fill="#1c41b5" fill-opacity="0.016"/>
<rect x="1" y="7" width="1" height="1" fill="#1d43b5" fill-opacity="0.027"/>
<rect x="2" y="7" width="1" height="1" fill="#1d43b6"/>
<rect x="3" y="7" width="1" height="1" fill="#2e54d6"/>
<rect x="4" y="7" width="1" height="1" fill="#4169ed"/>
<rect x="5" y="7" width="1" height="1" fill="#527bfd"/>
<rect x="6" y="7" width="1" height="1" fill="#5e85ff"/>
<rect x="7" y="7" width="1" height="1" fill="#86a8ff"/>
<rect x="8" y="7" width="1" height="1" fill="#2d4fd8"/>
<rect x="9" y="7" width="1" height="1" fill="#1432bf"/>
<rect x="10" y="7" width="1" height="1" fill="#1a38c5" fill-opacity="0.388"/>
<rect x="11" y="7" width="1" height="1" fill="#1735c2"/>
<rect x="12" y="7" width="1" height="1" fill="#1c3cc8"/>
<rect x="13" y="7" width="1" height="1" fill="#2b49d0"/>
<rect x="14" y="7" width="1" height="1" fill="#e4ecff"/>
<rect x="15" y="7" width="1" height="1" fill="#f7fdff"/>
<rect x="16" y="7" width="1" height="1" fill="#ffffff"/>
<rect x="17" y="7" width="1" height="1" fill="#ffffff"/>
<rect x="18" y="7" width="1" height="1" fill="#ffffff"/>
<rect x="19" y="7" width="1" height="1" fill="#ffffff"/>
<rect x="20" y="7" width="1" height="1" fill="#ffffff"/>
<rect x="21" y="7" width="1" height="1" fill="#ffffff"/>
<rect x="22" y="7" width="1" height="1" fill="#385bc5"/>
<rect x="23" y="7" width="1" height="1" fill="#1c41b5" fill-opacity="0.98"/>
<rect x="24" y="7" width="1" height="1" fill="#1c41b5" fill-opacity="0.008"/>
<rect x="1" y="8" width="1" height="1" fill="#1f45bc" fill-opacity="0.78"/>
<rect x="2" y="8" width="1" height="1" fill="#1c41bc"/>
<rect x="3" y="8" width="1" height="1" fill="#3457e0"/>
<rect x="4" y="8" width="1" height="1" fill="#4f78f8"/>
<rect x="5" y="8" width="1" height="1" fill="#5e87ff"/>
<rect x="6" y="8" width="1" height="1" fill="#9abbff"/>
<rect x="7" y="8" width="1" height="1" fill="#b0cdff"/>
<rect x="8" y="8" width="1" height="1" fill="#567eff"/>
<rect x="9" y="8" width="1" height="1" fill="#2e51da"/>
<rect x="10" y="8" width="1" height="1" fill="#1735c3" fill-opacity="0.996"/>
<rect x="11" y="8" width="1" height="1" fill="#1e3ec9"/>
<rect x="12" y="8" width="1" height="1" fill="#2846cc"/>
<rect x="13" y="8" width="1" height="1" fill="#ffffff"/>
<rect x="14" y="8" width="1" height="1" fill="#ffffff"/>
<rect x="15" y="8" width="1" height="1" fill="#ffffff"/>
<rect x="16" y="8" width="1" height="1" fill="#ffffff"/>
<rect x="17" y="8" width="1" height="1" fill="#ffffff"/>
<rect x="18" y="8" width="1" height="1" fill="#ffffff"/>
<rect x="19" y="8" width="1" height="1" fill="#ffffff"/>
<rect x="20" y="8" width="1" height="1" fill="#ffffff"/>
<rect x="21" y="8" width="1" height="1" fill="#ffffff"/>
<rect x="22" y="8" width="1" height="1" fill="#dce8ff"/>
<rect x="23" y="8" width="1" height="1" fill="#1c41b6"/>
<rect x="24" y="8" width="1" height="1" fill="#1c41b5" fill-opacity="0.996"/>
<rect x="0" y="9" width="1" height="1" fill="#2349c0" fill-opacity="0.31"/>
<rect x="1" y="9" width="1" height="1" fill="#1d41b6"/>
<rect x="2" y="9" width="1" height="1" fill="#1c3dc5"/>
<rect x="3" y="9" width="1" height="1" fill="#2649d2"/>
<rect x="4" y="9" width="1" height="1" fill="#5d87ff"/>
<rect x="5" y="9" width="1" height="1" fill="#6f9bff"/>
<rect x="6" y="9" width="1" height="1" fill="#7ca5ff"/>
<rect x="7" y="9" width="1" height="1" fill="#7fa6ff"/>
<rect x="8" y="9" width="1" height="1" fill="#6791ff"/>
<rect x="9" y="9" width="1" height="1" fill="#5f8aff"/>
<rect x="10" y="9" width="1" height="1" fill="#476cf2"/>
<rect x="11" y="9" width="1" height="1" fill="#2849d6"/>
<rect x="12" y="9" width="1" height="1" fill="#d6e0ff"/>
<rect x="13" y="9" width="1" height="1" fill="#ffffff"/>
<rect x="14" y="9" width="1" height="1" fill="#96bcff"/>
<rect x="15" y="9" width="1" height="1" fill="#7ba8ff"/>
<rect x="16" y="9" width="1" height="1" fill="#7aa8ff"/>
<rect x="17" y="9" width="1" height="1" fill="#ffffff"/>
<rect x="18" y="9" width="1" height="1" fill="#ffffff"/>
<rect x="19" y="9" width="1" height="1" fill="#ffffff"/>
<rect x="20" y="9" width="1" height="1" fill="#4160db" fill-opacity="0.965"/>
<rect x="21" y="9" width="1" height="1" fill="#2b4ed0" fill-opacity="0.898"/>
<rect x="22" y="9" width="1" height="1" fill="#1f45bb" fill-opacity="0.949"/>
<rect x="23" y="9" width="1" height="1" fill="#1c41b5" fill-opacity="0.996"/>
<rect x="24" y="9" width="1" height="1" fill="#1c41b5" fill-opacity="0.992"/>
<rect x="0" y="10" width="1" height="1" fill="#1e43bb" fill-opacity="0.988"/>
<rect x="1" y="10" width="1" height="1" fill="#4f6fce"/>
<rect x="2" y="10" width="1" height="1" fill="#2846c5"/>
<rect x="3" y="10" width="1" height="1" fill="#1432bf"/>
<rect x="4" y="10" width="1" height="1" fill="#4770f2"/>
<rect x="5" y="10" width="1" height="1" fill="#444141"/>
<rect x="6" y="10" width="1" height="1" fill="#000000"/>
<rect x="7" y="10" width="1" height="1" fill="#000000"/>
<rect x="8" y="10" width="1" height="1" fill="#000001"/>
<rect x="9" y="10" width="1" height="1" fill="#444141"/>
<rect x="10" y="10" width="1" height="1" fill="#78a5ff"/>
<rect x="11" y="10" width="1" height="1" fill="#5781ff"/>
<rect x="12" y="10" width="1" height="1" fill="#dae8ff"/>
<rect x="13" y="10" width="1" height="1" fill="#ffffff"/>
<rect x="14" y="10" width="1" height="1" fill="#7ba9ff"/>
<rect x="15" y="10" width="1" height="1" fill="#ffffff"/>
<rect x="16" y="10" width="1" height="1" fill="#7ba9ff"/>
<rect x="17" y="10" width="1" height="1" fill="#79a6ff"/>
<rect x="18" y="10" width="1" height="1" fill="#ffffff"/>
<rect x="19" y="10" width="1" height="1" fill="#ffffff"/>
<rect x="20" y="10" width="1" height="1" fill="#3e60c5" fill-opacity="0.863"/>
<rect x="21" y="10" width="1" height="1" fill="#1c41b5" fill-opacity="0.678"/>
<rect x="22" y="10" width="1" height="1" fill="#1c41b5" fill-opacity="0.506"/>
<rect x="23" y="10" width="1" height="1" fill="#1c41b5" fill-opacity="0.698"/>
<rect x="24" y="10" width="1" height="1" fill="#1c41b5" fill-opacity="0.231"/>
<rect x="0" y="11" width="1" height="1" fill="#1f44bd" fill-opacity="0.98"/>
<rect x="1" y="11" width="1" height="1" fill="#ffffff"/>
<rect x="2" y="11" width="1" height="1" fill="#ffffff"/>
<rect x="3" y="11" width="1" height="1" fill="#1f3ec0"/>
<rect x="4" y="11" width="1" height="1" fill="#2245c8"/>
<rect x="5" y="11" width="1" height="1" fill="#ffffff"/>
<rect x="6" y="11" width="1" height="1" fill="#ffffff"/>
<rect x="7" y="11" width="1" height="1" fill="#000000"/>
<rect x="8" y="11" width="1" height="1" fill="#ffffff"/>
<rect x="9" y="11" width="1" height="1" fill="#ffffff"/>
<rect x="10" y="11" width="1" height="1" fill="#7ba8ff"/>
<rect x="11" y="11" width="1" height="1" fill="#3d61e6"/>
<rect x="12" y="11" width="1" height="1" fill="#98acff"/>
<rect x="13" y="11" width="1" height="1" fill="#ffffff"/>
<rect x="14" y="11" width="1" height="1" fill="#ffffff"/>
<rect x="15" y="11" width="1" height="1" fill="#ffffff"/>
<rect x="16" y="11" width="1" height="1" fill="#8cb0ff"/>
<rect x="17" y="11" width="1" height="1" fill="#446af0"/>
<rect x="18" y="11" width="1" height="1" fill="#d2e8ff"/>
<rect x="19" y="11" width="1" height="1" fill="#ffffff"/>
<rect x="20" y="11" width="1" height="1" fill="#3558c0"/>
<rect x="21" y="11" width="1" height="1" fill="#1c41b5" fill-opacity="0.278"/>
<rect x="0" y="12" width="1" height="1" fill="#1e44ba" fill-opacity="0.886"/>
<rect x="1" y="12" width="1" height="1" fill="#2448c4"/>
<rect x="2" y="12" width="1" height="1" fill="#ffffff"/>
<rect x="3" y="12" width="1" height="1" fill="#ffffff"/>
<rect x="4" y="12" width="1" height="1" fill="#3b5dc8"/>
<rect x="5" y="12" width="1" height="1" fill="#3b62de"/>
<rect x="6" y="12" width="1" height="1" fill="#ffffff"/>
<rect x="7" y="12" width="1" height="1" fill="#ffffff"/>
<rect x="8" y="12" width="1" height="1" fill="#ffffff"/>
<rect x="9" y="12" width="1" height="1" fill="#c4deff"/>
<rect x="10" y="12" width="1" height="1" fill="#7aa6ff"/>
<rect x="11" y="12" width="1" height="1" fill="#395de4"/>
<rect x="12" y="12" width="1" height="1" fill="#3255de"/>
<rect x="13" y="12" width="1" height="1" fill="#dae5ff"/>
<rect x="14" y="12" width="1" height="1" fill="#ffffff"/>
<rect x="15" y="12" width="1" height="1" fill="#c3d8ff"/>
<rect x="16" y="12" width="1" height="1" fill="#4367e8" fill-opacity="0.984"/>
<rect x="17" y="12" width="1" height="1" fill="#3458e0" fill-opacity="0.78"/>
<rect x="18" y="12" width="1" height="1" fill="#4d72f2" fill-opacity="0.992"/>
<rect x="19" y="12" width="1" height="1" fill="#97aceb"/>
<rect x="20" y="12" width="1" height="1" fill="#264abb"/>
<rect x="21" y="12" width="1" height="1" fill="#1c41b5" fill-opacity="0.016"/>
<rect x="0" y="13" width="1" height="1" fill="#1c41b5" fill-opacity="0.098"/>
<rect x="1" y="13" width="1" height="1" fill="#1c41b5" fill-opacity="0.996"/>
<rect x="2" y="13" width="1" height="1" fill="#819df7" fill-opacity="0.996"/>
<rect x="3" y="13" width="1" height="1" fill="#ffffff"/>
<rect x="4" y="13" width="1" height="1" fill="#ffffff"/>
<rect x="5" y="13" width="1" height="1" fill="#385ecf"/>
<rect x="6" y="13" width="1" height="1" fill="#456deb"/>
<rect x="7" y="13" width="1" height="1" fill="#719eff"/>
<rect x="8" y="13" width="1" height="1" fill="#7aa8ff"/>
<rect x="9" y="13" width="1" height="1" fill="#7aa6ff"/>
<rect x="10" y="13" width="1" height="1" fill="#7aa6ff"/>
<rect x="11" y="13" width="1" height="1" fill="#527bfd"/>
<rect x="12" y="13" width="1" height="1" fill="#284ad4"/>
<rect x="13" y="13" width="1" height="1" fill="#2546d0"/>
<rect x="14" y="13" width="1" height="1" fill="#3d60e8"/>
<rect x="15" y="13" width="1" height="1" fill="#2647d1"/>
<rect x="16" y="13" width="1" height="1" fill="#1635c0" fill-opacity="0.98"/>
<rect x="17" y="13" width="1" height="1" fill="#1a3eb9" fill-opacity="0.922"/>
<rect x="18" y="13" width="1" height="1" fill="#1f45bd" fill-opacity="0.969"/>
<rect x="19" y="13" width="1" height="1" fill="#1e40c2"/>
<rect x="20" y="13" width="1" height="1" fill="#1c41b5" fill-opacity="0.996"/>
<rect x="1" y="14" width="1" height="1" fill="#1d41b6" fill-opacity="0.082"/>
<rect x="2" y="14" width="1" height="1" fill="#1739bb" fill-opacity="0.996"/>
<rect x="3" y="14" width="1" height="1" fill="#526dde"/>
<rect x="4" y="14" width="1" height="1" fill="#ffffff"/>
<rect x="5" y="14" width="1" height="1" fill="#ffffff"/>
<rect x="6" y="14" width="1" height="1" fill="#4d6fd9"/>
<rect x="7" y="14" width="1" height="1" fill="#4166e8"/>
<rect x="8" y="14" width="1" height="1" fill="#6a97ff"/>
<rect x="9" y="14" width="1" height="1" fill="#79a5ff"/>
<rect x="10" y="14" width="1" height="1" fill="#7aa6ff"/>
<rect x="11" y="14" width="1" height="1" fill="#6d9aff"/>
<rect x="12" y="14" width="1" height="1" fill="#385de4"/>
<rect x="13" y="14" width="1" height="1" fill="#2445d0"/>
<rect x="14" y="14" width="1" height="1" fill="#1c3dc8"/>
<rect x="15" y="14" width="1" height="1" fill="#1a39c5"/>
<rect x="16" y="14" width="1" height="1" fill="#1737bc" fill-opacity="0.949"/>
<rect x="17" y="14" width="1" height="1" fill="#183db9" fill-opacity="0.149"/>
<rect x="18" y="14" width="1" height="1" fill="#2348bf" fill-opacity="0.145"/>
<rect x="19" y="14" width="1" height="1" fill="#1c41b6" fill-opacity="0.992"/>
<rect x="20" y="14" width="1" height="1" fill="#1c41b5" fill-opacity="0.992"/>
<rect x="21" y="14" width="1" height="1" fill="#1c41b5" fill-opacity="0.008"/>
<rect x="2" y="15" width="1" height="1" fill="#1b3fbc" fill-opacity="0.239"/>
<rect x="3" y="15" width="1" height="1" fill="#1635bd"/>
<rect x="4" y="15" width="1" height="1" fill="#4c67da"/>
<rect x="5" y="15" width="1" height="1" fill="#ffffff"/>
<rect x="6" y="15" width="1" height="1" fill="#ffffff"/>
<rect x="7" y="15" width="1" height="1" fill="#8da2ec"/>
<rect x="8" y="15" width="1" height="1" fill="#365ae0"/>
<rect x="9" y="15" width="1" height="1" fill="#446af0"/>
<rect x="10" y="15" width="1" height="1" fill="#638eff"/>
<rect x="11" y="15" width="1" height="1" fill="#628dff"/>
<rect x="12" y="15" width="1" height="1" fill="#4d76f8"/>
<rect x="13" y="15" width="1" height="1" fill="#456bf0"/>
<rect x="14" y="15" width="1" height="1" fill="#2d50d9"/>
<rect x="15" y="15" width="1" height="1" fill="#1738bd" fill-opacity="0.969"/>
<rect x="16" y="15" width="1" height="1" fill="#1433bd" fill-opacity="0.243"/>
<rect x="17" y="15" width="1" height="1" fill="#1330be" fill-opacity="0.012"/>
<rect x="19" y="15" width="1" height="1" fill="#1e44bb" fill-opacity="0.757"/>
<rect x="20" y="15" width="1" height="1" fill="#1d43b6" fill-opacity="0.875"/>
<rect x="21" y="15" width="1" height="1" fill="#1c41b5" fill-opacity="0.008"/>
<rect x="3" y="16" width="1" height="1" fill="#1739bd" fill-opacity="0.239"/>
<rect x="4" y="16" width="1" height="1" fill="#1636bc"/>
<rect x="5" y="16" width="1" height="1" fill="#5e7ae3" fill-opacity="0.996"/>
<rect x="6" y="16" width="1" height="1" fill="#ffffff"/>
<rect x="7" y="16" width="1" height="1" fill="#ffffff"/>
<rect x="8" y="16" width="1" height="1" fill="#d1dcff"/>
<rect x="9" y="16" width="1" height="1" fill="#2444ce"/>
<rect x="10" y="16" width="1" height="1" fill="#2041cd"/>
<rect x="11" y="16" width="1" height="1" fill="#3457e0"/>
<rect x="12" y="16" width="1" height="1" fill="#2344cf"/>
<rect x="13" y="16" width="1" height="1" fill="#1b3cc6"/>
<rect x="14" y="16" width="1" height="1" fill="#1839c3" fill-opacity="0.996"/>
<rect x="15" y="16" width="1" height="1" fill="#1535bd" fill-opacity="0.427"/>
<rect x="16" y="16" width="1" height="1" fill="#1330be" fill-opacity="0.016"/>
<rect x="4" y="17" width="1" height="1" fill="#1739bf" fill-opacity="0.129"/>
<rect x="5" y="17" width="1" height="1" fill="#1637bb" fill-opacity="0.996"/>
<rect x="6" y="17" width="1" height="1" fill="#3452ca" fill-opacity="0.996"/>
<rect x="7" y="17" width="1" height="1" fill="#fdffff"/>
<rect x="8" y="17" width="1" height="1" fill="#ffffff"/>
<rect x="9" y="17" width="1" height="1" fill="#edf3ff"/>
<rect x="10" y="17" width="1" height="1" fill="#304dcd"/>
<rect x="11" y="17" width="1" height="1" fill="#1735c2"/>
<rect x="12" y="17" width="1" height="1" fill="#1533c0"/>
<rect x="13" y="17" width="1" height="1" fill="#1533bf"/>
<rect x="14" y="17" width="1" height="1" fill="#1534be" fill-opacity="0.49"/>
<rect x="15" y="17" width="1" height="1" fill="#1330be" fill-opacity="0.027"/>
<rect x="5" y="18" width="1" height="1" fill="#1432be" fill-opacity="0.137"/>
<rect x="6" y="18" width="1" height="1" fill="#1636bc" fill-opacity="0.929"/>
<rect x="7" y="18" width="1" height="1" fill="#1b3cbd" fill-opacity="0.996"/>
<rect x="8" y="18" width="1" height="1" fill="#c9d7ff" fill-opacity="0.996"/>
<rect x="9" y="18" width="1" height="1" fill="#ffffff"/>
<rect x="10" y="18" width="1" height="1" fill="#ffffff"/>
<rect x="11" y="18" width="1" height="1" fill="#4064ea"/>
<rect x="12" y="18" width="1" height="1" fill="#1d3ec6"/>
<rect x="13" y="18" width="1" height="1" fill="#1e43ba" fill-opacity="0.863"/>
<rect x="14" y="18" width="1" height="1" fill="#1c41b5" fill-opacity="0.008"/>
<rect x="6" y="19" width="1" height="1" fill="#1332be" fill-opacity="0.125"/>
<rect x="7" y="19" width="1" height="1" fill="#1534bc" fill-opacity="0.769"/>
<rect x="8" y="19" width="1" height="1" fill="#183bb9" fill-opacity="0.984"/>
<rect x="9" y="19" width="1" height="1" fill="#284dc4" fill-opacity="0.969"/>
<rect x="10" y="19" width="1" height="1" fill="#3f5bd7" fill-opacity="0.992"/>
<rect x="11" y="19" width="1" height="1" fill="#1839bc"/>
<rect x="12" y="19" width="1" height="1" fill="#1d43b6" fill-opacity="0.973"/>
<rect x="13" y="19" width="1" height="1" fill="#1c41b5" fill-opacity="0.118"/>
</svg>