<?xml version="1.0" encoding="UTF-8" standalone="no"?>
<svg xmlns="http://www.w3.org/2000/svg" width="26" height="21" shape-rendering="crispEdges">
<rect x="23" y="0" width="1" height="1" fill="#191a8b" fill-opacity="0.624"/>
<rect x="24" y="0" width="1" height="1" fill="#191a8b"/>
<rect x="19" y="1" width="1" height="1" fill="#171786" fill-opacity="0.827"/>
<rect x="20" y="1" width="1" height="1" fill="#141480"/>
<rect x="21" y="1" width="1" height="1" fill="#151581"/>
<rect x="22" y="1" width="1" height="1" fill="#151582"/>
<rect x="23" y="1" width="1" height="1" fill="#1a1b8c"/>
<rect x="24" y="1" width="1" height="1" fill="#191a8b"/>
<rect x="13" y="2" width="1" height="1" fill="#1b1b8d" fill-opacity="0.949"/>
<rect x="14" y="2" width="1" height="1" fill="#141480"/>
<rect x="15" y="2" width="1" height="1" fill="#151581"/>
<rect x="16" y="2" width="1" height="1" fill="#151582"/>
<rect x="17" y="2" width="1" height="1" fill="#161684"/>
<rect x="18" y="2" width="1" height="1" fill="#141481"/>
<rect x="19" y="2" width="1" height="1" fill="#3131b9"/>
<rect x="20" y="2" width="1" height="1" fill="#ffffff"/>
<rect x="21" y="2" width="1" height="1" fill="#ffffff"/>
<rect x="22" y="2" width="1" height="1" fill="#ffffff"/>
<rect x="23" y="2" width="1" height="1" fill="#1a1a8c"/>
<rect x="24" y="2" width="1" height="1" fill="#191a8b" fill-opacity="0.992"/>
<rect x="13" y="3" width="1" height="1" fill="#171785" fill-opacity="0.996"/>
<rect x="14" y="3" width="1" height="1" fill="#a8a8dd"/>
<rect x="15" y="3" width="1" height="1" fill="#fefeff"/>
<rect x="16" y="3" width="1" height="1" fill="#ffffff"/>
<rect x="17" y="3" width="1" height="1" fill="#ffffff"/>
<rect x="18" y="3" width="1" height="1" fill="#ffffff"/>
<rect x="19" y="3" width="1" height="1" fill="#ffffff"/>
<rect x="20" y="3" width="1" height="1" fill="#ffffff"/>
<rect x="21" y="3" width="1" height="1" fill="#ffffff"/>
<rect x="22" y="3" width="1" height="1" fill="#3232bb"/>
<rect x="23" y="3" width="1" height="1" fill="#191a8b"/>
<rect x="24" y="3" width="1" height="1" fill="#191a8b" fill-opacity="0.988"/>
<rect x="5" y="4" width="1" height="1" fill="#24249f" fill-opacity="0.004"/>
<rect x="6" y="4" width="1" height="1" fill="#2525a1" fill-opacity="0.008"/>
<rect x="13" y="4" width="1" height="1" fill="#1c1d90" fill-opacity="0.957"/>
<rect x="14" y="4" width="1" height="1" fill="#ececf6"/>
<rect x="15" y="4" width="1" height="1" fill="#ffffff"/>
<rect x="16" y="4" width="1" height="1" fill="#ffffff"/>
<rect x="17" y="4" width="1" height="1" fill="#ffffff"/>
<rect x="18" y="4" width="1" height="1" fill="#ffffff"/>
<rect x="19" y="4" width="1" height="1" fill="#ffffff"/>
<rect x="20" y="4" width="1" height="1" fill="#ffffff"/>
<rect x="21" y="4" width="1" height="1" fill="#2f2fb6"/>
<rect x="22" y="4" width="1" height="1" fill="#1a1a8b"/>
<rect x="23" y="4" width="1" height="1" fill="#1a1b8d" fill-opacity="0.761"/>
<rect x="24" y="4" width="1" height="1" fill="#191a8b" fill-opacity="0.02"/>
<rect x="3" y="5" width="1" height="1" fill="#202097" fill-opacity="0.114"/>
<rect x="4" y="5" width="1" height="1" fill="#181988"/>
<rect x="5" y="5" width="1" height="1" fill="#151582"/>
<rect x="6" y="5" width="1" height="1" fill="#161684"/>
<rect x="7" y="5" width="1" height="1" fill="#151582"/>
<rect x="8" y="5" width="1" height="1" fill="#1d1d93" fill-opacity="0.769"/>
<rect x="11" y="5" width="1" height="1" fill="#1b1c8e" fill-opacity="0.984"/>
<rect x="12" y="5" width="1" height="1" fill="#1c1d90" fill-opacity="0.996"/>
<rect x="13" y="5" width="1" height="1" fill="#1c1d90" fill-opacity="0.055"/>
<rect x="14" y="5" width="1" height="1" fill="#22229a"/>
<rect x="15" y="5" width="1" height="1" fill="#fafafe"/>
<rect x="16" y="5" width="1" height="1" fill="#ffffff"/>
<rect x="17" y="5" width="1" height="1" fill="#ffffff"/>
<rect x="18" y="5" width="1" height="1" fill="#ffffff"/>
<rect x="19" y="5" width="1" height="1" fill="#9494dd"/>
<rect x="20" y="5" width="1" height="1" fill="#3838b9" fill-opacity="0.992"/>
<rect x="21" y="5" width="1" height="1" fill="#19198a" fill-opacity="0.984"/>
<rect x="22" y="5" width="1" height="1" fill="#1a1b8d" fill-opacity="0.62"/>
<rect x="23" y="5" width="1" height="1" fill="#191a8b" fill-opacity="0.016"/>
<rect x="2" y="6" width="1" height="1" fill="#1f2097" fill-opacity="0.431"/>
<rect x="3" y="6" width="1" height="1" fill="#1b1b8d"/>
<rect x="4" y="6" width="1" height="1" fill="#21219a"/>
<rect x="5" y="6" width="1" height="1" fill="#1c1c8e"/>
<rect x="6" y="6" width="1" height="1" fill="#1b1b8e"/>
<rect x="7" y="6" width="1" height="1" fill="#1d1d90"/>
<rect x="8" y="6" width="1" height="1" fill="#1e1f94"/>
<rect x="9" y="6" width="1" height="1" fill="#1a1b8c" fill-opacity="0.965"/>
<rect x="10" y="6" width="1" height="1" fill="#161684" fill-opacity="0.067"/>
<rect x="11" y="6" width="1" height="1" fill="#1c1d90"/>
<rect x="12" y="6" width="1" height="1" fill="#1c1d90"/>
<rect x="13" y="6" width="1" height="1" fill="#202098"/>
<rect x="14" y="6" width="1" height="1" fill="#3434bf"/>
<rect x="15" y="6" width="1" height="1" fill="#9393dd"/>
<rect x="16" y="6" width="1" height="1" fill="#ffffff"/>
<rect x="17" y="6" width="1" height="1" fill="#ffffff"/>
<rect x="18" y="6" width="1" height="1" fill="#ffffff"/>
<rect x="19" y="6" width="1" height="1" fill="#ffffff"/>
<rect x="20" y="6" width="1" height="1" fill="#afafe5"/>
<rect x="21" y="6" width="1" height="1" fill="#26269e" fill-opacity="0.996"/>
<rect x="22" y="6" width="1" height="1" fill="#1b1b8e" fill-opacity="0.859"/>
<rect x="23" y="6" width="1" height="1" fill="#191a8b" fill-opacity="0.008"/>
<rect x="2" y="7" width="1" height="1" fill="#1a1a8b"/>
<rect x="3" y="7" width="1" height="1" fill="#202099"/>
<rect x="4" y="7" width="1" height="1" fill="#1c1c90"/>
<rect x="5" y="7" width="1" height="1" fill="#22229c"/>
<rect x="6" y="7" width="1" height="1" fill="#2626a4"/>
<rect x="7" y="7" width="1" height="1" fill="#5252b2"/>
<rect x="8" y="7" width="1" height="1" fill="#3c3ca4"/>
<rect x="9" y="7" width="1" height="1" fill="#1a1b8c"/>
<rect x="10" y="7" width="1" height="1" fill="#181988" fill-opacity="0.796"/>
<rect x="11" y="7" width="1" height="1" fill="#1c1d8f"/>
<rect x="12" y="7" width="1" height="1" fill="#4040b2"/>
<rect x="13" y="7" width="1" height="1" fill="#f7f7fc"/>
<rect x="14" y="7" width="1" height="1" fill="#ffffff"/>
<rect x="15" y="7" width="1" height="1" fill="#ffffff"/>
<rect x="16" y="7" width="1" height="1" fill="#ffffff"/>
<rect x="17" y="7" width="1" height="1" fill="#ffffff"/>
<rect x="18" y="7" width="1" height="1" fill="#ffffff"/>
<rect x="19" y="7" width="1" height="1" fill="#ffffff"/>
<rect x="20" y="7" width="1" height="1" fill="#ffffff"/>
<rect x="21" y="7" width="1" height="1" fill="#e5e5f7"/>
<rect x="22" y="7" width="1" height="1" fill="#2a2a9c"/>
<rect x="23" y="7" width="1" height="1" fill="#1d1d91" fill-opacity="0.827"/>
<rect x="1" y="8" width="1" height="1" fill="#212295" fill-opacity="0.608"/>
<rect x="2" y="8" width="1" height="1" fill="#1f1f91"/>
<rect x="3" y="8" width="1" height="1" fill="#1c1c8f"/>
<rect x="4" y="8" width="1" height="1" fill="#21219a"/>
<rect x="5" y="8" width="1" height="1" fill="#25259f"/>
<rect x="6" y="8" width="1" height="1" fill="#5252b6"/>
<rect x="7" y="8" width="1" height="1" fill="#9494d3"/>
<rect x="8" y="8" width="1" height="1" fill="#5252ba"/>
<rect x="9" y="8" width="1" height="1" fill="#2929a6"/>
<rect x="10" y="8" width="1" height="1" fill="#181888"/>
<rect x="11" y="8" width="1" height="1" fill="#1e1e93"/>
<rect x="12" y="8" width="1" height="1" fill="#d6d6ec"/>
<rect x="13" y="8" width="1" height="1" fill="#ffffff"/>
<rect x="14" y="8" width="1" height="1" fill="#ffffff"/>
<rect x="15" y="8" width="1" height="1" fill="#ffffff"/>
<rect x="16" y="8" width="1" height="1" fill="#ffffff"/>
<rect x="17" y="8" width="1" height="1" fill="#ffffff"/>
<rect x="18" y="8" width="1" height="1" fill="#ffffff"/>
<rect x="19" y="8" width="1" height="1" fill="#e8e8f8"/>
<rect x="20" y="8" width="1" height="1" fill="#9898d8"/>
<rect x="21" y="8" width="1" height="1" fill="#babae3"/>
<rect x="22" y="8" width="1" height="1" fill="#3838a2"/>
<rect x="23" y="8" width="1" height="1" fill="#1c1c8f"/>
<rect x="24" y="8" width="1" height="1" fill="#1c1d90" fill-opacity="0.918"/>
<rect x="0" y="9" width="1" height="1" fill="#222396" fill-opacity="0.4"/>
<rect x="1" y="9" width="1" height="1" fill="#222294"/>
<rect x="2" y="9" width="1" height="1" fill="#222294"/>
<rect x="3" y="9" width="1" height="1" fill="#1b1b8d"/>
<rect x="4" y="9" width="1" height="1" fill="#2626a4"/>
<rect x="5" y="9" width="1" height="1" fill="#2d2db1"/>
<rect x="6" y="9" width="1" height="1" fill="#3838ba"/>
<rect x="7" y="9" width="1" height="1" fill="#3535ba"/>
<rect x="8" y="9" width="1" height="1" fill="#3131ba"/>
<rect x="9" y="9" width="1" height="1" fill="#3232bc"/>
<rect x="10" y="9" width="1" height="1" fill="#23239e"/>
<rect x="11" y="9" width="1" height="1" fill="#2626a0"/>
<rect x="12" y="9" width="1" height="1" fill="#fdfdfe"/>
<rect x="13" y="9" width="1" height="1" fill="#ffffff"/>
<rect x="14" y="9" width="1" height="1" fill="#7575d4"/>
<rect x="15" y="9" width="1" height="1" fill="#3636c0"/>
<rect x="16" y="9" width="1" height="1" fill="#5d5dcc"/>
<rect x="17" y="9" width="1" height="1" fill="#ffffff"/>
<rect x="18" y="9" width="1" height="1" fill="#ffffff"/>
<rect x="19" y="9" width="1" height="1" fill="#eeeef8"/>
<rect x="20" y="9" width="1" height="1" fill="#303097" fill-opacity="0.988"/>
<rect x="21" y="9" width="1" height="1" fill="#1b1b8e" fill-opacity="0.945"/>
<rect x="22" y="9" width="1" height="1" fill="#22229b" fill-opacity="0.631"/>
<rect x="23" y="9" width="1" height="1" fill="#1d1e92" fill-opacity="0.647"/>
<rect x="24" y="9" width="1" height="1" fill="#1c1d90" fill-opacity="0.875"/>
<rect x="0" y="10" width="1" height="1" fill="#222294" fill-opacity="0.992"/>
<rect x="1" y="10" width="1" height="1" fill="#4d4da9"/>
<rect x="2" y="10" width="1" height="1" fill="#8e8ec6"/>
<rect x="3" y="10" width="1" height="1" fill="#1f1f8e"/>
<rect x="4" y="10" width="1" height="1" fill="#22229a"/>
<rect x="5" y="10" width="1" height="1" fill="#444242"/>
<rect x="6" y="10" width="1" height="1" fill="#000001"/>
<rect x="7" y="10" width="1" height="1" fill="#000000"/>
<rect x="8" y="10" width="1" height="1" fill="#000000"/>
<rect x="9" y="10" width="1" height="1" fill="#444242"/>
<rect x="10" y="10" width="1" height="1" fill="#3333bc"/>
<rect x="11" y="10" width="1" height="1" fill="#7373cf"/>
<rect x="12" y="10" width="1" height="1" fill="#fefeff"/>
<rect x="13" y="10" width="1" height="1" fill="#ffffff"/>
<rect x="14" y="10" width="1" height="1" fill="#3838c0"/>
<rect x="15" y="10" width="1" height="1" fill="#ffffff"/>
<rect x="16" y="10" width="1" height="1" fill="#8181d7"/>
<rect x="17" y="10" width="1" height="1" fill="#4040c1"/>
<rect x="18" y="10" width="1" height="1" fill="#ffffff"/>
<rect x="19" y="10" width="1" height="1" fill="#f1f1f8"/>
<rect x="20" y="10" width="1" height="1" fill="#2e2f96" fill-opacity="0.929"/>
<rect x="21" y="10" width="1" height="1" fill="#191a8b" fill-opacity="0.396"/>
<rect x="22" y="10" width="1" height="1" fill="#191a8b" fill-opacity="0.184"/>
<rect x="23" y="10" width="1" height="1" fill="#191a8b" fill-opacity="0.533"/>
<rect x="24" y="10" width="1" height="1" fill="#191a8c" fill-opacity="0.153"/>
<rect x="0" y="11" width="1" height="1" fill="#1d1d90" fill-opacity="0.937"/>
<rect x="1" y="11" width="1" height="1" fill="#f0f0f7"/>
<rect x="2" y="11" width="1" height="1" fill="#f9f9fc"/>
<rect x="3" y="11" width="1" height="1" fill="#a5a5d3"/>
<rect x="4" y="11" width="1" height="1" fill="#282896"/>
<rect x="5" y="11" width="1" height="1" fill="#ffffff"/>
<rect x="6" y="11" width="1" height="1" fill="#ffffff"/>
<rect x="7" y="11" width="1" height="1" fill="#000000"/>
<rect x="8" y="11" width="1" height="1" fill="#ffffff"/>
<rect x="9" y="11" width="1" height="1" fill="#ffffff"/>
<rect x="10" y="11" width="1" height="1" fill="#3434bf"/>
<rect x="11" y="11" width="1" height="1" fill="#4848c2"/>
<rect x="12" y="11" width="1" height="1" fill="#d5d5ed"/>
<rect x="13" y="11" width="1" height="1" fill="#fefeff"/>
<rect x="14" y="11" width="1" height="1" fill="#ffffff"/>
<rect x="15" y="11" width="1" height="1" fill="#ffffff"/>
<rect x="16" y="11" width="1" height="1" fill="#f9f9fd"/>
<rect x="17" y="11" width="1" height="1" fill="#2424a0"/>
<rect x="18" y="11" width="1" height="1" fill="#9f9fe0"/>
<rect x="19" y="11" width="1" height="1" fill="#dcdced"/>
<rect x="20" y="11" width="1" height="1" fill="#313297" fill-opacity="0.988"/>
<rect x="21" y="11" width="1" height="1" fill="#191a8c" fill-opacity="0.282"/>
<rect x="0" y="12" width="1" height="1" fill="#1e1e93" fill-opacity="0.682"/>
<rect x="1" y="12" width="1" height="1" fill="#262697" fill-opacity="0.996"/>
<rect x="2" y="12" width="1" height="1" fill="#f9f9fc"/>
<rect x="3" y="12" width="1" height="1" fill="#f8f8fc"/>
<rect x="4" y="12" width="1" height="1" fill="#9e9ece"/>
<rect x="5" y="12" width="1" height="1" fill="#272795"/>
<rect x="6" y="12" width="1" height="1" fill="#ffffff"/>
<rect x="7" y="12" width="1" height="1" fill="#ffffff"/>
<rect x="8" y="12" width="1" height="1" fill="#ffffff"/>
<rect x="9" y="12" width="1" height="1" fill="#3434bf"/>
<rect x="10" y="12" width="1" height="1" fill="#3434bf"/>
<rect x="11" y="12" width="1" height="1" fill="#2b2bad"/>
<rect x="12" y="12" width="1" height="1" fill="#2d2da8"/>
<rect x="13" y="12" width="1" height="1" fill="#f3f3fa"/>
<rect x="14" y="12" width="1" height="1" fill="#ffffff"/>
<rect x="15" y="12" width="1" height="1" fill="#ffffff"/>
<rect x="16" y="12" width="1" height="1" fill="#b5b5de" fill-opacity="0.996"/>
<rect x="17" y="12" width="1" height="1" fill="#1f1f96" fill-opacity="0.776"/>
<rect x="18" y="12" width="1" height="1" fill="#2b2ba2" fill-opacity="0.992"/>
<rect x="19" y="12" width="1" height="1" fill="#9090c6"/>
<rect x="20" y="12" width="1" height="1" fill="#252691"/>
<rect x="21" y="12" width="1" height="1" fill="#191a8c" fill-opacity="0.11"/>
<rect x="0" y="13" width="1" height="1" fill="#1c1d90" fill-opacity="0.02"/>
<rect x="1" y="13" width="1" height="1" fill="#1d1d91" fill-opacity="0.961"/>
<rect x="2" y="13" width="1" height="1" fill="#23239b"/>
<rect x="3" y="13" width="1" height="1" fill="#efeff7"/>
<rect x="4" y="13" width="1" height="1" fill="#f9f9fc"/>
<rect x="5" y="13" width="1" height="1" fill="#aeaeda"/>
<rect x="6" y="13" width="1" height="1" fill="#292995"/>
<rect x="7" y="13" width="1" height="1" fill="#2a2aaa"/>
<rect x="8" y="13" width="1" height="1" fill="#3434bf"/>
<rect x="9" y="13" width="1" height="1" fill="#3434bf"/>
<rect x="10" y="13" width="1" height="1" fill="#3434bf"/>
<rect x="11" y="13" width="1" height="1" fill="#2f2fb4"/>
<rect x="12" y="13" width="1" height="1" fill="#2a2aab"/>
<rect x="13" y="13" width="1" height="1" fill="#2626a2"/>
<rect x="14" y="13" width="1" height="1" fill="#3333aa"/>
<rect x="15" y="13" width="1" height="1" fill="#23239d"/>
<rect x="16" y="13" width="1" height="1" fill="#202097" fill-opacity="0.761"/>
<rect x="17" y="13" width="1" height="1" fill="#1c1d90" fill-opacity="0.847"/>
<rect x="18" y="13" width="1" height="1" fill="#1c1d90" fill-opacity="0.941"/>
<rect x="19" y="13" width="1" height="1" fill="#19198a"/>
<rect x="20" y="13" width="1" height="1" fill="#191a8b"/>
<rect x="21" y="13" width="1" height="1" fill="#191a8c" fill-opacity="0.035"/>
<rect x="1" y="14" width="1" height="1" fill="#1e1e92" fill-opacity="0.016"/>
<rect x="2" y="14" width="1" height="1" fill="#1b1c8f" fill-opacity="0.984"/>
<rect x="3" y="14" width="1" height="1" fill="#25259f"/>
<rect x="4" y="14" width="1" height="1" fill="#ececf5"/>
<rect x="5" y="14" width="1" height="1" fill="#fafafd"/>
<rect x="6" y="14" width="1" height="1" fill="#d4d4ec"/>
<rect x="7" y="14" width="1" height="1" fill="#2a2a95"/>
<rect x="8" y="14" width="1" height="1" fill="#2626a1"/>
<rect x="9" y="14" width="1" height="1" fill="#3232bd"/>
<rect x="10" y="14" width="1" height="1" fill="#3333be"/>
<rect x="11" y="14" width="1" height="1" fill="#3333bc"/>
<rect x="12" y="14" width="1" height="1" fill="#2a2aab"/>
<rect x="13" y="14" width="1" height="1" fill="#23239b"/>
<rect x="14" y="14" width="1" height="1" fill="#22229a"/>
<rect x="15" y="14" width="1" height="1" fill="#2626a2"/>
<rect x="16" y="14" width="1" height="1" fill="#1c1d90" fill-opacity="0.557"/>
<rect x="17" y="14" width="1" height="1" fill="#1c1d90" fill-opacity="0.012"/>
<rect x="18" y="14" width="1" height="1" fill="#202098" fill-opacity="0.055"/>
<rect x="19" y="14" width="1" height="1" fill="#191a8b" fill-opacity="0.996"/>
<rect x="20" y="14" width="1" height="1" fill="#191a8b" fill-opacity="0.996"/>
<rect x="21" y="14" width="1" height="1" fill="#191a8b" fill-opacity="0.02"/>
<rect x="2" y="15" width="1" height="1" fill="#1f2095" fill-opacity="0.055"/>
<rect x="3" y="15" width="1" height="1" fill="#1b1b8e" fill-opacity="0.996"/>
<rect x="4" y="15" width="1" height="1" fill="#232399"/>
<rect x="5" y="15" width="1" height="1" fill="#eeeef6"/>
<rect x="6" y="15" width="1" height="1" fill="#f9f9fc"/>
<rect x="7" y="15" width="1" height="1" fill="#eeeef6"/>
<rect x="8" y="15" width="1" height="1" fill="#32329a"/>
<rect x="9" y="15" width="1" height="1" fill="#1f1f95"/>
<rect x="10" y="15" width="1" height="1" fill="#2828a9"/>
<rect x="11" y="15" width="1" height="1" fill="#2c2cad"/>
<rect x="12" y="15" width="1" height="1" fill="#24249e"/>
<rect x="13" y="15" width="1" height="1" fill="#212198"/>
<rect x="14" y="15" width="1" height="1" fill="#212198"/>
<rect x="15" y="15" width="1" height="1" fill="#2626a3" fill-opacity="0.894"/>
<rect x="16" y="15" width="1" height="1" fill="#2a2aab" fill-opacity="0.016"/>
<rect x="19" y="15" width="1" height="1" fill="#1a1b8d" fill-opacity="0.737"/>
<rect x="20" y="15" width="1" height="1" fill="#1a1b8c" fill-opacity="0.875"/>
<rect x="21" y="15" width="1" height="1" fill="#191a8b" fill-opacity="0.008"/>
<rect x="3" y="16" width="1" height="1" fill="#1e1e92" fill-opacity="0.059"/>
<rect x="4" y="16" width="1" height="1" fill="#1c1d8f" fill-opacity="0.996"/>
<rect x="5" y="16" width="1" height="1" fill="#202094"/>
<rect x="6" y="16" width="1" height="1" fill="#ddddef"/>
<rect x="7" y="16" width="1" height="1" fill="#f9f9fc"/>
<rect x="8" y="16" width="1" height="1" fill="#f7f7fb"/>
<rect x="9" y="16" width="1" height="1" fill="#3c3ca1"/>
<rect x="10" y="16" width="1" height="1" fill="#1e1e91"/>
<rect x="11" y="16" width="1" height="1" fill="#202097"/>
<rect x="12" y="16" width="1" height="1" fill="#212198"/>
<rect x="13" y="16" width="1" height="1" fill="#212197"/>
<rect x="14" y="16" width="1" height="1" fill="#23239c" fill-opacity="0.996"/>
<rect x="15" y="16" width="1" height="1" fill="#3131b9" fill-opacity="0.129"/>
<rect x="16" y="16" width="1" height="1" fill="#3434bf" fill-opacity="0.004"/>
<rect x="4" y="17" width="1" height="1" fill="#1e1e91" fill-opacity="0.063"/>
<rect x="5" y="17" width="1" height="1" fill="#1c1d8f" fill-opacity="0.988"/>
<rect x="6" y="17" width="1" height="1" fill="#1d1d90"/>
<rect x="7" y="17" width="1" height="1" fill="#9696d1" fill-opacity="0.996"/>
<rect x="8" y="17" width="1" height="1" fill="#f9f9fc"/>
<rect x="9" y="17" width="1" height="1" fill="#f9f9fc"/>
<rect x="10" y="17" width="1" height="1" fill="#d5d5ea"/>
<rect x="11" y="17" width="1" height="1" fill="#262695"/>
<rect x="12" y="17" width="1" height="1" fill="#23239b"/>
<rect x="13" y="17" width="1" height="1" fill="#2525a0" fill-opacity="0.996"/>
<rect x="14" y="17" width="1" height="1" fill="#2d2db1" fill-opacity="0.255"/>
<rect x="15" y="17" width="1" height="1" fill="#3434bf" fill-opacity="0.004"/>
<rect x="6" y="18" width="1" height="1" fill="#1d1d8f" fill-opacity="0.847"/>
<rect x="7" y="18" width="1" height="1" fill="#212197"/>
<rect x="8" y="18" width="1" height="1" fill="#3636a2"/>
<rect x="9" y="18" width="1" height="1" fill="#f5f5fa"/>
<rect x="10" y="18" width="1" height="1" fill="#f9f9fc"/>
<rect x="11" y="18" width="1" height="1" fill="#4949bc"/>
<rect x="12" y="18" width="1" height="1" fill="#1d1d90"/>
<rect x="13" y="18" width="1" height="1" fill="#1d1e93" fill-opacity="0.647"/>
<rect x="7" y="19" width="1" height="1" fill="#1e1e90" fill-opacity="0.627"/>
<rect x="8" y="19" width="1" height="1" fill="#222299" fill-opacity="0.996"/>
<rect x="9" y="19" width="1" height="1" fill="#1c1c91" fill-opacity="0.933"/>
<rect x="10" y="19" width="1" height="1" fill="#181888" fill-opacity="0.992"/>
<rect x="11" y="19" width="1" height="1" fill="#141480"/>
<rect x="12" y="19" width="1" height="1" fill="#22229b" fill-opacity="0.592"/>
<rect x="13" y="19" width="1" height="1" fill="#1c1d90" fill-opacity="0.012"/>
</svg>