<?xml version="1.0" encoding="UTF-8" standalone="no"?>
<svg xmlns="http://www.w3.org/2000/svg" width="26" height="21" shape-rendering="crispEdges">
<rect x="22" y="0" width="1" height="1" fill="#8d188d" fill-opacity="0.039"/>
<rect x="23" y="0" width="1" height="1" fill="#931893" fill-opacity="0.769"/>
<rect x="24" y="0" width="1" height="1" fill="#851b8f" fill-opacity="0.984"/>
<rect x="19" y="1" width="1" height="1" fill="#951895" fill-opacity="0.827"/>
<rect x="20" y="1" width="1" height="1" fill="#8a188a"/>
<rect x="21" y="1" width="1" height="1" fill="#8d188d"/>
<rect x="22" y="1" width="1" height="1" fill="#952695"/>
<rect x="23" y="1" width="1" height="1" fill="#a11ca1"/>
<rect x="24" y="1" width="1" height="1" fill="#841b8f"/>
<rect x="13" y="2" width="1" height="1" fill="#a218a2" fill-opacity="0.949"/>
<rect x="14" y="2" width="1" height="1" fill="#8a188a"/>
<rect x="15" y="2" width="1" height="1" fill="#8c188c"/>
<rect x="16" y="2" width="1" height="1" fill="#8d188d"/>
<rect x="17" y="2" width="1" height="1" fill="#921892"/>
<rect x="18" y="2" width="1" height="1" fill="#8b188b"/>
<rect x="19" y="2" width="1" height="1" fill="#f119f1"/>
<rect x="20" y="2" width="1" height="1" fill="#ffffff"/>
<rect x="21" y="2" width="1" height="1" fill="#ffffff"/>
<rect x="22" y="2" width="1" height="1" fill="#ffffff"/>
<rect x="23" y="2" width="1" height="1" fill="#e6bfe6"/>
<rect x="24" y="2" width="1" height="1" fill="#832092" fill-opacity="0.988"/>
<rect x="13" y="3" width="1" height="1" fill="#941894" fill-opacity="0.996"/>
<rect x="14" y="3" width="1" height="1" fill="#fee8fe"/>
<rect x="15" y="3" width="1" height="1" fill="#ffffff"/>
<rect x="16" y="3" width="1" height="1" fill="#ffffff"/>
<rect x="17" y="3" width="1" height="1" fill="#ffffff"/>
<rect x="18" y="3" width="1" height="1" fill="#ffffff"/>
<rect x="19" y="3" width="1" height="1" fill="#ffffff"/>
<rect x="20" y="3" width="1" height="1" fill="#ffffff"/>
<rect x="21" y="3" width="1" height="1" fill="#ffffff"/>
<rect x="22" y="3" width="1" height="1" fill="#fffdff"/>
<rect x="23" y="3" width="1" height="1" fill="#c381c3"/>
<rect x="24" y="3" width="1" height="1" fill="#7d2593" fill-opacity="0.98"/>
<rect x="5" y="4" width="1" height="1" fill="#c418c4" fill-opacity="0.004"/>
<rect x="6" y="4" width="1" height="1" fill="#c719c7" fill-opacity="0.008"/>
<rect x="13" y="4" width="1" height="1" fill="#9e189e" fill-opacity="0.933"/>
<rect x="14" y="4" width="1" height="1" fill="#d4aad4"/>
<rect x="15" y="4" width="1" height="1" fill="#fbf8fb"/>
<rect x="16" y="4" width="1" height="1" fill="#ffffff"/>
<rect x="17" y="4" width="1" height="1" fill="#ffffff"/>
<rect x="18" y="4" width="1" height="1" fill="#ffffff"/>
<rect x="19" y="4" width="1" height="1" fill="#ffffff"/>
<rect x="20" y="4" width="1" height="1" fill="#ffffff"/>
<rect x="21" y="4" width="1" height="1" fill="#fffbff"/>
<rect x="22" y="4" width="1" height="1" fill="#cd95cd"/>
<rect x="23" y="4" width="1" height="1" fill="#911a91" fill-opacity="0.898"/>
<rect x="24" y="4" width="1" height="1" fill="#8e188f" fill-opacity="0.725"/>
<rect x="3" y="5" width="1" height="1" fill="#a118a1" fill-opacity="0.196"/>
<rect x="4" y="5" width="1" height="1" fill="#941893"/>
<rect x="5" y="5" width="1" height="1" fill="#931892"/>
<rect x="6" y="5" width="1" height="1" fill="#8f188f"/>
<rect x="7" y="5" width="1" height="1" fill="#8d188d"/>
<rect x="8" y="5" width="1" height="1" fill="#a418a4" fill-opacity="0.816"/>
<rect x="9" y="5" width="1" height="1" fill="#8e188e" fill-opacity="0.012"/>
<rect x="11" y="5" width="1" height="1" fill="#9c189c" fill-opacity="0.973"/>
<rect x="12" y="5" width="1" height="1" fill="#951895" fill-opacity="0.984"/>
<rect x="13" y="5" width="1" height="1" fill="#8b188b" fill-opacity="0.514"/>
<rect x="14" y="5" width="1" height="1" fill="#8e1d8e"/>
<rect x="15" y="5" width="1" height="1" fill="#cd9dcd"/>
<rect x="16" y="5" width="1" height="1" fill="#fffeff"/>
<rect x="17" y="5" width="1" height="1" fill="#ffffff"/>
<rect x="18" y="5" width="1" height="1" fill="#ffffff"/>
<rect x="19" y="5" width="1" height="1" fill="#fffdff"/>
<rect x="20" y="5" width="1" height="1" fill="#fef3fe"/>
<rect x="21" y="5" width="1" height="1" fill="#bf73bf" fill-opacity="0.988"/>
<rect x="22" y="5" width="1" height="1" fill="#8f1a8f" fill-opacity="0.882"/>
<rect x="23" y="5" width="1" height="1" fill="#8f188f" fill-opacity="0.945"/>
<rect x="24" y="5" width="1" height="1" fill="#8d188d" fill-opacity="0.043"/>
<rect x="2" y="6" width="1" height="1" fill="#981897" fill-opacity="0.871"/>
<rect x="3" y="6" width="1" height="1" fill="#951894"/>
<rect x="4" y="6" width="1" height="1" fill="#951894"/>
<rect x="5" y="6" width="1" height="1" fill="#981897"/>
<rect x="6" y="6" width="1" height="1" fill="#a219a2"/>
<rect x="7" y="6" width="1" height="1" fill="#a019a0"/>
<rect x="8" y="6" width="1" height="1" fill="#9a199a"/>
<rect x="9" y="6" width="1" height="1" fill="#9a1899" fill-opacity="0.957"/>
<rect x="10" y="6" width="1" height="1" fill="#8e188e" fill-opacity="0.012"/>
<rect x="11" y="6" width="1" height="1" fill="#8a188a"/>
<rect x="12" y="6" width="1" height="1" fill="#911891"/>
<rect x="13" y="6" width="1" height="1" fill="#941894"/>
<rect x="14" y="6" width="1" height="1" fill="#9d189d"/>
<rect x="15" y="6" width="1" height="1" fill="#c68cc6"/>
<rect x="16" y="6" width="1" height="1" fill="#fefcfe"/>
<rect x="17" y="6" width="1" height="1" fill="#ffffff"/>
<rect x="18" y="6" width="1" height="1" fill="#ffffff"/>
<rect x="19" y="6" width="1" height="1" fill="#ffffff"/>
<rect x="20" y="6" width="1" height="1" fill="#fff9ff"/>
<rect x="21" y="6" width="1" height="1" fill="#992799"/>
<rect x="22" y="6" width="1" height="1" fill="#921892" fill-opacity="0.894"/>
<rect x="23" y="6" width="1" height="1" fill="#911891" fill-opacity="0.235"/>
<rect x="2" y="7" width="1" height="1" fill="#951894"/>
<rect x="3" y="7" width="1" height="1" fill="#951894"/>
<rect x="4" y="7" width="1" height="1" fill="#971896"/>
<rect x="5" y="7" width="1" height="1" fill="#af19ae"/>
<rect x="6" y="7" width="1" height="1" fill="#bc19bb"/>
<rect x="7" y="7" width="1" height="1" fill="#c73ec7"/>
<rect x="8" y="7" width="1" height="1" fill="#b335b2"/>
<rect x="9" y="7" width="1" height="1" fill="#951b94"/>
<rect x="10" y="7" width="1" height="1" fill="#a419a3" fill-opacity="0.243"/>
<rect x="11" y="7" width="1" height="1" fill="#8e188e"/>
<rect x="12" y="7" width="1" height="1" fill="#921b92"/>
<rect x="13" y="7" width="1" height="1" fill="#bb72bb"/>
<rect x="14" y="7" width="1" height="1" fill="#f9f3f9"/>
<rect x="15" y="7" width="1" height="1" fill="#fffeff"/>
<rect x="16" y="7" width="1" height="1" fill="#ffffff"/>
<rect x="17" y="7" width="1" height="1" fill="#ffffff"/>
<rect x="18" y="7" width="1" height="1" fill="#ffffff"/>
<rect x="19" y="7" width="1" height="1" fill="#ffffff"/>
<rect x="20" y="7" width="1" height="1" fill="#ffffff"/>
<rect x="21" y="7" width="1" height="1" fill="#fefdfe"/>
<rect x="22" y="7" width="1" height="1" fill="#ca73ca"/>
<rect x="23" y="7" width="1" height="1" fill="#9e189e" fill-opacity="0.824"/>
<rect x="24" y="7" width="1" height="1" fill="#8e188e" fill-opacity="0.016"/>
<rect x="1" y="8" width="1" height="1" fill="#b918b9" fill-opacity="0.353"/>
<rect x="2" y="8" width="1" height="1" fill="#951894"/>
<rect x="3" y="8" width="1" height="1" fill="#941893"/>
<rect x="4" y="8" width="1" height="1" fill="#a719a6"/>
<rect x="5" y="8" width="1" height="1" fill="#b919b8"/>
<rect x="6" y="8" width="1" height="1" fill="#d351d3"/>
<rect x="7" y="8" width="1" height="1" fill="#e8a0e8"/>
<rect x="8" y="8" width="1" height="1" fill="#de4ede"/>
<rect x="9" y="8" width="1" height="1" fill="#b61ab4"/>
<rect x="10" y="8" width="1" height="1" fill="#971896" fill-opacity="0.992"/>
<rect x="11" y="8" width="1" height="1" fill="#a819a8"/>
<rect x="12" y="8" width="1" height="1" fill="#b05bb0"/>
<rect x="13" y="8" width="1" height="1" fill="#fbf6fb"/>
<rect x="14" y="8" width="1" height="1" fill="#ffffff"/>
<rect x="15" y="8" width="1" height="1" fill="#ffffff"/>
<rect x="16" y="8" width="1" height="1" fill="#ffffff"/>
<rect x="17" y="8" width="1" height="1" fill="#ffffff"/>
<rect x="18" y="8" width="1" height="1" fill="#ffffff"/>
<rect x="19" y="8" width="1" height="1" fill="#fffeff"/>
<rect x="20" y="8" width="1" height="1" fill="#fffeff"/>
<rect x="21" y="8" width="1" height="1" fill="#ffffff"/>
<rect x="22" y="8" width="1" height="1" fill="#dfa2df"/>
<rect x="23" y="8" width="1" height="1" fill="#931893"/>
<rect x="24" y="8" width="1" height="1" fill="#961896" fill-opacity="0.922"/>
<rect x="0" y="9" width="1" height="1" fill="#b518b5" fill-opacity="0.11"/>
<rect x="1" y="9" width="1" height="1" fill="#961996" fill-opacity="0.996"/>
<rect x="2" y="9" width="1" height="1" fill="#921892"/>
<rect x="3" y="9" width="1" height="1" fill="#931892"/>
<rect x="4" y="9" width="1" height="1" fill="#ac19ab"/>
<rect x="5" y="9" width="1" height="1" fill="#ca19ca"/>
<rect x="6" y="9" width="1" height="1" fill="#df1fdf"/>
<rect x="7" y="9" width="1" height="1" fill="#f227f2"/>
<rect x="8" y="9" width="1" height="1" fill="#fa1afa"/>
<rect x="9" y="9" width="1" height="1" fill="#f719f7"/>
<rect x="10" y="9" width="1" height="1" fill="#bf19be"/>
<rect x="11" y="9" width="1" height="1" fill="#b329b3"/>
<rect x="12" y="9" width="1" height="1" fill="#f3e7f3"/>
<rect x="13" y="9" width="1" height="1" fill="#fffeff"/>
<rect x="14" y="9" width="1" height="1" fill="#ffdcff"/>
<rect x="15" y="9" width="1" height="1" fill="#f893f8"/>
<rect x="16" y="9" width="1" height="1" fill="#e55ee6"/>
<rect x="17" y="9" width="1" height="1" fill="#fae4fa"/>
<rect x="18" y="9" width="1" height="1" fill="#fffeff"/>
<rect x="19" y="9" width="1" height="1" fill="#fdedfd"/>
<rect x="20" y="9" width="1" height="1" fill="#a93aa9" fill-opacity="0.984"/>
<rect x="21" y="9" width="1" height="1" fill="#911891" fill-opacity="0.98"/>
<rect x="22" y="9" width="1" height="1" fill="#971897" fill-opacity="0.898"/>
<rect x="23" y="9" width="1" height="1" fill="#921892" fill-opacity="0.925"/>
<rect x="24" y="9" width="1" height="1" fill="#931893" fill-opacity="0.91"/>
<rect x="0" y="10" width="1" height="1" fill="#9b199b" fill-opacity="0.98"/>
<rect x="1" y="10" width="1" height="1" fill="#a339a3"/>
<rect x="2" y="10" width="1" height="1" fill="#a635a4"/>
<rect x="3" y="10" width="1" height="1" fill="#951895"/>
<rect x="4" y="10" width="1" height="1" fill="#ba19ba"/>
<rect x="5" y="10" width="1" height="1" fill="#444242"/>
<rect x="6" y="10" width="1" height="1" fill="#020002"/>
<rect x="7" y="10" width="1" height="1" fill="#000000"/>
<rect x="8" y="10" width="1" height="1" fill="#000000"/>
<rect x="9" y="10" width="1" height="1" fill="#444242"/>
<rect x="10" y="10" width="1" height="1" fill="#c019bf"/>
<rect x="11" y="10" width="1" height="1" fill="#ae39ae"/>
<rect x="12" y="10" width="1" height="1" fill="#faf3fa"/>
<rect x="13" y="10" width="1" height="1" fill="#ffffff"/>
<rect x="14" y="10" width="1" height="1" fill="#fe97fe"/>
<rect x="15" y="10" width="1" height="1" fill="#f7e4f7"/>
<rect x="16" y="10" width="1" height="1" fill="#e9c1ea"/>
<rect x="17" y="10" width="1" height="1" fill="#db66db"/>
<rect x="18" y="10" width="1" height="1" fill="#fbe8fb"/>
<rect x="19" y="10" width="1" height="1" fill="#fcf8fc"/>
<rect x="20" y="10" width="1" height="1" fill="#a441a4" fill-opacity="0.957"/>
<rect x="21" y="10" width="1" height="1" fill="#8f188f" fill-opacity="0.596"/>
<rect x="22" y="10" width="1" height="1" fill="#8f188f" fill-opacity="0.369"/>
<rect x="23" y="10" width="1" height="1" fill="#911891" fill-opacity="0.345"/>
<rect x="24" y="10" width="1" height="1" fill="#921892" fill-opacity="0.043"/>
<rect x="0" y="11" width="1" height="1" fill="#9f189e" fill-opacity="0.953"/>
<rect x="1" y="11" width="1" height="1" fill="#ddb4dc"/>
<rect x="2" y="11" width="1" height="1" fill="#f7e6f7"/>
<rect x="3" y="11" width="1" height="1" fill="#b44db2"/>
<rect x="4" y="11" width="1" height="1" fill="#b419b2"/>
<rect x="5" y="11" width="1" height="1" fill="#ffffff"/>
<rect x="6" y="11" width="1" height="1" fill="#ffffff"/>
<rect x="7" y="11" width="1" height="1" fill="#000000"/>
<rect x="8" y="11" width="1" height="1" fill="#ffffff"/>
<rect x="9" y="11" width="1" height="1" fill="#ffffff"/>
<rect x="10" y="11" width="1" height="1" fill="#d01ad0"/>
<rect x="11" y="11" width="1" height="1" fill="#ab21aa"/>
<rect x="12" y="11" width="1" height="1" fill="#f0e0f0"/>
<rect x="13" y="11" width="1" height="1" fill="#fffeff"/>
<rect x="14" y="11" width="1" height="1" fill="#fffcff"/>
<rect x="15" y="11" width="1" height="1" fill="#fffeff"/>
<rect x="16" y="11" width="1" height="1" fill="#fffcff"/>
<rect x="17" y="11" width="1" height="1" fill="#c23ec4"/>
<rect x="18" y="11" width="1" height="1" fill="#e79be8"/>
<rect x="19" y="11" width="1" height="1" fill="#fefbfe"/>
<rect x="20" y="11" width="1" height="1" fill="#aa4baa" fill-opacity="0.973"/>
<rect x="21" y="11" width="1" height="1" fill="#921892" fill-opacity="0.067"/>
<rect x="0" y="12" width="1" height="1" fill="#971897" fill-opacity="0.78"/>
<rect x="1" y="12" width="1" height="1" fill="#a51fa5" fill-opacity="0.996"/>
<rect x="2" y="12" width="1" height="1" fill="#fefdfe"/>
<rect x="3" y="12" width="1" height="1" fill="#f2ddf2"/>
<rect x="4" y="12" width="1" height="1" fill="#b24ab0"/>
<rect x="5" y="12" width="1" height="1" fill="#c51bc4"/>
<rect x="6" y="12" width="1" height="1" fill="#ffffff"/>
<rect x="7" y="12" width="1" height="1" fill="#ffffff"/>
<rect x="8" y="12" width="1" height="1" fill="#ffffff"/>
<rect x="9" y="12" width="1" height="1" fill="#f339f3"/>
<rect x="10" y="12" width="1" height="1" fill="#de19de"/>
<rect x="11" y="12" width="1" height="1" fill="#a419a3"/>
<rect x="12" y="12" width="1" height="1" fill="#b553b3"/>
<rect x="13" y="12" width="1" height="1" fill="#fdfcfd"/>
<rect x="14" y="12" width="1" height="1" fill="#ffffff"/>
<rect x="15" y="12" width="1" height="1" fill="#ffffff"/>
<rect x="16" y="12" width="1" height="1" fill="#fbeffb" fill-opacity="0.996"/>
<rect x="17" y="12" width="1" height="1" fill="#9f26a0" fill-opacity="0.976"/>
<rect x="18" y="12" width="1" height="1" fill="#be4bc0"/>
<rect x="19" y="12" width="1" height="1" fill="#faedfa"/>
<rect x="20" y="12" width="1" height="1" fill="#b35fb3" fill-opacity="0.984"/>
<rect x="21" y="12" width="1" height="1" fill="#ad52ad" fill-opacity="0.016"/>
<rect x="0" y="13" width="1" height="1" fill="#8e188e" fill-opacity="0.275"/>
<rect x="1" y="13" width="1" height="1" fill="#911891" fill-opacity="0.984"/>
<rect x="2" y="13" width="1" height="1" fill="#c43fc4" fill-opacity="0.996"/>
<rect x="3" y="13" width="1" height="1" fill="#fdfbfd"/>
<rect x="4" y="13" width="1" height="1" fill="#f0daef"/>
<rect x="5" y="13" width="1" height="1" fill="#ae1fac"/>
<rect x="6" y="13" width="1" height="1" fill="#bd1bbb"/>
<rect x="7" y="13" width="1" height="1" fill="#f219f2"/>
<rect x="8" y="13" width="1" height="1" fill="#f419f4"/>
<rect x="9" y="13" width="1" height="1" fill="#ed19ed"/>
<rect x="10" y="13" width="1" height="1" fill="#e419e3"/>
<rect x="11" y="13" width="1" height="1" fill="#b719b7"/>
<rect x="12" y="13" width="1" height="1" fill="#9d199c"/>
<rect x="13" y="13" width="1" height="1" fill="#b65cb4"/>
<rect x="14" y="13" width="1" height="1" fill="#e9d0e9"/>
<rect x="15" y="13" width="1" height="1" fill="#e9cbe9"/>
<rect x="16" y="13" width="1" height="1" fill="#a727a6" fill-opacity="0.89"/>
<rect x="17" y="13" width="1" height="1" fill="#931a93" fill-opacity="0.992"/>
<rect x="18" y="13" width="1" height="1" fill="#9f25a0" fill-opacity="0.992"/>
<rect x="19" y="13" width="1" height="1" fill="#b962b9"/>
<rect x="20" y="13" width="1" height="1" fill="#a63ea6" fill-opacity="0.992"/>
<rect x="21" y="13" width="1" height="1" fill="#c98cc9" fill-opacity="0.008"/>
<rect x="0" y="14" width="1" height="1" fill="#8e188e" fill-opacity="0.016"/>
<rect x="1" y="14" width="1" height="1" fill="#8e188e" fill-opacity="0.443"/>
<rect x="2" y="14" width="1" height="1" fill="#911891" fill-opacity="0.996"/>
<rect x="3" y="14" width="1" height="1" fill="#c750c7"/>
<rect x="4" y="14" width="1" height="1" fill="#fdfbfd"/>
<rect x="5" y="14" width="1" height="1" fill="#f8eef8"/>
<rect x="6" y="14" width="1" height="1" fill="#b125af"/>
<rect x="7" y="14" width="1" height="1" fill="#b21cb0"/>
<rect x="8" y="14" width="1" height="1" fill="#db1ad9"/>
<rect x="9" y="14" width="1" height="1" fill="#e419e4"/>
<rect x="10" y="14" width="1" height="1" fill="#df19df"/>
<rect x="11" y="14" width="1" height="1" fill="#d819d7"/>
<rect x="12" y="14" width="1" height="1" fill="#ab18ab"/>
<rect x="13" y="14" width="1" height="1" fill="#9b199a"/>
<rect x="14" y="14" width="1" height="1" fill="#951994"/>
<rect x="15" y="14" width="1" height="1" fill="#941b91"/>
<rect x="16" y="14" width="1" height="1" fill="#961c93" fill-opacity="0.894"/>
<rect x="17" y="14" width="1" height="1" fill="#921892" fill-opacity="0.012"/>
<rect x="18" y="14" width="1" height="1" fill="#8f188f" fill-opacity="0.569"/>
<rect x="19" y="14" width="1" height="1" fill="#a228a3" fill-opacity="0.996"/>
<rect x="20" y="14" width="1" height="1" fill="#981e9a" fill-opacity="0.949"/>
<rect x="21" y="14" width="1" height="1" fill="#ad33b2" fill-opacity="0.012"/>
<rect x="2" y="15" width="1" height="1" fill="#901890" fill-opacity="0.349"/>
<rect x="3" y="15" width="1" height="1" fill="#911b91"/>
<rect x="4" y="15" width="1" height="1" fill="#d862d8"/>
<rect x="5" y="15" width="1" height="1" fill="#fdfbfd"/>
<rect x="6" y="15" width="1" height="1" fill="#f7ecf7"/>
<rect x="7" y="15" width="1" height="1" fill="#b351b2"/>
<rect x="8" y="15" width="1" height="1" fill="#aa1ca8"/>
<rect x="9" y="15" width="1" height="1" fill="#c11bbf"/>
<rect x="10" y="15" width="1" height="1" fill="#d519d5"/>
<rect x="11" y="15" width="1" height="1" fill="#d119d0"/>
<rect x="12" y="15" width="1" height="1" fill="#cb1ac9"/>
<rect x="13" y="15" width="1" height="1" fill="#aa19a9"/>
<rect x="14" y="15" width="1" height="1" fill="#951995"/>
<rect x="15" y="15" width="1" height="1" fill="#911891" fill-opacity="0.949"/>
<rect x="16" y="15" width="1" height="1" fill="#8e188e" fill-opacity="0.055"/>
<rect x="18" y="15" width="1" height="1" fill="#8e188e" fill-opacity="0.012"/>
<rect x="19" y="15" width="1" height="1" fill="#982099" fill-opacity="0.91"/>
<rect x="20" y="15" width="1" height="1" fill="#a128a5" fill-opacity="0.976"/>
<rect x="21" y="15" width="1" height="1" fill="#a328a3" fill-opacity="0.106"/>
<rect x="3" y="16" width="1" height="1" fill="#911891" fill-opacity="0.224"/>
<rect x="4" y="16" width="1" height="1" fill="#901890" fill-opacity="0.996"/>
<rect x="5" y="16" width="1" height="1" fill="#ce51ce" fill-opacity="0.996"/>
<rect x="6" y="16" width="1" height="1" fill="#fcfafc"/>
<rect x="7" y="16" width="1" height="1" fill="#fefdfe"/>
<rect x="8" y="16" width="1" height="1" fill="#c57cc4"/>
<rect x="9" y="16" width="1" height="1" fill="#a61da3"/>
<rect x="10" y="16" width="1" height="1" fill="#a71aa5"/>
<rect x="11" y="16" width="1" height="1" fill="#b41ab3"/>
<rect x="12" y="16" width="1" height="1" fill="#b51ab4"/>
<rect x="13" y="16" width="1" height="1" fill="#ac1aaa"/>
<rect x="14" y="16" width="1" height="1" fill="#931893" fill-opacity="0.992"/>
<rect x="15" y="16" width="1" height="1" fill="#8e188e" fill-opacity="0.455"/>
<rect x="16" y="16" width="1" height="1" fill="#8e188e" fill-opacity="0.031"/>
<rect x="19" y="16" width="1" height="1" fill="#8e188e" fill-opacity="0.161"/>
<rect x="20" y="16" width="1" height="1" fill="#ae32b0" fill-opacity="0.902"/>
<rect x="21" y="16" width="1" height="1" fill="#ae32af" fill-opacity="0.525"/>
<rect x="22" y="16" width="1" height="1" fill="#c847c9" fill-opacity="0.012"/>
<rect x="4" y="17" width="1" height="1" fill="#a218a2" fill-opacity="0.027"/>
<rect x="5" y="17" width="1" height="1" fill="#941894" fill-opacity="0.965"/>
<rect x="6" y="17" width="1" height="1" fill="#9f229f" fill-opacity="0.996"/>
<rect x="7" y="17" width="1" height="1" fill="#f5abf5"/>
<rect x="8" y="17" width="1" height="1" fill="#fcf9fc"/>
<rect x="9" y="17" width="1" height="1" fill="#e2bee2"/>
<rect x="10" y="17" width="1" height="1" fill="#ad3eaa"/>
<rect x="11" y="17" width="1" height="1" fill="#a81ba6"/>
<rect x="12" y="17" width="1" height="1" fill="#a91aa6"/>
<rect x="13" y="17" width="1" height="1" fill="#971996" fill-opacity="0.992"/>
<rect x="14" y="17" width="1" height="1" fill="#8e188e" fill-opacity="0.639"/>
<rect x="15" y="17" width="1" height="1" fill="#8e188e" fill-opacity="0.129"/>
<rect x="16" y="17" width="1" height="1" fill="#8e188e" fill-opacity="0.004"/>
<rect x="20" y="17" width="1" height="1" fill="#c042c1" fill-opacity="0.125"/>
<rect x="21" y="17" width="1" height="1" fill="#cb49cc" fill-opacity="0.114"/>
<rect x="22" y="17" width="1" height="1" fill="#e55ee6" fill-opacity="0.004"/>
<rect x="6" y="18" width="1" height="1" fill="#961896" fill-opacity="0.635"/>
<rect x="7" y="18" width="1" height="1" fill="#951c95" fill-opacity="0.996"/>
<rect x="8" y="18" width="1" height="1" fill="#c672c6" fill-opacity="0.996"/>
<rect x="9" y="18" width="1" height="1" fill="#eb83eb"/>
<rect x="10" y="18" width="1" height="1" fill="#faf4fa"/>
<rect x="11" y="18" width="1" height="1" fill="#e419e4"/>
<rect x="12" y="18" width="1" height="1" fill="#a118a1"/>
<rect x="13" y="18" width="1" height="1" fill="#961896" fill-opacity="0.773"/>
<rect x="14" y="18" width="1" height="1" fill="#8e188e" fill-opacity="0.051"/>
<rect x="15" y="18" width="1" height="1" fill="#8e188e" fill-opacity="0.004"/>
<rect x="6" y="19" width="1" height="1" fill="#8e188e" fill-opacity="0.008"/>
<rect x="7" y="19" width="1" height="1" fill="#911891" fill-opacity="0.204"/>
<rect x="8" y="19" width="1" height="1" fill="#941894" fill-opacity="0.894"/>
<rect x="9" y="19" width="1" height="1" fill="#9d189d" fill-opacity="0.953"/>
<rect x="10" y="19" width="1" height="1" fill="#951895" fill-opacity="0.996"/>
<rect x="11" y="19" width="1" height="1" fill="#911891"/>
<rect x="12" y="19" width="1" height="1" fill="#941894" fill-opacity="0.906"/>
<rect x="13" y="19" width="1" height="1" fill="#921892" fill-opacity="0.012"/>
</svg>