<?xml version="1.0" encoding="UTF-8" standalone="no"?>
<svg xmlns="http://www.w3.org/2000/svg" width="26" height="21" shape-rendering="crispEdges">
<rect x="18" y="0" width="1" height="1" fill="#494744" fill-opacity="0.129"/>
<rect x="19" y="0" width="1" height="1" fill="#0d0c0b" fill-opacity="0.541"/>
<rect x="20" y="0" width="1" height="1" fill="#11100f" fill-opacity="0.898"/>
<rect x="21" y="0" width="1" height="1" fill="#141312" fill-opacity="0.988"/>
<rect x="22" y="0" width="1" height="1" fill="#151413" fill-opacity="0.996"/>
<rect x="23" y="0" width="1" height="1" fill="#161514" fill-opacity="0.996"/>
<rect x="24" y="0" width="1" height="1" fill="#161514" fill-opacity="0.878"/>
<rect x="15" y="1" width="1" height="1" fill="#8e8c8a" fill-opacity="0.106"/>
<rect x="16" y="1" width="1" height="1" fill="#0c0c0c" fill-opacity="0.502"/>
<rect x="17" y="1" width="1" height="1" fill="#040404" fill-opacity="0.675"/>
<rect x="18" y="1" width="1" height="1" fill="#0d0c0b" fill-opacity="0.757"/>
<rect x="19" y="1" width="1" height="1" fill="#171716" fill-opacity="0.996"/>
<rect x="20" y="1" width="1" height="1" fill="#181716"/>
<rect x="21" y="1" width="1" height="1" fill="#131312"/>
<rect x="22" y="1" width="1" height="1" fill="#141312" fill-opacity="0.78"/>
<rect x="23" y="1" width="1" height="1" fill="#21201e" fill-opacity="0.592"/>
<rect x="24" y="1" width="1" height="1" fill="#161514" fill-opacity="0.047"/>
<rect x="4" y="2" width="1" height="1" fill="#ffffff" fill-opacity="0.024"/>
<rect x="5" y="2" width="1" height="1" fill="#ffffff" fill-opacity="0.027"/>
<rect x="13" y="2" width="1" height="1" fill="#484543" fill-opacity="0.322"/>
<rect x="14" y="2" width="1" height="1" fill="#050505" fill-opacity="0.671"/>
<rect x="15" y="2" width="1" height="1" fill="#050505" fill-opacity="0.749"/>
<rect x="16" y="2" width="1" height="1" fill="#0c0b0a" fill-opacity="0.988"/>
<rect x="17" y="2" width="1" height="1" fill="#121111"/>
<rect x="18" y="2" width="1" height="1" fill="#1a1a19"/>
<rect x="19" y="2" width="1" height="1" fill="#1b1b1a"/>
<rect x="20" y="2" width="1" height="1" fill="#161615"/>
<rect x="21" y="2" width="1" height="1" fill="#201c17" fill-opacity="0.733"/>
<rect x="22" y="2" width="1" height="1" fill="#c6c6c6" fill-opacity="0.043"/>
<rect x="4" y="3" width="1" height="1" fill="#ffffff" fill-opacity="0.004"/>
<rect x="10" y="3" width="1" height="1" fill="#cac2bd" fill-opacity="0.024"/>
<rect x="11" y="3" width="1" height="1" fill="#373634" fill-opacity="0.435"/>
<rect x="12" y="3" width="1" height="1" fill="#090909" fill-opacity="0.718"/>
<rect x="13" y="3" width="1" height="1" fill="#0c0c0c" fill-opacity="0.761"/>
<rect x="14" y="3" width="1" height="1" fill="#131311"/>
<rect x="15" y="3" width="1" height="1" fill="#141313"/>
<rect x="16" y="3" width="1" height="1" fill="#161615"/>
<rect x="17" y="3" width="1" height="1" fill="#1d1d1c"/>
<rect x="18" y="3" width="1" height="1" fill="#1f1f1e"/>
<rect x="19" y="3" width="1" height="1" fill="#1d1c1b" fill-opacity="0.996"/>
<rect x="20" y="3" width="1" height="1" fill="#252428" fill-opacity="0.737"/>
<rect x="21" y="3" width="1" height="1" fill="#595a68" fill-opacity="0.302"/>
<rect x="22" y="3" width="1" height="1" fill="#080a29" fill-opacity="0.004"/>
<rect x="9" y="4" width="1" height="1" fill="#2e261f" fill-opacity="0.396"/>
<rect x="10" y="4" width="1" height="1" fill="#100e0c" fill-opacity="0.631"/>
<rect x="11" y="4" width="1" height="1" fill="#141413" fill-opacity="0.996"/>
<rect x="12" y="4" width="1" height="1" fill="#1a1a18"/>
<rect x="13" y="4" width="1" height="1" fill="#161414"/>
<rect x="14" y="4" width="1" height="1" fill="#151514"/>
<rect x="15" y="4" width="1" height="1" fill="#1f1f1e"/>
<rect x="16" y="4" width="1" height="1" fill="#212120"/>
<rect x="17" y="4" width="1" height="1" fill="#1f1f1e"/>
<rect x="18" y="4" width="1" height="1" fill="#1e1e1c"/>
<rect x="19" y="4" width="1" height="1" fill="#15141c" fill-opacity="0.992"/>
<rect x="20" y="4" width="1" height="1" fill="#383a4c" fill-opacity="0.502"/>
<rect x="21" y="4" width="1" height="1" fill="#080a29" fill-opacity="0.016"/>
<rect x="8" y="5" width="1" height="1" fill="#544f4a" fill-opacity="0.369"/>
<rect x="9" y="5" width="1" height="1" fill="#1c1620" fill-opacity="0.812"/>
<rect x="10" y="5" width="1" height="1" fill="#13101e" fill-opacity="0.902"/>
<rect x="11" y="5" width="1" height="1" fill="#0b0b1b"/>
<rect x="12" y="5" width="1" height="1" fill="#121018"/>
<rect x="13" y="5" width="1" height="1" fill="#131215"/>
<rect x="14" y="5" width="1" height="1" fill="#171618"/>
<rect x="15" y="5" width="1" height="1" fill="#1f1d1d"/>
<rect x="16" y="5" width="1" height="1" fill="#1f1f1d"/>
<rect x="17" y="5" width="1" height="1" fill="#1e1e1d"/>
<rect x="18" y="5" width="1" height="1" fill="#1a191a"/>
<rect x="19" y="5" width="1" height="1" fill="#0f1025" fill-opacity="0.996"/>
<rect x="20" y="5" width="1" height="1" fill="#46485c" fill-opacity="0.243"/>
<rect x="9" y="6" width="1" height="1" fill="#080a29" fill-opacity="0.118"/>
<rect x="10" y="6" width="1" height="1" fill="#1b1c38" fill-opacity="0.337"/>
<rect x="11" y="6" width="1" height="1" fill="#181a36" fill-opacity="0.545"/>
<rect x="12" y="6" width="1" height="1" fill="#1e2035" fill-opacity="0.761"/>
<rect x="13" y="6" width="1" height="1" fill="#0e101e" fill-opacity="0.855"/>
<rect x="14" y="6" width="1" height="1" fill="#111119"/>
<rect x="15" y="6" width="1" height="1" fill="#18181b"/>
<rect x="16" y="6" width="1" height="1" fill="#1a1a19"/>
<rect x="17" y="6" width="1" height="1" fill="#1e1d1c"/>
<rect x="18" y="6" width="1" height="1" fill="#1b1b1b"/>
<rect x="19" y="6" width="1" height="1" fill="#0f1026"/>
<rect x="20" y="6" width="1" height="1" fill="#1a1b2f" fill-opacity="0.82"/>
<rect x="21" y="6" width="1" height="1" fill="#7e7e8a" fill-opacity="0.078"/>
<rect x="10" y="7" width="1" height="1" fill="#ffffff" fill-opacity="0.047"/>
<rect x="11" y="7" width="1" height="1" fill="#ffffff" fill-opacity="0.024"/>
<rect x="12" y="7" width="1" height="1" fill="#adadb8" fill-opacity="0.082"/>
<rect x="13" y="7" width="1" height="1" fill="#323145" fill-opacity="0.435"/>
<rect x="14" y="7" width="1" height="1" fill="#1a1925" fill-opacity="0.965"/>
<rect x="15" y="7" width="1" height="1" fill="#131318"/>
<rect x="16" y="7" width="1" height="1" fill="#191919"/>
<rect x="17" y="7" width="1" height="1" fill="#1e1e1d"/>
<rect x="18" y="7" width="1" height="1" fill="#1e1e1d"/>
<rect x="19" y="7" width="1" height="1" fill="#16171b"/>
<rect x="20" y="7" width="1" height="1" fill="#0c0e25" fill-opacity="0.996"/>
<rect x="21" y="7" width="1" height="1" fill="#090a1a" fill-opacity="0.855"/>
<rect x="22" y="7" width="1" height="1" fill="#8f8f94" fill-opacity="0.165"/>
<rect x="4" y="8" width="1" height="1" fill="#e8c4ba" fill-opacity="0.004"/>
<rect x="9" y="8" width="1" height="1" fill="#efb9b0" fill-opacity="0.004"/>
<rect x="14" y="8" width="1" height="1" fill="#221525" fill-opacity="0.098"/>
<rect x="15" y="8" width="1" height="1" fill="#19161a" fill-opacity="0.957"/>
<rect x="16" y="8" width="1" height="1" fill="#151315"/>
<rect x="17" y="8" width="1" height="1" fill="#1a1918"/>
<rect x="18" y="8" width="1" height="1" fill="#1e1e1d"/>
<rect x="19" y="8" width="1" height="1" fill="#1b1b19"/>
<rect x="20" y="8" width="1" height="1" fill="#16171c"/>
<rect x="21" y="8" width="1" height="1" fill="#0c0d1b" fill-opacity="0.988"/>
<rect x="22" y="8" width="1" height="1" fill="#161518" fill-opacity="0.725"/>
<rect x="23" y="8" width="1" height="1" fill="#535353" fill-opacity="0.424"/>
<rect x="3" y="9" width="1" height="1" fill="#b34a17" fill-opacity="0.008"/>
<rect x="4" y="9" width="1" height="1" fill="#ae550c" fill-opacity="0.008"/>
<rect x="9" y="9" width="1" height="1" fill="#c62309" fill-opacity="0.965"/>
<rect x="10" y="9" width="1" height="1" fill="#a61805" fill-opacity="0.996"/>
<rect x="11" y="9" width="1" height="1" fill="#ab1705" fill-opacity="0.996"/>
<rect x="12" y="9" width="1" height="1" fill="#ac1a0a" fill-opacity="0.996"/>
<rect x="13" y="9" width="1" height="1" fill="#ab1b0c" fill-opacity="0.996"/>
<rect x="14" y="9" width="1" height="1" fill="#b2200c" fill-opacity="0.992"/>
<rect x="15" y="9" width="1" height="1" fill="#b3200a" fill-opacity="0.984"/>
<rect x="16" y="9" width="1" height="1" fill="#151415"/>
<rect x="17" y="9" width="1" height="1" fill="#141314"/>
<rect x="18" y="9" width="1" height="1" fill="#1d1c1a"/>
<rect x="19" y="9" width="1" height="1" fill="#1b1a19"/>
<rect x="20" y="9" width="1" height="1" fill="#1d1d1c"/>
<rect x="21" y="9" width="1" height="1" fill="#1c1b1a"/>
<rect x="22" y="9" width="1" height="1" fill="#171616"/>
<rect x="23" y="9" width="1" height="1" fill="#111011" fill-opacity="0.804"/>
<rect x="24" y="9" width="1" height="1" fill="#282727" fill-opacity="0.439"/>
<rect x="2" y="10" width="1" height="1" fill="#c23728" fill-opacity="0.647"/>
<rect x="3" y="10" width="1" height="1" fill="#b72619" fill-opacity="0.714"/>
<rect x="4" y="10" width="1" height="1" fill="#b92517" fill-opacity="0.714"/>
<rect x="5" y="10" width="1" height="1" fill="#be2818" fill-opacity="0.992"/>
<rect x="9" y="10" width="1" height="1" fill="#bf2714" fill-opacity="0.38"/>
<rect x="10" y="10" width="1" height="1" fill="#c71808" fill-opacity="0.996"/>
<rect x="11" y="10" width="1" height="1" fill="#bf190a"/>
<rect x="12" y="10" width="1" height="1" fill="#cd1506"/>
<rect x="13" y="10" width="1" height="1" fill="#c11508"/>
<rect x="14" y="10" width="1" height="1" fill="#c01206"/>
<rect x="15" y="10" width="1" height="1" fill="#c91807"/>
<rect x="16" y="10" width="1" height="1" fill="#1a1311"/>
<rect x="17" y="10" width="1" height="1" fill="#171514"/>
<rect x="18" y="10" width="1" height="1" fill="#1b1a1a"/>
<rect x="19" y="10" width="1" height="1" fill="#201f1e"/>
<rect x="20" y="10" width="1" height="1" fill="#1d1d1c" fill-opacity="0.992"/>
<rect x="21" y="10" width="1" height="1" fill="#1e1e1c" fill-opacity="0.792"/>
<rect x="22" y="10" width="1" height="1" fill="#201f21" fill-opacity="0.816"/>
<rect x="23" y="10" width="1" height="1" fill="#474649" fill-opacity="0.494"/>
<rect x="24" y="10" width="1" height="1" fill="#292827" fill-opacity="0.141"/>
<rect x="0" y="11" width="1" height="1" fill="#c13022" fill-opacity="0.086"/>
<rect x="1" y="11" width="1" height="1" fill="#b61a0c" fill-opacity="0.933"/>
<rect x="2" y="11" width="1" height="1" fill="#c11a0c"/>
<rect x="3" y="11" width="1" height="1" fill="#d11809"/>
<rect x="4" y="11" width="1" height="1" fill="#d21d09"/>
<rect x="5" y="11" width="1" height="1" fill="#d32b0a" fill-opacity="0.996"/>
<rect x="6" y="11" width="1" height="1" fill="#ca3124" fill-opacity="0.914"/>
<rect x="7" y="11" width="1" height="1" fill="#ecafaa" fill-opacity="0.157"/>
<rect x="8" y="11" width="1" height="1" fill="#fdfdfd" fill-opacity="0.02"/>
<rect x="9" y="11" width="1" height="1" fill="#fcfcfc" fill-opacity="0.02"/>
<rect x="10" y="11" width="1" height="1" fill="#c3220b" fill-opacity="0.843"/>
<rect x="11" y="11" width="1" height="1" fill="#cd1605"/>
<rect x="12" y="11" width="1" height="1" fill="#c71908"/>
<rect x="13" y="11" width="1" height="1" fill="#ca1907"/>
<rect x="14" y="11" width="1" height="1" fill="#be1607"/>
<rect x="15" y="11" width="1" height="1" fill="#8b0f06" fill-opacity="0.973"/>
<rect x="16" y="11" width="1" height="1" fill="#110f0f"/>
<rect x="17" y="11" width="1" height="1" fill="#181615"/>
<rect x="18" y="11" width="1" height="1" fill="#1c1b1b"/>
<rect x="19" y="11" width="1" height="1" fill="#201f1e"/>
<rect x="20" y="11" width="1" height="1" fill="#1e1e1d" fill-opacity="0.996"/>
<rect x="21" y="11" width="1" height="1" fill="#252526" fill-opacity="0.784"/>
<rect x="22" y="11" width="1" height="1" fill="#121116" fill-opacity="0.275"/>
<rect x="23" y="11" width="1" height="1" fill="#121116" fill-opacity="0.02"/>
<rect x="0" y="12" width="1" height="1" fill="#ac1d07" fill-opacity="0.349"/>
<rect x="1" y="12" width="1" height="1" fill="#b61a0b" fill-opacity="0.929"/>
<rect x="2" y="12" width="1" height="1" fill="#d31707"/>
<rect x="3" y="12" width="1" height="1" fill="#d1200d"/>
<rect x="4" y="12" width="1" height="1" fill="#d21f0f" fill-opacity="0.992"/>
<rect x="5" y="12" width="1" height="1" fill="#cf1707" fill-opacity="0.627"/>
<rect x="6" y="12" width="1" height="1" fill="#ce200f" fill-opacity="0.996"/>
<rect x="7" y="12" width="1" height="1" fill="#dc5f54" fill-opacity="0.118"/>
<rect x="8" y="12" width="1" height="1" fill="#fcfcfc" fill-opacity="0.008"/>
<rect x="10" y="12" width="1" height="1" fill="#b62617" fill-opacity="0.051"/>
<rect x="11" y="12" width="1" height="1" fill="#cd1706"/>
<rect x="12" y="12" width="1" height="1" fill="#c91a07"/>
<rect x="13" y="12" width="1" height="1" fill="#db1404"/>
<rect x="14" y="12" width="1" height="1" fill="#5b1006"/>
<rect x="15" y="12" width="1" height="1" fill="#0e0b08"/>
<rect x="16" y="12" width="1" height="1" fill="#121111"/>
<rect x="17" y="12" width="1" height="1" fill="#131212"/>
<rect x="18" y="12" width="1" height="1" fill="#1e1d1d"/>
<rect x="19" y="12" width="1" height="1" fill="#1f1e1c"/>
<rect x="20" y="12" width="1" height="1" fill="#20201f" fill-opacity="0.996"/>
<rect x="21" y="12" width="1" height="1" fill="#24232d" fill-opacity="0.773"/>
<rect x="22" y="12" width="1" height="1" fill="#111018" fill-opacity="0.145"/>
<rect x="23" y="12" width="1" height="1" fill="#121116" fill-opacity="0.004"/>
<rect x="0" y="13" width="1" height="1" fill="#b31909"/>
<rect x="1" y="13" width="1" height="1" fill="#ca1707"/>
<rect x="2" y="13" width="1" height="1" fill="#dc1b0c"/>
<rect x="3" y="13" width="1" height="1" fill="#b91e10"/>
<rect x="4" y="13" width="1" height="1" fill="#d11809" fill-opacity="0.443"/>
<rect x="5" y="13" width="1" height="1" fill="#cf1706" fill-opacity="0.345"/>
<rect x="6" y="13" width="1" height="1" fill="#d01b0a"/>
<rect x="7" y="13" width="1" height="1" fill="#cf1706" fill-opacity="0.118"/>
<rect x="8" y="13" width="1" height="1" fill="#fcfcfc" fill-opacity="0.008"/>
<rect x="10" y="13" width="1" height="1" fill="#f9e2de" fill-opacity="0.027"/>
<rect x="11" y="13" width="1" height="1" fill="#bf1c0b"/>
<rect x="12" y="13" width="1" height="1" fill="#ca1706"/>
<rect x="13" y="13" width="1" height="1" fill="#cd1a06"/>
<rect x="14" y="13" width="1" height="1" fill="#d11504"/>
<rect x="15" y="13" width="1" height="1" fill="#871207"/>
<rect x="16" y="13" width="1" height="1" fill="#22100b"/>
<rect x="17" y="13" width="1" height="1" fill="#101010"/>
<rect x="18" y="13" width="1" height="1" fill="#111110"/>
<rect x="19" y="13" width="1" height="1" fill="#201f1f"/>
<rect x="20" y="13" width="1" height="1" fill="#1f1f1f" fill-opacity="0.996"/>
<rect x="21" y="13" width="1" height="1" fill="#1e2032" fill-opacity="0.941"/>
<rect x="22" y="13" width="1" height="1" fill="#0e0e1d" fill-opacity="0.118"/>
<rect x="0" y="14" width="1" height="1" fill="#ad1708"/>
<rect x="1" y="14" width="1" height="1" fill="#ca1808"/>
<rect x="2" y="14" width="1" height="1" fill="#e13b2b"/>
<rect x="3" y="14" width="1" height="1" fill="#b71e0c"/>
<rect x="4" y="14" width="1" height="1" fill="#f1dcd9" fill-opacity="0.165"/>
<rect x="5" y="14" width="1" height="1" fill="#cf1706" fill-opacity="0.451"/>
<rect x="6" y="14" width="1" height="1" fill="#cf1706" fill-opacity="0.565"/>
<rect x="7" y="14" width="1" height="1" fill="#cf1706" fill-opacity="0.012"/>
<rect x="11" y="14" width="1" height="1" fill="#b72111"/>
<rect x="12" y="14" width="1" height="1" fill="#c31a09"/>
<rect x="13" y="14" width="1" height="1" fill="#cc1806"/>
<rect x="14" y="14" width="1" height="1" fill="#cf1706"/>
<rect x="15" y="14" width="1" height="1" fill="#cf1b05"/>
<rect x="16" y="14" width="1" height="1" fill="#af1706"/>
<rect x="17" y="14" width="1" height="1" fill="#3c1909" fill-opacity="0.859"/>
<rect x="18" y="14" width="1" height="1" fill="#10100f" fill-opacity="0.98"/>
<rect x="19" y="14" width="1" height="1" fill="#101011"/>
<rect x="20" y="14" width="1" height="1" fill="#1b1b1b" fill-opacity="0.976"/>
<rect x="21" y="14" width="1" height="1" fill="#111328" fill-opacity="0.957"/>
<rect x="22" y="14" width="1" height="1" fill="#474851" fill-opacity="0.345"/>
<rect x="0" y="15" width="1" height="1" fill="#b61709"/>
<rect x="1" y="15" width="1" height="1" fill="#cc1808"/>
<rect x="2" y="15" width="1" height="1" fill="#e65545"/>
<rect x="3" y="15" width="1" height="1" fill="#c93424"/>
<rect x="4" y="15" width="1" height="1" fill="#ae3b2e"/>
<rect x="5" y="15" width="1" height="1" fill="#e9cbc8" fill-opacity="0.016"/>
<rect x="9" y="15" width="1" height="1" fill="#e9c0b5" fill-opacity="0.125"/>
<rect x="10" y="15" width="1" height="1" fill="#b02c1b"/>
<rect x="11" y="15" width="1" height="1" fill="#c81908"/>
<rect x="12" y="15" width="1" height="1" fill="#cd1a08"/>
<rect x="13" y="15" width="1" height="1" fill="#e11103"/>
<rect x="14" y="15" width="1" height="1" fill="#db1604"/>
<rect x="15" y="15" width="1" height="1" fill="#d21905"/>
<rect x="16" y="15" width="1" height="1" fill="#c21307"/>
<rect x="17" y="15" width="1" height="1" fill="#c51a08" fill-opacity="0.98"/>
<rect x="18" y="15" width="1" height="1" fill="#491c0c" fill-opacity="0.365"/>
<rect x="19" y="15" width="1" height="1" fill="#150f0b" fill-opacity="0.898"/>
<rect x="20" y="15" width="1" height="1" fill="#111015" fill-opacity="0.965"/>
<rect x="21" y="15" width="1" height="1" fill="#151522" fill-opacity="0.98"/>
<rect x="22" y="15" width="1" height="1" fill="#343441" fill-opacity="0.69"/>
<rect x="23" y="15" width="1" height="1" fill="#5a5a62" fill-opacity="0.047"/>
<rect x="0" y="16" width="1" height="1" fill="#b7180a"/>
<rect x="1" y="16" width="1" height="1" fill="#ca1909"/>
<rect x="2" y="16" width="1" height="1" fill="#e23f31"/>
<rect x="3" y="16" width="1" height="1" fill="#e25547"/>
<rect x="4" y="16" width="1" height="1" fill="#ac2f22"/>
<rect x="5" y="16" width="1" height="1" fill="#aa3124" fill-opacity="0.831"/>
<rect x="6" y="16" width="1" height="1" fill="#a93224" fill-opacity="0.831"/>
<rect x="7" y="16" width="1" height="1" fill="#a5240d" fill-opacity="0.922"/>
<rect x="8" y="16" width="1" height="1" fill="#ab1b09"/>
<rect x="9" y="16" width="1" height="1" fill="#b21c0a"/>
<rect x="10" y="16" width="1" height="1" fill="#b91e0c"/>
<rect x="11" y="16" width="1" height="1" fill="#c51b0a"/>
<rect x="12" y="16" width="1" height="1" fill="#d42412"/>
<rect x="13" y="16" width="1" height="1" fill="#f47062"/>
<rect x="14" y="16" width="1" height="1" fill="#e34d3c"/>
<rect x="15" y="16" width="1" height="1" fill="#d91806"/>
<rect x="16" y="16" width="1" height="1" fill="#cd1606"/>
<rect x="17" y="16" width="1" height="1" fill="#b71707"/>
<rect x="18" y="16" width="1" height="1" fill="#a91506" fill-opacity="0.525"/>
<rect x="19" y="16" width="1" height="1" fill="#b45609" fill-opacity="0.024"/>
<rect x="20" y="16" width="1" height="1" fill="#1e1b1c" fill-opacity="0.376"/>
<rect x="21" y="16" width="1" height="1" fill="#171518" fill-opacity="0.937"/>
<rect x="22" y="16" width="1" height="1" fill="#292937" fill-opacity="0.886"/>
<rect x="23" y="16" width="1" height="1" fill="#2b2b31" fill-opacity="0.2"/>
<rect x="24" y="16" width="1" height="1" fill="#121116" fill-opacity="0.016"/>
<rect x="0" y="17" width="1" height="1" fill="#ad1b0f"/>
<rect x="1" y="17" width="1" height="1" fill="#c61a0b"/>
<rect x="2" y="17" width="1" height="1" fill="#d81c0e"/>
<rect x="3" y="17" width="1" height="1" fill="#dc3424"/>
<rect x="4" y="17" width="1" height="1" fill="#c1291a"/>
<rect x="5" y="17" width="1" height="1" fill="#b02716"/>
<rect x="6" y="17" width="1" height="1" fill="#c21e0c"/>
<rect x="7" y="17" width="1" height="1" fill="#cd200b"/>
<rect x="8" y="17" width="1" height="1" fill="#cb220b"/>
<rect x="9" y="17" width="1" height="1" fill="#cb230d"/>
<rect x="10" y="17" width="1" height="1" fill="#a82412"/>
<rect x="11" y="17" width="1" height="1" fill="#ae2110"/>
<rect x="12" y="17" width="1" height="1" fill="#cd2916"/>
<rect x="13" y="17" width="1" height="1" fill="#e5503f"/>
<rect x="14" y="17" width="1" height="1" fill="#db2311"/>
<rect x="15" y="17" width="1" height="1" fill="#db1505"/>
<rect x="16" y="17" width="1" height="1" fill="#d31505"/>
<rect x="17" y="17" width="1" height="1" fill="#b71707"/>
<rect x="18" y="17" width="1" height="1" fill="#a61605" fill-opacity="0.6"/>
<rect x="19" y="17" width="1" height="1" fill="#b72c12" fill-opacity="0.051"/>
<rect x="20" y="17" width="1" height="1" fill="#ebdbcf" fill-opacity="0.012"/>
<rect x="21" y="17" width="1" height="1" fill="#5f5e63" fill-opacity="0.384"/>
<rect x="22" y="17" width="1" height="1" fill="#222127" fill-opacity="0.839"/>
<rect x="23" y="17" width="1" height="1" fill="#6c6a6d" fill-opacity="0.545"/>
<rect x="24" y="17" width="1" height="1" fill="#121116" fill-opacity="0.031"/>
<rect x="0" y="18" width="1" height="1" fill="#9c1c09" fill-opacity="0.733"/>
<rect x="1" y="18" width="1" height="1" fill="#b8180a" fill-opacity="0.914"/>
<rect x="2" y="18" width="1" height="1" fill="#cb1809"/>
<rect x="3" y="18" width="1" height="1" fill="#bb1f0e"/>
<rect x="4" y="18" width="1" height="1" fill="#a42111"/>
<rect x="5" y="18" width="1" height="1" fill="#aa2716"/>
<rect x="6" y="18" width="1" height="1" fill="#ca2b19"/>
<rect x="7" y="18" width="1" height="1" fill="#d62c18"/>
<rect x="8" y="18" width="1" height="1" fill="#d32915"/>
<rect x="9" y="18" width="1" height="1" fill="#d6200e"/>
<rect x="10" y="18" width="1" height="1" fill="#b3210f"/>
<rect x="11" y="18" width="1" height="1" fill="#a62513"/>
<rect x="12" y="18" width="1" height="1" fill="#be1d0c"/>
<rect x="13" y="18" width="1" height="1" fill="#cd1706"/>
<rect x="14" y="18" width="1" height="1" fill="#d21605"/>
<rect x="15" y="18" width="1" height="1" fill="#d51605"/>
<rect x="16" y="18" width="1" height="1" fill="#d21a05"/>
<rect x="17" y="18" width="1" height="1" fill="#c21b07"/>
<rect x="18" y="18" width="1" height="1" fill="#a01405" fill-opacity="0.843"/>
<rect x="19" y="18" width="1" height="1" fill="#b81807" fill-opacity="0.298"/>
<rect x="20" y="18" width="1" height="1" fill="#ffffff" fill-opacity="0.02"/>
<rect x="21" y="18" width="1" height="1" fill="#fefefe" fill-opacity="0.02"/>
<rect x="22" y="18" width="1" height="1" fill="#b4b4b9" fill-opacity="0.184"/>
<rect x="23" y="18" width="1" height="1" fill="#46454a" fill-opacity="0.69"/>
<rect x="24" y="18" width="1" height="1" fill="#535256" fill-opacity="0.212"/>
<rect x="0" y="19" width="1" height="1" fill="#b82216" fill-opacity="0.118"/>
<rect x="1" y="19" width="1" height="1" fill="#a91809" fill-opacity="0.98"/>
<rect x="2" y="19" width="1" height="1" fill="#a71809"/>
<rect x="3" y="19" width="1" height="1" fill="#b01f0f"/>
<rect x="4" y="19" width="1" height="1" fill="#a62111"/>
<rect x="5" y="19" width="1" height="1" fill="#aa2312"/>
<rect x="6" y="19" width="1" height="1" fill="#b4220f"/>
<rect x="7" y="19" width="1" height="1" fill="#bb220e"/>
<rect x="8" y="19" width="1" height="1" fill="#b5210f"/>
<rect x="9" y="19" width="1" height="1" fill="#b42210"/>
<rect x="10" y="19" width="1" height="1" fill="#b5220f"/>
<rect x="11" y="19" width="1" height="1" fill="#a92412"/>
<rect x="12" y="19" width="1" height="1" fill="#ad2311"/>
<rect x="13" y="19" width="1" height="1" fill="#bc230c"/>
<rect x="14" y="19" width="1" height="1" fill="#be1f0b"/>
<rect x="15" y="19" width="1" height="1" fill="#c11e0a"/>
<rect x="16" y="19" width="1" height="1" fill="#c71d09"/>
<rect x="17" y="19" width="1" height="1" fill="#c41d08"/>
<rect x="18" y="19" width="1" height="1" fill="#ac1706" fill-opacity="0.988"/>
<rect x="19" y="19" width="1" height="1" fill="#b51907" fill-opacity="0.322"/>
<rect x="21" y="19" width="1" height="1" fill="#fdfdfd" fill-opacity="0.008"/>
<rect x="23" y="19" width="1" height="1" fill="#504f53" fill-opacity="0.071"/>
<rect x="24" y="19" width="1" height="1" fill="#a8a7a9" fill-opacity="0.224"/>
</svg>