<?xml version="1.0" encoding="UTF-8" standalone="no"?>
<svg xmlns="http://www.w3.org/2000/svg" width="26" height="21" shape-rendering="crispEdges">
<rect x="18" y="0" width="1" height="1" fill="#494744" fill-opacity="0.129"/>
<rect x="19" y="0" width="1" height="1" fill="#0d0c0b" fill-opacity="0.541"/>
<rect x="20" y="0" width="1" height="1" fill="#11100f" fill-opacity="0.898"/>
<rect x="21" y="0" width="1" height="1" fill="#141312" fill-opacity="0.988"/>
<rect x="22" y="0" width="1" height="1" fill="#151413" fill-opacity="0.996"/>
<rect x="23" y="0" width="1" height="1" fill="#161514" fill-opacity="0.996"/>
<rect x="24" y="0" width="1" height="1" fill="#161514" fill-opacity="0.878"/>
<rect x="15" y="1" width="1" height="1" fill="#8e8c8a" fill-opacity="0.106"/>
<rect x="16" y="1" width="1" height="1" fill="#0c0c0c" fill-opacity="0.502"/>
<rect x="17" y="1" width="1" height="1" fill="#040404" fill-opacity="0.675"/>
<rect x="18" y="1" width="1" height="1" fill="#0d0c0b" fill-opacity="0.757"/>
<rect x="19" y="1" width="1" height="1" fill="#171716" fill-opacity="0.996"/>
<rect x="20" y="1" width="1" height="1" fill="#181716"/>
<rect x="21" y="1" width="1" height="1" fill="#131312"/>
<rect x="22" y="1" width="1" height="1" fill="#141312" fill-opacity="0.78"/>
<rect x="23" y="1" width="1" height="1" fill="#21201e" fill-opacity="0.592"/>
<rect x="24" y="1" width="1" height="1" fill="#161514" fill-opacity="0.047"/>
<rect x="4" y="2" width="1" height="1" fill="#ffffff" fill-opacity="0.024"/>
<rect x="5" y="2" width="1" height="1" fill="#ffffff" fill-opacity="0.027"/>
<rect x="13" y="2" width="1" height="1" fill="#484543" fill-opacity="0.322"/>
<rect x="14" y="2" width="1" height="1" fill="#050505" fill-opacity="0.671"/>
<rect x="15" y="2" width="1" height="1" fill="#050505" fill-opacity="0.749"/>
<rect x="16" y="2" width="1" height="1" fill="#0c0b0a" fill-opacity="0.988"/>
<rect x="17" y="2" width="1" height="1" fill="#121111"/>
<rect x="18" y="2" width="1" height="1" fill="#1a1a19"/>
<rect x="19" y="2" width="1" height="1" fill="#1b1b1a"/>
<rect x="20" y="2" width="1" height="1" fill="#161615"/>
<rect x="21" y="2" width="1" height="1" fill="#201c17" fill-opacity="0.733"/>
<rect x="22" y="2" width="1" height="1" fill="#c6c6c6" fill-opacity="0.043"/>
<rect x="4" y="3" width="1" height="1" fill="#ffffff" fill-opacity="0.004"/>
<rect x="10" y="3" width="1" height="1" fill="#cac2bd" fill-opacity="0.024"/>
<rect x="11" y="3" width="1" height="1" fill="#373634" fill-opacity="0.435"/>
<rect x="12" y="3" width="1" height="1" fill="#090909" fill-opacity="0.718"/>
<rect x="13" y="3" width="1" height="1" fill="#0c0c0c" fill-opacity="0.761"/>
<rect x="14" y="3" width="1" height="1" fill="#131311"/>
<rect x="15" y="3" width="1" height="1" fill="#141313"/>
<rect x="16" y="3" width="1" height="1" fill="#161615"/>
<rect x="17" y="3" width="1" height="1" fill="#1d1d1c"/>
<rect x="18" y="3" width="1" height="1" fill="#1f1f1e"/>
<rect x="19" y="3" width="1" height="1" fill="#1d1c1b" fill-opacity="0.996"/>
<rect x="20" y="3" width="1" height="1" fill="#252428" fill-opacity="0.737"/>
<rect x="21" y="3" width="1" height="1" fill="#595a68" fill-opacity="0.302"/>
<rect x="22" y="3" width="1" height="1" fill="#080a29" fill-opacity="0.004"/>
<rect x="9" y="4" width="1" height="1" fill="#2e261f" fill-opacity="0.396"/>
<rect x="10" y="4" width="1" height="1" fill="#100e0c" fill-opacity="0.631"/>
<rect x="11" y="4" width="1" height="1" fill="#141413" fill-opacity="0.996"/>
<rect x="12" y="4" width="1" height="1" fill="#1a1a18"/>
<rect x="13" y="4" width="1" height="1" fill="#161414"/>
<rect x="14" y="4" width="1" height="1" fill="#151514"/>
<rect x="15" y="4" width="1" height="1" fill="#1f1f1e"/>
<rect x="16" y="4" width="1" height="1" fill="#212120"/>
<rect x="17" y="4" width="1" height="1" fill="#1f1f1e"/>
<rect x="18" y="4" width="1" height="1" fill="#1e1e1c"/>
<rect x="19" y="4" width="1" height="1" fill="#15141c" fill-opacity="0.992"/>
<rect x="20" y="4" width="1" height="1" fill="#383a4c" fill-opacity="0.502"/>
<rect x="21" y="4" width="1" height="1" fill="#080a29" fill-opacity="0.016"/>
<rect x="8" y="5" width="1" height="1" fill="#544f4a" fill-opacity="0.369"/>
<rect x="9" y="5" width="1" height="1" fill="#1c1620" fill-opacity="0.812"/>
<rect x="10" y="5" width="1" height="1" fill="#13101e" fill-opacity="0.902"/>
<rect x="11" y="5" width="1" height="1" fill="#0b0b1b"/>
<rect x="12" y="5" width="1" height="1" fill="#121018"/>
<rect x="13" y="5" width="1" height="1" fill="#131215"/>
<rect x="14" y="5" width="1" height="1" fill="#171618"/>
<rect x="15" y="5" width="1" height="1" fill="#1f1d1d"/>
<rect x="16" y="5" width="1" height="1" fill="#1f1f1d"/>
<rect x="17" y="5" width="1" height="1" fill="#1e1e1d"/>
<rect x="18" y="5" width="1" height="1" fill="#1a191a"/>
<rect x="19" y="5" width="1" height="1" fill="#0f1025" fill-opacity="0.996"/>
<rect x="20" y="5" width="1" height="1" fill="#46485c" fill-opacity="0.243"/>
<rect x="9" y="6" width="1" height="1" fill="#080a29" fill-opacity="0.118"/>
<rect x="10" y="6" width="1" height="1" fill="#1b1c38" fill-opacity="0.337"/>
<rect x="11" y="6" width="1" height="1" fill="#181a36" fill-opacity="0.545"/>
<rect x="12" y="6" width="1" height="1" fill="#1e2035" fill-opacity="0.761"/>
<rect x="13" y="6" width="1" height="1" fill="#0e101e" fill-opacity="0.855"/>
<rect x="14" y="6" width="1" height="1" fill="#111119"/>
<rect x="15" y="6" width="1" height="1" fill="#18181b"/>
<rect x="16" y="6" width="1" height="1" fill="#1a1a19"/>
<rect x="17" y="6" width="1" height="1" fill="#1e1d1c"/>
<rect x="18" y="6" width="1" height="1" fill="#1b1b1b"/>
<rect x="19" y="6" width="1" height="1" fill="#0f1026"/>
<rect x="20" y="6" width="1" height="1" fill="#1a1b2f" fill-opacity="0.82"/>
<rect x="21" y="6" width="1" height="1" fill="#7e7e8a" fill-opacity="0.078"/>
<rect x="12" y="7" width="1" height="1" fill="#080a29" fill-opacity="0.027"/>
<rect x="13" y="7" width="1" height="1" fill="#161732" fill-opacity="0.329"/>
<rect x="14" y="7" width="1" height="1" fill="#181825" fill-opacity="0.851"/>
<rect x="15" y="7" width="1" height="1" fill="#131318" fill-opacity="0.996"/>
<rect x="16" y="7" width="1" height="1" fill="#191919"/>
<rect x="17" y="7" width="1" height="1" fill="#1e1e1d"/>
<rect x="18" y="7" width="1" height="1" fill="#1e1e1d"/>
<rect x="19" y="7" width="1" height="1" fill="#16171b"/>
<rect x="20" y="7" width="1" height="1" fill="#0c0e25" fill-opacity="0.996"/>
<rect x="21" y="7" width="1" height="1" fill="#090a1a" fill-opacity="0.855"/>
<rect x="22" y="7" width="1" height="1" fill="#8f8f94" fill-opacity="0.165"/>
<rect x="4" y="8" width="1" height="1" fill="#e8c4ba" fill-opacity="0.004"/>
<rect x="14" y="8" width="1" height="1" fill="#161027" fill-opacity="0.09"/>
<rect x="15" y="8" width="1" height="1" fill="#18151b" fill-opacity="0.82"/>
<rect x="16" y="8" width="1" height="1" fill="#151315"/>
<rect x="17" y="8" width="1" height="1" fill="#1a1918"/>
<rect x="18" y="8" width="1" height="1" fill="#1e1e1d"/>
<rect x="19" y="8" width="1" height="1" fill="#1b1b19"/>
<rect x="20" y="8" width="1" height="1" fill="#16171c"/>
<rect x="21" y="8" width="1" height="1" fill="#0c0d1b" fill-opacity="0.988"/>
<rect x="22" y="8" width="1" height="1" fill="#161518" fill-opacity="0.725"/>
<rect x="23" y="8" width="1" height="1" fill="#535353" fill-opacity="0.424"/>
<rect x="3" y="9" width="1" height="1" fill="#be6914" fill-opacity="0.518"/>
<rect x="4" y="9" width="1" height="1" fill="#bd6712" fill-opacity="0.302"/>
<rect x="8" y="9" width="1" height="1" fill="#ebc7bf" fill-opacity="0.133"/>
<rect x="9" y="9" width="1" height="1" fill="#c36c30" fill-opacity="0.447"/>
<rect x="10" y="9" width="1" height="1" fill="#ad5507" fill-opacity="0.827"/>
<rect x="11" y="9" width="1" height="1" fill="#ac5307" fill-opacity="0.804"/>
<rect x="12" y="9" width="1" height="1" fill="#aa5309" fill-opacity="0.8"/>
<rect x="13" y="9" width="1" height="1" fill="#a7550d" fill-opacity="0.831"/>
<rect x="14" y="9" width="1" height="1" fill="#a4550f" fill-opacity="0.827"/>
<rect x="15" y="9" width="1" height="1" fill="#9d591b" fill-opacity="0.714"/>
<rect x="16" y="9" width="1" height="1" fill="#161515" fill-opacity="0.996"/>
<rect x="17" y="9" width="1" height="1" fill="#141314"/>
<rect x="18" y="9" width="1" height="1" fill="#1d1c1a"/>
<rect x="19" y="9" width="1" height="1" fill="#1b1a19"/>
<rect x="20" y="9" width="1" height="1" fill="#1d1d1c"/>
<rect x="21" y="9" width="1" height="1" fill="#1c1b1a"/>
<rect x="22" y="9" width="1" height="1" fill="#171616"/>
<rect x="23" y="9" width="1" height="1" fill="#111011" fill-opacity="0.804"/>
<rect x="24" y="9" width="1" height="1" fill="#282727" fill-opacity="0.439"/>
<rect x="1" y="10" width="1" height="1" fill="#c0701e" fill-opacity="0.18"/>
<rect x="2" y="10" width="1" height="1" fill="#bd6712" fill-opacity="0.878"/>
<rect x="3" y="10" width="1" height="1" fill="#bd6813" fill-opacity="0.965"/>
<rect x="4" y="10" width="1" height="1" fill="#bd6812"/>
<rect x="5" y="10" width="1" height="1" fill="#bd6812" fill-opacity="0.631"/>
<rect x="9" y="10" width="1" height="1" fill="#f1e2d5" fill-opacity="0.071"/>
<rect x="10" y="10" width="1" height="1" fill="#bc6a1b" fill-opacity="0.592"/>
<rect x="11" y="10" width="1" height="1" fill="#b05d0b"/>
<rect x="12" y="10" width="1" height="1" fill="#c67012"/>
<rect x="13" y="10" width="1" height="1" fill="#b96310"/>
<rect x="14" y="10" width="1" height="1" fill="#b35e0e"/>
<rect x="15" y="10" width="1" height="1" fill="#a8550d"/>
<rect x="16" y="10" width="1" height="1" fill="#291c10"/>
<rect x="17" y="10" width="1" height="1" fill="#171514"/>
<rect x="18" y="10" width="1" height="1" fill="#1b1a1a"/>
<rect x="19" y="10" width="1" height="1" fill="#201f1e" fill-opacity="0.996"/>
<rect x="20" y="10" width="1" height="1" fill="#1d1d1c" fill-opacity="0.992"/>
<rect x="21" y="10" width="1" height="1" fill="#1e1e1c" fill-opacity="0.792"/>
<rect x="22" y="10" width="1" height="1" fill="#201f21" fill-opacity="0.816"/>
<rect x="23" y="10" width="1" height="1" fill="#474649" fill-opacity="0.494"/>
<rect x="24" y="10" width="1" height="1" fill="#292827" fill-opacity="0.141"/>
<rect x="1" y="11" width="1" height="1" fill="#bd6812" fill-opacity="0.969"/>
<rect x="2" y="11" width="1" height="1" fill="#bb6612"/>
<rect x="3" y="11" width="1" height="1" fill="#bb6612"/>
<rect x="4" y="11" width="1" height="1" fill="#bd6812"/>
<rect x="5" y="11" width="1" height="1" fill="#bd6812"/>
<rect x="6" y="11" width="1" height="1" fill="#bd6812" fill-opacity="0.455"/>
<rect x="10" y="11" width="1" height="1" fill="#dab38e" fill-opacity="0.11"/>
<rect x="11" y="11" width="1" height="1" fill="#b6610e" fill-opacity="0.933"/>
<rect x="12" y="11" width="1" height="1" fill="#d77d15"/>
<rect x="13" y="11" width="1" height="1" fill="#eb8d19"/>
<rect x="14" y="11" width="1" height="1" fill="#e78c18"/>
<rect x="15" y="11" width="1" height="1" fill="#aa6714"/>
<rect x="16" y="11" width="1" height="1" fill="#191410"/>
<rect x="17" y="11" width="1" height="1" fill="#181615"/>
<rect x="18" y="11" width="1" height="1" fill="#1c1b1b"/>
<rect x="19" y="11" width="1" height="1" fill="#201f1e" fill-opacity="0.996"/>
<rect x="20" y="11" width="1" height="1" fill="#1e1e1d" fill-opacity="0.996"/>
<rect x="21" y="11" width="1" height="1" fill="#252526" fill-opacity="0.784"/>
<rect x="22" y="11" width="1" height="1" fill="#121116" fill-opacity="0.275"/>
<rect x="23" y="11" width="1" height="1" fill="#121116" fill-opacity="0.02"/>
<rect x="0" y="12" width="1" height="1" fill="#ae5b07" fill-opacity="0.004"/>
<rect x="1" y="12" width="1" height="1" fill="#be6912"/>
<rect x="2" y="12" width="1" height="1" fill="#c87b28"/>
<rect x="3" y="12" width="1" height="1" fill="#bb6614"/>
<rect x="4" y="12" width="1" height="1" fill="#bb6614" fill-opacity="0.973"/>
<rect x="5" y="12" width="1" height="1" fill="#bb6614" fill-opacity="0.008"/>
<rect x="6" y="12" width="1" height="1" fill="#c06d1a" fill-opacity="0.847"/>
<rect x="11" y="12" width="1" height="1" fill="#b96412" fill-opacity="0.851"/>
<rect x="12" y="12" width="1" height="1" fill="#e08416"/>
<rect x="13" y="12" width="1" height="1" fill="#e98c19"/>
<rect x="14" y="12" width="1" height="1" fill="#6e440f"/>
<rect x="15" y="12" width="1" height="1" fill="#22180a"/>
<rect x="16" y="12" width="1" height="1" fill="#131111"/>
<rect x="17" y="12" width="1" height="1" fill="#131212"/>
<rect x="18" y="12" width="1" height="1" fill="#1e1d1d"/>
<rect x="19" y="12" width="1" height="1" fill="#1f1e1c" fill-opacity="0.996"/>
<rect x="20" y="12" width="1" height="1" fill="#20201f" fill-opacity="0.996"/>
<rect x="21" y="12" width="1" height="1" fill="#24232d" fill-opacity="0.773"/>
<rect x="22" y="12" width="1" height="1" fill="#111018" fill-opacity="0.145"/>
<rect x="23" y="12" width="1" height="1" fill="#121116" fill-opacity="0.004"/>
<rect x="0" y="13" width="1" height="1" fill="#bd6812"/>
<rect x="1" y="13" width="1" height="1" fill="#d1832d"/>
<rect x="2" y="13" width="1" height="1" fill="#ca8335"/>
<rect x="3" y="13" width="1" height="1" fill="#bc6816"/>
<rect x="4" y="13" width="1" height="1" fill="#b96413" fill-opacity="0.173"/>
<rect x="5" y="13" width="1" height="1" fill="#b67f42" fill-opacity="0.992"/>
<rect x="6" y="13" width="1" height="1" fill="#b67125" fill-opacity="0.894"/>
<rect x="7" y="13" width="1" height="1" fill="#a36420" fill-opacity="0.027"/>
<rect x="11" y="13" width="1" height="1" fill="#b86311" fill-opacity="0.875"/>
<rect x="12" y="13" width="1" height="1" fill="#db7f16"/>
<rect x="13" y="13" width="1" height="1" fill="#ea8d19"/>
<rect x="14" y="13" width="1" height="1" fill="#ea8c18"/>
<rect x="15" y="13" width="1" height="1" fill="#a56414"/>
<rect x="16" y="13" width="1" height="1" fill="#2c1b0c"/>
<rect x="17" y="13" width="1" height="1" fill="#111110" fill-opacity="0.965"/>
<rect x="18" y="13" width="1" height="1" fill="#111110" fill-opacity="0.98"/>
<rect x="19" y="13" width="1" height="1" fill="#201f1f" fill-opacity="0.992"/>
<rect x="20" y="13" width="1" height="1" fill="#1f1f1f" fill-opacity="0.996"/>
<rect x="21" y="13" width="1" height="1" fill="#1e2032" fill-opacity="0.941"/>
<rect x="22" y="13" width="1" height="1" fill="#0e0e1d" fill-opacity="0.118"/>
<rect x="0" y="14" width="1" height="1" fill="#ac5008"/>
<rect x="1" y="14" width="1" height="1" fill="#f0b869"/>
<rect x="2" y="14" width="1" height="1" fill="#e3aa61"/>
<rect x="3" y="14" width="1" height="1" fill="#be6b17"/>
<rect x="4" y="14" width="1" height="1" fill="#cf7d0f" fill-opacity="0.416"/>
<rect x="5" y="14" width="1" height="1" fill="#a4641f" fill-opacity="0.184"/>
<rect x="6" y="14" width="1" height="1" fill="#a36420" fill-opacity="0.431"/>
<rect x="7" y="14" width="1" height="1" fill="#a36420" fill-opacity="0.027"/>
<rect x="10" y="14" width="1" height="1" fill="#c17840" fill-opacity="0.275"/>
<rect x="11" y="14" width="1" height="1" fill="#ba630f" fill-opacity="0.925"/>
<rect x="12" y="14" width="1" height="1" fill="#d27a14"/>
<rect x="13" y="14" width="1" height="1" fill="#ec8f1a"/>
<rect x="14" y="14" width="1" height="1" fill="#ef9322"/>
<rect x="15" y="14" width="1" height="1" fill="#eb8e1a"/>
<rect x="16" y="14" width="1" height="1" fill="#9b530f"/>
<rect x="17" y="14" width="1" height="1" fill="#221c15" fill-opacity="0.529"/>
<rect x="18" y="14" width="1" height="1" fill="#10100f" fill-opacity="0.867"/>
<rect x="19" y="14" width="1" height="1" fill="#101011" fill-opacity="0.98"/>
<rect x="20" y="14" width="1" height="1" fill="#1b1b1b" fill-opacity="0.976"/>
<rect x="21" y="14" width="1" height="1" fill="#111328" fill-opacity="0.957"/>
<rect x="22" y="14" width="1" height="1" fill="#474851" fill-opacity="0.345"/>
<rect x="0" y="15" width="1" height="1" fill="#ad5208"/>
<rect x="1" y="15" width="1" height="1" fill="#f8c97b"/>
<rect x="2" y="15" width="1" height="1" fill="#fbd188"/>
<rect x="3" y="15" width="1" height="1" fill="#d28323"/>
<rect x="4" y="15" width="1" height="1" fill="#be6911"/>
<rect x="5" y="15" width="1" height="1" fill="#bf6b10" fill-opacity="0.416"/>
<rect x="6" y="15" width="1" height="1" fill="#b35e0e" fill-opacity="0.051"/>
<rect x="9" y="15" width="1" height="1" fill="#bb6016" fill-opacity="0.376"/>
<rect x="10" y="15" width="1" height="1" fill="#be6510" fill-opacity="0.902"/>
<rect x="11" y="15" width="1" height="1" fill="#ca7113"/>
<rect x="12" y="15" width="1" height="1" fill="#f4cc94"/>
<rect x="13" y="15" width="1" height="1" fill="#f6a541"/>
<rect x="14" y="15" width="1" height="1" fill="#f38e12"/>
<rect x="15" y="15" width="1" height="1" fill="#df861b"/>
<rect x="16" y="15" width="1" height="1" fill="#ab590e"/>
<rect x="17" y="15" width="1" height="1" fill="#cea37e" fill-opacity="0.235"/>
<rect x="18" y="15" width="1" height="1" fill="#29190a" fill-opacity="0.157"/>
<rect x="19" y="15" width="1" height="1" fill="#150f0b" fill-opacity="0.675"/>
<rect x="20" y="15" width="1" height="1" fill="#111015" fill-opacity="0.965"/>
<rect x="21" y="15" width="1" height="1" fill="#151522" fill-opacity="0.98"/>
<rect x="22" y="15" width="1" height="1" fill="#343441" fill-opacity="0.69"/>
<rect x="23" y="15" width="1" height="1" fill="#5a5a62" fill-opacity="0.047"/>
<rect x="0" y="16" width="1" height="1" fill="#ab5409"/>
<rect x="1" y="16" width="1" height="1" fill="#efb260"/>
<rect x="2" y="16" width="1" height="1" fill="#fed58d"/>
<rect x="3" y="16" width="1" height="1" fill="#f9c46f"/>
<rect x="4" y="16" width="1" height="1" fill="#dc8715"/>
<rect x="5" y="16" width="1" height="1" fill="#c16c13"/>
<rect x="6" y="16" width="1" height="1" fill="#c1701e" fill-opacity="0.98"/>
<rect x="7" y="16" width="1" height="1" fill="#cc7d27" fill-opacity="0.922"/>
<rect x="8" y="16" width="1" height="1" fill="#c57016" fill-opacity="0.937"/>
<rect x="9" y="16" width="1" height="1" fill="#cc7112"/>
<rect x="10" y="16" width="1" height="1" fill="#e49533"/>
<rect x="11" y="16" width="1" height="1" fill="#f8e6cd"/>
<rect x="12" y="16" width="1" height="1" fill="#fcf2e0"/>
<rect x="13" y="16" width="1" height="1" fill="#f8c178"/>
<rect x="14" y="16" width="1" height="1" fill="#f4951a"/>
<rect x="15" y="16" width="1" height="1" fill="#e98511"/>
<rect x="16" y="16" width="1" height="1" fill="#ad590d"/>
<rect x="17" y="16" width="1" height="1" fill="#b46a28" fill-opacity="0.69"/>
<rect x="19" y="16" width="1" height="1" fill="#b45609" fill-opacity="0.012"/>
<rect x="20" y="16" width="1" height="1" fill="#1e1b1c" fill-opacity="0.376"/>
<rect x="21" y="16" width="1" height="1" fill="#171518" fill-opacity="0.937"/>
<rect x="22" y="16" width="1" height="1" fill="#292937" fill-opacity="0.886"/>
<rect x="23" y="16" width="1" height="1" fill="#2b2b31" fill-opacity="0.2"/>
<rect x="24" y="16" width="1" height="1" fill="#121116" fill-opacity="0.016"/>
<rect x="0" y="17" width="1" height="1" fill="#b05412"/>
<rect x="1" y="17" width="1" height="1" fill="#c8782b"/>
<rect x="2" y="17" width="1" height="1" fill="#fac877"/>
<rect x="3" y="17" width="1" height="1" fill="#fabf63"/>
<rect x="4" y="17" width="1" height="1" fill="#f89e26"/>
<rect x="5" y="17" width="1" height="1" fill="#f19219"/>
<rect x="6" y="17" width="1" height="1" fill="#eab163"/>
<rect x="7" y="17" width="1" height="1" fill="#edb86b"/>
<rect x="8" y="17" width="1" height="1" fill="#f39d2b"/>
<rect x="9" y="17" width="1" height="1" fill="#f4961e"/>
<rect x="10" y="17" width="1" height="1" fill="#faa73b"/>
<rect x="11" y="17" width="1" height="1" fill="#fdca7f"/>
<rect x="12" y="17" width="1" height="1" fill="#ffd892"/>
<rect x="13" y="17" width="1" height="1" fill="#feca6b"/>
<rect x="14" y="17" width="1" height="1" fill="#fabf5c"/>
<rect x="15" y="17" width="1" height="1" fill="#e78b19"/>
<rect x="16" y="17" width="1" height="1" fill="#be6612"/>
<rect x="17" y="17" width="1" height="1" fill="#ab570d" fill-opacity="0.933"/>
<rect x="18" y="17" width="1" height="1" fill="#a6540c" fill-opacity="0.035"/>
<rect x="20" y="17" width="1" height="1" fill="#ebdbcf" fill-opacity="0.012"/>
<rect x="21" y="17" width="1" height="1" fill="#5f5e63" fill-opacity="0.384"/>
<rect x="22" y="17" width="1" height="1" fill="#222127" fill-opacity="0.839"/>
<rect x="23" y="17" width="1" height="1" fill="#6c6a6d" fill-opacity="0.545"/>
<rect x="24" y="17" width="1" height="1" fill="#121116" fill-opacity="0.031"/>
<rect x="0" y="18" width="1" height="1" fill="#bb6e33" fill-opacity="0.584"/>
<rect x="1" y="18" width="1" height="1" fill="#ad540b" fill-opacity="0.969"/>
<rect x="2" y="18" width="1" height="1" fill="#dc9141"/>
<rect x="3" y="18" width="1" height="1" fill="#f8af4a"/>
<rect x="4" y="18" width="1" height="1" fill="#f5991f"/>
<rect x="5" y="18" width="1" height="1" fill="#f7991c"/>
<rect x="6" y="18" width="1" height="1" fill="#fdc86f"/>
<rect x="7" y="18" width="1" height="1" fill="#ffd68e"/>
<rect x="8" y="18" width="1" height="1" fill="#f7a434"/>
<rect x="9" y="18" width="1" height="1" fill="#f79718"/>
<rect x="10" y="18" width="1" height="1" fill="#fa9d1c"/>
<rect x="11" y="18" width="1" height="1" fill="#fbaa36"/>
<rect x="12" y="18" width="1" height="1" fill="#fdc567"/>
<rect x="13" y="18" width="1" height="1" fill="#ffca6c"/>
<rect x="14" y="18" width="1" height="1" fill="#f9bb55"/>
<rect x="15" y="18" width="1" height="1" fill="#f2a63e"/>
<rect x="16" y="18" width="1" height="1" fill="#db7d14"/>
<rect x="17" y="18" width="1" height="1" fill="#b15b0e" fill-opacity="0.933"/>
<rect x="18" y="18" width="1" height="1" fill="#c68b5c" fill-opacity="0.373"/>
<rect x="20" y="18" width="1" height="1" fill="#ffffff" fill-opacity="0.02"/>
<rect x="21" y="18" width="1" height="1" fill="#fefefe" fill-opacity="0.02"/>
<rect x="22" y="18" width="1" height="1" fill="#b4b4b9" fill-opacity="0.184"/>
<rect x="23" y="18" width="1" height="1" fill="#46454a" fill-opacity="0.69"/>
<rect x="24" y="18" width="1" height="1" fill="#535256" fill-opacity="0.212"/>
<rect x="0" y="19" width="1" height="1" fill="#ffffff" fill-opacity="0.004"/>
<rect x="1" y="19" width="1" height="1" fill="#b05613" fill-opacity="0.922"/>
<rect x="2" y="19" width="1" height="1" fill="#ad570e"/>
<rect x="3" y="19" width="1" height="1" fill="#ad570a"/>
<rect x="4" y="19" width="1" height="1" fill="#c0680f"/>
<rect x="5" y="19" width="1" height="1" fill="#b35f0e"/>
<rect x="6" y="19" width="1" height="1" fill="#b46010"/>
<rect x="7" y="19" width="1" height="1" fill="#b66111"/>
<rect x="8" y="19" width="1" height="1" fill="#ba650f"/>
<rect x="9" y="19" width="1" height="1" fill="#ce7311"/>
<rect x="10" y="19" width="1" height="1" fill="#ce760e"/>
<rect x="11" y="19" width="1" height="1" fill="#c66f15"/>
<rect x="12" y="19" width="1" height="1" fill="#c37427"/>
<rect x="13" y="19" width="1" height="1" fill="#ce8437"/>
<rect x="14" y="19" width="1" height="1" fill="#cf8332"/>
<rect x="15" y="19" width="1" height="1" fill="#cd761c"/>
<rect x="16" y="19" width="1" height="1" fill="#c26a15"/>
<rect x="17" y="19" width="1" height="1" fill="#b86011" fill-opacity="0.996"/>
<rect x="18" y="19" width="1" height="1" fill="#ae560d" fill-opacity="0.878"/>
<rect x="21" y="19" width="1" height="1" fill="#fdfdfd" fill-opacity="0.008"/>
<rect x="23" y="19" width="1" height="1" fill="#504f53" fill-opacity="0.071"/>
<rect x="24" y="19" width="1" height="1" fill="#a8a7a9" fill-opacity="0.224"/>
</svg>