<?xml version="1.0" encoding="UTF-8" standalone="no"?>
<svg xmlns="http://www.w3.org/2000/svg" width="26" height="21" shape-rendering="crispEdges">
<rect x="18" y="0" width="1" height="1" fill="#494744" fill-opacity="0.129"/>
<rect x="19" y="0" width="1" height="1" fill="#0d0c0b" fill-opacity="0.541"/>
<rect x="20" y="0" width="1" height="1" fill="#11100f" fill-opacity="0.898"/>
<rect x="21" y="0" width="1" height="1" fill="#141312" fill-opacity="0.988"/>
<rect x="22" y="0" width="1" height="1" fill="#151413" fill-opacity="0.996"/>
<rect x="23" y="0" width="1" height="1" fill="#161514" fill-opacity="0.996"/>
<rect x="24" y="0" width="1" height="1" fill="#161514" fill-opacity="0.878"/>
<rect x="15" y="1" width="1" height="1" fill="#8e8c8a" fill-opacity="0.106"/>
<rect x="16" y="1" width="1" height="1" fill="#0c0c0c" fill-opacity="0.502"/>
<rect x="17" y="1" width="1" height="1" fill="#040404" fill-opacity="0.675"/>
<rect x="18" y="1" width="1" height="1" fill="#0d0c0b" fill-opacity="0.757"/>
<rect x="19" y="1" width="1" height="1" fill="#171716" fill-opacity="0.996"/>
<rect x="20" y="1" width="1" height="1" fill="#181716"/>
<rect x="21" y="1" width="1" height="1" fill="#131312"/>
<rect x="22" y="1" width="1" height="1" fill="#141312" fill-opacity="0.78"/>
<rect x="23" y="1" width="1" height="1" fill="#21201e" fill-opacity="0.592"/>
<rect x="24" y="1" width="1" height="1" fill="#161514" fill-opacity="0.047"/>
<rect x="4" y="2" width="1" height="1" fill="#ffffff" fill-opacity="0.024"/>
<rect x="5" y="2" width="1" height="1" fill="#ffffff" fill-opacity="0.027"/>
<rect x="13" y="2" width="1" height="1" fill="#484543" fill-opacity="0.322"/>
<rect x="14" y="2" width="1" height="1" fill="#050505" fill-opacity="0.671"/>
<rect x="15" y="2" width="1" height="1" fill="#050505" fill-opacity="0.749"/>
<rect x="16" y="2" width="1" height="1" fill="#0c0b0a" fill-opacity="0.988"/>
<rect x="17" y="2" width="1" height="1" fill="#121111"/>
<rect x="18" y="2" width="1" height="1" fill="#1a1a19"/>
<rect x="19" y="2" width="1" height="1" fill="#1b1b1a"/>
<rect x="20" y="2" width="1" height="1" fill="#161615"/>
<rect x="21" y="2" width="1" height="1" fill="#201c17" fill-opacity="0.733"/>
<rect x="22" y="2" width="1" height="1" fill="#c6c6c6" fill-opacity="0.043"/>
<rect x="4" y="3" width="1" height="1" fill="#ffffff" fill-opacity="0.004"/>
<rect x="10" y="3" width="1" height="1" fill="#cac2bd" fill-opacity="0.024"/>
<rect x="11" y="3" width="1" height="1" fill="#373634" fill-opacity="0.435"/>
<rect x="12" y="3" width="1" height="1" fill="#090909" fill-opacity="0.718"/>
<rect x="13" y="3" width="1" height="1" fill="#0c0c0c" fill-opacity="0.761"/>
<rect x="14" y="3" width="1" height="1" fill="#131311"/>
<rect x="15" y="3" width="1" height="1" fill="#141313"/>
<rect x="16" y="3" width="1" height="1" fill="#161615"/>
<rect x="17" y="3" width="1" height="1" fill="#1d1d1c"/>
<rect x="18" y="3" width="1" height="1" fill="#1f1f1e"/>
<rect x="19" y="3" width="1" height="1" fill="#1d1c1b" fill-opacity="0.996"/>
<rect x="20" y="3" width="1" height="1" fill="#252428" fill-opacity="0.737"/>
<rect x="21" y="3" width="1" height="1" fill="#595a68" fill-opacity="0.302"/>
<rect x="22" y="3" width="1" height="1" fill="#080a29" fill-opacity="0.004"/>
<rect x="9" y="4" width="1" height="1" fill="#2e261f" fill-opacity="0.396"/>
<rect x="10" y="4" width="1" height="1" fill="#100e0c" fill-opacity="0.631"/>
<rect x="11" y="4" width="1" height="1" fill="#141413" fill-opacity="0.996"/>
<rect x="12" y="4" width="1" height="1" fill="#1a1a18"/>
<rect x="13" y="4" width="1" height="1" fill="#161414"/>
<rect x="14" y="4" width="1" height="1" fill="#151514"/>
<rect x="15" y="4" width="1" height="1" fill="#1f1f1e"/>
<rect x="16" y="4" width="1" height="1" fill="#212120"/>
<rect x="17" y="4" width="1" height="1" fill="#1f1f1e"/>
<rect x="18" y="4" width="1" height="1" fill="#1e1e1c"/>
<rect x="19" y="4" width="1" height="1" fill="#15141c" fill-opacity="0.992"/>
<rect x="20" y="4" width="1" height="1" fill="#383a4c" fill-opacity="0.502"/>
<rect x="21" y="4" width="1" height="1" fill="#080a29" fill-opacity="0.016"/>
<rect x="8" y="5" width="1" height="1" fill="#544f4a" fill-opacity="0.369"/>
<rect x="9" y="5" width="1" height="1" fill="#1c1620" fill-opacity="0.812"/>
<rect x="10" y="5" width="1" height="1" fill="#13101e" fill-opacity="0.902"/>
<rect x="11" y="5" width="1" height="1" fill="#0b0b1b"/>
<rect x="12" y="5" width="1" height="1" fill="#121018"/>
<rect x="13" y="5" width="1" height="1" fill="#131215"/>
<rect x="14" y="5" width="1" height="1" fill="#171618"/>
<rect x="15" y="5" width="1" height="1" fill="#1f1d1d"/>
<rect x="16" y="5" width="1" height="1" fill="#1f1f1d"/>
<rect x="17" y="5" width="1" height="1" fill="#1e1e1d"/>
<rect x="18" y="5" width="1" height="1" fill="#1a191a"/>
<rect x="19" y="5" width="1" height="1" fill="#0f1025" fill-opacity="0.996"/>
<rect x="20" y="5" width="1" height="1" fill="#46485c" fill-opacity="0.243"/>
<rect x="9" y="6" width="1" height="1" fill="#080a29" fill-opacity="0.118"/>
<rect x="10" y="6" width="1" height="1" fill="#1b1c38" fill-opacity="0.337"/>
<rect x="11" y="6" width="1" height="1" fill="#181a36" fill-opacity="0.545"/>
<rect x="12" y="6" width="1" height="1" fill="#1e2035" fill-opacity="0.761"/>
<rect x="13" y="6" width="1" height="1" fill="#0e101e" fill-opacity="0.855"/>
<rect x="14" y="6" width="1" height="1" fill="#111119"/>
<rect x="15" y="6" width="1" height="1" fill="#18181b"/>
<rect x="16" y="6" width="1" height="1" fill="#1a1a19"/>
<rect x="17" y="6" width="1" height="1" fill="#1e1d1c"/>
<rect x="18" y="6" width="1" height="1" fill="#1b1b1b"/>
<rect x="19" y="6" width="1" height="1" fill="#0f1026"/>
<rect x="20" y="6" width="1" height="1" fill="#1a1b2f" fill-opacity="0.82"/>
<rect x="21" y="6" width="1" height="1" fill="#7e7e8a" fill-opacity="0.078"/>
<rect x="12" y="7" width="1" height="1" fill="#080a29" fill-opacity="0.027"/>
<rect x="13" y="7" width="1" height="1" fill="#161732" fill-opacity="0.329"/>
<rect x="14" y="7" width="1" height="1" fill="#181825" fill-opacity="0.851"/>
<rect x="15" y="7" width="1" height="1" fill="#131318" fill-opacity="0.996"/>
<rect x="16" y="7" width="1" height="1" fill="#191919"/>
<rect x="17" y="7" width="1" height="1" fill="#1e1e1d"/>
<rect x="18" y="7" width="1" height="1" fill="#1e1e1d"/>
<rect x="19" y="7" width="1" height="1" fill="#16171b"/>
<rect x="20" y="7" width="1" height="1" fill="#0c0e25" fill-opacity="0.996"/>
<rect x="21" y="7" width="1" height="1" fill="#090a1a" fill-opacity="0.855"/>
<rect x="22" y="7" width="1" height="1" fill="#8f8f94" fill-opacity="0.165"/>
<rect x="4" y="8" width="1" height="1" fill="#e8c4ba" fill-opacity="0.004"/>
<rect x="14" y="8" width="1" height="1" fill="#161027" fill-opacity="0.09"/>
<rect x="15" y="8" width="1" height="1" fill="#18151b" fill-opacity="0.82"/>
<rect x="16" y="8" width="1" height="1" fill="#151315"/>
<rect x="17" y="8" width="1" height="1" fill="#1a1918"/>
<rect x="18" y="8" width="1" height="1" fill="#1e1e1d"/>
<rect x="19" y="8" width="1" height="1" fill="#1b1b19"/>
<rect x="20" y="8" width="1" height="1" fill="#16171c"/>
<rect x="21" y="8" width="1" height="1" fill="#0c0d1b" fill-opacity="0.988"/>
<rect x="22" y="8" width="1" height="1" fill="#161518" fill-opacity="0.725"/>
<rect x="23" y="8" width="1" height="1" fill="#535353" fill-opacity="0.424"/>
<rect x="3" y="9" width="1" height="1" fill="#fdd11b" fill-opacity="0.506"/>
<rect x="4" y="9" width="1" height="1" fill="#fcc812" fill-opacity="0.353"/>
<rect x="8" y="9" width="1" height="1" fill="#ffcc00" fill-opacity="0.275"/>
<rect x="9" y="9" width="1" height="1" fill="#ffb500" fill-opacity="0.749"/>
<rect x="10" y="9" width="1" height="1" fill="#ffba00" fill-opacity="0.949"/>
<rect x="11" y="9" width="1" height="1" fill="#ffb400" fill-opacity="0.949"/>
<rect x="12" y="9" width="1" height="1" fill="#ffb800" fill-opacity="0.91"/>
<rect x="13" y="9" width="1" height="1" fill="#ffb800" fill-opacity="0.922"/>
<rect x="14" y="9" width="1" height="1" fill="#ffba00" fill-opacity="0.918"/>
<rect x="15" y="9" width="1" height="1" fill="#f5bb01" fill-opacity="0.839"/>
<rect x="16" y="9" width="1" height="1" fill="#181615"/>
<rect x="17" y="9" width="1" height="1" fill="#141314"/>
<rect x="18" y="9" width="1" height="1" fill="#1d1c1a"/>
<rect x="19" y="9" width="1" height="1" fill="#1b1a19"/>
<rect x="20" y="9" width="1" height="1" fill="#1d1d1c"/>
<rect x="21" y="9" width="1" height="1" fill="#1c1b1a"/>
<rect x="22" y="9" width="1" height="1" fill="#171616"/>
<rect x="23" y="9" width="1" height="1" fill="#111011" fill-opacity="0.804"/>
<rect x="24" y="9" width="1" height="1" fill="#282727" fill-opacity="0.439"/>
<rect x="1" y="10" width="1" height="1" fill="#ffe300" fill-opacity="0.278"/>
<rect x="2" y="10" width="1" height="1" fill="#fdc207" fill-opacity="0.996"/>
<rect x="3" y="10" width="1" height="1" fill="#febe07" fill-opacity="0.965"/>
<rect x="4" y="10" width="1" height="1" fill="#feb503" fill-opacity="0.988"/>
<rect x="5" y="10" width="1" height="1" fill="#feb402" fill-opacity="0.776"/>
<rect x="6" y="10" width="1" height="1" fill="#ffde56" fill-opacity="0.024"/>
<rect x="9" y="10" width="1" height="1" fill="#ffbe00" fill-opacity="0.2"/>
<rect x="10" y="10" width="1" height="1" fill="#fea500" fill-opacity="0.851"/>
<rect x="11" y="10" width="1" height="1" fill="#feab01"/>
<rect x="12" y="10" width="1" height="1" fill="#feae00"/>
<rect x="13" y="10" width="1" height="1" fill="#feb300"/>
<rect x="14" y="10" width="1" height="1" fill="#feb300"/>
<rect x="15" y="10" width="1" height="1" fill="#ffb100"/>
<rect x="16" y="10" width="1" height="1" fill="#36260f"/>
<rect x="17" y="10" width="1" height="1" fill="#171514"/>
<rect x="18" y="10" width="1" height="1" fill="#1b1a1a"/>
<rect x="19" y="10" width="1" height="1" fill="#201f1e" fill-opacity="0.996"/>
<rect x="20" y="10" width="1" height="1" fill="#1d1d1c" fill-opacity="0.992"/>
<rect x="21" y="10" width="1" height="1" fill="#1e1e1c" fill-opacity="0.792"/>
<rect x="22" y="10" width="1" height="1" fill="#201f21" fill-opacity="0.816"/>
<rect x="23" y="10" width="1" height="1" fill="#474649" fill-opacity="0.494"/>
<rect x="24" y="10" width="1" height="1" fill="#292827" fill-opacity="0.141"/>
<rect x="1" y="11" width="1" height="1" fill="#feb501" fill-opacity="0.965"/>
<rect x="2" y="11" width="1" height="1" fill="#ffa801"/>
<rect x="3" y="11" width="1" height="1" fill="#ffa501"/>
<rect x="4" y="11" width="1" height="1" fill="#fea601"/>
<rect x="5" y="11" width="1" height="1" fill="#ffab01" fill-opacity="0.984"/>
<rect x="6" y="11" width="1" height="1" fill="#feac01" fill-opacity="0.608"/>
<rect x="10" y="11" width="1" height="1" fill="#feb600" fill-opacity="0.376"/>
<rect x="11" y="11" width="1" height="1" fill="#ffa401" fill-opacity="0.984"/>
<rect x="12" y="11" width="1" height="1" fill="#ffb400"/>
<rect x="13" y="11" width="1" height="1" fill="#ffbc00"/>
<rect x="14" y="11" width="1" height="1" fill="#f6b700"/>
<rect x="15" y="11" width="1" height="1" fill="#c18402"/>
<rect x="16" y="11" width="1" height="1" fill="#1e180e"/>
<rect x="17" y="11" width="1" height="1" fill="#181615"/>
<rect x="18" y="11" width="1" height="1" fill="#1c1b1b"/>
<rect x="19" y="11" width="1" height="1" fill="#201f1e" fill-opacity="0.996"/>
<rect x="20" y="11" width="1" height="1" fill="#1e1e1d" fill-opacity="0.996"/>
<rect x="21" y="11" width="1" height="1" fill="#252526" fill-opacity="0.784"/>
<rect x="22" y="11" width="1" height="1" fill="#121116" fill-opacity="0.275"/>
<rect x="23" y="11" width="1" height="1" fill="#121116" fill-opacity="0.02"/>
<rect x="0" y="12" width="1" height="1" fill="#feb401" fill-opacity="0.392"/>
<rect x="1" y="12" width="1" height="1" fill="#fda602"/>
<rect x="2" y="12" width="1" height="1" fill="#ffaf01"/>
<rect x="3" y="12" width="1" height="1" fill="#ffb001"/>
<rect x="4" y="12" width="1" height="1" fill="#ffb501" fill-opacity="0.447"/>
<rect x="6" y="12" width="1" height="1" fill="#feae00" fill-opacity="0.859"/>
<rect x="7" y="12" width="1" height="1" fill="#ffb948" fill-opacity="0.008"/>
<rect x="11" y="12" width="1" height="1" fill="#ffac01" fill-opacity="0.918"/>
<rect x="12" y="12" width="1" height="1" fill="#ffa801"/>
<rect x="13" y="12" width="1" height="1" fill="#febb00"/>
<rect x="14" y="12" width="1" height="1" fill="#745504"/>
<rect x="15" y="12" width="1" height="1" fill="#251c07"/>
<rect x="16" y="12" width="1" height="1" fill="#131211"/>
<rect x="17" y="12" width="1" height="1" fill="#131212"/>
<rect x="18" y="12" width="1" height="1" fill="#1e1d1d"/>
<rect x="19" y="12" width="1" height="1" fill="#1f1e1c" fill-opacity="0.996"/>
<rect x="20" y="12" width="1" height="1" fill="#20201f" fill-opacity="0.996"/>
<rect x="21" y="12" width="1" height="1" fill="#24232d" fill-opacity="0.773"/>
<rect x="22" y="12" width="1" height="1" fill="#111018" fill-opacity="0.145"/>
<rect x="23" y="12" width="1" height="1" fill="#121116" fill-opacity="0.004"/>
<rect x="0" y="13" width="1" height="1" fill="#ffae01"/>
<rect x="1" y="13" width="1" height="1" fill="#feaf01"/>
<rect x="2" y="13" width="1" height="1" fill="#ffba01"/>
<rect x="3" y="13" width="1" height="1" fill="#ffae01"/>
<rect x="5" y="13" width="1" height="1" fill="#fec111" fill-opacity="0.655"/>
<rect x="6" y="13" width="1" height="1" fill="#ffb011" fill-opacity="0.69"/>
<rect x="11" y="13" width="1" height="1" fill="#feb500" fill-opacity="0.918"/>
<rect x="12" y="13" width="1" height="1" fill="#ffa601"/>
<rect x="13" y="13" width="1" height="1" fill="#ffbd01"/>
<rect x="14" y="13" width="1" height="1" fill="#f7bc00"/>
<rect x="15" y="13" width="1" height="1" fill="#af7f03"/>
<rect x="16" y="13" width="1" height="1" fill="#3c2c09"/>
<rect x="17" y="13" width="1" height="1" fill="#111110" fill-opacity="0.965"/>
<rect x="18" y="13" width="1" height="1" fill="#111110" fill-opacity="0.98"/>
<rect x="19" y="13" width="1" height="1" fill="#201f1f" fill-opacity="0.992"/>
<rect x="20" y="13" width="1" height="1" fill="#1f1f1f" fill-opacity="0.996"/>
<rect x="21" y="13" width="1" height="1" fill="#1e2032" fill-opacity="0.941"/>
<rect x="22" y="13" width="1" height="1" fill="#0e0e1d" fill-opacity="0.118"/>
<rect x="0" y="14" width="1" height="1" fill="#feae00"/>
<rect x="1" y="14" width="1" height="1" fill="#fec600"/>
<rect x="2" y="14" width="1" height="1" fill="#ffde03"/>
<rect x="3" y="14" width="1" height="1" fill="#ffb104"/>
<rect x="4" y="14" width="1" height="1" fill="#ffa001" fill-opacity="0.439"/>
<rect x="6" y="14" width="1" height="1" fill="#ff8402" fill-opacity="0.137"/>
<rect x="10" y="14" width="1" height="1" fill="#ffca01" fill-opacity="0.561"/>
<rect x="11" y="14" width="1" height="1" fill="#ffb301" fill-opacity="0.953"/>
<rect x="12" y="14" width="1" height="1" fill="#ffb104"/>
<rect x="13" y="14" width="1" height="1" fill="#ffdd03"/>
<rect x="14" y="14" width="1" height="1" fill="#ffd800"/>
<rect x="15" y="14" width="1" height="1" fill="#fec100"/>
<rect x="16" y="14" width="1" height="1" fill="#e39e01"/>
<rect x="17" y="14" width="1" height="1" fill="#372a07" fill-opacity="0.58"/>
<rect x="18" y="14" width="1" height="1" fill="#10100f" fill-opacity="0.867"/>
<rect x="19" y="14" width="1" height="1" fill="#101011" fill-opacity="0.98"/>
<rect x="20" y="14" width="1" height="1" fill="#1b1b1b" fill-opacity="0.976"/>
<rect x="21" y="14" width="1" height="1" fill="#111328" fill-opacity="0.957"/>
<rect x="22" y="14" width="1" height="1" fill="#474851" fill-opacity="0.345"/>
<rect x="0" y="15" width="1" height="1" fill="#ffb300"/>
<rect x="1" y="15" width="1" height="1" fill="#ffd600"/>
<rect x="2" y="15" width="1" height="1" fill="#fffb58"/>
<rect x="3" y="15" width="1" height="1" fill="#ffd02c"/>
<rect x="4" y="15" width="1" height="1" fill="#ffa501"/>
<rect x="5" y="15" width="1" height="1" fill="#ffbe10" fill-opacity="0.671"/>
<rect x="8" y="15" width="1" height="1" fill="#fff4bd" fill-opacity="0.004"/>
<rect x="9" y="15" width="1" height="1" fill="#ffbe04" fill-opacity="0.631"/>
<rect x="10" y="15" width="1" height="1" fill="#ffae01" fill-opacity="0.953"/>
<rect x="11" y="15" width="1" height="1" fill="#ffa801"/>
<rect x="12" y="15" width="1" height="1" fill="#ffdd42"/>
<rect x="13" y="15" width="1" height="1" fill="#ffe111"/>
<rect x="14" y="15" width="1" height="1" fill="#ffdb00"/>
<rect x="15" y="15" width="1" height="1" fill="#febe00"/>
<rect x="16" y="15" width="1" height="1" fill="#feb300"/>
<rect x="17" y="15" width="1" height="1" fill="#feba00" fill-opacity="0.518"/>
<rect x="18" y="15" width="1" height="1" fill="#29190a" fill-opacity="0.157"/>
<rect x="19" y="15" width="1" height="1" fill="#150f0b" fill-opacity="0.675"/>
<rect x="20" y="15" width="1" height="1" fill="#111015" fill-opacity="0.965"/>
<rect x="21" y="15" width="1" height="1" fill="#151522" fill-opacity="0.98"/>
<rect x="22" y="15" width="1" height="1" fill="#343441" fill-opacity="0.69"/>
<rect x="23" y="15" width="1" height="1" fill="#5a5a62" fill-opacity="0.047"/>
<rect x="0" y="16" width="1" height="1" fill="#ffb901"/>
<rect x="1" y="16" width="1" height="1" fill="#ffcf00"/>
<rect x="2" y="16" width="1" height="1" fill="#fff231"/>
<rect x="3" y="16" width="1" height="1" fill="#fff799"/>
<rect x="4" y="16" width="1" height="1" fill="#ffb202"/>
<rect x="5" y="16" width="1" height="1" fill="#ffa501"/>
<rect x="6" y="16" width="1" height="1" fill="#ffaf00" fill-opacity="0.918"/>
<rect x="7" y="16" width="1" height="1" fill="#ffa801" fill-opacity="0.902"/>
<rect x="8" y="16" width="1" height="1" fill="#ffa601" fill-opacity="0.961"/>
<rect x="9" y="16" width="1" height="1" fill="#ffa202"/>
<rect x="10" y="16" width="1" height="1" fill="#ffa602"/>
<rect x="11" y="16" width="1" height="1" fill="#ffd848"/>
<rect x="12" y="16" width="1" height="1" fill="#fffff6"/>
<rect x="13" y="16" width="1" height="1" fill="#ffe741"/>
<rect x="14" y="16" width="1" height="1" fill="#ffd800"/>
<rect x="15" y="16" width="1" height="1" fill="#fec500"/>
<rect x="16" y="16" width="1" height="1" fill="#feb300"/>
<rect x="17" y="16" width="1" height="1" fill="#feb100" fill-opacity="0.969"/>
<rect x="19" y="16" width="1" height="1" fill="#b45609" fill-opacity="0.012"/>
<rect x="20" y="16" width="1" height="1" fill="#1e1b1c" fill-opacity="0.376"/>
<rect x="21" y="16" width="1" height="1" fill="#171518" fill-opacity="0.937"/>
<rect x="22" y="16" width="1" height="1" fill="#292937" fill-opacity="0.886"/>
<rect x="23" y="16" width="1" height="1" fill="#2b2b31" fill-opacity="0.2"/>
<rect x="24" y="16" width="1" height="1" fill="#121116" fill-opacity="0.016"/>
<rect x="0" y="17" width="1" height="1" fill="#ffb107"/>
<rect x="1" y="17" width="1" height="1" fill="#ffbe00"/>
<rect x="2" y="17" width="1" height="1" fill="#ffdb00"/>
<rect x="3" y="17" width="1" height="1" fill="#ffdb00"/>
<rect x="4" y="17" width="1" height="1" fill="#ffd400"/>
<rect x="5" y="17" width="1" height="1" fill="#ffae01"/>
<rect x="6" y="17" width="1" height="1" fill="#fea601"/>
<rect x="7" y="17" width="1" height="1" fill="#ffd200"/>
<rect x="8" y="17" width="1" height="1" fill="#ffce00"/>
<rect x="9" y="17" width="1" height="1" fill="#febb02"/>
<rect x="10" y="17" width="1" height="1" fill="#ffaa02"/>
<rect x="11" y="17" width="1" height="1" fill="#ffe347"/>
<rect x="12" y="17" width="1" height="1" fill="#fffc6c"/>
<rect x="13" y="17" width="1" height="1" fill="#ffec00"/>
<rect x="14" y="17" width="1" height="1" fill="#ffd400"/>
<rect x="15" y="17" width="1" height="1" fill="#fec600"/>
<rect x="16" y="17" width="1" height="1" fill="#feb600"/>
<rect x="17" y="17" width="1" height="1" fill="#fe9b01"/>
<rect x="18" y="17" width="1" height="1" fill="#ffa200" fill-opacity="0.298"/>
<rect x="20" y="17" width="1" height="1" fill="#ebdbcf" fill-opacity="0.012"/>
<rect x="21" y="17" width="1" height="1" fill="#5f5e63" fill-opacity="0.384"/>
<rect x="22" y="17" width="1" height="1" fill="#222127" fill-opacity="0.839"/>
<rect x="23" y="17" width="1" height="1" fill="#6c6a6d" fill-opacity="0.545"/>
<rect x="24" y="17" width="1" height="1" fill="#121116" fill-opacity="0.031"/>
<rect x="0" y="18" width="1" height="1" fill="#ffb405" fill-opacity="0.663"/>
<rect x="1" y="18" width="1" height="1" fill="#ffa602" fill-opacity="0.996"/>
<rect x="2" y="18" width="1" height="1" fill="#ffc600"/>
<rect x="3" y="18" width="1" height="1" fill="#ffcc00"/>
<rect x="4" y="18" width="1" height="1" fill="#fec200"/>
<rect x="5" y="18" width="1" height="1" fill="#feb200"/>
<rect x="6" y="18" width="1" height="1" fill="#ffbe01"/>
<rect x="7" y="18" width="1" height="1" fill="#ffd900"/>
<rect x="8" y="18" width="1" height="1" fill="#ffe100"/>
<rect x="9" y="18" width="1" height="1" fill="#fec200"/>
<rect x="10" y="18" width="1" height="1" fill="#ffa601"/>
<rect x="11" y="18" width="1" height="1" fill="#feae00"/>
<rect x="12" y="18" width="1" height="1" fill="#ffe900"/>
<rect x="13" y="18" width="1" height="1" fill="#fef500"/>
<rect x="14" y="18" width="1" height="1" fill="#ffea00"/>
<rect x="15" y="18" width="1" height="1" fill="#ffd000"/>
<rect x="16" y="18" width="1" height="1" fill="#febe00"/>
<rect x="17" y="18" width="1" height="1" fill="#ffa400" fill-opacity="0.996"/>
<rect x="18" y="18" width="1" height="1" fill="#fea400" fill-opacity="0.894"/>
<rect x="20" y="18" width="1" height="1" fill="#ffffff" fill-opacity="0.02"/>
<rect x="21" y="18" width="1" height="1" fill="#fefefe" fill-opacity="0.02"/>
<rect x="22" y="18" width="1" height="1" fill="#b4b4b9" fill-opacity="0.184"/>
<rect x="23" y="18" width="1" height="1" fill="#46454a" fill-opacity="0.69"/>
<rect x="24" y="18" width="1" height="1" fill="#535256" fill-opacity="0.212"/>
<rect x="0" y="19" width="1" height="1" fill="#ffffff" fill-opacity="0.004"/>
<rect x="1" y="19" width="1" height="1" fill="#ffaa01" fill-opacity="0.937"/>
<rect x="2" y="19" width="1" height="1" fill="#ffa601"/>
<rect x="3" y="19" width="1" height="1" fill="#ffae00"/>
<rect x="4" y="19" width="1" height="1" fill="#ffaf00"/>
<rect x="5" y="19" width="1" height="1" fill="#ffac00"/>
<rect x="6" y="19" width="1" height="1" fill="#feae00"/>
<rect x="7" y="19" width="1" height="1" fill="#ffbf00"/>
<rect x="8" y="19" width="1" height="1" fill="#ffbd00"/>
<rect x="9" y="19" width="1" height="1" fill="#ffba00"/>
<rect x="10" y="19" width="1" height="1" fill="#feab00"/>
<rect x="11" y="19" width="1" height="1" fill="#feb000"/>
<rect x="12" y="19" width="1" height="1" fill="#feb000"/>
<rect x="13" y="19" width="1" height="1" fill="#febf00"/>
<rect x="14" y="19" width="1" height="1" fill="#ffc300"/>
<rect x="15" y="19" width="1" height="1" fill="#ffbe00"/>
<rect x="16" y="19" width="1" height="1" fill="#ffac00"/>
<rect x="17" y="19" width="1" height="1" fill="#fea401"/>
<rect x="18" y="19" width="1" height="1" fill="#fe9a01"/>
<rect x="19" y="19" width="1" height="1" fill="#ff8f01" fill-opacity="0.102"/>
<rect x="21" y="19" width="1" height="1" fill="#fdfdfd" fill-opacity="0.008"/>
<rect x="23" y="19" width="1" height="1" fill="#504f53" fill-opacity="0.071"/>
<rect x="24" y="19" width="1" height="1" fill="#a8a7a9" fill-opacity="0.224"/>
</svg>