<?xml version="1.0" encoding="UTF-8" standalone="no"?>
<svg xmlns="http://www.w3.org/2000/svg" width="26" height="21" shape-rendering="crispEdges">
<rect x="18" y="0" width="1" height="1" fill="#494744" fill-opacity="0.129"/>
<rect x="19" y="0" width="1" height="1" fill="#0d0c0b" fill-opacity="0.541"/>
<rect x="20" y="0" width="1" height="1" fill="#11100f" fill-opacity="0.898"/>
<rect x="21" y="0" width="1" height="1" fill="#141312" fill-opacity="0.988"/>
<rect x="22" y="0" width="1" height="1" fill="#151413" fill-opacity="0.996"/>
<rect x="23" y="0" width="1" height="1" fill="#161514" fill-opacity="0.996"/>
<rect x="24" y="0" width="1" height="1" fill="#161514" fill-opacity="0.878"/>
<rect x="15" y="1" width="1" height="1" fill="#8e8c8a" fill-opacity="0.106"/>
<rect x="16" y="1" width="1" height="1" fill="#0c0c0c" fill-opacity="0.502"/>
<rect x="17" y="1" width="1" height="1" fill="#040404" fill-opacity="0.675"/>
<rect x="18" y="1" width="1" height="1" fill="#0d0c0b" fill-opacity="0.757"/>
<rect x="19" y="1" width="1" height="1" fill="#171716" fill-opacity="0.996"/>
<rect x="20" y="1" width="1" height="1" fill="#181716"/>
<rect x="21" y="1" width="1" height="1" fill="#131312"/>
<rect x="22" y="1" width="1" height="1" fill="#141312" fill-opacity="0.78"/>
<rect x="23" y="1" width="1" height="1" fill="#21201e" fill-opacity="0.592"/>
<rect x="24" y="1" width="1" height="1" fill="#161514" fill-opacity="0.047"/>
<rect x="4" y="2" width="1" height="1" fill="#ffffff" fill-opacity="0.024"/>
<rect x="5" y="2" width="1" height="1" fill="#ffffff" fill-opacity="0.027"/>
<rect x="13" y="2" width="1" height="1" fill="#484543" fill-opacity="0.322"/>
<rect x="14" y="2" width="1" height="1" fill="#050505" fill-opacity="0.671"/>
<rect x="15" y="2" width="1" height="1" fill="#050505" fill-opacity="0.749"/>
<rect x="16" y="2" width="1" height="1" fill="#0c0b0a" fill-opacity="0.988"/>
<rect x="17" y="2" width="1" height="1" fill="#121111"/>
<rect x="18" y="2" width="1" height="1" fill="#1a1a19"/>
<rect x="19" y="2" width="1" height="1" fill="#1b1b1a"/>
<rect x="20" y="2" width="1" height="1" fill="#161615"/>
<rect x="21" y="2" width="1" height="1" fill="#201c17" fill-opacity="0.733"/>
<rect x="22" y="2" width="1" height="1" fill="#c6c6c6" fill-opacity="0.043"/>
<rect x="4" y="3" width="1" height="1" fill="#ffffff" fill-opacity="0.004"/>
<rect x="10" y="3" width="1" height="1" fill="#cac2bd" fill-opacity="0.024"/>
<rect x="11" y="3" width="1" height="1" fill="#373634" fill-opacity="0.435"/>
<rect x="12" y="3" width="1" height="1" fill="#090909" fill-opacity="0.718"/>
<rect x="13" y="3" width="1" height="1" fill="#0c0c0c" fill-opacity="0.761"/>
<rect x="14" y="3" width="1" height="1" fill="#131311"/>
<rect x="15" y="3" width="1" height="1" fill="#141313"/>
<rect x="16" y="3" width="1" height="1" fill="#161615"/>
<rect x="17" y="3" width="1" height="1" fill="#1d1d1c"/>
<rect x="18" y="3" width="1" height="1" fill="#1f1f1e"/>
<rect x="19" y="3" width="1" height="1" fill="#1d1c1b" fill-opacity="0.996"/>
<rect x="20" y="3" width="1" height="1" fill="#252428" fill-opacity="0.737"/>
<rect x="21" y="3" width="1" height="1" fill="#595a68" fill-opacity="0.302"/>
<rect x="22" y="3" width="1" height="1" fill="#080a29" fill-opacity="0.004"/>
<rect x="9" y="4" width="1" height="1" fill="#2e261f" fill-opacity="0.396"/>
<rect x="10" y="4" width="1" height="1" fill="#100e0c" fill-opacity="0.631"/>
<rect x="11" y="4" width="1" height="1" fill="#141413" fill-opacity="0.996"/>
<rect x="12" y="4" width="1" height="1" fill="#1a1a18"/>
<rect x="13" y="4" width="1" height="1" fill="#161414"/>
<rect x="14" y="4" width="1" height="1" fill="#151514"/>
<rect x="15" y="4" width="1" height="1" fill="#1f1f1e"/>
<rect x="16" y="4" width="1" height="1" fill="#212120"/>
<rect x="17" y="4" width="1" height="1" fill="#1f1f1e"/>
<rect x="18" y="4" width="1" height="1" fill="#1e1e1c"/>
<rect x="19" y="4" width="1" height="1" fill="#15141c" fill-opacity="0.992"/>
<rect x="20" y="4" width="1" height="1" fill="#383a4c" fill-opacity="0.502"/>
<rect x="21" y="4" width="1" height="1" fill="#080a29" fill-opacity="0.016"/>
<rect x="8" y="5" width="1" height="1" fill="#544f4a" fill-opacity="0.369"/>
<rect x="9" y="5" width="1" height="1" fill="#1c1620" fill-opacity="0.812"/>
<rect x="10" y="5" width="1" height="1" fill="#13101e" fill-opacity="0.902"/>
<rect x="11" y="5" width="1" height="1" fill="#0b0b1b"/>
<rect x="12" y="5" width="1" height="1" fill="#121018"/>
<rect x="13" y="5" width="1" height="1" fill="#131215"/>
<rect x="14" y="5" width="1" height="1" fill="#171618"/>
<rect x="15" y="5" width="1" height="1" fill="#1f1d1d"/>
<rect x="16" y="5" width="1" height="1" fill="#1f1f1d"/>
<rect x="17" y="5" width="1" height="1" fill="#1e1e1d"/>
<rect x="18" y="5" width="1" height="1" fill="#1a191a"/>
<rect x="19" y="5" width="1" height="1" fill="#0f1025" fill-opacity="0.996"/>
<rect x="20" y="5" width="1" height="1" fill="#46485c" fill-opacity="0.243"/>
<rect x="9" y="6" width="1" height="1" fill="#080a29" fill-opacity="0.118"/>
<rect x="10" y="6" width="1" height="1" fill="#1b1c38" fill-opacity="0.337"/>
<rect x="11" y="6" width="1" height="1" fill="#181a36" fill-opacity="0.545"/>
<rect x="12" y="6" width="1" height="1" fill="#1e2035" fill-opacity="0.761"/>
<rect x="13" y="6" width="1" height="1" fill="#0e101e" fill-opacity="0.855"/>
<rect x="14" y="6" width="1" height="1" fill="#111119"/>
<rect x="15" y="6" width="1" height="1" fill="#18181b"/>
<rect x="16" y="6" width="1" height="1" fill="#1a1a19"/>
<rect x="17" y="6" width="1" height="1" fill="#1e1d1c"/>
<rect x="18" y="6" width="1" height="1" fill="#1b1b1b"/>
<rect x="19" y="6" width="1" height="1" fill="#0f1026"/>
<rect x="20" y="6" width="1" height="1" fill="#1a1b2f" fill-opacity="0.82"/>
<rect x="21" y="6" width="1" height="1" fill="#7e7e8a" fill-opacity="0.078"/>
<rect x="12" y="7" width="1" height="1" fill="#080a29" fill-opacity="0.027"/>
<rect x="13" y="7" width="1" height="1" fill="#161732" fill-opacity="0.329"/>
<rect x="14" y="7" width="1" height="1" fill="#181825" fill-opacity="0.851"/>
<rect x="15" y="7" width="1" height="1" fill="#131318" fill-opacity="0.996"/>
<rect x="16" y="7" width="1" height="1" fill="#191919"/>
<rect x="17" y="7" width="1" height="1" fill="#1e1e1d"/>
<rect x="18" y="7" width="1" height="1" fill="#1e1e1d"/>
<rect x="19" y="7" width="1" height="1" fill="#16171b"/>
<rect x="20" y="7" width="1" height="1" fill="#0c0e25" fill-opacity="0.996"/>
<rect x="21" y="7" width="1" height="1" fill="#090a1a" fill-opacity="0.855"/>
<rect x="22" y="7" width="1" height="1" fill="#8f8f94" fill-opacity="0.165"/>
<rect x="4" y="8" width="1" height="1" fill="#e8c4ba" fill-opacity="0.004"/>
<rect x="14" y="8" width="1" height="1" fill="#161027" fill-opacity="0.09"/>
<rect x="15" y="8" width="1" height="1" fill="#18151b" fill-opacity="0.82"/>
<rect x="16" y="8" width="1" height="1" fill="#151315"/>
<rect x="17" y="8" width="1" height="1" fill="#1a1918"/>
<rect x="18" y="8" width="1" height="1" fill="#1e1e1d"/>
<rect x="19" y="8" width="1" height="1" fill="#1b1b19"/>
<rect x="20" y="8" width="1" height="1" fill="#16171c"/>
<rect x="21" y="8" width="1" height="1" fill="#0c0d1b" fill-opacity="0.988"/>
<rect x="22" y="8" width="1" height="1" fill="#161518" fill-opacity="0.725"/>
<rect x="23" y="8" width="1" height="1" fill="#535353" fill-opacity="0.424"/>
<rect x="3" y="9" width="1" height="1" fill="#36f00c" fill-opacity="0.267"/>
<rect x="4" y="9" width="1" height="1" fill="#37e80b" fill-opacity="0.125"/>
<rect x="8" y="9" width="1" height="1" fill="#55b415" fill-opacity="0.188"/>
<rect x="9" y="9" width="1" height="1" fill="#2aba0c" fill-opacity="0.886"/>
<rect x="10" y="9" width="1" height="1" fill="#2ec80e" fill-opacity="0.984"/>
<rect x="11" y="9" width="1" height="1" fill="#2abd0b" fill-opacity="0.988"/>
<rect x="12" y="9" width="1" height="1" fill="#27b60a" fill-opacity="0.98"/>
<rect x="13" y="9" width="1" height="1" fill="#24b009" fill-opacity="0.988"/>
<rect x="14" y="9" width="1" height="1" fill="#23ae08" fill-opacity="0.988"/>
<rect x="15" y="9" width="1" height="1" fill="#2eb80d" fill-opacity="0.957"/>
<rect x="16" y="9" width="1" height="1" fill="#161715"/>
<rect x="17" y="9" width="1" height="1" fill="#141314"/>
<rect x="18" y="9" width="1" height="1" fill="#1d1c1a"/>
<rect x="19" y="9" width="1" height="1" fill="#1b1a19"/>
<rect x="20" y="9" width="1" height="1" fill="#1d1d1c"/>
<rect x="21" y="9" width="1" height="1" fill="#1c1b1a"/>
<rect x="22" y="9" width="1" height="1" fill="#171616"/>
<rect x="23" y="9" width="1" height="1" fill="#111011" fill-opacity="0.804"/>
<rect x="24" y="9" width="1" height="1" fill="#282727" fill-opacity="0.439"/>
<rect x="1" y="10" width="1" height="1" fill="#36eb0d" fill-opacity="0.255"/>
<rect x="2" y="10" width="1" height="1" fill="#28c408" fill-opacity="0.859"/>
<rect x="3" y="10" width="1" height="1" fill="#1ea805" fill-opacity="0.996"/>
<rect x="4" y="10" width="1" height="1" fill="#1ea605"/>
<rect x="5" y="10" width="1" height="1" fill="#1fad06" fill-opacity="0.918"/>
<rect x="6" y="10" width="1" height="1" fill="#1a9b04" fill-opacity="0.024"/>
<rect x="8" y="10" width="1" height="1" fill="#1da104" fill-opacity="0.012"/>
<rect x="9" y="10" width="1" height="1" fill="#1fa706" fill-opacity="0.698"/>
<rect x="10" y="10" width="1" height="1" fill="#20a806" fill-opacity="0.976"/>
<rect x="11" y="10" width="1" height="1" fill="#24a80b"/>
<rect x="12" y="10" width="1" height="1" fill="#1fa706"/>
<rect x="13" y="10" width="1" height="1" fill="#1da804"/>
<rect x="14" y="10" width="1" height="1" fill="#1da404"/>
<rect x="15" y="10" width="1" height="1" fill="#20b405"/>
<rect x="16" y="10" width="1" height="1" fill="#183310"/>
<rect x="17" y="10" width="1" height="1" fill="#171514"/>
<rect x="18" y="10" width="1" height="1" fill="#1b1a1a"/>
<rect x="19" y="10" width="1" height="1" fill="#201f1e" fill-opacity="0.996"/>
<rect x="20" y="10" width="1" height="1" fill="#1d1d1c" fill-opacity="0.992"/>
<rect x="21" y="10" width="1" height="1" fill="#1e1e1c" fill-opacity="0.792"/>
<rect x="22" y="10" width="1" height="1" fill="#201f21" fill-opacity="0.816"/>
<rect x="23" y="10" width="1" height="1" fill="#474649" fill-opacity="0.494"/>
<rect x="24" y="10" width="1" height="1" fill="#292827" fill-opacity="0.141"/>
<rect x="0" y="11" width="1" height="1" fill="#199503" fill-opacity="0.031"/>
<rect x="1" y="11" width="1" height="1" fill="#28ab0d" fill-opacity="0.702"/>
<rect x="2" y="11" width="1" height="1" fill="#22a908" fill-opacity="0.996"/>
<rect x="3" y="11" width="1" height="1" fill="#20a807"/>
<rect x="4" y="11" width="1" height="1" fill="#1ea605"/>
<rect x="5" y="11" width="1" height="1" fill="#20a807"/>
<rect x="6" y="11" width="1" height="1" fill="#1a9b04" fill-opacity="0.769"/>
<rect x="7" y="11" width="1" height="1" fill="#199503" fill-opacity="0.012"/>
<rect x="9" y="11" width="1" height="1" fill="#54b942" fill-opacity="0.039"/>
<rect x="10" y="11" width="1" height="1" fill="#21a607" fill-opacity="0.518"/>
<rect x="11" y="11" width="1" height="1" fill="#27b10c" fill-opacity="0.992"/>
<rect x="12" y="11" width="1" height="1" fill="#48d729"/>
<rect x="13" y="11" width="1" height="1" fill="#4cd92c"/>
<rect x="14" y="11" width="1" height="1" fill="#3fd31f"/>
<rect x="15" y="11" width="1" height="1" fill="#27ae0d"/>
<rect x="16" y="11" width="1" height="1" fill="#121d0f"/>
<rect x="17" y="11" width="1" height="1" fill="#181615"/>
<rect x="18" y="11" width="1" height="1" fill="#1c1b1b"/>
<rect x="19" y="11" width="1" height="1" fill="#201f1e" fill-opacity="0.996"/>
<rect x="20" y="11" width="1" height="1" fill="#1e1e1d" fill-opacity="0.996"/>
<rect x="21" y="11" width="1" height="1" fill="#252526" fill-opacity="0.784"/>
<rect x="22" y="11" width="1" height="1" fill="#121116" fill-opacity="0.275"/>
<rect x="23" y="11" width="1" height="1" fill="#121116" fill-opacity="0.02"/>
<rect x="0" y="12" width="1" height="1" fill="#21a707" fill-opacity="0.729"/>
<rect x="1" y="12" width="1" height="1" fill="#24a508" fill-opacity="0.996"/>
<rect x="2" y="12" width="1" height="1" fill="#26af0c"/>
<rect x="3" y="12" width="1" height="1" fill="#2cb611"/>
<rect x="4" y="12" width="1" height="1" fill="#35bd18" fill-opacity="0.733"/>
<rect x="5" y="12" width="1" height="1" fill="#37bc1c" fill-opacity="0.039"/>
<rect x="6" y="12" width="1" height="1" fill="#28ae0e" fill-opacity="0.965"/>
<rect x="7" y="12" width="1" height="1" fill="#1c9806" fill-opacity="0.051"/>
<rect x="10" y="12" width="1" height="1" fill="#6dc05e" fill-opacity="0.075"/>
<rect x="11" y="12" width="1" height="1" fill="#21a907" fill-opacity="0.98"/>
<rect x="12" y="12" width="1" height="1" fill="#48d229"/>
<rect x="13" y="12" width="1" height="1" fill="#41d023"/>
<rect x="14" y="12" width="1" height="1" fill="#1f6211"/>
<rect x="15" y="12" width="1" height="1" fill="#0d2109"/>
<rect x="16" y="12" width="1" height="1" fill="#121211"/>
<rect x="17" y="12" width="1" height="1" fill="#131212"/>
<rect x="18" y="12" width="1" height="1" fill="#1e1d1d"/>
<rect x="19" y="12" width="1" height="1" fill="#1f1e1c" fill-opacity="0.996"/>
<rect x="20" y="12" width="1" height="1" fill="#20201f" fill-opacity="0.996"/>
<rect x="21" y="12" width="1" height="1" fill="#24232d" fill-opacity="0.773"/>
<rect x="22" y="12" width="1" height="1" fill="#111018" fill-opacity="0.145"/>
<rect x="23" y="12" width="1" height="1" fill="#121116" fill-opacity="0.004"/>
<rect x="0" y="13" width="1" height="1" fill="#23ab08" fill-opacity="0.969"/>
<rect x="1" y="13" width="1" height="1" fill="#26ac0a"/>
<rect x="2" y="13" width="1" height="1" fill="#3ac51c"/>
<rect x="3" y="13" width="1" height="1" fill="#2fb815"/>
<rect x="4" y="13" width="1" height="1" fill="#22a909" fill-opacity="0.09"/>
<rect x="5" y="13" width="1" height="1" fill="#52bd3d" fill-opacity="0.549"/>
<rect x="6" y="13" width="1" height="1" fill="#4fbc3a" fill-opacity="0.988"/>
<rect x="7" y="13" width="1" height="1" fill="#43b32e" fill-opacity="0.141"/>
<rect x="10" y="13" width="1" height="1" fill="#f4faf3" fill-opacity="0.031"/>
<rect x="11" y="13" width="1" height="1" fill="#23ac08" fill-opacity="0.984"/>
<rect x="12" y="13" width="1" height="1" fill="#3ec521"/>
<rect x="13" y="13" width="1" height="1" fill="#65ec41"/>
<rect x="14" y="13" width="1" height="1" fill="#3ccd1d"/>
<rect x="15" y="13" width="1" height="1" fill="#1e8708"/>
<rect x="16" y="13" width="1" height="1" fill="#11310a"/>
<rect x="17" y="13" width="1" height="1" fill="#111610" fill-opacity="0.988"/>
<rect x="18" y="13" width="1" height="1" fill="#111110" fill-opacity="0.98"/>
<rect x="19" y="13" width="1" height="1" fill="#201f1f" fill-opacity="0.992"/>
<rect x="20" y="13" width="1" height="1" fill="#1f1f1f" fill-opacity="0.996"/>
<rect x="21" y="13" width="1" height="1" fill="#1e2032" fill-opacity="0.941"/>
<rect x="22" y="13" width="1" height="1" fill="#0e0e1d" fill-opacity="0.118"/>
<rect x="0" y="14" width="1" height="1" fill="#25a80b" fill-opacity="0.992"/>
<rect x="1" y="14" width="1" height="1" fill="#31b815"/>
<rect x="2" y="14" width="1" height="1" fill="#5edf3f"/>
<rect x="3" y="14" width="1" height="1" fill="#47cb2a"/>
<rect x="4" y="14" width="1" height="1" fill="#65c154" fill-opacity="0.165"/>
<rect x="5" y="14" width="1" height="1" fill="#a0da94" fill-opacity="0.086"/>
<rect x="6" y="14" width="1" height="1" fill="#5dc748" fill-opacity="0.4"/>
<rect x="7" y="14" width="1" height="1" fill="#52bd3d" fill-opacity="0.051"/>
<rect x="10" y="14" width="1" height="1" fill="#d2f6c6" fill-opacity="0.2"/>
<rect x="11" y="14" width="1" height="1" fill="#22ac09" fill-opacity="0.984"/>
<rect x="12" y="14" width="1" height="1" fill="#38c01d"/>
<rect x="13" y="14" width="1" height="1" fill="#72f750"/>
<rect x="14" y="14" width="1" height="1" fill="#50e030"/>
<rect x="15" y="14" width="1" height="1" fill="#1da005"/>
<rect x="16" y="14" width="1" height="1" fill="#1c9604"/>
<rect x="17" y="14" width="1" height="1" fill="#1e5c09" fill-opacity="0.753"/>
<rect x="18" y="14" width="1" height="1" fill="#10100f" fill-opacity="0.867"/>
<rect x="19" y="14" width="1" height="1" fill="#101011" fill-opacity="0.98"/>
<rect x="20" y="14" width="1" height="1" fill="#1b1b1b" fill-opacity="0.976"/>
<rect x="21" y="14" width="1" height="1" fill="#111328" fill-opacity="0.957"/>
<rect x="22" y="14" width="1" height="1" fill="#474851" fill-opacity="0.345"/>
<rect x="0" y="15" width="1" height="1" fill="#22aa07" fill-opacity="0.992"/>
<rect x="1" y="15" width="1" height="1" fill="#34bd1a"/>
<rect x="2" y="15" width="1" height="1" fill="#83e36e"/>
<rect x="3" y="15" width="1" height="1" fill="#8be378"/>
<rect x="4" y="15" width="1" height="1" fill="#3db127" fill-opacity="0.78"/>
<rect x="6" y="15" width="1" height="1" fill="#ffffff" fill-opacity="0.012"/>
<rect x="7" y="15" width="1" height="1" fill="#ffffff" fill-opacity="0.004"/>
<rect x="9" y="15" width="1" height="1" fill="#baeab1" fill-opacity="0.286"/>
<rect x="10" y="15" width="1" height="1" fill="#28b10f" fill-opacity="0.929"/>
<rect x="11" y="15" width="1" height="1" fill="#20a906"/>
<rect x="12" y="15" width="1" height="1" fill="#4ad02d"/>
<rect x="13" y="15" width="1" height="1" fill="#6bf349"/>
<rect x="14" y="15" width="1" height="1" fill="#52e230"/>
<rect x="15" y="15" width="1" height="1" fill="#2cb811"/>
<rect x="16" y="15" width="1" height="1" fill="#1d9d05"/>
<rect x="17" y="15" width="1" height="1" fill="#31e40b" fill-opacity="0.722"/>
<rect x="18" y="15" width="1" height="1" fill="#29190a" fill-opacity="0.157"/>
<rect x="19" y="15" width="1" height="1" fill="#150f0b" fill-opacity="0.675"/>
<rect x="20" y="15" width="1" height="1" fill="#111015" fill-opacity="0.965"/>
<rect x="21" y="15" width="1" height="1" fill="#151522" fill-opacity="0.98"/>
<rect x="22" y="15" width="1" height="1" fill="#343441" fill-opacity="0.69"/>
<rect x="23" y="15" width="1" height="1" fill="#5a5a62" fill-opacity="0.047"/>
<rect x="0" y="16" width="1" height="1" fill="#20a907" fill-opacity="0.988"/>
<rect x="1" y="16" width="1" height="1" fill="#34bd19"/>
<rect x="2" y="16" width="1" height="1" fill="#81e16b"/>
<rect x="3" y="16" width="1" height="1" fill="#c3f5b6"/>
<rect x="4" y="16" width="1" height="1" fill="#4bbf32" fill-opacity="0.733"/>
<rect x="5" y="16" width="1" height="1" fill="#26ae0d" fill-opacity="0.882"/>
<rect x="6" y="16" width="1" height="1" fill="#38b320" fill-opacity="0.8"/>
<rect x="7" y="16" width="1" height="1" fill="#3eb928" fill-opacity="0.988"/>
<rect x="8" y="16" width="1" height="1" fill="#36b81e" fill-opacity="0.98"/>
<rect x="9" y="16" width="1" height="1" fill="#20a807"/>
<rect x="10" y="16" width="1" height="1" fill="#1fa806"/>
<rect x="11" y="16" width="1" height="1" fill="#2ab210"/>
<rect x="12" y="16" width="1" height="1" fill="#9bf485"/>
<rect x="13" y="16" width="1" height="1" fill="#8ff975"/>
<rect x="14" y="16" width="1" height="1" fill="#5eec3c"/>
<rect x="15" y="16" width="1" height="1" fill="#4cd92c"/>
<rect x="16" y="16" width="1" height="1" fill="#26ae0c"/>
<rect x="17" y="16" width="1" height="1" fill="#2ac209" fill-opacity="0.937"/>
<rect x="19" y="16" width="1" height="1" fill="#b45609" fill-opacity="0.012"/>
<rect x="20" y="16" width="1" height="1" fill="#1e1b1c" fill-opacity="0.376"/>
<rect x="21" y="16" width="1" height="1" fill="#171518" fill-opacity="0.937"/>
<rect x="22" y="16" width="1" height="1" fill="#292937" fill-opacity="0.886"/>
<rect x="23" y="16" width="1" height="1" fill="#2b2b31" fill-opacity="0.2"/>
<rect x="24" y="16" width="1" height="1" fill="#121116" fill-opacity="0.016"/>
<rect x="0" y="17" width="1" height="1" fill="#25a90d" fill-opacity="0.929"/>
<rect x="1" y="17" width="1" height="1" fill="#2db111" fill-opacity="0.992"/>
<rect x="2" y="17" width="1" height="1" fill="#4acd2f"/>
<rect x="3" y="17" width="1" height="1" fill="#b7f1a8"/>
<rect x="4" y="17" width="1" height="1" fill="#82da6f"/>
<rect x="5" y="17" width="1" height="1" fill="#33b61d"/>
<rect x="6" y="17" width="1" height="1" fill="#37bf1b"/>
<rect x="7" y="17" width="1" height="1" fill="#43cd26"/>
<rect x="8" y="17" width="1" height="1" fill="#42ca21"/>
<rect x="9" y="17" width="1" height="1" fill="#21aa08"/>
<rect x="10" y="17" width="1" height="1" fill="#21a908"/>
<rect x="11" y="17" width="1" height="1" fill="#90d782"/>
<rect x="12" y="17" width="1" height="1" fill="#cdf6c3"/>
<rect x="13" y="17" width="1" height="1" fill="#a6f394"/>
<rect x="14" y="17" width="1" height="1" fill="#51e331"/>
<rect x="15" y="17" width="1" height="1" fill="#45da25"/>
<rect x="16" y="17" width="1" height="1" fill="#2cbe10"/>
<rect x="17" y="17" width="1" height="1" fill="#1da305"/>
<rect x="18" y="17" width="1" height="1" fill="#32f50d" fill-opacity="0.227"/>
<rect x="20" y="17" width="1" height="1" fill="#ebdbcf" fill-opacity="0.012"/>
<rect x="21" y="17" width="1" height="1" fill="#5f5e63" fill-opacity="0.384"/>
<rect x="22" y="17" width="1" height="1" fill="#222127" fill-opacity="0.839"/>
<rect x="23" y="17" width="1" height="1" fill="#6c6a6d" fill-opacity="0.545"/>
<rect x="24" y="17" width="1" height="1" fill="#121116" fill-opacity="0.031"/>
<rect x="0" y="18" width="1" height="1" fill="#24aa0b" fill-opacity="0.596"/>
<rect x="1" y="18" width="1" height="1" fill="#21a708" fill-opacity="0.996"/>
<rect x="2" y="18" width="1" height="1" fill="#3dc223"/>
<rect x="3" y="18" width="1" height="1" fill="#4dcd32"/>
<rect x="4" y="18" width="1" height="1" fill="#4cc733"/>
<rect x="5" y="18" width="1" height="1" fill="#32b719"/>
<rect x="6" y="18" width="1" height="1" fill="#56e035"/>
<rect x="7" y="18" width="1" height="1" fill="#58e237"/>
<rect x="8" y="18" width="1" height="1" fill="#57e136"/>
<rect x="9" y="18" width="1" height="1" fill="#2db414"/>
<rect x="10" y="18" width="1" height="1" fill="#1fa706"/>
<rect x="11" y="18" width="1" height="1" fill="#25ac0c"/>
<rect x="12" y="18" width="1" height="1" fill="#5de63d"/>
<rect x="13" y="18" width="1" height="1" fill="#50dc30"/>
<rect x="14" y="18" width="1" height="1" fill="#4ad829"/>
<rect x="15" y="18" width="1" height="1" fill="#29c70c"/>
<rect x="16" y="18" width="1" height="1" fill="#1fb105"/>
<rect x="17" y="18" width="1" height="1" fill="#1b9b04"/>
<rect x="18" y="18" width="1" height="1" fill="#2cd30a" fill-opacity="0.792"/>
<rect x="20" y="18" width="1" height="1" fill="#ffffff" fill-opacity="0.02"/>
<rect x="21" y="18" width="1" height="1" fill="#fefefe" fill-opacity="0.02"/>
<rect x="22" y="18" width="1" height="1" fill="#b4b4b9" fill-opacity="0.184"/>
<rect x="23" y="18" width="1" height="1" fill="#46454a" fill-opacity="0.69"/>
<rect x="24" y="18" width="1" height="1" fill="#535256" fill-opacity="0.212"/>
<rect x="0" y="19" width="1" height="1" fill="#39af24" fill-opacity="0.031"/>
<rect x="1" y="19" width="1" height="1" fill="#20a706" fill-opacity="0.894"/>
<rect x="2" y="19" width="1" height="1" fill="#22a909" fill-opacity="0.996"/>
<rect x="3" y="19" width="1" height="1" fill="#34b81a"/>
<rect x="4" y="19" width="1" height="1" fill="#32b71a"/>
<rect x="5" y="19" width="1" height="1" fill="#28b00f"/>
<rect x="6" y="19" width="1" height="1" fill="#2cb611"/>
<rect x="7" y="19" width="1" height="1" fill="#29b30d"/>
<rect x="8" y="19" width="1" height="1" fill="#2fb813"/>
<rect x="9" y="19" width="1" height="1" fill="#2eb515"/>
<rect x="10" y="19" width="1" height="1" fill="#1fa706"/>
<rect x="11" y="19" width="1" height="1" fill="#1fa706"/>
<rect x="12" y="19" width="1" height="1" fill="#27ae0e"/>
<rect x="13" y="19" width="1" height="1" fill="#1fa406"/>
<rect x="14" y="19" width="1" height="1" fill="#1ca104"/>
<rect x="15" y="19" width="1" height="1" fill="#1b9e04"/>
<rect x="16" y="19" width="1" height="1" fill="#1b9d04"/>
<rect x="17" y="19" width="1" height="1" fill="#1ea605"/>
<rect x="18" y="19" width="1" height="1" fill="#1c9f04" fill-opacity="0.996"/>
<rect x="19" y="19" width="1" height="1" fill="#31f40d" fill-opacity="0.227"/>
<rect x="21" y="19" width="1" height="1" fill="#fdfdfd" fill-opacity="0.008"/>
<rect x="23" y="19" width="1" height="1" fill="#504f53" fill-opacity="0.071"/>
<rect x="24" y="19" width="1" height="1" fill="#a8a7a9" fill-opacity="0.224"/>
</svg>