<?xml version="1.0" encoding="UTF-8" standalone="no"?>
<svg xmlns="http://www.w3.org/2000/svg" width="26" height="21" shape-rendering="crispEdges">
<rect x="18" y="0" width="1" height="1" fill="#494744" fill-opacity="0.243"/>
<rect x="19" y="0" width="1" height="1" fill="#0d0c0b" fill-opacity="0.788"/>
<rect x="20" y="0" width="1" height="1" fill="#11100f" fill-opacity="0.988"/>
<rect x="21" y="0" width="1" height="1" fill="#141312"/>
<rect x="22" y="0" width="1" height="1" fill="#151413"/>
<rect x="23" y="0" width="1" height="1" fill="#161514"/>
<rect x="24" y="0" width="1" height="1" fill="#161514" fill-opacity="0.984"/>
<rect x="15" y="1" width="1" height="1" fill="#8e8c8a" fill-opacity="0.106"/>
<rect x="16" y="1" width="1" height="1" fill="#0c0c0c" fill-opacity="0.502"/>
<rect x="17" y="1" width="1" height="1" fill="#040404" fill-opacity="0.675"/>
<rect x="18" y="1" width="1" height="1" fill="#0d0c0b" fill-opacity="0.757"/>
<rect x="19" y="1" width="1" height="1" fill="#171716" fill-opacity="0.996"/>
<rect x="20" y="1" width="1" height="1" fill="#181716"/>
<rect x="21" y="1" width="1" height="1" fill="#131312"/>
<rect x="22" y="1" width="1" height="1" fill="#141312" fill-opacity="0.78"/>
<rect x="23" y="1" width="1" height="1" fill="#21201e" fill-opacity="0.592"/>
<rect x="24" y="1" width="1" height="1" fill="#161514" fill-opacity="0.047"/>
<rect x="4" y="2" width="1" height="1" fill="#ffffff" fill-opacity="0.024"/>
<rect x="5" y="2" width="1" height="1" fill="#ffffff" fill-opacity="0.027"/>
<rect x="13" y="2" width="1" height="1" fill="#484543" fill-opacity="0.322"/>
<rect x="14" y="2" width="1" height="1" fill="#050505" fill-opacity="0.671"/>
<rect x="15" y="2" width="1" height="1" fill="#050505" fill-opacity="0.749"/>
<rect x="16" y="2" width="1" height="1" fill="#0c0b0a" fill-opacity="0.988"/>
<rect x="17" y="2" width="1" height="1" fill="#121111"/>
<rect x="18" y="2" width="1" height="1" fill="#1a1a19"/>
<rect x="19" y="2" width="1" height="1" fill="#1b1b1a"/>
<rect x="20" y="2" width="1" height="1" fill="#161615"/>
<rect x="21" y="2" width="1" height="1" fill="#201c17" fill-opacity="0.733"/>
<rect x="22" y="2" width="1" height="1" fill="#c6c6c6" fill-opacity="0.043"/>
<rect x="4" y="3" width="1" height="1" fill="#ffffff" fill-opacity="0.004"/>
<rect x="10" y="3" width="1" height="1" fill="#cac2bd" fill-opacity="0.024"/>
<rect x="11" y="3" width="1" height="1" fill="#373634" fill-opacity="0.435"/>
<rect x="12" y="3" width="1" height="1" fill="#090909" fill-opacity="0.718"/>
<rect x="13" y="3" width="1" height="1" fill="#0c0c0c" fill-opacity="0.761"/>
<rect x="14" y="3" width="1" height="1" fill="#131311"/>
<rect x="15" y="3" width="1" height="1" fill="#141313"/>
<rect x="16" y="3" width="1" height="1" fill="#161615"/>
<rect x="17" y="3" width="1" height="1" fill="#1d1d1c"/>
<rect x="18" y="3" width="1" height="1" fill="#1f1f1e"/>
<rect x="19" y="3" width="1" height="1" fill="#1d1c1b" fill-opacity="0.996"/>
<rect x="20" y="3" width="1" height="1" fill="#252428" fill-opacity="0.737"/>
<rect x="21" y="3" width="1" height="1" fill="#595a68" fill-opacity="0.302"/>
<rect x="22" y="3" width="1" height="1" fill="#080a29" fill-opacity="0.004"/>
<rect x="9" y="4" width="1" height="1" fill="#2e261f" fill-opacity="0.396"/>
<rect x="10" y="4" width="1" height="1" fill="#100e0c" fill-opacity="0.631"/>
<rect x="11" y="4" width="1" height="1" fill="#141413" fill-opacity="0.996"/>
<rect x="12" y="4" width="1" height="1" fill="#1a1a18"/>
<rect x="13" y="4" width="1" height="1" fill="#161414"/>
<rect x="14" y="4" width="1" height="1" fill="#151514"/>
<rect x="15" y="4" width="1" height="1" fill="#1f1f1e"/>
<rect x="16" y="4" width="1" height="1" fill="#212120"/>
<rect x="17" y="4" width="1" height="1" fill="#1f1f1e"/>
<rect x="18" y="4" width="1" height="1" fill="#1e1e1c"/>
<rect x="19" y="4" width="1" height="1" fill="#15141c" fill-opacity="0.992"/>
<rect x="20" y="4" width="1" height="1" fill="#383a4c" fill-opacity="0.502"/>
<rect x="21" y="4" width="1" height="1" fill="#080a29" fill-opacity="0.016"/>
<rect x="8" y="5" width="1" height="1" fill="#544f4a" fill-opacity="0.369"/>
<rect x="9" y="5" width="1" height="1" fill="#1c1620" fill-opacity="0.812"/>
<rect x="10" y="5" width="1" height="1" fill="#13101e" fill-opacity="0.902"/>
<rect x="11" y="5" width="1" height="1" fill="#0b0b1b"/>
<rect x="12" y="5" width="1" height="1" fill="#121018"/>
<rect x="13" y="5" width="1" height="1" fill="#131215"/>
<rect x="14" y="5" width="1" height="1" fill="#171618"/>
<rect x="15" y="5" width="1" height="1" fill="#1f1d1d"/>
<rect x="16" y="5" width="1" height="1" fill="#1f1f1d"/>
<rect x="17" y="5" width="1" height="1" fill="#1e1e1d"/>
<rect x="18" y="5" width="1" height="1" fill="#1a191a"/>
<rect x="19" y="5" width="1" height="1" fill="#0f1025" fill-opacity="0.996"/>
<rect x="20" y="5" width="1" height="1" fill="#46485c" fill-opacity="0.243"/>
<rect x="9" y="6" width="1" height="1" fill="#080a29" fill-opacity="0.118"/>
<rect x="10" y="6" width="1" height="1" fill="#1b1c38" fill-opacity="0.337"/>
<rect x="11" y="6" width="1" height="1" fill="#181a36" fill-opacity="0.545"/>
<rect x="12" y="6" width="1" height="1" fill="#1e2035" fill-opacity="0.761"/>
<rect x="13" y="6" width="1" height="1" fill="#0e101e" fill-opacity="0.855"/>
<rect x="14" y="6" width="1" height="1" fill="#111119"/>
<rect x="15" y="6" width="1" height="1" fill="#18181b"/>
<rect x="16" y="6" width="1" height="1" fill="#1a1a19"/>
<rect x="17" y="6" width="1" height="1" fill="#1e1d1c"/>
<rect x="18" y="6" width="1" height="1" fill="#1b1b1b"/>
<rect x="19" y="6" width="1" height="1" fill="#0f1026"/>
<rect x="20" y="6" width="1" height="1" fill="#1a1b2f" fill-opacity="0.82"/>
<rect x="21" y="6" width="1" height="1" fill="#7e7e8a" fill-opacity="0.078"/>
<rect x="12" y="7" width="1" height="1" fill="#080a29" fill-opacity="0.027"/>
<rect x="13" y="7" width="1" height="1" fill="#161732" fill-opacity="0.329"/>
<rect x="14" y="7" width="1" height="1" fill="#181825" fill-opacity="0.851"/>
<rect x="15" y="7" width="1" height="1" fill="#131318" fill-opacity="0.996"/>
<rect x="16" y="7" width="1" height="1" fill="#191919"/>
<rect x="17" y="7" width="1" height="1" fill="#1e1e1d"/>
<rect x="18" y="7" width="1" height="1" fill="#1e1e1d"/>
<rect x="19" y="7" width="1" height="1" fill="#16171b"/>
<rect x="20" y="7" width="1" height="1" fill="#0c0e25" fill-opacity="0.996"/>
<rect x="21" y="7" width="1" height="1" fill="#090a1a" fill-opacity="0.855"/>
<rect x="22" y="7" width="1" height="1" fill="#8f8f94" fill-opacity="0.165"/>
<rect x="4" y="8" width="1" height="1" fill="#e8c4ba" fill-opacity="0.004"/>
<rect x="14" y="8" width="1" height="1" fill="#161027" fill-opacity="0.09"/>
<rect x="15" y="8" width="1" height="1" fill="#18151b" fill-opacity="0.82"/>
<rect x="16" y="8" width="1" height="1" fill="#151315"/>
<rect x="17" y="8" width="1" height="1" fill="#1a1918"/>
<rect x="18" y="8" width="1" height="1" fill="#1e1e1d"/>
<rect x="19" y="8" width="1" height="1" fill="#1b1b19"/>
<rect x="20" y="8" width="1" height="1" fill="#16171c"/>
<rect x="21" y="8" width="1" height="1" fill="#0c0d1b" fill-opacity="0.988"/>
<rect x="22" y="8" width="1" height="1" fill="#161518" fill-opacity="0.725"/>
<rect x="23" y="8" width="1" height="1" fill="#535353" fill-opacity="0.424"/>
<rect x="1" y="9" width="1" height="1" fill="#ffffff" fill-opacity="0.027"/>
<rect x="3" y="9" width="1" height="1" fill="#1633bf" fill-opacity="0.965"/>
<rect x="4" y="9" width="1" height="1" fill="#1633bf" fill-opacity="0.969"/>
<rect x="5" y="9" width="1" height="1" fill="#2344cf" fill-opacity="0.165"/>
<rect x="8" y="9" width="1" height="1" fill="#1836c3" fill-opacity="0.941"/>
<rect x="9" y="9" width="1" height="1" fill="#1736c3" fill-opacity="0.988"/>
<rect x="10" y="9" width="1" height="1" fill="#1837c3"/>
<rect x="11" y="9" width="1" height="1" fill="#1a38c4"/>
<rect x="12" y="9" width="1" height="1" fill="#1a39c5"/>
<rect x="13" y="9" width="1" height="1" fill="#1a39c5" fill-opacity="0.996"/>
<rect x="14" y="9" width="1" height="1" fill="#1b3ac6" fill-opacity="0.996"/>
<rect x="15" y="9" width="1" height="1" fill="#1e3cc0" fill-opacity="0.98"/>
<rect x="16" y="9" width="1" height="1" fill="#151417"/>
<rect x="17" y="9" width="1" height="1" fill="#141314"/>
<rect x="18" y="9" width="1" height="1" fill="#1d1c1a"/>
<rect x="19" y="9" width="1" height="1" fill="#1b1a19"/>
<rect x="20" y="9" width="1" height="1" fill="#1d1d1c"/>
<rect x="21" y="9" width="1" height="1" fill="#1c1b1a"/>
<rect x="22" y="9" width="1" height="1" fill="#171616"/>
<rect x="23" y="9" width="1" height="1" fill="#111011" fill-opacity="0.804"/>
<rect x="24" y="9" width="1" height="1" fill="#282727" fill-opacity="0.439"/>
<rect x="1" y="10" width="1" height="1" fill="#1735c1" fill-opacity="0.953"/>
<rect x="2" y="10" width="1" height="1" fill="#1835bf" fill-opacity="0.992"/>
<rect x="3" y="10" width="1" height="1" fill="#1a3ac5" fill-opacity="0.996"/>
<rect x="4" y="10" width="1" height="1" fill="#1937c4"/>
<rect x="5" y="10" width="1" height="1" fill="#1533c0"/>
<rect x="6" y="10" width="1" height="1" fill="#1533c0" fill-opacity="0.043"/>
<rect x="9" y="10" width="1" height="1" fill="#1533c0"/>
<rect x="10" y="10" width="1" height="1" fill="#1938c4"/>
<rect x="11" y="10" width="1" height="1" fill="#1d3cc8"/>
<rect x="12" y="10" width="1" height="1" fill="#2343cc"/>
<rect x="13" y="10" width="1" height="1" fill="#2040c9"/>
<rect x="14" y="10" width="1" height="1" fill="#1c3dc7"/>
<rect x="15" y="10" width="1" height="1" fill="#133dcb"/>
<rect x="16" y="10" width="1" height="1" fill="#15182b"/>
<rect x="17" y="10" width="1" height="1" fill="#171514"/>
<rect x="18" y="10" width="1" height="1" fill="#1b1a1a"/>
<rect x="19" y="10" width="1" height="1" fill="#201f1e" fill-opacity="0.996"/>
<rect x="20" y="10" width="1" height="1" fill="#1d1d1c" fill-opacity="0.992"/>
<rect x="21" y="10" width="1" height="1" fill="#1e1e1c" fill-opacity="0.792"/>
<rect x="22" y="10" width="1" height="1" fill="#201f21" fill-opacity="0.816"/>
<rect x="23" y="10" width="1" height="1" fill="#474649" fill-opacity="0.494"/>
<rect x="24" y="10" width="1" height="1" fill="#292827" fill-opacity="0.141"/>
<rect x="1" y="11" width="1" height="1" fill="#1734bf" fill-opacity="0.996"/>
<rect x="2" y="11" width="1" height="1" fill="#2343cd"/>
<rect x="3" y="11" width="1" height="1" fill="#2446d0"/>
<rect x="4" y="11" width="1" height="1" fill="#2748cf"/>
<rect x="5" y="11" width="1" height="1" fill="#1c3cc7"/>
<rect x="6" y="11" width="1" height="1" fill="#1a39c5"/>
<rect x="10" y="11" width="1" height="1" fill="#1634c1" fill-opacity="0.918"/>
<rect x="11" y="11" width="1" height="1" fill="#2344cd"/>
<rect x="12" y="11" width="1" height="1" fill="#5e87f0"/>
<rect x="13" y="11" width="1" height="1" fill="#5b84ee"/>
<rect x="14" y="11" width="1" height="1" fill="#3d61d6"/>
<rect x="15" y="11" width="1" height="1" fill="#193098"/>
<rect x="16" y="11" width="1" height="1" fill="#11121a"/>
<rect x="17" y="11" width="1" height="1" fill="#181615"/>
<rect x="18" y="11" width="1" height="1" fill="#1c1b1b"/>
<rect x="19" y="11" width="1" height="1" fill="#201f1e" fill-opacity="0.996"/>
<rect x="20" y="11" width="1" height="1" fill="#1e1e1d" fill-opacity="0.996"/>
<rect x="21" y="11" width="1" height="1" fill="#252526" fill-opacity="0.784"/>
<rect x="22" y="11" width="1" height="1" fill="#121116" fill-opacity="0.275"/>
<rect x="23" y="11" width="1" height="1" fill="#121116" fill-opacity="0.02"/>
<rect x="0" y="12" width="1" height="1" fill="#1836c0" fill-opacity="0.929"/>
<rect x="1" y="12" width="1" height="1" fill="#2442c7"/>
<rect x="2" y="12" width="1" height="1" fill="#224bd3"/>
<rect x="3" y="12" width="1" height="1" fill="#365ddb"/>
<rect x="4" y="12" width="1" height="1" fill="#1a39c5"/>
<rect x="6" y="12" width="1" height="1" fill="#1837c3"/>
<rect x="7" y="12" width="1" height="1" fill="#1533c0" fill-opacity="0.027"/>
<rect x="11" y="12" width="1" height="1" fill="#1836c2"/>
<rect x="12" y="12" width="1" height="1" fill="#385cda"/>
<rect x="13" y="12" width="1" height="1" fill="#4f76e6"/>
<rect x="14" y="12" width="1" height="1" fill="#13215d"/>
<rect x="15" y="12" width="1" height="1" fill="#0b0f1e"/>
<rect x="16" y="12" width="1" height="1" fill="#121112"/>
<rect x="17" y="12" width="1" height="1" fill="#131212"/>
<rect x="18" y="12" width="1" height="1" fill="#1e1d1d"/>
<rect x="19" y="12" width="1" height="1" fill="#1f1e1c" fill-opacity="0.996"/>
<rect x="20" y="12" width="1" height="1" fill="#20201f" fill-opacity="0.996"/>
<rect x="21" y="12" width="1" height="1" fill="#24232d" fill-opacity="0.773"/>
<rect x="22" y="12" width="1" height="1" fill="#111018" fill-opacity="0.145"/>
<rect x="23" y="12" width="1" height="1" fill="#121116" fill-opacity="0.004"/>
<rect x="0" y="13" width="1" height="1" fill="#1936c1"/>
<rect x="1" y="13" width="1" height="1" fill="#2043cd"/>
<rect x="2" y="13" width="1" height="1" fill="#3a6ae3"/>
<rect x="3" y="13" width="1" height="1" fill="#2245cb"/>
<rect x="5" y="13" width="1" height="1" fill="#1736c2" fill-opacity="0.835"/>
<rect x="6" y="13" width="1" height="1" fill="#1836c3"/>
<rect x="7" y="13" width="1" height="1" fill="#1533c0" fill-opacity="0.016"/>
<rect x="11" y="13" width="1" height="1" fill="#1734c0"/>
<rect x="12" y="13" width="1" height="1" fill="#476ce1"/>
<rect x="13" y="13" width="1" height="1" fill="#5980ea"/>
<rect x="14" y="13" width="1" height="1" fill="#1c39bf"/>
<rect x="15" y="13" width="1" height="1" fill="#162a87"/>
<rect x="16" y="13" width="1" height="1" fill="#0f1431"/>
<rect x="17" y="13" width="1" height="1" fill="#101114" fill-opacity="0.984"/>
<rect x="18" y="13" width="1" height="1" fill="#111110" fill-opacity="0.98"/>
<rect x="19" y="13" width="1" height="1" fill="#201f1f" fill-opacity="0.992"/>
<rect x="20" y="13" width="1" height="1" fill="#1f1f1f" fill-opacity="0.996"/>
<rect x="21" y="13" width="1" height="1" fill="#1e2032" fill-opacity="0.941"/>
<rect x="22" y="13" width="1" height="1" fill="#0e0e1d" fill-opacity="0.118"/>
<rect x="0" y="14" width="1" height="1" fill="#1b39c1"/>
<rect x="1" y="14" width="1" height="1" fill="#365ad7"/>
<rect x="2" y="14" width="1" height="1" fill="#5d8af0"/>
<rect x="3" y="14" width="1" height="1" fill="#2a4ccf"/>
<rect x="4" y="14" width="1" height="1" fill="#1938c4"/>
<rect x="6" y="14" width="1" height="1" fill="#1634c1" fill-opacity="0.745"/>
<rect x="7" y="14" width="1" height="1" fill="#2f51cf" fill-opacity="0.039"/>
<rect x="8" y="14" width="1" height="1" fill="#ffffff" fill-opacity="0.004"/>
<rect x="9" y="14" width="1" height="1" fill="#d8def6" fill-opacity="0.043"/>
<rect x="10" y="14" width="1" height="1" fill="#1938c3" fill-opacity="0.969"/>
<rect x="11" y="14" width="1" height="1" fill="#1735c1"/>
<rect x="12" y="14" width="1" height="1" fill="#4b76e8"/>
<rect x="13" y="14" width="1" height="1" fill="#77a3fe"/>
<rect x="14" y="14" width="1" height="1" fill="#4476ea"/>
<rect x="15" y="14" width="1" height="1" fill="#284bd0"/>
<rect x="16" y="14" width="1" height="1" fill="#1834b0"/>
<rect x="17" y="14" width="1" height="1" fill="#172468" fill-opacity="0.996"/>
<rect x="18" y="14" width="1" height="1" fill="#10100f" fill-opacity="0.867"/>
<rect x="19" y="14" width="1" height="1" fill="#101011" fill-opacity="0.98"/>
<rect x="20" y="14" width="1" height="1" fill="#1b1b1b" fill-opacity="0.976"/>
<rect x="21" y="14" width="1" height="1" fill="#111328" fill-opacity="0.957"/>
<rect x="22" y="14" width="1" height="1" fill="#474851" fill-opacity="0.345"/>
<rect x="0" y="15" width="1" height="1" fill="#1c3bc5"/>
<rect x="1" y="15" width="1" height="1" fill="#446ae0"/>
<rect x="2" y="15" width="1" height="1" fill="#6995f5"/>
<rect x="3" y="15" width="1" height="1" fill="#3e62da"/>
<rect x="4" y="15" width="1" height="1" fill="#1a39c4" fill-opacity="0.996"/>
<rect x="5" y="15" width="1" height="1" fill="#1b3bc5" fill-opacity="0.827"/>
<rect x="6" y="15" width="1" height="1" fill="#8094e2" fill-opacity="0.039"/>
<rect x="7" y="15" width="1" height="1" fill="#ffffff" fill-opacity="0.071"/>
<rect x="8" y="15" width="1" height="1" fill="#afbaed" fill-opacity="0.145"/>
<rect x="9" y="15" width="1" height="1" fill="#2040c8" fill-opacity="0.945"/>
<rect x="10" y="15" width="1" height="1" fill="#1736c2"/>
<rect x="11" y="15" width="1" height="1" fill="#1f44ce" fill-opacity="0.992"/>
<rect x="12" y="15" width="1" height="1" fill="#6a97f8"/>
<rect x="13" y="15" width="1" height="1" fill="#76a2fd"/>
<rect x="14" y="15" width="1" height="1" fill="#4175e9"/>
<rect x="15" y="15" width="1" height="1" fill="#4973e6"/>
<rect x="16" y="15" width="1" height="1" fill="#2243ce"/>
<rect x="17" y="15" width="1" height="1" fill="#1a3ac5"/>
<rect x="18" y="15" width="1" height="1" fill="#282231" fill-opacity="0.196"/>
<rect x="19" y="15" width="1" height="1" fill="#150f0b" fill-opacity="0.675"/>
<rect x="20" y="15" width="1" height="1" fill="#111015" fill-opacity="0.965"/>
<rect x="21" y="15" width="1" height="1" fill="#151522" fill-opacity="0.98"/>
<rect x="22" y="15" width="1" height="1" fill="#343441" fill-opacity="0.69"/>
<rect x="23" y="15" width="1" height="1" fill="#5a5a62" fill-opacity="0.047"/>
<rect x="0" y="16" width="1" height="1" fill="#1d3dc7"/>
<rect x="1" y="16" width="1" height="1" fill="#3b5fdb"/>
<rect x="2" y="16" width="1" height="1" fill="#5d8af1"/>
<rect x="3" y="16" width="1" height="1" fill="#83a9f9"/>
<rect x="4" y="16" width="1" height="1" fill="#325ad8"/>
<rect x="5" y="16" width="1" height="1" fill="#1c45d0"/>
<rect x="6" y="16" width="1" height="1" fill="#1a45d0" fill-opacity="0.996"/>
<rect x="7" y="16" width="1" height="1" fill="#2446cd" fill-opacity="0.996"/>
<rect x="8" y="16" width="1" height="1" fill="#1b39c4" fill-opacity="0.996"/>
<rect x="9" y="16" width="1" height="1" fill="#1e3ec9" fill-opacity="0.992"/>
<rect x="10" y="16" width="1" height="1" fill="#1943d2" fill-opacity="0.996"/>
<rect x="11" y="16" width="1" height="1" fill="#2258de"/>
<rect x="12" y="16" width="1" height="1" fill="#719efb"/>
<rect x="13" y="16" width="1" height="1" fill="#79a5fe"/>
<rect x="14" y="16" width="1" height="1" fill="#5281ea"/>
<rect x="15" y="16" width="1" height="1" fill="#4875e9"/>
<rect x="16" y="16" width="1" height="1" fill="#294bd2"/>
<rect x="17" y="16" width="1" height="1" fill="#1c3bc7"/>
<rect x="18" y="16" width="1" height="1" fill="#2546d0" fill-opacity="0.251"/>
<rect x="19" y="16" width="1" height="1" fill="#b45609" fill-opacity="0.012"/>
<rect x="20" y="16" width="1" height="1" fill="#1e1b1c" fill-opacity="0.376"/>
<rect x="21" y="16" width="1" height="1" fill="#171518" fill-opacity="0.937"/>
<rect x="22" y="16" width="1" height="1" fill="#292937" fill-opacity="0.886"/>
<rect x="23" y="16" width="1" height="1" fill="#2b2b31" fill-opacity="0.2"/>
<rect x="24" y="16" width="1" height="1" fill="#121116" fill-opacity="0.016"/>
<rect x="0" y="17" width="1" height="1" fill="#2341c8"/>
<rect x="1" y="17" width="1" height="1" fill="#2749d1"/>
<rect x="2" y="17" width="1" height="1" fill="#456be2"/>
<rect x="3" y="17" width="1" height="1" fill="#6691f5"/>
<rect x="4" y="17" width="1" height="1" fill="#77a0f8"/>
<rect x="5" y="17" width="1" height="1" fill="#2b59db"/>
<rect x="6" y="17" width="1" height="1" fill="#1b47d1"/>
<rect x="7" y="17" width="1" height="1" fill="#3e65de"/>
<rect x="8" y="17" width="1" height="1" fill="#618af1"/>
<rect x="9" y="17" width="1" height="1" fill="#4269df"/>
<rect x="10" y="17" width="1" height="1" fill="#1a45d3"/>
<rect x="11" y="17" width="1" height="1" fill="#214ed7"/>
<rect x="12" y="17" width="1" height="1" fill="#81a8fb"/>
<rect x="13" y="17" width="1" height="1" fill="#a2c0fe"/>
<rect x="14" y="17" width="1" height="1" fill="#6a95f4"/>
<rect x="15" y="17" width="1" height="1" fill="#3f70e6"/>
<rect x="16" y="17" width="1" height="1" fill="#2446d0"/>
<rect x="17" y="17" width="1" height="1" fill="#2141cd"/>
<rect x="18" y="17" width="1" height="1" fill="#1a39c5"/>
<rect x="20" y="17" width="1" height="1" fill="#ebdbcf" fill-opacity="0.012"/>
<rect x="21" y="17" width="1" height="1" fill="#5f5e63" fill-opacity="0.384"/>
<rect x="22" y="17" width="1" height="1" fill="#222127" fill-opacity="0.839"/>
<rect x="23" y="17" width="1" height="1" fill="#6c6a6d" fill-opacity="0.545"/>
<rect x="24" y="17" width="1" height="1" fill="#121116" fill-opacity="0.031"/>
<rect x="0" y="18" width="1" height="1" fill="#1f3dc5" fill-opacity="0.843"/>
<rect x="1" y="18" width="1" height="1" fill="#1f3fc9" fill-opacity="0.996"/>
<rect x="2" y="18" width="1" height="1" fill="#2344cf"/>
<rect x="3" y="18" width="1" height="1" fill="#2448d2"/>
<rect x="4" y="18" width="1" height="1" fill="#446ee3"/>
<rect x="5" y="18" width="1" height="1" fill="#264cd1"/>
<rect x="6" y="18" width="1" height="1" fill="#1948d3"/>
<rect x="7" y="18" width="1" height="1" fill="#6995f7"/>
<rect x="8" y="18" width="1" height="1" fill="#7aa6ff"/>
<rect x="9" y="18" width="1" height="1" fill="#739efb"/>
<rect x="10" y="18" width="1" height="1" fill="#436de5"/>
<rect x="11" y="18" width="1" height="1" fill="#1e47d3"/>
<rect x="12" y="18" width="1" height="1" fill="#749af5"/>
<rect x="13" y="18" width="1" height="1" fill="#709cfb"/>
<rect x="14" y="18" width="1" height="1" fill="#6392f6"/>
<rect x="15" y="18" width="1" height="1" fill="#3367e4"/>
<rect x="16" y="18" width="1" height="1" fill="#284dd2"/>
<rect x="17" y="18" width="1" height="1" fill="#2344cf"/>
<rect x="18" y="18" width="1" height="1" fill="#1b3ac6" fill-opacity="0.992"/>
<rect x="19" y="18" width="1" height="1" fill="#1b3bc5" fill-opacity="0.094"/>
<rect x="20" y="18" width="1" height="1" fill="#ffffff" fill-opacity="0.02"/>
<rect x="21" y="18" width="1" height="1" fill="#fefefe" fill-opacity="0.02"/>
<rect x="22" y="18" width="1" height="1" fill="#b4b4b9" fill-opacity="0.184"/>
<rect x="23" y="18" width="1" height="1" fill="#46454a" fill-opacity="0.69"/>
<rect x="24" y="18" width="1" height="1" fill="#535256" fill-opacity="0.212"/>
<rect x="0" y="19" width="1" height="1" fill="#ffffff" fill-opacity="0.004"/>
<rect x="1" y="19" width="1" height="1" fill="#1c3bc4" fill-opacity="0.922"/>
<rect x="2" y="19" width="1" height="1" fill="#2747cd"/>
<rect x="3" y="19" width="1" height="1" fill="#2244ce"/>
<rect x="4" y="19" width="1" height="1" fill="#2248d2"/>
<rect x="5" y="19" width="1" height="1" fill="#244bd1"/>
<rect x="6" y="19" width="1" height="1" fill="#234cd2"/>
<rect x="7" y="19" width="1" height="1" fill="#3c60d9"/>
<rect x="8" y="19" width="1" height="1" fill="#4d73e4"/>
<rect x="9" y="19" width="1" height="1" fill="#476de1"/>
<rect x="10" y="19" width="1" height="1" fill="#2b4ed2"/>
<rect x="11" y="19" width="1" height="1" fill="#2047d1"/>
<rect x="12" y="19" width="1" height="1" fill="#2c51d3"/>
<rect x="13" y="19" width="1" height="1" fill="#375bd7"/>
<rect x="14" y="19" width="1" height="1" fill="#385cd8"/>
<rect x="15" y="19" width="1" height="1" fill="#335bd9"/>
<rect x="16" y="19" width="1" height="1" fill="#395dd8"/>
<rect x="17" y="19" width="1" height="1" fill="#2647cf"/>
<rect x="18" y="19" width="1" height="1" fill="#2242cc" fill-opacity="0.996"/>
<rect x="19" y="19" width="1" height="1" fill="#1a39c5" fill-opacity="0.992"/>
<rect x="21" y="19" width="1" height="1" fill="#fdfdfd" fill-opacity="0.008"/>
<rect x="23" y="19" width="1" height="1" fill="#504f53" fill-opacity="0.071"/>
<rect x="24" y="19" width="1" height="1" fill="#a8a7a9" fill-opacity="0.224"/>
</svg>