<?xml version="1.0" encoding="UTF-8" standalone="no"?>
<svg xmlns="http://www.w3.org/2000/svg" width="26" height="21" shape-rendering="crispEdges">
<rect x="18" y="0" width="1" height="1" fill="#494744" fill-opacity="0.129"/>
<rect x="19" y="0" width="1" height="1" fill="#0d0c0b" fill-opacity="0.541"/>
<rect x="20" y="0" width="1" height="1" fill="#11100f" fill-opacity="0.898"/>
<rect x="21" y="0" width="1" height="1" fill="#141312" fill-opacity="0.988"/>
<rect x="22" y="0" width="1" height="1" fill="#151413" fill-opacity="0.996"/>
<rect x="23" y="0" width="1" height="1" fill="#161514" fill-opacity="0.996"/>
<rect x="24" y="0" width="1" height="1" fill="#161514" fill-opacity="0.878"/>
<rect x="15" y="1" width="1" height="1" fill="#8e8c8a" fill-opacity="0.106"/>
<rect x="16" y="1" width="1" height="1" fill="#0c0c0c" fill-opacity="0.502"/>
<rect x="17" y="1" width="1" height="1" fill="#040404" fill-opacity="0.675"/>
<rect x="18" y="1" width="1" height="1" fill="#0d0c0b" fill-opacity="0.757"/>
<rect x="19" y="1" width="1" height="1" fill="#171716" fill-opacity="0.996"/>
<rect x="20" y="1" width="1" height="1" fill="#181716"/>
<rect x="21" y="1" width="1" height="1" fill="#131312"/>
<rect x="22" y="1" width="1" height="1" fill="#141312" fill-opacity="0.78"/>
<rect x="23" y="1" width="1" height="1" fill="#21201e" fill-opacity="0.592"/>
<rect x="24" y="1" width="1" height="1" fill="#161514" fill-opacity="0.047"/>
<rect x="4" y="2" width="1" height="1" fill="#ffffff" fill-opacity="0.024"/>
<rect x="5" y="2" width="1" height="1" fill="#ffffff" fill-opacity="0.027"/>
<rect x="13" y="2" width="1" height="1" fill="#484543" fill-opacity="0.322"/>
<rect x="14" y="2" width="1" height="1" fill="#050505" fill-opacity="0.671"/>
<rect x="15" y="2" width="1" height="1" fill="#050505" fill-opacity="0.749"/>
<rect x="16" y="2" width="1" height="1" fill="#0c0b0a" fill-opacity="0.988"/>
<rect x="17" y="2" width="1" height="1" fill="#121111"/>
<rect x="18" y="2" width="1" height="1" fill="#1a1a19"/>
<rect x="19" y="2" width="1" height="1" fill="#1b1b1a"/>
<rect x="20" y="2" width="1" height="1" fill="#161615"/>
<rect x="21" y="2" width="1" height="1" fill="#201c17" fill-opacity="0.733"/>
<rect x="22" y="2" width="1" height="1" fill="#c6c6c6" fill-opacity="0.043"/>
<rect x="4" y="3" width="1" height="1" fill="#ffffff" fill-opacity="0.004"/>
<rect x="10" y="3" width="1" height="1" fill="#cac2bd" fill-opacity="0.024"/>
<rect x="11" y="3" width="1" height="1" fill="#373634" fill-opacity="0.435"/>
<rect x="12" y="3" width="1" height="1" fill="#090909" fill-opacity="0.718"/>
<rect x="13" y="3" width="1" height="1" fill="#0c0c0c" fill-opacity="0.761"/>
<rect x="14" y="3" width="1" height="1" fill="#131311"/>
<rect x="15" y="3" width="1" height="1" fill="#141313"/>
<rect x="16" y="3" width="1" height="1" fill="#161615"/>
<rect x="17" y="3" width="1" height="1" fill="#1d1d1c"/>
<rect x="18" y="3" width="1" height="1" fill="#1f1f1e"/>
<rect x="19" y="3" width="1" height="1" fill="#1d1c1b" fill-opacity="0.996"/>
<rect x="20" y="3" width="1" height="1" fill="#252428" fill-opacity="0.737"/>
<rect x="21" y="3" width="1" height="1" fill="#595a68" fill-opacity="0.302"/>
<rect x="22" y="3" width="1" height="1" fill="#080a29" fill-opacity="0.004"/>
<rect x="9" y="4" width="1" height="1" fill="#2e261f" fill-opacity="0.396"/>
<rect x="10" y="4" width="1" height="1" fill="#100e0c" fill-opacity="0.631"/>
<rect x="11" y="4" width="1" height="1" fill="#141413" fill-opacity="0.996"/>
<rect x="12" y="4" width="1" height="1" fill="#1a1a18"/>
<rect x="13" y="4" width="1" height="1" fill="#161414"/>
<rect x="14" y="4" width="1" height="1" fill="#151514"/>
<rect x="15" y="4" width="1" height="1" fill="#1f1f1e"/>
<rect x="16" y="4" width="1" height="1" fill="#212120"/>
<rect x="17" y="4" width="1" height="1" fill="#1f1f1e"/>
<rect x="18" y="4" width="1" height="1" fill="#1e1e1c"/>
<rect x="19" y="4" width="1" height="1" fill="#15141c" fill-opacity="0.992"/>
<rect x="20" y="4" width="1" height="1" fill="#383a4c" fill-opacity="0.502"/>
<rect x="21" y="4" width="1" height="1" fill="#080a29" fill-opacity="0.016"/>
<rect x="8" y="5" width="1" height="1" fill="#544f4a" fill-opacity="0.369"/>
<rect x="9" y="5" width="1" height="1" fill="#1c1620" fill-opacity="0.812"/>
<rect x="10" y="5" width="1" height="1" fill="#13101e" fill-opacity="0.902"/>
<rect x="11" y="5" width="1" height="1" fill="#0b0b1b"/>
<rect x="12" y="5" width="1" height="1" fill="#121018"/>
<rect x="13" y="5" width="1" height="1" fill="#131215"/>
<rect x="14" y="5" width="1" height="1" fill="#171618"/>
<rect x="15" y="5" width="1" height="1" fill="#1f1d1d"/>
<rect x="16" y="5" width="1" height="1" fill="#1f1f1d"/>
<rect x="17" y="5" width="1" height="1" fill="#1e1e1d"/>
<rect x="18" y="5" width="1" height="1" fill="#1a191a"/>
<rect x="19" y="5" width="1" height="1" fill="#0f1025" fill-opacity="0.996"/>
<rect x="20" y="5" width="1" height="1" fill="#46485c" fill-opacity="0.243"/>
<rect x="9" y="6" width="1" height="1" fill="#080a29" fill-opacity="0.118"/>
<rect x="10" y="6" width="1" height="1" fill="#1b1c38" fill-opacity="0.337"/>
<rect x="11" y="6" width="1" height="1" fill="#181a36" fill-opacity="0.545"/>
<rect x="12" y="6" width="1" height="1" fill="#1e2035" fill-opacity="0.761"/>
<rect x="13" y="6" width="1" height="1" fill="#0e101e" fill-opacity="0.855"/>
<rect x="14" y="6" width="1" height="1" fill="#111119"/>
<rect x="15" y="6" width="1" height="1" fill="#18181b"/>
<rect x="16" y="6" width="1" height="1" fill="#1a1a19"/>
<rect x="17" y="6" width="1" height="1" fill="#1e1d1c"/>
<rect x="18" y="6" width="1" height="1" fill="#1b1b1b"/>
<rect x="19" y="6" width="1" height="1" fill="#0f1026"/>
<rect x="20" y="6" width="1" height="1" fill="#1a1b2f" fill-opacity="0.82"/>
<rect x="21" y="6" width="1" height="1" fill="#7e7e8a" fill-opacity="0.078"/>
<rect x="12" y="7" width="1" height="1" fill="#080a29" fill-opacity="0.027"/>
<rect x="13" y="7" width="1" height="1" fill="#161732" fill-opacity="0.329"/>
<rect x="14" y="7" width="1" height="1" fill="#181825" fill-opacity="0.851"/>
<rect x="15" y="7" width="1" height="1" fill="#131318" fill-opacity="0.996"/>
<rect x="16" y="7" width="1" height="1" fill="#191919"/>
<rect x="17" y="7" width="1" height="1" fill="#1e1e1d"/>
<rect x="18" y="7" width="1" height="1" fill="#1e1e1d"/>
<rect x="19" y="7" width="1" height="1" fill="#16171b"/>
<rect x="20" y="7" width="1" height="1" fill="#0c0e25" fill-opacity="0.996"/>
<rect x="21" y="7" width="1" height="1" fill="#090a1a" fill-opacity="0.855"/>
<rect x="22" y="7" width="1" height="1" fill="#8f8f94" fill-opacity="0.165"/>
<rect x="4" y="8" width="1" height="1" fill="#e8c4ba" fill-opacity="0.004"/>
<rect x="14" y="8" width="1" height="1" fill="#161027" fill-opacity="0.09"/>
<rect x="15" y="8" width="1" height="1" fill="#18151b" fill-opacity="0.82"/>
<rect x="16" y="8" width="1" height="1" fill="#151315"/>
<rect x="17" y="8" width="1" height="1" fill="#1a1918"/>
<rect x="18" y="8" width="1" height="1" fill="#1e1e1d"/>
<rect x="19" y="8" width="1" height="1" fill="#1b1b19"/>
<rect x="20" y="8" width="1" height="1" fill="#16171c"/>
<rect x="21" y="8" width="1" height="1" fill="#0c0d1b" fill-opacity="0.988"/>
<rect x="22" y="8" width="1" height="1" fill="#161518" fill-opacity="0.725"/>
<rect x="23" y="8" width="1" height="1" fill="#535353" fill-opacity="0.424"/>
<rect x="3" y="9" width="1" height="1" fill="#0406cb" fill-opacity="0.498"/>
<rect x="4" y="9" width="1" height="1" fill="#0406cb" fill-opacity="0.494"/>
<rect x="8" y="9" width="1" height="1" fill="#0c15d7" fill-opacity="0.145"/>
<rect x="9" y="9" width="1" height="1" fill="#070dd8" fill-opacity="0.6"/>
<rect x="10" y="9" width="1" height="1" fill="#0509d1" fill-opacity="0.925"/>
<rect x="11" y="9" width="1" height="1" fill="#0d10c0" fill-opacity="0.941"/>
<rect x="12" y="9" width="1" height="1" fill="#1013b9" fill-opacity="0.929"/>
<rect x="13" y="9" width="1" height="1" fill="#0c0fc3" fill-opacity="0.914"/>
<rect x="14" y="9" width="1" height="1" fill="#050bd8" fill-opacity="0.839"/>
<rect x="15" y="9" width="1" height="1" fill="#080ed0" fill-opacity="0.729"/>
<rect x="16" y="9" width="1" height="1" fill="#151417" fill-opacity="0.996"/>
<rect x="17" y="9" width="1" height="1" fill="#141314"/>
<rect x="18" y="9" width="1" height="1" fill="#1d1c1a"/>
<rect x="19" y="9" width="1" height="1" fill="#1b1a19"/>
<rect x="20" y="9" width="1" height="1" fill="#1d1d1c"/>
<rect x="21" y="9" width="1" height="1" fill="#1c1b1a"/>
<rect x="22" y="9" width="1" height="1" fill="#171616"/>
<rect x="23" y="9" width="1" height="1" fill="#111011" fill-opacity="0.804"/>
<rect x="24" y="9" width="1" height="1" fill="#282727" fill-opacity="0.439"/>
<rect x="1" y="10" width="1" height="1" fill="#0205cf" fill-opacity="0.298"/>
<rect x="2" y="10" width="1" height="1" fill="#0306cd" fill-opacity="0.894"/>
<rect x="3" y="10" width="1" height="1" fill="#0c0ebb" fill-opacity="0.976"/>
<rect x="4" y="10" width="1" height="1" fill="#0a0dbf"/>
<rect x="5" y="10" width="1" height="1" fill="#0306cb" fill-opacity="0.804"/>
<rect x="6" y="10" width="1" height="1" fill="#0105ce" fill-opacity="0.016"/>
<rect x="9" y="10" width="1" height="1" fill="#0c15d4" fill-opacity="0.09"/>
<rect x="10" y="10" width="1" height="1" fill="#1215b4" fill-opacity="0.89"/>
<rect x="11" y="10" width="1" height="1" fill="#1d1da0"/>
<rect x="12" y="10" width="1" height="1" fill="#1b1ca1"/>
<rect x="13" y="10" width="1" height="1" fill="#191aa4"/>
<rect x="14" y="10" width="1" height="1" fill="#0d0eba"/>
<rect x="15" y="10" width="1" height="1" fill="#0104c8"/>
<rect x="16" y="10" width="1" height="1" fill="#11102c"/>
<rect x="17" y="10" width="1" height="1" fill="#171514"/>
<rect x="18" y="10" width="1" height="1" fill="#1b1a1a"/>
<rect x="19" y="10" width="1" height="1" fill="#201f1e" fill-opacity="0.996"/>
<rect x="20" y="10" width="1" height="1" fill="#1d1d1c" fill-opacity="0.992"/>
<rect x="21" y="10" width="1" height="1" fill="#1e1e1c" fill-opacity="0.792"/>
<rect x="22" y="10" width="1" height="1" fill="#201f21" fill-opacity="0.816"/>
<rect x="23" y="10" width="1" height="1" fill="#474649" fill-opacity="0.494"/>
<rect x="24" y="10" width="1" height="1" fill="#292827" fill-opacity="0.141"/>
<rect x="1" y="11" width="1" height="1" fill="#0307ca" fill-opacity="0.984"/>
<rect x="2" y="11" width="1" height="1" fill="#1617ab"/>
<rect x="3" y="11" width="1" height="1" fill="#1c1ca1"/>
<rect x="4" y="11" width="1" height="1" fill="#1314b1"/>
<rect x="5" y="11" width="1" height="1" fill="#060ac4"/>
<rect x="6" y="11" width="1" height="1" fill="#0206cc" fill-opacity="0.682"/>
<rect x="10" y="11" width="1" height="1" fill="#080fce" fill-opacity="0.216"/>
<rect x="11" y="11" width="1" height="1" fill="#0508bf" fill-opacity="0.98"/>
<rect x="12" y="11" width="1" height="1" fill="#161cb6"/>
<rect x="13" y="11" width="1" height="1" fill="#131cc7"/>
<rect x="14" y="11" width="1" height="1" fill="#0509c6"/>
<rect x="15" y="11" width="1" height="1" fill="#030698"/>
<rect x="16" y="11" width="1" height="1" fill="#0f0e19"/>
<rect x="17" y="11" width="1" height="1" fill="#181615"/>
<rect x="18" y="11" width="1" height="1" fill="#1c1b1b"/>
<rect x="19" y="11" width="1" height="1" fill="#201f1e" fill-opacity="0.996"/>
<rect x="20" y="11" width="1" height="1" fill="#1e1e1d" fill-opacity="0.996"/>
<rect x="21" y="11" width="1" height="1" fill="#252526" fill-opacity="0.784"/>
<rect x="22" y="11" width="1" height="1" fill="#121116" fill-opacity="0.275"/>
<rect x="23" y="11" width="1" height="1" fill="#121116" fill-opacity="0.02"/>
<rect x="0" y="12" width="1" height="1" fill="#ae5b07" fill-opacity="0.004"/>
<rect x="1" y="12" width="1" height="1" fill="#0e0ebd"/>
<rect x="2" y="12" width="1" height="1" fill="#1719b5"/>
<rect x="3" y="12" width="1" height="1" fill="#0f16cc"/>
<rect x="4" y="12" width="1" height="1" fill="#080dc4" fill-opacity="0.78"/>
<rect x="5" y="12" width="1" height="1" fill="#0f13bc" fill-opacity="0.012"/>
<rect x="6" y="12" width="1" height="1" fill="#0105cd" fill-opacity="0.882"/>
<rect x="7" y="12" width="1" height="1" fill="#1c1ca1" fill-opacity="0.004"/>
<rect x="11" y="12" width="1" height="1" fill="#080bc0" fill-opacity="0.91"/>
<rect x="12" y="12" width="1" height="1" fill="#191dab"/>
<rect x="13" y="12" width="1" height="1" fill="#1723c6"/>
<rect x="14" y="12" width="1" height="1" fill="#090d5f"/>
<rect x="15" y="12" width="1" height="1" fill="#08091e"/>
<rect x="16" y="12" width="1" height="1" fill="#121112"/>
<rect x="17" y="12" width="1" height="1" fill="#131212"/>
<rect x="18" y="12" width="1" height="1" fill="#1e1d1d"/>
<rect x="19" y="12" width="1" height="1" fill="#1f1e1c" fill-opacity="0.996"/>
<rect x="20" y="12" width="1" height="1" fill="#20201f" fill-opacity="0.996"/>
<rect x="21" y="12" width="1" height="1" fill="#24232d" fill-opacity="0.773"/>
<rect x="22" y="12" width="1" height="1" fill="#111018" fill-opacity="0.145"/>
<rect x="23" y="12" width="1" height="1" fill="#121116" fill-opacity="0.004"/>
<rect x="0" y="13" width="1" height="1" fill="#0305ca"/>
<rect x="1" y="13" width="1" height="1" fill="#1113b9"/>
<rect x="2" y="13" width="1" height="1" fill="#3238d1"/>
<rect x="3" y="13" width="1" height="1" fill="#2126c9"/>
<rect x="4" y="13" width="1" height="1" fill="#0b11c3" fill-opacity="0.129"/>
<rect x="5" y="13" width="1" height="1" fill="#1719a4"/>
<rect x="6" y="13" width="1" height="1" fill="#1719a4"/>
<rect x="10" y="13" width="1" height="1" fill="#080fc3" fill-opacity="0.012"/>
<rect x="11" y="13" width="1" height="1" fill="#0e0fb7" fill-opacity="0.969"/>
<rect x="12" y="13" width="1" height="1" fill="#1a1da9"/>
<rect x="13" y="13" width="1" height="1" fill="#1826d5"/>
<rect x="14" y="13" width="1" height="1" fill="#0f1cd0"/>
<rect x="15" y="13" width="1" height="1" fill="#04068e"/>
<rect x="16" y="13" width="1" height="1" fill="#0a092e"/>
<rect x="17" y="13" width="1" height="1" fill="#101010" fill-opacity="0.961"/>
<rect x="18" y="13" width="1" height="1" fill="#111110" fill-opacity="0.98"/>
<rect x="19" y="13" width="1" height="1" fill="#201f1f" fill-opacity="0.992"/>
<rect x="20" y="13" width="1" height="1" fill="#1f1f1f" fill-opacity="0.996"/>
<rect x="21" y="13" width="1" height="1" fill="#1e2032" fill-opacity="0.941"/>
<rect x="22" y="13" width="1" height="1" fill="#0e0e1d" fill-opacity="0.118"/>
<rect x="0" y="14" width="1" height="1" fill="#0708be"/>
<rect x="1" y="14" width="1" height="1" fill="#2124bf"/>
<rect x="2" y="14" width="1" height="1" fill="#4f54dc"/>
<rect x="3" y="14" width="1" height="1" fill="#1c21c8"/>
<rect x="4" y="14" width="1" height="1" fill="#1218b5" fill-opacity="0.812"/>
<rect x="5" y="14" width="1" height="1" fill="#1013b6" fill-opacity="0.055"/>
<rect x="10" y="14" width="1" height="1" fill="#0409c8" fill-opacity="0.627"/>
<rect x="11" y="14" width="1" height="1" fill="#1719a6" fill-opacity="0.988"/>
<rect x="12" y="14" width="1" height="1" fill="#191db1"/>
<rect x="13" y="14" width="1" height="1" fill="#1726d6"/>
<rect x="14" y="14" width="1" height="1" fill="#0c19d7"/>
<rect x="15" y="14" width="1" height="1" fill="#0004d0"/>
<rect x="16" y="14" width="1" height="1" fill="#0104aa"/>
<rect x="17" y="14" width="1" height="1" fill="#130e1a" fill-opacity="0.545"/>
<rect x="18" y="14" width="1" height="1" fill="#10100f" fill-opacity="0.867"/>
<rect x="19" y="14" width="1" height="1" fill="#101011" fill-opacity="0.98"/>
<rect x="20" y="14" width="1" height="1" fill="#1b1b1b" fill-opacity="0.976"/>
<rect x="21" y="14" width="1" height="1" fill="#111328" fill-opacity="0.957"/>
<rect x="22" y="14" width="1" height="1" fill="#474851" fill-opacity="0.345"/>
<rect x="0" y="15" width="1" height="1" fill="#0606bb"/>
<rect x="1" y="15" width="1" height="1" fill="#2126c1"/>
<rect x="2" y="15" width="1" height="1" fill="#4751dc"/>
<rect x="3" y="15" width="1" height="1" fill="#5d63d5"/>
<rect x="4" y="15" width="1" height="1" fill="#171bb1" fill-opacity="0.976"/>
<rect x="5" y="15" width="1" height="1" fill="#1519b2" fill-opacity="0.773"/>
<rect x="6" y="15" width="1" height="1" fill="#0e13b9" fill-opacity="0.384"/>
<rect x="7" y="15" width="1" height="1" fill="#090fc2" fill-opacity="0.153"/>
<rect x="8" y="15" width="1" height="1" fill="#070fc3" fill-opacity="0.169"/>
<rect x="9" y="15" width="1" height="1" fill="#0308bc" fill-opacity="0.737"/>
<rect x="10" y="15" width="1" height="1" fill="#0f13b1" fill-opacity="0.976"/>
<rect x="11" y="15" width="1" height="1" fill="#1c1da0"/>
<rect x="12" y="15" width="1" height="1" fill="#1925c8"/>
<rect x="13" y="15" width="1" height="1" fill="#2031d9"/>
<rect x="14" y="15" width="1" height="1" fill="#192ada"/>
<rect x="15" y="15" width="1" height="1" fill="#0005d1"/>
<rect x="16" y="15" width="1" height="1" fill="#0003c6"/>
<rect x="17" y="15" width="1" height="1" fill="#060dc1" fill-opacity="0.357"/>
<rect x="18" y="15" width="1" height="1" fill="#29190a" fill-opacity="0.157"/>
<rect x="19" y="15" width="1" height="1" fill="#150f0b" fill-opacity="0.675"/>
<rect x="20" y="15" width="1" height="1" fill="#111015" fill-opacity="0.965"/>
<rect x="21" y="15" width="1" height="1" fill="#151522" fill-opacity="0.98"/>
<rect x="22" y="15" width="1" height="1" fill="#343441" fill-opacity="0.69"/>
<rect x="23" y="15" width="1" height="1" fill="#5a5a62" fill-opacity="0.047"/>
<rect x="0" y="16" width="1" height="1" fill="#0b0cb7"/>
<rect x="1" y="16" width="1" height="1" fill="#1318b4"/>
<rect x="2" y="16" width="1" height="1" fill="#202ed5"/>
<rect x="3" y="16" width="1" height="1" fill="#7781e3"/>
<rect x="4" y="16" width="1" height="1" fill="#2f37c7"/>
<rect x="5" y="16" width="1" height="1" fill="#171aac"/>
<rect x="6" y="16" width="1" height="1" fill="#1a1ba4" fill-opacity="0.996"/>
<rect x="7" y="16" width="1" height="1" fill="#181aa6" fill-opacity="0.996"/>
<rect x="8" y="16" width="1" height="1" fill="#171aaa" fill-opacity="0.992"/>
<rect x="9" y="16" width="1" height="1" fill="#171aaa"/>
<rect x="10" y="16" width="1" height="1" fill="#191ca7"/>
<rect x="11" y="16" width="1" height="1" fill="#1d26be"/>
<rect x="12" y="16" width="1" height="1" fill="#6a75e4"/>
<rect x="13" y="16" width="1" height="1" fill="#838eeb"/>
<rect x="14" y="16" width="1" height="1" fill="#2437dd"/>
<rect x="15" y="16" width="1" height="1" fill="#060dcd"/>
<rect x="16" y="16" width="1" height="1" fill="#090bc0"/>
<rect x="17" y="16" width="1" height="1" fill="#0105b8" fill-opacity="0.945"/>
<rect x="19" y="16" width="1" height="1" fill="#b45609" fill-opacity="0.012"/>
<rect x="20" y="16" width="1" height="1" fill="#1e1b1c" fill-opacity="0.376"/>
<rect x="21" y="16" width="1" height="1" fill="#171518" fill-opacity="0.937"/>
<rect x="22" y="16" width="1" height="1" fill="#292937" fill-opacity="0.886"/>
<rect x="23" y="16" width="1" height="1" fill="#2b2b31" fill-opacity="0.2"/>
<rect x="24" y="16" width="1" height="1" fill="#121116" fill-opacity="0.016"/>
<rect x="0" y="17" width="1" height="1" fill="#1012bd"/>
<rect x="1" y="17" width="1" height="1" fill="#1415aa"/>
<rect x="2" y="17" width="1" height="1" fill="#121dd4"/>
<rect x="3" y="17" width="1" height="1" fill="#1826da"/>
<rect x="4" y="17" width="1" height="1" fill="#1422d6"/>
<rect x="5" y="17" width="1" height="1" fill="#0e14be"/>
<rect x="6" y="17" width="1" height="1" fill="#1719ad"/>
<rect x="7" y="17" width="1" height="1" fill="#1b26ca"/>
<rect x="8" y="17" width="1" height="1" fill="#3443d5"/>
<rect x="9" y="17" width="1" height="1" fill="#2635d5"/>
<rect x="10" y="17" width="1" height="1" fill="#0f16bc"/>
<rect x="11" y="17" width="1" height="1" fill="#161bb4"/>
<rect x="12" y="17" width="1" height="1" fill="#3942c9"/>
<rect x="13" y="17" width="1" height="1" fill="#3344e0"/>
<rect x="14" y="17" width="1" height="1" fill="#2c3ee0"/>
<rect x="15" y="17" width="1" height="1" fill="#121fd3"/>
<rect x="16" y="17" width="1" height="1" fill="#1215b4"/>
<rect x="17" y="17" width="1" height="1" fill="#0104b8" fill-opacity="0.996"/>
<rect x="20" y="17" width="1" height="1" fill="#ebdbcf" fill-opacity="0.012"/>
<rect x="21" y="17" width="1" height="1" fill="#5f5e63" fill-opacity="0.384"/>
<rect x="22" y="17" width="1" height="1" fill="#222127" fill-opacity="0.839"/>
<rect x="23" y="17" width="1" height="1" fill="#6c6a6d" fill-opacity="0.545"/>
<rect x="24" y="17" width="1" height="1" fill="#121116" fill-opacity="0.031"/>
<rect x="0" y="18" width="1" height="1" fill="#1117ca" fill-opacity="0.431"/>
<rect x="1" y="18" width="1" height="1" fill="#1e1e9d"/>
<rect x="2" y="18" width="1" height="1" fill="#060bbe"/>
<rect x="3" y="18" width="1" height="1" fill="#030bd4"/>
<rect x="4" y="18" width="1" height="1" fill="#0b0ebe"/>
<rect x="5" y="18" width="1" height="1" fill="#1617ac"/>
<rect x="6" y="18" width="1" height="1" fill="#1619b0"/>
<rect x="7" y="18" width="1" height="1" fill="#1b29d9"/>
<rect x="8" y="18" width="1" height="1" fill="#3e51e3"/>
<rect x="9" y="18" width="1" height="1" fill="#2d3fe0"/>
<rect x="10" y="18" width="1" height="1" fill="#111ac5"/>
<rect x="11" y="18" width="1" height="1" fill="#1317b4"/>
<rect x="12" y="18" width="1" height="1" fill="#212ed0"/>
<rect x="13" y="18" width="1" height="1" fill="#2b3cdf"/>
<rect x="14" y="18" width="1" height="1" fill="#293be0"/>
<rect x="15" y="18" width="1" height="1" fill="#1c2adc"/>
<rect x="16" y="18" width="1" height="1" fill="#191fb8"/>
<rect x="17" y="18" width="1" height="1" fill="#0508b7" fill-opacity="0.996"/>
<rect x="18" y="18" width="1" height="1" fill="#0207b5" fill-opacity="0.737"/>
<rect x="20" y="18" width="1" height="1" fill="#ffffff" fill-opacity="0.02"/>
<rect x="21" y="18" width="1" height="1" fill="#fefefe" fill-opacity="0.02"/>
<rect x="22" y="18" width="1" height="1" fill="#b4b4b9" fill-opacity="0.184"/>
<rect x="23" y="18" width="1" height="1" fill="#46454a" fill-opacity="0.69"/>
<rect x="24" y="18" width="1" height="1" fill="#535256" fill-opacity="0.212"/>
<rect x="0" y="19" width="1" height="1" fill="#ffffff" fill-opacity="0.004"/>
<rect x="1" y="19" width="1" height="1" fill="#1317b5" fill-opacity="0.749"/>
<rect x="2" y="19" width="1" height="1" fill="#1617a6"/>
<rect x="3" y="19" width="1" height="1" fill="#1111aa"/>
<rect x="4" y="19" width="1" height="1" fill="#1516a7"/>
<rect x="5" y="19" width="1" height="1" fill="#1515a8"/>
<rect x="6" y="19" width="1" height="1" fill="#1213af"/>
<rect x="7" y="19" width="1" height="1" fill="#1116b5"/>
<rect x="8" y="19" width="1" height="1" fill="#1418af"/>
<rect x="9" y="19" width="1" height="1" fill="#1315ad"/>
<rect x="10" y="19" width="1" height="1" fill="#1314a8"/>
<rect x="11" y="19" width="1" height="1" fill="#1718a4"/>
<rect x="12" y="19" width="1" height="1" fill="#1516a6"/>
<rect x="13" y="19" width="1" height="1" fill="#1315a8"/>
<rect x="14" y="19" width="1" height="1" fill="#1314a8"/>
<rect x="15" y="19" width="1" height="1" fill="#1112a9"/>
<rect x="16" y="19" width="1" height="1" fill="#0e0fae"/>
<rect x="17" y="19" width="1" height="1" fill="#0407b7"/>
<rect x="18" y="19" width="1" height="1" fill="#0002b5"/>
<rect x="21" y="19" width="1" height="1" fill="#fdfdfd" fill-opacity="0.008"/>
<rect x="23" y="19" width="1" height="1" fill="#504f53" fill-opacity="0.071"/>
<rect x="24" y="19" width="1" height="1" fill="#a8a7a9" fill-opacity="0.224"/>
</svg>