<?xml version="1.0" encoding="UTF-8" standalone="no"?>
<svg xmlns="http://www.w3.org/2000/svg" width="26" height="21" shape-rendering="crispEdges">
<rect x="18" y="0" width="1" height="1" fill="#494744" fill-opacity="0.129"/>
<rect x="19" y="0" width="1" height="1" fill="#0d0c0b" fill-opacity="0.541"/>
<rect x="20" y="0" width="1" height="1" fill="#11100f" fill-opacity="0.898"/>
<rect x="21" y="0" width="1" height="1" fill="#141312" fill-opacity="0.988"/>
<rect x="22" y="0" width="1" height="1" fill="#151413" fill-opacity="0.996"/>
<rect x="23" y="0" width="1" height="1" fill="#161514" fill-opacity="0.996"/>
<rect x="24" y="0" width="1" height="1" fill="#161514" fill-opacity="0.878"/>
<rect x="15" y="1" width="1" height="1" fill="#8e8c8a" fill-opacity="0.106"/>
<rect x="16" y="1" width="1" height="1" fill="#0c0c0c" fill-opacity="0.502"/>
<rect x="17" y="1" width="1" height="1" fill="#040404" fill-opacity="0.675"/>
<rect x="18" y="1" width="1" height="1" fill="#0d0c0b" fill-opacity="0.757"/>
<rect x="19" y="1" width="1" height="1" fill="#171716" fill-opacity="0.996"/>
<rect x="20" y="1" width="1" height="1" fill="#181716"/>
<rect x="21" y="1" width="1" height="1" fill="#131312"/>
<rect x="22" y="1" width="1" height="1" fill="#141312" fill-opacity="0.78"/>
<rect x="23" y="1" width="1" height="1" fill="#21201e" fill-opacity="0.592"/>
<rect x="24" y="1" width="1" height="1" fill="#161514" fill-opacity="0.047"/>
<rect x="4" y="2" width="1" height="1" fill="#ffffff" fill-opacity="0.024"/>
<rect x="5" y="2" width="1" height="1" fill="#ffffff" fill-opacity="0.027"/>
<rect x="13" y="2" width="1" height="1" fill="#484543" fill-opacity="0.322"/>
<rect x="14" y="2" width="1" height="1" fill="#050505" fill-opacity="0.671"/>
<rect x="15" y="2" width="1" height="1" fill="#050505" fill-opacity="0.749"/>
<rect x="16" y="2" width="1" height="1" fill="#0c0b0a" fill-opacity="0.988"/>
<rect x="17" y="2" width="1" height="1" fill="#121111"/>
<rect x="18" y="2" width="1" height="1" fill="#1a1a19"/>
<rect x="19" y="2" width="1" height="1" fill="#1b1b1a"/>
<rect x="20" y="2" width="1" height="1" fill="#161615"/>
<rect x="21" y="2" width="1" height="1" fill="#201c17" fill-opacity="0.733"/>
<rect x="22" y="2" width="1" height="1" fill="#c6c6c6" fill-opacity="0.043"/>
<rect x="4" y="3" width="1" height="1" fill="#ffffff" fill-opacity="0.004"/>
<rect x="10" y="3" width="1" height="1" fill="#cac2bd" fill-opacity="0.024"/>
<rect x="11" y="3" width="1" height="1" fill="#373634" fill-opacity="0.435"/>
<rect x="12" y="3" width="1" height="1" fill="#090909" fill-opacity="0.718"/>
<rect x="13" y="3" width="1" height="1" fill="#0c0c0c" fill-opacity="0.761"/>
<rect x="14" y="3" width="1" height="1" fill="#131311"/>
<rect x="15" y="3" width="1" height="1" fill="#141313"/>
<rect x="16" y="3" width="1" height="1" fill="#161615"/>
<rect x="17" y="3" width="1" height="1" fill="#1d1d1c"/>
<rect x="18" y="3" width="1" height="1" fill="#1f1f1e"/>
<rect x="19" y="3" width="1" height="1" fill="#1d1c1b" fill-opacity="0.996"/>
<rect x="20" y="3" width="1" height="1" fill="#252428" fill-opacity="0.737"/>
<rect x="21" y="3" width="1" height="1" fill="#595a68" fill-opacity="0.302"/>
<rect x="22" y="3" width="1" height="1" fill="#080a29" fill-opacity="0.004"/>
<rect x="9" y="4" width="1" height="1" fill="#2e261f" fill-opacity="0.396"/>
<rect x="10" y="4" width="1" height="1" fill="#100e0c" fill-opacity="0.631"/>
<rect x="11" y="4" width="1" height="1" fill="#141413" fill-opacity="0.996"/>
<rect x="12" y="4" width="1" height="1" fill="#1a1a18"/>
<rect x="13" y="4" width="1" height="1" fill="#161414"/>
<rect x="14" y="4" width="1" height="1" fill="#151514"/>
<rect x="15" y="4" width="1" height="1" fill="#1f1f1e"/>
<rect x="16" y="4" width="1" height="1" fill="#212120"/>
<rect x="17" y="4" width="1" height="1" fill="#1f1f1e"/>
<rect x="18" y="4" width="1" height="1" fill="#1e1e1c"/>
<rect x="19" y="4" width="1" height="1" fill="#15141c" fill-opacity="0.992"/>
<rect x="20" y="4" width="1" height="1" fill="#383a4c" fill-opacity="0.502"/>
<rect x="21" y="4" width="1" height="1" fill="#080a29" fill-opacity="0.016"/>
<rect x="8" y="5" width="1" height="1" fill="#544f4a" fill-opacity="0.369"/>
<rect x="9" y="5" width="1" height="1" fill="#1c1620" fill-opacity="0.812"/>
<rect x="10" y="5" width="1" height="1" fill="#13101e" fill-opacity="0.902"/>
<rect x="11" y="5" width="1" height="1" fill="#0b0b1b"/>
<rect x="12" y="5" width="1" height="1" fill="#121018"/>
<rect x="13" y="5" width="1" height="1" fill="#131215"/>
<rect x="14" y="5" width="1" height="1" fill="#171618"/>
<rect x="15" y="5" width="1" height="1" fill="#1f1d1d"/>
<rect x="16" y="5" width="1" height="1" fill="#1f1f1d"/>
<rect x="17" y="5" width="1" height="1" fill="#1e1e1d"/>
<rect x="18" y="5" width="1" height="1" fill="#1a191a"/>
<rect x="19" y="5" width="1" height="1" fill="#0f1025" fill-opacity="0.996"/>
<rect x="20" y="5" width="1" height="1" fill="#46485c" fill-opacity="0.243"/>
<rect x="9" y="6" width="1" height="1" fill="#080a29" fill-opacity="0.118"/>
<rect x="10" y="6" width="1" height="1" fill="#1b1c38" fill-opacity="0.337"/>
<rect x="11" y="6" width="1" height="1" fill="#181a36" fill-opacity="0.545"/>
<rect x="12" y="6" width="1" height="1" fill="#1e2035" fill-opacity="0.761"/>
<rect x="13" y="6" width="1" height="1" fill="#0e101e" fill-opacity="0.855"/>
<rect x="14" y="6" width="1" height="1" fill="#111119"/>
<rect x="15" y="6" width="1" height="1" fill="#18181b"/>
<rect x="16" y="6" width="1" height="1" fill="#1a1a19"/>
<rect x="17" y="6" width="1" height="1" fill="#1e1d1c"/>
<rect x="18" y="6" width="1" height="1" fill="#1b1b1b"/>
<rect x="19" y="6" width="1" height="1" fill="#0f1026"/>
<rect x="20" y="6" width="1" height="1" fill="#1a1b2f" fill-opacity="0.82"/>
<rect x="21" y="6" width="1" height="1" fill="#7e7e8a" fill-opacity="0.078"/>
<rect x="12" y="7" width="1" height="1" fill="#080a29" fill-opacity="0.027"/>
<rect x="13" y="7" width="1" height="1" fill="#161732" fill-opacity="0.329"/>
<rect x="14" y="7" width="1" height="1" fill="#181825" fill-opacity="0.851"/>
<rect x="15" y="7" width="1" height="1" fill="#131318" fill-opacity="0.996"/>
<rect x="16" y="7" width="1" height="1" fill="#191919"/>
<rect x="17" y="7" width="1" height="1" fill="#1e1e1d"/>
<rect x="18" y="7" width="1" height="1" fill="#1e1e1d"/>
<rect x="19" y="7" width="1" height="1" fill="#16171b"/>
<rect x="20" y="7" width="1" height="1" fill="#0c0e25" fill-opacity="0.996"/>
<rect x="21" y="7" width="1" height="1" fill="#090a1a" fill-opacity="0.855"/>
<rect x="22" y="7" width="1" height="1" fill="#8f8f94" fill-opacity="0.165"/>
<rect x="4" y="8" width="1" height="1" fill="#e8c4ba" fill-opacity="0.004"/>
<rect x="14" y="8" width="1" height="1" fill="#161027" fill-opacity="0.09"/>
<rect x="15" y="8" width="1" height="1" fill="#18151b" fill-opacity="0.82"/>
<rect x="16" y="8" width="1" height="1" fill="#151315"/>
<rect x="17" y="8" width="1" height="1" fill="#1a1918"/>
<rect x="18" y="8" width="1" height="1" fill="#1e1e1d"/>
<rect x="19" y="8" width="1" height="1" fill="#1b1b19"/>
<rect x="20" y="8" width="1" height="1" fill="#16171c"/>
<rect x="21" y="8" width="1" height="1" fill="#0c0d1b" fill-opacity="0.988"/>
<rect x="22" y="8" width="1" height="1" fill="#161518" fill-opacity="0.725"/>
<rect x="23" y="8" width="1" height="1" fill="#535353" fill-opacity="0.424"/>
<rect x="3" y="9" width="1" height="1" fill="#b34a17" fill-opacity="0.008"/>
<rect x="4" y="9" width="1" height="1" fill="#ae550c" fill-opacity="0.008"/>
<rect x="9" y="9" width="1" height="1" fill="#991aaf" fill-opacity="0.639"/>
<rect x="10" y="9" width="1" height="1" fill="#900ea7" fill-opacity="0.976"/>
<rect x="11" y="9" width="1" height="1" fill="#9c0daa" fill-opacity="0.973"/>
<rect x="12" y="9" width="1" height="1" fill="#9e0dac" fill-opacity="0.945"/>
<rect x="13" y="9" width="1" height="1" fill="#9d0daa" fill-opacity="0.957"/>
<rect x="14" y="9" width="1" height="1" fill="#9d0daa" fill-opacity="0.957"/>
<rect x="15" y="9" width="1" height="1" fill="#9c0ea8" fill-opacity="0.906"/>
<rect x="16" y="9" width="1" height="1" fill="#171417"/>
<rect x="17" y="9" width="1" height="1" fill="#141314"/>
<rect x="18" y="9" width="1" height="1" fill="#1d1c1a"/>
<rect x="19" y="9" width="1" height="1" fill="#1b1a19"/>
<rect x="20" y="9" width="1" height="1" fill="#1d1d1c"/>
<rect x="21" y="9" width="1" height="1" fill="#1c1b1a"/>
<rect x="22" y="9" width="1" height="1" fill="#171616"/>
<rect x="23" y="9" width="1" height="1" fill="#111011" fill-opacity="0.804"/>
<rect x="24" y="9" width="1" height="1" fill="#282727" fill-opacity="0.439"/>
<rect x="2" y="10" width="1" height="1" fill="#bf37c3" fill-opacity="0.835"/>
<rect x="3" y="10" width="1" height="1" fill="#b92ec1" fill-opacity="0.965"/>
<rect x="4" y="10" width="1" height="1" fill="#b827bf"/>
<rect x="5" y="10" width="1" height="1" fill="#b928c0" fill-opacity="0.796"/>
<rect x="6" y="10" width="1" height="1" fill="#bd35c3" fill-opacity="0.024"/>
<rect x="8" y="10" width="1" height="1" fill="#950da9" fill-opacity="0.016"/>
<rect x="9" y="10" width="1" height="1" fill="#9116aa" fill-opacity="0.788"/>
<rect x="10" y="10" width="1" height="1" fill="#940da9"/>
<rect x="11" y="10" width="1" height="1" fill="#940da9"/>
<rect x="12" y="10" width="1" height="1" fill="#a80eb4"/>
<rect x="13" y="10" width="1" height="1" fill="#a50db2"/>
<rect x="14" y="10" width="1" height="1" fill="#a30daf"/>
<rect x="15" y="10" width="1" height="1" fill="#a40db0"/>
<rect x="16" y="10" width="1" height="1" fill="#281128"/>
<rect x="17" y="10" width="1" height="1" fill="#171514"/>
<rect x="18" y="10" width="1" height="1" fill="#1b1a1a"/>
<rect x="19" y="10" width="1" height="1" fill="#201f1e" fill-opacity="0.996"/>
<rect x="20" y="10" width="1" height="1" fill="#1d1d1c" fill-opacity="0.992"/>
<rect x="21" y="10" width="1" height="1" fill="#1e1e1c" fill-opacity="0.792"/>
<rect x="22" y="10" width="1" height="1" fill="#201f21" fill-opacity="0.816"/>
<rect x="23" y="10" width="1" height="1" fill="#474649" fill-opacity="0.494"/>
<rect x="24" y="10" width="1" height="1" fill="#292827" fill-opacity="0.141"/>
<rect x="1" y="11" width="1" height="1" fill="#bd36c4" fill-opacity="0.922"/>
<rect x="2" y="11" width="1" height="1" fill="#b022b8"/>
<rect x="3" y="11" width="1" height="1" fill="#b222bb" fill-opacity="0.996"/>
<rect x="4" y="11" width="1" height="1" fill="#b523bd"/>
<rect x="5" y="11" width="1" height="1" fill="#b327bc" fill-opacity="0.996"/>
<rect x="6" y="11" width="1" height="1" fill="#b423bd" fill-opacity="0.859"/>
<rect x="9" y="11" width="1" height="1" fill="#950da9" fill-opacity="0.008"/>
<rect x="10" y="11" width="1" height="1" fill="#9112a9" fill-opacity="0.882"/>
<rect x="11" y="11" width="1" height="1" fill="#950da9"/>
<rect x="12" y="11" width="1" height="1" fill="#a90db7"/>
<rect x="13" y="11" width="1" height="1" fill="#ba0dc3"/>
<rect x="14" y="11" width="1" height="1" fill="#ba0dc2"/>
<rect x="15" y="11" width="1" height="1" fill="#8a0c91"/>
<rect x="16" y="11" width="1" height="1" fill="#190f19"/>
<rect x="17" y="11" width="1" height="1" fill="#181615"/>
<rect x="18" y="11" width="1" height="1" fill="#1c1b1b"/>
<rect x="19" y="11" width="1" height="1" fill="#201f1e" fill-opacity="0.996"/>
<rect x="20" y="11" width="1" height="1" fill="#1e1e1d" fill-opacity="0.996"/>
<rect x="21" y="11" width="1" height="1" fill="#252526" fill-opacity="0.784"/>
<rect x="22" y="11" width="1" height="1" fill="#121116" fill-opacity="0.275"/>
<rect x="23" y="11" width="1" height="1" fill="#121116" fill-opacity="0.02"/>
<rect x="0" y="12" width="1" height="1" fill="#a40fad" fill-opacity="0.243"/>
<rect x="1" y="12" width="1" height="1" fill="#a513ae"/>
<rect x="2" y="12" width="1" height="1" fill="#ac1bb7"/>
<rect x="3" y="12" width="1" height="1" fill="#b926bf"/>
<rect x="4" y="12" width="1" height="1" fill="#b637bf"/>
<rect x="5" y="12" width="1" height="1" fill="#b122ba" fill-opacity="0.204"/>
<rect x="6" y="12" width="1" height="1" fill="#b424bd" fill-opacity="0.969"/>
<rect x="7" y="12" width="1" height="1" fill="#b82dbf" fill-opacity="0.039"/>
<rect x="10" y="12" width="1" height="1" fill="#581399" fill-opacity="0.012"/>
<rect x="11" y="12" width="1" height="1" fill="#9a12ac" fill-opacity="0.945"/>
<rect x="12" y="12" width="1" height="1" fill="#ae0ebb"/>
<rect x="13" y="12" width="1" height="1" fill="#c90dd0"/>
<rect x="14" y="12" width="1" height="1" fill="#610a63"/>
<rect x="15" y="12" width="1" height="1" fill="#1e091e"/>
<rect x="16" y="12" width="1" height="1" fill="#131112"/>
<rect x="17" y="12" width="1" height="1" fill="#131212"/>
<rect x="18" y="12" width="1" height="1" fill="#1e1d1d"/>
<rect x="19" y="12" width="1" height="1" fill="#1f1e1c" fill-opacity="0.996"/>
<rect x="20" y="12" width="1" height="1" fill="#20201f" fill-opacity="0.996"/>
<rect x="21" y="12" width="1" height="1" fill="#24232d" fill-opacity="0.773"/>
<rect x="22" y="12" width="1" height="1" fill="#111018" fill-opacity="0.145"/>
<rect x="23" y="12" width="1" height="1" fill="#121116" fill-opacity="0.004"/>
<rect x="0" y="13" width="1" height="1" fill="#a40eaf"/>
<rect x="1" y="13" width="1" height="1" fill="#ad14b6"/>
<rect x="2" y="13" width="1" height="1" fill="#c028c6"/>
<rect x="3" y="13" width="1" height="1" fill="#b31abc"/>
<rect x="4" y="13" width="1" height="1" fill="#b122ba" fill-opacity="0.4"/>
<rect x="5" y="13" width="1" height="1" fill="#c144c8" fill-opacity="0.812"/>
<rect x="6" y="13" width="1" height="1" fill="#b623bd" fill-opacity="0.906"/>
<rect x="7" y="13" width="1" height="1" fill="#b928c0" fill-opacity="0.008"/>
<rect x="11" y="13" width="1" height="1" fill="#a918b3" fill-opacity="0.878"/>
<rect x="12" y="13" width="1" height="1" fill="#cc10d1"/>
<rect x="13" y="13" width="1" height="1" fill="#e50ee8"/>
<rect x="14" y="13" width="1" height="1" fill="#dc0ede"/>
<rect x="15" y="13" width="1" height="1" fill="#8c0c8f"/>
<rect x="16" y="13" width="1" height="1" fill="#2a0c2c"/>
<rect x="17" y="13" width="1" height="1" fill="#141314" fill-opacity="0.98"/>
<rect x="18" y="13" width="1" height="1" fill="#111110" fill-opacity="0.98"/>
<rect x="19" y="13" width="1" height="1" fill="#201f1f" fill-opacity="0.992"/>
<rect x="20" y="13" width="1" height="1" fill="#1f1f1f" fill-opacity="0.996"/>
<rect x="21" y="13" width="1" height="1" fill="#1e2032" fill-opacity="0.941"/>
<rect x="22" y="13" width="1" height="1" fill="#0e0e1d" fill-opacity="0.118"/>
<rect x="0" y="14" width="1" height="1" fill="#a00eaa"/>
<rect x="1" y="14" width="1" height="1" fill="#c921d1"/>
<rect x="2" y="14" width="1" height="1" fill="#cf42d6"/>
<rect x="3" y="14" width="1" height="1" fill="#b51dbd"/>
<rect x="4" y="14" width="1" height="1" fill="#b939c2" fill-opacity="0.996"/>
<rect x="5" y="14" width="1" height="1" fill="#b122ba" fill-opacity="0.137"/>
<rect x="10" y="14" width="1" height="1" fill="#bf43c8" fill-opacity="0.604"/>
<rect x="11" y="14" width="1" height="1" fill="#b112bc" fill-opacity="0.918"/>
<rect x="12" y="14" width="1" height="1" fill="#dd20e1"/>
<rect x="13" y="14" width="1" height="1" fill="#e513e9"/>
<rect x="14" y="14" width="1" height="1" fill="#e10de5"/>
<rect x="15" y="14" width="1" height="1" fill="#c40dcc"/>
<rect x="16" y="14" width="1" height="1" fill="#910d9c"/>
<rect x="17" y="14" width="1" height="1" fill="#5b3d56" fill-opacity="0.78"/>
<rect x="18" y="14" width="1" height="1" fill="#10100f" fill-opacity="0.867"/>
<rect x="19" y="14" width="1" height="1" fill="#101011" fill-opacity="0.98"/>
<rect x="20" y="14" width="1" height="1" fill="#1b1b1b" fill-opacity="0.976"/>
<rect x="21" y="14" width="1" height="1" fill="#111328" fill-opacity="0.957"/>
<rect x="22" y="14" width="1" height="1" fill="#474851" fill-opacity="0.345"/>
<rect x="0" y="15" width="1" height="1" fill="#9e0da9"/>
<rect x="1" y="15" width="1" height="1" fill="#cb28d2"/>
<rect x="2" y="15" width="1" height="1" fill="#e762ec"/>
<rect x="3" y="15" width="1" height="1" fill="#dc65e1"/>
<rect x="4" y="15" width="1" height="1" fill="#b122ba"/>
<rect x="5" y="15" width="1" height="1" fill="#b122ba" fill-opacity="0.69"/>
<rect x="8" y="15" width="1" height="1" fill="#fefdfe" fill-opacity="0.125"/>
<rect x="9" y="15" width="1" height="1" fill="#b023ba" fill-opacity="0.635"/>
<rect x="10" y="15" width="1" height="1" fill="#a611b3" fill-opacity="0.949"/>
<rect x="11" y="15" width="1" height="1" fill="#c91cd0"/>
<rect x="12" y="15" width="1" height="1" fill="#f9a2fb"/>
<rect x="13" y="15" width="1" height="1" fill="#f05df3"/>
<rect x="14" y="15" width="1" height="1" fill="#e415e8"/>
<rect x="15" y="15" width="1" height="1" fill="#c80ecf"/>
<rect x="16" y="15" width="1" height="1" fill="#9e0ead"/>
<rect x="17" y="15" width="1" height="1" fill="#9914ac" fill-opacity="0.882"/>
<rect x="18" y="15" width="1" height="1" fill="#3d1727" fill-opacity="0.192"/>
<rect x="19" y="15" width="1" height="1" fill="#150f0b" fill-opacity="0.675"/>
<rect x="20" y="15" width="1" height="1" fill="#111015" fill-opacity="0.965"/>
<rect x="21" y="15" width="1" height="1" fill="#151522" fill-opacity="0.98"/>
<rect x="22" y="15" width="1" height="1" fill="#343441" fill-opacity="0.69"/>
<rect x="23" y="15" width="1" height="1" fill="#5a5a62" fill-opacity="0.047"/>
<rect x="0" y="16" width="1" height="1" fill="#990ea7"/>
<rect x="1" y="16" width="1" height="1" fill="#c322cc"/>
<rect x="2" y="16" width="1" height="1" fill="#e159e8"/>
<rect x="3" y="16" width="1" height="1" fill="#f79efa"/>
<rect x="4" y="16" width="1" height="1" fill="#ca3fd2"/>
<rect x="5" y="16" width="1" height="1" fill="#ae1bb9" fill-opacity="0.949"/>
<rect x="6" y="16" width="1" height="1" fill="#b528bf" fill-opacity="0.902"/>
<rect x="7" y="16" width="1" height="1" fill="#bb38c5" fill-opacity="0.961"/>
<rect x="8" y="16" width="1" height="1" fill="#b322bf" fill-opacity="0.961"/>
<rect x="9" y="16" width="1" height="1" fill="#b820c2"/>
<rect x="10" y="16" width="1" height="1" fill="#d253d8"/>
<rect x="11" y="16" width="1" height="1" fill="#f9b3fa"/>
<rect x="12" y="16" width="1" height="1" fill="#fdbaff"/>
<rect x="13" y="16" width="1" height="1" fill="#f45ff9"/>
<rect x="14" y="16" width="1" height="1" fill="#e723ec"/>
<rect x="15" y="16" width="1" height="1" fill="#d210d8"/>
<rect x="16" y="16" width="1" height="1" fill="#a20eb1"/>
<rect x="17" y="16" width="1" height="1" fill="#9813ab" fill-opacity="0.957"/>
<rect x="18" y="16" width="1" height="1" fill="#950da9" fill-opacity="0.078"/>
<rect x="19" y="16" width="1" height="1" fill="#b45609" fill-opacity="0.012"/>
<rect x="20" y="16" width="1" height="1" fill="#1e1b1c" fill-opacity="0.376"/>
<rect x="21" y="16" width="1" height="1" fill="#171518" fill-opacity="0.937"/>
<rect x="22" y="16" width="1" height="1" fill="#292937" fill-opacity="0.886"/>
<rect x="23" y="16" width="1" height="1" fill="#2b2b31" fill-opacity="0.2"/>
<rect x="24" y="16" width="1" height="1" fill="#121116" fill-opacity="0.016"/>
<rect x="0" y="17" width="1" height="1" fill="#9b14a8"/>
<rect x="1" y="17" width="1" height="1" fill="#b516c0"/>
<rect x="2" y="17" width="1" height="1" fill="#c924d2"/>
<rect x="3" y="17" width="1" height="1" fill="#e743ed"/>
<rect x="4" y="17" width="1" height="1" fill="#e73bec"/>
<rect x="5" y="17" width="1" height="1" fill="#d81fdd"/>
<rect x="6" y="17" width="1" height="1" fill="#bd1fc6"/>
<rect x="7" y="17" width="1" height="1" fill="#d641df"/>
<rect x="8" y="17" width="1" height="1" fill="#e84eed"/>
<rect x="9" y="17" width="1" height="1" fill="#d436db"/>
<rect x="10" y="17" width="1" height="1" fill="#d934de"/>
<rect x="11" y="17" width="1" height="1" fill="#f868fc"/>
<rect x="12" y="17" width="1" height="1" fill="#fb88ff"/>
<rect x="13" y="17" width="1" height="1" fill="#f971fe"/>
<rect x="14" y="17" width="1" height="1" fill="#ef42f3"/>
<rect x="15" y="17" width="1" height="1" fill="#e525e9"/>
<rect x="16" y="17" width="1" height="1" fill="#ae0fb8"/>
<rect x="17" y="17" width="1" height="1" fill="#9b19ad" fill-opacity="0.969"/>
<rect x="18" y="17" width="1" height="1" fill="#cf92d8" fill-opacity="0.282"/>
<rect x="20" y="17" width="1" height="1" fill="#ebdbcf" fill-opacity="0.012"/>
<rect x="21" y="17" width="1" height="1" fill="#5f5e63" fill-opacity="0.384"/>
<rect x="22" y="17" width="1" height="1" fill="#222127" fill-opacity="0.839"/>
<rect x="23" y="17" width="1" height="1" fill="#6c6a6d" fill-opacity="0.545"/>
<rect x="24" y="17" width="1" height="1" fill="#121116" fill-opacity="0.031"/>
<rect x="0" y="18" width="1" height="1" fill="#b426bd" fill-opacity="0.678"/>
<rect x="1" y="18" width="1" height="1" fill="#9e0fad"/>
<rect x="2" y="18" width="1" height="1" fill="#b914c4"/>
<rect x="3" y="18" width="1" height="1" fill="#d31ed9"/>
<rect x="4" y="18" width="1" height="1" fill="#dc1ce1"/>
<rect x="5" y="18" width="1" height="1" fill="#ca1ad2"/>
<rect x="6" y="18" width="1" height="1" fill="#d12ed8"/>
<rect x="7" y="18" width="1" height="1" fill="#f357f8"/>
<rect x="8" y="18" width="1" height="1" fill="#f256f7"/>
<rect x="9" y="18" width="1" height="1" fill="#ed4af2"/>
<rect x="10" y="18" width="1" height="1" fill="#d71fdd"/>
<rect x="11" y="18" width="1" height="1" fill="#e741ec"/>
<rect x="12" y="18" width="1" height="1" fill="#f86afc"/>
<rect x="13" y="18" width="1" height="1" fill="#f86efd"/>
<rect x="14" y="18" width="1" height="1" fill="#f351f8"/>
<rect x="15" y="18" width="1" height="1" fill="#f34af7"/>
<rect x="16" y="18" width="1" height="1" fill="#c411cc"/>
<rect x="17" y="18" width="1" height="1" fill="#9f0dae" fill-opacity="0.988"/>
<rect x="18" y="18" width="1" height="1" fill="#ad39bc" fill-opacity="0.514"/>
<rect x="19" y="18" width="1" height="1" fill="#dcaee2" fill-opacity="0.012"/>
<rect x="20" y="18" width="1" height="1" fill="#ffffff" fill-opacity="0.02"/>
<rect x="21" y="18" width="1" height="1" fill="#fefefe" fill-opacity="0.02"/>
<rect x="22" y="18" width="1" height="1" fill="#b4b4b9" fill-opacity="0.184"/>
<rect x="23" y="18" width="1" height="1" fill="#46454a" fill-opacity="0.69"/>
<rect x="24" y="18" width="1" height="1" fill="#535256" fill-opacity="0.212"/>
<rect x="0" y="19" width="1" height="1" fill="#ffffff" fill-opacity="0.004"/>
<rect x="1" y="19" width="1" height="1" fill="#ae2bb9" fill-opacity="0.961"/>
<rect x="2" y="19" width="1" height="1" fill="#a10eae"/>
<rect x="3" y="19" width="1" height="1" fill="#a60fb1"/>
<rect x="4" y="19" width="1" height="1" fill="#ae0db9"/>
<rect x="5" y="19" width="1" height="1" fill="#bd11c6"/>
<rect x="6" y="19" width="1" height="1" fill="#c921d1"/>
<rect x="7" y="19" width="1" height="1" fill="#d22ad8"/>
<rect x="8" y="19" width="1" height="1" fill="#c016c8"/>
<rect x="9" y="19" width="1" height="1" fill="#c915d1"/>
<rect x="10" y="19" width="1" height="1" fill="#bf12c8"/>
<rect x="11" y="19" width="1" height="1" fill="#c111ca"/>
<rect x="12" y="19" width="1" height="1" fill="#bf15c9"/>
<rect x="13" y="19" width="1" height="1" fill="#ca2bd4"/>
<rect x="14" y="19" width="1" height="1" fill="#c21ccb"/>
<rect x="15" y="19" width="1" height="1" fill="#bf17c8"/>
<rect x="16" y="19" width="1" height="1" fill="#ac0eb7"/>
<rect x="17" y="19" width="1" height="1" fill="#a50eb0"/>
<rect x="18" y="19" width="1" height="1" fill="#9e12ac" fill-opacity="0.835"/>
<rect x="19" y="19" width="1" height="1" fill="#e8caec" fill-opacity="0.035"/>
<rect x="21" y="19" width="1" height="1" fill="#fdfdfd" fill-opacity="0.008"/>
<rect x="23" y="19" width="1" height="1" fill="#504f53" fill-opacity="0.071"/>
<rect x="24" y="19" width="1" height="1" fill="#a8a7a9" fill-opacity="0.224"/>
</svg>