<?xml version="1.0" encoding="UTF-8" standalone="no"?>
<svg xmlns="http://www.w3.org/2000/svg" width="26" height="21" shape-rendering="crispEdges">
<rect x="9" y="1" width="1" height="1" fill="#0027d1" fill-opacity="0.004"/>
<rect x="10" y="1" width="1" height="1" fill="#0027d1" fill-opacity="0.012"/>
<rect x="8" y="2" width="1" height="1" fill="#0064d6" fill-opacity="0.478"/>
<rect x="9" y="2" width="1" height="1" fill="#0043ca" fill-opacity="0.961"/>
<rect x="10" y="2" width="1" height="1" fill="#003cc9"/>
<rect x="11" y="2" width="1" height="1" fill="#0045cf"/>
<rect x="12" y="2" width="1" height="1" fill="#004bc7"/>
<rect x="13" y="2" width="1" height="1" fill="#0050c3" fill-opacity="0.871"/>
<rect x="14" y="2" width="1" height="1" fill="#005bcf" fill-opacity="0.298"/>
<rect x="17" y="2" width="1" height="1" fill="#006700" fill-opacity="0.933"/>
<rect x="18" y="2" width="1" height="1" fill="#006700" fill-opacity="0.349"/>
<rect x="7" y="3" width="1" height="1" fill="#0058ca" fill-opacity="0.925"/>
<rect x="8" y="3" width="1" height="1" fill="#004ac2" fill-opacity="0.996"/>
<rect x="9" y="3" width="1" height="1" fill="#024ce3"/>
<rect x="10" y="3" width="1" height="1" fill="#0c5bf9"/>
<rect x="11" y="3" width="1" height="1" fill="#1160f8"/>
<rect x="12" y="3" width="1" height="1" fill="#085af7"/>
<rect x="13" y="3" width="1" height="1" fill="#0052eb"/>
<rect x="14" y="3" width="1" height="1" fill="#0049ca"/>
<rect x="15" y="3" width="1" height="1" fill="#005cd2" fill-opacity="0.529"/>
<rect x="17" y="3" width="1" height="1" fill="#006700"/>
<rect x="18" y="3" width="1" height="1" fill="#006500" fill-opacity="0.557"/>
<rect x="19" y="3" width="1" height="1" fill="#006700" fill-opacity="0.125"/>
<rect x="5" y="4" width="1" height="1" fill="#002eef" fill-opacity="0.004"/>
<rect x="6" y="4" width="1" height="1" fill="#005fd4" fill-opacity="0.737"/>
<rect x="7" y="4" width="1" height="1" fill="#004dca"/>
<rect x="8" y="4" width="1" height="1" fill="#045eff"/>
<rect x="9" y="4" width="1" height="1" fill="#1c6dff"/>
<rect x="10" y="4" width="1" height="1" fill="#1d71ff"/>
<rect x="11" y="4" width="1" height="1" fill="#1d73ff"/>
<rect x="12" y="4" width="1" height="1" fill="#186fff"/>
<rect x="13" y="4" width="1" height="1" fill="#1269ff"/>
<rect x="14" y="4" width="1" height="1" fill="#0250f8"/>
<rect x="15" y="4" width="1" height="1" fill="#0040c9" fill-opacity="0.953"/>
<rect x="16" y="4" width="1" height="1" fill="#005ed6" fill-opacity="0.275"/>
<rect x="17" y="4" width="1" height="1" fill="#006700"/>
<rect x="18" y="4" width="1" height="1" fill="#006700"/>
<rect x="19" y="4" width="1" height="1" fill="#006700"/>
<rect x="20" y="4" width="1" height="1" fill="#006700" fill-opacity="0.157"/>
<rect x="5" y="5" width="1" height="1" fill="#0065dc" fill-opacity="0.706"/>
<rect x="6" y="5" width="1" height="1" fill="#024dd1"/>
<rect x="7" y="5" width="1" height="1" fill="#0662fc"/>
<rect x="8" y="5" width="1" height="1" fill="#2978ff"/>
<rect x="9" y="5" width="1" height="1" fill="#307eff"/>
<rect x="10" y="5" width="1" height="1" fill="#307dff"/>
<rect x="11" y="5" width="1" height="1" fill="#2e7aff"/>
<rect x="12" y="5" width="1" height="1" fill="#2978ff"/>
<rect x="13" y="5" width="1" height="1" fill="#1e71ff"/>
<rect x="14" y="5" width="1" height="1" fill="#1267ff"/>
<rect x="15" y="5" width="1" height="1" fill="#0154fd"/>
<rect x="16" y="5" width="1" height="1" fill="#006974"/>
<rect x="17" y="5" width="1" height="1" fill="#0048c5" fill-opacity="0.008"/>
<rect x="3" y="6" width="1" height="1" fill="#dd0000" fill-opacity="0.369"/>
<rect x="4" y="6" width="1" height="1" fill="#ff0000" fill-opacity="0.427"/>
<rect x="5" y="6" width="1" height="1" fill="#005ac9" fill-opacity="0.976"/>
<rect x="6" y="6" width="1" height="1" fill="#0656e9"/>
<rect x="7" y="6" width="1" height="1" fill="#2a76ff"/>
<rect x="8" y="6" width="1" height="1" fill="#3482ff"/>
<rect x="9" y="6" width="1" height="1" fill="#3984ff"/>
<rect x="10" y="6" width="1" height="1" fill="#3682ff"/>
<rect x="11" y="6" width="1" height="1" fill="#2e7dff"/>
<rect x="12" y="6" width="1" height="1" fill="#2a7bff"/>
<rect x="13" y="6" width="1" height="1" fill="#2173ff"/>
<rect x="14" y="6" width="1" height="1" fill="#1a71ff"/>
<rect x="15" y="6" width="1" height="1" fill="#0c61ff"/>
<rect x="16" y="6" width="1" height="1" fill="#0057e3"/>
<rect x="17" y="6" width="1" height="1" fill="#004cc6" fill-opacity="0.18"/>
<rect x="3" y="7" width="1" height="1" fill="#e90000" fill-opacity="0.976"/>
<rect x="4" y="7" width="1" height="1" fill="#ff0000"/>
<rect x="5" y="7" width="1" height="1" fill="#0053c8"/>
<rect x="6" y="7" width="1" height="1" fill="#1269ff"/>
<rect x="7" y="7" width="1" height="1" fill="#317eff"/>
<rect x="8" y="7" width="1" height="1" fill="#01004f"/>
<rect x="9" y="7" width="1" height="1" fill="#777777"/>
<rect x="10" y="7" width="1" height="1" fill="#3482ff"/>
<rect x="11" y="7" width="1" height="1" fill="#3280ff"/>
<rect x="12" y="7" width="1" height="1" fill="#2879ff"/>
<rect x="13" y="7" width="1" height="1" fill="#2478ff"/>
<rect x="14" y="7" width="1" height="1" fill="#1c75ff"/>
<rect x="15" y="7" width="1" height="1" fill="#1b70ff"/>
<rect x="16" y="7" width="1" height="1" fill="#0055f4"/>
<rect x="17" y="7" width="1" height="1" fill="#0049cc" fill-opacity="0.671"/>
<rect x="18" y="7" width="1" height="1" fill="#003ccf" fill-opacity="0.008"/>
<rect x="4" y="8" width="1" height="1" fill="#ff0000" fill-opacity="0.953"/>
<rect x="5" y="8" width="1" height="1" fill="#004dc8"/>
<rect x="6" y="8" width="1" height="1" fill="#0e66ff"/>
<rect x="7" y="8" width="1" height="1" fill="#3480ff"/>
<rect x="8" y="8" width="1" height="1" fill="#01004f"/>
<rect x="9" y="8" width="1" height="1" fill="#1c1c1d"/>
<rect x="10" y="8" width="1" height="1" fill="#3c86ff"/>
<rect x="11" y="8" width="1" height="1" fill="#307eff"/>
<rect x="12" y="8" width="1" height="1" fill="#277aff"/>
<rect x="13" y="8" width="1" height="1" fill="#2879ff"/>
<rect x="14" y="8" width="1" height="1" fill="#2978ff"/>
<rect x="15" y="8" width="1" height="1" fill="#1b70ff"/>
<rect x="16" y="8" width="1" height="1" fill="#176bff"/>
<rect x="17" y="8" width="1" height="1" fill="#0044d3" fill-opacity="0.953"/>
<rect x="18" y="8" width="1" height="1" fill="#0044c7" fill-opacity="0.227"/>
<rect x="19" y="8" width="1" height="1" fill="#0044b0" fill-opacity="0.008"/>
<rect x="4" y="9" width="1" height="1" fill="#0029d0" fill-opacity="0.004"/>
<rect x="5" y="9" width="1" height="1" fill="#0051cf"/>
<rect x="6" y="9" width="1" height="1" fill="#136aff"/>
<rect x="7" y="9" width="1" height="1" fill="#3883ff"/>
<rect x="8" y="9" width="1" height="1" fill="#3a83ff"/>
<rect x="9" y="9" width="1" height="1" fill="#1260fa"/>
<rect x="10" y="9" width="1" height="1" fill="#1255d8"/>
<rect x="11" y="9" width="1" height="1" fill="#065cec"/>
<rect x="12" y="9" width="1" height="1" fill="#1a6fff"/>
<rect x="13" y="9" width="1" height="1" fill="#2c7cff"/>
<rect x="14" y="9" width="1" height="1" fill="#2e7cff"/>
<rect x="15" y="9" width="1" height="1" fill="#2878ff"/>
<rect x="16" y="9" width="1" height="1" fill="#2072ff"/>
<rect x="17" y="9" width="1" height="1" fill="#025fff"/>
<rect x="18" y="9" width="1" height="1" fill="#004acf" fill-opacity="0.851"/>
<rect x="19" y="9" width="1" height="1" fill="#003bb4" fill-opacity="0.063"/>
<rect x="20" y="9" width="1" height="1" fill="#0044b0" fill-opacity="0.004"/>
<rect x="5" y="10" width="1" height="1" fill="#0043c6" fill-opacity="0.969"/>
<rect x="6" y="10" width="1" height="1" fill="#0e64fd"/>
<rect x="7" y="10" width="1" height="1" fill="#2c7aff"/>
<rect x="8" y="10" width="1" height="1" fill="#317fff"/>
<rect x="9" y="10" width="1" height="1" fill="#2c7aff"/>
<rect x="10" y="10" width="1" height="1" fill="#2173ff"/>
<rect x="11" y="10" width="1" height="1" fill="#2779ff"/>
<rect x="12" y="10" width="1" height="1" fill="#2a7bff"/>
<rect x="13" y="10" width="1" height="1" fill="#2b7aff"/>
<rect x="14" y="10" width="1" height="1" fill="#2c7cff"/>
<rect x="15" y="10" width="1" height="1" fill="#2e7cff"/>
<rect x="16" y="10" width="1" height="1" fill="#2277ff"/>
<rect x="17" y="10" width="1" height="1" fill="#1d72ff"/>
<rect x="18" y="10" width="1" height="1" fill="#0157e9" fill-opacity="0.996"/>
<rect x="19" y="10" width="1" height="1" fill="#0048c0" fill-opacity="0.835"/>
<rect x="20" y="10" width="1" height="1" fill="#0049be" fill-opacity="0.184"/>
<rect x="21" y="10" width="1" height="1" fill="#003db9" fill-opacity="0.012"/>
<rect x="3" y="11" width="1" height="1" fill="#2d4eff" fill-opacity="0.004"/>
<rect x="4" y="11" width="1" height="1" fill="#2d4eff" fill-opacity="0.031"/>
<rect x="5" y="11" width="1" height="1" fill="#004acb" fill-opacity="0.992"/>
<rect x="6" y="11" width="1" height="1" fill="#095fff"/>
<rect x="7" y="11" width="1" height="1" fill="#2676ff"/>
<rect x="8" y="11" width="1" height="1" fill="#2a7cff"/>
<rect x="9" y="11" width="1" height="1" fill="#2679ff"/>
<rect x="10" y="11" width="1" height="1" fill="#2879ff"/>
<rect x="11" y="11" width="1" height="1" fill="#297bff"/>
<rect x="12" y="11" width="1" height="1" fill="#2b7aff"/>
<rect x="13" y="11" width="1" height="1" fill="#2b7cff"/>
<rect x="14" y="11" width="1" height="1" fill="#2d7dff"/>
<rect x="15" y="11" width="1" height="1" fill="#2d7dff"/>
<rect x="16" y="11" width="1" height="1" fill="#2c7cff"/>
<rect x="17" y="11" width="1" height="1" fill="#2878ff"/>
<rect x="18" y="11" width="1" height="1" fill="#1e71ff"/>
<rect x="19" y="11" width="1" height="1" fill="#0054e6"/>
<rect x="20" y="11" width="1" height="1" fill="#0045c6" fill-opacity="0.988"/>
<rect x="21" y="11" width="1" height="1" fill="#0052cb" fill-opacity="0.647"/>
<rect x="22" y="11" width="1" height="1" fill="#005ccb" fill-opacity="0.031"/>
<rect x="4" y="12" width="1" height="1" fill="#2d4eff" fill-opacity="0.031"/>
<rect x="5" y="12" width="1" height="1" fill="#0043d8" fill-opacity="0.914"/>
<rect x="6" y="12" width="1" height="1" fill="#0057fa"/>
<rect x="7" y="12" width="1" height="1" fill="#2170ff"/>
<rect x="8" y="12" width="1" height="1" fill="#2879ff"/>
<rect x="9" y="12" width="1" height="1" fill="#2a7cff"/>
<rect x="10" y="12" width="1" height="1" fill="#2a7cff"/>
<rect x="11" y="12" width="1" height="1" fill="#297bff"/>
<rect x="12" y="12" width="1" height="1" fill="#0d60f3"/>
<rect x="13" y="12" width="1" height="1" fill="#1c71ff"/>
<rect x="14" y="12" width="1" height="1" fill="#2d7dff"/>
<rect x="15" y="12" width="1" height="1" fill="#2e7cff"/>
<rect x="16" y="12" width="1" height="1" fill="#3180ff"/>
<rect x="17" y="12" width="1" height="1" fill="#0e63fa"/>
<rect x="18" y="12" width="1" height="1" fill="#1970ff"/>
<rect x="19" y="12" width="1" height="1" fill="#2677ff"/>
<rect x="20" y="12" width="1" height="1" fill="#005bf9"/>
<rect x="21" y="12" width="1" height="1" fill="#0049cc" fill-opacity="0.996"/>
<rect x="22" y="12" width="1" height="1" fill="#0051c7" fill-opacity="0.18"/>
<rect x="4" y="13" width="1" height="1" fill="#0035e4" fill-opacity="0.016"/>
<rect x="5" y="13" width="1" height="1" fill="#0042e0" fill-opacity="0.827"/>
<rect x="6" y="13" width="1" height="1" fill="#0050db" fill-opacity="0.992"/>
<rect x="7" y="13" width="1" height="1" fill="#1362ff" fill-opacity="0.992"/>
<rect x="8" y="13" width="1" height="1" fill="#2778ff"/>
<rect x="9" y="13" width="1" height="1" fill="#2d7dff"/>
<rect x="10" y="13" width="1" height="1" fill="#2a7cff"/>
<rect x="11" y="13" width="1" height="1" fill="#2a7cff"/>
<rect x="12" y="13" width="1" height="1" fill="#1564f4"/>
<rect x="13" y="13" width="1" height="1" fill="#0756e6"/>
<rect x="14" y="13" width="1" height="1" fill="#2178ff"/>
<rect x="15" y="13" width="1" height="1" fill="#2a7cff"/>
<rect x="16" y="13" width="1" height="1" fill="#025fe3"/>
<rect x="17" y="13" width="1" height="1" fill="#054dc4"/>
<rect x="18" y="13" width="1" height="1" fill="#1c70ff"/>
<rect x="19" y="13" width="1" height="1" fill="#2a7bff"/>
<rect x="20" y="13" width="1" height="1" fill="#005afa"/>
<rect x="21" y="13" width="1" height="1" fill="#004ade" fill-opacity="0.929"/>
<rect x="22" y="13" width="1" height="1" fill="#0036e1" fill-opacity="0.059"/>
<rect x="4" y="14" width="1" height="1" fill="#284aff" fill-opacity="0.059"/>
<rect x="5" y="14" width="1" height="1" fill="#004af1" fill-opacity="0.6"/>
<rect x="6" y="14" width="1" height="1" fill="#0047d2" fill-opacity="0.992"/>
<rect x="7" y="14" width="1" height="1" fill="#0357fa"/>
<rect x="8" y="14" width="1" height="1" fill="#2372ff"/>
<rect x="9" y="14" width="1" height="1" fill="#2d7dff"/>
<rect x="10" y="14" width="1" height="1" fill="#2e7eff"/>
<rect x="11" y="14" width="1" height="1" fill="#2b7aff"/>
<rect x="12" y="14" width="1" height="1" fill="#2f7dff"/>
<rect x="13" y="14" width="1" height="1" fill="#055fe5"/>
<rect x="14" y="14" width="1" height="1" fill="#0047ca"/>
<rect x="15" y="14" width="1" height="1" fill="#0049d6"/>
<rect x="16" y="14" width="1" height="1" fill="#004cd7"/>
<rect x="17" y="14" width="1" height="1" fill="#126aff"/>
<rect x="18" y="14" width="1" height="1" fill="#2879ff"/>
<rect x="19" y="14" width="1" height="1" fill="#156aff"/>
<rect x="20" y="14" width="1" height="1" fill="#004fdd" fill-opacity="0.996"/>
<rect x="21" y="14" width="1" height="1" fill="#003cd1" fill-opacity="0.247"/>
<rect x="4" y="15" width="1" height="1" fill="#2d4eff" fill-opacity="0.024"/>
<rect x="5" y="15" width="1" height="1" fill="#0d3fff" fill-opacity="0.224"/>
<rect x="6" y="15" width="1" height="1" fill="#003ed2" fill-opacity="0.937"/>
<rect x="7" y="15" width="1" height="1" fill="#0052ea" fill-opacity="0.992"/>
<rect x="8" y="15" width="1" height="1" fill="#1566ff"/>
<rect x="9" y="15" width="1" height="1" fill="#2675ff"/>
<rect x="10" y="15" width="1" height="1" fill="#2b7aff"/>
<rect x="11" y="15" width="1" height="1" fill="#2c7dff"/>
<rect x="12" y="15" width="1" height="1" fill="#2c7dff"/>
<rect x="13" y="15" width="1" height="1" fill="#1d74ff"/>
<rect x="14" y="15" width="1" height="1" fill="#1a71ff"/>
<rect x="15" y="15" width="1" height="1" fill="#2072ff"/>
<rect x="16" y="15" width="1" height="1" fill="#2375ff"/>
<rect x="17" y="15" width="1" height="1" fill="#2677ff"/>
<rect x="18" y="15" width="1" height="1" fill="#106aff"/>
<rect x="19" y="15" width="1" height="1" fill="#0052df" fill-opacity="0.996"/>
<rect x="20" y="15" width="1" height="1" fill="#004bc7" fill-opacity="0.365"/>
<rect x="5" y="16" width="1" height="1" fill="#274bff" fill-opacity="0.098"/>
<rect x="6" y="16" width="1" height="1" fill="#004bf4" fill-opacity="0.671"/>
<rect x="7" y="16" width="1" height="1" fill="#003cd1" fill-opacity="0.965"/>
<rect x="8" y="16" width="1" height="1" fill="#0256f7"/>
<rect x="9" y="16" width="1" height="1" fill="#1e6bff"/>
<rect x="10" y="16" width="1" height="1" fill="#2676ff"/>
<rect x="11" y="16" width="1" height="1" fill="#2978ff"/>
<rect x="12" y="16" width="1" height="1" fill="#2a7bff"/>
<rect x="13" y="16" width="1" height="1" fill="#297bff"/>
<rect x="14" y="16" width="1" height="1" fill="#2b7aff"/>
<rect x="15" y="16" width="1" height="1" fill="#2878ff"/>
<rect x="16" y="16" width="1" height="1" fill="#2575ff"/>
<rect x="17" y="16" width="1" height="1" fill="#0e64ff"/>
<rect x="18" y="16" width="1" height="1" fill="#004dd4" fill-opacity="0.992"/>
<rect x="19" y="16" width="1" height="1" fill="#0046b8" fill-opacity="0.294"/>
<rect x="5" y="17" width="1" height="1" fill="#2d4eff" fill-opacity="0.012"/>
<rect x="6" y="17" width="1" height="1" fill="#0038e5" fill-opacity="0.176"/>
<rect x="7" y="17" width="1" height="1" fill="#0044e7" fill-opacity="0.773"/>
<rect x="8" y="17" width="1" height="1" fill="#003edc" fill-opacity="0.98"/>
<rect x="9" y="17" width="1" height="1" fill="#065afb"/>
<rect x="10" y="17" width="1" height="1" fill="#1d6aff"/>
<rect x="11" y="17" width="1" height="1" fill="#2271ff"/>
<rect x="12" y="17" width="1" height="1" fill="#2474ff"/>
<rect x="13" y="17" width="1" height="1" fill="#2272ff"/>
<rect x="14" y="17" width="1" height="1" fill="#1b6dff"/>
<rect x="15" y="17" width="1" height="1" fill="#1a68ff"/>
<rect x="16" y="17" width="1" height="1" fill="#0055f2"/>
<rect x="17" y="17" width="1" height="1" fill="#0046c8" fill-opacity="0.988"/>
<rect x="18" y="17" width="1" height="1" fill="#0048bd" fill-opacity="0.302"/>
<rect x="6" y="18" width="1" height="1" fill="#2a4eff" fill-opacity="0.02"/>
<rect x="7" y="18" width="1" height="1" fill="#0041ea" fill-opacity="0.306"/>
<rect x="8" y="18" width="1" height="1" fill="#003edb" fill-opacity="0.906"/>
<rect x="9" y="18" width="1" height="1" fill="#0040d2" fill-opacity="0.992"/>
<rect x="10" y="18" width="1" height="1" fill="#0250fe"/>
<rect x="11" y="18" width="1" height="1" fill="#095aff"/>
<rect x="12" y="18" width="1" height="1" fill="#0d61ff"/>
<rect x="13" y="18" width="1" height="1" fill="#0f61ff"/>
<rect x="14" y="18" width="1" height="1" fill="#0055fe"/>
<rect x="15" y="18" width="1" height="1" fill="#004ace"/>
<rect x="16" y="18" width="1" height="1" fill="#0044b6" fill-opacity="0.996"/>
<rect x="17" y="18" width="1" height="1" fill="#0045bd" fill-opacity="0.286"/>
<rect x="7" y="19" width="1" height="1" fill="#2a4eff" fill-opacity="0.012"/>
<rect x="8" y="19" width="1" height="1" fill="#0048dd" fill-opacity="0.176"/>
<rect x="9" y="19" width="1" height="1" fill="#0040df" fill-opacity="0.537"/>
<rect x="10" y="19" width="1" height="1" fill="#0041d5" fill-opacity="0.945"/>
<rect x="11" y="19" width="1" height="1" fill="#0040c4" fill-opacity="0.996"/>
<rect x="12" y="19" width="1" height="1" fill="#0040c2"/>
<rect x="13" y="19" width="1" height="1" fill="#0044c5"/>
<rect x="14" y="19" width="1" height="1" fill="#004cca" fill-opacity="0.992"/>
<rect x="15" y="19" width="1" height="1" fill="#0060d3" fill-opacity="0.49"/>
<rect x="16" y="19" width="1" height="1" fill="#0047bb" fill-opacity="0.11"/>
<rect x="9" y="20" width="1" height="1" fill="#2d4eff" fill-opacity="0.024"/>
<rect x="10" y="20" width="1" height="1" fill="#2d4eff" fill-opacity="0.039"/>
<rect x="14" y="20" width="1" height="1" fill="#0044b0" fill-opacity="0.027"/>
<rect x="15" y="20" width="1" height="1" fill="#0044b0" fill-opacity="0.027"/>
</svg>