<?xml version="1.0" encoding="UTF-8" standalone="no"?>
<svg xmlns="http://www.w3.org/2000/svg" width="26" height="21" shape-rendering="crispEdges">
<rect x="22" y="0" width="1" height="1" fill="#8d0000" fill-opacity="0.039"/>
<rect x="23" y="0" width="1" height="1" fill="#950000" fill-opacity="0.769"/>
<rect x="24" y="0" width="1" height="1" fill="#900000" fill-opacity="0.984"/>
<rect x="19" y="1" width="1" height="1" fill="#980000" fill-opacity="0.827"/>
<rect x="20" y="1" width="1" height="1" fill="#8b0000"/>
<rect x="21" y="1" width="1" height="1" fill="#8d0000"/>
<rect x="22" y="1" width="1" height="1" fill="#950000"/>
<rect x="23" y="1" width="1" height="1" fill="#a50000"/>
<rect x="24" y="1" width="1" height="1" fill="#900000"/>
<rect x="4" y="2" width="1" height="1" fill="#f5f5f1" fill-opacity="0.024"/>
<rect x="13" y="2" width="1" height="1" fill="#a60000" fill-opacity="0.949"/>
<rect x="14" y="2" width="1" height="1" fill="#8c0000"/>
<rect x="15" y="2" width="1" height="1" fill="#8d0000"/>
<rect x="16" y="2" width="1" height="1" fill="#8d0000"/>
<rect x="17" y="2" width="1" height="1" fill="#940000"/>
<rect x="18" y="2" width="1" height="1" fill="#8c0000"/>
<rect x="19" y="2" width="1" height="1" fill="#e3664a"/>
<rect x="20" y="2" width="1" height="1" fill="#f5f5f1"/>
<rect x="21" y="2" width="1" height="1" fill="#f5f5f1"/>
<rect x="22" y="2" width="1" height="1" fill="#f5f5f1"/>
<rect x="23" y="2" width="1" height="1" fill="#e0b299"/>
<rect x="24" y="2" width="1" height="1" fill="#930000" fill-opacity="0.988"/>
<rect x="4" y="3" width="1" height="1" fill="#f5f5f1" fill-opacity="0.004"/>
<rect x="7" y="3" width="1" height="1" fill="#ad0000" fill-opacity="0.192"/>
<rect x="12" y="3" width="1" height="1" fill="#b00000" fill-opacity="0.043"/>
<rect x="13" y="3" width="1" height="1" fill="#b00000"/>
<rect x="14" y="3" width="1" height="1" fill="#e2a891"/>
<rect x="15" y="3" width="1" height="1" fill="#e8c2ad"/>
<rect x="16" y="3" width="1" height="1" fill="#e8c3ae"/>
<rect x="17" y="3" width="1" height="1" fill="#f5f5f1"/>
<rect x="18" y="3" width="1" height="1" fill="#f5f5f1"/>
<rect x="19" y="3" width="1" height="1" fill="#f5f5f1"/>
<rect x="20" y="3" width="1" height="1" fill="#f5f5f1"/>
<rect x="21" y="3" width="1" height="1" fill="#f5f5f1"/>
<rect x="22" y="3" width="1" height="1" fill="#f5f3ed"/>
<rect x="23" y="3" width="1" height="1" fill="#c16c4d"/>
<rect x="24" y="3" width="1" height="1" fill="#930009" fill-opacity="0.98"/>
<rect x="6" y="4" width="1" height="1" fill="#ad0000" fill-opacity="0.047"/>
<rect x="7" y="4" width="1" height="1" fill="#ad0000" fill-opacity="0.953"/>
<rect x="8" y="4" width="1" height="1" fill="#ad0000" fill-opacity="0.361"/>
<rect x="12" y="4" width="1" height="1" fill="#b00000" fill-opacity="0.643"/>
<rect x="13" y="4" width="1" height="1" fill="#b00000"/>
<rect x="14" y="4" width="1" height="1" fill="#f2eee7"/>
<rect x="15" y="4" width="1" height="1" fill="#f3f1eb"/>
<rect x="16" y="4" width="1" height="1" fill="#f5f5f1"/>
<rect x="17" y="4" width="1" height="1" fill="#f5f5f1"/>
<rect x="18" y="4" width="1" height="1" fill="#f5f5f1"/>
<rect x="19" y="4" width="1" height="1" fill="#f5f5f1"/>
<rect x="20" y="4" width="1" height="1" fill="#f5f5f1"/>
<rect x="21" y="4" width="1" height="1" fill="#f5f1eb"/>
<rect x="22" y="4" width="1" height="1" fill="#ca8364"/>
<rect x="23" y="4" width="1" height="1" fill="#920000" fill-opacity="0.898"/>
<rect x="24" y="4" width="1" height="1" fill="#900000" fill-opacity="0.725"/>
<rect x="4" y="5" width="1" height="1" fill="#ad0000" fill-opacity="0.114"/>
<rect x="5" y="5" width="1" height="1" fill="#b60000" fill-opacity="0.945"/>
<rect x="6" y="5" width="1" height="1" fill="#ad0000" fill-opacity="0.925"/>
<rect x="7" y="5" width="1" height="1" fill="#ad0000" fill-opacity="0.984"/>
<rect x="8" y="5" width="1" height="1" fill="#ad0000" fill-opacity="0.957"/>
<rect x="9" y="5" width="1" height="1" fill="#b50000" fill-opacity="0.957"/>
<rect x="10" y="5" width="1" height="1" fill="#ad0000" fill-opacity="0.384"/>
<rect x="11" y="5" width="1" height="1" fill="#a00000" fill-opacity="0.039"/>
<rect x="12" y="5" width="1" height="1" fill="#ad0000" fill-opacity="0.89"/>
<rect x="13" y="5" width="1" height="1" fill="#b00000" fill-opacity="0.941"/>
<rect x="14" y="5" width="1" height="1" fill="#f0ebe2"/>
<rect x="15" y="5" width="1" height="1" fill="#f3f1eb"/>
<rect x="16" y="5" width="1" height="1" fill="#f5f3ee"/>
<rect x="17" y="5" width="1" height="1" fill="#f5f5f1"/>
<rect x="18" y="5" width="1" height="1" fill="#f5f5f1"/>
<rect x="19" y="5" width="1" height="1" fill="#e8c3ae"/>
<rect x="20" y="5" width="1" height="1" fill="#e8c0ab"/>
<rect x="21" y="5" width="1" height="1" fill="#bd5b3d" fill-opacity="0.988"/>
<rect x="22" y="5" width="1" height="1" fill="#900000" fill-opacity="0.882"/>
<rect x="23" y="5" width="1" height="1" fill="#900000" fill-opacity="0.945"/>
<rect x="24" y="5" width="1" height="1" fill="#8d0000" fill-opacity="0.043"/>
<rect x="5" y="6" width="1" height="1" fill="#ad0000" fill-opacity="0.776"/>
<rect x="6" y="6" width="1" height="1" fill="#b40000" fill-opacity="0.996"/>
<rect x="7" y="6" width="1" height="1" fill="#ad0000" fill-opacity="0.984"/>
<rect x="8" y="6" width="1" height="1" fill="#ad0000" fill-opacity="0.984"/>
<rect x="9" y="6" width="1" height="1" fill="#ad0000" fill-opacity="0.933"/>
<rect x="10" y="6" width="1" height="1" fill="#ad0000" fill-opacity="0.071"/>
<rect x="11" y="6" width="1" height="1" fill="#b00000" fill-opacity="0.745"/>
<rect x="12" y="6" width="1" height="1" fill="#b30000" fill-opacity="0.996"/>
<rect x="13" y="6" width="1" height="1" fill="#deb6a1"/>
<rect x="14" y="6" width="1" height="1" fill="#f3f1eb"/>
<rect x="15" y="6" width="1" height="1" fill="#f3efe8"/>
<rect x="16" y="6" width="1" height="1" fill="#f3f2ec"/>
<rect x="17" y="6" width="1" height="1" fill="#f5f5f1"/>
<rect x="18" y="6" width="1" height="1" fill="#f5f5f1"/>
<rect x="19" y="6" width="1" height="1" fill="#f5f5f1"/>
<rect x="20" y="6" width="1" height="1" fill="#f5efe8"/>
<rect x="21" y="6" width="1" height="1" fill="#9a0000"/>
<rect x="22" y="6" width="1" height="1" fill="#940000" fill-opacity="0.894"/>
<rect x="23" y="6" width="1" height="1" fill="#930000" fill-opacity="0.235"/>
<rect x="6" y="7" width="1" height="1" fill="#ad0000" fill-opacity="0.973"/>
<rect x="7" y="7" width="1" height="1" fill="#ad0000" fill-opacity="0.984"/>
<rect x="8" y="7" width="1" height="1" fill="#ad0000" fill-opacity="0.984"/>
<rect x="9" y="7" width="1" height="1" fill="#ad0000" fill-opacity="0.525"/>
<rect x="10" y="7" width="1" height="1" fill="#b00000" fill-opacity="0.439"/>
<rect x="11" y="7" width="1" height="1" fill="#b00000"/>
<rect x="12" y="7" width="1" height="1" fill="#edddd2"/>
<rect x="13" y="7" width="1" height="1" fill="#f3f1eb"/>
<rect x="14" y="7" width="1" height="1" fill="#f3f1eb"/>
<rect x="15" y="7" width="1" height="1" fill="#e8c2ad"/>
<rect x="16" y="7" width="1" height="1" fill="#e8c3ae"/>
<rect x="17" y="7" width="1" height="1" fill="#f5f5f1"/>
<rect x="18" y="7" width="1" height="1" fill="#f5f5f1"/>
<rect x="19" y="7" width="1" height="1" fill="#f5f5f1"/>
<rect x="20" y="7" width="1" height="1" fill="#f5f5f1"/>
<rect x="21" y="7" width="1" height="1" fill="#f3f3ed"/>
<rect x="22" y="7" width="1" height="1" fill="#ca593c"/>
<rect x="23" y="7" width="1" height="1" fill="#a20000" fill-opacity="0.824"/>
<rect x="24" y="7" width="1" height="1" fill="#8f0000" fill-opacity="0.016"/>
<rect x="4" y="8" width="1" height="1" fill="#dbe38f" fill-opacity="0.004"/>
<rect x="5" y="8" width="1" height="1" fill="#ad0000" fill-opacity="0.114"/>
<rect x="6" y="8" width="1" height="1" fill="#ad0000" fill-opacity="0.945"/>
<rect x="8" y="8" width="1" height="1" fill="#b50000" fill-opacity="0.973"/>
<rect x="9" y="8" width="1" height="1" fill="#ad0000" fill-opacity="0.659"/>
<rect x="10" y="8" width="1" height="1" fill="#b00000" fill-opacity="0.784"/>
<rect x="11" y="8" width="1" height="1" fill="#cb594b"/>
<rect x="12" y="8" width="1" height="1" fill="#f3f1eb"/>
<rect x="13" y="8" width="1" height="1" fill="#f3f1eb"/>
<rect x="14" y="8" width="1" height="1" fill="#e8c2ad"/>
<rect x="15" y="8" width="1" height="1" fill="#e8c3ae"/>
<rect x="16" y="8" width="1" height="1" fill="#e8c3ae"/>
<rect x="17" y="8" width="1" height="1" fill="#e3aa91"/>
<rect x="18" y="8" width="1" height="1" fill="#e8c3ae"/>
<rect x="19" y="8" width="1" height="1" fill="#e8c3ae"/>
<rect x="20" y="8" width="1" height="1" fill="#f5f3ee"/>
<rect x="21" y="8" width="1" height="1" fill="#f5f5f1"/>
<rect x="22" y="8" width="1" height="1" fill="#dc9073"/>
<rect x="23" y="8" width="1" height="1" fill="#950000"/>
<rect x="24" y="8" width="1" height="1" fill="#990000" fill-opacity="0.922"/>
<rect x="3" y="9" width="1" height="1" fill="#83ba00" fill-opacity="0.008"/>
<rect x="4" y="9" width="1" height="1" fill="#5fb000" fill-opacity="0.008"/>
<rect x="9" y="9" width="1" height="1" fill="#b50001" fill-opacity="0.031"/>
<rect x="10" y="9" width="1" height="1" fill="#af0000" fill-opacity="0.953"/>
<rect x="11" y="9" width="1" height="1" fill="#e0ad95"/>
<rect x="12" y="9" width="1" height="1" fill="#f3f1eb"/>
<rect x="13" y="9" width="1" height="1" fill="#f3f3ed"/>
<rect x="14" y="9" width="1" height="1" fill="#e3a18a"/>
<rect x="15" y="9" width="1" height="1" fill="#c4000e"/>
<rect x="16" y="9" width="1" height="1" fill="#b60000"/>
<rect x="17" y="9" width="1" height="1" fill="#c94039"/>
<rect x="18" y="9" width="1" height="1" fill="#e8c2ad"/>
<rect x="19" y="9" width="1" height="1" fill="#f3e2d7"/>
<rect x="20" y="9" width="1" height="1" fill="#aa0606" fill-opacity="0.984"/>
<rect x="21" y="9" width="1" height="1" fill="#930000" fill-opacity="0.98"/>
<rect x="22" y="9" width="1" height="1" fill="#9a0000" fill-opacity="0.898"/>
<rect x="23" y="9" width="1" height="1" fill="#940000" fill-opacity="0.925"/>
<rect x="24" y="9" width="1" height="1" fill="#950000" fill-opacity="0.91"/>
<rect x="2" y="10" width="1" height="1" fill="#c90006" fill-opacity="0.835"/>
<rect x="3" y="10" width="1" height="1" fill="#c70003" fill-opacity="0.965"/>
<rect x="4" y="10" width="1" height="1" fill="#c50000"/>
<rect x="5" y="10" width="1" height="1" fill="#c70000" fill-opacity="0.796"/>
<rect x="6" y="10" width="1" height="1" fill="#c90006" fill-opacity="0.024"/>
<rect x="8" y="10" width="1" height="1" fill="#ad0000" fill-opacity="0.012"/>
<rect x="10" y="10" width="1" height="1" fill="#ad0000" fill-opacity="0.878"/>
<rect x="11" y="10" width="1" height="1" fill="#d58d71"/>
<rect x="12" y="10" width="1" height="1" fill="#f3f2ec"/>
<rect x="13" y="10" width="1" height="1" fill="#f3efe8"/>
<rect x="14" y="10" width="1" height="1" fill="#d12322"/>
<rect x="15" y="10" width="1" height="1" fill="#dea390"/>
<rect x="16" y="10" width="1" height="1" fill="#d7836c"/>
<rect x="17" y="10" width="1" height="1" fill="#b20000"/>
<rect x="18" y="10" width="1" height="1" fill="#dd977e"/>
<rect x="19" y="10" width="1" height="1" fill="#f2ede5"/>
<rect x="20" y="10" width="1" height="1" fill="#a4140b" fill-opacity="0.957"/>
<rect x="21" y="10" width="1" height="1" fill="#900000" fill-opacity="0.596"/>
<rect x="22" y="10" width="1" height="1" fill="#900000" fill-opacity="0.369"/>
<rect x="23" y="10" width="1" height="1" fill="#930000" fill-opacity="0.345"/>
<rect x="24" y="10" width="1" height="1" fill="#940000" fill-opacity="0.043"/>
<rect x="1" y="11" width="1" height="1" fill="#ca0008" fill-opacity="0.922"/>
<rect x="2" y="11" width="1" height="1" fill="#be0000"/>
<rect x="3" y="11" width="1" height="1" fill="#c20000" fill-opacity="0.996"/>
<rect x="4" y="11" width="1" height="1" fill="#c40000"/>
<rect x="5" y="11" width="1" height="1" fill="#c20000" fill-opacity="0.996"/>
<rect x="6" y="11" width="1" height="1" fill="#c40000" fill-opacity="0.859"/>
<rect x="10" y="11" width="1" height="1" fill="#af0000" fill-opacity="0.62"/>
<rect x="11" y="11" width="1" height="1" fill="#bc1b10"/>
<rect x="12" y="11" width="1" height="1" fill="#f3f2ec"/>
<rect x="13" y="11" width="1" height="1" fill="#f3f2ec"/>
<rect x="14" y="11" width="1" height="1" fill="#f3f0e9"/>
<rect x="15" y="11" width="1" height="1" fill="#f3f1eb"/>
<rect x="16" y="11" width="1" height="1" fill="#f3f1eb"/>
<rect x="17" y="11" width="1" height="1" fill="#b60000"/>
<rect x="18" y="11" width="1" height="1" fill="#c52020"/>
<rect x="19" y="11" width="1" height="1" fill="#f3f0e9"/>
<rect x="20" y="11" width="1" height="1" fill="#aa2414" fill-opacity="0.973"/>
<rect x="21" y="11" width="1" height="1" fill="#940000" fill-opacity="0.067"/>
<rect x="0" y="12" width="1" height="1" fill="#b30000" fill-opacity="0.243"/>
<rect x="1" y="12" width="1" height="1" fill="#b50000"/>
<rect x="2" y="12" width="1" height="1" fill="#bd0000"/>
<rect x="3" y="12" width="1" height="1" fill="#c50000"/>
<rect x="4" y="12" width="1" height="1" fill="#c4000a"/>
<rect x="5" y="12" width="1" height="1" fill="#c10000" fill-opacity="0.204"/>
<rect x="6" y="12" width="1" height="1" fill="#c40000" fill-opacity="0.969"/>
<rect x="7" y="12" width="1" height="1" fill="#c40001" fill-opacity="0.039"/>
<rect x="10" y="12" width="1" height="1" fill="#9d0028" fill-opacity="0.004"/>
<rect x="11" y="12" width="1" height="1" fill="#a90000" fill-opacity="0.996"/>
<rect x="12" y="12" width="1" height="1" fill="#d69879"/>
<rect x="13" y="12" width="1" height="1" fill="#f3f1eb"/>
<rect x="14" y="12" width="1" height="1" fill="#f3f2ec"/>
<rect x="15" y="12" width="1" height="1" fill="#f3f2ec"/>
<rect x="16" y="12" width="1" height="1" fill="#f3eee7"/>
<rect x="17" y="12" width="1" height="1" fill="#ac0000"/>
<rect x="18" y="12" width="1" height="1" fill="#ba0007"/>
<rect x="19" y="12" width="1" height="1" fill="#f1e0d5"/>
<rect x="20" y="12" width="1" height="1" fill="#b34027" fill-opacity="0.984"/>
<rect x="21" y="12" width="1" height="1" fill="#ad2e1b" fill-opacity="0.016"/>
<rect x="0" y="13" width="1" height="1" fill="#b40000"/>
<rect x="1" y="13" width="1" height="1" fill="#bd0000"/>
<rect x="2" y="13" width="1" height="1" fill="#cd0000"/>
<rect x="3" y="13" width="1" height="1" fill="#c40000"/>
<rect x="4" y="13" width="1" height="1" fill="#c10000" fill-opacity="0.4"/>
<rect x="5" y="13" width="1" height="1" fill="#cd1414" fill-opacity="0.812"/>
<rect x="6" y="13" width="1" height="1" fill="#c40000" fill-opacity="0.906"/>
<rect x="7" y="13" width="1" height="1" fill="#c70000" fill-opacity="0.008"/>
<rect x="11" y="13" width="1" height="1" fill="#bd0000" fill-opacity="0.965"/>
<rect x="12" y="13" width="1" height="1" fill="#a10000"/>
<rect x="13" y="13" width="1" height="1" fill="#c57051"/>
<rect x="14" y="13" width="1" height="1" fill="#e5bda9"/>
<rect x="15" y="13" width="1" height="1" fill="#e5bda6"/>
<rect x="16" y="13" width="1" height="1" fill="#b9301e"/>
<rect x="17" y="13" width="1" height="1" fill="#a80000"/>
<rect x="18" y="13" width="1" height="1" fill="#a40000" fill-opacity="0.992"/>
<rect x="19" y="13" width="1" height="1" fill="#b9452b"/>
<rect x="20" y="13" width="1" height="1" fill="#a70f08" fill-opacity="0.992"/>
<rect x="21" y="13" width="1" height="1" fill="#c5785a" fill-opacity="0.008"/>
<rect x="0" y="14" width="1" height="1" fill="#ae0000"/>
<rect x="1" y="14" width="1" height="1" fill="#d90000"/>
<rect x="2" y="14" width="1" height="1" fill="#dc0d11"/>
<rect x="3" y="14" width="1" height="1" fill="#c40000"/>
<rect x="4" y="14" width="1" height="1" fill="#c7000c" fill-opacity="0.996"/>
<rect x="5" y="14" width="1" height="1" fill="#c10000" fill-opacity="0.137"/>
<rect x="10" y="14" width="1" height="1" fill="#cd1315" fill-opacity="0.604"/>
<rect x="11" y="14" width="1" height="1" fill="#c40000" fill-opacity="0.918"/>
<rect x="12" y="14" width="1" height="1" fill="#b00000"/>
<rect x="13" y="14" width="1" height="1" fill="#9e0000"/>
<rect x="14" y="14" width="1" height="1" fill="#a10000"/>
<rect x="15" y="14" width="1" height="1" fill="#9a0000"/>
<rect x="16" y="14" width="1" height="1" fill="#990000"/>
<rect x="17" y="14" width="1" height="1" fill="#b20000"/>
<rect x="18" y="14" width="1" height="1" fill="#910000" fill-opacity="0.6"/>
<rect x="19" y="14" width="1" height="1" fill="#a60000" fill-opacity="0.996"/>
<rect x="20" y="14" width="1" height="1" fill="#9d0000" fill-opacity="0.949"/>
<rect x="21" y="14" width="1" height="1" fill="#b60004" fill-opacity="0.012"/>
<rect x="0" y="15" width="1" height="1" fill="#ad0000"/>
<rect x="1" y="15" width="1" height="1" fill="#db0000"/>
<rect x="2" y="15" width="1" height="1" fill="#f03d2e"/>
<rect x="3" y="15" width="1" height="1" fill="#e44332"/>
<rect x="4" y="15" width="1" height="1" fill="#c10000"/>
<rect x="5" y="15" width="1" height="1" fill="#c10000" fill-opacity="0.69"/>
<rect x="8" y="15" width="1" height="1" fill="#f3f3ed" fill-opacity="0.125"/>
<rect x="9" y="15" width="1" height="1" fill="#c10000" fill-opacity="0.635"/>
<rect x="10" y="15" width="1" height="1" fill="#bb0000" fill-opacity="0.949"/>
<rect x="11" y="15" width="1" height="1" fill="#d90000"/>
<rect x="12" y="15" width="1" height="1" fill="#f5937b"/>
<rect x="13" y="15" width="1" height="1" fill="#ee291b"/>
<rect x="14" y="15" width="1" height="1" fill="#aa0000"/>
<rect x="15" y="15" width="1" height="1" fill="#970000"/>
<rect x="16" y="15" width="1" height="1" fill="#af0000"/>
<rect x="17" y="15" width="1" height="1" fill="#b00000" fill-opacity="0.996"/>
<rect x="18" y="15" width="1" height="1" fill="#af0000" fill-opacity="0.145"/>
<rect x="19" y="15" width="1" height="1" fill="#9b0000" fill-opacity="0.91"/>
<rect x="20" y="15" width="1" height="1" fill="#a80000" fill-opacity="0.976"/>
<rect x="21" y="15" width="1" height="1" fill="#a60000" fill-opacity="0.106"/>
<rect x="0" y="16" width="1" height="1" fill="#ac0000"/>
<rect x="1" y="16" width="1" height="1" fill="#d50000"/>
<rect x="2" y="16" width="1" height="1" fill="#ed3127"/>
<rect x="3" y="16" width="1" height="1" fill="#f58d77"/>
<rect x="4" y="16" width="1" height="1" fill="#d70810"/>
<rect x="5" y="16" width="1" height="1" fill="#c00000" fill-opacity="0.949"/>
<rect x="6" y="16" width="1" height="1" fill="#c50000" fill-opacity="0.902"/>
<rect x="7" y="16" width="1" height="1" fill="#cb000d" fill-opacity="0.961"/>
<rect x="8" y="16" width="1" height="1" fill="#c50000" fill-opacity="0.961"/>
<rect x="9" y="16" width="1" height="1" fill="#ca0000"/>
<rect x="10" y="16" width="1" height="1" fill="#dd2a21"/>
<rect x="11" y="16" width="1" height="1" fill="#f5a48c"/>
<rect x="12" y="16" width="1" height="1" fill="#f5b09b"/>
<rect x="13" y="16" width="1" height="1" fill="#f54534"/>
<rect x="14" y="16" width="1" height="1" fill="#dd0000"/>
<rect x="15" y="16" width="1" height="1" fill="#d20000"/>
<rect x="16" y="16" width="1" height="1" fill="#b60000"/>
<rect x="17" y="16" width="1" height="1" fill="#b20000" fill-opacity="0.969"/>
<rect x="18" y="16" width="1" height="1" fill="#b00000" fill-opacity="0.02"/>
<rect x="19" y="16" width="1" height="1" fill="#8f0000" fill-opacity="0.161"/>
<rect x="20" y="16" width="1" height="1" fill="#b40001" fill-opacity="0.902"/>
<rect x="21" y="16" width="1" height="1" fill="#b30001" fill-opacity="0.525"/>
<rect x="22" y="16" width="1" height="1" fill="#cd1910" fill-opacity="0.012"/>
<rect x="0" y="17" width="1" height="1" fill="#ad0000"/>
<rect x="1" y="17" width="1" height="1" fill="#c90000"/>
<rect x="2" y="17" width="1" height="1" fill="#db0000"/>
<rect x="3" y="17" width="1" height="1" fill="#f50c11"/>
<rect x="4" y="17" width="1" height="1" fill="#f30008"/>
<rect x="5" y="17" width="1" height="1" fill="#e80000"/>
<rect x="6" y="17" width="1" height="1" fill="#ce0000"/>
<rect x="7" y="17" width="1" height="1" fill="#e50a13"/>
<rect x="8" y="17" width="1" height="1" fill="#f31f1a"/>
<rect x="9" y="17" width="1" height="1" fill="#e30007"/>
<rect x="10" y="17" width="1" height="1" fill="#e60003"/>
<rect x="11" y="17" width="1" height="1" fill="#f5533e"/>
<rect x="12" y="17" width="1" height="1" fill="#f57b64"/>
<rect x="13" y="17" width="1" height="1" fill="#f5604b"/>
<rect x="14" y="17" width="1" height="1" fill="#f51413"/>
<rect x="15" y="17" width="1" height="1" fill="#f30000"/>
<rect x="16" y="17" width="1" height="1" fill="#bd0000"/>
<rect x="17" y="17" width="1" height="1" fill="#b30000" fill-opacity="0.969"/>
<rect x="18" y="17" width="1" height="1" fill="#d67d6c" fill-opacity="0.282"/>
<rect x="20" y="17" width="1" height="1" fill="#c72714" fill-opacity="0.137"/>
<rect x="21" y="17" width="1" height="1" fill="#d11b12" fill-opacity="0.114"/>
<rect x="22" y="17" width="1" height="1" fill="#ea3726" fill-opacity="0.004"/>
<rect x="0" y="18" width="1" height="1" fill="#c40000" fill-opacity="0.678"/>
<rect x="1" y="18" width="1" height="1" fill="#b30000"/>
<rect x="2" y="18" width="1" height="1" fill="#cd0000"/>
<rect x="3" y="18" width="1" height="1" fill="#e30000"/>
<rect x="4" y="18" width="1" height="1" fill="#ec0000"/>
<rect x="5" y="18" width="1" height="1" fill="#dc0000"/>
<rect x="6" y="18" width="1" height="1" fill="#e00002"/>
<rect x="7" y="18" width="1" height="1" fill="#f5392b"/>
<rect x="8" y="18" width="1" height="1" fill="#f5362a"/>
<rect x="9" y="18" width="1" height="1" fill="#f51f1a"/>
<rect x="10" y="18" width="1" height="1" fill="#e80000"/>
<rect x="11" y="18" width="1" height="1" fill="#f3080d"/>
<rect x="12" y="18" width="1" height="1" fill="#f55641"/>
<rect x="13" y="18" width="1" height="1" fill="#f55c48"/>
<rect x="14" y="18" width="1" height="1" fill="#f53126"/>
<rect x="15" y="18" width="1" height="1" fill="#f5271d"/>
<rect x="16" y="18" width="1" height="1" fill="#d40000"/>
<rect x="17" y="18" width="1" height="1" fill="#b20000" fill-opacity="0.988"/>
<rect x="18" y="18" width="1" height="1" fill="#c10013" fill-opacity="0.514"/>
<rect x="19" y="18" width="1" height="1" fill="#dd9e8b" fill-opacity="0.012"/>
<rect x="20" y="18" width="1" height="1" fill="#f5f5f1" fill-opacity="0.02"/>
<rect x="0" y="19" width="1" height="1" fill="#f5f5f1" fill-opacity="0.004"/>
<rect x="1" y="19" width="1" height="1" fill="#be0003" fill-opacity="0.961"/>
<rect x="2" y="19" width="1" height="1" fill="#b30000"/>
<rect x="3" y="19" width="1" height="1" fill="#b60000"/>
<rect x="4" y="19" width="1" height="1" fill="#bd0000"/>
<rect x="5" y="19" width="1" height="1" fill="#ce0000"/>
<rect x="6" y="19" width="1" height="1" fill="#d90000"/>
<rect x="7" y="19" width="1" height="1" fill="#e00000"/>
<rect x="8" y="19" width="1" height="1" fill="#d10000"/>
<rect x="9" y="19" width="1" height="1" fill="#dc0000"/>
<rect x="10" y="19" width="1" height="1" fill="#d10000"/>
<rect x="11" y="19" width="1" height="1" fill="#d10000"/>
<rect x="12" y="19" width="1" height="1" fill="#d20000"/>
<rect x="13" y="19" width="1" height="1" fill="#dd0002"/>
<rect x="14" y="19" width="1" height="1" fill="#d40000"/>
<rect x="15" y="19" width="1" height="1" fill="#d10000"/>
<rect x="16" y="19" width="1" height="1" fill="#bc0000"/>
<rect x="17" y="19" width="1" height="1" fill="#b50000"/>
<rect x="18" y="19" width="1" height="1" fill="#b30000" fill-opacity="0.835"/>
<rect x="19" y="19" width="1" height="1" fill="#e5bdad" fill-opacity="0.035"/>
</svg>