<?xml version="1.0" encoding="UTF-8" standalone="no"?>
<svg xmlns="http://www.w3.org/2000/svg" width="26" height="21" shape-rendering="crispEdges">
<rect x="22" y="0" width="1" height="1" fill="#a45c00" fill-opacity="0.039"/>
<rect x="23" y="0" width="1" height="1" fill="#ab6000" fill-opacity="0.769"/>
<rect x="24" y="0" width="1" height="1" fill="#a75103" fill-opacity="0.984"/>
<rect x="19" y="1" width="1" height="1" fill="#ad6100" fill-opacity="0.827"/>
<rect x="20" y="1" width="1" height="1" fill="#a25a00"/>
<rect x="21" y="1" width="1" height="1" fill="#a45c00"/>
<rect x="22" y="1" width="1" height="1" fill="#ab660e"/>
<rect x="23" y="1" width="1" height="1" fill="#bd6a00"/>
<rect x="24" y="1" width="1" height="1" fill="#a75103"/>
<rect x="4" y="2" width="1" height="1" fill="#ffffff" fill-opacity="0.024"/>
<rect x="13" y="2" width="1" height="1" fill="#b96900" fill-opacity="0.949"/>
<rect x="14" y="2" width="1" height="1" fill="#a35a00"/>
<rect x="15" y="2" width="1" height="1" fill="#a45c00"/>
<rect x="16" y="2" width="1" height="1" fill="#a45c00"/>
<rect x="17" y="2" width="1" height="1" fill="#aa5f00"/>
<rect x="18" y="2" width="1" height="1" fill="#a35c00"/>
<rect x="19" y="2" width="1" height="1" fill="#f7b96a"/>
<rect x="20" y="2" width="1" height="1" fill="#ffffff"/>
<rect x="21" y="2" width="1" height="1" fill="#ffffff"/>
<rect x="22" y="2" width="1" height="1" fill="#ffffff"/>
<rect x="23" y="2" width="1" height="1" fill="#eed6b7"/>
<rect x="24" y="2" width="1" height="1" fill="#aa4f08" fill-opacity="0.988"/>
<rect x="4" y="3" width="1" height="1" fill="#ffffff" fill-opacity="0.004"/>
<rect x="7" y="3" width="1" height="1" fill="#b65a00" fill-opacity="0.192"/>
<rect x="12" y="3" width="1" height="1" fill="#be5200" fill-opacity="0.043"/>
<rect x="13" y="3" width="1" height="1" fill="#be5200"/>
<rect x="14" y="3" width="1" height="1" fill="#f0d0ad"/>
<rect x="15" y="3" width="1" height="1" fill="#f4e0c7"/>
<rect x="16" y="3" width="1" height="1" fill="#f5e1c8"/>
<rect x="17" y="3" width="1" height="1" fill="#ffffff"/>
<rect x="18" y="3" width="1" height="1" fill="#ffffff"/>
<rect x="19" y="3" width="1" height="1" fill="#ffffff"/>
<rect x="20" y="3" width="1" height="1" fill="#ffffff"/>
<rect x="21" y="3" width="1" height="1" fill="#ffffff"/>
<rect x="22" y="3" width="1" height="1" fill="#fffefd"/>
<rect x="23" y="3" width="1" height="1" fill="#d1a773"/>
<rect x="24" y="3" width="1" height="1" fill="#a9460d" fill-opacity="0.98"/>
<rect x="6" y="4" width="1" height="1" fill="#b65a00" fill-opacity="0.047"/>
<rect x="7" y="4" width="1" height="1" fill="#b65a00" fill-opacity="0.953"/>
<rect x="8" y="4" width="1" height="1" fill="#b65a00" fill-opacity="0.361"/>
<rect x="12" y="4" width="1" height="1" fill="#be5200" fill-opacity="0.643"/>
<rect x="13" y="4" width="1" height="1" fill="#be5200"/>
<rect x="14" y="4" width="1" height="1" fill="#fcfaf7"/>
<rect x="15" y="4" width="1" height="1" fill="#fdfcfb"/>
<rect x="16" y="4" width="1" height="1" fill="#ffffff"/>
<rect x="17" y="4" width="1" height="1" fill="#ffffff"/>
<rect x="18" y="4" width="1" height="1" fill="#ffffff"/>
<rect x="19" y="4" width="1" height="1" fill="#ffffff"/>
<rect x="20" y="4" width="1" height="1" fill="#ffffff"/>
<rect x="21" y="4" width="1" height="1" fill="#fffdfb"/>
<rect x="22" y="4" width="1" height="1" fill="#d9b689"/>
<rect x="23" y="4" width="1" height="1" fill="#a96000" fill-opacity="0.898"/>
<rect x="24" y="4" width="1" height="1" fill="#a65d00" fill-opacity="0.725"/>
<rect x="4" y="5" width="1" height="1" fill="#b65a00" fill-opacity="0.114"/>
<rect x="5" y="5" width="1" height="1" fill="#ce6602" fill-opacity="0.945"/>
<rect x="6" y="5" width="1" height="1" fill="#b65a00" fill-opacity="0.925"/>
<rect x="7" y="5" width="1" height="1" fill="#b65a00" fill-opacity="0.984"/>
<rect x="8" y="5" width="1" height="1" fill="#b65a00" fill-opacity="0.957"/>
<rect x="9" y="5" width="1" height="1" fill="#cd6701" fill-opacity="0.957"/>
<rect x="10" y="5" width="1" height="1" fill="#b65a00" fill-opacity="0.384"/>
<rect x="11" y="5" width="1" height="1" fill="#b46500" fill-opacity="0.039"/>
<rect x="12" y="5" width="1" height="1" fill="#bb5200" fill-opacity="0.89"/>
<rect x="13" y="5" width="1" height="1" fill="#c75700" fill-opacity="0.941"/>
<rect x="14" y="5" width="1" height="1" fill="#faf8f4"/>
<rect x="15" y="5" width="1" height="1" fill="#fdfcfb"/>
<rect x="16" y="5" width="1" height="1" fill="#fffffe"/>
<rect x="17" y="5" width="1" height="1" fill="#ffffff"/>
<rect x="18" y="5" width="1" height="1" fill="#ffffff"/>
<rect x="19" y="5" width="1" height="1" fill="#f5e1c8"/>
<rect x="20" y="5" width="1" height="1" fill="#f4dfc5"/>
<rect x="21" y="5" width="1" height="1" fill="#cf9f63" fill-opacity="0.988"/>
<rect x="22" y="5" width="1" height="1" fill="#a75e01" fill-opacity="0.882"/>
<rect x="23" y="5" width="1" height="1" fill="#a65e00" fill-opacity="0.945"/>
<rect x="24" y="5" width="1" height="1" fill="#a45c00" fill-opacity="0.043"/>
<rect x="5" y="6" width="1" height="1" fill="#b65a00" fill-opacity="0.776"/>
<rect x="6" y="6" width="1" height="1" fill="#c96300" fill-opacity="0.996"/>
<rect x="7" y="6" width="1" height="1" fill="#b65a00" fill-opacity="0.984"/>
<rect x="8" y="6" width="1" height="1" fill="#b65a00" fill-opacity="0.984"/>
<rect x="9" y="6" width="1" height="1" fill="#b65a00" fill-opacity="0.933"/>
<rect x="10" y="6" width="1" height="1" fill="#b65a00" fill-opacity="0.071"/>
<rect x="11" y="6" width="1" height="1" fill="#be5200" fill-opacity="0.745"/>
<rect x="12" y="6" width="1" height="1" fill="#c75500" fill-opacity="0.996"/>
<rect x="13" y="6" width="1" height="1" fill="#ebd4bb"/>
<rect x="14" y="6" width="1" height="1" fill="#fdfcfb"/>
<rect x="15" y="6" width="1" height="1" fill="#fdfbf8"/>
<rect x="16" y="6" width="1" height="1" fill="#fefdfc"/>
<rect x="17" y="6" width="1" height="1" fill="#ffffff"/>
<rect x="18" y="6" width="1" height="1" fill="#ffffff"/>
<rect x="19" y="6" width="1" height="1" fill="#ffffff"/>
<rect x="20" y="6" width="1" height="1" fill="#fffcf9"/>
<rect x="21" y="6" width="1" height="1" fill="#b1690f"/>
<rect x="22" y="6" width="1" height="1" fill="#aa5f00" fill-opacity="0.894"/>
<rect x="23" y="6" width="1" height="1" fill="#a95f00" fill-opacity="0.235"/>
<rect x="6" y="7" width="1" height="1" fill="#b65a00" fill-opacity="0.973"/>
<rect x="7" y="7" width="1" height="1" fill="#b65a00" fill-opacity="0.984"/>
<rect x="8" y="7" width="1" height="1" fill="#b65a00" fill-opacity="0.984"/>
<rect x="9" y="7" width="1" height="1" fill="#b65a00" fill-opacity="0.525"/>
<rect x="10" y="7" width="1" height="1" fill="#be5200" fill-opacity="0.439"/>
<rect x="11" y="7" width="1" height="1" fill="#be5200"/>
<rect x="12" y="7" width="1" height="1" fill="#f8ede4"/>
<rect x="13" y="7" width="1" height="1" fill="#fdfcfb"/>
<rect x="14" y="7" width="1" height="1" fill="#fdfcfb"/>
<rect x="15" y="7" width="1" height="1" fill="#f4e0c7"/>
<rect x="16" y="7" width="1" height="1" fill="#f5e1c8"/>
<rect x="17" y="7" width="1" height="1" fill="#ffffff"/>
<rect x="18" y="7" width="1" height="1" fill="#ffffff"/>
<rect x="19" y="7" width="1" height="1" fill="#ffffff"/>
<rect x="20" y="7" width="1" height="1" fill="#ffffff"/>
<rect x="21" y="7" width="1" height="1" fill="#fefefd"/>
<rect x="22" y="7" width="1" height="1" fill="#dca761"/>
<rect x="23" y="7" width="1" height="1" fill="#b66600" fill-opacity="0.824"/>
<rect x="24" y="7" width="1" height="1" fill="#a55d00" fill-opacity="0.016"/>
<rect x="4" y="8" width="1" height="1" fill="#bef2b0" fill-opacity="0.004"/>
<rect x="5" y="8" width="1" height="1" fill="#b65a00" fill-opacity="0.114"/>
<rect x="6" y="8" width="1" height="1" fill="#b65a00" fill-opacity="0.945"/>
<rect x="8" y="8" width="1" height="1" fill="#cc6500" fill-opacity="0.973"/>
<rect x="9" y="8" width="1" height="1" fill="#b65a00" fill-opacity="0.659"/>
<rect x="10" y="8" width="1" height="1" fill="#be5200" fill-opacity="0.784"/>
<rect x="11" y="8" width="1" height="1" fill="#de9961"/>
<rect x="12" y="8" width="1" height="1" fill="#fdfcfb"/>
<rect x="13" y="8" width="1" height="1" fill="#fdfcfb"/>
<rect x="14" y="8" width="1" height="1" fill="#f4e0c7"/>
<rect x="15" y="8" width="1" height="1" fill="#f5e1c8"/>
<rect x="16" y="8" width="1" height="1" fill="#f5e1c8"/>
<rect x="17" y="8" width="1" height="1" fill="#f1d4af"/>
<rect x="18" y="8" width="1" height="1" fill="#f5e1c8"/>
<rect x="19" y="8" width="1" height="1" fill="#f5e1c8"/>
<rect x="20" y="8" width="1" height="1" fill="#fffffe"/>
<rect x="21" y="8" width="1" height="1" fill="#ffffff"/>
<rect x="22" y="8" width="1" height="1" fill="#ebc494"/>
<rect x="23" y="8" width="1" height="1" fill="#ab6000"/>
<rect x="24" y="8" width="1" height="1" fill="#ad6100" fill-opacity="0.922"/>
<rect x="3" y="9" width="1" height="1" fill="#16c900" fill-opacity="0.008"/>
<rect x="4" y="9" width="1" height="1" fill="#00ba04" fill-opacity="0.008"/>
<rect x="9" y="9" width="1" height="1" fill="#c85300" fill-opacity="0.031"/>
<rect x="10" y="9" width="1" height="1" fill="#ba5000" fill-opacity="0.953"/>
<rect x="11" y="9" width="1" height="1" fill="#eed2b1"/>
<rect x="12" y="9" width="1" height="1" fill="#fdfcfb"/>
<rect x="13" y="9" width="1" height="1" fill="#fefefd"/>
<rect x="14" y="9" width="1" height="1" fill="#f1cca5"/>
<rect x="15" y="9" width="1" height="1" fill="#db7318"/>
<rect x="16" y="9" width="1" height="1" fill="#cc5a00"/>
<rect x="17" y="9" width="1" height="1" fill="#dc8c4b"/>
<rect x="18" y="9" width="1" height="1" fill="#f4e0c7"/>
<rect x="19" y="9" width="1" height="1" fill="#fff6ea"/>
<rect x="20" y="9" width="1" height="1" fill="#bf7a22" fill-opacity="0.984"/>
<rect x="21" y="9" width="1" height="1" fill="#a95f00" fill-opacity="0.98"/>
<rect x="22" y="9" width="1" height="1" fill="#ae6200" fill-opacity="0.898"/>
<rect x="23" y="9" width="1" height="1" fill="#aa5f00" fill-opacity="0.925"/>
<rect x="24" y="9" width="1" height="1" fill="#ab6000" fill-opacity="0.91"/>
<rect x="2" y="10" width="1" height="1" fill="#e08319" fill-opacity="0.835"/>
<rect x="3" y="10" width="1" height="1" fill="#df780e" fill-opacity="0.965"/>
<rect x="4" y="10" width="1" height="1" fill="#df7607"/>
<rect x="5" y="10" width="1" height="1" fill="#e07708" fill-opacity="0.796"/>
<rect x="6" y="10" width="1" height="1" fill="#e17f17" fill-opacity="0.024"/>
<rect x="8" y="10" width="1" height="1" fill="#b64f00" fill-opacity="0.012"/>
<rect x="10" y="10" width="1" height="1" fill="#b64f00" fill-opacity="0.878"/>
<rect x="11" y="10" width="1" height="1" fill="#e4c093"/>
<rect x="12" y="10" width="1" height="1" fill="#fdfdfc"/>
<rect x="13" y="10" width="1" height="1" fill="#fdfbf8"/>
<rect x="14" y="10" width="1" height="1" fill="#e88832"/>
<rect x="15" y="10" width="1" height="1" fill="#edc7a8"/>
<rect x="16" y="10" width="1" height="1" fill="#e7b688"/>
<rect x="17" y="10" width="1" height="1" fill="#c25500"/>
<rect x="18" y="10" width="1" height="1" fill="#edc69b"/>
<rect x="19" y="10" width="1" height="1" fill="#fcfaf6"/>
<rect x="20" y="10" width="1" height="1" fill="#b87a2b" fill-opacity="0.957"/>
<rect x="21" y="10" width="1" height="1" fill="#a65e00" fill-opacity="0.596"/>
<rect x="22" y="10" width="1" height="1" fill="#a65e00" fill-opacity="0.369"/>
<rect x="23" y="10" width="1" height="1" fill="#a95f00" fill-opacity="0.345"/>
<rect x="24" y="10" width="1" height="1" fill="#aa5f00" fill-opacity="0.043"/>
<rect x="1" y="11" width="1" height="1" fill="#e28018" fill-opacity="0.922"/>
<rect x="2" y="11" width="1" height="1" fill="#d76d02"/>
<rect x="3" y="11" width="1" height="1" fill="#db6f02" fill-opacity="0.996"/>
<rect x="4" y="11" width="1" height="1" fill="#dd7303"/>
<rect x="5" y="11" width="1" height="1" fill="#da7107" fill-opacity="0.996"/>
<rect x="6" y="11" width="1" height="1" fill="#dd7103" fill-opacity="0.859"/>
<rect x="10" y="11" width="1" height="1" fill="#bb4b00" fill-opacity="0.62"/>
<rect x="11" y="11" width="1" height="1" fill="#d1892f"/>
<rect x="12" y="11" width="1" height="1" fill="#fdfdfc"/>
<rect x="13" y="11" width="1" height="1" fill="#fefdfc"/>
<rect x="14" y="11" width="1" height="1" fill="#fefcf9"/>
<rect x="15" y="11" width="1" height="1" fill="#fdfcfb"/>
<rect x="16" y="11" width="1" height="1" fill="#fdfcfb"/>
<rect x="17" y="11" width="1" height="1" fill="#cf5e00"/>
<rect x="18" y="11" width="1" height="1" fill="#db7f31"/>
<rect x="19" y="11" width="1" height="1" fill="#fefcf9"/>
<rect x="20" y="11" width="1" height="1" fill="#be8237" fill-opacity="0.973"/>
<rect x="21" y="11" width="1" height="1" fill="#aa5f00" fill-opacity="0.067"/>
<rect x="0" y="12" width="1" height="1" fill="#bc5e00" fill-opacity="0.243"/>
<rect x="1" y="12" width="1" height="1" fill="#c06000"/>
<rect x="2" y="12" width="1" height="1" fill="#d16700"/>
<rect x="3" y="12" width="1" height="1" fill="#df7806"/>
<rect x="4" y="12" width="1" height="1" fill="#db7a1a"/>
<rect x="5" y="12" width="1" height="1" fill="#da6f02" fill-opacity="0.204"/>
<rect x="6" y="12" width="1" height="1" fill="#dd7104" fill-opacity="0.969"/>
<rect x="7" y="12" width="1" height="1" fill="#dd790e" fill-opacity="0.039"/>
<rect x="10" y="12" width="1" height="1" fill="#ac0d00" fill-opacity="0.004"/>
<rect x="11" y="12" width="1" height="1" fill="#bc6800" fill-opacity="0.996"/>
<rect x="12" y="12" width="1" height="1" fill="#e4c79d"/>
<rect x="13" y="12" width="1" height="1" fill="#fdfcfb"/>
<rect x="14" y="12" width="1" height="1" fill="#fefdfc"/>
<rect x="15" y="12" width="1" height="1" fill="#fdfdfc"/>
<rect x="16" y="12" width="1" height="1" fill="#fdfbf7"/>
<rect x="17" y="12" width="1" height="1" fill="#bf5900"/>
<rect x="18" y="12" width="1" height="1" fill="#d16e13"/>
<rect x="19" y="12" width="1" height="1" fill="#fcf3e8"/>
<rect x="20" y="12" width="1" height="1" fill="#c5904d" fill-opacity="0.984"/>
<rect x="21" y="12" width="1" height="1" fill="#bf863e" fill-opacity="0.016"/>
<rect x="0" y="13" width="1" height="1" fill="#bd5d00"/>
<rect x="1" y="13" width="1" height="1" fill="#ca6600"/>
<rect x="2" y="13" width="1" height="1" fill="#e67a06"/>
<rect x="3" y="13" width="1" height="1" fill="#d66c00"/>
<rect x="4" y="13" width="1" height="1" fill="#da6f02" fill-opacity="0.4"/>
<rect x="5" y="13" width="1" height="1" fill="#e38628" fill-opacity="0.812"/>
<rect x="6" y="13" width="1" height="1" fill="#dd7303" fill-opacity="0.906"/>
<rect x="7" y="13" width="1" height="1" fill="#e07708" fill-opacity="0.008"/>
<rect x="11" y="13" width="1" height="1" fill="#ce7000" fill-opacity="0.965"/>
<rect x="12" y="13" width="1" height="1" fill="#b66700"/>
<rect x="13" y="13" width="1" height="1" fill="#d6ae77"/>
<rect x="14" y="13" width="1" height="1" fill="#f2ddc3"/>
<rect x="15" y="13" width="1" height="1" fill="#f2ddc2"/>
<rect x="16" y="13" width="1" height="1" fill="#cc8b3e"/>
<rect x="17" y="13" width="1" height="1" fill="#b95600"/>
<rect x="18" y="13" width="1" height="1" fill="#bb690a" fill-opacity="0.992"/>
<rect x="19" y="13" width="1" height="1" fill="#cb9650"/>
<rect x="20" y="13" width="1" height="1" fill="#bc7b28" fill-opacity="0.992"/>
<rect x="21" y="13" width="1" height="1" fill="#d5ae7e" fill-opacity="0.008"/>
<rect x="0" y="14" width="1" height="1" fill="#b85c00"/>
<rect x="1" y="14" width="1" height="1" fill="#f17b00"/>
<rect x="2" y="14" width="1" height="1" fill="#f48e22"/>
<rect x="3" y="14" width="1" height="1" fill="#da6f00"/>
<rect x="4" y="14" width="1" height="1" fill="#de7c1b" fill-opacity="0.996"/>
<rect x="5" y="14" width="1" height="1" fill="#da6f02" fill-opacity="0.137"/>
<rect x="10" y="14" width="1" height="1" fill="#e48527" fill-opacity="0.604"/>
<rect x="11" y="14" width="1" height="1" fill="#ce6800" fill-opacity="0.918"/>
<rect x="12" y="14" width="1" height="1" fill="#c26d00"/>
<rect x="13" y="14" width="1" height="1" fill="#b36600"/>
<rect x="14" y="14" width="1" height="1" fill="#b67219"/>
<rect x="15" y="14" width="1" height="1" fill="#b16e0d"/>
<rect x="16" y="14" width="1" height="1" fill="#b06301"/>
<rect x="17" y="14" width="1" height="1" fill="#bb5700"/>
<rect x="18" y="14" width="1" height="1" fill="#a75e00" fill-opacity="0.6"/>
<rect x="19" y="14" width="1" height="1" fill="#bd6e0e" fill-opacity="0.996"/>
<rect x="20" y="14" width="1" height="1" fill="#b46404" fill-opacity="0.949"/>
<rect x="21" y="14" width="1" height="1" fill="#cc7618" fill-opacity="0.012"/>
<rect x="0" y="15" width="1" height="1" fill="#b65a00"/>
<rect x="1" y="15" width="1" height="1" fill="#f58004"/>
<rect x="2" y="15" width="1" height="1" fill="#ffac4e"/>
<rect x="3" y="15" width="1" height="1" fill="#fba84b"/>
<rect x="4" y="15" width="1" height="1" fill="#da6f02"/>
<rect x="5" y="15" width="1" height="1" fill="#da6f02" fill-opacity="0.69"/>
<rect x="8" y="15" width="1" height="1" fill="#fefefd" fill-opacity="0.125"/>
<rect x="9" y="15" width="1" height="1" fill="#d96d03" fill-opacity="0.635"/>
<rect x="10" y="15" width="1" height="1" fill="#c45f00" fill-opacity="0.949"/>
<rect x="11" y="15" width="1" height="1" fill="#ec7b00"/>
<rect x="12" y="15" width="1" height="1" fill="#ffd39e"/>
<rect x="13" y="15" width="1" height="1" fill="#ffa73d"/>
<rect x="14" y="15" width="1" height="1" fill="#bd6900"/>
<rect x="15" y="15" width="1" height="1" fill="#ab6000"/>
<rect x="16" y="15" width="1" height="1" fill="#b95700"/>
<rect x="17" y="15" width="1" height="1" fill="#ba5800" fill-opacity="0.996"/>
<rect x="18" y="15" width="1" height="1" fill="#b95900" fill-opacity="0.145"/>
<rect x="19" y="15" width="1" height="1" fill="#b26506" fill-opacity="0.91"/>
<rect x="20" y="15" width="1" height="1" fill="#bf6c0e" fill-opacity="0.976"/>
<rect x="21" y="15" width="1" height="1" fill="#bd700e" fill-opacity="0.106"/>
<rect x="0" y="16" width="1" height="1" fill="#b55600"/>
<rect x="1" y="16" width="1" height="1" fill="#ee7a00"/>
<rect x="2" y="16" width="1" height="1" fill="#ffa342"/>
<rect x="3" y="16" width="1" height="1" fill="#ffcf99"/>
<rect x="4" y="16" width="1" height="1" fill="#f0891f"/>
<rect x="5" y="16" width="1" height="1" fill="#d36700" fill-opacity="0.949"/>
<rect x="6" y="16" width="1" height="1" fill="#de7208" fill-opacity="0.902"/>
<rect x="7" y="16" width="1" height="1" fill="#e27c1a" fill-opacity="0.961"/>
<rect x="8" y="16" width="1" height="1" fill="#df6c00" fill-opacity="0.961"/>
<rect x="9" y="16" width="1" height="1" fill="#e27100"/>
<rect x="10" y="16" width="1" height="1" fill="#f49837"/>
<rect x="11" y="16" width="1" height="1" fill="#ffdbae"/>
<rect x="12" y="16" width="1" height="1" fill="#ffdfba"/>
<rect x="13" y="16" width="1" height="1" fill="#ffb159"/>
<rect x="14" y="16" width="1" height="1" fill="#f48500"/>
<rect x="15" y="16" width="1" height="1" fill="#dc7600"/>
<rect x="16" y="16" width="1" height="1" fill="#bf5a00"/>
<rect x="17" y="16" width="1" height="1" fill="#bd5300" fill-opacity="0.969"/>
<rect x="18" y="16" width="1" height="1" fill="#ba5800" fill-opacity="0.02"/>
<rect x="19" y="16" width="1" height="1" fill="#a55d00" fill-opacity="0.161"/>
<rect x="20" y="16" width="1" height="1" fill="#ca7817" fill-opacity="0.902"/>
<rect x="21" y="16" width="1" height="1" fill="#c97918" fill-opacity="0.525"/>
<rect x="22" y="16" width="1" height="1" fill="#e3902b" fill-opacity="0.012"/>
<rect x="0" y="17" width="1" height="1" fill="#bb5900"/>
<rect x="1" y="17" width="1" height="1" fill="#d66c00"/>
<rect x="2" y="17" width="1" height="1" fill="#f57d00"/>
<rect x="3" y="17" width="1" height="1" fill="#ff9e31"/>
<rect x="4" y="17" width="1" height="1" fill="#ff9b27"/>
<rect x="5" y="17" width="1" height="1" fill="#fc8600"/>
<rect x="6" y="17" width="1" height="1" fill="#e47400"/>
<rect x="7" y="17" width="1" height="1" fill="#ff9020"/>
<rect x="8" y="17" width="1" height="1" fill="#ffa43c"/>
<rect x="9" y="17" width="1" height="1" fill="#fd8c13"/>
<rect x="10" y="17" width="1" height="1" fill="#ff9013"/>
<rect x="11" y="17" width="1" height="1" fill="#ffb765"/>
<rect x="12" y="17" width="1" height="1" fill="#ffc788"/>
<rect x="13" y="17" width="1" height="1" fill="#ffbb70"/>
<rect x="14" y="17" width="1" height="1" fill="#ffa236"/>
<rect x="15" y="17" width="1" height="1" fill="#ff900e"/>
<rect x="16" y="17" width="1" height="1" fill="#c76400"/>
<rect x="17" y="17" width="1" height="1" fill="#c55600" fill-opacity="0.969"/>
<rect x="18" y="17" width="1" height="1" fill="#e6ad82" fill-opacity="0.282"/>
<rect x="20" y="17" width="1" height="1" fill="#dc9536" fill-opacity="0.137"/>
<rect x="21" y="17" width="1" height="1" fill="#e7952d" fill-opacity="0.114"/>
<rect x="22" y="17" width="1" height="1" fill="#ffac44" fill-opacity="0.004"/>
<rect x="0" y="18" width="1" height="1" fill="#dc7106" fill-opacity="0.678"/>
<rect x="1" y="18" width="1" height="1" fill="#bc5800"/>
<rect x="2" y="18" width="1" height="1" fill="#d76b00"/>
<rect x="3" y="18" width="1" height="1" fill="#f68300"/>
<rect x="4" y="18" width="1" height="1" fill="#fd8700"/>
<rect x="5" y="18" width="1" height="1" fill="#eb7a00"/>
<rect x="6" y="18" width="1" height="1" fill="#fb860a"/>
<rect x="7" y="18" width="1" height="1" fill="#ffad50"/>
<rect x="8" y="18" width="1" height="1" fill="#ffab4e"/>
<rect x="9" y="18" width="1" height="1" fill="#ffa33d"/>
<rect x="10" y="18" width="1" height="1" fill="#fc8500"/>
<rect x="11" y="18" width="1" height="1" fill="#ff9e2e"/>
<rect x="12" y="18" width="1" height="1" fill="#ffb867"/>
<rect x="13" y="18" width="1" height="1" fill="#ffb96c"/>
<rect x="14" y="18" width="1" height="1" fill="#ffa94a"/>
<rect x="15" y="18" width="1" height="1" fill="#ffa742"/>
<rect x="16" y="18" width="1" height="1" fill="#dd7300"/>
<rect x="17" y="18" width="1" height="1" fill="#bb5700" fill-opacity="0.988"/>
<rect x="18" y="18" width="1" height="1" fill="#d7701d" fill-opacity="0.514"/>
<rect x="19" y="18" width="1" height="1" fill="#ecc4a2" fill-opacity="0.012"/>
<rect x="20" y="18" width="1" height="1" fill="#ffffff" fill-opacity="0.02"/>
<rect x="0" y="19" width="1" height="1" fill="#ffffff" fill-opacity="0.004"/>
<rect x="1" y="19" width="1" height="1" fill="#d76e0d" fill-opacity="0.961"/>
<rect x="2" y="19" width="1" height="1" fill="#bc5a00"/>
<rect x="3" y="19" width="1" height="1" fill="#c05f00"/>
<rect x="4" y="19" width="1" height="1" fill="#c66400"/>
<rect x="5" y="19" width="1" height="1" fill="#d76d00"/>
<rect x="6" y="19" width="1" height="1" fill="#f17b00"/>
<rect x="7" y="19" width="1" height="1" fill="#fc8705"/>
<rect x="8" y="19" width="1" height="1" fill="#de7200"/>
<rect x="9" y="19" width="1" height="1" fill="#e67800"/>
<rect x="10" y="19" width="1" height="1" fill="#da7000"/>
<rect x="11" y="19" width="1" height="1" fill="#db7200"/>
<rect x="12" y="19" width="1" height="1" fill="#de7100"/>
<rect x="13" y="19" width="1" height="1" fill="#f78007"/>
<rect x="14" y="19" width="1" height="1" fill="#e67500"/>
<rect x="15" y="19" width="1" height="1" fill="#de7200"/>
<rect x="16" y="19" width="1" height="1" fill="#c56200"/>
<rect x="17" y="19" width="1" height="1" fill="#be5e00"/>
<rect x="18" y="19" width="1" height="1" fill="#be5a00" fill-opacity="0.835"/>
<rect x="19" y="19" width="1" height="1" fill="#f2d7c2" fill-opacity="0.035"/>
</svg>