<?xml version="1.0" encoding="UTF-8" standalone="no"?>
<svg xmlns="http://www.w3.org/2000/svg" width="26" height="21" shape-rendering="crispEdges">
<rect x="22" y="0" width="1" height="1" fill="#d38f00" fill-opacity="0.039"/>
<rect x="23" y="0" width="1" height="1" fill="#d99800" fill-opacity="0.769"/>
<rect x="24" y="0" width="1" height="1" fill="#d98200" fill-opacity="0.984"/>
<rect x="19" y="1" width="1" height="1" fill="#db9900" fill-opacity="0.827"/>
<rect x="20" y="1" width="1" height="1" fill="#d18d00"/>
<rect x="21" y="1" width="1" height="1" fill="#d38f00"/>
<rect x="22" y="1" width="1" height="1" fill="#de9e00"/>
<rect x="23" y="1" width="1" height="1" fill="#eaac00"/>
<rect x="24" y="1" width="1" height="1" fill="#d98200"/>
<rect x="4" y="2" width="1" height="1" fill="#ffffff" fill-opacity="0.024"/>
<rect x="13" y="2" width="1" height="1" fill="#e6aa00" fill-opacity="0.949"/>
<rect x="14" y="2" width="1" height="1" fill="#d18d00"/>
<rect x="15" y="2" width="1" height="1" fill="#d38f00"/>
<rect x="16" y="2" width="1" height="1" fill="#d38f00"/>
<rect x="17" y="2" width="1" height="1" fill="#d99500"/>
<rect x="18" y="2" width="1" height="1" fill="#d18e00"/>
<rect x="19" y="2" width="1" height="1" fill="#fff550"/>
<rect x="20" y="2" width="1" height="1" fill="#ffffff"/>
<rect x="21" y="2" width="1" height="1" fill="#ffffff"/>
<rect x="22" y="2" width="1" height="1" fill="#ffffff"/>
<rect x="23" y="2" width="1" height="1" fill="#fff5a9"/>
<rect x="24" y="2" width="1" height="1" fill="#dc7f00" fill-opacity="0.988"/>
<rect x="4" y="3" width="1" height="1" fill="#ffffff" fill-opacity="0.004"/>
<rect x="7" y="3" width="1" height="1" fill="#e39100" fill-opacity="0.192"/>
<rect x="12" y="3" width="1" height="1" fill="#eb8c00" fill-opacity="0.043"/>
<rect x="13" y="3" width="1" height="1" fill="#eb8c00"/>
<rect x="14" y="3" width="1" height="1" fill="#fff49a"/>
<rect x="15" y="3" width="1" height="1" fill="#fffdbf"/>
<rect x="16" y="3" width="1" height="1" fill="#fdffc0"/>
<rect x="17" y="3" width="1" height="1" fill="#ffffff"/>
<rect x="18" y="3" width="1" height="1" fill="#ffffff"/>
<rect x="19" y="3" width="1" height="1" fill="#ffffff"/>
<rect x="20" y="3" width="1" height="1" fill="#ffffff"/>
<rect x="21" y="3" width="1" height="1" fill="#ffffff"/>
<rect x="22" y="3" width="1" height="1" fill="#ffffff"/>
<rect x="23" y="3" width="1" height="1" fill="#f4d053"/>
<rect x="24" y="3" width="1" height="1" fill="#da7000" fill-opacity="0.98"/>
<rect x="6" y="4" width="1" height="1" fill="#e39100" fill-opacity="0.047"/>
<rect x="7" y="4" width="1" height="1" fill="#e39100" fill-opacity="0.953"/>
<rect x="8" y="4" width="1" height="1" fill="#e39100" fill-opacity="0.361"/>
<rect x="12" y="4" width="1" height="1" fill="#eb8c00" fill-opacity="0.643"/>
<rect x="13" y="4" width="1" height="1" fill="#eb8c00"/>
<rect x="14" y="4" width="1" height="1" fill="#ffffff"/>
<rect x="15" y="4" width="1" height="1" fill="#ffffff"/>
<rect x="16" y="4" width="1" height="1" fill="#ffffff"/>
<rect x="17" y="4" width="1" height="1" fill="#ffffff"/>
<rect x="18" y="4" width="1" height="1" fill="#ffffff"/>
<rect x="19" y="4" width="1" height="1" fill="#ffffff"/>
<rect x="20" y="4" width="1" height="1" fill="#ffffff"/>
<rect x="21" y="4" width="1" height="1" fill="#ffffff"/>
<rect x="22" y="4" width="1" height="1" fill="#f9dc6e"/>
<rect x="23" y="4" width="1" height="1" fill="#d99700" fill-opacity="0.898"/>
<rect x="24" y="4" width="1" height="1" fill="#d59200" fill-opacity="0.725"/>
<rect x="4" y="5" width="1" height="1" fill="#e39100" fill-opacity="0.114"/>
<rect x="5" y="5" width="1" height="1" fill="#faa800" fill-opacity="0.945"/>
<rect x="6" y="5" width="1" height="1" fill="#e39100" fill-opacity="0.925"/>
<rect x="7" y="5" width="1" height="1" fill="#e39100" fill-opacity="0.984"/>
<rect x="8" y="5" width="1" height="1" fill="#e39100" fill-opacity="0.957"/>
<rect x="9" y="5" width="1" height="1" fill="#f9ab00" fill-opacity="0.957"/>
<rect x="10" y="5" width="1" height="1" fill="#e39100" fill-opacity="0.384"/>
<rect x="11" y="5" width="1" height="1" fill="#e3a100" fill-opacity="0.039"/>
<rect x="12" y="5" width="1" height="1" fill="#e88600" fill-opacity="0.89"/>
<rect x="13" y="5" width="1" height="1" fill="#f39200" fill-opacity="0.941"/>
<rect x="14" y="5" width="1" height="1" fill="#ffffff"/>
<rect x="15" y="5" width="1" height="1" fill="#ffffff"/>
<rect x="16" y="5" width="1" height="1" fill="#ffffff"/>
<rect x="17" y="5" width="1" height="1" fill="#ffffff"/>
<rect x="18" y="5" width="1" height="1" fill="#ffffff"/>
<rect x="19" y="5" width="1" height="1" fill="#fdffc0"/>
<rect x="20" y="5" width="1" height="1" fill="#fffcba"/>
<rect x="21" y="5" width="1" height="1" fill="#f4cd40" fill-opacity="0.988"/>
<rect x="22" y="5" width="1" height="1" fill="#d89300" fill-opacity="0.882"/>
<rect x="23" y="5" width="1" height="1" fill="#d59200" fill-opacity="0.945"/>
<rect x="24" y="5" width="1" height="1" fill="#d38f00" fill-opacity="0.043"/>
<rect x="5" y="6" width="1" height="1" fill="#e39100" fill-opacity="0.776"/>
<rect x="6" y="6" width="1" height="1" fill="#f4a300" fill-opacity="0.996"/>
<rect x="7" y="6" width="1" height="1" fill="#e39100" fill-opacity="0.984"/>
<rect x="8" y="6" width="1" height="1" fill="#e39100" fill-opacity="0.984"/>
<rect x="9" y="6" width="1" height="1" fill="#e39100" fill-opacity="0.933"/>
<rect x="10" y="6" width="1" height="1" fill="#e39100" fill-opacity="0.071"/>
<rect x="11" y="6" width="1" height="1" fill="#eb8c00" fill-opacity="0.745"/>
<rect x="12" y="6" width="1" height="1" fill="#f38f00" fill-opacity="0.996"/>
<rect x="13" y="6" width="1" height="1" fill="#ffeeae"/>
<rect x="14" y="6" width="1" height="1" fill="#ffffff"/>
<rect x="15" y="6" width="1" height="1" fill="#ffffff"/>
<rect x="16" y="6" width="1" height="1" fill="#ffffff"/>
<rect x="17" y="6" width="1" height="1" fill="#ffffff"/>
<rect x="18" y="6" width="1" height="1" fill="#ffffff"/>
<rect x="19" y="6" width="1" height="1" fill="#ffffff"/>
<rect x="20" y="6" width="1" height="1" fill="#ffffff"/>
<rect x="21" y="6" width="1" height="1" fill="#e3a300"/>
<rect x="22" y="6" width="1" height="1" fill="#d99500" fill-opacity="0.894"/>
<rect x="23" y="6" width="1" height="1" fill="#d89700" fill-opacity="0.235"/>
<rect x="6" y="7" width="1" height="1" fill="#e39100" fill-opacity="0.973"/>
<rect x="7" y="7" width="1" height="1" fill="#e39100" fill-opacity="0.984"/>
<rect x="8" y="7" width="1" height="1" fill="#e39100" fill-opacity="0.984"/>
<rect x="9" y="7" width="1" height="1" fill="#e39100" fill-opacity="0.525"/>
<rect x="10" y="7" width="1" height="1" fill="#eb8c00" fill-opacity="0.439"/>
<rect x="11" y="7" width="1" height="1" fill="#eb8c00"/>
<rect x="12" y="7" width="1" height="1" fill="#fcffe8"/>
<rect x="13" y="7" width="1" height="1" fill="#ffffff"/>
<rect x="14" y="7" width="1" height="1" fill="#ffffff"/>
<rect x="15" y="7" width="1" height="1" fill="#fffdbf"/>
<rect x="16" y="7" width="1" height="1" fill="#fdffc0"/>
<rect x="17" y="7" width="1" height="1" fill="#ffffff"/>
<rect x="18" y="7" width="1" height="1" fill="#ffffff"/>
<rect x="19" y="7" width="1" height="1" fill="#ffffff"/>
<rect x="20" y="7" width="1" height="1" fill="#ffffff"/>
<rect x="21" y="7" width="1" height="1" fill="#ffffff"/>
<rect x="22" y="7" width="1" height="1" fill="#ffdd3b"/>
<rect x="23" y="7" width="1" height="1" fill="#e3a400" fill-opacity="0.824"/>
<rect x="24" y="7" width="1" height="1" fill="#d39200" fill-opacity="0.016"/>
<rect x="4" y="8" width="1" height="1" fill="#bdff9e" fill-opacity="0.004"/>
<rect x="5" y="8" width="1" height="1" fill="#e39100" fill-opacity="0.114"/>
<rect x="6" y="8" width="1" height="1" fill="#e39100" fill-opacity="0.945"/>
<rect x="8" y="8" width="1" height="1" fill="#f8a800" fill-opacity="0.973"/>
<rect x="9" y="8" width="1" height="1" fill="#e39100" fill-opacity="0.659"/>
<rect x="10" y="8" width="1" height="1" fill="#eb8c00" fill-opacity="0.784"/>
<rect x="11" y="8" width="1" height="1" fill="#ffca3a"/>
<rect x="12" y="8" width="1" height="1" fill="#ffffff"/>
<rect x="13" y="8" width="1" height="1" fill="#ffffff"/>
<rect x="14" y="8" width="1" height="1" fill="#fffdbf"/>
<rect x="15" y="8" width="1" height="1" fill="#fdffc0"/>
<rect x="16" y="8" width="1" height="1" fill="#fdffc0"/>
<rect x="17" y="8" width="1" height="1" fill="#fff99c"/>
<rect x="18" y="8" width="1" height="1" fill="#fdffc0"/>
<rect x="19" y="8" width="1" height="1" fill="#fdffc0"/>
<rect x="20" y="8" width="1" height="1" fill="#ffffff"/>
<rect x="21" y="8" width="1" height="1" fill="#ffffff"/>
<rect x="22" y="8" width="1" height="1" fill="#fff07a"/>
<rect x="23" y="8" width="1" height="1" fill="#d99800"/>
<rect x="24" y="8" width="1" height="1" fill="#db9900" fill-opacity="0.922"/>
<rect x="3" y="9" width="1" height="1" fill="#00e314" fill-opacity="0.008"/>
<rect x="4" y="9" width="1" height="1" fill="#07cc25" fill-opacity="0.008"/>
<rect x="9" y="9" width="1" height="1" fill="#f48f00" fill-opacity="0.031"/>
<rect x="10" y="9" width="1" height="1" fill="#e68500" fill-opacity="0.953"/>
<rect x="11" y="9" width="1" height="1" fill="#fff5a0"/>
<rect x="12" y="9" width="1" height="1" fill="#ffffff"/>
<rect x="13" y="9" width="1" height="1" fill="#ffffff"/>
<rect x="14" y="9" width="1" height="1" fill="#fff58f"/>
<rect x="15" y="9" width="1" height="1" fill="#ffb700"/>
<rect x="16" y="9" width="1" height="1" fill="#f89700"/>
<rect x="17" y="9" width="1" height="1" fill="#ffc221"/>
<rect x="18" y="9" width="1" height="1" fill="#fffdbf"/>
<rect x="19" y="9" width="1" height="1" fill="#fefff3"/>
<rect x="20" y="9" width="1" height="1" fill="#ebb600" fill-opacity="0.984"/>
<rect x="21" y="9" width="1" height="1" fill="#d89700" fill-opacity="0.98"/>
<rect x="22" y="9" width="1" height="1" fill="#dc9900" fill-opacity="0.898"/>
<rect x="23" y="9" width="1" height="1" fill="#d99500" fill-opacity="0.925"/>
<rect x="24" y="9" width="1" height="1" fill="#d99800" fill-opacity="0.91"/>
<rect x="2" y="10" width="1" height="1" fill="#ffd200" fill-opacity="0.835"/>
<rect x="3" y="10" width="1" height="1" fill="#ffc500" fill-opacity="0.965"/>
<rect x="4" y="10" width="1" height="1" fill="#ffc700"/>
<rect x="5" y="10" width="1" height="1" fill="#ffc800" fill-opacity="0.796"/>
<rect x="6" y="10" width="1" height="1" fill="#ffcd00" fill-opacity="0.024"/>
<rect x="8" y="10" width="1" height="1" fill="#e38100" fill-opacity="0.012"/>
<rect x="10" y="10" width="1" height="1" fill="#e38100" fill-opacity="0.878"/>
<rect x="11" y="10" width="1" height="1" fill="#ffe977"/>
<rect x="12" y="10" width="1" height="1" fill="#ffffff"/>
<rect x="13" y="10" width="1" height="1" fill="#ffffff"/>
<rect x="14" y="10" width="1" height="1" fill="#ffcd09"/>
<rect x="15" y="10" width="1" height="1" fill="#ffe793"/>
<rect x="16" y="10" width="1" height="1" fill="#ffdf69"/>
<rect x="17" y="10" width="1" height="1" fill="#ef8f00"/>
<rect x="18" y="10" width="1" height="1" fill="#ffed81"/>
<rect x="19" y="10" width="1" height="1" fill="#ffffff"/>
<rect x="20" y="10" width="1" height="1" fill="#e6b106" fill-opacity="0.957"/>
<rect x="21" y="10" width="1" height="1" fill="#d59200" fill-opacity="0.596"/>
<rect x="22" y="10" width="1" height="1" fill="#d59200" fill-opacity="0.369"/>
<rect x="23" y="10" width="1" height="1" fill="#d89700" fill-opacity="0.345"/>
<rect x="24" y="10" width="1" height="1" fill="#d99500" fill-opacity="0.043"/>
<rect x="1" y="11" width="1" height="1" fill="#ffce00" fill-opacity="0.922"/>
<rect x="2" y="11" width="1" height="1" fill="#ffb800"/>
<rect x="3" y="11" width="1" height="1" fill="#ffb900" fill-opacity="0.996"/>
<rect x="4" y="11" width="1" height="1" fill="#ffc000"/>
<rect x="5" y="11" width="1" height="1" fill="#ffbd00" fill-opacity="0.996"/>
<rect x="6" y="11" width="1" height="1" fill="#ffbe00" fill-opacity="0.859"/>
<rect x="10" y="11" width="1" height="1" fill="#e87e00" fill-opacity="0.62"/>
<rect x="11" y="11" width="1" height="1" fill="#fdcd06"/>
<rect x="12" y="11" width="1" height="1" fill="#ffffff"/>
<rect x="13" y="11" width="1" height="1" fill="#ffffff"/>
<rect x="14" y="11" width="1" height="1" fill="#ffffff"/>
<rect x="15" y="11" width="1" height="1" fill="#ffffff"/>
<rect x="16" y="11" width="1" height="1" fill="#ffffff"/>
<rect x="17" y="11" width="1" height="1" fill="#faa100"/>
<rect x="18" y="11" width="1" height="1" fill="#ffbd07"/>
<rect x="19" y="11" width="1" height="1" fill="#ffffff"/>
<rect x="20" y="11" width="1" height="1" fill="#e9b810" fill-opacity="0.973"/>
<rect x="21" y="11" width="1" height="1" fill="#d99500" fill-opacity="0.067"/>
<rect x="0" y="12" width="1" height="1" fill="#ea9900" fill-opacity="0.243"/>
<rect x="1" y="12" width="1" height="1" fill="#ed9c00"/>
<rect x="2" y="12" width="1" height="1" fill="#fbac00"/>
<rect x="3" y="12" width="1" height="1" fill="#ffc800"/>
<rect x="4" y="12" width="1" height="1" fill="#ffc100"/>
<rect x="5" y="12" width="1" height="1" fill="#ffb800" fill-opacity="0.204"/>
<rect x="6" y="12" width="1" height="1" fill="#ffbe00" fill-opacity="0.969"/>
<rect x="7" y="12" width="1" height="1" fill="#ffc500" fill-opacity="0.039"/>
<rect x="10" y="12" width="1" height="1" fill="#da2b00" fill-opacity="0.004"/>
<rect x="11" y="12" width="1" height="1" fill="#eaa500" fill-opacity="0.996"/>
<rect x="12" y="12" width="1" height="1" fill="#ffed86"/>
<rect x="13" y="12" width="1" height="1" fill="#ffffff"/>
<rect x="14" y="12" width="1" height="1" fill="#ffffff"/>
<rect x="15" y="12" width="1" height="1" fill="#ffffff"/>
<rect x="16" y="12" width="1" height="1" fill="#ffffff"/>
<rect x="17" y="12" width="1" height="1" fill="#eb9500"/>
<rect x="18" y="12" width="1" height="1" fill="#feb100"/>
<rect x="19" y="12" width="1" height="1" fill="#fdffee"/>
<rect x="20" y="12" width="1" height="1" fill="#eec126" fill-opacity="0.984"/>
<rect x="21" y="12" width="1" height="1" fill="#eab819" fill-opacity="0.016"/>
<rect x="0" y="13" width="1" height="1" fill="#ea9900"/>
<rect x="1" y="13" width="1" height="1" fill="#f5aa00"/>
<rect x="2" y="13" width="1" height="1" fill="#ffcd00"/>
<rect x="3" y="13" width="1" height="1" fill="#ffb600"/>
<rect x="4" y="13" width="1" height="1" fill="#ffb800" fill-opacity="0.4"/>
<rect x="5" y="13" width="1" height="1" fill="#ffd000" fill-opacity="0.812"/>
<rect x="6" y="13" width="1" height="1" fill="#ffc300" fill-opacity="0.906"/>
<rect x="7" y="13" width="1" height="1" fill="#ffc800" fill-opacity="0.008"/>
<rect x="11" y="13" width="1" height="1" fill="#f9b900" fill-opacity="0.965"/>
<rect x="12" y="13" width="1" height="1" fill="#e3a400"/>
<rect x="13" y="13" width="1" height="1" fill="#f9dc56"/>
<rect x="14" y="13" width="1" height="1" fill="#fff8b9"/>
<rect x="15" y="13" width="1" height="1" fill="#fffcb8"/>
<rect x="16" y="13" width="1" height="1" fill="#f5c417"/>
<rect x="17" y="13" width="1" height="1" fill="#e68e00"/>
<rect x="18" y="13" width="1" height="1" fill="#eba900" fill-opacity="0.992"/>
<rect x="19" y="13" width="1" height="1" fill="#f3c82a"/>
<rect x="20" y="13" width="1" height="1" fill="#e9b401" fill-opacity="0.992"/>
<rect x="21" y="13" width="1" height="1" fill="#f6d661" fill-opacity="0.008"/>
<rect x="0" y="14" width="1" height="1" fill="#e59500"/>
<rect x="1" y="14" width="1" height="1" fill="#ffcb00"/>
<rect x="2" y="14" width="1" height="1" fill="#ffd704"/>
<rect x="3" y="14" width="1" height="1" fill="#ffb800"/>
<rect x="4" y="14" width="1" height="1" fill="#ffc500" fill-opacity="0.996"/>
<rect x="5" y="14" width="1" height="1" fill="#ffb800" fill-opacity="0.137"/>
<rect x="10" y="14" width="1" height="1" fill="#ffcd00" fill-opacity="0.604"/>
<rect x="11" y="14" width="1" height="1" fill="#f9ac00" fill-opacity="0.918"/>
<rect x="12" y="14" width="1" height="1" fill="#efb100"/>
<rect x="13" y="14" width="1" height="1" fill="#e1a300"/>
<rect x="14" y="14" width="1" height="1" fill="#e5ab00"/>
<rect x="15" y="14" width="1" height="1" fill="#e3ab00"/>
<rect x="16" y="14" width="1" height="1" fill="#de9e00"/>
<rect x="17" y="14" width="1" height="1" fill="#e89000"/>
<rect x="18" y="14" width="1" height="1" fill="#d69400" fill-opacity="0.6"/>
<rect x="19" y="14" width="1" height="1" fill="#edac00" fill-opacity="0.996"/>
<rect x="20" y="14" width="1" height="1" fill="#e5a000" fill-opacity="0.949"/>
<rect x="21" y="14" width="1" height="1" fill="#f9b900" fill-opacity="0.012"/>
<rect x="0" y="15" width="1" height="1" fill="#e39100"/>
<rect x="1" y="15" width="1" height="1" fill="#ffcd00"/>
<rect x="2" y="15" width="1" height="1" fill="#ffe93a"/>
<rect x="3" y="15" width="1" height="1" fill="#ffe532"/>
<rect x="4" y="15" width="1" height="1" fill="#ffb800"/>
<rect x="5" y="15" width="1" height="1" fill="#ffb800" fill-opacity="0.69"/>
<rect x="8" y="15" width="1" height="1" fill="#ffffff" fill-opacity="0.125"/>
<rect x="9" y="15" width="1" height="1" fill="#ffb800" fill-opacity="0.635"/>
<rect x="10" y="15" width="1" height="1" fill="#f09d00" fill-opacity="0.949"/>
<rect x="11" y="15" width="1" height="1" fill="#ffcc00"/>
<rect x="12" y="15" width="1" height="1" fill="#fffa93"/>
<rect x="13" y="15" width="1" height="1" fill="#ffea27"/>
<rect x="14" y="15" width="1" height="1" fill="#eaab00"/>
<rect x="15" y="15" width="1" height="1" fill="#d99800"/>
<rect x="16" y="15" width="1" height="1" fill="#e68f00"/>
<rect x="17" y="15" width="1" height="1" fill="#e69000" fill-opacity="0.996"/>
<rect x="18" y="15" width="1" height="1" fill="#e69100" fill-opacity="0.145"/>
<rect x="19" y="15" width="1" height="1" fill="#e4a100" fill-opacity="0.91"/>
<rect x="20" y="15" width="1" height="1" fill="#eeaa00" fill-opacity="0.976"/>
<rect x="21" y="15" width="1" height="1" fill="#edb100" fill-opacity="0.106"/>
<rect x="0" y="16" width="1" height="1" fill="#e38b00"/>
<rect x="1" y="16" width="1" height="1" fill="#ffc800"/>
<rect x="2" y="16" width="1" height="1" fill="#ffe32e"/>
<rect x="3" y="16" width="1" height="1" fill="#fff78c"/>
<rect x="4" y="16" width="1" height="1" fill="#ffd300"/>
<rect x="5" y="16" width="1" height="1" fill="#feae00" fill-opacity="0.949"/>
<rect x="6" y="16" width="1" height="1" fill="#ffc000" fill-opacity="0.902"/>
<rect x="7" y="16" width="1" height="1" fill="#ffc600" fill-opacity="0.961"/>
<rect x="8" y="16" width="1" height="1" fill="#ffb800" fill-opacity="0.961"/>
<rect x="9" y="16" width="1" height="1" fill="#ffbe00"/>
<rect x="10" y="16" width="1" height="1" fill="#ffde16"/>
<rect x="11" y="16" width="1" height="1" fill="#fffea6"/>
<rect x="12" y="16" width="1" height="1" fill="#fcffb5"/>
<rect x="13" y="16" width="1" height="1" fill="#ffe945"/>
<rect x="14" y="16" width="1" height="1" fill="#ffd700"/>
<rect x="15" y="16" width="1" height="1" fill="#ffc300"/>
<rect x="16" y="16" width="1" height="1" fill="#eb9500"/>
<rect x="17" y="16" width="1" height="1" fill="#ea8c00" fill-opacity="0.969"/>
<rect x="18" y="16" width="1" height="1" fill="#e69000" fill-opacity="0.02"/>
<rect x="19" y="16" width="1" height="1" fill="#d39200" fill-opacity="0.161"/>
<rect x="20" y="16" width="1" height="1" fill="#f9bd00" fill-opacity="0.902"/>
<rect x="21" y="16" width="1" height="1" fill="#f6bd00" fill-opacity="0.525"/>
<rect x="22" y="16" width="1" height="1" fill="#ffe001" fill-opacity="0.012"/>
<rect x="0" y="17" width="1" height="1" fill="#e89100"/>
<rect x="1" y="17" width="1" height="1" fill="#ffb600"/>
<rect x="2" y="17" width="1" height="1" fill="#ffcb00"/>
<rect x="3" y="17" width="1" height="1" fill="#ffe01c"/>
<rect x="4" y="17" width="1" height="1" fill="#ffe112"/>
<rect x="5" y="17" width="1" height="1" fill="#ffd500"/>
<rect x="6" y="17" width="1" height="1" fill="#ffc300"/>
<rect x="7" y="17" width="1" height="1" fill="#ffd80c"/>
<rect x="8" y="17" width="1" height="1" fill="#ffe427"/>
<rect x="9" y="17" width="1" height="1" fill="#ffd600"/>
<rect x="10" y="17" width="1" height="1" fill="#ffdc01"/>
<rect x="11" y="17" width="1" height="1" fill="#ffee51"/>
<rect x="12" y="17" width="1" height="1" fill="#fff37a"/>
<rect x="13" y="17" width="1" height="1" fill="#ffef5e"/>
<rect x="14" y="17" width="1" height="1" fill="#ffe521"/>
<rect x="15" y="17" width="1" height="1" fill="#ffdc00"/>
<rect x="16" y="17" width="1" height="1" fill="#f3a500"/>
<rect x="17" y="17" width="1" height="1" fill="#f09000" fill-opacity="0.969"/>
<rect x="18" y="17" width="1" height="1" fill="#ffd663" fill-opacity="0.282"/>
<rect x="20" y="17" width="1" height="1" fill="#ffdf0a" fill-opacity="0.137"/>
<rect x="21" y="17" width="1" height="1" fill="#ffe602" fill-opacity="0.114"/>
<rect x="22" y="17" width="1" height="1" fill="#ffeb2f" fill-opacity="0.004"/>
<rect x="0" y="18" width="1" height="1" fill="#ffc000" fill-opacity="0.678"/>
<rect x="1" y="18" width="1" height="1" fill="#ea9000"/>
<rect x="2" y="18" width="1" height="1" fill="#ffb600"/>
<rect x="3" y="18" width="1" height="1" fill="#ffd300"/>
<rect x="4" y="18" width="1" height="1" fill="#ffd700"/>
<rect x="5" y="18" width="1" height="1" fill="#ffcc00"/>
<rect x="6" y="18" width="1" height="1" fill="#ffd300"/>
<rect x="7" y="18" width="1" height="1" fill="#ffea3b"/>
<rect x="8" y="18" width="1" height="1" fill="#ffe73a"/>
<rect x="9" y="18" width="1" height="1" fill="#ffe427"/>
<rect x="10" y="18" width="1" height="1" fill="#ffd500"/>
<rect x="11" y="18" width="1" height="1" fill="#ffe31a"/>
<rect x="12" y="18" width="1" height="1" fill="#fff054"/>
<rect x="13" y="18" width="1" height="1" fill="#ffef59"/>
<rect x="14" y="18" width="1" height="1" fill="#ffe835"/>
<rect x="15" y="18" width="1" height="1" fill="#ffe82e"/>
<rect x="16" y="18" width="1" height="1" fill="#ffc100"/>
<rect x="17" y="18" width="1" height="1" fill="#e89000" fill-opacity="0.988"/>
<rect x="18" y="18" width="1" height="1" fill="#ffae00" fill-opacity="0.514"/>
<rect x="19" y="18" width="1" height="1" fill="#ffe78b" fill-opacity="0.012"/>
<rect x="20" y="18" width="1" height="1" fill="#ffffff" fill-opacity="0.02"/>
<rect x="0" y="19" width="1" height="1" fill="#ffffff" fill-opacity="0.004"/>
<rect x="1" y="19" width="1" height="1" fill="#ffb600" fill-opacity="0.961"/>
<rect x="2" y="19" width="1" height="1" fill="#ea9500"/>
<rect x="3" y="19" width="1" height="1" fill="#ed9c00"/>
<rect x="4" y="19" width="1" height="1" fill="#f1a300"/>
<rect x="5" y="19" width="1" height="1" fill="#ffb600"/>
<rect x="6" y="19" width="1" height="1" fill="#ffcb00"/>
<rect x="7" y="19" width="1" height="1" fill="#ffd500"/>
<rect x="8" y="19" width="1" height="1" fill="#ffbe00"/>
<rect x="9" y="19" width="1" height="1" fill="#ffcb00"/>
<rect x="10" y="19" width="1" height="1" fill="#ffb800"/>
<rect x="11" y="19" width="1" height="1" fill="#ffbe00"/>
<rect x="12" y="19" width="1" height="1" fill="#ffbd00"/>
<rect x="13" y="19" width="1" height="1" fill="#ffcc00"/>
<rect x="14" y="19" width="1" height="1" fill="#ffc500"/>
<rect x="15" y="19" width="1" height="1" fill="#ffbe00"/>
<rect x="16" y="19" width="1" height="1" fill="#f0a000"/>
<rect x="17" y="19" width="1" height="1" fill="#eb9a00"/>
<rect x="18" y="19" width="1" height="1" fill="#eb9500" fill-opacity="0.835"/>
<rect x="19" y="19" width="1" height="1" fill="#fff2b8" fill-opacity="0.035"/>
</svg>