<?xml version="1.0" encoding="UTF-8" standalone="no"?>
<svg xmlns="http://www.w3.org/2000/svg" width="26" height="21" shape-rendering="crispEdges">
<rect x="22" y="0" width="1" height="1" fill="#0a7800" fill-opacity="0.039"/>
<rect x="23" y="0" width="1" height="1" fill="#0d8100" fill-opacity="0.769"/>
<rect x="24" y="0" width="1" height="1" fill="#1c8000" fill-opacity="0.984"/>
<rect x="19" y="1" width="1" height="1" fill="#0d8300" fill-opacity="0.827"/>
<rect x="20" y="1" width="1" height="1" fill="#0a7700"/>
<rect x="21" y="1" width="1" height="1" fill="#0a7800"/>
<rect x="22" y="1" width="1" height="1" fill="#1a8600"/>
<rect x="23" y="1" width="1" height="1" fill="#139500"/>
<rect x="24" y="1" width="1" height="1" fill="#1c8000"/>
<rect x="4" y="2" width="1" height="1" fill="#ffffff" fill-opacity="0.024"/>
<rect x="13" y="2" width="1" height="1" fill="#109000" fill-opacity="0.949"/>
<rect x="14" y="2" width="1" height="1" fill="#0a7800"/>
<rect x="15" y="2" width="1" height="1" fill="#0a7800"/>
<rect x="16" y="2" width="1" height="1" fill="#0a7800"/>
<rect x="17" y="2" width="1" height="1" fill="#0e8000"/>
<rect x="18" y="2" width="1" height="1" fill="#0a7800"/>
<rect x="19" y="2" width="1" height="1" fill="#8bf05a"/>
<rect x="20" y="2" width="1" height="1" fill="#ffffff"/>
<rect x="21" y="2" width="1" height="1" fill="#ffffff"/>
<rect x="22" y="2" width="1" height="1" fill="#ffffff"/>
<rect x="23" y="2" width="1" height="1" fill="#d5f3b3"/>
<rect x="24" y="2" width="1" height="1" fill="#298500" fill-opacity="0.988"/>
<rect x="4" y="3" width="1" height="1" fill="#ffffff" fill-opacity="0.004"/>
<rect x="7" y="3" width="1" height="1" fill="#1a8d00" fill-opacity="0.192"/>
<rect x="12" y="3" width="1" height="1" fill="#2b9600" fill-opacity="0.043"/>
<rect x="13" y="3" width="1" height="1" fill="#2b9600"/>
<rect x="14" y="3" width="1" height="1" fill="#cff4a8"/>
<rect x="15" y="3" width="1" height="1" fill="#e3fec8"/>
<rect x="16" y="3" width="1" height="1" fill="#e3ffca"/>
<rect x="17" y="3" width="1" height="1" fill="#ffffff"/>
<rect x="18" y="3" width="1" height="1" fill="#ffffff"/>
<rect x="19" y="3" width="1" height="1" fill="#ffffff"/>
<rect x="20" y="3" width="1" height="1" fill="#ffffff"/>
<rect x="21" y="3" width="1" height="1" fill="#ffffff"/>
<rect x="22" y="3" width="1" height="1" fill="#ffffff"/>
<rect x="23" y="3" width="1" height="1" fill="#90c35e"/>
<rect x="24" y="3" width="1" height="1" fill="#378300" fill-opacity="0.98"/>
<rect x="6" y="4" width="1" height="1" fill="#1a8d00" fill-opacity="0.047"/>
<rect x="7" y="4" width="1" height="1" fill="#1a8d00" fill-opacity="0.953"/>
<rect x="8" y="4" width="1" height="1" fill="#1a8d00" fill-opacity="0.361"/>
<rect x="12" y="4" width="1" height="1" fill="#2b9600" fill-opacity="0.643"/>
<rect x="13" y="4" width="1" height="1" fill="#2b9600"/>
<rect x="14" y="4" width="1" height="1" fill="#ffffff"/>
<rect x="15" y="4" width="1" height="1" fill="#ffffff"/>
<rect x="16" y="4" width="1" height="1" fill="#ffffff"/>
<rect x="17" y="4" width="1" height="1" fill="#ffffff"/>
<rect x="18" y="4" width="1" height="1" fill="#ffffff"/>
<rect x="19" y="4" width="1" height="1" fill="#ffffff"/>
<rect x="20" y="4" width="1" height="1" fill="#ffffff"/>
<rect x="21" y="4" width="1" height="1" fill="#ffffff"/>
<rect x="22" y="4" width="1" height="1" fill="#a5d178"/>
<rect x="23" y="4" width="1" height="1" fill="#0d8000" fill-opacity="0.898"/>
<rect x="24" y="4" width="1" height="1" fill="#0a7b00" fill-opacity="0.725"/>
<rect x="4" y="5" width="1" height="1" fill="#1a8d00" fill-opacity="0.114"/>
<rect x="5" y="5" width="1" height="1" fill="#23aa00" fill-opacity="0.945"/>
<rect x="6" y="5" width="1" height="1" fill="#1a8d00" fill-opacity="0.925"/>
<rect x="7" y="5" width="1" height="1" fill="#1a8d00" fill-opacity="0.984"/>
<rect x="8" y="5" width="1" height="1" fill="#1a8d00" fill-opacity="0.957"/>
<rect x="9" y="5" width="1" height="1" fill="#21a800" fill-opacity="0.957"/>
<rect x="10" y="5" width="1" height="1" fill="#1a8d00" fill-opacity="0.384"/>
<rect x="11" y="5" width="1" height="1" fill="#0e8b00" fill-opacity="0.039"/>
<rect x="12" y="5" width="1" height="1" fill="#269200" fill-opacity="0.89"/>
<rect x="13" y="5" width="1" height="1" fill="#2ca000" fill-opacity="0.941"/>
<rect x="14" y="5" width="1" height="1" fill="#ffffff"/>
<rect x="15" y="5" width="1" height="1" fill="#ffffff"/>
<rect x="16" y="5" width="1" height="1" fill="#ffffff"/>
<rect x="17" y="5" width="1" height="1" fill="#ffffff"/>
<rect x="18" y="5" width="1" height="1" fill="#ffffff"/>
<rect x="19" y="5" width="1" height="1" fill="#e3ffca"/>
<rect x="20" y="5" width="1" height="1" fill="#e1fcc6"/>
<rect x="21" y="5" width="1" height="1" fill="#7ebe4a" fill-opacity="0.988"/>
<rect x="22" y="5" width="1" height="1" fill="#0b7d00" fill-opacity="0.882"/>
<rect x="23" y="5" width="1" height="1" fill="#087b00" fill-opacity="0.945"/>
<rect x="24" y="5" width="1" height="1" fill="#0a7800" fill-opacity="0.043"/>
<rect x="5" y="6" width="1" height="1" fill="#1a8d00" fill-opacity="0.776"/>
<rect x="6" y="6" width="1" height="1" fill="#22a300" fill-opacity="0.996"/>
<rect x="7" y="6" width="1" height="1" fill="#1a8d00" fill-opacity="0.984"/>
<rect x="8" y="6" width="1" height="1" fill="#1a8d00" fill-opacity="0.984"/>
<rect x="9" y="6" width="1" height="1" fill="#1a8d00" fill-opacity="0.933"/>
<rect x="10" y="6" width="1" height="1" fill="#1a8d00" fill-opacity="0.071"/>
<rect x="11" y="6" width="1" height="1" fill="#2b9600" fill-opacity="0.745"/>
<rect x="12" y="6" width="1" height="1" fill="#2ea000" fill-opacity="0.996"/>
<rect x="13" y="6" width="1" height="1" fill="#dbefb9"/>
<rect x="14" y="6" width="1" height="1" fill="#ffffff"/>
<rect x="15" y="6" width="1" height="1" fill="#ffffff"/>
<rect x="16" y="6" width="1" height="1" fill="#ffffff"/>
<rect x="17" y="6" width="1" height="1" fill="#ffffff"/>
<rect x="18" y="6" width="1" height="1" fill="#ffffff"/>
<rect x="19" y="6" width="1" height="1" fill="#ffffff"/>
<rect x="20" y="6" width="1" height="1" fill="#ffffff"/>
<rect x="21" y="6" width="1" height="1" fill="#1f8f00"/>
<rect x="22" y="6" width="1" height="1" fill="#0e8000" fill-opacity="0.894"/>
<rect x="23" y="6" width="1" height="1" fill="#0b7e00" fill-opacity="0.235"/>
<rect x="6" y="7" width="1" height="1" fill="#1a8d00" fill-opacity="0.973"/>
<rect x="7" y="7" width="1" height="1" fill="#1a8d00" fill-opacity="0.984"/>
<rect x="8" y="7" width="1" height="1" fill="#1a8d00" fill-opacity="0.984"/>
<rect x="9" y="7" width="1" height="1" fill="#1a8d00" fill-opacity="0.525"/>
<rect x="10" y="7" width="1" height="1" fill="#2b9600" fill-opacity="0.439"/>
<rect x="11" y="7" width="1" height="1" fill="#2b9600"/>
<rect x="12" y="7" width="1" height="1" fill="#fffff0"/>
<rect x="13" y="7" width="1" height="1" fill="#ffffff"/>
<rect x="14" y="7" width="1" height="1" fill="#ffffff"/>
<rect x="15" y="7" width="1" height="1" fill="#e3fec8"/>
<rect x="16" y="7" width="1" height="1" fill="#e3ffca"/>
<rect x="17" y="7" width="1" height="1" fill="#ffffff"/>
<rect x="18" y="7" width="1" height="1" fill="#ffffff"/>
<rect x="19" y="7" width="1" height="1" fill="#ffffff"/>
<rect x="20" y="7" width="1" height="1" fill="#ffffff"/>
<rect x="21" y="7" width="1" height="1" fill="#ffffff"/>
<rect x="22" y="7" width="1" height="1" fill="#7ecf4b"/>
<rect x="23" y="7" width="1" height="1" fill="#0e8d00" fill-opacity="0.824"/>
<rect x="24" y="7" width="1" height="1" fill="#087900" fill-opacity="0.016"/>
<rect x="4" y="8" width="1" height="1" fill="#cfe8f3" fill-opacity="0.004"/>
<rect x="5" y="8" width="1" height="1" fill="#1a8d00" fill-opacity="0.114"/>
<rect x="6" y="8" width="1" height="1" fill="#1a8d00" fill-opacity="0.945"/>
<rect x="8" y="8" width="1" height="1" fill="#22a500" fill-opacity="0.973"/>
<rect x="9" y="8" width="1" height="1" fill="#1a8d00" fill-opacity="0.659"/>
<rect x="10" y="8" width="1" height="1" fill="#2b9600" fill-opacity="0.784"/>
<rect x="11" y="8" width="1" height="1" fill="#8ad14a"/>
<rect x="12" y="8" width="1" height="1" fill="#ffffff"/>
<rect x="13" y="8" width="1" height="1" fill="#ffffff"/>
<rect x="14" y="8" width="1" height="1" fill="#e3fec8"/>
<rect x="15" y="8" width="1" height="1" fill="#e3ffca"/>
<rect x="16" y="8" width="1" height="1" fill="#e3ffca"/>
<rect x="17" y="8" width="1" height="1" fill="#cff5aa"/>
<rect x="18" y="8" width="1" height="1" fill="#e3ffca"/>
<rect x="19" y="8" width="1" height="1" fill="#e3ffca"/>
<rect x="20" y="8" width="1" height="1" fill="#ffffff"/>
<rect x="21" y="8" width="1" height="1" fill="#ffffff"/>
<rect x="22" y="8" width="1" height="1" fill="#b4ea88"/>
<rect x="23" y="8" width="1" height="1" fill="#0d8100"/>
<rect x="24" y="8" width="1" height="1" fill="#0d8300" fill-opacity="0.922"/>
<rect x="3" y="9" width="1" height="1" fill="#12659a" fill-opacity="0.008"/>
<rect x="4" y="9" width="1" height="1" fill="#0d4587" fill-opacity="0.008"/>
<rect x="9" y="9" width="1" height="1" fill="#30a200" fill-opacity="0.031"/>
<rect x="10" y="9" width="1" height="1" fill="#289100" fill-opacity="0.953"/>
<rect x="11" y="9" width="1" height="1" fill="#d1f3ae"/>
<rect x="12" y="9" width="1" height="1" fill="#ffffff"/>
<rect x="13" y="9" width="1" height="1" fill="#ffffff"/>
<rect x="14" y="9" width="1" height="1" fill="#c7f49e"/>
<rect x="15" y="9" width="1" height="1" fill="#44c001"/>
<rect x="16" y="9" width="1" height="1" fill="#2ca500"/>
<rect x="17" y="9" width="1" height="1" fill="#76cb32"/>
<rect x="18" y="9" width="1" height="1" fill="#e3fec8"/>
<rect x="19" y="9" width="1" height="1" fill="#fffff9"/>
<rect x="20" y="9" width="1" height="1" fill="#37a206" fill-opacity="0.984"/>
<rect x="21" y="9" width="1" height="1" fill="#0b7e00" fill-opacity="0.98"/>
<rect x="22" y="9" width="1" height="1" fill="#0d8300" fill-opacity="0.898"/>
<rect x="23" y="9" width="1" height="1" fill="#0e8000" fill-opacity="0.925"/>
<rect x="24" y="9" width="1" height="1" fill="#0d8100" fill-opacity="0.91"/>
<rect x="2" y="10" width="1" height="1" fill="#38c603" fill-opacity="0.835"/>
<rect x="3" y="10" width="1" height="1" fill="#32c300" fill-opacity="0.965"/>
<rect x="4" y="10" width="1" height="1" fill="#26c100"/>
<rect x="5" y="10" width="1" height="1" fill="#28c200" fill-opacity="0.796"/>
<rect x="6" y="10" width="1" height="1" fill="#3ac701" fill-opacity="0.024"/>
<rect x="8" y="10" width="1" height="1" fill="#268d00" fill-opacity="0.012"/>
<rect x="10" y="10" width="1" height="1" fill="#268d00" fill-opacity="0.878"/>
<rect x="11" y="10" width="1" height="1" fill="#b1e086"/>
<rect x="12" y="10" width="1" height="1" fill="#ffffff"/>
<rect x="13" y="10" width="1" height="1" fill="#ffffff"/>
<rect x="14" y="10" width="1" height="1" fill="#60d51c"/>
<rect x="15" y="10" width="1" height="1" fill="#cceea0"/>
<rect x="16" y="10" width="1" height="1" fill="#ade178"/>
<rect x="17" y="10" width="1" height="1" fill="#2c9a00"/>
<rect x="18" y="10" width="1" height="1" fill="#bced91"/>
<rect x="19" y="10" width="1" height="1" fill="#ffffff"/>
<rect x="20" y="10" width="1" height="1" fill="#409b0f" fill-opacity="0.957"/>
<rect x="21" y="10" width="1" height="1" fill="#087b00" fill-opacity="0.596"/>
<rect x="22" y="10" width="1" height="1" fill="#087b00" fill-opacity="0.369"/>
<rect x="23" y="10" width="1" height="1" fill="#0b7e00" fill-opacity="0.345"/>
<rect x="24" y="10" width="1" height="1" fill="#0e8000" fill-opacity="0.043"/>
<rect x="1" y="11" width="1" height="1" fill="#3bc803" fill-opacity="0.922"/>
<rect x="2" y="11" width="1" height="1" fill="#24b600"/>
<rect x="3" y="11" width="1" height="1" fill="#26b800" fill-opacity="0.996"/>
<rect x="4" y="11" width="1" height="1" fill="#24bb00"/>
<rect x="5" y="11" width="1" height="1" fill="#29bb00" fill-opacity="0.996"/>
<rect x="6" y="11" width="1" height="1" fill="#26bb00" fill-opacity="0.859"/>
<rect x="10" y="11" width="1" height="1" fill="#2d9200" fill-opacity="0.62"/>
<rect x="11" y="11" width="1" height="1" fill="#4bb817"/>
<rect x="12" y="11" width="1" height="1" fill="#ffffff"/>
<rect x="13" y="11" width="1" height="1" fill="#ffffff"/>
<rect x="14" y="11" width="1" height="1" fill="#ffffff"/>
<rect x="15" y="11" width="1" height="1" fill="#ffffff"/>
<rect x="16" y="11" width="1" height="1" fill="#ffffff"/>
<rect x="17" y="11" width="1" height="1" fill="#29a900"/>
<rect x="18" y="11" width="1" height="1" fill="#5dc319"/>
<rect x="19" y="11" width="1" height="1" fill="#ffffff"/>
<rect x="20" y="11" width="1" height="1" fill="#4ca419" fill-opacity="0.973"/>
<rect x="21" y="11" width="1" height="1" fill="#0e8000" fill-opacity="0.067"/>
<rect x="0" y="12" width="1" height="1" fill="#1c9400" fill-opacity="0.243"/>
<rect x="1" y="12" width="1" height="1" fill="#1d9900"/>
<rect x="2" y="12" width="1" height="1" fill="#23ac00"/>
<rect x="3" y="12" width="1" height="1" fill="#22c100"/>
<rect x="4" y="12" width="1" height="1" fill="#3fc103"/>
<rect x="5" y="12" width="1" height="1" fill="#26b800" fill-opacity="0.204"/>
<rect x="6" y="12" width="1" height="1" fill="#26bc00" fill-opacity="0.969"/>
<rect x="7" y="12" width="1" height="1" fill="#2dc100" fill-opacity="0.039"/>
<rect x="10" y="12" width="1" height="1" fill="#5e8200" fill-opacity="0.004"/>
<rect x="11" y="12" width="1" height="1" fill="#129400" fill-opacity="0.996"/>
<rect x="12" y="12" width="1" height="1" fill="#b9e192"/>
<rect x="13" y="12" width="1" height="1" fill="#ffffff"/>
<rect x="14" y="12" width="1" height="1" fill="#ffffff"/>
<rect x="15" y="12" width="1" height="1" fill="#ffffff"/>
<rect x="16" y="12" width="1" height="1" fill="#ffffff"/>
<rect x="17" y="12" width="1" height="1" fill="#249700"/>
<rect x="18" y="12" width="1" height="1" fill="#38b300"/>
<rect x="19" y="12" width="1" height="1" fill="#fffff7"/>
<rect x="20" y="12" width="1" height="1" fill="#67b131" fill-opacity="0.984"/>
<rect x="21" y="12" width="1" height="1" fill="#55a521" fill-opacity="0.016"/>
<rect x="0" y="13" width="1" height="1" fill="#1f9500"/>
<rect x="1" y="13" width="1" height="1" fill="#21a400"/>
<rect x="2" y="13" width="1" height="1" fill="#26ca00"/>
<rect x="3" y="13" width="1" height="1" fill="#23b100"/>
<rect x="4" y="13" width="1" height="1" fill="#26b800" fill-opacity="0.4"/>
<rect x="5" y="13" width="1" height="1" fill="#4ecd10" fill-opacity="0.812"/>
<rect x="6" y="13" width="1" height="1" fill="#23bb00" fill-opacity="0.906"/>
<rect x="7" y="13" width="1" height="1" fill="#28c200" fill-opacity="0.008"/>
<rect x="11" y="13" width="1" height="1" fill="#19a800" fill-opacity="0.965"/>
<rect x="12" y="13" width="1" height="1" fill="#0e8d00"/>
<rect x="13" y="13" width="1" height="1" fill="#92ca63"/>
<rect x="14" y="13" width="1" height="1" fill="#dff9c3"/>
<rect x="15" y="13" width="1" height="1" fill="#def9c2"/>
<rect x="16" y="13" width="1" height="1" fill="#5bb624"/>
<rect x="17" y="13" width="1" height="1" fill="#229000"/>
<rect x="18" y="13" width="1" height="1" fill="#1c9700" fill-opacity="0.992"/>
<rect x="19" y="13" width="1" height="1" fill="#6ab736"/>
<rect x="20" y="13" width="1" height="1" fill="#3d9f0b" fill-opacity="0.992"/>
<rect x="21" y="13" width="1" height="1" fill="#9bcb6a" fill-opacity="0.008"/>
<rect x="0" y="14" width="1" height="1" fill="#1a8f00"/>
<rect x="1" y="14" width="1" height="1" fill="#2bd100"/>
<rect x="2" y="14" width="1" height="1" fill="#4be00f"/>
<rect x="3" y="14" width="1" height="1" fill="#23b600"/>
<rect x="4" y="14" width="1" height="1" fill="#42c305" fill-opacity="0.996"/>
<rect x="5" y="14" width="1" height="1" fill="#26b800" fill-opacity="0.137"/>
<rect x="10" y="14" width="1" height="1" fill="#4ecd10" fill-opacity="0.604"/>
<rect x="11" y="14" width="1" height="1" fill="#1fa800" fill-opacity="0.918"/>
<rect x="12" y="14" width="1" height="1" fill="#139a00"/>
<rect x="13" y="14" width="1" height="1" fill="#0d8a00"/>
<rect x="14" y="14" width="1" height="1" fill="#299500"/>
<rect x="15" y="14" width="1" height="1" fill="#198f00"/>
<rect x="16" y="14" width="1" height="1" fill="#0d8600"/>
<rect x="17" y="14" width="1" height="1" fill="#219200"/>
<rect x="18" y="14" width="1" height="1" fill="#0b7c00" fill-opacity="0.6"/>
<rect x="19" y="14" width="1" height="1" fill="#219b00" fill-opacity="0.996"/>
<rect x="20" y="14" width="1" height="1" fill="#138f00" fill-opacity="0.949"/>
<rect x="21" y="14" width="1" height="1" fill="#36af00" fill-opacity="0.012"/>
<rect x="0" y="15" width="1" height="1" fill="#1a8d00"/>
<rect x="1" y="15" width="1" height="1" fill="#2bdb00"/>
<rect x="2" y="15" width="1" height="1" fill="#78ef3f"/>
<rect x="3" y="15" width="1" height="1" fill="#73ee37"/>
<rect x="4" y="15" width="1" height="1" fill="#26b800"/>
<rect x="5" y="15" width="1" height="1" fill="#26b800" fill-opacity="0.69"/>
<rect x="8" y="15" width="1" height="1" fill="#ffffff" fill-opacity="0.125"/>
<rect x="9" y="15" width="1" height="1" fill="#28b800" fill-opacity="0.635"/>
<rect x="10" y="15" width="1" height="1" fill="#229e00" fill-opacity="0.949"/>
<rect x="11" y="15" width="1" height="1" fill="#26ca00"/>
<rect x="12" y="15" width="1" height="1" fill="#c2ff9a"/>
<rect x="13" y="15" width="1" height="1" fill="#65ed2d"/>
<rect x="14" y="15" width="1" height="1" fill="#149500"/>
<rect x="15" y="15" width="1" height="1" fill="#0d8100"/>
<rect x="16" y="15" width="1" height="1" fill="#219000"/>
<rect x="17" y="15" width="1" height="1" fill="#1f9100" fill-opacity="0.996"/>
<rect x="18" y="15" width="1" height="1" fill="#1d9000" fill-opacity="0.145"/>
<rect x="19" y="15" width="1" height="1" fill="#138f00" fill-opacity="0.91"/>
<rect x="20" y="15" width="1" height="1" fill="#239e00" fill-opacity="0.976"/>
<rect x="21" y="15" width="1" height="1" fill="#1f9b00" fill-opacity="0.106"/>
<rect x="0" y="16" width="1" height="1" fill="#1f8c00"/>
<rect x="1" y="16" width="1" height="1" fill="#28cd00"/>
<rect x="2" y="16" width="1" height="1" fill="#71ee33"/>
<rect x="3" y="16" width="1" height="1" fill="#beff94"/>
<rect x="4" y="16" width="1" height="1" fill="#4adb0b"/>
<rect x="5" y="16" width="1" height="1" fill="#26af00" fill-opacity="0.949"/>
<rect x="6" y="16" width="1" height="1" fill="#2cc100" fill-opacity="0.902"/>
<rect x="7" y="16" width="1" height="1" fill="#42c804" fill-opacity="0.961"/>
<rect x="8" y="16" width="1" height="1" fill="#29bb00" fill-opacity="0.961"/>
<rect x="9" y="16" width="1" height="1" fill="#26be00"/>
<rect x="10" y="16" width="1" height="1" fill="#5de121"/>
<rect x="11" y="16" width="1" height="1" fill="#d2ffaf"/>
<rect x="12" y="16" width="1" height="1" fill="#dbffbc"/>
<rect x="13" y="16" width="1" height="1" fill="#83f34a"/>
<rect x="14" y="16" width="1" height="1" fill="#22d200"/>
<rect x="15" y="16" width="1" height="1" fill="#21b800"/>
<rect x="16" y="16" width="1" height="1" fill="#249700"/>
<rect x="17" y="16" width="1" height="1" fill="#289500" fill-opacity="0.969"/>
<rect x="18" y="16" width="1" height="1" fill="#1f9100" fill-opacity="0.02"/>
<rect x="19" y="16" width="1" height="1" fill="#087900" fill-opacity="0.161"/>
<rect x="20" y="16" width="1" height="1" fill="#2eac00" fill-opacity="0.902"/>
<rect x="21" y="16" width="1" height="1" fill="#2eaa00" fill-opacity="0.525"/>
<rect x="22" y="16" width="1" height="1" fill="#4acf15" fill-opacity="0.012"/>
<rect x="0" y="17" width="1" height="1" fill="#1f9200"/>
<rect x="1" y="17" width="1" height="1" fill="#23b100"/>
<rect x="2" y="17" width="1" height="1" fill="#29d400"/>
<rect x="3" y="17" width="1" height="1" fill="#5bea21"/>
<rect x="4" y="17" width="1" height="1" fill="#51e919"/>
<rect x="5" y="17" width="1" height="1" fill="#28de00"/>
<rect x="6" y="17" width="1" height="1" fill="#26c100"/>
<rect x="7" y="17" width="1" height="1" fill="#51e812"/>
<rect x="8" y="17" width="1" height="1" fill="#67ed2c"/>
<rect x="9" y="17" width="1" height="1" fill="#3fe404"/>
<rect x="10" y="17" width="1" height="1" fill="#3de406"/>
<rect x="11" y="17" width="1" height="1" fill="#8df558"/>
<rect x="12" y="17" width="1" height="1" fill="#affc81"/>
<rect x="13" y="17" width="1" height="1" fill="#9af864"/>
<rect x="14" y="17" width="1" height="1" fill="#5eeb27"/>
<rect x="15" y="17" width="1" height="1" fill="#37e401"/>
<rect x="16" y="17" width="1" height="1" fill="#1fa000"/>
<rect x="17" y="17" width="1" height="1" fill="#299f00" fill-opacity="0.969"/>
<rect x="18" y="17" width="1" height="1" fill="#ade073" fill-opacity="0.282"/>
<rect x="20" y="17" width="1" height="1" fill="#4fc61d" fill-opacity="0.137"/>
<rect x="21" y="17" width="1" height="1" fill="#4bd217" fill-opacity="0.114"/>
<rect x="22" y="17" width="1" height="1" fill="#6aee33" fill-opacity="0.004"/>
<rect x="0" y="18" width="1" height="1" fill="#29be00" fill-opacity="0.678"/>
<rect x="1" y="18" width="1" height="1" fill="#239400"/>
<rect x="2" y="18" width="1" height="1" fill="#24b200"/>
<rect x="3" y="18" width="1" height="1" fill="#24d500"/>
<rect x="4" y="18" width="1" height="1" fill="#26df00"/>
<rect x="5" y="18" width="1" height="1" fill="#24c800"/>
<rect x="6" y="18" width="1" height="1" fill="#32e100"/>
<rect x="7" y="18" width="1" height="1" fill="#79f041"/>
<rect x="8" y="18" width="1" height="1" fill="#78ef3f"/>
<rect x="9" y="18" width="1" height="1" fill="#69ed2d"/>
<rect x="10" y="18" width="1" height="1" fill="#28de00"/>
<rect x="11" y="18" width="1" height="1" fill="#58ea1e"/>
<rect x="12" y="18" width="1" height="1" fill="#90f75b"/>
<rect x="13" y="18" width="1" height="1" fill="#96f760"/>
<rect x="14" y="18" width="1" height="1" fill="#74ef3b"/>
<rect x="15" y="18" width="1" height="1" fill="#6eee33"/>
<rect x="16" y="18" width="1" height="1" fill="#22b800"/>
<rect x="17" y="18" width="1" height="1" fill="#219200" fill-opacity="0.988"/>
<rect x="18" y="18" width="1" height="1" fill="#4bbc05" fill-opacity="0.514"/>
<rect x="19" y="18" width="1" height="1" fill="#c7ed9a" fill-opacity="0.012"/>
<rect x="20" y="18" width="1" height="1" fill="#ffffff" fill-opacity="0.02"/>
<rect x="0" y="19" width="1" height="1" fill="#ffffff" fill-opacity="0.004"/>
<rect x="1" y="19" width="1" height="1" fill="#32b900" fill-opacity="0.961"/>
<rect x="2" y="19" width="1" height="1" fill="#219400"/>
<rect x="3" y="19" width="1" height="1" fill="#1f9900"/>
<rect x="4" y="19" width="1" height="1" fill="#1d9f00"/>
<rect x="5" y="19" width="1" height="1" fill="#22b200"/>
<rect x="6" y="19" width="1" height="1" fill="#2bd100"/>
<rect x="7" y="19" width="1" height="1" fill="#2ce100"/>
<rect x="8" y="19" width="1" height="1" fill="#22b900"/>
<rect x="9" y="19" width="1" height="1" fill="#23c300"/>
<rect x="10" y="19" width="1" height="1" fill="#23b600"/>
<rect x="11" y="19" width="1" height="1" fill="#23b700"/>
<rect x="12" y="19" width="1" height="1" fill="#24b900"/>
<rect x="13" y="19" width="1" height="1" fill="#30df00"/>
<rect x="14" y="19" width="1" height="1" fill="#28c300"/>
<rect x="15" y="19" width="1" height="1" fill="#22b900"/>
<rect x="16" y="19" width="1" height="1" fill="#1f9f00"/>
<rect x="17" y="19" width="1" height="1" fill="#1f9600"/>
<rect x="18" y="19" width="1" height="1" fill="#239600" fill-opacity="0.835"/>
<rect x="19" y="19" width="1" height="1" fill="#e3f9c2" fill-opacity="0.035"/>
</svg>