<?xml version="1.0" encoding="UTF-8" standalone="no"?>
<svg xmlns="http://www.w3.org/2000/svg" width="26" height="21" shape-rendering="crispEdges">
<rect x="22" y="0" width="1" height="1" fill="#023193" fill-opacity="0.039"/>
<rect x="23" y="0" width="1" height="1" fill="#03339d" fill-opacity="0.769"/>
<rect x="24" y="0" width="1" height="1" fill="#03409b" fill-opacity="0.984"/>
<rect x="19" y="1" width="1" height="1" fill="#02339f" fill-opacity="0.827"/>
<rect x="20" y="1" width="1" height="1" fill="#023092"/>
<rect x="21" y="1" width="1" height="1" fill="#023193"/>
<rect x="22" y="1" width="1" height="1" fill="#083ba2"/>
<rect x="23" y="1" width="1" height="1" fill="#033bb2"/>
<rect x="24" y="1" width="1" height="1" fill="#03409b"/>
<rect x="4" y="2" width="1" height="1" fill="#ffffff" fill-opacity="0.024"/>
<rect x="13" y="2" width="1" height="1" fill="#0338ac" fill-opacity="0.949"/>
<rect x="14" y="2" width="1" height="1" fill="#023193"/>
<rect x="15" y="2" width="1" height="1" fill="#023193"/>
<rect x="16" y="2" width="1" height="1" fill="#023193"/>
<rect x="17" y="2" width="1" height="1" fill="#03339b"/>
<rect x="18" y="2" width="1" height="1" fill="#023193"/>
<rect x="19" y="2" width="1" height="1" fill="#5c97ff"/>
<rect x="20" y="2" width="1" height="1" fill="#ffffff"/>
<rect x="21" y="2" width="1" height="1" fill="#ffffff"/>
<rect x="22" y="2" width="1" height="1" fill="#ffffff"/>
<rect x="23" y="2" width="1" height="1" fill="#b4cff9"/>
<rect x="24" y="2" width="1" height="1" fill="#054aa1" fill-opacity="0.988"/>
<rect x="4" y="3" width="1" height="1" fill="#ffffff" fill-opacity="0.004"/>
<rect x="7" y="3" width="1" height="1" fill="#0342aa" fill-opacity="0.192"/>
<rect x="12" y="3" width="1" height="1" fill="#0350b3" fill-opacity="0.043"/>
<rect x="13" y="3" width="1" height="1" fill="#0350b3"/>
<rect x="14" y="3" width="1" height="1" fill="#a9cbfb"/>
<rect x="15" y="3" width="1" height="1" fill="#c9dfff"/>
<rect x="16" y="3" width="1" height="1" fill="#cae0ff"/>
<rect x="17" y="3" width="1" height="1" fill="#ffffff"/>
<rect x="18" y="3" width="1" height="1" fill="#ffffff"/>
<rect x="19" y="3" width="1" height="1" fill="#ffffff"/>
<rect x="20" y="3" width="1" height="1" fill="#ffffff"/>
<rect x="21" y="3" width="1" height="1" fill="#ffffff"/>
<rect x="22" y="3" width="1" height="1" fill="#ffffff"/>
<rect x="23" y="3" width="1" height="1" fill="#6690d2"/>
<rect x="24" y="3" width="1" height="1" fill="#08559e" fill-opacity="0.98"/>
<rect x="6" y="4" width="1" height="1" fill="#0342aa" fill-opacity="0.047"/>
<rect x="7" y="4" width="1" height="1" fill="#0342aa" fill-opacity="0.953"/>
<rect x="8" y="4" width="1" height="1" fill="#0342aa" fill-opacity="0.361"/>
<rect x="12" y="4" width="1" height="1" fill="#0350b3" fill-opacity="0.643"/>
<rect x="13" y="4" width="1" height="1" fill="#0350b3"/>
<rect x="14" y="4" width="1" height="1" fill="#ffffff"/>
<rect x="15" y="4" width="1" height="1" fill="#ffffff"/>
<rect x="16" y="4" width="1" height="1" fill="#ffffff"/>
<rect x="17" y="4" width="1" height="1" fill="#ffffff"/>
<rect x="18" y="4" width="1" height="1" fill="#ffffff"/>
<rect x="19" y="4" width="1" height="1" fill="#ffffff"/>
<rect x="20" y="4" width="1" height="1" fill="#ffffff"/>
<rect x="21" y="4" width="1" height="1" fill="#ffffff"/>
<rect x="22" y="4" width="1" height="1" fill="#7ea2dc"/>
<rect x="23" y="4" width="1" height="1" fill="#03339b" fill-opacity="0.898"/>
<rect x="24" y="4" width="1" height="1" fill="#023196" fill-opacity="0.725"/>
<rect x="4" y="5" width="1" height="1" fill="#0342aa" fill-opacity="0.114"/>
<rect x="5" y="5" width="1" height="1" fill="#034fc9" fill-opacity="0.945"/>
<rect x="6" y="5" width="1" height="1" fill="#0342aa" fill-opacity="0.925"/>
<rect x="7" y="5" width="1" height="1" fill="#0342aa" fill-opacity="0.984"/>
<rect x="8" y="5" width="1" height="1" fill="#0342aa" fill-opacity="0.957"/>
<rect x="9" y="5" width="1" height="1" fill="#034cc5" fill-opacity="0.957"/>
<rect x="10" y="5" width="1" height="1" fill="#0342aa" fill-opacity="0.384"/>
<rect x="11" y="5" width="1" height="1" fill="#0336a6" fill-opacity="0.039"/>
<rect x="12" y="5" width="1" height="1" fill="#034daf" fill-opacity="0.89"/>
<rect x="13" y="5" width="1" height="1" fill="#0356be" fill-opacity="0.941"/>
<rect x="14" y="5" width="1" height="1" fill="#ffffff"/>
<rect x="15" y="5" width="1" height="1" fill="#ffffff"/>
<rect x="16" y="5" width="1" height="1" fill="#ffffff"/>
<rect x="17" y="5" width="1" height="1" fill="#ffffff"/>
<rect x="18" y="5" width="1" height="1" fill="#ffffff"/>
<rect x="19" y="5" width="1" height="1" fill="#cae0ff"/>
<rect x="20" y="5" width="1" height="1" fill="#c7dcff"/>
<rect x="21" y="5" width="1" height="1" fill="#5481cd" fill-opacity="0.988"/>
<rect x="22" y="5" width="1" height="1" fill="#023399" fill-opacity="0.882"/>
<rect x="23" y="5" width="1" height="1" fill="#022f96" fill-opacity="0.945"/>
<rect x="24" y="5" width="1" height="1" fill="#023193" fill-opacity="0.043"/>
<rect x="5" y="6" width="1" height="1" fill="#0342aa" fill-opacity="0.776"/>
<rect x="6" y="6" width="1" height="1" fill="#034cc0" fill-opacity="0.996"/>
<rect x="7" y="6" width="1" height="1" fill="#0342aa" fill-opacity="0.984"/>
<rect x="8" y="6" width="1" height="1" fill="#0342aa" fill-opacity="0.984"/>
<rect x="9" y="6" width="1" height="1" fill="#0342aa" fill-opacity="0.933"/>
<rect x="10" y="6" width="1" height="1" fill="#0342aa" fill-opacity="0.071"/>
<rect x="11" y="6" width="1" height="1" fill="#0350b3" fill-opacity="0.745"/>
<rect x="12" y="6" width="1" height="1" fill="#0356be" fill-opacity="0.996"/>
<rect x="13" y="6" width="1" height="1" fill="#bad4f6"/>
<rect x="14" y="6" width="1" height="1" fill="#ffffff"/>
<rect x="15" y="6" width="1" height="1" fill="#ffffff"/>
<rect x="16" y="6" width="1" height="1" fill="#ffffff"/>
<rect x="17" y="6" width="1" height="1" fill="#ffffff"/>
<rect x="18" y="6" width="1" height="1" fill="#ffffff"/>
<rect x="19" y="6" width="1" height="1" fill="#ffffff"/>
<rect x="20" y="6" width="1" height="1" fill="#ffffff"/>
<rect x="21" y="6" width="1" height="1" fill="#0a3fa9"/>
<rect x="22" y="6" width="1" height="1" fill="#03339b" fill-opacity="0.894"/>
<rect x="23" y="6" width="1" height="1" fill="#03339a" fill-opacity="0.235"/>
<rect x="6" y="7" width="1" height="1" fill="#0342aa" fill-opacity="0.973"/>
<rect x="7" y="7" width="1" height="1" fill="#0342aa" fill-opacity="0.984"/>
<rect x="8" y="7" width="1" height="1" fill="#0342aa" fill-opacity="0.984"/>
<rect x="9" y="7" width="1" height="1" fill="#0342aa" fill-opacity="0.525"/>
<rect x="10" y="7" width="1" height="1" fill="#0350b3" fill-opacity="0.439"/>
<rect x="11" y="7" width="1" height="1" fill="#0350b3"/>
<rect x="12" y="7" width="1" height="1" fill="#edfbff"/>
<rect x="13" y="7" width="1" height="1" fill="#ffffff"/>
<rect x="14" y="7" width="1" height="1" fill="#ffffff"/>
<rect x="15" y="7" width="1" height="1" fill="#c9dfff"/>
<rect x="16" y="7" width="1" height="1" fill="#cae0ff"/>
<rect x="17" y="7" width="1" height="1" fill="#ffffff"/>
<rect x="18" y="7" width="1" height="1" fill="#ffffff"/>
<rect x="19" y="7" width="1" height="1" fill="#ffffff"/>
<rect x="20" y="7" width="1" height="1" fill="#ffffff"/>
<rect x="21" y="7" width="1" height="1" fill="#ffffff"/>
<rect x="22" y="7" width="1" height="1" fill="#5384e0"/>
<rect x="23" y="7" width="1" height="1" fill="#0336aa" fill-opacity="0.824"/>
<rect x="24" y="7" width="1" height="1" fill="#023095" fill-opacity="0.016"/>
<rect x="4" y="8" width="1" height="1" fill="#efacfe" fill-opacity="0.004"/>
<rect x="5" y="8" width="1" height="1" fill="#0342aa" fill-opacity="0.114"/>
<rect x="6" y="8" width="1" height="1" fill="#0342aa" fill-opacity="0.945"/>
<rect x="8" y="8" width="1" height="1" fill="#034cc3" fill-opacity="0.973"/>
<rect x="9" y="8" width="1" height="1" fill="#0342aa" fill-opacity="0.659"/>
<rect x="10" y="8" width="1" height="1" fill="#0350b3" fill-opacity="0.784"/>
<rect x="11" y="8" width="1" height="1" fill="#5295e3"/>
<rect x="12" y="8" width="1" height="1" fill="#ffffff"/>
<rect x="13" y="8" width="1" height="1" fill="#ffffff"/>
<rect x="14" y="8" width="1" height="1" fill="#c9dfff"/>
<rect x="15" y="8" width="1" height="1" fill="#cae0ff"/>
<rect x="16" y="8" width="1" height="1" fill="#cae0ff"/>
<rect x="17" y="8" width="1" height="1" fill="#abcafc"/>
<rect x="18" y="8" width="1" height="1" fill="#cae0ff"/>
<rect x="19" y="8" width="1" height="1" fill="#cae0ff"/>
<rect x="20" y="8" width="1" height="1" fill="#ffffff"/>
<rect x="21" y="8" width="1" height="1" fill="#ffffff"/>
<rect x="22" y="8" width="1" height="1" fill="#8bb2f5"/>
<rect x="23" y="8" width="1" height="1" fill="#03339d"/>
<rect x="24" y="8" width="1" height="1" fill="#02339f" fill-opacity="0.922"/>
<rect x="3" y="9" width="1" height="1" fill="#b203c0" fill-opacity="0.008"/>
<rect x="4" y="9" width="1" height="1" fill="#ad039e" fill-opacity="0.008"/>
<rect x="9" y="9" width="1" height="1" fill="#035abf" fill-opacity="0.031"/>
<rect x="10" y="9" width="1" height="1" fill="#0350ad" fill-opacity="0.953"/>
<rect x="11" y="9" width="1" height="1" fill="#adcbfa"/>
<rect x="12" y="9" width="1" height="1" fill="#ffffff"/>
<rect x="13" y="9" width="1" height="1" fill="#ffffff"/>
<rect x="14" y="9" width="1" height="1" fill="#9fc7fc"/>
<rect x="15" y="9" width="1" height="1" fill="#1168dc"/>
<rect x="16" y="9" width="1" height="1" fill="#0356c3"/>
<rect x="17" y="9" width="1" height="1" fill="#3c89e1"/>
<rect x="18" y="9" width="1" height="1" fill="#c9dfff"/>
<rect x="19" y="9" width="1" height="1" fill="#f6ffff"/>
<rect x="20" y="9" width="1" height="1" fill="#1750ba" fill-opacity="0.984"/>
<rect x="21" y="9" width="1" height="1" fill="#03339a" fill-opacity="0.98"/>
<rect x="22" y="9" width="1" height="1" fill="#02339f" fill-opacity="0.898"/>
<rect x="23" y="9" width="1" height="1" fill="#03339b" fill-opacity="0.925"/>
<rect x="24" y="9" width="1" height="1" fill="#03339d" fill-opacity="0.91"/>
<rect x="2" y="10" width="1" height="1" fill="#115be3" fill-opacity="0.835"/>
<rect x="3" y="10" width="1" height="1" fill="#0a5be2" fill-opacity="0.965"/>
<rect x="4" y="10" width="1" height="1" fill="#0553e1"/>
<rect x="5" y="10" width="1" height="1" fill="#0554e2" fill-opacity="0.796"/>
<rect x="6" y="10" width="1" height="1" fill="#105de5" fill-opacity="0.024"/>
<rect x="8" y="10" width="1" height="1" fill="#034daa" fill-opacity="0.012"/>
<rect x="10" y="10" width="1" height="1" fill="#034daa" fill-opacity="0.878"/>
<rect x="11" y="10" width="1" height="1" fill="#8aadeb"/>
<rect x="12" y="10" width="1" height="1" fill="#ffffff"/>
<rect x="13" y="10" width="1" height="1" fill="#ffffff"/>
<rect x="14" y="10" width="1" height="1" fill="#257cef"/>
<rect x="15" y="10" width="1" height="1" fill="#a2ccf7"/>
<rect x="16" y="10" width="1" height="1" fill="#7db0ef"/>
<rect x="17" y="10" width="1" height="1" fill="#0352b7"/>
<rect x="18" y="10" width="1" height="1" fill="#93bbf7"/>
<rect x="19" y="10" width="1" height="1" fill="#ffffff"/>
<rect x="20" y="10" width="1" height="1" fill="#1f51b3" fill-opacity="0.957"/>
<rect x="21" y="10" width="1" height="1" fill="#022f96" fill-opacity="0.596"/>
<rect x="22" y="10" width="1" height="1" fill="#022f96" fill-opacity="0.369"/>
<rect x="23" y="10" width="1" height="1" fill="#03339a" fill-opacity="0.345"/>
<rect x="24" y="10" width="1" height="1" fill="#03339b" fill-opacity="0.043"/>
<rect x="1" y="11" width="1" height="1" fill="#105ee6" fill-opacity="0.922"/>
<rect x="2" y="11" width="1" height="1" fill="#0351d5"/>
<rect x="3" y="11" width="1" height="1" fill="#0453d8" fill-opacity="0.996"/>
<rect x="4" y="11" width="1" height="1" fill="#0351db"/>
<rect x="5" y="11" width="1" height="1" fill="#0555db" fill-opacity="0.996"/>
<rect x="6" y="11" width="1" height="1" fill="#0354db" fill-opacity="0.859"/>
<rect x="10" y="11" width="1" height="1" fill="#0354af" fill-opacity="0.62"/>
<rect x="11" y="11" width="1" height="1" fill="#235fd1"/>
<rect x="12" y="11" width="1" height="1" fill="#ffffff"/>
<rect x="13" y="11" width="1" height="1" fill="#ffffff"/>
<rect x="14" y="11" width="1" height="1" fill="#ffffff"/>
<rect x="15" y="11" width="1" height="1" fill="#ffffff"/>
<rect x="16" y="11" width="1" height="1" fill="#ffffff"/>
<rect x="17" y="11" width="1" height="1" fill="#0354c7"/>
<rect x="18" y="11" width="1" height="1" fill="#2475dc"/>
<rect x="19" y="11" width="1" height="1" fill="#ffffff"/>
<rect x="20" y="11" width="1" height="1" fill="#285bb9" fill-opacity="0.973"/>
<rect x="21" y="11" width="1" height="1" fill="#03339b" fill-opacity="0.067"/>
<rect x="0" y="12" width="1" height="1" fill="#0344b0" fill-opacity="0.243"/>
<rect x="1" y="12" width="1" height="1" fill="#0346b6"/>
<rect x="2" y="12" width="1" height="1" fill="#034fca"/>
<rect x="3" y="12" width="1" height="1" fill="#0351e1"/>
<rect x="4" y="12" width="1" height="1" fill="#1261df"/>
<rect x="5" y="12" width="1" height="1" fill="#0453d7" fill-opacity="0.204"/>
<rect x="6" y="12" width="1" height="1" fill="#0353dc" fill-opacity="0.969"/>
<rect x="7" y="12" width="1" height="1" fill="#0857e0" fill-opacity="0.039"/>
<rect x="10" y="12" width="1" height="1" fill="#03879e" fill-opacity="0.004"/>
<rect x="11" y="12" width="1" height="1" fill="#033ab0" fill-opacity="0.996"/>
<rect x="12" y="12" width="1" height="1" fill="#94b3eb"/>
<rect x="13" y="12" width="1" height="1" fill="#ffffff"/>
<rect x="14" y="12" width="1" height="1" fill="#ffffff"/>
<rect x="15" y="12" width="1" height="1" fill="#ffffff"/>
<rect x="16" y="12" width="1" height="1" fill="#ffffff"/>
<rect x="17" y="12" width="1" height="1" fill="#0349b4"/>
<rect x="18" y="12" width="1" height="1" fill="#0c5bd0"/>
<rect x="19" y="12" width="1" height="1" fill="#f2feff"/>
<rect x="20" y="12" width="1" height="1" fill="#3e6dc1" fill-opacity="0.984"/>
<rect x="21" y="12" width="1" height="1" fill="#3061ba" fill-opacity="0.016"/>
<rect x="0" y="13" width="1" height="1" fill="#0345b2"/>
<rect x="1" y="13" width="1" height="1" fill="#034ac1"/>
<rect x="2" y="13" width="1" height="1" fill="#0555eb"/>
<rect x="3" y="13" width="1" height="1" fill="#034fcf"/>
<rect x="4" y="13" width="1" height="1" fill="#0453d7" fill-opacity="0.4"/>
<rect x="5" y="13" width="1" height="1" fill="#1c6be7" fill-opacity="0.812"/>
<rect x="6" y="13" width="1" height="1" fill="#0351db" fill-opacity="0.906"/>
<rect x="7" y="13" width="1" height="1" fill="#0554e2" fill-opacity="0.008"/>
<rect x="11" y="13" width="1" height="1" fill="#0344c5" fill-opacity="0.965"/>
<rect x="12" y="13" width="1" height="1" fill="#0336aa"/>
<rect x="13" y="13" width="1" height="1" fill="#6a91d8"/>
<rect x="14" y="13" width="1" height="1" fill="#c4daff"/>
<rect x="15" y="13" width="1" height="1" fill="#c3d8ff"/>
<rect x="16" y="13" width="1" height="1" fill="#316bcc"/>
<rect x="17" y="13" width="1" height="1" fill="#0348ac"/>
<rect x="18" y="13" width="1" height="1" fill="#0640b4" fill-opacity="0.992"/>
<rect x="19" y="13" width="1" height="1" fill="#4171ca"/>
<rect x="20" y="13" width="1" height="1" fill="#1c51b6" fill-opacity="0.992"/>
<rect x="21" y="13" width="1" height="1" fill="#7196d7" fill-opacity="0.008"/>
<rect x="0" y="14" width="1" height="1" fill="#0342ab"/>
<rect x="1" y="14" width="1" height="1" fill="#0459f1"/>
<rect x="2" y="14" width="1" height="1" fill="#186ffe"/>
<rect x="3" y="14" width="1" height="1" fill="#034fd5"/>
<rect x="4" y="14" width="1" height="1" fill="#1365e1" fill-opacity="0.996"/>
<rect x="5" y="14" width="1" height="1" fill="#0453d7" fill-opacity="0.137"/>
<rect x="10" y="14" width="1" height="1" fill="#1b6ce8" fill-opacity="0.604"/>
<rect x="11" y="14" width="1" height="1" fill="#034ac5" fill-opacity="0.918"/>
<rect x="12" y="14" width="1" height="1" fill="#033ab7"/>
<rect x="13" y="14" width="1" height="1" fill="#0333a5"/>
<rect x="14" y="14" width="1" height="1" fill="#1044af"/>
<rect x="15" y="14" width="1" height="1" fill="#0837a9"/>
<rect x="16" y="14" width="1" height="1" fill="#0235a3"/>
<rect x="17" y="14" width="1" height="1" fill="#0349af"/>
<rect x="18" y="14" width="1" height="1" fill="#023297" fill-opacity="0.6"/>
<rect x="19" y="14" width="1" height="1" fill="#0943b8" fill-opacity="0.996"/>
<rect x="20" y="14" width="1" height="1" fill="#033bab" fill-opacity="0.949"/>
<rect x="21" y="14" width="1" height="1" fill="#1055ca" fill-opacity="0.012"/>
<rect x="0" y="15" width="1" height="1" fill="#0342aa"/>
<rect x="1" y="15" width="1" height="1" fill="#055efe"/>
<rect x="2" y="15" width="1" height="1" fill="#4390ff"/>
<rect x="3" y="15" width="1" height="1" fill="#3e8cff"/>
<rect x="4" y="15" width="1" height="1" fill="#0453d7"/>
<rect x="5" y="15" width="1" height="1" fill="#0453d7" fill-opacity="0.69"/>
<rect x="8" y="15" width="1" height="1" fill="#ffffff" fill-opacity="0.125"/>
<rect x="9" y="15" width="1" height="1" fill="#0454d8" fill-opacity="0.635"/>
<rect x="10" y="15" width="1" height="1" fill="#034ab9" fill-opacity="0.949"/>
<rect x="11" y="15" width="1" height="1" fill="#0456eb"/>
<rect x="12" y="15" width="1" height="1" fill="#99c7ff"/>
<rect x="13" y="15" width="1" height="1" fill="#337eff"/>
<rect x="14" y="15" width="1" height="1" fill="#033bb2"/>
<rect x="15" y="15" width="1" height="1" fill="#03339d"/>
<rect x="16" y="15" width="1" height="1" fill="#0348ac"/>
<rect x="17" y="15" width="1" height="1" fill="#0347ad" fill-opacity="0.996"/>
<rect x="18" y="15" width="1" height="1" fill="#0344ac" fill-opacity="0.145"/>
<rect x="19" y="15" width="1" height="1" fill="#0439ab" fill-opacity="0.91"/>
<rect x="20" y="15" width="1" height="1" fill="#0847b9" fill-opacity="0.976"/>
<rect x="21" y="15" width="1" height="1" fill="#0942b8" fill-opacity="0.106"/>
<rect x="0" y="16" width="1" height="1" fill="#0346a9"/>
<rect x="1" y="16" width="1" height="1" fill="#045aed"/>
<rect x="2" y="16" width="1" height="1" fill="#398aff"/>
<rect x="3" y="16" width="1" height="1" fill="#94c4ff"/>
<rect x="4" y="16" width="1" height="1" fill="#166ef9"/>
<rect x="5" y="16" width="1" height="1" fill="#0351cc" fill-opacity="0.949"/>
<rect x="6" y="16" width="1" height="1" fill="#0558e1" fill-opacity="0.902"/>
<rect x="7" y="16" width="1" height="1" fill="#1268e6" fill-opacity="0.961"/>
<rect x="8" y="16" width="1" height="1" fill="#0359db" fill-opacity="0.961"/>
<rect x="9" y="16" width="1" height="1" fill="#0355df"/>
<rect x="10" y="16" width="1" height="1" fill="#297cfe"/>
<rect x="11" y="16" width="1" height="1" fill="#acd2ff"/>
<rect x="12" y="16" width="1" height="1" fill="#bbdcff"/>
<rect x="13" y="16" width="1" height="1" fill="#4f95ff"/>
<rect x="14" y="16" width="1" height="1" fill="#0452f5"/>
<rect x="15" y="16" width="1" height="1" fill="#044cd7"/>
<rect x="16" y="16" width="1" height="1" fill="#0349b4"/>
<rect x="17" y="16" width="1" height="1" fill="#034db2" fill-opacity="0.969"/>
<rect x="18" y="16" width="1" height="1" fill="#0347ad" fill-opacity="0.02"/>
<rect x="19" y="16" width="1" height="1" fill="#023095" fill-opacity="0.161"/>
<rect x="20" y="16" width="1" height="1" fill="#0e4fc7" fill-opacity="0.902"/>
<rect x="21" y="16" width="1" height="1" fill="#104dc5" fill-opacity="0.525"/>
<rect x="22" y="16" width="1" height="1" fill="#2065e8" fill-opacity="0.012"/>
<rect x="0" y="17" width="1" height="1" fill="#0346af"/>
<rect x="1" y="17" width="1" height="1" fill="#034fcf"/>
<rect x="2" y="17" width="1" height="1" fill="#045bf6"/>
<rect x="3" y="17" width="1" height="1" fill="#297dff"/>
<rect x="4" y="17" width="1" height="1" fill="#2073ff"/>
<rect x="5" y="17" width="1" height="1" fill="#055bff"/>
<rect x="6" y="17" width="1" height="1" fill="#0356e1"/>
<rect x="7" y="17" width="1" height="1" fill="#1a77ff"/>
<rect x="8" y="17" width="1" height="1" fill="#3382ff"/>
<rect x="9" y="17" width="1" height="1" fill="#106aff"/>
<rect x="10" y="17" width="1" height="1" fill="#1168ff"/>
<rect x="11" y="17" width="1" height="1" fill="#5b9dff"/>
<rect x="12" y="17" width="1" height="1" fill="#81b9ff"/>
<rect x="13" y="17" width="1" height="1" fill="#66a8ff"/>
<rect x="14" y="17" width="1" height="1" fill="#2e7dff"/>
<rect x="15" y="17" width="1" height="1" fill="#0d62ff"/>
<rect x="16" y="17" width="1" height="1" fill="#0348be"/>
<rect x="17" y="17" width="1" height="1" fill="#0352ba" fill-opacity="0.969"/>
<rect x="18" y="17" width="1" height="1" fill="#77b2ed" fill-opacity="0.282"/>
<rect x="20" y="17" width="1" height="1" fill="#2764df" fill-opacity="0.137"/>
<rect x="21" y="17" width="1" height="1" fill="#2066ec" fill-opacity="0.114"/>
<rect x="22" y="17" width="1" height="1" fill="#3a83ff" fill-opacity="0.004"/>
<rect x="0" y="18" width="1" height="1" fill="#0456df" fill-opacity="0.678"/>
<rect x="1" y="18" width="1" height="1" fill="#0349b0"/>
<rect x="2" y="18" width="1" height="1" fill="#0350d1"/>
<rect x="3" y="18" width="1" height="1" fill="#0457f7"/>
<rect x="4" y="18" width="1" height="1" fill="#055aff"/>
<rect x="5" y="18" width="1" height="1" fill="#0454ea"/>
<rect x="6" y="18" width="1" height="1" fill="#0863ff"/>
<rect x="7" y="18" width="1" height="1" fill="#4590ff"/>
<rect x="8" y="18" width="1" height="1" fill="#4390ff"/>
<rect x="9" y="18" width="1" height="1" fill="#3383ff"/>
<rect x="10" y="18" width="1" height="1" fill="#055dff"/>
<rect x="11" y="18" width="1" height="1" fill="#2678ff"/>
<rect x="12" y="18" width="1" height="1" fill="#5d9fff"/>
<rect x="13" y="18" width="1" height="1" fill="#62a5ff"/>
<rect x="14" y="18" width="1" height="1" fill="#408dff"/>
<rect x="15" y="18" width="1" height="1" fill="#3987ff"/>
<rect x="16" y="18" width="1" height="1" fill="#044fd8"/>
<rect x="17" y="18" width="1" height="1" fill="#0349af" fill-opacity="0.988"/>
<rect x="18" y="18" width="1" height="1" fill="#136bd7" fill-opacity="0.514"/>
<rect x="19" y="18" width="1" height="1" fill="#9bc5f6" fill-opacity="0.012"/>
<rect x="20" y="18" width="1" height="1" fill="#ffffff" fill-opacity="0.02"/>
<rect x="0" y="19" width="1" height="1" fill="#ffffff" fill-opacity="0.004"/>
<rect x="1" y="19" width="1" height="1" fill="#085ad7" fill-opacity="0.961"/>
<rect x="2" y="19" width="1" height="1" fill="#0348b0"/>
<rect x="3" y="19" width="1" height="1" fill="#0346b6"/>
<rect x="4" y="19" width="1" height="1" fill="#0347bd"/>
<rect x="5" y="19" width="1" height="1" fill="#034fd1"/>
<rect x="6" y="19" width="1" height="1" fill="#0459f1"/>
<rect x="7" y="19" width="1" height="1" fill="#065dff"/>
<rect x="8" y="19" width="1" height="1" fill="#0451da"/>
<rect x="9" y="19" width="1" height="1" fill="#0452e3"/>
<rect x="10" y="19" width="1" height="1" fill="#034fd5"/>
<rect x="11" y="19" width="1" height="1" fill="#0450d6"/>
<rect x="12" y="19" width="1" height="1" fill="#0452da"/>
<rect x="13" y="19" width="1" height="1" fill="#0563ff"/>
<rect x="14" y="19" width="1" height="1" fill="#0456e3"/>
<rect x="15" y="19" width="1" height="1" fill="#0451da"/>
<rect x="16" y="19" width="1" height="1" fill="#0348ba"/>
<rect x="17" y="19" width="1" height="1" fill="#0345b3"/>
<rect x="18" y="19" width="1" height="1" fill="#034ab3" fill-opacity="0.835"/>
<rect x="19" y="19" width="1" height="1" fill="#c3e1ff" fill-opacity="0.035"/>
</svg>