<?xml version="1.0" encoding="UTF-8" standalone="no"?>
<svg xmlns="http://www.w3.org/2000/svg" width="26" height="21" shape-rendering="crispEdges">
<rect x="22" y="0" width="1" height="1" fill="#8d188d" fill-opacity="0.039"/>
<rect x="23" y="0" width="1" height="1" fill="#931892" fill-opacity="0.769"/>
<rect x="24" y="0" width="1" height="1" fill="#851b8d" fill-opacity="0.984"/>
<rect x="19" y="1" width="1" height="1" fill="#951895" fill-opacity="0.827"/>
<rect x="20" y="1" width="1" height="1" fill="#8a188a"/>
<rect x="21" y="1" width="1" height="1" fill="#8d188d"/>
<rect x="22" y="1" width="1" height="1" fill="#952695"/>
<rect x="23" y="1" width="1" height="1" fill="#a11ca1"/>
<rect x="24" y="1" width="1" height="1" fill="#841b8d"/>
<rect x="4" y="2" width="1" height="1" fill="#ffffff" fill-opacity="0.024"/>
<rect x="13" y="2" width="1" height="1" fill="#a218a2" fill-opacity="0.949"/>
<rect x="14" y="2" width="1" height="1" fill="#8a188b"/>
<rect x="15" y="2" width="1" height="1" fill="#8c188c"/>
<rect x="16" y="2" width="1" height="1" fill="#8d188d"/>
<rect x="17" y="2" width="1" height="1" fill="#921892"/>
<rect x="18" y="2" width="1" height="1" fill="#8b188b"/>
<rect x="19" y="2" width="1" height="1" fill="#e380e3"/>
<rect x="20" y="2" width="1" height="1" fill="#ffffff"/>
<rect x="21" y="2" width="1" height="1" fill="#ffffff"/>
<rect x="22" y="2" width="1" height="1" fill="#ffffff"/>
<rect x="23" y="2" width="1" height="1" fill="#e6bee5"/>
<rect x="24" y="2" width="1" height="1" fill="#832090" fill-opacity="0.988"/>
<rect x="4" y="3" width="1" height="1" fill="#ffffff" fill-opacity="0.004"/>
<rect x="7" y="3" width="1" height="1" fill="#9e0da9" fill-opacity="0.192"/>
<rect x="12" y="3" width="1" height="1" fill="#9614aa" fill-opacity="0.043"/>
<rect x="13" y="3" width="1" height="1" fill="#9614aa"/>
<rect x="14" y="3" width="1" height="1" fill="#e4b7e6"/>
<rect x="15" y="3" width="1" height="1" fill="#eecfee"/>
<rect x="16" y="3" width="1" height="1" fill="#efd0ef"/>
<rect x="17" y="3" width="1" height="1" fill="#ffffff"/>
<rect x="18" y="3" width="1" height="1" fill="#ffffff"/>
<rect x="19" y="3" width="1" height="1" fill="#ffffff"/>
<rect x="20" y="3" width="1" height="1" fill="#ffffff"/>
<rect x="21" y="3" width="1" height="1" fill="#ffffff"/>
<rect x="22" y="3" width="1" height="1" fill="#fffdff"/>
<rect x="23" y="3" width="1" height="1" fill="#c381c3"/>
<rect x="24" y="3" width="1" height="1" fill="#7d2593" fill-opacity="0.98"/>
<rect x="6" y="4" width="1" height="1" fill="#9e0da9" fill-opacity="0.047"/>
<rect x="7" y="4" width="1" height="1" fill="#9e0da9" fill-opacity="0.953"/>
<rect x="8" y="4" width="1" height="1" fill="#9e0da9" fill-opacity="0.361"/>
<rect x="12" y="4" width="1" height="1" fill="#9614aa" fill-opacity="0.643"/>
<rect x="13" y="4" width="1" height="1" fill="#9614aa"/>
<rect x="14" y="4" width="1" height="1" fill="#fcf9fc"/>
<rect x="15" y="4" width="1" height="1" fill="#fdfbfd"/>
<rect x="16" y="4" width="1" height="1" fill="#ffffff"/>
<rect x="17" y="4" width="1" height="1" fill="#ffffff"/>
<rect x="18" y="4" width="1" height="1" fill="#ffffff"/>
<rect x="19" y="4" width="1" height="1" fill="#ffffff"/>
<rect x="20" y="4" width="1" height="1" fill="#ffffff"/>
<rect x="21" y="4" width="1" height="1" fill="#fffbff"/>
<rect x="22" y="4" width="1" height="1" fill="#cd95cd"/>
<rect x="23" y="4" width="1" height="1" fill="#911a91" fill-opacity="0.898"/>
<rect x="24" y="4" width="1" height="1" fill="#8e188f" fill-opacity="0.725"/>
<rect x="4" y="5" width="1" height="1" fill="#9e0da9" fill-opacity="0.114"/>
<rect x="5" y="5" width="1" height="1" fill="#a620b0" fill-opacity="0.945"/>
<rect x="6" y="5" width="1" height="1" fill="#9e0da9" fill-opacity="0.925"/>
<rect x="7" y="5" width="1" height="1" fill="#9e0da9" fill-opacity="0.984"/>
<rect x="8" y="5" width="1" height="1" fill="#9e0da9" fill-opacity="0.957"/>
<rect x="9" y="5" width="1" height="1" fill="#a61faf" fill-opacity="0.957"/>
<rect x="10" y="5" width="1" height="1" fill="#9e0da9" fill-opacity="0.384"/>
<rect x="11" y="5" width="1" height="1" fill="#9c189c" fill-opacity="0.039"/>
<rect x="12" y="5" width="1" height="1" fill="#9614a8" fill-opacity="0.89"/>
<rect x="13" y="5" width="1" height="1" fill="#991cab" fill-opacity="0.941"/>
<rect x="14" y="5" width="1" height="1" fill="#faf6fa"/>
<rect x="15" y="5" width="1" height="1" fill="#fdfbfd"/>
<rect x="16" y="5" width="1" height="1" fill="#fffeff"/>
<rect x="17" y="5" width="1" height="1" fill="#ffffff"/>
<rect x="18" y="5" width="1" height="1" fill="#ffffff"/>
<rect x="19" y="5" width="1" height="1" fill="#efd0ef"/>
<rect x="20" y="5" width="1" height="1" fill="#eecdee"/>
<rect x="21" y="5" width="1" height="1" fill="#bf73bf" fill-opacity="0.988"/>
<rect x="22" y="5" width="1" height="1" fill="#8f1a8f" fill-opacity="0.882"/>
<rect x="23" y="5" width="1" height="1" fill="#8f188f" fill-opacity="0.945"/>
<rect x="24" y="5" width="1" height="1" fill="#8d188d" fill-opacity="0.043"/>
<rect x="5" y="6" width="1" height="1" fill="#9e0da9" fill-opacity="0.776"/>
<rect x="6" y="6" width="1" height="1" fill="#a41cae" fill-opacity="0.996"/>
<rect x="7" y="6" width="1" height="1" fill="#9e0da9" fill-opacity="0.984"/>
<rect x="8" y="6" width="1" height="1" fill="#9e0da9" fill-opacity="0.984"/>
<rect x="9" y="6" width="1" height="1" fill="#9e0da9" fill-opacity="0.933"/>
<rect x="10" y="6" width="1" height="1" fill="#9e0da9" fill-opacity="0.071"/>
<rect x="11" y="6" width="1" height="1" fill="#9614aa" fill-opacity="0.745"/>
<rect x="12" y="6" width="1" height="1" fill="#991bad" fill-opacity="0.996"/>
<rect x="13" y="6" width="1" height="1" fill="#e3c3e5"/>
<rect x="14" y="6" width="1" height="1" fill="#fdfbfd"/>
<rect x="15" y="6" width="1" height="1" fill="#fdfafd"/>
<rect x="16" y="6" width="1" height="1" fill="#fefcfe"/>
<rect x="17" y="6" width="1" height="1" fill="#ffffff"/>
<rect x="18" y="6" width="1" height="1" fill="#ffffff"/>
<rect x="19" y="6" width="1" height="1" fill="#ffffff"/>
<rect x="20" y="6" width="1" height="1" fill="#fff9ff"/>
<rect x="21" y="6" width="1" height="1" fill="#992799"/>
<rect x="22" y="6" width="1" height="1" fill="#921892" fill-opacity="0.894"/>
<rect x="23" y="6" width="1" height="1" fill="#911891" fill-opacity="0.235"/>
<rect x="6" y="7" width="1" height="1" fill="#9e0da9" fill-opacity="0.973"/>
<rect x="7" y="7" width="1" height="1" fill="#9e0da9" fill-opacity="0.984"/>
<rect x="8" y="7" width="1" height="1" fill="#9e0da9" fill-opacity="0.984"/>
<rect x="9" y="7" width="1" height="1" fill="#9e0da9" fill-opacity="0.525"/>
<rect x="10" y="7" width="1" height="1" fill="#9614aa" fill-opacity="0.439"/>
<rect x="11" y="7" width="1" height="1" fill="#9614aa"/>
<rect x="12" y="7" width="1" height="1" fill="#f4e8f6"/>
<rect x="13" y="7" width="1" height="1" fill="#fdfbfd"/>
<rect x="14" y="7" width="1" height="1" fill="#fdfbfd"/>
<rect x="15" y="7" width="1" height="1" fill="#eecfee"/>
<rect x="16" y="7" width="1" height="1" fill="#efd0ef"/>
<rect x="17" y="7" width="1" height="1" fill="#ffffff"/>
<rect x="18" y="7" width="1" height="1" fill="#ffffff"/>
<rect x="19" y="7" width="1" height="1" fill="#ffffff"/>
<rect x="20" y="7" width="1" height="1" fill="#ffffff"/>
<rect x="21" y="7" width="1" height="1" fill="#fefdfe"/>
<rect x="22" y="7" width="1" height="1" fill="#ca73ca"/>
<rect x="23" y="7" width="1" height="1" fill="#9e189e" fill-opacity="0.824"/>
<rect x="24" y="7" width="1" height="1" fill="#8e188e" fill-opacity="0.016"/>
<rect x="4" y="8" width="1" height="1" fill="#e8c4ba" fill-opacity="0.004"/>
<rect x="5" y="8" width="1" height="1" fill="#9e0da9" fill-opacity="0.114"/>
<rect x="6" y="8" width="1" height="1" fill="#9e0da9" fill-opacity="0.945"/>
<rect x="8" y="8" width="1" height="1" fill="#a51eaf" fill-opacity="0.973"/>
<rect x="9" y="8" width="1" height="1" fill="#9e0da9" fill-opacity="0.659"/>
<rect x="10" y="8" width="1" height="1" fill="#9614aa" fill-opacity="0.784"/>
<rect x="11" y="8" width="1" height="1" fill="#c274cc"/>
<rect x="12" y="8" width="1" height="1" fill="#fdfbfd"/>
<rect x="13" y="8" width="1" height="1" fill="#fdfbfd"/>
<rect x="14" y="8" width="1" height="1" fill="#eecfee"/>
<rect x="15" y="8" width="1" height="1" fill="#efd0ef"/>
<rect x="16" y="8" width="1" height="1" fill="#efd0ef"/>
<rect x="17" y="8" width="1" height="1" fill="#e7b9e7"/>
<rect x="18" y="8" width="1" height="1" fill="#efd0ef"/>
<rect x="19" y="8" width="1" height="1" fill="#efd0ef"/>
<rect x="20" y="8" width="1" height="1" fill="#fffeff"/>
<rect x="21" y="8" width="1" height="1" fill="#ffffff"/>
<rect x="22" y="8" width="1" height="1" fill="#dfa2df"/>
<rect x="23" y="8" width="1" height="1" fill="#931893"/>
<rect x="24" y="8" width="1" height="1" fill="#961896" fill-opacity="0.922"/>
<rect x="3" y="9" width="1" height="1" fill="#b34a17" fill-opacity="0.008"/>
<rect x="4" y="9" width="1" height="1" fill="#ae550c" fill-opacity="0.008"/>
<rect x="9" y="9" width="1" height="1" fill="#991aaf" fill-opacity="0.031"/>
<rect x="10" y="9" width="1" height="1" fill="#9411a9" fill-opacity="0.953"/>
<rect x="11" y="9" width="1" height="1" fill="#e5bbe6"/>
<rect x="12" y="9" width="1" height="1" fill="#fdfbfd"/>
<rect x="13" y="9" width="1" height="1" fill="#fefdfe"/>
<rect x="14" y="9" width="1" height="1" fill="#e5b1e7"/>
<rect x="15" y="9" width="1" height="1" fill="#b136bf"/>
<rect x="16" y="9" width="1" height="1" fill="#9f1cb1"/>
<rect x="17" y="9" width="1" height="1" fill="#bb61c7"/>
<rect x="18" y="9" width="1" height="1" fill="#eecfee"/>
<rect x="19" y="9" width="1" height="1" fill="#fdedfd"/>
<rect x="20" y="9" width="1" height="1" fill="#a93aa9" fill-opacity="0.984"/>
<rect x="21" y="9" width="1" height="1" fill="#911891" fill-opacity="0.98"/>
<rect x="22" y="9" width="1" height="1" fill="#971897" fill-opacity="0.898"/>
<rect x="23" y="9" width="1" height="1" fill="#921892" fill-opacity="0.925"/>
<rect x="24" y="9" width="1" height="1" fill="#931893" fill-opacity="0.91"/>
<rect x="2" y="10" width="1" height="1" fill="#bf37c3" fill-opacity="0.835"/>
<rect x="3" y="10" width="1" height="1" fill="#b92ec1" fill-opacity="0.965"/>
<rect x="4" y="10" width="1" height="1" fill="#b827bf"/>
<rect x="5" y="10" width="1" height="1" fill="#b928c0" fill-opacity="0.796"/>
<rect x="6" y="10" width="1" height="1" fill="#bd35c3" fill-opacity="0.024"/>
<rect x="8" y="10" width="1" height="1" fill="#950da9" fill-opacity="0.012"/>
<rect x="10" y="10" width="1" height="1" fill="#950da9" fill-opacity="0.878"/>
<rect x="11" y="10" width="1" height="1" fill="#d89fd8"/>
<rect x="12" y="10" width="1" height="1" fill="#fdfcfd"/>
<rect x="13" y="10" width="1" height="1" fill="#fdfafd"/>
<rect x="14" y="10" width="1" height="1" fill="#c24ece"/>
<rect x="15" y="10" width="1" height="1" fill="#deb2e3"/>
<rect x="16" y="10" width="1" height="1" fill="#d496d9"/>
<rect x="17" y="10" width="1" height="1" fill="#9917ac"/>
<rect x="18" y="10" width="1" height="1" fill="#dfa7e1"/>
<rect x="19" y="10" width="1" height="1" fill="#fcf8fc"/>
<rect x="20" y="10" width="1" height="1" fill="#a441a4" fill-opacity="0.957"/>
<rect x="21" y="10" width="1" height="1" fill="#8f188f" fill-opacity="0.596"/>
<rect x="22" y="10" width="1" height="1" fill="#8f188f" fill-opacity="0.369"/>
<rect x="23" y="10" width="1" height="1" fill="#911891" fill-opacity="0.345"/>
<rect x="24" y="10" width="1" height="1" fill="#921892" fill-opacity="0.043"/>
<rect x="1" y="11" width="1" height="1" fill="#bd36c4" fill-opacity="0.922"/>
<rect x="2" y="11" width="1" height="1" fill="#b022b8"/>
<rect x="3" y="11" width="1" height="1" fill="#b222bb" fill-opacity="0.996"/>
<rect x="4" y="11" width="1" height="1" fill="#b523bd"/>
<rect x="5" y="11" width="1" height="1" fill="#b327bc" fill-opacity="0.996"/>
<rect x="6" y="11" width="1" height="1" fill="#b423bd" fill-opacity="0.859"/>
<rect x="10" y="11" width="1" height="1" fill="#9112a9" fill-opacity="0.62"/>
<rect x="11" y="11" width="1" height="1" fill="#b947b9"/>
<rect x="12" y="11" width="1" height="1" fill="#fdfcfd"/>
<rect x="13" y="11" width="1" height="1" fill="#fefcfe"/>
<rect x="14" y="11" width="1" height="1" fill="#fefbfe"/>
<rect x="15" y="11" width="1" height="1" fill="#fdfbfd"/>
<rect x="16" y="11" width="1" height="1" fill="#fdfbfd"/>
<rect x="17" y="11" width="1" height="1" fill="#a11fb1"/>
<rect x="18" y="11" width="1" height="1" fill="#b74bc3"/>
<rect x="19" y="11" width="1" height="1" fill="#fefbfe"/>
<rect x="20" y="11" width="1" height="1" fill="#aa4baa" fill-opacity="0.973"/>
<rect x="21" y="11" width="1" height="1" fill="#921892" fill-opacity="0.067"/>
<rect x="0" y="12" width="1" height="1" fill="#a40fad" fill-opacity="0.243"/>
<rect x="1" y="12" width="1" height="1" fill="#a513ae"/>
<rect x="2" y="12" width="1" height="1" fill="#ac1bb7"/>
<rect x="3" y="12" width="1" height="1" fill="#b926bf"/>
<rect x="4" y="12" width="1" height="1" fill="#b637bf"/>
<rect x="5" y="12" width="1" height="1" fill="#b122ba" fill-opacity="0.204"/>
<rect x="6" y="12" width="1" height="1" fill="#b424bd" fill-opacity="0.969"/>
<rect x="7" y="12" width="1" height="1" fill="#b82dbf" fill-opacity="0.039"/>
<rect x="10" y="12" width="1" height="1" fill="#581399" fill-opacity="0.004"/>
<rect x="11" y="12" width="1" height="1" fill="#a318a4" fill-opacity="0.996"/>
<rect x="12" y="12" width="1" height="1" fill="#daa8d8"/>
<rect x="13" y="12" width="1" height="1" fill="#fdfbfd"/>
<rect x="14" y="12" width="1" height="1" fill="#fefcfe"/>
<rect x="15" y="12" width="1" height="1" fill="#fdfcfd"/>
<rect x="16" y="12" width="1" height="1" fill="#fdf9fd"/>
<rect x="17" y="12" width="1" height="1" fill="#9819a6"/>
<rect x="18" y="12" width="1" height="1" fill="#aa2fb5"/>
<rect x="19" y="12" width="1" height="1" fill="#faecfa"/>
<rect x="20" y="12" width="1" height="1" fill="#b35fb3" fill-opacity="0.984"/>
<rect x="21" y="12" width="1" height="1" fill="#ad52ad" fill-opacity="0.016"/>
<rect x="0" y="13" width="1" height="1" fill="#a40eaf"/>
<rect x="1" y="13" width="1" height="1" fill="#ad14b6"/>
<rect x="2" y="13" width="1" height="1" fill="#c028c6"/>
<rect x="3" y="13" width="1" height="1" fill="#b31abc"/>
<rect x="4" y="13" width="1" height="1" fill="#b122ba" fill-opacity="0.4"/>
<rect x="5" y="13" width="1" height="1" fill="#c144c8" fill-opacity="0.812"/>
<rect x="6" y="13" width="1" height="1" fill="#b623bd" fill-opacity="0.906"/>
<rect x="7" y="13" width="1" height="1" fill="#b928c0" fill-opacity="0.008"/>
<rect x="11" y="13" width="1" height="1" fill="#b319b6" fill-opacity="0.965"/>
<rect x="12" y="13" width="1" height="1" fill="#9d199c"/>
<rect x="13" y="13" width="1" height="1" fill="#c885c7"/>
<rect x="14" y="13" width="1" height="1" fill="#eccbec"/>
<rect x="15" y="13" width="1" height="1" fill="#eccaec"/>
<rect x="16" y="13" width="1" height="1" fill="#b754b8"/>
<rect x="17" y="13" width="1" height="1" fill="#9516a3"/>
<rect x="18" y="13" width="1" height="1" fill="#9e24a1" fill-opacity="0.992"/>
<rect x="19" y="13" width="1" height="1" fill="#b962b9"/>
<rect x="20" y="13" width="1" height="1" fill="#a63ea6" fill-opacity="0.992"/>
<rect x="21" y="13" width="1" height="1" fill="#c98cc9" fill-opacity="0.008"/>
<rect x="0" y="14" width="1" height="1" fill="#a00eaa"/>
<rect x="1" y="14" width="1" height="1" fill="#c921d1"/>
<rect x="2" y="14" width="1" height="1" fill="#cf42d6"/>
<rect x="3" y="14" width="1" height="1" fill="#b51dbd"/>
<rect x="4" y="14" width="1" height="1" fill="#b939c2" fill-opacity="0.996"/>
<rect x="5" y="14" width="1" height="1" fill="#b122ba" fill-opacity="0.137"/>
<rect x="10" y="14" width="1" height="1" fill="#bf43c8" fill-opacity="0.604"/>
<rect x="11" y="14" width="1" height="1" fill="#b112bc" fill-opacity="0.918"/>
<rect x="12" y="14" width="1" height="1" fill="#ab18ab"/>
<rect x="13" y="14" width="1" height="1" fill="#9b199a"/>
<rect x="14" y="14" width="1" height="1" fill="#a0319f"/>
<rect x="15" y="14" width="1" height="1" fill="#992596"/>
<rect x="16" y="14" width="1" height="1" fill="#961b96"/>
<rect x="17" y="14" width="1" height="1" fill="#9c10ab"/>
<rect x="18" y="14" width="1" height="1" fill="#901890" fill-opacity="0.6"/>
<rect x="19" y="14" width="1" height="1" fill="#a228a3" fill-opacity="0.996"/>
<rect x="20" y="14" width="1" height="1" fill="#981e9a" fill-opacity="0.949"/>
<rect x="21" y="14" width="1" height="1" fill="#ad33b2" fill-opacity="0.012"/>
<rect x="25" y="14" width="1" height="1" fill="#ec0101" fill-opacity="0.047"/>
<rect x="0" y="15" width="1" height="1" fill="#9e0da9"/>
<rect x="1" y="15" width="1" height="1" fill="#cb28d2"/>
<rect x="2" y="15" width="1" height="1" fill="#e762ec"/>
<rect x="3" y="15" width="1" height="1" fill="#dc65e1"/>
<rect x="4" y="15" width="1" height="1" fill="#b122ba"/>
<rect x="5" y="15" width="1" height="1" fill="#b122ba" fill-opacity="0.69"/>
<rect x="8" y="15" width="1" height="1" fill="#fefdfe" fill-opacity="0.125"/>
<rect x="9" y="15" width="1" height="1" fill="#b023ba" fill-opacity="0.635"/>
<rect x="10" y="15" width="1" height="1" fill="#a611b3" fill-opacity="0.949"/>
<rect x="11" y="15" width="1" height="1" fill="#c91cd0"/>
<rect x="12" y="15" width="1" height="1" fill="#f9a2fb"/>
<rect x="13" y="15" width="1" height="1" fill="#e754e9"/>
<rect x="14" y="15" width="1" height="1" fill="#a418a5"/>
<rect x="15" y="15" width="1" height="1" fill="#941794"/>
<rect x="16" y="15" width="1" height="1" fill="#9c0faa"/>
<rect x="17" y="15" width="1" height="1" fill="#9d0fab" fill-opacity="0.996"/>
<rect x="18" y="15" width="1" height="1" fill="#9c10a9" fill-opacity="0.145"/>
<rect x="19" y="15" width="1" height="1" fill="#982099" fill-opacity="0.91"/>
<rect x="20" y="15" width="1" height="1" fill="#a128a5" fill-opacity="0.976"/>
<rect x="21" y="15" width="1" height="1" fill="#a328a3" fill-opacity="0.106"/>
<rect x="25" y="15" width="1" height="1" fill="#ff0000" fill-opacity="0.008"/>
<rect x="0" y="16" width="1" height="1" fill="#990ea7"/>
<rect x="1" y="16" width="1" height="1" fill="#c322cc"/>
<rect x="2" y="16" width="1" height="1" fill="#e159e8"/>
<rect x="3" y="16" width="1" height="1" fill="#f79efa"/>
<rect x="4" y="16" width="1" height="1" fill="#ca3fd2"/>
<rect x="5" y="16" width="1" height="1" fill="#ae1bb9" fill-opacity="0.949"/>
<rect x="6" y="16" width="1" height="1" fill="#b528bf" fill-opacity="0.902"/>
<rect x="7" y="16" width="1" height="1" fill="#bb38c5" fill-opacity="0.961"/>
<rect x="8" y="16" width="1" height="1" fill="#b322bf" fill-opacity="0.961"/>
<rect x="9" y="16" width="1" height="1" fill="#b820c2"/>
<rect x="10" y="16" width="1" height="1" fill="#d253d8"/>
<rect x="11" y="16" width="1" height="1" fill="#f9b3fa"/>
<rect x="12" y="16" width="1" height="1" fill="#fdbaff"/>
<rect x="13" y="16" width="1" height="1" fill="#f45ff9"/>
<rect x="14" y="16" width="1" height="1" fill="#d120d4"/>
<rect x="15" y="16" width="1" height="1" fill="#c611cb"/>
<rect x="16" y="16" width="1" height="1" fill="#a20eb1"/>
<rect x="17" y="16" width="1" height="1" fill="#9912ab" fill-opacity="0.969"/>
<rect x="18" y="16" width="1" height="1" fill="#9d0fab" fill-opacity="0.02"/>
<rect x="19" y="16" width="1" height="1" fill="#8e188e" fill-opacity="0.161"/>
<rect x="20" y="16" width="1" height="1" fill="#ae32b0" fill-opacity="0.902"/>
<rect x="21" y="16" width="1" height="1" fill="#ae32af" fill-opacity="0.525"/>
<rect x="22" y="16" width="1" height="1" fill="#c847c9" fill-opacity="0.012"/>
<rect x="0" y="17" width="1" height="1" fill="#9b14a8"/>
<rect x="1" y="17" width="1" height="1" fill="#b516c0"/>
<rect x="2" y="17" width="1" height="1" fill="#c924d2"/>
<rect x="3" y="17" width="1" height="1" fill="#e743ed"/>
<rect x="4" y="17" width="1" height="1" fill="#e73bec"/>
<rect x="5" y="17" width="1" height="1" fill="#d81fdd"/>
<rect x="6" y="17" width="1" height="1" fill="#bd1fc6"/>
<rect x="7" y="17" width="1" height="1" fill="#d641df"/>
<rect x="8" y="17" width="1" height="1" fill="#e84eed"/>
<rect x="9" y="17" width="1" height="1" fill="#d436db"/>
<rect x="10" y="17" width="1" height="1" fill="#d934de"/>
<rect x="11" y="17" width="1" height="1" fill="#f868fc"/>
<rect x="12" y="17" width="1" height="1" fill="#fb88ff"/>
<rect x="13" y="17" width="1" height="1" fill="#f971fe"/>
<rect x="14" y="17" width="1" height="1" fill="#ef42f3"/>
<rect x="15" y="17" width="1" height="1" fill="#e525e9"/>
<rect x="16" y="17" width="1" height="1" fill="#ae0fb8"/>
<rect x="17" y="17" width="1" height="1" fill="#9b19ad" fill-opacity="0.969"/>
<rect x="18" y="17" width="1" height="1" fill="#cf92d8" fill-opacity="0.282"/>
<rect x="20" y="17" width="1" height="1" fill="#c44fc2" fill-opacity="0.137"/>
<rect x="21" y="17" width="1" height="1" fill="#cb49cc" fill-opacity="0.114"/>
<rect x="22" y="17" width="1" height="1" fill="#e55ee6" fill-opacity="0.004"/>
<rect x="0" y="18" width="1" height="1" fill="#b426bd" fill-opacity="0.678"/>
<rect x="1" y="18" width="1" height="1" fill="#9e0fad"/>
<rect x="2" y="18" width="1" height="1" fill="#b914c4"/>
<rect x="3" y="18" width="1" height="1" fill="#d31ed9"/>
<rect x="4" y="18" width="1" height="1" fill="#dc1ce1"/>
<rect x="5" y="18" width="1" height="1" fill="#ca1ad2"/>
<rect x="6" y="18" width="1" height="1" fill="#d12ed8"/>
<rect x="7" y="18" width="1" height="1" fill="#f357f8"/>
<rect x="8" y="18" width="1" height="1" fill="#f256f7"/>
<rect x="9" y="18" width="1" height="1" fill="#ed4af2"/>
<rect x="10" y="18" width="1" height="1" fill="#d71fdd"/>
<rect x="11" y="18" width="1" height="1" fill="#e741ec"/>
<rect x="12" y="18" width="1" height="1" fill="#f86afc"/>
<rect x="13" y="18" width="1" height="1" fill="#f86efd"/>
<rect x="14" y="18" width="1" height="1" fill="#f351f8"/>
<rect x="15" y="18" width="1" height="1" fill="#f34af7"/>
<rect x="16" y="18" width="1" height="1" fill="#c411cc"/>
<rect x="17" y="18" width="1" height="1" fill="#9f0dae" fill-opacity="0.988"/>
<rect x="18" y="18" width="1" height="1" fill="#ad39bc" fill-opacity="0.514"/>
<rect x="19" y="18" width="1" height="1" fill="#dcaee2" fill-opacity="0.012"/>
<rect x="20" y="18" width="1" height="1" fill="#ffffff" fill-opacity="0.02"/>
<rect x="0" y="19" width="1" height="1" fill="#ffffff" fill-opacity="0.004"/>
<rect x="1" y="19" width="1" height="1" fill="#ae2bb9" fill-opacity="0.961"/>
<rect x="2" y="19" width="1" height="1" fill="#a10eae"/>
<rect x="3" y="19" width="1" height="1" fill="#a60fb1"/>
<rect x="4" y="19" width="1" height="1" fill="#ae0db9"/>
<rect x="5" y="19" width="1" height="1" fill="#bd11c6"/>
<rect x="6" y="19" width="1" height="1" fill="#c921d1"/>
<rect x="7" y="19" width="1" height="1" fill="#d22ad8"/>
<rect x="8" y="19" width="1" height="1" fill="#c016c8"/>
<rect x="9" y="19" width="1" height="1" fill="#c915d1"/>
<rect x="10" y="19" width="1" height="1" fill="#bf12c8"/>
<rect x="11" y="19" width="1" height="1" fill="#c111ca"/>
<rect x="12" y="19" width="1" height="1" fill="#bf15c9"/>
<rect x="13" y="19" width="1" height="1" fill="#ca2bd4"/>
<rect x="14" y="19" width="1" height="1" fill="#c21ccb"/>
<rect x="15" y="19" width="1" height="1" fill="#bf17c8"/>
<rect x="16" y="19" width="1" height="1" fill="#ac0eb7"/>
<rect x="17" y="19" width="1" height="1" fill="#a50eb0"/>
<rect x="18" y="19" width="1" height="1" fill="#9e12ac" fill-opacity="0.835"/>
<rect x="19" y="19" width="1" height="1" fill="#e8caec" fill-opacity="0.035"/>
<rect x="18" y="20" width="1" height="1" fill="#e95408" fill-opacity="0.016"/>
<rect x="19" y="20" width="1" height="1" fill="#e95408" fill-opacity="0.016"/>
<rect x="20" y="20" width="1" height="1" fill="#e95408" fill-opacity="0.031"/>
<rect x="21" y="20" width="1" height="1" fill="#e95408" fill-opacity="0.063"/>
<rect x="22" y="20" width="1" height="1" fill="#e75508" fill-opacity="0.047"/>
<rect x="23" y="20" width="1" height="1" fill="#e95408" fill-opacity="0.016"/>
<rect x="24" y="20" width="1" height="1" fill="#e95408" fill-opacity="0.012"/>
</svg>