<?xml version="1.0" encoding="UTF-8" standalone="no"?>
<svg xmlns="http://www.w3.org/2000/svg" width="26" height="21" shape-rendering="crispEdges">
<rect x="23" y="1" width="1" height="1" fill="#ff1e00" fill-opacity="0.09"/>
<rect x="24" y="1" width="1" height="1" fill="#ff1e00" fill-opacity="0.075"/>
<rect x="15" y="2" width="1" height="1" fill="#8f0505" fill-opacity="0.008"/>
<rect x="22" y="2" width="1" height="1" fill="#fb1c00" fill-opacity="0.302"/>
<rect x="23" y="2" width="1" height="1" fill="#de2110"/>
<rect x="24" y="2" width="1" height="1" fill="#dd210f"/>
<rect x="25" y="2" width="1" height="1" fill="#ff1e00" fill-opacity="0.075"/>
<rect x="9" y="3" width="1" height="1" fill="#8f0505" fill-opacity="0.027"/>
<rect x="10" y="3" width="1" height="1" fill="#d30101" fill-opacity="0.973"/>
<rect x="11" y="3" width="1" height="1" fill="#cd0203"/>
<rect x="12" y="3" width="1" height="1" fill="#d10301"/>
<rect x="13" y="3" width="1" height="1" fill="#d80102" fill-opacity="0.933"/>
<rect x="14" y="3" width="1" height="1" fill="#be0403" fill-opacity="0.024"/>
<rect x="20" y="3" width="1" height="1" fill="#8f0505" fill-opacity="0.02"/>
<rect x="21" y="3" width="1" height="1" fill="#e31701" fill-opacity="0.643"/>
<rect x="22" y="3" width="1" height="1" fill="#ea2f1b"/>
<rect x="23" y="3" width="1" height="1" fill="#faaaa4"/>
<rect x="24" y="3" width="1" height="1" fill="#e6210c"/>
<rect x="25" y="3" width="1" height="1" fill="#f81c00" fill-opacity="0.063"/>
<rect x="5" y="4" width="1" height="1" fill="#fb0301" fill-opacity="0.012"/>
<rect x="9" y="4" width="1" height="1" fill="#c70303" fill-opacity="0.016"/>
<rect x="10" y="4" width="1" height="1" fill="#d00404"/>
<rect x="11" y="4" width="1" height="1" fill="#d93e3e"/>
<rect x="12" y="4" width="1" height="1" fill="#ec4543"/>
<rect x="13" y="4" width="1" height="1" fill="#ec191a"/>
<rect x="14" y="4" width="1" height="1" fill="#d00303"/>
<rect x="15" y="4" width="1" height="1" fill="#ed0101" fill-opacity="0.988"/>
<rect x="16" y="4" width="1" height="1" fill="#af0403" fill-opacity="0.008"/>
<rect x="19" y="4" width="1" height="1" fill="#ab0b04" fill-opacity="0.016"/>
<rect x="20" y="4" width="1" height="1" fill="#d51302" fill-opacity="0.706"/>
<rect x="21" y="4" width="1" height="1" fill="#e02b19"/>
<rect x="22" y="4" width="1" height="1" fill="#f9e8e7"/>
<rect x="23" y="4" width="1" height="1" fill="#fef2ee"/>
<rect x="24" y="4" width="1" height="1" fill="#f81e02"/>
<rect x="25" y="4" width="1" height="1" fill="#da1602" fill-opacity="0.012"/>
<rect x="2" y="5" width="1" height="1" fill="#fb0301" fill-opacity="0.004"/>
<rect x="3" y="5" width="1" height="1" fill="#fb0301" fill-opacity="0.224"/>
<rect x="4" y="5" width="1" height="1" fill="#fe0100"/>
<rect x="5" y="5" width="1" height="1" fill="#fb0301" fill-opacity="0.227"/>
<rect x="6" y="5" width="1" height="1" fill="#fb0301" fill-opacity="0.024"/>
<rect x="9" y="5" width="1" height="1" fill="#ff0000" fill-opacity="0.008"/>
<rect x="10" y="5" width="1" height="1" fill="#d50606"/>
<rect x="11" y="5" width="1" height="1" fill="#e64f4c"/>
<rect x="12" y="5" width="1" height="1" fill="#f9737c"/>
<rect x="13" y="5" width="1" height="1" fill="#f64f55"/>
<rect x="14" y="5" width="1" height="1" fill="#f8454c"/>
<rect x="15" y="5" width="1" height="1" fill="#ed1417"/>
<rect x="16" y="5" width="1" height="1" fill="#d80202"/>
<rect x="17" y="5" width="1" height="1" fill="#f31801" fill-opacity="0.129"/>
<rect x="18" y="5" width="1" height="1" fill="#fd1d00" fill-opacity="0.51"/>
<rect x="19" y="5" width="1" height="1" fill="#d41203"/>
<rect x="20" y="5" width="1" height="1" fill="#df5045"/>
<rect x="21" y="5" width="1" height="1" fill="#f6f5f5"/>
<rect x="22" y="5" width="1" height="1" fill="#fffdfd"/>
<rect x="23" y="5" width="1" height="1" fill="#fb6855"/>
<rect x="24" y="5" width="1" height="1" fill="#f71c00" fill-opacity="0.561"/>
<rect x="25" y="5" width="1" height="1" fill="#8f0505" fill-opacity="0.004"/>
<rect x="3" y="6" width="1" height="1" fill="#fe0100"/>
<rect x="4" y="6" width="1" height="1" fill="#ffa3a3"/>
<rect x="5" y="6" width="1" height="1" fill="#fe0100"/>
<rect x="6" y="6" width="1" height="1" fill="#fb0301" fill-opacity="0.051"/>
<rect x="9" y="6" width="1" height="1" fill="#ff0000" fill-opacity="0.008"/>
<rect x="10" y="6" width="1" height="1" fill="#d40404"/>
<rect x="11" y="6" width="1" height="1" fill="#ea534f"/>
<rect x="12" y="6" width="1" height="1" fill="#fe8985"/>
<rect x="13" y="6" width="1" height="1" fill="#fb757e"/>
<rect x="14" y="6" width="1" height="1" fill="#f95259"/>
<rect x="15" y="6" width="1" height="1" fill="#f64d51"/>
<rect x="16" y="6" width="1" height="1" fill="#db1508"/>
<rect x="17" y="6" width="1" height="1" fill="#c0170d"/>
<rect x="18" y="6" width="1" height="1" fill="#d53831"/>
<rect x="19" y="6" width="1" height="1" fill="#f5d5c0"/>
<rect x="20" y="6" width="1" height="1" fill="#f5fdf6"/>
<rect x="21" y="6" width="1" height="1" fill="#f1f1f1"/>
<rect x="22" y="6" width="1" height="1" fill="#fc8e82"/>
<rect x="23" y="6" width="1" height="1" fill="#fa1e01"/>
<rect x="24" y="6" width="1" height="1" fill="#f31b01" fill-opacity="0.106"/>
<rect x="2" y="7" width="1" height="1" fill="#fb0301" fill-opacity="0.008"/>
<rect x="3" y="7" width="1" height="1" fill="#fb0301" fill-opacity="0.286"/>
<rect x="4" y="7" width="1" height="1" fill="#fd0100"/>
<rect x="5" y="7" width="1" height="1" fill="#fb0301" fill-opacity="0.133"/>
<rect x="6" y="7" width="1" height="1" fill="#fb0301" fill-opacity="0.024"/>
<rect x="9" y="7" width="1" height="1" fill="#ff0000" fill-opacity="0.008"/>
<rect x="10" y="7" width="1" height="1" fill="#d50303"/>
<rect x="11" y="7" width="1" height="1" fill="#ed4948"/>
<rect x="12" y="7" width="1" height="1" fill="#fd7876"/>
<rect x="13" y="7" width="1" height="1" fill="#fa473e"/>
<rect x="14" y="7" width="1" height="1" fill="#d92012"/>
<rect x="15" y="7" width="1" height="1" fill="#e1392f"/>
<rect x="16" y="7" width="1" height="1" fill="#fdc1c5"/>
<rect x="17" y="7" width="1" height="1" fill="#f6fcfe"/>
<rect x="18" y="7" width="1" height="1" fill="#fffbf3"/>
<rect x="19" y="7" width="1" height="1" fill="#fff4ff"/>
<rect x="20" y="7" width="1" height="1" fill="#fff1fe"/>
<rect x="21" y="7" width="1" height="1" fill="#f3847b"/>
<rect x="22" y="7" width="1" height="1" fill="#f21d03"/>
<rect x="23" y="7" width="1" height="1" fill="#ef3f2b"/>
<rect x="24" y="7" width="1" height="1" fill="#e42512"/>
<rect x="25" y="7" width="1" height="1" fill="#ff1e00" fill-opacity="0.094"/>
<rect x="0" y="8" width="1" height="1" fill="#fb0301" fill-opacity="0.008"/>
<rect x="1" y="8" width="1" height="1" fill="#fb0301" fill-opacity="0.204"/>
<rect x="2" y="8" width="1" height="1" fill="#fe0100"/>
<rect x="3" y="8" width="1" height="1" fill="#fb0301" fill-opacity="0.208"/>
<rect x="4" y="8" width="1" height="1" fill="#fb0301" fill-opacity="0.153"/>
<rect x="5" y="8" width="1" height="1" fill="#fb0301" fill-opacity="0.216"/>
<rect x="6" y="8" width="1" height="1" fill="#f40201"/>
<rect x="7" y="8" width="1" height="1" fill="#e40302" fill-opacity="0.122"/>
<rect x="8" y="8" width="1" height="1" fill="#fb0301" fill-opacity="0.031"/>
<rect x="9" y="8" width="1" height="1" fill="#ff0000" fill-opacity="0.016"/>
<rect x="10" y="8" width="1" height="1" fill="#d80303"/>
<rect x="11" y="8" width="1" height="1" fill="#eb4a4c"/>
<rect x="12" y="8" width="1" height="1" fill="#fe7f81"/>
<rect x="13" y="8" width="1" height="1" fill="#ef1a03"/>
<rect x="14" y="8" width="1" height="1" fill="#fbf2f4"/>
<rect x="15" y="8" width="1" height="1" fill="#fef7f6"/>
<rect x="16" y="8" width="1" height="1" fill="#fff6ef"/>
<rect x="17" y="8" width="1" height="1" fill="#f6ced5"/>
<rect x="18" y="8" width="1" height="1" fill="#ffc9c9"/>
<rect x="19" y="8" width="1" height="1" fill="#f68278"/>
<rect x="20" y="8" width="1" height="1" fill="#dd2e1f"/>
<rect x="21" y="8" width="1" height="1" fill="#fa6552"/>
<rect x="22" y="8" width="1" height="1" fill="#fed6cd"/>
<rect x="23" y="8" width="1" height="1" fill="#fe8786"/>
<rect x="24" y="8" width="1" height="1" fill="#f61b01"/>
<rect x="25" y="8" width="1" height="1" fill="#ff1e00" fill-opacity="0.004"/>
<rect x="1" y="9" width="1" height="1" fill="#fe0100"/>
<rect x="2" y="9" width="1" height="1" fill="#fe8b8a"/>
<rect x="3" y="9" width="1" height="1" fill="#fd0100"/>
<rect x="4" y="9" width="1" height="1" fill="#fb0301" fill-opacity="0.357"/>
<rect x="5" y="9" width="1" height="1" fill="#fe0100"/>
<rect x="6" y="9" width="1" height="1" fill="#fe8585"/>
<rect x="7" y="9" width="1" height="1" fill="#fc0000"/>
<rect x="8" y="9" width="1" height="1" fill="#eb0302" fill-opacity="0.047"/>
<rect x="9" y="9" width="1" height="1" fill="#ff0000" fill-opacity="0.031"/>
<rect x="10" y="9" width="1" height="1" fill="#d20505"/>
<rect x="11" y="9" width="1" height="1" fill="#ed595b"/>
<rect x="12" y="9" width="1" height="1" fill="#f75e57"/>
<rect x="13" y="9" width="1" height="1" fill="#e44c3d"/>
<rect x="14" y="9" width="1" height="1" fill="#f9fdf8"/>
<rect x="15" y="9" width="1" height="1" fill="#fed5cf"/>
<rect x="16" y="9" width="1" height="1" fill="#d91613"/>
<rect x="17" y="9" width="1" height="1" fill="#d92625"/>
<rect x="18" y="9" width="1" height="1" fill="#e52120"/>
<rect x="19" y="9" width="1" height="1" fill="#df1403"/>
<rect x="20" y="9" width="1" height="1" fill="#f1786a"/>
<rect x="21" y="9" width="1" height="1" fill="#feebea"/>
<rect x="22" y="9" width="1" height="1" fill="#fcf1f1"/>
<rect x="23" y="9" width="1" height="1" fill="#e92816"/>
<rect x="24" y="9" width="1" height="1" fill="#fc1d00" fill-opacity="0.275"/>
<rect x="1" y="10" width="1" height="1" fill="#fb0301" fill-opacity="0.271"/>
<rect x="2" y="10" width="1" height="1" fill="#fe0100"/>
<rect x="3" y="10" width="1" height="1" fill="#fb0301" fill-opacity="0.094"/>
<rect x="4" y="10" width="1" height="1" fill="#fb0301" fill-opacity="0.145"/>
<rect x="5" y="10" width="1" height="1" fill="#fb0301" fill-opacity="0.224"/>
<rect x="6" y="10" width="1" height="1" fill="#f80101"/>
<rect x="7" y="10" width="1" height="1" fill="#d10403" fill-opacity="0.114"/>
<rect x="9" y="10" width="1" height="1" fill="#fc0301" fill-opacity="0.125"/>
<rect x="10" y="10" width="1" height="1" fill="#ca0505"/>
<rect x="11" y="10" width="1" height="1" fill="#ef676a"/>
<rect x="12" y="10" width="1" height="1" fill="#e83628"/>
<rect x="13" y="10" width="1" height="1" fill="#ef9288"/>
<rect x="14" y="10" width="1" height="1" fill="#fdfcff"/>
<rect x="15" y="10" width="1" height="1" fill="#f6857c"/>
<rect x="16" y="10" width="1" height="1" fill="#f7c7c7"/>
<rect x="17" y="10" width="1" height="1" fill="#fdd6d5"/>
<rect x="18" y="10" width="1" height="1" fill="#ea4949"/>
<rect x="19" y="10" width="1" height="1" fill="#df180a"/>
<rect x="20" y="10" width="1" height="1" fill="#efc5c4"/>
<rect x="21" y="10" width="1" height="1" fill="#ffefee"/>
<rect x="22" y="10" width="1" height="1" fill="#ec1c07"/>
<rect x="23" y="10" width="1" height="1" fill="#df1805"/>
<rect x="24" y="10" width="1" height="1" fill="#cf0e02" fill-opacity="0.231"/>
<rect x="25" y="10" width="1" height="1" fill="#8f0505" fill-opacity="0.004"/>
<rect x="1" y="11" width="1" height="1" fill="#fb0301" fill-opacity="0.043"/>
<rect x="2" y="11" width="1" height="1" fill="#fb0301" fill-opacity="0.008"/>
<rect x="3" y="11" width="1" height="1" fill="#fb0301" fill-opacity="0.067"/>
<rect x="4" y="11" width="1" height="1" fill="#fb0301" fill-opacity="0.051"/>
<rect x="9" y="11" width="1" height="1" fill="#f60301" fill-opacity="0.384"/>
<rect x="10" y="11" width="1" height="1" fill="#c90706"/>
<rect x="11" y="11" width="1" height="1" fill="#f26264"/>
<rect x="12" y="11" width="1" height="1" fill="#fc544b"/>
<rect x="13" y="11" width="1" height="1" fill="#f7614f"/>
<rect x="14" y="11" width="1" height="1" fill="#fcfdfd"/>
<rect x="15" y="11" width="1" height="1" fill="#db4342"/>
<rect x="16" y="11" width="1" height="1" fill="#d43334"/>
<rect x="17" y="11" width="1" height="1" fill="#fcdfdf"/>
<rect x="18" y="11" width="1" height="1" fill="#fae2e1"/>
<rect x="19" y="11" width="1" height="1" fill="#d91604"/>
<rect x="20" y="11" width="1" height="1" fill="#ef4532"/>
<rect x="21" y="11" width="1" height="1" fill="#e93624"/>
<rect x="22" y="11" width="1" height="1" fill="#f28a80"/>
<rect x="23" y="11" width="1" height="1" fill="#e8655b"/>
<rect x="24" y="11" width="1" height="1" fill="#df1504"/>
<rect x="25" y="11" width="1" height="1" fill="#eb1901" fill-opacity="0.02"/>
<rect x="8" y="12" width="1" height="1" fill="#fb0301" fill-opacity="0.063"/>
<rect x="9" y="12" width="1" height="1" fill="#dd0302"/>
<rect x="10" y="12" width="1" height="1" fill="#d93630"/>
<rect x="11" y="12" width="1" height="1" fill="#fd6e70"/>
<rect x="12" y="12" width="1" height="1" fill="#fd6164"/>
<rect x="13" y="12" width="1" height="1" fill="#e72819"/>
<rect x="14" y="12" width="1" height="1" fill="#f0a59d"/>
<rect x="15" y="12" width="1" height="1" fill="#f7e8e7"/>
<rect x="16" y="12" width="1" height="1" fill="#fdf1f2"/>
<rect x="17" y="12" width="1" height="1" fill="#fef8f7"/>
<rect x="18" y="12" width="1" height="1" fill="#fd6a69"/>
<rect x="19" y="12" width="1" height="1" fill="#f62b15"/>
<rect x="20" y="12" width="1" height="1" fill="#fedfde"/>
<rect x="21" y="12" width="1" height="1" fill="#fff8f4"/>
<rect x="22" y="12" width="1" height="1" fill="#fff4f5"/>
<rect x="23" y="12" width="1" height="1" fill="#eb3221"/>
<rect x="24" y="12" width="1" height="1" fill="#d41302" fill-opacity="0.306"/>
<rect x="2" y="13" width="1" height="1" fill="#fb0301" fill-opacity="0.004"/>
<rect x="5" y="13" width="1" height="1" fill="#fb0301" fill-opacity="0.004"/>
<rect x="6" y="13" width="1" height="1" fill="#fb0301" fill-opacity="0.004"/>
<rect x="7" y="13" width="1" height="1" fill="#fb0301" fill-opacity="0.008"/>
<rect x="8" y="13" width="1" height="1" fill="#fa0301" fill-opacity="0.435"/>
<rect x="9" y="13" width="1" height="1" fill="#d10202"/>
<rect x="10" y="13" width="1" height="1" fill="#f95d5d"/>
<rect x="11" y="13" width="1" height="1" fill="#fd7474"/>
<rect x="12" y="13" width="1" height="1" fill="#fd7274"/>
<rect x="13" y="13" width="1" height="1" fill="#fd4543"/>
<rect x="14" y="13" width="1" height="1" fill="#dc170b"/>
<rect x="15" y="13" width="1" height="1" fill="#d11104"/>
<rect x="16" y="13" width="1" height="1" fill="#e11602"/>
<rect x="17" y="13" width="1" height="1" fill="#f11c04"/>
<rect x="18" y="13" width="1" height="1" fill="#f01d06"/>
<rect x="19" y="13" width="1" height="1" fill="#fca89e"/>
<rect x="20" y="13" width="1" height="1" fill="#fffdfd"/>
<rect x="21" y="13" width="1" height="1" fill="#faf0f6"/>
<rect x="22" y="13" width="1" height="1" fill="#e94234"/>
<rect x="23" y="13" width="1" height="1" fill="#ec1501" fill-opacity="0.678"/>
<rect x="0" y="14" width="1" height="1" fill="#dc0102"/>
<rect x="1" y="14" width="1" height="1" fill="#ec0101"/>
<rect x="2" y="14" width="1" height="1" fill="#f50100"/>
<rect x="3" y="14" width="1" height="1" fill="#ea0302" fill-opacity="0.094"/>
<rect x="4" y="14" width="1" height="1" fill="#fb0301" fill-opacity="0.055"/>
<rect x="5" y="14" width="1" height="1" fill="#fc0201" fill-opacity="0.027"/>
<rect x="6" y="14" width="1" height="1" fill="#fb0301" fill-opacity="0.086"/>
<rect x="7" y="14" width="1" height="1" fill="#f90301" fill-opacity="0.38"/>
<rect x="8" y="14" width="1" height="1" fill="#dd0302"/>
<rect x="9" y="14" width="1" height="1" fill="#fad500"/>
<rect x="10" y="14" width="1" height="1" fill="#f10606"/>
<rect x="11" y="14" width="1" height="1" fill="#ed4242"/>
<rect x="12" y="14" width="1" height="1" fill="#fb6d71"/>
<rect x="13" y="14" width="1" height="1" fill="#f64c4c"/>
<rect x="14" y="14" width="1" height="1" fill="#f33838"/>
<rect x="15" y="14" width="1" height="1" fill="#e21a09"/>
<rect x="16" y="14" width="1" height="1" fill="#e85144"/>
<rect x="17" y="14" width="1" height="1" fill="#fed5d1"/>
<rect x="18" y="14" width="1" height="1" fill="#fecdc9"/>
<rect x="19" y="14" width="1" height="1" fill="#ffeae7"/>
<rect x="20" y="14" width="1" height="1" fill="#feeaeb"/>
<rect x="21" y="14" width="1" height="1" fill="#e13628"/>
<rect x="22" y="14" width="1" height="1" fill="#dd1501" fill-opacity="0.667"/>
<rect x="25" y="14" width="1" height="1" fill="#fd7301" fill-opacity="0.082"/>
<rect x="0" y="15" width="1" height="1" fill="#ea0706"/>
<rect x="1" y="15" width="1" height="1" fill="#fbf2f2"/>
<rect x="2" y="15" width="1" height="1" fill="#fabcbc"/>
<rect x="3" y="15" width="1" height="1" fill="#e30101"/>
<rect x="4" y="15" width="1" height="1" fill="#e10202"/>
<rect x="5" y="15" width="1" height="1" fill="#e00505"/>
<rect x="6" y="15" width="1" height="1" fill="#d80202"/>
<rect x="7" y="15" width="1" height="1" fill="#d20302"/>
<rect x="8" y="15" width="1" height="1" fill="#c60404"/>
<rect x="9" y="15" width="1" height="1" fill="#f9c901"/>
<rect x="10" y="15" width="1" height="1" fill="#fdf600"/>
<rect x="11" y="15" width="1" height="1" fill="#df0807"/>
<rect x="12" y="15" width="1" height="1" fill="#ea1f1f"/>
<rect x="13" y="15" width="1" height="1" fill="#f24d4d"/>
<rect x="14" y="15" width="1" height="1" fill="#f34747"/>
<rect x="15" y="15" width="1" height="1" fill="#ed1d1d"/>
<rect x="16" y="15" width="1" height="1" fill="#df0d05"/>
<rect x="17" y="15" width="1" height="1" fill="#df1303"/>
<rect x="18" y="15" width="1" height="1" fill="#d51302" fill-opacity="0.945"/>
<rect x="19" y="15" width="1" height="1" fill="#d81502" fill-opacity="0.945"/>
<rect x="20" y="15" width="1" height="1" fill="#ed1801" fill-opacity="0.957"/>
<rect x="21" y="15" width="1" height="1" fill="#e71601" fill-opacity="0.624"/>
<rect x="22" y="15" width="1" height="1" fill="#8f0505" fill-opacity="0.004"/>
<rect x="25" y="15" width="1" height="1" fill="#ef6806" fill-opacity="0.012"/>
<rect x="0" y="16" width="1" height="1" fill="#f10303" fill-opacity="0.996"/>
<rect x="1" y="16" width="1" height="1" fill="#fdf7f6"/>
<rect x="2" y="16" width="1" height="1" fill="#fefafb"/>
<rect x="3" y="16" width="1" height="1" fill="#fdf9f9"/>
<rect x="4" y="16" width="1" height="1" fill="#fff8f9"/>
<rect x="5" y="16" width="1" height="1" fill="#fffafa"/>
<rect x="6" y="16" width="1" height="1" fill="#fffafa"/>
<rect x="7" y="16" width="1" height="1" fill="#fde8e6"/>
<rect x="8" y="16" width="1" height="1" fill="#fba4a4"/>
<rect x="9" y="16" width="1" height="1" fill="#e90704"/>
<rect x="10" y="16" width="1" height="1" fill="#ed7203"/>
<rect x="11" y="16" width="1" height="1" fill="#feb301"/>
<rect x="12" y="16" width="1" height="1" fill="#df0706"/>
<rect x="13" y="16" width="1" height="1" fill="#e51d1c"/>
<rect x="14" y="16" width="1" height="1" fill="#e84242"/>
<rect x="15" y="16" width="1" height="1" fill="#ea3d3d"/>
<rect x="16" y="16" width="1" height="1" fill="#eb0b0a"/>
<rect x="17" y="16" width="1" height="1" fill="#f40202"/>
<rect x="18" y="16" width="1" height="1" fill="#f00201" fill-opacity="0.09"/>
<rect x="19" y="16" width="1" height="1" fill="#ea0202" fill-opacity="0.051"/>
<rect x="20" y="16" width="1" height="1" fill="#8f0505" fill-opacity="0.004"/>
<rect x="0" y="17" width="1" height="1" fill="#dd0202" fill-opacity="0.996"/>
<rect x="1" y="17" width="1" height="1" fill="#fdf6f6"/>
<rect x="2" y="17" width="1" height="1" fill="#fefdfd"/>
<rect x="3" y="17" width="1" height="1" fill="#fefefc"/>
<rect x="4" y="17" width="1" height="1" fill="#fffffe"/>
<rect x="5" y="17" width="1" height="1" fill="#ffffff"/>
<rect x="6" y="17" width="1" height="1" fill="#fffefe"/>
<rect x="7" y="17" width="1" height="1" fill="#ffffff"/>
<rect x="8" y="17" width="1" height="1" fill="#fefcfc"/>
<rect x="9" y="17" width="1" height="1" fill="#fa8b8a"/>
<rect x="10" y="17" width="1" height="1" fill="#da0605"/>
<rect x="11" y="17" width="1" height="1" fill="#f14c03"/>
<rect x="12" y="17" width="1" height="1" fill="#fe6c02"/>
<rect x="13" y="17" width="1" height="1" fill="#dd0807"/>
<rect x="14" y="17" width="1" height="1" fill="#e11c1c"/>
<rect x="15" y="17" width="1" height="1" fill="#df2322"/>
<rect x="16" y="17" width="1" height="1" fill="#e31515"/>
<rect x="17" y="17" width="1" height="1" fill="#f20505"/>
<rect x="18" y="17" width="1" height="1" fill="#fa0101" fill-opacity="0.945"/>
<rect x="19" y="17" width="1" height="1" fill="#b90e0d" fill-opacity="0.02"/>
<rect x="0" y="18" width="1" height="1" fill="#e60201" fill-opacity="0.996"/>
<rect x="1" y="18" width="1" height="1" fill="#f96162"/>
<rect x="2" y="18" width="1" height="1" fill="#fff0f1"/>
<rect x="3" y="18" width="1" height="1" fill="#ffe9e9"/>
<rect x="4" y="18" width="1" height="1" fill="#fff6f6"/>
<rect x="5" y="18" width="1" height="1" fill="#fdf7f7"/>
<rect x="6" y="18" width="1" height="1" fill="#fff5f2"/>
<rect x="7" y="18" width="1" height="1" fill="#ffefef"/>
<rect x="8" y="18" width="1" height="1" fill="#ffebeb"/>
<rect x="9" y="18" width="1" height="1" fill="#ffd6d6"/>
<rect x="10" y="18" width="1" height="1" fill="#f96261"/>
<rect x="11" y="18" width="1" height="1" fill="#db0605"/>
<rect x="12" y="18" width="1" height="1" fill="#d83a04"/>
<rect x="13" y="18" width="1" height="1" fill="#da4604"/>
<rect x="14" y="18" width="1" height="1" fill="#dd0b0a"/>
<rect x="15" y="18" width="1" height="1" fill="#dd1313"/>
<rect x="16" y="18" width="1" height="1" fill="#de1615"/>
<rect x="17" y="18" width="1" height="1" fill="#dd0b0a"/>
<rect x="18" y="18" width="1" height="1" fill="#ed0303"/>
<rect x="19" y="18" width="1" height="1" fill="#b40b0b" fill-opacity="0.016"/>
<rect x="0" y="19" width="1" height="1" fill="#fb0301" fill-opacity="0.133"/>
<rect x="1" y="19" width="1" height="1" fill="#f10101"/>
<rect x="2" y="19" width="1" height="1" fill="#e60201"/>
<rect x="3" y="19" width="1" height="1" fill="#dd0201"/>
<rect x="4" y="19" width="1" height="1" fill="#e30202"/>
<rect x="5" y="19" width="1" height="1" fill="#eb0202"/>
<rect x="6" y="19" width="1" height="1" fill="#e50101"/>
<rect x="7" y="19" width="1" height="1" fill="#d80202"/>
<rect x="8" y="19" width="1" height="1" fill="#d20202"/>
<rect x="9" y="19" width="1" height="1" fill="#d10202"/>
<rect x="10" y="19" width="1" height="1" fill="#c60303"/>
<rect x="11" y="19" width="1" height="1" fill="#cc0202"/>
<rect x="12" y="19" width="1" height="1" fill="#d50606"/>
<rect x="13" y="19" width="1" height="1" fill="#b23007"/>
<rect x="14" y="19" width="1" height="1" fill="#b43207"/>
<rect x="15" y="19" width="1" height="1" fill="#d40606"/>
<rect x="16" y="19" width="1" height="1" fill="#cb0505"/>
<rect x="17" y="19" width="1" height="1" fill="#cc0606"/>
<rect x="18" y="19" width="1" height="1" fill="#d50605"/>
<rect x="19" y="19" width="1" height="1" fill="#e13433" fill-opacity="0.035"/>
<rect x="0" y="20" width="1" height="1" fill="#e95408" fill-opacity="0.039"/>
<rect x="1" y="20" width="1" height="1" fill="#e95408" fill-opacity="0.031"/>
<rect x="2" y="20" width="1" height="1" fill="#e95408" fill-opacity="0.004"/>
<rect x="4" y="20" width="1" height="1" fill="#8f0505" fill-opacity="0.008"/>
<rect x="5" y="20" width="1" height="1" fill="#8f0505" fill-opacity="0.039"/>
<rect x="6" y="20" width="1" height="1" fill="#8f0505" fill-opacity="0.039"/>
<rect x="7" y="20" width="1" height="1" fill="#8f0505" fill-opacity="0.043"/>
<rect x="8" y="20" width="1" height="1" fill="#8f0505" fill-opacity="0.016"/>
<rect x="9" y="20" width="1" height="1" fill="#8f0505" fill-opacity="0.008"/>
<rect x="10" y="20" width="1" height="1" fill="#8f0505" fill-opacity="0.024"/>
<rect x="14" y="20" width="1" height="1" fill="#e88e00" fill-opacity="0.016"/>
<rect x="15" y="20" width="1" height="1" fill="#e88e00" fill-opacity="0.016"/>
<rect x="16" y="20" width="1" height="1" fill="#e57f01" fill-opacity="0.035"/>
<rect x="17" y="20" width="1" height="1" fill="#d74003" fill-opacity="0.149"/>
<rect x="18" y="20" width="1" height="1" fill="#d43b04" fill-opacity="0.122"/>
<rect x="19" y="20" width="1" height="1" fill="#d43404" fill-opacity="0.047"/>
<rect x="20" y="20" width="1" height="1" fill="#e88e00" fill-opacity="0.012"/>
<rect x="21" y="20" width="1" height="1" fill="#e88e00" fill-opacity="0.008"/>
<rect x="22" y="20" width="1" height="1" fill="#e88e00" fill-opacity="0.039"/>
<rect x="23" y="20" width="1" height="1" fill="#e88e00" fill-opacity="0.031"/>
<rect x="24" y="20" width="1" height="1" fill="#e88e00" fill-opacity="0.004"/>
</svg>