<?xml version="1.0" encoding="UTF-8" standalone="no"?>
<svg xmlns="http://www.w3.org/2000/svg" width="26" height="21" shape-rendering="crispEdges">
<rect x="23" y="1" width="1" height="1" fill="#ff7600" fill-opacity="0.094"/>
<rect x="24" y="1" width="1" height="1" fill="#ff7600" fill-opacity="0.078"/>
<rect x="12" y="2" width="1" height="1" fill="#cf4913" fill-opacity="0.031"/>
<rect x="13" y="2" width="1" height="1" fill="#cf4913" fill-opacity="0.004"/>
<rect x="20" y="2" width="1" height="1" fill="#ff5601" fill-opacity="0.004"/>
<rect x="21" y="2" width="1" height="1" fill="#ff5601" fill-opacity="0.043"/>
<rect x="22" y="2" width="1" height="1" fill="#f86a06" fill-opacity="0.396"/>
<rect x="23" y="2" width="1" height="1" fill="#f66b15"/>
<rect x="24" y="2" width="1" height="1" fill="#fc630d"/>
<rect x="25" y="2" width="1" height="1" fill="#fe7600" fill-opacity="0.078"/>
<rect x="9" y="3" width="1" height="1" fill="#cf4913" fill-opacity="0.086"/>
<rect x="10" y="3" width="1" height="1" fill="#da4f0f" fill-opacity="0.992"/>
<rect x="11" y="3" width="1" height="1" fill="#e35b0b"/>
<rect x="12" y="3" width="1" height="1" fill="#e65d09"/>
<rect x="13" y="3" width="1" height="1" fill="#e3530c" fill-opacity="0.973"/>
<rect x="14" y="3" width="1" height="1" fill="#df5111" fill-opacity="0.212"/>
<rect x="15" y="3" width="1" height="1" fill="#ff6511" fill-opacity="0.008"/>
<rect x="19" y="3" width="1" height="1" fill="#ff5601" fill-opacity="0.004"/>
<rect x="20" y="3" width="1" height="1" fill="#ff5601" fill-opacity="0.137"/>
<rect x="21" y="3" width="1" height="1" fill="#fb5e04" fill-opacity="0.831"/>
<rect x="22" y="3" width="1" height="1" fill="#ec6016"/>
<rect x="23" y="3" width="1" height="1" fill="#fcaf71"/>
<rect x="24" y="3" width="1" height="1" fill="#f56a0e"/>
<rect x="25" y="3" width="1" height="1" fill="#f76f03" fill-opacity="0.075"/>
<rect x="5" y="4" width="1" height="1" fill="#fc0401" fill-opacity="0.012"/>
<rect x="9" y="4" width="1" height="1" fill="#ff7800" fill-opacity="0.008"/>
<rect x="10" y="4" width="1" height="1" fill="#e5590a"/>
<rect x="11" y="4" width="1" height="1" fill="#f3945b"/>
<rect x="12" y="4" width="1" height="1" fill="#fc8f49"/>
<rect x="13" y="4" width="1" height="1" fill="#f16b19"/>
<rect x="14" y="4" width="1" height="1" fill="#da4c0e"/>
<rect x="15" y="4" width="1" height="1" fill="#de540e" fill-opacity="0.996"/>
<rect x="16" y="4" width="1" height="1" fill="#e45714" fill-opacity="0.133"/>
<rect x="17" y="4" width="1" height="1" fill="#ff6b17" fill-opacity="0.008"/>
<rect x="19" y="4" width="1" height="1" fill="#ff5c06" fill-opacity="0.122"/>
<rect x="20" y="4" width="1" height="1" fill="#f66106" fill-opacity="0.788"/>
<rect x="21" y="4" width="1" height="1" fill="#ec6315"/>
<rect x="22" y="4" width="1" height="1" fill="#fce0d2"/>
<rect x="23" y="4" width="1" height="1" fill="#f8f2e3"/>
<rect x="24" y="4" width="1" height="1" fill="#ef5f08"/>
<rect x="25" y="4" width="1" height="1" fill="#f56611" fill-opacity="0.035"/>
<rect x="3" y="5" width="1" height="1" fill="#ff6b17" fill-opacity="0.247"/>
<rect x="4" y="5" width="1" height="1" fill="#ff710c"/>
<rect x="5" y="5" width="1" height="1" fill="#fe5f15" fill-opacity="0.255"/>
<rect x="6" y="5" width="1" height="1" fill="#ff6816" fill-opacity="0.039"/>
<rect x="9" y="5" width="1" height="1" fill="#ff7408" fill-opacity="0.012"/>
<rect x="10" y="5" width="1" height="1" fill="#e45b0b"/>
<rect x="11" y="5" width="1" height="1" fill="#ed8044"/>
<rect x="12" y="5" width="1" height="1" fill="#ff9a55"/>
<rect x="13" y="5" width="1" height="1" fill="#ff8c3d"/>
<rect x="14" y="5" width="1" height="1" fill="#ff6d17"/>
<rect x="15" y="5" width="1" height="1" fill="#e64d09"/>
<rect x="16" y="5" width="1" height="1" fill="#dd520f"/>
<rect x="17" y="5" width="1" height="1" fill="#e95e11" fill-opacity="0.4"/>
<rect x="18" y="5" width="1" height="1" fill="#fe7403" fill-opacity="0.541"/>
<rect x="19" y="5" width="1" height="1" fill="#fc6e06"/>
<rect x="20" y="5" width="1" height="1" fill="#fd9f54"/>
<rect x="21" y="5" width="1" height="1" fill="#faf7fc"/>
<rect x="22" y="5" width="1" height="1" fill="#fdf4ef"/>
<rect x="23" y="5" width="1" height="1" fill="#f8893b"/>
<rect x="24" y="5" width="1" height="1" fill="#f46703" fill-opacity="0.694"/>
<rect x="25" y="5" width="1" height="1" fill="#ff6915" fill-opacity="0.039"/>
<rect x="2" y="6" width="1" height="1" fill="#ff6b17" fill-opacity="0.051"/>
<rect x="3" y="6" width="1" height="1" fill="#ff7407"/>
<rect x="4" y="6" width="1" height="1" fill="#ffca9e"/>
<rect x="5" y="6" width="1" height="1" fill="#ff6e0c"/>
<rect x="6" y="6" width="1" height="1" fill="#ff6716" fill-opacity="0.082"/>
<rect x="9" y="6" width="1" height="1" fill="#ff6f10" fill-opacity="0.027"/>
<rect x="10" y="6" width="1" height="1" fill="#e45b0c"/>
<rect x="11" y="6" width="1" height="1" fill="#ea844c"/>
<rect x="12" y="6" width="1" height="1" fill="#ffb97e"/>
<rect x="13" y="6" width="1" height="1" fill="#ff8d42"/>
<rect x="14" y="6" width="1" height="1" fill="#fe6912"/>
<rect x="15" y="6" width="1" height="1" fill="#ea5509"/>
<rect x="16" y="6" width="1" height="1" fill="#e2570c"/>
<rect x="17" y="6" width="1" height="1" fill="#e76216"/>
<rect x="18" y="6" width="1" height="1" fill="#fa9e59"/>
<rect x="19" y="6" width="1" height="1" fill="#fbe8dc"/>
<rect x="20" y="6" width="1" height="1" fill="#fff4f5"/>
<rect x="21" y="6" width="1" height="1" fill="#fef4e3"/>
<rect x="22" y="6" width="1" height="1" fill="#eb894f"/>
<rect x="23" y="6" width="1" height="1" fill="#f76004"/>
<rect x="24" y="6" width="1" height="1" fill="#ef6006" fill-opacity="0.196"/>
<rect x="25" y="6" width="1" height="1" fill="#ff640f" fill-opacity="0.055"/>
<rect x="1" y="7" width="1" height="1" fill="#ff6b17" fill-opacity="0.02"/>
<rect x="2" y="7" width="1" height="1" fill="#ff6b17" fill-opacity="0.035"/>
<rect x="3" y="7" width="1" height="1" fill="#ff6b17" fill-opacity="0.263"/>
<rect x="4" y="7" width="1" height="1" fill="#ff7309"/>
<rect x="5" y="7" width="1" height="1" fill="#ff6616" fill-opacity="0.333"/>
<rect x="6" y="7" width="1" height="1" fill="#fe5111" fill-opacity="0.035"/>
<rect x="9" y="7" width="1" height="1" fill="#ff7800" fill-opacity="0.008"/>
<rect x="10" y="7" width="1" height="1" fill="#e55d0b"/>
<rect x="11" y="7" width="1" height="1" fill="#ea8753"/>
<rect x="12" y="7" width="1" height="1" fill="#ffc08c"/>
<rect x="13" y="7" width="1" height="1" fill="#ff8e34"/>
<rect x="14" y="7" width="1" height="1" fill="#f05b07"/>
<rect x="15" y="7" width="1" height="1" fill="#f78733"/>
<rect x="16" y="7" width="1" height="1" fill="#fbe3cc"/>
<rect x="17" y="7" width="1" height="1" fill="#fefdf7"/>
<rect x="18" y="7" width="1" height="1" fill="#f8faf5"/>
<rect x="19" y="7" width="1" height="1" fill="#fefaf5"/>
<rect x="20" y="7" width="1" height="1" fill="#fef5f8"/>
<rect x="21" y="7" width="1" height="1" fill="#e9844d"/>
<rect x="22" y="7" width="1" height="1" fill="#e9550b"/>
<rect x="23" y="7" width="1" height="1" fill="#fe7c22"/>
<rect x="24" y="7" width="1" height="1" fill="#f16e10"/>
<rect x="25" y="7" width="1" height="1" fill="#fd7501" fill-opacity="0.102"/>
<rect x="1" y="8" width="1" height="1" fill="#ff6b17" fill-opacity="0.318"/>
<rect x="2" y="8" width="1" height="1" fill="#ff7407"/>
<rect x="3" y="8" width="1" height="1" fill="#ff6b17" fill-opacity="0.282"/>
<rect x="4" y="8" width="1" height="1" fill="#ff6b17" fill-opacity="0.173"/>
<rect x="5" y="8" width="1" height="1" fill="#ff6b17" fill-opacity="0.357"/>
<rect x="6" y="8" width="1" height="1" fill="#ff7506"/>
<rect x="7" y="8" width="1" height="1" fill="#ff6b17" fill-opacity="0.271"/>
<rect x="8" y="8" width="1" height="1" fill="#ff6b17" fill-opacity="0.075"/>
<rect x="9" y="8" width="1" height="1" fill="#ff6900" fill-opacity="0.027"/>
<rect x="10" y="8" width="1" height="1" fill="#e45b0b"/>
<rect x="11" y="8" width="1" height="1" fill="#e67c44"/>
<rect x="12" y="8" width="1" height="1" fill="#febe89"/>
<rect x="13" y="8" width="1" height="1" fill="#fb7008"/>
<rect x="14" y="8" width="1" height="1" fill="#f3dcd2"/>
<rect x="15" y="8" width="1" height="1" fill="#fff5f4"/>
<rect x="16" y="8" width="1" height="1" fill="#f8f8f5"/>
<rect x="17" y="8" width="1" height="1" fill="#ffffff"/>
<rect x="18" y="8" width="1" height="1" fill="#fafff8"/>
<rect x="19" y="8" width="1" height="1" fill="#f8c79c"/>
<rect x="20" y="8" width="1" height="1" fill="#f1621d"/>
<rect x="21" y="8" width="1" height="1" fill="#ee832e"/>
<rect x="22" y="8" width="1" height="1" fill="#ffe7d3"/>
<rect x="23" y="8" width="1" height="1" fill="#fbbb92"/>
<rect x="24" y="8" width="1" height="1" fill="#fb6102"/>
<rect x="25" y="8" width="1" height="1" fill="#d68507" fill-opacity="0.031"/>
<rect x="0" y="9" width="1" height="1" fill="#ff6b17" fill-opacity="0.02"/>
<rect x="1" y="9" width="1" height="1" fill="#fe6c0f"/>
<rect x="2" y="9" width="1" height="1" fill="#ffa96f"/>
<rect x="3" y="9" width="1" height="1" fill="#ff7308"/>
<rect x="4" y="9" width="1" height="1" fill="#ff6b17" fill-opacity="0.184"/>
<rect x="5" y="9" width="1" height="1" fill="#ff7309"/>
<rect x="6" y="9" width="1" height="1" fill="#ffb885"/>
<rect x="7" y="9" width="1" height="1" fill="#ff7208"/>
<rect x="8" y="9" width="1" height="1" fill="#ff6b17" fill-opacity="0.031"/>
<rect x="9" y="9" width="1" height="1" fill="#ff6800" fill-opacity="0.059"/>
<rect x="10" y="9" width="1" height="1" fill="#e0580c"/>
<rect x="11" y="9" width="1" height="1" fill="#e77c44"/>
<rect x="12" y="9" width="1" height="1" fill="#ff9c4d"/>
<rect x="13" y="9" width="1" height="1" fill="#fe933e"/>
<rect x="14" y="9" width="1" height="1" fill="#fff8fa"/>
<rect x="15" y="9" width="1" height="1" fill="#fde6ce"/>
<rect x="16" y="9" width="1" height="1" fill="#ef801a"/>
<rect x="17" y="9" width="1" height="1" fill="#ed6d12"/>
<rect x="18" y="9" width="1" height="1" fill="#e25b0a"/>
<rect x="19" y="9" width="1" height="1" fill="#f56804"/>
<rect x="20" y="9" width="1" height="1" fill="#ffb470"/>
<rect x="21" y="9" width="1" height="1" fill="#fff4f4"/>
<rect x="22" y="9" width="1" height="1" fill="#f7f8fd"/>
<rect x="23" y="9" width="1" height="1" fill="#f56813"/>
<rect x="24" y="9" width="1" height="1" fill="#f86d03" fill-opacity="0.353"/>
<rect x="0" y="10" width="1" height="1" fill="#ff6b17" fill-opacity="0.02"/>
<rect x="1" y="10" width="1" height="1" fill="#ff6b17" fill-opacity="0.439"/>
<rect x="2" y="10" width="1" height="1" fill="#ff6d0d"/>
<rect x="3" y="10" width="1" height="1" fill="#ff6b17" fill-opacity="0.396"/>
<rect x="4" y="10" width="1" height="1" fill="#ff6b17" fill-opacity="0.031"/>
<rect x="5" y="10" width="1" height="1" fill="#ff6b17" fill-opacity="0.278"/>
<rect x="6" y="10" width="1" height="1" fill="#ff7309"/>
<rect x="7" y="10" width="1" height="1" fill="#ff6b17" fill-opacity="0.333"/>
<rect x="8" y="10" width="1" height="1" fill="#ff6b17" fill-opacity="0.047"/>
<rect x="9" y="10" width="1" height="1" fill="#ff6201" fill-opacity="0.043"/>
<rect x="10" y="10" width="1" height="1" fill="#de4e0e"/>
<rect x="11" y="10" width="1" height="1" fill="#f68642"/>
<rect x="12" y="10" width="1" height="1" fill="#ff8729"/>
<rect x="13" y="10" width="1" height="1" fill="#ffb884"/>
<rect x="14" y="10" width="1" height="1" fill="#fefffe"/>
<rect x="15" y="10" width="1" height="1" fill="#ed9258"/>
<rect x="16" y="10" width="1" height="1" fill="#f2ba98"/>
<rect x="17" y="10" width="1" height="1" fill="#ffe3cb"/>
<rect x="18" y="10" width="1" height="1" fill="#ed6607"/>
<rect x="19" y="10" width="1" height="1" fill="#f36e03"/>
<rect x="20" y="10" width="1" height="1" fill="#fff3eb"/>
<rect x="21" y="10" width="1" height="1" fill="#fefaee"/>
<rect x="22" y="10" width="1" height="1" fill="#eb5e0b"/>
<rect x="23" y="10" width="1" height="1" fill="#f16608"/>
<rect x="24" y="10" width="1" height="1" fill="#f46e0a" fill-opacity="0.369"/>
<rect x="25" y="10" width="1" height="1" fill="#f4700b" fill-opacity="0.078"/>
<rect x="1" y="11" width="1" height="1" fill="#ff6b17" fill-opacity="0.11"/>
<rect x="2" y="11" width="1" height="1" fill="#ff6b17" fill-opacity="0.027"/>
<rect x="6" y="11" width="1" height="1" fill="#ff6b17" fill-opacity="0.161"/>
<rect x="7" y="11" width="1" height="1" fill="#ff6b17" fill-opacity="0.118"/>
<rect x="9" y="11" width="1" height="1" fill="#ff6701" fill-opacity="0.047"/>
<rect x="10" y="11" width="1" height="1" fill="#e95408"/>
<rect x="11" y="11" width="1" height="1" fill="#f98b41"/>
<rect x="12" y="11" width="1" height="1" fill="#fd8a38"/>
<rect x="13" y="11" width="1" height="1" fill="#fd9142"/>
<rect x="14" y="11" width="1" height="1" fill="#fffffe"/>
<rect x="15" y="11" width="1" height="1" fill="#f07e2e"/>
<rect x="16" y="11" width="1" height="1" fill="#e96708"/>
<rect x="17" y="11" width="1" height="1" fill="#ffe9d5"/>
<rect x="18" y="11" width="1" height="1" fill="#ffeedf"/>
<rect x="19" y="11" width="1" height="1" fill="#ff7800"/>
<rect x="20" y="11" width="1" height="1" fill="#f37828"/>
<rect x="21" y="11" width="1" height="1" fill="#e8651b"/>
<rect x="22" y="11" width="1" height="1" fill="#ef9d60"/>
<rect x="23" y="11" width="1" height="1" fill="#fdb471"/>
<rect x="24" y="11" width="1" height="1" fill="#f86802"/>
<rect x="25" y="11" width="1" height="1" fill="#ff7800" fill-opacity="0.016"/>
<rect x="8" y="12" width="1" height="1" fill="#cf4913" fill-opacity="0.004"/>
<rect x="9" y="12" width="1" height="1" fill="#e64e0a"/>
<rect x="10" y="12" width="1" height="1" fill="#f57828"/>
<rect x="11" y="12" width="1" height="1" fill="#ff9648"/>
<rect x="12" y="12" width="1" height="1" fill="#fea056"/>
<rect x="13" y="12" width="1" height="1" fill="#f86012"/>
<rect x="14" y="12" width="1" height="1" fill="#f7c49b"/>
<rect x="15" y="12" width="1" height="1" fill="#fdeade"/>
<rect x="16" y="12" width="1" height="1" fill="#fffcfb"/>
<rect x="17" y="12" width="1" height="1" fill="#fffdfb"/>
<rect x="18" y="12" width="1" height="1" fill="#ffa75b"/>
<rect x="19" y="12" width="1" height="1" fill="#fb700f"/>
<rect x="20" y="12" width="1" height="1" fill="#f4dbba"/>
<rect x="21" y="12" width="1" height="1" fill="#f9fdf5"/>
<rect x="22" y="12" width="1" height="1" fill="#fbeff1"/>
<rect x="23" y="12" width="1" height="1" fill="#fc8223"/>
<rect x="24" y="12" width="1" height="1" fill="#ff7200" fill-opacity="0.227"/>
<rect x="5" y="13" width="1" height="1" fill="#fc6e02" fill-opacity="0.004"/>
<rect x="8" y="13" width="1" height="1" fill="#cf4913" fill-opacity="0.059"/>
<rect x="9" y="13" width="1" height="1" fill="#db4c0e"/>
<rect x="10" y="13" width="1" height="1" fill="#f4853a"/>
<rect x="11" y="13" width="1" height="1" fill="#f89b56"/>
<rect x="12" y="13" width="1" height="1" fill="#fda357"/>
<rect x="13" y="13" width="1" height="1" fill="#f77b23"/>
<rect x="14" y="13" width="1" height="1" fill="#e1530c"/>
<rect x="15" y="13" width="1" height="1" fill="#ed5b07"/>
<rect x="16" y="13" width="1" height="1" fill="#fa7203"/>
<rect x="17" y="13" width="1" height="1" fill="#f97202"/>
<rect x="18" y="13" width="1" height="1" fill="#fa7102"/>
<rect x="19" y="13" width="1" height="1" fill="#fece9d"/>
<rect x="20" y="13" width="1" height="1" fill="#f8fcfb"/>
<rect x="21" y="13" width="1" height="1" fill="#feebe3"/>
<rect x="22" y="13" width="1" height="1" fill="#f87d35"/>
<rect x="23" y="13" width="1" height="1" fill="#fe6d00" fill-opacity="0.643"/>
<rect x="0" y="14" width="1" height="1" fill="#f26405"/>
<rect x="1" y="14" width="1" height="1" fill="#e75d09"/>
<rect x="2" y="14" width="1" height="1" fill="#ee5d07"/>
<rect x="3" y="14" width="1" height="1" fill="#e06a09" fill-opacity="0.482"/>
<rect x="4" y="14" width="1" height="1" fill="#f96e04" fill-opacity="0.165"/>
<rect x="5" y="14" width="1" height="1" fill="#f66905" fill-opacity="0.102"/>
<rect x="6" y="14" width="1" height="1" fill="#ef6407" fill-opacity="0.027"/>
<rect x="7" y="14" width="1" height="1" fill="#cf4913" fill-opacity="0.004"/>
<rect x="8" y="14" width="1" height="1" fill="#ed5307"/>
<rect x="9" y="14" width="1" height="1" fill="#efd305"/>
<rect x="10" y="14" width="1" height="1" fill="#ff6902"/>
<rect x="11" y="14" width="1" height="1" fill="#fd9d50"/>
<rect x="12" y="14" width="1" height="1" fill="#ffa85a"/>
<rect x="13" y="14" width="1" height="1" fill="#ff973a"/>
<rect x="14" y="14" width="1" height="1" fill="#fa771b"/>
<rect x="15" y="14" width="1" height="1" fill="#e24c0b"/>
<rect x="16" y="14" width="1" height="1" fill="#e67632"/>
<rect x="17" y="14" width="1" height="1" fill="#fcd8c4"/>
<rect x="18" y="14" width="1" height="1" fill="#ffdbc5"/>
<rect x="19" y="14" width="1" height="1" fill="#ffefe3"/>
<rect x="20" y="14" width="1" height="1" fill="#fee8e0"/>
<rect x="21" y="14" width="1" height="1" fill="#f57626"/>
<rect x="22" y="14" width="1" height="1" fill="#fa6a03" fill-opacity="0.675"/>
<rect x="25" y="14" width="1" height="1" fill="#bcad00" fill-opacity="0.043"/>
<rect x="0" y="15" width="1" height="1" fill="#ed5f0c"/>
<rect x="1" y="15" width="1" height="1" fill="#fce7dd"/>
<rect x="2" y="15" width="1" height="1" fill="#fecca8"/>
<rect x="3" y="15" width="1" height="1" fill="#e75d0b"/>
<rect x="4" y="15" width="1" height="1" fill="#e1560b"/>
<rect x="5" y="15" width="1" height="1" fill="#e1560e"/>
<rect x="6" y="15" width="1" height="1" fill="#dc4c0e"/>
<rect x="7" y="15" width="1" height="1" fill="#e24d0c"/>
<rect x="8" y="15" width="1" height="1" fill="#e64d0a"/>
<rect x="9" y="15" width="1" height="1" fill="#faf101"/>
<rect x="10" y="15" width="1" height="1" fill="#feff00"/>
<rect x="11" y="15" width="1" height="1" fill="#ff7500"/>
<rect x="12" y="15" width="1" height="1" fill="#ff8d29"/>
<rect x="13" y="15" width="1" height="1" fill="#ff9b45"/>
<rect x="14" y="15" width="1" height="1" fill="#ff8118"/>
<rect x="15" y="15" width="1" height="1" fill="#ff6a01"/>
<rect x="16" y="15" width="1" height="1" fill="#e94c06"/>
<rect x="17" y="15" width="1" height="1" fill="#ec5608"/>
<rect x="18" y="15" width="1" height="1" fill="#ed6007" fill-opacity="0.957"/>
<rect x="19" y="15" width="1" height="1" fill="#ee6007" fill-opacity="0.965"/>
<rect x="20" y="15" width="1" height="1" fill="#ee5308" fill-opacity="0.984"/>
<rect x="21" y="15" width="1" height="1" fill="#f66504" fill-opacity="0.659"/>
<rect x="25" y="15" width="1" height="1" fill="#ceb700" fill-opacity="0.012"/>
<rect x="0" y="16" width="1" height="1" fill="#eb5d08"/>
<rect x="1" y="16" width="1" height="1" fill="#fef5f2"/>
<rect x="2" y="16" width="1" height="1" fill="#fffefe"/>
<rect x="3" y="16" width="1" height="1" fill="#fff1f0"/>
<rect x="4" y="16" width="1" height="1" fill="#fff2ec"/>
<rect x="5" y="16" width="1" height="1" fill="#fff3f0"/>
<rect x="6" y="16" width="1" height="1" fill="#ffe8df"/>
<rect x="7" y="16" width="1" height="1" fill="#ffe5dd"/>
<rect x="8" y="16" width="1" height="1" fill="#fdad84"/>
<rect x="9" y="16" width="1" height="1" fill="#fc6a08"/>
<rect x="10" y="16" width="1" height="1" fill="#fbae02"/>
<rect x="11" y="16" width="1" height="1" fill="#ffb901"/>
<rect x="12" y="16" width="1" height="1" fill="#ff7800"/>
<rect x="13" y="16" width="1" height="1" fill="#ff7a11"/>
<rect x="14" y="16" width="1" height="1" fill="#ff8822"/>
<rect x="15" y="16" width="1" height="1" fill="#ff7702"/>
<rect x="16" y="16" width="1" height="1" fill="#fb6502"/>
<rect x="17" y="16" width="1" height="1" fill="#ef6007"/>
<rect x="18" y="16" width="1" height="1" fill="#d74b10" fill-opacity="0.176"/>
<rect x="19" y="16" width="1" height="1" fill="#dd4d0e" fill-opacity="0.067"/>
<rect x="20" y="16" width="1" height="1" fill="#cf4913" fill-opacity="0.012"/>
<rect x="0" y="17" width="1" height="1" fill="#ec5608"/>
<rect x="1" y="17" width="1" height="1" fill="#fceae2"/>
<rect x="2" y="17" width="1" height="1" fill="#fffcfd"/>
<rect x="3" y="17" width="1" height="1" fill="#fffcfe"/>
<rect x="4" y="17" width="1" height="1" fill="#fefffe"/>
<rect x="5" y="17" width="1" height="1" fill="#fefeff"/>
<rect x="6" y="17" width="1" height="1" fill="#fdffff"/>
<rect x="7" y="17" width="1" height="1" fill="#ffffff"/>
<rect x="8" y="17" width="1" height="1" fill="#fffcfa"/>
<rect x="9" y="17" width="1" height="1" fill="#ffba94"/>
<rect x="10" y="17" width="1" height="1" fill="#fe6f04"/>
<rect x="11" y="17" width="1" height="1" fill="#ff6e04"/>
<rect x="12" y="17" width="1" height="1" fill="#ff6f02"/>
<rect x="13" y="17" width="1" height="1" fill="#ff7100"/>
<rect x="14" y="17" width="1" height="1" fill="#ff6b02"/>
<rect x="15" y="17" width="1" height="1" fill="#ff7a0b"/>
<rect x="16" y="17" width="1" height="1" fill="#ff7300"/>
<rect x="17" y="17" width="1" height="1" fill="#fa6e02"/>
<rect x="18" y="17" width="1" height="1" fill="#e86008" fill-opacity="0.973"/>
<rect x="19" y="17" width="1" height="1" fill="#df4e0c" fill-opacity="0.055"/>
<rect x="0" y="18" width="1" height="1" fill="#f65502"/>
<rect x="1" y="18" width="1" height="1" fill="#fc994c"/>
<rect x="2" y="18" width="1" height="1" fill="#fce3da"/>
<rect x="3" y="18" width="1" height="1" fill="#fee9de"/>
<rect x="4" y="18" width="1" height="1" fill="#fff7fc"/>
<rect x="5" y="18" width="1" height="1" fill="#fffafe"/>
<rect x="6" y="18" width="1" height="1" fill="#fcfefd"/>
<rect x="7" y="18" width="1" height="1" fill="#fef9fb"/>
<rect x="8" y="18" width="1" height="1" fill="#fefbf6"/>
<rect x="9" y="18" width="1" height="1" fill="#fdede4"/>
<rect x="10" y="18" width="1" height="1" fill="#feae83"/>
<rect x="11" y="18" width="1" height="1" fill="#ff7303"/>
<rect x="12" y="18" width="1" height="1" fill="#dc4a05"/>
<rect x="13" y="18" width="1" height="1" fill="#da4804"/>
<rect x="14" y="18" width="1" height="1" fill="#fe6900"/>
<rect x="15" y="18" width="1" height="1" fill="#fe6601"/>
<rect x="16" y="18" width="1" height="1" fill="#fe6b01"/>
<rect x="17" y="18" width="1" height="1" fill="#fd6501"/>
<rect x="18" y="18" width="1" height="1" fill="#dd510d"/>
<rect x="19" y="18" width="1" height="1" fill="#df4e0c" fill-opacity="0.133"/>
<rect x="0" y="19" width="1" height="1" fill="#f86716" fill-opacity="0.314"/>
<rect x="1" y="19" width="1" height="1" fill="#f65b0d"/>
<rect x="2" y="19" width="1" height="1" fill="#ec4f05"/>
<rect x="3" y="19" width="1" height="1" fill="#ed4b05"/>
<rect x="4" y="19" width="1" height="1" fill="#fa4c02"/>
<rect x="5" y="19" width="1" height="1" fill="#fb5c04"/>
<rect x="6" y="19" width="1" height="1" fill="#f35c03"/>
<rect x="7" y="19" width="1" height="1" fill="#f05a03"/>
<rect x="8" y="19" width="1" height="1" fill="#f85c03"/>
<rect x="9" y="19" width="1" height="1" fill="#ef6206"/>
<rect x="10" y="19" width="1" height="1" fill="#e75e09"/>
<rect x="11" y="19" width="1" height="1" fill="#e35c0b"/>
<rect x="12" y="19" width="1" height="1" fill="#e45a0a"/>
<rect x="13" y="19" width="1" height="1" fill="#c43f0c"/>
<rect x="14" y="19" width="1" height="1" fill="#c03c0b"/>
<rect x="15" y="19" width="1" height="1" fill="#e4590b"/>
<rect x="16" y="19" width="1" height="1" fill="#e5570b"/>
<rect x="17" y="19" width="1" height="1" fill="#e6570a"/>
<rect x="18" y="19" width="1" height="1" fill="#db510e"/>
<rect x="19" y="19" width="1" height="1" fill="#ec5109" fill-opacity="0.098"/>
<rect x="2" y="20" width="1" height="1" fill="#cf4913" fill-opacity="0.008"/>
<rect x="12" y="20" width="1" height="1" fill="#ff5601" fill-opacity="0.012"/>
<rect x="13" y="20" width="1" height="1" fill="#ff5601" fill-opacity="0.075"/>
<rect x="14" y="20" width="1" height="1" fill="#7a536d" fill-opacity="0.035"/>
<rect x="15" y="20" width="1" height="1" fill="#6a527b" fill-opacity="0.031"/>
<rect x="16" y="20" width="1" height="1" fill="#6a527b" fill-opacity="0.063"/>
<rect x="17" y="20" width="1" height="1" fill="#6d507f" fill-opacity="0.122"/>
<rect x="18" y="20" width="1" height="1" fill="#705281" fill-opacity="0.09"/>
<rect x="19" y="20" width="1" height="1" fill="#6a527b" fill-opacity="0.031"/>
<rect x="20" y="20" width="1" height="1" fill="#6a527b" fill-opacity="0.024"/>
<rect x="21" y="20" width="1" height="1" fill="#6a527b" fill-opacity="0.016"/>
<rect x="22" y="20" width="1" height="1" fill="#977946" fill-opacity="0.137"/>
<rect x="23" y="20" width="1" height="1" fill="#907152" fill-opacity="0.094"/>
<rect x="24" y="20" width="1" height="1" fill="#b4a8bd" fill-opacity="0.016"/>
</svg>