<?xml version="1.0" encoding="UTF-8" standalone="no"?>
<svg xmlns="http://www.w3.org/2000/svg" width="26" height="21" shape-rendering="crispEdges">
<rect x="23" y="1" width="1" height="1" fill="#beaf00" fill-opacity="0.098"/>
<rect x="24" y="1" width="1" height="1" fill="#c4b100" fill-opacity="0.086"/>
<rect x="11" y="2" width="1" height="1" fill="#ff9400" fill-opacity="0.035"/>
<rect x="12" y="2" width="1" height="1" fill="#ffce00" fill-opacity="0.027"/>
<rect x="13" y="2" width="1" height="1" fill="#ffce00" fill-opacity="0.016"/>
<rect x="22" y="2" width="1" height="1" fill="#cea300" fill-opacity="0.482"/>
<rect x="23" y="2" width="1" height="1" fill="#d8a100"/>
<rect x="24" y="2" width="1" height="1" fill="#dfa600"/>
<rect x="25" y="2" width="1" height="1" fill="#ceb700" fill-opacity="0.098"/>
<rect x="0" y="3" width="1" height="1" fill="#ff6b17" fill-opacity="0.035"/>
<rect x="10" y="3" width="1" height="1" fill="#d89800" fill-opacity="0.961"/>
<rect x="11" y="3" width="1" height="1" fill="#e69800"/>
<rect x="12" y="3" width="1" height="1" fill="#db9f00"/>
<rect x="13" y="3" width="1" height="1" fill="#d39d00" fill-opacity="0.957"/>
<rect x="14" y="3" width="1" height="1" fill="#ffc400" fill-opacity="0.125"/>
<rect x="15" y="3" width="1" height="1" fill="#ffce00" fill-opacity="0.008"/>
<rect x="21" y="3" width="1" height="1" fill="#ce9a00" fill-opacity="0.776"/>
<rect x="22" y="3" width="1" height="1" fill="#e5a300"/>
<rect x="23" y="3" width="1" height="1" fill="#ffd743"/>
<rect x="24" y="3" width="1" height="1" fill="#dba600"/>
<rect x="25" y="3" width="1" height="1" fill="#dab300" fill-opacity="0.102"/>
<rect x="0" y="4" width="1" height="1" fill="#ff6b17" fill-opacity="0.027"/>
<rect x="4" y="4" width="1" height="1" fill="#886d00" fill-opacity="0.024"/>
<rect x="5" y="4" width="1" height="1" fill="#886d00" fill-opacity="0.027"/>
<rect x="9" y="4" width="1" height="1" fill="#ce9a00" fill-opacity="0.012"/>
<rect x="10" y="4" width="1" height="1" fill="#db9c00"/>
<rect x="11" y="4" width="1" height="1" fill="#ffc407"/>
<rect x="12" y="4" width="1" height="1" fill="#ffd604"/>
<rect x="13" y="4" width="1" height="1" fill="#f0b700"/>
<rect x="14" y="4" width="1" height="1" fill="#dba300"/>
<rect x="15" y="4" width="1" height="1" fill="#d5a600" fill-opacity="0.992"/>
<rect x="16" y="4" width="1" height="1" fill="#ffb300" fill-opacity="0.098"/>
<rect x="18" y="4" width="1" height="1" fill="#ff8b00" fill-opacity="0.004"/>
<rect x="19" y="4" width="1" height="1" fill="#e89500" fill-opacity="0.012"/>
<rect x="20" y="4" width="1" height="1" fill="#cc9b00" fill-opacity="0.733"/>
<rect x="21" y="4" width="1" height="1" fill="#e9a500"/>
<rect x="22" y="4" width="1" height="1" fill="#fff2d0"/>
<rect x="23" y="4" width="1" height="1" fill="#fff7d6"/>
<rect x="24" y="4" width="1" height="1" fill="#d2a100"/>
<rect x="25" y="4" width="1" height="1" fill="#f0ab00" fill-opacity="0.035"/>
<rect x="0" y="5" width="1" height="1" fill="#ff6b17" fill-opacity="0.02"/>
<rect x="3" y="5" width="1" height="1" fill="#8b7100" fill-opacity="0.173"/>
<rect x="4" y="5" width="1" height="1" fill="#d0a100"/>
<rect x="5" y="5" width="1" height="1" fill="#d1a200" fill-opacity="0.486"/>
<rect x="6" y="5" width="1" height="1" fill="#947200" fill-opacity="0.051"/>
<rect x="9" y="5" width="1" height="1" fill="#ce9a00" fill-opacity="0.012"/>
<rect x="10" y="5" width="1" height="1" fill="#e19700"/>
<rect x="11" y="5" width="1" height="1" fill="#ffc60e"/>
<rect x="12" y="5" width="1" height="1" fill="#ffdb29"/>
<rect x="13" y="5" width="1" height="1" fill="#ffd303"/>
<rect x="14" y="5" width="1" height="1" fill="#f3cf00"/>
<rect x="15" y="5" width="1" height="1" fill="#e0b200"/>
<rect x="16" y="5" width="1" height="1" fill="#dda400"/>
<rect x="17" y="5" width="1" height="1" fill="#eaba00" fill-opacity="0.298"/>
<rect x="18" y="5" width="1" height="1" fill="#cf9900" fill-opacity="0.678"/>
<rect x="19" y="5" width="1" height="1" fill="#d39a00"/>
<rect x="20" y="5" width="1" height="1" fill="#f6c721"/>
<rect x="21" y="5" width="1" height="1" fill="#fffae5"/>
<rect x="22" y="5" width="1" height="1" fill="#fffffe"/>
<rect x="23" y="5" width="1" height="1" fill="#e9c51e"/>
<rect x="24" y="5" width="1" height="1" fill="#da9d00" fill-opacity="0.788"/>
<rect x="25" y="5" width="1" height="1" fill="#d19900" fill-opacity="0.02"/>
<rect x="2" y="6" width="1" height="1" fill="#886d00" fill-opacity="0.004"/>
<rect x="3" y="6" width="1" height="1" fill="#cc9300"/>
<rect x="4" y="6" width="1" height="1" fill="#ffd33c"/>
<rect x="5" y="6" width="1" height="1" fill="#cd9b00"/>
<rect x="6" y="6" width="1" height="1" fill="#e89100" fill-opacity="0.161"/>
<rect x="9" y="6" width="1" height="1" fill="#da9500" fill-opacity="0.016"/>
<rect x="10" y="6" width="1" height="1" fill="#e59b00"/>
<rect x="11" y="6" width="1" height="1" fill="#ffca17"/>
<rect x="12" y="6" width="1" height="1" fill="#ffdf3e"/>
<rect x="13" y="6" width="1" height="1" fill="#ffe753"/>
<rect x="14" y="6" width="1" height="1" fill="#f5cf00"/>
<rect x="15" y="6" width="1" height="1" fill="#e6c500"/>
<rect x="16" y="6" width="1" height="1" fill="#d39700"/>
<rect x="17" y="6" width="1" height="1" fill="#e39b00"/>
<rect x="18" y="6" width="1" height="1" fill="#fbc110"/>
<rect x="19" y="6" width="1" height="1" fill="#fff8d9"/>
<rect x="20" y="6" width="1" height="1" fill="#fffbef"/>
<rect x="21" y="6" width="1" height="1" fill="#fffffe"/>
<rect x="22" y="6" width="1" height="1" fill="#ffd40d"/>
<rect x="23" y="6" width="1" height="1" fill="#d99f00"/>
<rect x="24" y="6" width="1" height="1" fill="#ebb200" fill-opacity="0.275"/>
<rect x="2" y="7" width="1" height="1" fill="#bc9600" fill-opacity="0.055"/>
<rect x="3" y="7" width="1" height="1" fill="#c89700" fill-opacity="0.373"/>
<rect x="4" y="7" width="1" height="1" fill="#d09e00"/>
<rect x="5" y="7" width="1" height="1" fill="#cc8f00" fill-opacity="0.475"/>
<rect x="6" y="7" width="1" height="1" fill="#c77c00" fill-opacity="0.071"/>
<rect x="7" y="7" width="1" height="1" fill="#b59200" fill-opacity="0.004"/>
<rect x="9" y="7" width="1" height="1" fill="#ec9f00" fill-opacity="0.031"/>
<rect x="10" y="7" width="1" height="1" fill="#e39c00"/>
<rect x="11" y="7" width="1" height="1" fill="#ffca23"/>
<rect x="12" y="7" width="1" height="1" fill="#ffdb2f"/>
<rect x="13" y="7" width="1" height="1" fill="#fdd505"/>
<rect x="14" y="7" width="1" height="1" fill="#e19900"/>
<rect x="15" y="7" width="1" height="1" fill="#fcb005"/>
<rect x="16" y="7" width="1" height="1" fill="#ffd15a"/>
<rect x="17" y="7" width="1" height="1" fill="#fffbef"/>
<rect x="18" y="7" width="1" height="1" fill="#fffcf2"/>
<rect x="19" y="7" width="1" height="1" fill="#fffefc"/>
<rect x="20" y="7" width="1" height="1" fill="#fff3c3"/>
<rect x="21" y="7" width="1" height="1" fill="#ffd00c"/>
<rect x="22" y="7" width="1" height="1" fill="#dba300"/>
<rect x="23" y="7" width="1" height="1" fill="#e3b500"/>
<rect x="24" y="7" width="1" height="1" fill="#db9f00"/>
<rect x="25" y="7" width="1" height="1" fill="#cfab00" fill-opacity="0.133"/>
<rect x="0" y="8" width="1" height="1" fill="#c4a100" fill-opacity="0.047"/>
<rect x="1" y="8" width="1" height="1" fill="#9d7f00" fill-opacity="0.204"/>
<rect x="2" y="8" width="1" height="1" fill="#cf9d00"/>
<rect x="3" y="8" width="1" height="1" fill="#daa300" fill-opacity="0.533"/>
<rect x="4" y="8" width="1" height="1" fill="#b29000" fill-opacity="0.243"/>
<rect x="5" y="8" width="1" height="1" fill="#ba8100" fill-opacity="0.357"/>
<rect x="6" y="8" width="1" height="1" fill="#cca200"/>
<rect x="7" y="8" width="1" height="1" fill="#d5a100" fill-opacity="0.4"/>
<rect x="8" y="8" width="1" height="1" fill="#c09c00" fill-opacity="0.035"/>
<rect x="9" y="8" width="1" height="1" fill="#d5b700" fill-opacity="0.027"/>
<rect x="10" y="8" width="1" height="1" fill="#e39b00"/>
<rect x="11" y="8" width="1" height="1" fill="#ffcc1d"/>
<rect x="12" y="8" width="1" height="1" fill="#ffdd2b"/>
<rect x="13" y="8" width="1" height="1" fill="#d99f00"/>
<rect x="14" y="8" width="1" height="1" fill="#ffc229"/>
<rect x="15" y="8" width="1" height="1" fill="#fff4c2"/>
<rect x="16" y="8" width="1" height="1" fill="#fffefa"/>
<rect x="17" y="8" width="1" height="1" fill="#fffefc"/>
<rect x="18" y="8" width="1" height="1" fill="#fffef7"/>
<rect x="19" y="8" width="1" height="1" fill="#fee256"/>
<rect x="20" y="8" width="1" height="1" fill="#eaa500"/>
<rect x="21" y="8" width="1" height="1" fill="#f2b000"/>
<rect x="22" y="8" width="1" height="1" fill="#ffe374"/>
<rect x="23" y="8" width="1" height="1" fill="#ffe35e"/>
<rect x="24" y="8" width="1" height="1" fill="#d8a300"/>
<rect x="25" y="8" width="1" height="1" fill="#f4a400" fill-opacity="0.039"/>
<rect x="1" y="9" width="1" height="1" fill="#c79900"/>
<rect x="2" y="9" width="1" height="1" fill="#ffca2e"/>
<rect x="3" y="9" width="1" height="1" fill="#d5a300"/>
<rect x="4" y="9" width="1" height="1" fill="#eba800" fill-opacity="0.357"/>
<rect x="5" y="9" width="1" height="1" fill="#d3a200"/>
<rect x="6" y="9" width="1" height="1" fill="#ffd63f"/>
<rect x="7" y="9" width="1" height="1" fill="#cea200"/>
<rect x="8" y="9" width="1" height="1" fill="#ec9a00" fill-opacity="0.196"/>
<rect x="9" y="9" width="1" height="1" fill="#c6b000" fill-opacity="0.043"/>
<rect x="10" y="9" width="1" height="1" fill="#e19b00"/>
<rect x="11" y="9" width="1" height="1" fill="#ffd118"/>
<rect x="12" y="9" width="1" height="1" fill="#ffe332"/>
<rect x="13" y="9" width="1" height="1" fill="#fdb914"/>
<rect x="14" y="9" width="1" height="1" fill="#ffdb7e"/>
<rect x="15" y="9" width="1" height="1" fill="#fff069"/>
<rect x="16" y="9" width="1" height="1" fill="#cf9e00"/>
<rect x="17" y="9" width="1" height="1" fill="#e1a300"/>
<rect x="18" y="9" width="1" height="1" fill="#d7a300"/>
<rect x="19" y="9" width="1" height="1" fill="#dea000"/>
<rect x="20" y="9" width="1" height="1" fill="#fbc739"/>
<rect x="21" y="9" width="1" height="1" fill="#fffdf6"/>
<rect x="22" y="9" width="1" height="1" fill="#fffae6"/>
<rect x="23" y="9" width="1" height="1" fill="#dfa400"/>
<rect x="24" y="9" width="1" height="1" fill="#c9a700" fill-opacity="0.337"/>
<rect x="1" y="10" width="1" height="1" fill="#b68700" fill-opacity="0.259"/>
<rect x="2" y="10" width="1" height="1" fill="#d39b00"/>
<rect x="3" y="10" width="1" height="1" fill="#efa200" fill-opacity="0.267"/>
<rect x="4" y="10" width="1" height="1" fill="#b07a00" fill-opacity="0.125"/>
<rect x="5" y="10" width="1" height="1" fill="#b37d00" fill-opacity="0.255"/>
<rect x="6" y="10" width="1" height="1" fill="#d0a200"/>
<rect x="7" y="10" width="1" height="1" fill="#e8ab00" fill-opacity="0.518"/>
<rect x="8" y="10" width="1" height="1" fill="#d1a700" fill-opacity="0.071"/>
<rect x="9" y="10" width="1" height="1" fill="#b4a000" fill-opacity="0.024"/>
<rect x="10" y="10" width="1" height="1" fill="#db9a00"/>
<rect x="11" y="10" width="1" height="1" fill="#ffd206"/>
<rect x="12" y="10" width="1" height="1" fill="#ffd01a"/>
<rect x="13" y="10" width="1" height="1" fill="#ffcb49"/>
<rect x="14" y="10" width="1" height="1" fill="#fffdfa"/>
<rect x="15" y="10" width="1" height="1" fill="#f3c001"/>
<rect x="16" y="10" width="1" height="1" fill="#ffc818"/>
<rect x="17" y="10" width="1" height="1" fill="#fbf2dc"/>
<rect x="18" y="10" width="1" height="1" fill="#d2a100"/>
<rect x="19" y="10" width="1" height="1" fill="#e1a300"/>
<rect x="20" y="10" width="1" height="1" fill="#ffe095"/>
<rect x="21" y="10" width="1" height="1" fill="#fff7d7"/>
<rect x="22" y="10" width="1" height="1" fill="#d69b00"/>
<rect x="23" y="10" width="1" height="1" fill="#e49f00"/>
<rect x="24" y="10" width="1" height="1" fill="#f09300" fill-opacity="0.376"/>
<rect x="25" y="10" width="1" height="1" fill="#ff8b00" fill-opacity="0.082"/>
<rect x="1" y="11" width="1" height="1" fill="#876d00" fill-opacity="0.067"/>
<rect x="2" y="11" width="1" height="1" fill="#a78800" fill-opacity="0.106"/>
<rect x="3" y="11" width="1" height="1" fill="#af8c00" fill-opacity="0.024"/>
<rect x="6" y="11" width="1" height="1" fill="#886d00" fill-opacity="0.082"/>
<rect x="7" y="11" width="1" height="1" fill="#886d00" fill-opacity="0.02"/>
<rect x="9" y="11" width="1" height="1" fill="#bf8f00" fill-opacity="0.522"/>
<rect x="10" y="11" width="1" height="1" fill="#dd9d00"/>
<rect x="11" y="11" width="1" height="1" fill="#ffd20a"/>
<rect x="12" y="11" width="1" height="1" fill="#ffd92d"/>
<rect x="13" y="11" width="1" height="1" fill="#fec125"/>
<rect x="14" y="11" width="1" height="1" fill="#fff4e2"/>
<rect x="15" y="11" width="1" height="1" fill="#e0a300"/>
<rect x="16" y="11" width="1" height="1" fill="#d89f00"/>
<rect x="17" y="11" width="1" height="1" fill="#fff5e6"/>
<rect x="18" y="11" width="1" height="1" fill="#fff2d5"/>
<rect x="19" y="11" width="1" height="1" fill="#d9a500"/>
<rect x="20" y="11" width="1" height="1" fill="#ecb700"/>
<rect x="21" y="11" width="1" height="1" fill="#e7a800"/>
<rect x="22" y="11" width="1" height="1" fill="#ffc113"/>
<rect x="23" y="11" width="1" height="1" fill="#ffd21b"/>
<rect x="24" y="11" width="1" height="1" fill="#da9e00"/>
<rect x="25" y="11" width="1" height="1" fill="#f09100" fill-opacity="0.075"/>
<rect x="8" y="12" width="1" height="1" fill="#ff8b00" fill-opacity="0.008"/>
<rect x="9" y="12" width="1" height="1" fill="#d99900"/>
<rect x="10" y="12" width="1" height="1" fill="#f5c500"/>
<rect x="11" y="12" width="1" height="1" fill="#ffd810"/>
<rect x="12" y="12" width="1" height="1" fill="#ffd72e"/>
<rect x="13" y="12" width="1" height="1" fill="#f8b606"/>
<rect x="14" y="12" width="1" height="1" fill="#ffd45f"/>
<rect x="15" y="12" width="1" height="1" fill="#fff0a8"/>
<rect x="16" y="12" width="1" height="1" fill="#fdfbf1"/>
<rect x="17" y="12" width="1" height="1" fill="#fffded"/>
<rect x="18" y="12" width="1" height="1" fill="#fccf05"/>
<rect x="19" y="12" width="1" height="1" fill="#d7a500"/>
<rect x="20" y="12" width="1" height="1" fill="#ffe099"/>
<rect x="21" y="12" width="1" height="1" fill="#fff1cb"/>
<rect x="22" y="12" width="1" height="1" fill="#fff7d4"/>
<rect x="23" y="12" width="1" height="1" fill="#ebad00"/>
<rect x="24" y="12" width="1" height="1" fill="#f09c00" fill-opacity="0.537"/>
<rect x="25" y="12" width="1" height="1" fill="#ff9d00" fill-opacity="0.004"/>
<rect x="8" y="13" width="1" height="1" fill="#c0a600" fill-opacity="0.38"/>
<rect x="9" y="13" width="1" height="1" fill="#deb400"/>
<rect x="10" y="13" width="1" height="1" fill="#ffd00a"/>
<rect x="11" y="13" width="1" height="1" fill="#ffdd17"/>
<rect x="12" y="13" width="1" height="1" fill="#ffe628"/>
<rect x="13" y="13" width="1" height="1" fill="#f1c700"/>
<rect x="14" y="13" width="1" height="1" fill="#e1a000"/>
<rect x="15" y="13" width="1" height="1" fill="#dba800"/>
<rect x="16" y="13" width="1" height="1" fill="#d3a500"/>
<rect x="17" y="13" width="1" height="1" fill="#d2a400"/>
<rect x="18" y="13" width="1" height="1" fill="#dfb300"/>
<rect x="19" y="13" width="1" height="1" fill="#ffe87d"/>
<rect x="20" y="13" width="1" height="1" fill="#fff7da"/>
<rect x="21" y="13" width="1" height="1" fill="#fff0ba"/>
<rect x="22" y="13" width="1" height="1" fill="#eaae00"/>
<rect x="23" y="13" width="1" height="1" fill="#ecb800" fill-opacity="0.824"/>
<rect x="24" y="13" width="1" height="1" fill="#ffda86" fill-opacity="0.078"/>
<rect x="0" y="14" width="1" height="1" fill="#d4a700"/>
<rect x="1" y="14" width="1" height="1" fill="#e3b300"/>
<rect x="2" y="14" width="1" height="1" fill="#dab400"/>
<rect x="3" y="14" width="1" height="1" fill="#b89300" fill-opacity="0.416"/>
<rect x="4" y="14" width="1" height="1" fill="#b18900" fill-opacity="0.231"/>
<rect x="5" y="14" width="1" height="1" fill="#b69800" fill-opacity="0.039"/>
<rect x="6" y="14" width="1" height="1" fill="#c4a000" fill-opacity="0.035"/>
<rect x="7" y="14" width="1" height="1" fill="#a98b00" fill-opacity="0.31"/>
<rect x="8" y="14" width="1" height="1" fill="#d79d00"/>
<rect x="9" y="14" width="1" height="1" fill="#f8d400"/>
<rect x="10" y="14" width="1" height="1" fill="#dbad00"/>
<rect x="11" y="14" width="1" height="1" fill="#ffce04"/>
<rect x="12" y="14" width="1" height="1" fill="#ffe11c"/>
<rect x="13" y="14" width="1" height="1" fill="#ffd80e"/>
<rect x="14" y="14" width="1" height="1" fill="#efc500"/>
<rect x="15" y="14" width="1" height="1" fill="#daa100"/>
<rect x="16" y="14" width="1" height="1" fill="#f8c81b"/>
<rect x="17" y="14" width="1" height="1" fill="#fae596"/>
<rect x="18" y="14" width="1" height="1" fill="#f9f4d6"/>
<rect x="19" y="14" width="1" height="1" fill="#fcf9e1"/>
<rect x="20" y="14" width="1" height="1" fill="#fff3c6"/>
<rect x="21" y="14" width="1" height="1" fill="#e9a700"/>
<rect x="22" y="14" width="1" height="1" fill="#e8af00" fill-opacity="0.812"/>
<rect x="23" y="14" width="1" height="1" fill="#ffea94" fill-opacity="0.098"/>
<rect x="24" y="14" width="1" height="1" fill="#ff8b00" fill-opacity="0.012"/>
<rect x="25" y="14" width="1" height="1" fill="#87a408" fill-opacity="0.082"/>
<rect x="0" y="15" width="1" height="1" fill="#d69f00"/>
<rect x="1" y="15" width="1" height="1" fill="#ffe28d"/>
<rect x="2" y="15" width="1" height="1" fill="#ffe462"/>
<rect x="3" y="15" width="1" height="1" fill="#d8a600"/>
<rect x="4" y="15" width="1" height="1" fill="#e1a900"/>
<rect x="5" y="15" width="1" height="1" fill="#deac00"/>
<rect x="6" y="15" width="1" height="1" fill="#daa600"/>
<rect x="7" y="15" width="1" height="1" fill="#d7a600"/>
<rect x="8" y="15" width="1" height="1" fill="#e5af00"/>
<rect x="9" y="15" width="1" height="1" fill="#ffe708"/>
<rect x="10" y="15" width="1" height="1" fill="#fff004"/>
<rect x="11" y="15" width="1" height="1" fill="#e4ad00"/>
<rect x="12" y="15" width="1" height="1" fill="#f5ca00"/>
<rect x="13" y="15" width="1" height="1" fill="#fcd600"/>
<rect x="14" y="15" width="1" height="1" fill="#ffd605"/>
<rect x="15" y="15" width="1" height="1" fill="#f0c700"/>
<rect x="16" y="15" width="1" height="1" fill="#e5ad00"/>
<rect x="17" y="15" width="1" height="1" fill="#d2a000"/>
<rect x="18" y="15" width="1" height="1" fill="#d2aa00" fill-opacity="0.953"/>
<rect x="19" y="15" width="1" height="1" fill="#d0ac00" fill-opacity="0.961"/>
<rect x="20" y="15" width="1" height="1" fill="#d7ab00" fill-opacity="0.98"/>
<rect x="21" y="15" width="1" height="1" fill="#dbb200" fill-opacity="0.741"/>
<rect x="22" y="15" width="1" height="1" fill="#ffefab" fill-opacity="0.047"/>
<rect x="23" y="15" width="1" height="1" fill="#ff8b00" fill-opacity="0.016"/>
<rect x="24" y="15" width="1" height="1" fill="#ff8b00" fill-opacity="0.055"/>
<rect x="25" y="15" width="1" height="1" fill="#57ae0b" fill-opacity="0.012"/>
<rect x="0" y="16" width="1" height="1" fill="#dd9d00"/>
<rect x="1" y="16" width="1" height="1" fill="#ffe9a5"/>
<rect x="2" y="16" width="1" height="1" fill="#fff8da"/>
<rect x="3" y="16" width="1" height="1" fill="#fff8d9"/>
<rect x="4" y="16" width="1" height="1" fill="#fff5cf"/>
<rect x="5" y="16" width="1" height="1" fill="#ffec93"/>
<rect x="6" y="16" width="1" height="1" fill="#ffea83"/>
<rect x="7" y="16" width="1" height="1" fill="#ffe574"/>
<rect x="8" y="16" width="1" height="1" fill="#ffd30d"/>
<rect x="9" y="16" width="1" height="1" fill="#dca000"/>
<rect x="10" y="16" width="1" height="1" fill="#f4a300"/>
<rect x="11" y="16" width="1" height="1" fill="#fba000"/>
<rect x="12" y="16" width="1" height="1" fill="#e0a700"/>
<rect x="13" y="16" width="1" height="1" fill="#f0c900"/>
<rect x="14" y="16" width="1" height="1" fill="#ffd806"/>
<rect x="15" y="16" width="1" height="1" fill="#fbd200"/>
<rect x="16" y="16" width="1" height="1" fill="#eac200"/>
<rect x="17" y="16" width="1" height="1" fill="#dba900"/>
<rect x="18" y="16" width="1" height="1" fill="#e8a700" fill-opacity="0.773"/>
<rect x="19" y="16" width="1" height="1" fill="#d8a500" fill-opacity="0.451"/>
<rect x="20" y="16" width="1" height="1" fill="#ffce00" fill-opacity="0.051"/>
<rect x="21" y="16" width="1" height="1" fill="#ffc700" fill-opacity="0.035"/>
<rect x="22" y="16" width="1" height="1" fill="#ff8b00" fill-opacity="0.031"/>
<rect x="23" y="16" width="1" height="1" fill="#ff8b00" fill-opacity="0.035"/>
<rect x="0" y="17" width="1" height="1" fill="#e09d00"/>
<rect x="1" y="17" width="1" height="1" fill="#ffe397"/>
<rect x="2" y="17" width="1" height="1" fill="#fffae5"/>
<rect x="3" y="17" width="1" height="1" fill="#fff7db"/>
<rect x="4" y="17" width="1" height="1" fill="#fffdf6"/>
<rect x="5" y="17" width="1" height="1" fill="#ffffff"/>
<rect x="6" y="17" width="1" height="1" fill="#fffcf3"/>
<rect x="7" y="17" width="1" height="1" fill="#fffcf5"/>
<rect x="8" y="17" width="1" height="1" fill="#fff8da"/>
<rect x="9" y="17" width="1" height="1" fill="#f9d31d"/>
<rect x="10" y="17" width="1" height="1" fill="#d8a700"/>
<rect x="11" y="17" width="1" height="1" fill="#f66500"/>
<rect x="12" y="17" width="1" height="1" fill="#fc6500"/>
<rect x="13" y="17" width="1" height="1" fill="#e1b300"/>
<rect x="14" y="17" width="1" height="1" fill="#f0c700"/>
<rect x="15" y="17" width="1" height="1" fill="#f1ca00"/>
<rect x="16" y="17" width="1" height="1" fill="#eec700"/>
<rect x="17" y="17" width="1" height="1" fill="#e2b800"/>
<rect x="18" y="17" width="1" height="1" fill="#d69d00" fill-opacity="0.988"/>
<rect x="19" y="17" width="1" height="1" fill="#e6ae00" fill-opacity="0.176"/>
<rect x="20" y="17" width="1" height="1" fill="#ff8b00" fill-opacity="0.047"/>
<rect x="21" y="17" width="1" height="1" fill="#ff8b00" fill-opacity="0.031"/>
<rect x="22" y="17" width="1" height="1" fill="#ff8b00" fill-opacity="0.012"/>
<rect x="0" y="18" width="1" height="1" fill="#d19f00" fill-opacity="0.996"/>
<rect x="1" y="18" width="1" height="1" fill="#fac80f"/>
<rect x="2" y="18" width="1" height="1" fill="#ffe15a"/>
<rect x="3" y="18" width="1" height="1" fill="#ffefab"/>
<rect x="4" y="18" width="1" height="1" fill="#fff8de"/>
<rect x="5" y="18" width="1" height="1" fill="#fff8da"/>
<rect x="6" y="18" width="1" height="1" fill="#fff8e3"/>
<rect x="7" y="18" width="1" height="1" fill="#fffefc"/>
<rect x="8" y="18" width="1" height="1" fill="#fff3c3"/>
<rect x="9" y="18" width="1" height="1" fill="#fffefa"/>
<rect x="10" y="18" width="1" height="1" fill="#ead472"/>
<rect x="11" y="18" width="1" height="1" fill="#d9a400"/>
<rect x="12" y="18" width="1" height="1" fill="#d95100"/>
<rect x="13" y="18" width="1" height="1" fill="#d45100"/>
<rect x="14" y="18" width="1" height="1" fill="#dab000"/>
<rect x="15" y="18" width="1" height="1" fill="#edc700"/>
<rect x="16" y="18" width="1" height="1" fill="#efc600"/>
<rect x="17" y="18" width="1" height="1" fill="#e4bf00"/>
<rect x="18" y="18" width="1" height="1" fill="#d9a500"/>
<rect x="19" y="18" width="1" height="1" fill="#ffaf00" fill-opacity="0.204"/>
<rect x="20" y="18" width="1" height="1" fill="#ff8f00" fill-opacity="0.059"/>
<rect x="21" y="18" width="1" height="1" fill="#ff8b00" fill-opacity="0.004"/>
<rect x="0" y="19" width="1" height="1" fill="#d1ab00" fill-opacity="0.259"/>
<rect x="1" y="19" width="1" height="1" fill="#d9a300"/>
<rect x="2" y="19" width="1" height="1" fill="#e7aa00"/>
<rect x="3" y="19" width="1" height="1" fill="#dba700"/>
<rect x="4" y="19" width="1" height="1" fill="#dea600"/>
<rect x="5" y="19" width="1" height="1" fill="#dcb000"/>
<rect x="6" y="19" width="1" height="1" fill="#e0b300"/>
<rect x="7" y="19" width="1" height="1" fill="#dcb100"/>
<rect x="8" y="19" width="1" height="1" fill="#dbaf00"/>
<rect x="9" y="19" width="1" height="1" fill="#dbac00"/>
<rect x="10" y="19" width="1" height="1" fill="#dbb000"/>
<rect x="11" y="19" width="1" height="1" fill="#dcae00"/>
<rect x="12" y="19" width="1" height="1" fill="#e5a500"/>
<rect x="13" y="19" width="1" height="1" fill="#d77800"/>
<rect x="14" y="19" width="1" height="1" fill="#dd7b00"/>
<rect x="15" y="19" width="1" height="1" fill="#e3a800"/>
<rect x="16" y="19" width="1" height="1" fill="#dba900"/>
<rect x="17" y="19" width="1" height="1" fill="#d9aa00"/>
<rect x="18" y="19" width="1" height="1" fill="#d7a600"/>
<rect x="19" y="19" width="1" height="1" fill="#ffb200" fill-opacity="0.09"/>
<rect x="20" y="19" width="1" height="1" fill="#ff8d00" fill-opacity="0.02"/>
<rect x="21" y="19" width="1" height="1" fill="#ff8b00" fill-opacity="0.008"/>
<rect x="1" y="20" width="1" height="1" fill="#a28500" fill-opacity="0.063"/>
<rect x="2" y="20" width="1" height="1" fill="#a18300" fill-opacity="0.086"/>
<rect x="7" y="20" width="1" height="1" fill="#a28500" fill-opacity="0.012"/>
<rect x="12" y="20" width="1" height="1" fill="#ffce00" fill-opacity="0.047"/>
<rect x="13" y="20" width="1" height="1" fill="#ffc100" fill-opacity="0.071"/>
<rect x="14" y="20" width="1" height="1" fill="#cea82c" fill-opacity="0.082"/>
<rect x="15" y="20" width="1" height="1" fill="#bfaf3a" fill-opacity="0.063"/>
<rect x="16" y="20" width="1" height="1" fill="#999c5c" fill-opacity="0.078"/>
<rect x="17" y="20" width="1" height="1" fill="#72897f" fill-opacity="0.114"/>
<rect x="18" y="20" width="1" height="1" fill="#768b7e" fill-opacity="0.086"/>
<rect x="19" y="20" width="1" height="1" fill="#0052e6" fill-opacity="0.016"/>
<rect x="20" y="20" width="1" height="1" fill="#927362" fill-opacity="0.027"/>
<rect x="21" y="20" width="1" height="1" fill="#d48127" fill-opacity="0.047"/>
<rect x="22" y="20" width="1" height="1" fill="#0052e6" fill-opacity="0.039"/>
<rect x="23" y="20" width="1" height="1" fill="#0052e6" fill-opacity="0.031"/>
<rect x="24" y="20" width="1" height="1" fill="#0052e6" fill-opacity="0.004"/>
</svg>