<?xml version="1.0" encoding="UTF-8" standalone="no"?>
<svg xmlns="http://www.w3.org/2000/svg" width="26" height="21" shape-rendering="crispEdges">
<rect x="7" y="2" width="1" height="1" fill="#00008a" fill-opacity="0.004"/>
<rect x="8" y="2" width="1" height="1" fill="#0b00f8" fill-opacity="0.459"/>
<rect x="9" y="2" width="1" height="1" fill="#0200ce" fill-opacity="0.988"/>
<rect x="10" y="2" width="1" height="1" fill="#0808d4"/>
<rect x="11" y="2" width="1" height="1" fill="#0807d6"/>
<rect x="12" y="2" width="1" height="1" fill="#0703d6"/>
<rect x="13" y="2" width="1" height="1" fill="#0c00e7" fill-opacity="0.8"/>
<rect x="14" y="2" width="1" height="1" fill="#1804ff" fill-opacity="0.239"/>
<rect x="17" y="2" width="1" height="1" fill="#006700" fill-opacity="0.933"/>
<rect x="18" y="2" width="1" height="1" fill="#006700" fill-opacity="0.349"/>
<rect x="7" y="3" width="1" height="1" fill="#0600df" fill-opacity="0.671"/>
<rect x="8" y="3" width="1" height="1" fill="#0101d4" fill-opacity="0.996"/>
<rect x="9" y="3" width="1" height="1" fill="#1011fe"/>
<rect x="10" y="3" width="1" height="1" fill="#2f2fff"/>
<rect x="11" y="3" width="1" height="1" fill="#3232ff"/>
<rect x="12" y="3" width="1" height="1" fill="#2525ff"/>
<rect x="13" y="3" width="1" height="1" fill="#1112f8"/>
<rect x="14" y="3" width="1" height="1" fill="#0807cc"/>
<rect x="15" y="3" width="1" height="1" fill="#0700d7" fill-opacity="0.702"/>
<rect x="16" y="3" width="1" height="1" fill="#00008a" fill-opacity="0.004"/>
<rect x="17" y="3" width="1" height="1" fill="#006700"/>
<rect x="18" y="3" width="1" height="1" fill="#006500" fill-opacity="0.557"/>
<rect x="19" y="3" width="1" height="1" fill="#006700" fill-opacity="0.125"/>
<rect x="6" y="4" width="1" height="1" fill="#0200d3" fill-opacity="0.671"/>
<rect x="7" y="4" width="1" height="1" fill="#0404de" fill-opacity="0.988"/>
<rect x="8" y="4" width="1" height="1" fill="#2a2aff"/>
<rect x="9" y="4" width="1" height="1" fill="#3b3bff"/>
<rect x="10" y="4" width="1" height="1" fill="#4040ff"/>
<rect x="11" y="4" width="1" height="1" fill="#4243ff"/>
<rect x="12" y="4" width="1" height="1" fill="#3e3eff"/>
<rect x="13" y="4" width="1" height="1" fill="#3a3aff"/>
<rect x="14" y="4" width="1" height="1" fill="#2626ff"/>
<rect x="15" y="4" width="1" height="1" fill="#0a0aed" fill-opacity="0.996"/>
<rect x="16" y="4" width="1" height="1" fill="#0100dc" fill-opacity="0.702"/>
<rect x="17" y="4" width="1" height="1" fill="#006602"/>
<rect x="18" y="4" width="1" height="1" fill="#006700"/>
<rect x="19" y="4" width="1" height="1" fill="#006700"/>
<rect x="20" y="4" width="1" height="1" fill="#006700" fill-opacity="0.157"/>
<rect x="5" y="5" width="1" height="1" fill="#1000ff" fill-opacity="0.663"/>
<rect x="6" y="5" width="1" height="1" fill="#0303d6" fill-opacity="0.98"/>
<rect x="7" y="5" width="1" height="1" fill="#2f2fff"/>
<rect x="8" y="5" width="1" height="1" fill="#4848ff"/>
<rect x="9" y="5" width="1" height="1" fill="#4f4fff"/>
<rect x="10" y="5" width="1" height="1" fill="#5252ff"/>
<rect x="11" y="5" width="1" height="1" fill="#5050ff"/>
<rect x="12" y="5" width="1" height="1" fill="#4f4fff"/>
<rect x="13" y="5" width="1" height="1" fill="#4848ff"/>
<rect x="14" y="5" width="1" height="1" fill="#3c3cff"/>
<rect x="15" y="5" width="1" height="1" fill="#2424f3"/>
<rect x="16" y="5" width="1" height="1" fill="#070de0"/>
<rect x="17" y="5" width="1" height="1" fill="#0707e2" fill-opacity="0.184"/>
<rect x="3" y="6" width="1" height="1" fill="#dd0000" fill-opacity="0.369"/>
<rect x="4" y="6" width="1" height="1" fill="#ff0000" fill-opacity="0.427"/>
<rect x="5" y="6" width="1" height="1" fill="#0b01e2" fill-opacity="0.984"/>
<rect x="6" y="6" width="1" height="1" fill="#1212fc"/>
<rect x="7" y="6" width="1" height="1" fill="#5252ff"/>
<rect x="8" y="6" width="1" height="1" fill="#5a5aff"/>
<rect x="9" y="6" width="1" height="1" fill="#5c5cff"/>
<rect x="10" y="6" width="1" height="1" fill="#5d5dff"/>
<rect x="11" y="6" width="1" height="1" fill="#5454ff"/>
<rect x="12" y="6" width="1" height="1" fill="#5051ff"/>
<rect x="13" y="6" width="1" height="1" fill="#4d4eff"/>
<rect x="14" y="6" width="1" height="1" fill="#4142ff"/>
<rect x="15" y="6" width="1" height="1" fill="#3131ff"/>
<rect x="16" y="6" width="1" height="1" fill="#0c0ae5"/>
<rect x="17" y="6" width="1" height="1" fill="#0c0ae2" fill-opacity="0.349"/>
<rect x="18" y="6" width="1" height="1" fill="#0300a3" fill-opacity="0.004"/>
<rect x="3" y="7" width="1" height="1" fill="#e90000" fill-opacity="0.976"/>
<rect x="4" y="7" width="1" height="1" fill="#ff0000"/>
<rect x="5" y="7" width="1" height="1" fill="#0902c6"/>
<rect x="6" y="7" width="1" height="1" fill="#3b3bff"/>
<rect x="7" y="7" width="1" height="1" fill="#5a5aff"/>
<rect x="8" y="7" width="1" height="1" fill="#01004f"/>
<rect x="9" y="7" width="1" height="1" fill="#777777"/>
<rect x="10" y="7" width="1" height="1" fill="#5959ff"/>
<rect x="11" y="7" width="1" height="1" fill="#5555ff"/>
<rect x="12" y="7" width="1" height="1" fill="#4d4dff"/>
<rect x="13" y="7" width="1" height="1" fill="#4f4fff"/>
<rect x="14" y="7" width="1" height="1" fill="#4848ff"/>
<rect x="15" y="7" width="1" height="1" fill="#4040ff"/>
<rect x="16" y="7" width="1" height="1" fill="#1414ff"/>
<rect x="17" y="7" width="1" height="1" fill="#0d07df" fill-opacity="0.651"/>
<rect x="18" y="7" width="1" height="1" fill="#0300a3" fill-opacity="0.004"/>
<rect x="4" y="8" width="1" height="1" fill="#ff0000" fill-opacity="0.953"/>
<rect x="5" y="8" width="1" height="1" fill="#0802c2"/>
<rect x="6" y="8" width="1" height="1" fill="#3b3bff"/>
<rect x="7" y="8" width="1" height="1" fill="#5c5cff"/>
<rect x="8" y="8" width="1" height="1" fill="#01004f"/>
<rect x="9" y="8" width="1" height="1" fill="#1c1c1d"/>
<rect x="10" y="8" width="1" height="1" fill="#5050fe"/>
<rect x="11" y="8" width="1" height="1" fill="#5252fe"/>
<rect x="12" y="8" width="1" height="1" fill="#4d4dff"/>
<rect x="13" y="8" width="1" height="1" fill="#4f4fff"/>
<rect x="14" y="8" width="1" height="1" fill="#4b4bff"/>
<rect x="15" y="8" width="1" height="1" fill="#4a4aff"/>
<rect x="16" y="8" width="1" height="1" fill="#3637ff"/>
<rect x="17" y="8" width="1" height="1" fill="#0c0bf9" fill-opacity="0.976"/>
<rect x="18" y="8" width="1" height="1" fill="#0904de" fill-opacity="0.208"/>
<rect x="5" y="9" width="1" height="1" fill="#0901cf"/>
<rect x="6" y="9" width="1" height="1" fill="#3d3dff"/>
<rect x="7" y="9" width="1" height="1" fill="#5a5aff"/>
<rect x="8" y="9" width="1" height="1" fill="#5959ff"/>
<rect x="9" y="9" width="1" height="1" fill="#4949fa"/>
<rect x="10" y="9" width="1" height="1" fill="#3330e4"/>
<rect x="11" y="9" width="1" height="1" fill="#3d3df3"/>
<rect x="12" y="9" width="1" height="1" fill="#4d4dff"/>
<rect x="13" y="9" width="1" height="1" fill="#4e4eff"/>
<rect x="14" y="9" width="1" height="1" fill="#4d4dff"/>
<rect x="15" y="9" width="1" height="1" fill="#4e4eff"/>
<rect x="16" y="9" width="1" height="1" fill="#3d3eff"/>
<rect x="17" y="9" width="1" height="1" fill="#292cff"/>
<rect x="18" y="9" width="1" height="1" fill="#0605dd" fill-opacity="0.933"/>
<rect x="19" y="9" width="1" height="1" fill="#0202c4" fill-opacity="0.141"/>
<rect x="5" y="10" width="1" height="1" fill="#0700d4" fill-opacity="0.98"/>
<rect x="6" y="10" width="1" height="1" fill="#3232ff"/>
<rect x="7" y="10" width="1" height="1" fill="#5151ff"/>
<rect x="8" y="10" width="1" height="1" fill="#5858ff"/>
<rect x="9" y="10" width="1" height="1" fill="#5757ff"/>
<rect x="10" y="10" width="1" height="1" fill="#5252ff"/>
<rect x="11" y="10" width="1" height="1" fill="#4f50ff"/>
<rect x="12" y="10" width="1" height="1" fill="#4e4eff"/>
<rect x="13" y="10" width="1" height="1" fill="#4d4dff"/>
<rect x="14" y="10" width="1" height="1" fill="#4b4bff"/>
<rect x="15" y="10" width="1" height="1" fill="#4f4fff"/>
<rect x="16" y="10" width="1" height="1" fill="#4d4dff"/>
<rect x="17" y="10" width="1" height="1" fill="#3a3aff"/>
<rect x="18" y="10" width="1" height="1" fill="#1718ff" fill-opacity="0.996"/>
<rect x="19" y="10" width="1" height="1" fill="#0704df" fill-opacity="0.902"/>
<rect x="20" y="10" width="1" height="1" fill="#1608ff" fill-opacity="0.145"/>
<rect x="5" y="11" width="1" height="1" fill="#0600cd"/>
<rect x="6" y="11" width="1" height="1" fill="#2828ff"/>
<rect x="7" y="11" width="1" height="1" fill="#4b4bff"/>
<rect x="8" y="11" width="1" height="1" fill="#5252ff"/>
<rect x="9" y="11" width="1" height="1" fill="#5151ff"/>
<rect x="10" y="11" width="1" height="1" fill="#5050ff"/>
<rect x="11" y="11" width="1" height="1" fill="#5252ff"/>
<rect x="12" y="11" width="1" height="1" fill="#5050ff"/>
<rect x="13" y="11" width="1" height="1" fill="#4d4dff"/>
<rect x="14" y="11" width="1" height="1" fill="#4f4fff"/>
<rect x="15" y="11" width="1" height="1" fill="#4e4eff"/>
<rect x="16" y="11" width="1" height="1" fill="#4d4dff"/>
<rect x="17" y="11" width="1" height="1" fill="#4545fd"/>
<rect x="18" y="11" width="1" height="1" fill="#4141fd"/>
<rect x="19" y="11" width="1" height="1" fill="#2626ff"/>
<rect x="20" y="11" width="1" height="1" fill="#0402d6" fill-opacity="0.969"/>
<rect x="21" y="11" width="1" height="1" fill="#1200fd" fill-opacity="0.412"/>
<rect x="22" y="11" width="1" height="1" fill="#0f00ef" fill-opacity="0.016"/>
<rect x="5" y="12" width="1" height="1" fill="#0500c7" fill-opacity="0.965"/>
<rect x="6" y="12" width="1" height="1" fill="#2828ff"/>
<rect x="7" y="12" width="1" height="1" fill="#4848ff"/>
<rect x="8" y="12" width="1" height="1" fill="#5252ff"/>
<rect x="9" y="12" width="1" height="1" fill="#4e4eff"/>
<rect x="10" y="12" width="1" height="1" fill="#4e4eff"/>
<rect x="11" y="12" width="1" height="1" fill="#5050ff"/>
<rect x="12" y="12" width="1" height="1" fill="#2828fb"/>
<rect x="13" y="12" width="1" height="1" fill="#4646fe"/>
<rect x="14" y="12" width="1" height="1" fill="#4e4eff"/>
<rect x="15" y="12" width="1" height="1" fill="#4e4eff"/>
<rect x="16" y="12" width="1" height="1" fill="#4646ff"/>
<rect x="17" y="12" width="1" height="1" fill="#3131f8"/>
<rect x="18" y="12" width="1" height="1" fill="#3e3efb"/>
<rect x="19" y="12" width="1" height="1" fill="#3e3eff"/>
<rect x="20" y="12" width="1" height="1" fill="#2929fd"/>
<rect x="21" y="12" width="1" height="1" fill="#0c09da"/>
<rect x="22" y="12" width="1" height="1" fill="#0a00ee" fill-opacity="0.125"/>
<rect x="4" y="13" width="1" height="1" fill="#0100b6" fill-opacity="0.004"/>
<rect x="5" y="13" width="1" height="1" fill="#0400b8" fill-opacity="0.784"/>
<rect x="6" y="13" width="1" height="1" fill="#1717ff" fill-opacity="0.996"/>
<rect x="7" y="13" width="1" height="1" fill="#4343ff"/>
<rect x="8" y="13" width="1" height="1" fill="#4f4fff"/>
<rect x="9" y="13" width="1" height="1" fill="#5252ff"/>
<rect x="10" y="13" width="1" height="1" fill="#4f4fff"/>
<rect x="11" y="13" width="1" height="1" fill="#5151ff"/>
<rect x="12" y="13" width="1" height="1" fill="#3232fb"/>
<rect x="13" y="13" width="1" height="1" fill="#1919ef"/>
<rect x="14" y="13" width="1" height="1" fill="#4242ff"/>
<rect x="15" y="13" width="1" height="1" fill="#4646fe"/>
<rect x="16" y="13" width="1" height="1" fill="#3939fe"/>
<rect x="17" y="13" width="1" height="1" fill="#0909f0"/>
<rect x="18" y="13" width="1" height="1" fill="#4646fe"/>
<rect x="19" y="13" width="1" height="1" fill="#4646ff"/>
<rect x="20" y="13" width="1" height="1" fill="#3535ff"/>
<rect x="21" y="13" width="1" height="1" fill="#0f0edc" fill-opacity="0.961"/>
<rect x="22" y="13" width="1" height="1" fill="#01009c" fill-opacity="0.063"/>
<rect x="4" y="14" width="1" height="1" fill="#0100b6" fill-opacity="0.008"/>
<rect x="5" y="14" width="1" height="1" fill="#0700d0" fill-opacity="0.647"/>
<rect x="6" y="14" width="1" height="1" fill="#0504e2" fill-opacity="0.973"/>
<rect x="7" y="14" width="1" height="1" fill="#3d3dff"/>
<rect x="8" y="14" width="1" height="1" fill="#4a4aff"/>
<rect x="9" y="14" width="1" height="1" fill="#5151ff"/>
<rect x="10" y="14" width="1" height="1" fill="#4e4eff"/>
<rect x="11" y="14" width="1" height="1" fill="#4f4fff"/>
<rect x="12" y="14" width="1" height="1" fill="#4b4bff"/>
<rect x="13" y="14" width="1" height="1" fill="#2828f8"/>
<rect x="14" y="14" width="1" height="1" fill="#0504dd"/>
<rect x="15" y="14" width="1" height="1" fill="#0100d5"/>
<rect x="16" y="14" width="1" height="1" fill="#1212ef"/>
<rect x="17" y="14" width="1" height="1" fill="#4141fd"/>
<rect x="18" y="14" width="1" height="1" fill="#4545ff"/>
<rect x="19" y="14" width="1" height="1" fill="#3838ff"/>
<rect x="20" y="14" width="1" height="1" fill="#1414f0"/>
<rect x="21" y="14" width="1" height="1" fill="#0401b3" fill-opacity="0.318"/>
<rect x="22" y="14" width="1" height="1" fill="#0200a9" fill-opacity="0.008"/>
<rect x="5" y="15" width="1" height="1" fill="#0400b7" fill-opacity="0.204"/>
<rect x="6" y="15" width="1" height="1" fill="#0200ca" fill-opacity="0.894"/>
<rect x="7" y="15" width="1" height="1" fill="#1b1bff"/>
<rect x="8" y="15" width="1" height="1" fill="#4343ff"/>
<rect x="9" y="15" width="1" height="1" fill="#4848ff"/>
<rect x="10" y="15" width="1" height="1" fill="#4e4eff"/>
<rect x="11" y="15" width="1" height="1" fill="#4c4cff"/>
<rect x="12" y="15" width="1" height="1" fill="#4e4eff"/>
<rect x="13" y="15" width="1" height="1" fill="#4d4dff"/>
<rect x="14" y="15" width="1" height="1" fill="#4646fe"/>
<rect x="15" y="15" width="1" height="1" fill="#4040fb"/>
<rect x="16" y="15" width="1" height="1" fill="#4949ff"/>
<rect x="17" y="15" width="1" height="1" fill="#4646ff"/>
<rect x="18" y="15" width="1" height="1" fill="#3433ff"/>
<rect x="19" y="15" width="1" height="1" fill="#1212e9" fill-opacity="0.98"/>
<rect x="20" y="15" width="1" height="1" fill="#0b04d5" fill-opacity="0.278"/>
<rect x="5" y="16" width="1" height="1" fill="#0500c1" fill-opacity="0.086"/>
<rect x="6" y="16" width="1" height="1" fill="#0600c8" fill-opacity="0.58"/>
<rect x="7" y="16" width="1" height="1" fill="#0404e0"/>
<rect x="8" y="16" width="1" height="1" fill="#2f2fff"/>
<rect x="9" y="16" width="1" height="1" fill="#4141ff"/>
<rect x="10" y="16" width="1" height="1" fill="#4444ff"/>
<rect x="11" y="16" width="1" height="1" fill="#4a4aff"/>
<rect x="12" y="16" width="1" height="1" fill="#4a4aff"/>
<rect x="13" y="16" width="1" height="1" fill="#4a4aff"/>
<rect x="14" y="16" width="1" height="1" fill="#4545ff"/>
<rect x="15" y="16" width="1" height="1" fill="#4747ff"/>
<rect x="16" y="16" width="1" height="1" fill="#4747ff"/>
<rect x="17" y="16" width="1" height="1" fill="#2e2eff"/>
<rect x="18" y="16" width="1" height="1" fill="#1413de" fill-opacity="0.984"/>
<rect x="19" y="16" width="1" height="1" fill="#1308cc" fill-opacity="0.2"/>
<rect x="20" y="16" width="1" height="1" fill="#4f4fff" fill-opacity="0.016"/>
<rect x="5" y="17" width="1" height="1" fill="#0500c3" fill-opacity="0.02"/>
<rect x="6" y="17" width="1" height="1" fill="#0500b6" fill-opacity="0.133"/>
<rect x="7" y="17" width="1" height="1" fill="#0200c9" fill-opacity="0.812"/>
<rect x="8" y="17" width="1" height="1" fill="#0605f6"/>
<rect x="9" y="17" width="1" height="1" fill="#3535ff"/>
<rect x="10" y="17" width="1" height="1" fill="#3e3eff"/>
<rect x="11" y="17" width="1" height="1" fill="#3f3fff"/>
<rect x="12" y="17" width="1" height="1" fill="#3f3fff"/>
<rect x="13" y="17" width="1" height="1" fill="#4343ff"/>
<rect x="14" y="17" width="1" height="1" fill="#3e3eff"/>
<rect x="15" y="17" width="1" height="1" fill="#3636ff"/>
<rect x="16" y="17" width="1" height="1" fill="#100fff"/>
<rect x="17" y="17" width="1" height="1" fill="#0404c8"/>
<rect x="18" y="17" width="1" height="1" fill="#110dd5" fill-opacity="0.216"/>
<rect x="19" y="17" width="1" height="1" fill="#4f4fff" fill-opacity="0.02"/>
<rect x="6" y="18" width="1" height="1" fill="#0400c2" fill-opacity="0.02"/>
<rect x="7" y="18" width="1" height="1" fill="#0500d4" fill-opacity="0.184"/>
<rect x="8" y="18" width="1" height="1" fill="#0300c9" fill-opacity="0.871"/>
<rect x="9" y="18" width="1" height="1" fill="#0404ef" fill-opacity="0.996"/>
<rect x="10" y="18" width="1" height="1" fill="#1414ff"/>
<rect x="11" y="18" width="1" height="1" fill="#2727ff"/>
<rect x="12" y="18" width="1" height="1" fill="#2b2bff"/>
<rect x="13" y="18" width="1" height="1" fill="#2a2aff"/>
<rect x="14" y="18" width="1" height="1" fill="#1515ff"/>
<rect x="15" y="18" width="1" height="1" fill="#0604e0"/>
<rect x="16" y="18" width="1" height="1" fill="#0504c8" fill-opacity="0.992"/>
<rect x="17" y="18" width="1" height="1" fill="#0b08d7" fill-opacity="0.227"/>
<rect x="18" y="18" width="1" height="1" fill="#4f4fff" fill-opacity="0.008"/>
<rect x="7" y="19" width="1" height="1" fill="#0200c1" fill-opacity="0.024"/>
<rect x="8" y="19" width="1" height="1" fill="#0500e4" fill-opacity="0.204"/>
<rect x="9" y="19" width="1" height="1" fill="#0400ba" fill-opacity="0.569"/>
<rect x="10" y="19" width="1" height="1" fill="#0000c8" fill-opacity="0.961"/>
<rect x="11" y="19" width="1" height="1" fill="#0000c6" fill-opacity="0.992"/>
<rect x="12" y="19" width="1" height="1" fill="#0100b9" fill-opacity="0.996"/>
<rect x="13" y="19" width="1" height="1" fill="#0200bd"/>
<rect x="14" y="19" width="1" height="1" fill="#0300c9" fill-opacity="0.996"/>
<rect x="15" y="19" width="1" height="1" fill="#0a00e0" fill-opacity="0.576"/>
<rect x="16" y="19" width="1" height="1" fill="#0e00fd" fill-opacity="0.043"/>
<rect x="8" y="20" width="1" height="1" fill="#0200f0" fill-opacity="0.016"/>
<rect x="9" y="20" width="1" height="1" fill="#0200f0" fill-opacity="0.004"/>
<rect x="10" y="20" width="1" height="1" fill="#0000a2" fill-opacity="0.02"/>
<rect x="11" y="20" width="1" height="1" fill="#0000c3" fill-opacity="0.039"/>
<rect x="12" y="20" width="1" height="1" fill="#0000c9" fill-opacity="0.039"/>
<rect x="13" y="20" width="1" height="1" fill="#0000c9" fill-opacity="0.02"/>
</svg>