<?xml version="1.0" encoding="UTF-8" standalone="no"?>
<svg xmlns="http://www.w3.org/2000/svg" width="26" height="21" shape-rendering="crispEdges">
<rect x="23" y="1" width="1" height="1" fill="#06aa13" fill-opacity="0.098"/>
<rect x="24" y="1" width="1" height="1" fill="#07ab12" fill-opacity="0.078"/>
<rect x="22" y="2" width="1" height="1" fill="#06a312" fill-opacity="0.333"/>
<rect x="23" y="2" width="1" height="1" fill="#19a924"/>
<rect x="24" y="2" width="1" height="1" fill="#16ad21"/>
<rect x="25" y="2" width="1" height="1" fill="#07ab13" fill-opacity="0.078"/>
<rect x="10" y="3" width="1" height="1" fill="#04b00f" fill-opacity="0.957"/>
<rect x="11" y="3" width="1" height="1" fill="#05ad0c"/>
<rect x="12" y="3" width="1" height="1" fill="#04b10a"/>
<rect x="13" y="3" width="1" height="1" fill="#04ad0d" fill-opacity="0.973"/>
<rect x="21" y="3" width="1" height="1" fill="#069d0e" fill-opacity="0.675"/>
<rect x="22" y="3" width="1" height="1" fill="#1c9e25"/>
<rect x="23" y="3" width="1" height="1" fill="#a8e1ae"/>
<rect x="24" y="3" width="1" height="1" fill="#12ac1d"/>
<rect x="25" y="3" width="1" height="1" fill="#07ab13" fill-opacity="0.063"/>
<rect x="5" y="4" width="1" height="1" fill="#54e773" fill-opacity="0.012"/>
<rect x="6" y="4" width="1" height="1" fill="#54e773" fill-opacity="0.004"/>
<rect x="9" y="4" width="1" height="1" fill="#03c011" fill-opacity="0.008"/>
<rect x="10" y="4" width="1" height="1" fill="#03b40f"/>
<rect x="11" y="4" width="1" height="1" fill="#52c95e"/>
<rect x="12" y="4" width="1" height="1" fill="#6ada80"/>
<rect x="13" y="4" width="1" height="1" fill="#2acf39"/>
<rect x="14" y="4" width="1" height="1" fill="#01ac0f"/>
<rect x="15" y="4" width="1" height="1" fill="#05ab09" fill-opacity="0.992"/>
<rect x="19" y="4" width="1" height="1" fill="#07ad13" fill-opacity="0.004"/>
<rect x="20" y="4" width="1" height="1" fill="#04980d" fill-opacity="0.702"/>
<rect x="21" y="4" width="1" height="1" fill="#1fa326"/>
<rect x="22" y="4" width="1" height="1" fill="#f1fdf4"/>
<rect x="23" y="4" width="1" height="1" fill="#eafef1"/>
<rect x="24" y="4" width="1" height="1" fill="#07a513"/>
<rect x="25" y="4" width="1" height="1" fill="#07ad13" fill-opacity="0.008"/>
<rect x="3" y="5" width="1" height="1" fill="#10ab21" fill-opacity="0.271"/>
<rect x="4" y="5" width="1" height="1" fill="#1cbe2e"/>
<rect x="5" y="5" width="1" height="1" fill="#44da61" fill-opacity="0.353"/>
<rect x="6" y="5" width="1" height="1" fill="#3bd256" fill-opacity="0.027"/>
<rect x="9" y="5" width="1" height="1" fill="#03c011" fill-opacity="0.008"/>
<rect x="10" y="5" width="1" height="1" fill="#06a30f"/>
<rect x="11" y="5" width="1" height="1" fill="#4cc65c"/>
<rect x="12" y="5" width="1" height="1" fill="#87eca4"/>
<rect x="13" y="5" width="1" height="1" fill="#85e499"/>
<rect x="14" y="5" width="1" height="1" fill="#20e143"/>
<rect x="15" y="5" width="1" height="1" fill="#03c413"/>
<rect x="16" y="5" width="1" height="1" fill="#00b009"/>
<rect x="17" y="5" width="1" height="1" fill="#07a612" fill-opacity="0.133"/>
<rect x="18" y="5" width="1" height="1" fill="#06a510" fill-opacity="0.588"/>
<rect x="19" y="5" width="1" height="1" fill="#06a212"/>
<rect x="20" y="5" width="1" height="1" fill="#54c657"/>
<rect x="21" y="5" width="1" height="1" fill="#f4fffe"/>
<rect x="22" y="5" width="1" height="1" fill="#fbfffd"/>
<rect x="23" y="5" width="1" height="1" fill="#4aba48"/>
<rect x="24" y="5" width="1" height="1" fill="#07ac13" fill-opacity="0.553"/>
<rect x="1" y="6" width="1" height="1" fill="#009d0e" fill-opacity="0.008"/>
<rect x="2" y="6" width="1" height="1" fill="#009d0e" fill-opacity="0.043"/>
<rect x="3" y="6" width="1" height="1" fill="#0eb31d"/>
<rect x="4" y="6" width="1" height="1" fill="#6ed47b"/>
<rect x="5" y="6" width="1" height="1" fill="#10bb1f"/>
<rect x="6" y="6" width="1" height="1" fill="#1daf2f" fill-opacity="0.137"/>
<rect x="7" y="6" width="1" height="1" fill="#54e773" fill-opacity="0.004"/>
<rect x="8" y="6" width="1" height="1" fill="#54e773" fill-opacity="0.004"/>
<rect x="9" y="6" width="1" height="1" fill="#03c011" fill-opacity="0.008"/>
<rect x="10" y="6" width="1" height="1" fill="#04ab0c"/>
<rect x="11" y="6" width="1" height="1" fill="#5ed169"/>
<rect x="12" y="6" width="1" height="1" fill="#88ee94"/>
<rect x="13" y="6" width="1" height="1" fill="#7efa96"/>
<rect x="14" y="6" width="1" height="1" fill="#0cc922"/>
<rect x="15" y="6" width="1" height="1" fill="#02b11a"/>
<rect x="16" y="6" width="1" height="1" fill="#079c0d"/>
<rect x="17" y="6" width="1" height="1" fill="#19ad23"/>
<rect x="18" y="6" width="1" height="1" fill="#63c363"/>
<rect x="19" y="6" width="1" height="1" fill="#e1f4e2"/>
<rect x="20" y="6" width="1" height="1" fill="#fff5f8"/>
<rect x="21" y="6" width="1" height="1" fill="#edfff8"/>
<rect x="22" y="6" width="1" height="1" fill="#78cc7f"/>
<rect x="23" y="6" width="1" height="1" fill="#06a211"/>
<rect x="24" y="6" width="1" height="1" fill="#07ac13" fill-opacity="0.098"/>
<rect x="1" y="7" width="1" height="1" fill="#009d0e" fill-opacity="0.012"/>
<rect x="2" y="7" width="1" height="1" fill="#009d0e" fill-opacity="0.035"/>
<rect x="3" y="7" width="1" height="1" fill="#29c240" fill-opacity="0.176"/>
<rect x="4" y="7" width="1" height="1" fill="#16bf27"/>
<rect x="5" y="7" width="1" height="1" fill="#14a824" fill-opacity="0.486"/>
<rect x="6" y="7" width="1" height="1" fill="#42d75f" fill-opacity="0.094"/>
<rect x="9" y="7" width="1" height="1" fill="#03c011" fill-opacity="0.008"/>
<rect x="10" y="7" width="1" height="1" fill="#02b10b"/>
<rect x="11" y="7" width="1" height="1" fill="#5bcf69"/>
<rect x="12" y="7" width="1" height="1" fill="#86ee8b"/>
<rect x="13" y="7" width="1" height="1" fill="#30b83c"/>
<rect x="14" y="7" width="1" height="1" fill="#04a10e"/>
<rect x="15" y="7" width="1" height="1" fill="#3abd3d"/>
<rect x="16" y="7" width="1" height="1" fill="#ceedce"/>
<rect x="17" y="7" width="1" height="1" fill="#f7fdf6"/>
<rect x="18" y="7" width="1" height="1" fill="#f2fdfa"/>
<rect x="19" y="7" width="1" height="1" fill="#f1ffff"/>
<rect x="20" y="7" width="1" height="1" fill="#fdfffb"/>
<rect x="21" y="7" width="1" height="1" fill="#8add85"/>
<rect x="22" y="7" width="1" height="1" fill="#09ab15"/>
<rect x="23" y="7" width="1" height="1" fill="#34b93d"/>
<rect x="24" y="7" width="1" height="1" fill="#1aa31d"/>
<rect x="25" y="7" width="1" height="1" fill="#07ab12" fill-opacity="0.098"/>
<rect x="1" y="8" width="1" height="1" fill="#2ac341" fill-opacity="0.408"/>
<rect x="2" y="8" width="1" height="1" fill="#13b625"/>
<rect x="3" y="8" width="1" height="1" fill="#1eb731" fill-opacity="0.384"/>
<rect x="4" y="8" width="1" height="1" fill="#28c13f" fill-opacity="0.22"/>
<rect x="5" y="8" width="1" height="1" fill="#019e10" fill-opacity="0.271"/>
<rect x="6" y="8" width="1" height="1" fill="#01a80c"/>
<rect x="7" y="8" width="1" height="1" fill="#009a0e" fill-opacity="0.22"/>
<rect x="8" y="8" width="1" height="1" fill="#02980e" fill-opacity="0.067"/>
<rect x="9" y="8" width="1" height="1" fill="#03c011" fill-opacity="0.016"/>
<rect x="10" y="8" width="1" height="1" fill="#04b411"/>
<rect x="11" y="8" width="1" height="1" fill="#49cb58"/>
<rect x="12" y="8" width="1" height="1" fill="#7eee8c"/>
<rect x="13" y="8" width="1" height="1" fill="#07a713"/>
<rect x="14" y="8" width="1" height="1" fill="#ebf4ec"/>
<rect x="15" y="8" width="1" height="1" fill="#f7faf8"/>
<rect x="16" y="8" width="1" height="1" fill="#ffffff"/>
<rect x="17" y="8" width="1" height="1" fill="#fcfffe"/>
<rect x="18" y="8" width="1" height="1" fill="#fffffa"/>
<rect x="19" y="8" width="1" height="1" fill="#93d79b"/>
<rect x="20" y="8" width="1" height="1" fill="#1bac27"/>
<rect x="21" y="8" width="1" height="1" fill="#40b03f"/>
<rect x="22" y="8" width="1" height="1" fill="#d5e7ca"/>
<rect x="23" y="8" width="1" height="1" fill="#9ed6a2"/>
<rect x="24" y="8" width="1" height="1" fill="#07a20e"/>
<rect x="25" y="8" width="1" height="1" fill="#07ad13" fill-opacity="0.004"/>
<rect x="0" y="9" width="1" height="1" fill="#54e773" fill-opacity="0.008"/>
<rect x="1" y="9" width="1" height="1" fill="#1abd2d"/>
<rect x="2" y="9" width="1" height="1" fill="#74d781"/>
<rect x="3" y="9" width="1" height="1" fill="#10b621"/>
<rect x="4" y="9" width="1" height="1" fill="#35cc4d" fill-opacity="0.388"/>
<rect x="5" y="9" width="1" height="1" fill="#02ad0e"/>
<rect x="6" y="9" width="1" height="1" fill="#60c96a"/>
<rect x="7" y="9" width="1" height="1" fill="#02b10f"/>
<rect x="8" y="9" width="1" height="1" fill="#02960f" fill-opacity="0.071"/>
<rect x="9" y="9" width="1" height="1" fill="#03bb11" fill-opacity="0.035"/>
<rect x="10" y="9" width="1" height="1" fill="#04ad11"/>
<rect x="11" y="9" width="1" height="1" fill="#64d87a"/>
<rect x="12" y="9" width="1" height="1" fill="#3cca51"/>
<rect x="13" y="9" width="1" height="1" fill="#44c148"/>
<rect x="14" y="9" width="1" height="1" fill="#fffffd"/>
<rect x="15" y="9" width="1" height="1" fill="#c1f7c6"/>
<rect x="16" y="9" width="1" height="1" fill="#14c921"/>
<rect x="17" y="9" width="1" height="1" fill="#0fb61a"/>
<rect x="18" y="9" width="1" height="1" fill="#13c51d"/>
<rect x="19" y="9" width="1" height="1" fill="#04a311"/>
<rect x="20" y="9" width="1" height="1" fill="#6ece75"/>
<rect x="21" y="9" width="1" height="1" fill="#fdfbee"/>
<rect x="22" y="9" width="1" height="1" fill="#f4f6f4"/>
<rect x="23" y="9" width="1" height="1" fill="#1da727"/>
<rect x="24" y="9" width="1" height="1" fill="#07a511" fill-opacity="0.318"/>
<rect x="0" y="10" width="1" height="1" fill="#54e773" fill-opacity="0.012"/>
<rect x="1" y="10" width="1" height="1" fill="#20ba36" fill-opacity="0.302"/>
<rect x="2" y="10" width="1" height="1" fill="#0cbd1b"/>
<rect x="3" y="10" width="1" height="1" fill="#29c240" fill-opacity="0.408"/>
<rect x="4" y="10" width="1" height="1" fill="#3cd358" fill-opacity="0.227"/>
<rect x="5" y="10" width="1" height="1" fill="#009d0e" fill-opacity="0.29"/>
<rect x="6" y="10" width="1" height="1" fill="#01b40f"/>
<rect x="7" y="10" width="1" height="1" fill="#009d0e" fill-opacity="0.231"/>
<rect x="8" y="10" width="1" height="1" fill="#019e0e" fill-opacity="0.106"/>
<rect x="9" y="10" width="1" height="1" fill="#05a70e" fill-opacity="0.133"/>
<rect x="10" y="10" width="1" height="1" fill="#07a608"/>
<rect x="11" y="10" width="1" height="1" fill="#5ede7a"/>
<rect x="12" y="10" width="1" height="1" fill="#1ab725"/>
<rect x="13" y="10" width="1" height="1" fill="#7ed782"/>
<rect x="14" y="10" width="1" height="1" fill="#fffffc"/>
<rect x="15" y="10" width="1" height="1" fill="#54d65d"/>
<rect x="16" y="10" width="1" height="1" fill="#5cc763"/>
<rect x="17" y="10" width="1" height="1" fill="#b8f4bc"/>
<rect x="18" y="10" width="1" height="1" fill="#1cd529"/>
<rect x="19" y="10" width="1" height="1" fill="#09af15"/>
<rect x="20" y="10" width="1" height="1" fill="#eafbe4"/>
<rect x="21" y="10" width="1" height="1" fill="#e9fef1"/>
<rect x="22" y="10" width="1" height="1" fill="#0fa818"/>
<rect x="23" y="10" width="1" height="1" fill="#0cab17"/>
<rect x="24" y="10" width="1" height="1" fill="#0bae17" fill-opacity="0.376"/>
<rect x="25" y="10" width="1" height="1" fill="#07a812" fill-opacity="0.055"/>
<rect x="2" y="11" width="1" height="1" fill="#31c94a" fill-opacity="0.078"/>
<rect x="3" y="11" width="1" height="1" fill="#14ae25" fill-opacity="0.024"/>
<rect x="8" y="11" width="1" height="1" fill="#05a40e" fill-opacity="0.082"/>
<rect x="9" y="11" width="1" height="1" fill="#05a50e" fill-opacity="0.412"/>
<rect x="10" y="11" width="1" height="1" fill="#05ab0d"/>
<rect x="11" y="11" width="1" height="1" fill="#3ccc4c"/>
<rect x="12" y="11" width="1" height="1" fill="#2eb83c"/>
<rect x="13" y="11" width="1" height="1" fill="#36b445"/>
<rect x="14" y="11" width="1" height="1" fill="#fafbfe"/>
<rect x="15" y="11" width="1" height="1" fill="#1eca2a"/>
<rect x="16" y="11" width="1" height="1" fill="#0db418"/>
<rect x="17" y="11" width="1" height="1" fill="#d1fcd4"/>
<rect x="18" y="11" width="1" height="1" fill="#e0fee0"/>
<rect x="19" y="11" width="1" height="1" fill="#07a312"/>
<rect x="20" y="11" width="1" height="1" fill="#36b640"/>
<rect x="21" y="11" width="1" height="1" fill="#2ca834"/>
<rect x="22" y="11" width="1" height="1" fill="#87dc8f"/>
<rect x="23" y="11" width="1" height="1" fill="#73d27a"/>
<rect x="24" y="11" width="1" height="1" fill="#0aa814"/>
<rect x="25" y="11" width="1" height="1" fill="#06a810" fill-opacity="0.047"/>
<rect x="8" y="12" width="1" height="1" fill="#05980f" fill-opacity="0.02"/>
<rect x="9" y="12" width="1" height="1" fill="#02ab0b"/>
<rect x="10" y="12" width="1" height="1" fill="#32c13e"/>
<rect x="11" y="12" width="1" height="1" fill="#31cd49"/>
<rect x="12" y="12" width="1" height="1" fill="#49db64"/>
<rect x="13" y="12" width="1" height="1" fill="#10aa1d"/>
<rect x="14" y="12" width="1" height="1" fill="#aeedb4"/>
<rect x="15" y="12" width="1" height="1" fill="#c4f4c6"/>
<rect x="16" y="12" width="1" height="1" fill="#d9fbda"/>
<rect x="17" y="12" width="1" height="1" fill="#f3fcf2"/>
<rect x="18" y="12" width="1" height="1" fill="#54f960"/>
<rect x="19" y="12" width="1" height="1" fill="#10b31a"/>
<rect x="20" y="12" width="1" height="1" fill="#e0f3d8"/>
<rect x="21" y="12" width="1" height="1" fill="#f1fef1"/>
<rect x="22" y="12" width="1" height="1" fill="#fbf8ed"/>
<rect x="23" y="12" width="1" height="1" fill="#29a631"/>
<rect x="24" y="12" width="1" height="1" fill="#06a912" fill-opacity="0.22"/>
<rect x="4" y="13" width="1" height="1" fill="#009d0e" fill-opacity="0.02"/>
<rect x="5" y="13" width="1" height="1" fill="#009d0e" fill-opacity="0.012"/>
<rect x="7" y="13" width="1" height="1" fill="#059010" fill-opacity="0.027"/>
<rect x="8" y="13" width="1" height="1" fill="#05a00e" fill-opacity="0.388"/>
<rect x="9" y="13" width="1" height="1" fill="#04af0c"/>
<rect x="10" y="13" width="1" height="1" fill="#3fd152"/>
<rect x="11" y="13" width="1" height="1" fill="#40d357"/>
<rect x="12" y="13" width="1" height="1" fill="#54e76c"/>
<rect x="13" y="13" width="1" height="1" fill="#1abd2f"/>
<rect x="14" y="13" width="1" height="1" fill="#0bab16"/>
<rect x="15" y="13" width="1" height="1" fill="#06a811"/>
<rect x="16" y="13" width="1" height="1" fill="#07a812"/>
<rect x="17" y="13" width="1" height="1" fill="#08a613"/>
<rect x="18" y="13" width="1" height="1" fill="#07aa12"/>
<rect x="19" y="13" width="1" height="1" fill="#a3e0a4"/>
<rect x="20" y="13" width="1" height="1" fill="#f6f7fe"/>
<rect x="21" y="13" width="1" height="1" fill="#eef5eb"/>
<rect x="22" y="13" width="1" height="1" fill="#2bba2e"/>
<rect x="23" y="13" width="1" height="1" fill="#07a20f" fill-opacity="0.651"/>
<rect x="0" y="14" width="1" height="1" fill="#03aa09"/>
<rect x="1" y="14" width="1" height="1" fill="#01b80b"/>
<rect x="2" y="14" width="1" height="1" fill="#05a60c"/>
<rect x="3" y="14" width="1" height="1" fill="#009d0e" fill-opacity="0.298"/>
<rect x="4" y="14" width="1" height="1" fill="#009d0e" fill-opacity="0.141"/>
<rect x="5" y="14" width="1" height="1" fill="#03c011" fill-opacity="0.008"/>
<rect x="7" y="14" width="1" height="1" fill="#05a00f" fill-opacity="0.376"/>
<rect x="8" y="14" width="1" height="1" fill="#04ae0f"/>
<rect x="9" y="14" width="1" height="1" fill="#dcf301"/>
<rect x="10" y="14" width="1" height="1" fill="#03c111"/>
<rect x="11" y="14" width="1" height="1" fill="#47db60"/>
<rect x="12" y="14" width="1" height="1" fill="#41ea61"/>
<rect x="13" y="14" width="1" height="1" fill="#11d523"/>
<rect x="14" y="14" width="1" height="1" fill="#14cc2b"/>
<rect x="15" y="14" width="1" height="1" fill="#06a812"/>
<rect x="16" y="14" width="1" height="1" fill="#62cb6a"/>
<rect x="17" y="14" width="1" height="1" fill="#ceebd0"/>
<rect x="18" y="14" width="1" height="1" fill="#b4deb4"/>
<rect x="19" y="14" width="1" height="1" fill="#e6f6ea"/>
<rect x="20" y="14" width="1" height="1" fill="#f2f9ec"/>
<rect x="21" y="14" width="1" height="1" fill="#31a935"/>
<rect x="22" y="14" width="1" height="1" fill="#069e0f" fill-opacity="0.643"/>
<rect x="0" y="15" width="1" height="1" fill="#05ad11"/>
<rect x="1" y="15" width="1" height="1" fill="#a3dca6"/>
<rect x="2" y="15" width="1" height="1" fill="#b8e4b7"/>
<rect x="3" y="15" width="1" height="1" fill="#01ac09"/>
<rect x="4" y="15" width="1" height="1" fill="#04a80b"/>
<rect x="5" y="15" width="1" height="1" fill="#04af11"/>
<rect x="6" y="15" width="1" height="1" fill="#04a60e"/>
<rect x="7" y="15" width="1" height="1" fill="#03ad0a"/>
<rect x="8" y="15" width="1" height="1" fill="#03bc0f"/>
<rect x="9" y="15" width="1" height="1" fill="#ffff00"/>
<rect x="10" y="15" width="1" height="1" fill="#fdff00"/>
<rect x="11" y="15" width="1" height="1" fill="#01b307"/>
<rect x="12" y="15" width="1" height="1" fill="#18d02b"/>
<rect x="13" y="15" width="1" height="1" fill="#0fda31"/>
<rect x="14" y="15" width="1" height="1" fill="#0aca20"/>
<rect x="15" y="15" width="1" height="1" fill="#09ca22"/>
<rect x="16" y="15" width="1" height="1" fill="#05c11f"/>
<rect x="17" y="15" width="1" height="1" fill="#07aa11"/>
<rect x="18" y="15" width="1" height="1" fill="#049d0f" fill-opacity="0.945"/>
<rect x="19" y="15" width="1" height="1" fill="#079f0e" fill-opacity="0.953"/>
<rect x="20" y="15" width="1" height="1" fill="#05a712" fill-opacity="0.957"/>
<rect x="21" y="15" width="1" height="1" fill="#06a612" fill-opacity="0.584"/>
<rect x="0" y="16" width="1" height="1" fill="#04af0c"/>
<rect x="1" y="16" width="1" height="1" fill="#edf5ec"/>
<rect x="2" y="16" width="1" height="1" fill="#f2f9f2"/>
<rect x="3" y="16" width="1" height="1" fill="#fbfcf8"/>
<rect x="4" y="16" width="1" height="1" fill="#fffffe"/>
<rect x="5" y="16" width="1" height="1" fill="#f1f5f1"/>
<rect x="6" y="16" width="1" height="1" fill="#daefd8"/>
<rect x="7" y="16" width="1" height="1" fill="#c4e6c7"/>
<rect x="8" y="16" width="1" height="1" fill="#94cc9b"/>
<rect x="9" y="16" width="1" height="1" fill="#2dc510"/>
<rect x="10" y="16" width="1" height="1" fill="#fcad02"/>
<rect x="11" y="16" width="1" height="1" fill="#fca600"/>
<rect x="12" y="16" width="1" height="1" fill="#00b806"/>
<rect x="13" y="16" width="1" height="1" fill="#09c31c"/>
<rect x="14" y="16" width="1" height="1" fill="#07cd20"/>
<rect x="15" y="16" width="1" height="1" fill="#03d11d"/>
<rect x="16" y="16" width="1" height="1" fill="#04ba16"/>
<rect x="17" y="16" width="1" height="1" fill="#03b30f"/>
<rect x="18" y="16" width="1" height="1" fill="#05a40e" fill-opacity="0.498"/>
<rect x="19" y="16" width="1" height="1" fill="#05990f" fill-opacity="0.275"/>
<rect x="20" y="16" width="1" height="1" fill="#059210" fill-opacity="0.188"/>
<rect x="21" y="16" width="1" height="1" fill="#059010" fill-opacity="0.106"/>
<rect x="22" y="16" width="1" height="1" fill="#059010" fill-opacity="0.004"/>
<rect x="0" y="17" width="1" height="1" fill="#06b00e" fill-opacity="0.996"/>
<rect x="1" y="17" width="1" height="1" fill="#fbfdfb"/>
<rect x="2" y="17" width="1" height="1" fill="#fdfefe"/>
<rect x="3" y="17" width="1" height="1" fill="#fffefd"/>
<rect x="4" y="17" width="1" height="1" fill="#fbfff9"/>
<rect x="5" y="17" width="1" height="1" fill="#fff7ff"/>
<rect x="6" y="17" width="1" height="1" fill="#f8fcfa"/>
<rect x="7" y="17" width="1" height="1" fill="#f4faf6"/>
<rect x="8" y="17" width="1" height="1" fill="#f3f7f2"/>
<rect x="9" y="17" width="1" height="1" fill="#fdfdfd"/>
<rect x="10" y="17" width="1" height="1" fill="#38c111"/>
<rect x="11" y="17" width="1" height="1" fill="#e96305"/>
<rect x="12" y="17" width="1" height="1" fill="#fd5200"/>
<rect x="13" y="17" width="1" height="1" fill="#01b509"/>
<rect x="14" y="17" width="1" height="1" fill="#05c31e"/>
<rect x="15" y="17" width="1" height="1" fill="#07d128"/>
<rect x="16" y="17" width="1" height="1" fill="#07c219"/>
<rect x="17" y="17" width="1" height="1" fill="#05af13"/>
<rect x="18" y="17" width="1" height="1" fill="#02a60d" fill-opacity="0.988"/>
<rect x="0" y="18" width="1" height="1" fill="#01ae0a"/>
<rect x="1" y="18" width="1" height="1" fill="#30cb3e"/>
<rect x="2" y="18" width="1" height="1" fill="#abdba9"/>
<rect x="3" y="18" width="1" height="1" fill="#f0f9e3"/>
<rect x="4" y="18" width="1" height="1" fill="#f6f1f6"/>
<rect x="5" y="18" width="1" height="1" fill="#f2fdf2"/>
<rect x="6" y="18" width="1" height="1" fill="#ffffff"/>
<rect x="7" y="18" width="1" height="1" fill="#f6fcf7"/>
<rect x="8" y="18" width="1" height="1" fill="#f0f8f0"/>
<rect x="9" y="18" width="1" height="1" fill="#f2fcf2"/>
<rect x="10" y="18" width="1" height="1" fill="#c4e9c4"/>
<rect x="11" y="18" width="1" height="1" fill="#05b911"/>
<rect x="12" y="18" width="1" height="1" fill="#cb4c08"/>
<rect x="13" y="18" width="1" height="1" fill="#d14f0a"/>
<rect x="14" y="18" width="1" height="1" fill="#03b50d"/>
<rect x="15" y="18" width="1" height="1" fill="#08c01d"/>
<rect x="16" y="18" width="1" height="1" fill="#06b915"/>
<rect x="17" y="18" width="1" height="1" fill="#05bd1b"/>
<rect x="18" y="18" width="1" height="1" fill="#03b20f"/>
<rect x="19" y="18" width="1" height="1" fill="#05a40e" fill-opacity="0.004"/>
<rect x="0" y="19" width="1" height="1" fill="#009d0e" fill-opacity="0.231"/>
<rect x="1" y="19" width="1" height="1" fill="#00a30a"/>
<rect x="2" y="19" width="1" height="1" fill="#079f09"/>
<rect x="3" y="19" width="1" height="1" fill="#009a0a"/>
<rect x="4" y="19" width="1" height="1" fill="#02a809"/>
<rect x="5" y="19" width="1" height="1" fill="#04ae0c"/>
<rect x="6" y="19" width="1" height="1" fill="#02ad0d"/>
<rect x="7" y="19" width="1" height="1" fill="#01ac0f"/>
<rect x="8" y="19" width="1" height="1" fill="#05aa0a"/>
<rect x="9" y="19" width="1" height="1" fill="#02a40b"/>
<rect x="10" y="19" width="1" height="1" fill="#03b10d"/>
<rect x="11" y="19" width="1" height="1" fill="#03ab0e"/>
<rect x="12" y="19" width="1" height="1" fill="#06a90d"/>
<rect x="13" y="19" width="1" height="1" fill="#af5b10"/>
<rect x="14" y="19" width="1" height="1" fill="#b65712"/>
<rect x="15" y="19" width="1" height="1" fill="#06ac0c"/>
<rect x="16" y="19" width="1" height="1" fill="#02a80c"/>
<rect x="17" y="19" width="1" height="1" fill="#02a50a"/>
<rect x="18" y="19" width="1" height="1" fill="#02a209"/>
<rect x="11" y="20" width="1" height="1" fill="#05a40e" fill-opacity="0.075"/>
<rect x="12" y="20" width="1" height="1" fill="#05a40e" fill-opacity="0.11"/>
<rect x="13" y="20" width="1" height="1" fill="#05a40e" fill-opacity="0.051"/>
<rect x="18" y="20" width="1" height="1" fill="#2d20fe" fill-opacity="0.016"/>
<rect x="19" y="20" width="1" height="1" fill="#2d20fe" fill-opacity="0.016"/>
<rect x="20" y="20" width="1" height="1" fill="#2d20fe" fill-opacity="0.031"/>
<rect x="21" y="20" width="1" height="1" fill="#2d20fe" fill-opacity="0.063"/>
<rect x="22" y="20" width="1" height="1" fill="#3225fe" fill-opacity="0.047"/>
<rect x="23" y="20" width="1" height="1" fill="#2d20fe" fill-opacity="0.016"/>
<rect x="24" y="20" width="1" height="1" fill="#2d20fe" fill-opacity="0.012"/>
</svg>