<?xml version="1.0" encoding="UTF-8" standalone="no"?>
<svg xmlns="http://www.w3.org/2000/svg" width="26" height="21" shape-rendering="crispEdges">
<rect x="23" y="1" width="1" height="1" fill="#0582f2" fill-opacity="0.098"/>
<rect x="24" y="1" width="1" height="1" fill="#0584f3" fill-opacity="0.078"/>
<rect x="21" y="2" width="1" height="1" fill="#0645ee" fill-opacity="0.008"/>
<rect x="22" y="2" width="1" height="1" fill="#0574f0" fill-opacity="0.369"/>
<rect x="23" y="2" width="1" height="1" fill="#1067f3"/>
<rect x="24" y="2" width="1" height="1" fill="#095ff1"/>
<rect x="25" y="2" width="1" height="1" fill="#0583f2" fill-opacity="0.078"/>
<rect x="10" y="3" width="1" height="1" fill="#045ef5" fill-opacity="0.976"/>
<rect x="11" y="3" width="1" height="1" fill="#0453f4"/>
<rect x="12" y="3" width="1" height="1" fill="#0158f6"/>
<rect x="13" y="3" width="1" height="1" fill="#0659e9" fill-opacity="0.973"/>
<rect x="20" y="3" width="1" height="1" fill="#0645ee" fill-opacity="0.016"/>
<rect x="21" y="3" width="1" height="1" fill="#046ff4" fill-opacity="0.702"/>
<rect x="22" y="3" width="1" height="1" fill="#1769e6"/>
<rect x="23" y="3" width="1" height="1" fill="#8fbef7"/>
<rect x="24" y="3" width="1" height="1" fill="#0f6ee8"/>
<rect x="25" y="3" width="1" height="1" fill="#057cf2" fill-opacity="0.071"/>
<rect x="9" y="4" width="1" height="1" fill="#0586f3" fill-opacity="0.008"/>
<rect x="10" y="4" width="1" height="1" fill="#0052e6"/>
<rect x="11" y="4" width="1" height="1" fill="#3482f4"/>
<rect x="12" y="4" width="1" height="1" fill="#3c8ef6"/>
<rect x="13" y="4" width="1" height="1" fill="#1474f6"/>
<rect x="14" y="4" width="1" height="1" fill="#035cee"/>
<rect x="15" y="4" width="1" height="1" fill="#0566f8" fill-opacity="0.996"/>
<rect x="19" y="4" width="1" height="1" fill="#0586f3" fill-opacity="0.004"/>
<rect x="20" y="4" width="1" height="1" fill="#056cec" fill-opacity="0.702"/>
<rect x="21" y="4" width="1" height="1" fill="#1469e8"/>
<rect x="22" y="4" width="1" height="1" fill="#eefeff"/>
<rect x="23" y="4" width="1" height="1" fill="#e9f0f6"/>
<rect x="24" y="4" width="1" height="1" fill="#0264f1"/>
<rect x="25" y="4" width="1" height="1" fill="#0586f3" fill-opacity="0.008"/>
<rect x="2" y="5" width="1" height="1" fill="#0050e6" fill-opacity="0.004"/>
<rect x="3" y="5" width="1" height="1" fill="#0050e6" fill-opacity="0.29"/>
<rect x="4" y="5" width="1" height="1" fill="#0376f0"/>
<rect x="5" y="5" width="1" height="1" fill="#0050e6" fill-opacity="0.243"/>
<rect x="6" y="5" width="1" height="1" fill="#0050e6" fill-opacity="0.106"/>
<rect x="7" y="5" width="1" height="1" fill="#0050e6" fill-opacity="0.012"/>
<rect x="9" y="5" width="1" height="1" fill="#0586f3" fill-opacity="0.008"/>
<rect x="10" y="5" width="1" height="1" fill="#075cf5"/>
<rect x="11" y="5" width="1" height="1" fill="#4890f3"/>
<rect x="12" y="5" width="1" height="1" fill="#76b8f7"/>
<rect x="13" y="5" width="1" height="1" fill="#559ff4"/>
<rect x="14" y="5" width="1" height="1" fill="#2c8cf2"/>
<rect x="15" y="5" width="1" height="1" fill="#096ae4"/>
<rect x="16" y="5" width="1" height="1" fill="#0466e1"/>
<rect x="17" y="5" width="1" height="1" fill="#0582f2" fill-opacity="0.114"/>
<rect x="18" y="5" width="1" height="1" fill="#0572ef" fill-opacity="0.604"/>
<rect x="19" y="5" width="1" height="1" fill="#0161e8"/>
<rect x="20" y="5" width="1" height="1" fill="#4b94ee"/>
<rect x="21" y="5" width="1" height="1" fill="#f6f8ff"/>
<rect x="22" y="5" width="1" height="1" fill="#fcfff4"/>
<rect x="23" y="5" width="1" height="1" fill="#4393ee"/>
<rect x="24" y="5" width="1" height="1" fill="#0374f1" fill-opacity="0.647"/>
<rect x="2" y="6" width="1" height="1" fill="#0050e6" fill-opacity="0.02"/>
<rect x="3" y="6" width="1" height="1" fill="#0369ed"/>
<rect x="4" y="6" width="1" height="1" fill="#86bdf7"/>
<rect x="5" y="6" width="1" height="1" fill="#0476f1"/>
<rect x="6" y="6" width="1" height="1" fill="#0050e6" fill-opacity="0.078"/>
<rect x="7" y="6" width="1" height="1" fill="#0050e6" fill-opacity="0.008"/>
<rect x="9" y="6" width="1" height="1" fill="#0586f3" fill-opacity="0.008"/>
<rect x="10" y="6" width="1" height="1" fill="#035ff4"/>
<rect x="11" y="6" width="1" height="1" fill="#67a2f7"/>
<rect x="12" y="6" width="1" height="1" fill="#84c9f7"/>
<rect x="13" y="6" width="1" height="1" fill="#72bbf6"/>
<rect x="14" y="6" width="1" height="1" fill="#218df4"/>
<rect x="15" y="6" width="1" height="1" fill="#1979f9"/>
<rect x="16" y="6" width="1" height="1" fill="#0a67f5"/>
<rect x="17" y="6" width="1" height="1" fill="#1675e7"/>
<rect x="18" y="6" width="1" height="1" fill="#57a3f5"/>
<rect x="19" y="6" width="1" height="1" fill="#e2f4ff"/>
<rect x="20" y="6" width="1" height="1" fill="#fef4f9"/>
<rect x="21" y="6" width="1" height="1" fill="#f5f4fa"/>
<rect x="22" y="6" width="1" height="1" fill="#66b2f0"/>
<rect x="23" y="6" width="1" height="1" fill="#0676f2"/>
<rect x="24" y="6" width="1" height="1" fill="#0582f1" fill-opacity="0.102"/>
<rect x="3" y="7" width="1" height="1" fill="#0050e6" fill-opacity="0.22"/>
<rect x="4" y="7" width="1" height="1" fill="#045fed"/>
<rect x="5" y="7" width="1" height="1" fill="#0050e6" fill-opacity="0.314"/>
<rect x="6" y="7" width="1" height="1" fill="#0050e6" fill-opacity="0.094"/>
<rect x="7" y="7" width="1" height="1" fill="#0050e6" fill-opacity="0.008"/>
<rect x="8" y="7" width="1" height="1" fill="#0050e6" fill-opacity="0.012"/>
<rect x="9" y="7" width="1" height="1" fill="#026bec" fill-opacity="0.016"/>
<rect x="10" y="7" width="1" height="1" fill="#066ceb"/>
<rect x="11" y="7" width="1" height="1" fill="#6aa4f7"/>
<rect x="12" y="7" width="1" height="1" fill="#97d2fb"/>
<rect x="13" y="7" width="1" height="1" fill="#257bf5"/>
<rect x="14" y="7" width="1" height="1" fill="#0365f3"/>
<rect x="15" y="7" width="1" height="1" fill="#3184f5"/>
<rect x="16" y="7" width="1" height="1" fill="#c0e0fe"/>
<rect x="17" y="7" width="1" height="1" fill="#f9f3ff"/>
<rect x="18" y="7" width="1" height="1" fill="#fcffff"/>
<rect x="19" y="7" width="1" height="1" fill="#f1f7ff"/>
<rect x="20" y="7" width="1" height="1" fill="#faf0f0"/>
<rect x="21" y="7" width="1" height="1" fill="#67b6ee"/>
<rect x="22" y="7" width="1" height="1" fill="#0556f9"/>
<rect x="23" y="7" width="1" height="1" fill="#247fed"/>
<rect x="24" y="7" width="1" height="1" fill="#0d6de8"/>
<rect x="25" y="7" width="1" height="1" fill="#0582f2" fill-opacity="0.102"/>
<rect x="0" y="8" width="1" height="1" fill="#0050e6" fill-opacity="0.035"/>
<rect x="1" y="8" width="1" height="1" fill="#0050e6" fill-opacity="0.271"/>
<rect x="2" y="8" width="1" height="1" fill="#0471ed"/>
<rect x="3" y="8" width="1" height="1" fill="#0050e6" fill-opacity="0.255"/>
<rect x="4" y="8" width="1" height="1" fill="#0050e6" fill-opacity="0.118"/>
<rect x="5" y="8" width="1" height="1" fill="#0050e6" fill-opacity="0.192"/>
<rect x="6" y="8" width="1" height="1" fill="#0361ea"/>
<rect x="7" y="8" width="1" height="1" fill="#0050e6" fill-opacity="0.271"/>
<rect x="8" y="8" width="1" height="1" fill="#0050e6" fill-opacity="0.039"/>
<rect x="9" y="8" width="1" height="1" fill="#0586f3" fill-opacity="0.016"/>
<rect x="10" y="8" width="1" height="1" fill="#046deb"/>
<rect x="11" y="8" width="1" height="1" fill="#5998f4"/>
<rect x="12" y="8" width="1" height="1" fill="#7bc0f9"/>
<rect x="13" y="8" width="1" height="1" fill="#0261eb"/>
<rect x="14" y="8" width="1" height="1" fill="#e4eef3"/>
<rect x="15" y="8" width="1" height="1" fill="#ffffff"/>
<rect x="16" y="8" width="1" height="1" fill="#f7fefc"/>
<rect x="17" y="8" width="1" height="1" fill="#ffffff"/>
<rect x="18" y="8" width="1" height="1" fill="#fffaff"/>
<rect x="19" y="8" width="1" height="1" fill="#90c5ff"/>
<rect x="20" y="8" width="1" height="1" fill="#1c6bfd"/>
<rect x="21" y="8" width="1" height="1" fill="#2f82fd"/>
<rect x="22" y="8" width="1" height="1" fill="#c3eefa"/>
<rect x="23" y="8" width="1" height="1" fill="#90c0fe"/>
<rect x="24" y="8" width="1" height="1" fill="#046ff2"/>
<rect x="25" y="8" width="1" height="1" fill="#0586f3" fill-opacity="0.004"/>
<rect x="0" y="9" width="1" height="1" fill="#0050e6" fill-opacity="0.059"/>
<rect x="1" y="9" width="1" height="1" fill="#0473f0"/>
<rect x="2" y="9" width="1" height="1" fill="#93c6fa"/>
<rect x="3" y="9" width="1" height="1" fill="#0269eb"/>
<rect x="4" y="9" width="1" height="1" fill="#0050e6" fill-opacity="0.055"/>
<rect x="5" y="9" width="1" height="1" fill="#0370ef"/>
<rect x="6" y="9" width="1" height="1" fill="#7ab5f7"/>
<rect x="7" y="9" width="1" height="1" fill="#045eed"/>
<rect x="8" y="9" width="1" height="1" fill="#0050e6" fill-opacity="0.075"/>
<rect x="9" y="9" width="1" height="1" fill="#0586f3" fill-opacity="0.031"/>
<rect x="10" y="9" width="1" height="1" fill="#075cf2"/>
<rect x="11" y="9" width="1" height="1" fill="#4a93ef"/>
<rect x="12" y="9" width="1" height="1" fill="#429ff9"/>
<rect x="13" y="9" width="1" height="1" fill="#2876ee"/>
<rect x="14" y="9" width="1" height="1" fill="#f4eefb"/>
<rect x="15" y="9" width="1" height="1" fill="#bde6f9"/>
<rect x="16" y="9" width="1" height="1" fill="#1a73fe"/>
<rect x="17" y="9" width="1" height="1" fill="#287eff"/>
<rect x="18" y="9" width="1" height="1" fill="#2a85ff"/>
<rect x="19" y="9" width="1" height="1" fill="#0666f9"/>
<rect x="20" y="9" width="1" height="1" fill="#57b2f6"/>
<rect x="21" y="9" width="1" height="1" fill="#fffff4"/>
<rect x="22" y="9" width="1" height="1" fill="#faf4ff"/>
<rect x="23" y="9" width="1" height="1" fill="#1471f9"/>
<rect x="24" y="9" width="1" height="1" fill="#047df1" fill-opacity="0.318"/>
<rect x="0" y="10" width="1" height="1" fill="#0050e6" fill-opacity="0.055"/>
<rect x="1" y="10" width="1" height="1" fill="#0050e6" fill-opacity="0.286"/>
<rect x="2" y="10" width="1" height="1" fill="#026bef"/>
<rect x="3" y="10" width="1" height="1" fill="#0050e6" fill-opacity="0.263"/>
<rect x="4" y="10" width="1" height="1" fill="#0050e6" fill-opacity="0.11"/>
<rect x="5" y="10" width="1" height="1" fill="#0050e6" fill-opacity="0.349"/>
<rect x="6" y="10" width="1" height="1" fill="#046dec"/>
<rect x="7" y="10" width="1" height="1" fill="#0050e6" fill-opacity="0.329"/>
<rect x="8" y="10" width="1" height="1" fill="#0050e6" fill-opacity="0.02"/>
<rect x="9" y="10" width="1" height="1" fill="#0586f3" fill-opacity="0.016"/>
<rect x="10" y="10" width="1" height="1" fill="#0461eb"/>
<rect x="11" y="10" width="1" height="1" fill="#4f9bf5"/>
<rect x="12" y="10" width="1" height="1" fill="#217ef4"/>
<rect x="13" y="10" width="1" height="1" fill="#5e96f3"/>
<rect x="14" y="10" width="1" height="1" fill="#f9fcfb"/>
<rect x="15" y="10" width="1" height="1" fill="#64b7fd"/>
<rect x="16" y="10" width="1" height="1" fill="#9bd3f3"/>
<rect x="17" y="10" width="1" height="1" fill="#c2d5fc"/>
<rect x="18" y="10" width="1" height="1" fill="#3092fe"/>
<rect x="19" y="10" width="1" height="1" fill="#1281f4"/>
<rect x="20" y="10" width="1" height="1" fill="#ebe6f2"/>
<rect x="21" y="10" width="1" height="1" fill="#faf0ff"/>
<rect x="22" y="10" width="1" height="1" fill="#0a69eb"/>
<rect x="23" y="10" width="1" height="1" fill="#0a75ed"/>
<rect x="24" y="10" width="1" height="1" fill="#0266ea" fill-opacity="0.353"/>
<rect x="25" y="10" width="1" height="1" fill="#015de7" fill-opacity="0.075"/>
<rect x="1" y="11" width="1" height="1" fill="#0050e6" fill-opacity="0.027"/>
<rect x="2" y="11" width="1" height="1" fill="#0050e6" fill-opacity="0.094"/>
<rect x="5" y="11" width="1" height="1" fill="#0050e6" fill-opacity="0.051"/>
<rect x="6" y="11" width="1" height="1" fill="#0050e6" fill-opacity="0.086"/>
<rect x="7" y="11" width="1" height="1" fill="#0050e6" fill-opacity="0.031"/>
<rect x="9" y="11" width="1" height="1" fill="#0649ee" fill-opacity="0.29"/>
<rect x="10" y="11" width="1" height="1" fill="#0561f1"/>
<rect x="11" y="11" width="1" height="1" fill="#3d8bf8"/>
<rect x="12" y="11" width="1" height="1" fill="#2a8bf5"/>
<rect x="13" y="11" width="1" height="1" fill="#2178f7"/>
<rect x="14" y="11" width="1" height="1" fill="#bed5f9"/>
<rect x="15" y="11" width="1" height="1" fill="#2a8afb"/>
<rect x="16" y="11" width="1" height="1" fill="#287fff"/>
<rect x="17" y="11" width="1" height="1" fill="#d6ebf8"/>
<rect x="18" y="11" width="1" height="1" fill="#eaf7fb"/>
<rect x="19" y="11" width="1" height="1" fill="#087af4"/>
<rect x="20" y="11" width="1" height="1" fill="#257aeb"/>
<rect x="21" y="11" width="1" height="1" fill="#1e73f9"/>
<rect x="22" y="11" width="1" height="1" fill="#83bafc"/>
<rect x="23" y="11" width="1" height="1" fill="#72b6fb"/>
<rect x="24" y="11" width="1" height="1" fill="#036aea"/>
<rect x="25" y="11" width="1" height="1" fill="#0263e9" fill-opacity="0.102"/>
<rect x="6" y="12" width="1" height="1" fill="#0050e6" fill-opacity="0.012"/>
<rect x="9" y="12" width="1" height="1" fill="#056aec"/>
<rect x="10" y="12" width="1" height="1" fill="#3b86f1"/>
<rect x="11" y="12" width="1" height="1" fill="#3a90f4"/>
<rect x="12" y="12" width="1" height="1" fill="#3598fd"/>
<rect x="13" y="12" width="1" height="1" fill="#0b5fe9"/>
<rect x="14" y="12" width="1" height="1" fill="#84b7f9"/>
<rect x="15" y="12" width="1" height="1" fill="#bfd0fb"/>
<rect x="16" y="12" width="1" height="1" fill="#d0dff8"/>
<rect x="17" y="12" width="1" height="1" fill="#fbfeff"/>
<rect x="18" y="12" width="1" height="1" fill="#4f9df9"/>
<rect x="19" y="12" width="1" height="1" fill="#1468f2"/>
<rect x="20" y="12" width="1" height="1" fill="#e0f3f3"/>
<rect x="21" y="12" width="1" height="1" fill="#f1fef3"/>
<rect x="22" y="12" width="1" height="1" fill="#f6ecff"/>
<rect x="23" y="12" width="1" height="1" fill="#1c68fb"/>
<rect x="24" y="12" width="1" height="1" fill="#0480f4" fill-opacity="0.224"/>
<rect x="8" y="13" width="1" height="1" fill="#0645ee" fill-opacity="0.267"/>
<rect x="9" y="13" width="1" height="1" fill="#046dee"/>
<rect x="10" y="13" width="1" height="1" fill="#317ff2"/>
<rect x="11" y="13" width="1" height="1" fill="#409feb"/>
<rect x="12" y="13" width="1" height="1" fill="#41aef4"/>
<rect x="13" y="13" width="1" height="1" fill="#1a8afc"/>
<rect x="14" y="13" width="1" height="1" fill="#096cf6"/>
<rect x="15" y="13" width="1" height="1" fill="#0477f1"/>
<rect x="16" y="13" width="1" height="1" fill="#0475ef"/>
<rect x="17" y="13" width="1" height="1" fill="#077cf1"/>
<rect x="18" y="13" width="1" height="1" fill="#096bf1"/>
<rect x="19" y="13" width="1" height="1" fill="#98caf2"/>
<rect x="20" y="13" width="1" height="1" fill="#feffff"/>
<rect x="21" y="13" width="1" height="1" fill="#f9ebff"/>
<rect x="22" y="13" width="1" height="1" fill="#2472f4"/>
<rect x="23" y="13" width="1" height="1" fill="#0572f6" fill-opacity="0.686"/>
<rect x="0" y="14" width="1" height="1" fill="#045ee4"/>
<rect x="1" y="14" width="1" height="1" fill="#0570f1"/>
<rect x="2" y="14" width="1" height="1" fill="#057df2"/>
<rect x="3" y="14" width="1" height="1" fill="#0645ee" fill-opacity="0.353"/>
<rect x="4" y="14" width="1" height="1" fill="#0645ee" fill-opacity="0.184"/>
<rect x="5" y="14" width="1" height="1" fill="#0570f1" fill-opacity="0.012"/>
<rect x="6" y="14" width="1" height="1" fill="#0645ee" fill-opacity="0.004"/>
<rect x="7" y="14" width="1" height="1" fill="#0645ee" fill-opacity="0.196"/>
<rect x="8" y="14" width="1" height="1" fill="#0665ed"/>
<rect x="9" y="14" width="1" height="1" fill="#e0e91d"/>
<rect x="10" y="14" width="1" height="1" fill="#0578f2"/>
<rect x="11" y="14" width="1" height="1" fill="#3fb0fb"/>
<rect x="12" y="14" width="1" height="1" fill="#37a5ee"/>
<rect x="13" y="14" width="1" height="1" fill="#1a9af5"/>
<rect x="14" y="14" width="1" height="1" fill="#1e8efb"/>
<rect x="15" y="14" width="1" height="1" fill="#0475ef"/>
<rect x="16" y="14" width="1" height="1" fill="#55a4f9"/>
<rect x="17" y="14" width="1" height="1" fill="#b9d4fb"/>
<rect x="18" y="14" width="1" height="1" fill="#b9d3fb"/>
<rect x="19" y="14" width="1" height="1" fill="#e5f3fe"/>
<rect x="20" y="14" width="1" height="1" fill="#eef4ff"/>
<rect x="21" y="14" width="1" height="1" fill="#2171ed"/>
<rect x="22" y="14" width="1" height="1" fill="#0375f5" fill-opacity="0.675"/>
<rect x="25" y="14" width="1" height="1" fill="#594dff" fill-opacity="0.039"/>
<rect x="0" y="15" width="1" height="1" fill="#0a5cf3"/>
<rect x="1" y="15" width="1" height="1" fill="#a2bef7"/>
<rect x="2" y="15" width="1" height="1" fill="#7da5f9"/>
<rect x="3" y="15" width="1" height="1" fill="#0267e5"/>
<rect x="4" y="15" width="1" height="1" fill="#0566f1"/>
<rect x="5" y="15" width="1" height="1" fill="#066ef6"/>
<rect x="6" y="15" width="1" height="1" fill="#0579f1"/>
<rect x="7" y="15" width="1" height="1" fill="#0663ef"/>
<rect x="8" y="15" width="1" height="1" fill="#056ff3"/>
<rect x="9" y="15" width="1" height="1" fill="#faef20"/>
<rect x="10" y="15" width="1" height="1" fill="#feff00"/>
<rect x="11" y="15" width="1" height="1" fill="#015bf5"/>
<rect x="12" y="15" width="1" height="1" fill="#1e94f6"/>
<rect x="13" y="15" width="1" height="1" fill="#2596fc"/>
<rect x="14" y="15" width="1" height="1" fill="#0f86f8"/>
<rect x="15" y="15" width="1" height="1" fill="#0578f1"/>
<rect x="16" y="15" width="1" height="1" fill="#045fed"/>
<rect x="17" y="15" width="1" height="1" fill="#025fef"/>
<rect x="18" y="15" width="1" height="1" fill="#0568f3" fill-opacity="0.949"/>
<rect x="19" y="15" width="1" height="1" fill="#0576ef" fill-opacity="0.937"/>
<rect x="20" y="15" width="1" height="1" fill="#0468f0" fill-opacity="0.976"/>
<rect x="21" y="15" width="1" height="1" fill="#0675f5" fill-opacity="0.624"/>
<rect x="25" y="15" width="1" height="1" fill="#594dff" fill-opacity="0.008"/>
<rect x="0" y="16" width="1" height="1" fill="#0153e7"/>
<rect x="1" y="16" width="1" height="1" fill="#dddef6"/>
<rect x="2" y="16" width="1" height="1" fill="#fbf1ff"/>
<rect x="3" y="16" width="1" height="1" fill="#f8ffff"/>
<rect x="4" y="16" width="1" height="1" fill="#fff9fc"/>
<rect x="5" y="16" width="1" height="1" fill="#ffffff"/>
<rect x="6" y="16" width="1" height="1" fill="#e1e5f8"/>
<rect x="7" y="16" width="1" height="1" fill="#bed0f9"/>
<rect x="8" y="16" width="1" height="1" fill="#a5baf9"/>
<rect x="9" y="16" width="1" height="1" fill="#107bf1"/>
<rect x="10" y="16" width="1" height="1" fill="#f9a903"/>
<rect x="11" y="16" width="1" height="1" fill="#ffa700"/>
<rect x="12" y="16" width="1" height="1" fill="#065fe3"/>
<rect x="13" y="16" width="1" height="1" fill="#137ce7"/>
<rect x="14" y="16" width="1" height="1" fill="#1474e9"/>
<rect x="15" y="16" width="1" height="1" fill="#077bf4"/>
<rect x="16" y="16" width="1" height="1" fill="#076bed"/>
<rect x="17" y="16" width="1" height="1" fill="#0450ed"/>
<rect x="18" y="16" width="1" height="1" fill="#0645ee" fill-opacity="0.475"/>
<rect x="19" y="16" width="1" height="1" fill="#0645ee" fill-opacity="0.161"/>
<rect x="25" y="16" width="1" height="1" fill="#594dff" fill-opacity="0.004"/>
<rect x="0" y="17" width="1" height="1" fill="#004ae4"/>
<rect x="1" y="17" width="1" height="1" fill="#f2f5fe"/>
<rect x="2" y="17" width="1" height="1" fill="#ebfcff"/>
<rect x="3" y="17" width="1" height="1" fill="#fffffa"/>
<rect x="4" y="17" width="1" height="1" fill="#fff6ff"/>
<rect x="5" y="17" width="1" height="1" fill="#f7fffa"/>
<rect x="6" y="17" width="1" height="1" fill="#fff4ff"/>
<rect x="7" y="17" width="1" height="1" fill="#ffffff"/>
<rect x="8" y="17" width="1" height="1" fill="#fffdff"/>
<rect x="9" y="17" width="1" height="1" fill="#e1eafd"/>
<rect x="10" y="17" width="1" height="1" fill="#377ff0"/>
<rect x="11" y="17" width="1" height="1" fill="#ff4801"/>
<rect x="12" y="17" width="1" height="1" fill="#fa4c03"/>
<rect x="13" y="17" width="1" height="1" fill="#035dec"/>
<rect x="14" y="17" width="1" height="1" fill="#0474ec"/>
<rect x="15" y="17" width="1" height="1" fill="#067af1"/>
<rect x="16" y="17" width="1" height="1" fill="#088cf4"/>
<rect x="17" y="17" width="1" height="1" fill="#065bed"/>
<rect x="18" y="17" width="1" height="1" fill="#055af2" fill-opacity="0.98"/>
<rect x="0" y="18" width="1" height="1" fill="#0653ea"/>
<rect x="1" y="18" width="1" height="1" fill="#589ef1"/>
<rect x="2" y="18" width="1" height="1" fill="#d6dcfb"/>
<rect x="3" y="18" width="1" height="1" fill="#eef2fd"/>
<rect x="4" y="18" width="1" height="1" fill="#fcfffc"/>
<rect x="5" y="18" width="1" height="1" fill="#f5f9ff"/>
<rect x="6" y="18" width="1" height="1" fill="#f5feff"/>
<rect x="7" y="18" width="1" height="1" fill="#f1fcf2"/>
<rect x="8" y="18" width="1" height="1" fill="#eef3f5"/>
<rect x="9" y="18" width="1" height="1" fill="#d6e1fa"/>
<rect x="10" y="18" width="1" height="1" fill="#88b0f9"/>
<rect x="11" y="18" width="1" height="1" fill="#0665e8"/>
<rect x="12" y="18" width="1" height="1" fill="#ce3604"/>
<rect x="13" y="18" width="1" height="1" fill="#cb3d09"/>
<rect x="14" y="18" width="1" height="1" fill="#015ee1"/>
<rect x="15" y="18" width="1" height="1" fill="#0266ef"/>
<rect x="16" y="18" width="1" height="1" fill="#0368eb"/>
<rect x="17" y="18" width="1" height="1" fill="#0460f2"/>
<rect x="18" y="18" width="1" height="1" fill="#045eed"/>
<rect x="19" y="18" width="1" height="1" fill="#014eeb" fill-opacity="0.016"/>
<rect x="0" y="19" width="1" height="1" fill="#0645ee" fill-opacity="0.263"/>
<rect x="1" y="19" width="1" height="1" fill="#035cf2"/>
<rect x="2" y="19" width="1" height="1" fill="#0156e7"/>
<rect x="3" y="19" width="1" height="1" fill="#056ff6"/>
<rect x="4" y="19" width="1" height="1" fill="#057ff0"/>
<rect x="5" y="19" width="1" height="1" fill="#0473f1"/>
<rect x="6" y="19" width="1" height="1" fill="#0574f5"/>
<rect x="7" y="19" width="1" height="1" fill="#0570f0"/>
<rect x="8" y="19" width="1" height="1" fill="#0466ea"/>
<rect x="9" y="19" width="1" height="1" fill="#0158f8"/>
<rect x="10" y="19" width="1" height="1" fill="#0372eb"/>
<rect x="11" y="19" width="1" height="1" fill="#0469eb"/>
<rect x="12" y="19" width="1" height="1" fill="#025ef5"/>
<rect x="13" y="19" width="1" height="1" fill="#9f380c"/>
<rect x="14" y="19" width="1" height="1" fill="#933e0e"/>
<rect x="15" y="19" width="1" height="1" fill="#014cf9"/>
<rect x="16" y="19" width="1" height="1" fill="#014eeb"/>
<rect x="17" y="19" width="1" height="1" fill="#0254eb"/>
<rect x="18" y="19" width="1" height="1" fill="#045def"/>
<rect x="1" y="20" width="1" height="1" fill="#2d20fe" fill-opacity="0.031"/>
<rect x="2" y="20" width="1" height="1" fill="#2d20fe" fill-opacity="0.004"/>
</svg>