<?xml version="1.0" encoding="UTF-8" standalone="no"?>
<svg xmlns="http://www.w3.org/2000/svg" width="26" height="21" shape-rendering="crispEdges">
<rect x="23" y="1" width="1" height="1" fill="#564bff" fill-opacity="0.098"/>
<rect x="24" y="1" width="1" height="1" fill="#594dff" fill-opacity="0.075"/>
<rect x="22" y="2" width="1" height="1" fill="#4e42fe" fill-opacity="0.416"/>
<rect x="23" y="2" width="1" height="1" fill="#544aff"/>
<rect x="24" y="2" width="1" height="1" fill="#5851ff"/>
<rect x="25" y="2" width="1" height="1" fill="#594dff" fill-opacity="0.075"/>
<rect x="10" y="3" width="1" height="1" fill="#4b44ff" fill-opacity="0.949"/>
<rect x="11" y="3" width="1" height="1" fill="#4b3fff"/>
<rect x="12" y="3" width="1" height="1" fill="#4a35ff"/>
<rect x="13" y="3" width="1" height="1" fill="#4941ff" fill-opacity="0.929"/>
<rect x="21" y="3" width="1" height="1" fill="#4f40ff" fill-opacity="0.667"/>
<rect x="22" y="3" width="1" height="1" fill="#4b4aff"/>
<rect x="23" y="3" width="1" height="1" fill="#c4c2ff"/>
<rect x="24" y="3" width="1" height="1" fill="#5244ff"/>
<rect x="25" y="3" width="1" height="1" fill="#574bfe" fill-opacity="0.063"/>
<rect x="9" y="4" width="1" height="1" fill="#594dff" fill-opacity="0.008"/>
<rect x="10" y="4" width="1" height="1" fill="#5043ff"/>
<rect x="11" y="4" width="1" height="1" fill="#7c6ffe"/>
<rect x="12" y="4" width="1" height="1" fill="#7d6ffc"/>
<rect x="13" y="4" width="1" height="1" fill="#6d5ffb"/>
<rect x="14" y="4" width="1" height="1" fill="#5249fb"/>
<rect x="15" y="4" width="1" height="1" fill="#463cff" fill-opacity="0.992"/>
<rect x="16" y="4" width="1" height="1" fill="#cbc4fe" fill-opacity="0.008"/>
<rect x="19" y="4" width="1" height="1" fill="#594dff" fill-opacity="0.004"/>
<rect x="20" y="4" width="1" height="1" fill="#4b3cfd" fill-opacity="0.706"/>
<rect x="21" y="4" width="1" height="1" fill="#594aff"/>
<rect x="22" y="4" width="1" height="1" fill="#f6fef6"/>
<rect x="23" y="4" width="1" height="1" fill="#ecfeff"/>
<rect x="24" y="4" width="1" height="1" fill="#423afb"/>
<rect x="25" y="4" width="1" height="1" fill="#594dff" fill-opacity="0.008"/>
<rect x="3" y="5" width="1" height="1" fill="#4625ff" fill-opacity="0.196"/>
<rect x="4" y="5" width="1" height="1" fill="#412ff8"/>
<rect x="5" y="5" width="1" height="1" fill="#4625ff" fill-opacity="0.188"/>
<rect x="6" y="5" width="1" height="1" fill="#4625ff" fill-opacity="0.012"/>
<rect x="9" y="5" width="1" height="1" fill="#594dff" fill-opacity="0.008"/>
<rect x="10" y="5" width="1" height="1" fill="#4941ff"/>
<rect x="11" y="5" width="1" height="1" fill="#8579fc"/>
<rect x="12" y="5" width="1" height="1" fill="#9e94fb"/>
<rect x="13" y="5" width="1" height="1" fill="#887ffc"/>
<rect x="14" y="5" width="1" height="1" fill="#897afd"/>
<rect x="15" y="5" width="1" height="1" fill="#7f70fe"/>
<rect x="16" y="5" width="1" height="1" fill="#695dff"/>
<rect x="17" y="5" width="1" height="1" fill="#584cff" fill-opacity="0.11"/>
<rect x="18" y="5" width="1" height="1" fill="#5148ff" fill-opacity="0.549"/>
<rect x="19" y="5" width="1" height="1" fill="#3f3afe"/>
<rect x="20" y="5" width="1" height="1" fill="#7d7cfe"/>
<rect x="21" y="5" width="1" height="1" fill="#f7f5f8"/>
<rect x="22" y="5" width="1" height="1" fill="#f7f3fa"/>
<rect x="23" y="5" width="1" height="1" fill="#6e60fd"/>
<rect x="24" y="5" width="1" height="1" fill="#4c42ff" fill-opacity="0.643"/>
<rect x="25" y="5" width="1" height="1" fill="#4637fc" fill-opacity="0.024"/>
<rect x="3" y="6" width="1" height="1" fill="#3d28fa"/>
<rect x="4" y="6" width="1" height="1" fill="#c2b7fc"/>
<rect x="5" y="6" width="1" height="1" fill="#4c41fc"/>
<rect x="6" y="6" width="1" height="1" fill="#4625ff" fill-opacity="0.071"/>
<rect x="9" y="6" width="1" height="1" fill="#594dff" fill-opacity="0.008"/>
<rect x="10" y="6" width="1" height="1" fill="#5549fe"/>
<rect x="11" y="6" width="1" height="1" fill="#8a80fc"/>
<rect x="12" y="6" width="1" height="1" fill="#b0a8ff"/>
<rect x="13" y="6" width="1" height="1" fill="#c1b8fe"/>
<rect x="14" y="6" width="1" height="1" fill="#9586fd"/>
<rect x="15" y="6" width="1" height="1" fill="#8778fd"/>
<rect x="16" y="6" width="1" height="1" fill="#594bff"/>
<rect x="17" y="6" width="1" height="1" fill="#5952ff"/>
<rect x="18" y="6" width="1" height="1" fill="#918fff"/>
<rect x="19" y="6" width="1" height="1" fill="#ccd2fe"/>
<rect x="20" y="6" width="1" height="1" fill="#f2f2fe"/>
<rect x="21" y="6" width="1" height="1" fill="#fcedff"/>
<rect x="22" y="6" width="1" height="1" fill="#a798f4"/>
<rect x="23" y="6" width="1" height="1" fill="#362dff"/>
<rect x="24" y="6" width="1" height="1" fill="#584cff" fill-opacity="0.098"/>
<rect x="3" y="7" width="1" height="1" fill="#4625ff" fill-opacity="0.322"/>
<rect x="4" y="7" width="1" height="1" fill="#4937ff"/>
<rect x="5" y="7" width="1" height="1" fill="#4625ff" fill-opacity="0.306"/>
<rect x="6" y="7" width="1" height="1" fill="#4625ff" fill-opacity="0.063"/>
<rect x="9" y="7" width="1" height="1" fill="#594dff" fill-opacity="0.008"/>
<rect x="10" y="7" width="1" height="1" fill="#5144fd"/>
<rect x="11" y="7" width="1" height="1" fill="#817dfc"/>
<rect x="12" y="7" width="1" height="1" fill="#c0b5fe"/>
<rect x="13" y="7" width="1" height="1" fill="#776efe"/>
<rect x="14" y="7" width="1" height="1" fill="#574bff"/>
<rect x="15" y="7" width="1" height="1" fill="#847dff"/>
<rect x="16" y="7" width="1" height="1" fill="#e2daff"/>
<rect x="17" y="7" width="1" height="1" fill="#f8f6f9"/>
<rect x="18" y="7" width="1" height="1" fill="#ebeffb"/>
<rect x="19" y="7" width="1" height="1" fill="#f2f2fd"/>
<rect x="20" y="7" width="1" height="1" fill="#f4fbff"/>
<rect x="21" y="7" width="1" height="1" fill="#9da8f9"/>
<rect x="22" y="7" width="1" height="1" fill="#412efe"/>
<rect x="23" y="7" width="1" height="1" fill="#5d5afe"/>
<rect x="24" y="7" width="1" height="1" fill="#5c4eff"/>
<rect x="25" y="7" width="1" height="1" fill="#584bff" fill-opacity="0.098"/>
<rect x="1" y="8" width="1" height="1" fill="#4625ff" fill-opacity="0.188"/>
<rect x="2" y="8" width="1" height="1" fill="#4129f9"/>
<rect x="3" y="8" width="1" height="1" fill="#4625ff" fill-opacity="0.376"/>
<rect x="4" y="8" width="1" height="1" fill="#4625ff" fill-opacity="0.231"/>
<rect x="5" y="8" width="1" height="1" fill="#4625ff" fill-opacity="0.298"/>
<rect x="6" y="8" width="1" height="1" fill="#3a30f9"/>
<rect x="7" y="8" width="1" height="1" fill="#4625ff" fill-opacity="0.325"/>
<rect x="8" y="8" width="1" height="1" fill="#4625ff" fill-opacity="0.039"/>
<rect x="9" y="8" width="1" height="1" fill="#594dff" fill-opacity="0.016"/>
<rect x="10" y="8" width="1" height="1" fill="#4b42f9"/>
<rect x="11" y="8" width="1" height="1" fill="#7d74fc"/>
<rect x="12" y="8" width="1" height="1" fill="#a096fe"/>
<rect x="13" y="8" width="1" height="1" fill="#564afe"/>
<rect x="14" y="8" width="1" height="1" fill="#d0cbfe"/>
<rect x="15" y="8" width="1" height="1" fill="#eef7ff"/>
<rect x="16" y="8" width="1" height="1" fill="#f7f7fb"/>
<rect x="17" y="8" width="1" height="1" fill="#fcfaff"/>
<rect x="18" y="8" width="1" height="1" fill="#fef9f9"/>
<rect x="19" y="8" width="1" height="1" fill="#c2bcff"/>
<rect x="20" y="8" width="1" height="1" fill="#6056f9"/>
<rect x="21" y="8" width="1" height="1" fill="#706bff"/>
<rect x="22" y="8" width="1" height="1" fill="#e0e4fa"/>
<rect x="23" y="8" width="1" height="1" fill="#c4beff"/>
<rect x="24" y="8" width="1" height="1" fill="#5145ff"/>
<rect x="25" y="8" width="1" height="1" fill="#493bfc" fill-opacity="0.024"/>
<rect x="0" y="9" width="1" height="1" fill="#4625ff" fill-opacity="0.012"/>
<rect x="1" y="9" width="1" height="1" fill="#4026fc"/>
<rect x="2" y="9" width="1" height="1" fill="#d3cbf5"/>
<rect x="3" y="9" width="1" height="1" fill="#3d33fe"/>
<rect x="4" y="9" width="1" height="1" fill="#4625ff" fill-opacity="0.122"/>
<rect x="5" y="9" width="1" height="1" fill="#4c3dff"/>
<rect x="6" y="9" width="1" height="1" fill="#beaeff"/>
<rect x="7" y="9" width="1" height="1" fill="#4638ff"/>
<rect x="8" y="9" width="1" height="1" fill="#4625ff" fill-opacity="0.059"/>
<rect x="9" y="9" width="1" height="1" fill="#594dff" fill-opacity="0.031"/>
<rect x="10" y="9" width="1" height="1" fill="#5246ff"/>
<rect x="11" y="9" width="1" height="1" fill="#8881fc"/>
<rect x="12" y="9" width="1" height="1" fill="#8077fe"/>
<rect x="13" y="9" width="1" height="1" fill="#7b73fc"/>
<rect x="14" y="9" width="1" height="1" fill="#fbfbfb"/>
<rect x="15" y="9" width="1" height="1" fill="#ededf4"/>
<rect x="16" y="9" width="1" height="1" fill="#5953fb"/>
<rect x="17" y="9" width="1" height="1" fill="#6f64ff"/>
<rect x="18" y="9" width="1" height="1" fill="#6369f5"/>
<rect x="19" y="9" width="1" height="1" fill="#4f44ff"/>
<rect x="20" y="9" width="1" height="1" fill="#a99fff"/>
<rect x="21" y="9" width="1" height="1" fill="#fbf9ff"/>
<rect x="22" y="9" width="1" height="1" fill="#f2f3fb"/>
<rect x="23" y="9" width="1" height="1" fill="#655cff"/>
<rect x="24" y="9" width="1" height="1" fill="#5043fe" fill-opacity="0.408"/>
<rect x="25" y="9" width="1" height="1" fill="#4637fc" fill-opacity="0.035"/>
<rect x="0" y="10" width="1" height="1" fill="#4625ff" fill-opacity="0.004"/>
<rect x="1" y="10" width="1" height="1" fill="#4625ff" fill-opacity="0.286"/>
<rect x="2" y="10" width="1" height="1" fill="#362dfe"/>
<rect x="3" y="10" width="1" height="1" fill="#4625ff" fill-opacity="0.278"/>
<rect x="4" y="10" width="1" height="1" fill="#4625ff" fill-opacity="0.055"/>
<rect x="5" y="10" width="1" height="1" fill="#4625ff" fill-opacity="0.188"/>
<rect x="6" y="10" width="1" height="1" fill="#4739fe"/>
<rect x="7" y="10" width="1" height="1" fill="#4625ff" fill-opacity="0.271"/>
<rect x="8" y="10" width="1" height="1" fill="#4625ff" fill-opacity="0.063"/>
<rect x="9" y="10" width="1" height="1" fill="#594dff" fill-opacity="0.016"/>
<rect x="10" y="10" width="1" height="1" fill="#4c44fb"/>
<rect x="11" y="10" width="1" height="1" fill="#9a8afc"/>
<rect x="12" y="10" width="1" height="1" fill="#6658fa"/>
<rect x="13" y="10" width="1" height="1" fill="#a19efd"/>
<rect x="14" y="10" width="1" height="1" fill="#fffff4"/>
<rect x="15" y="10" width="1" height="1" fill="#d0c3f8"/>
<rect x="16" y="10" width="1" height="1" fill="#f1f7ff"/>
<rect x="17" y="10" width="1" height="1" fill="#dcdbfe"/>
<rect x="18" y="10" width="1" height="1" fill="#8178ff"/>
<rect x="19" y="10" width="1" height="1" fill="#5d51fd"/>
<rect x="20" y="10" width="1" height="1" fill="#e1deff"/>
<rect x="21" y="10" width="1" height="1" fill="#eff1fe"/>
<rect x="22" y="10" width="1" height="1" fill="#5346fc"/>
<rect x="23" y="10" width="1" height="1" fill="#5549fe"/>
<rect x="24" y="10" width="1" height="1" fill="#594dff" fill-opacity="0.106"/>
<rect x="1" y="11" width="1" height="1" fill="#4625ff" fill-opacity="0.047"/>
<rect x="2" y="11" width="1" height="1" fill="#4625ff" fill-opacity="0.063"/>
<rect x="3" y="11" width="1" height="1" fill="#4625ff" fill-opacity="0.012"/>
<rect x="5" y="11" width="1" height="1" fill="#4625ff" fill-opacity="0.031"/>
<rect x="6" y="11" width="1" height="1" fill="#4625ff" fill-opacity="0.106"/>
<rect x="9" y="11" width="1" height="1" fill="#5d51fe" fill-opacity="0.212"/>
<rect x="10" y="11" width="1" height="1" fill="#5244fe"/>
<rect x="11" y="11" width="1" height="1" fill="#8b7ffc"/>
<rect x="12" y="11" width="1" height="1" fill="#7968fc"/>
<rect x="13" y="11" width="1" height="1" fill="#6b69fe"/>
<rect x="14" y="11" width="1" height="1" fill="#fffafb"/>
<rect x="15" y="11" width="1" height="1" fill="#a597ff"/>
<rect x="16" y="11" width="1" height="1" fill="#6d65fc"/>
<rect x="17" y="11" width="1" height="1" fill="#f8ebff"/>
<rect x="18" y="11" width="1" height="1" fill="#f3f3fe"/>
<rect x="19" y="11" width="1" height="1" fill="#4f44ff"/>
<rect x="20" y="11" width="1" height="1" fill="#6c64ff"/>
<rect x="21" y="11" width="1" height="1" fill="#6c62ff"/>
<rect x="22" y="11" width="1" height="1" fill="#b5a7ff"/>
<rect x="23" y="11" width="1" height="1" fill="#aba7ff"/>
<rect x="24" y="11" width="1" height="1" fill="#594eff"/>
<rect x="25" y="11" width="1" height="1" fill="#4e41fd" fill-opacity="0.035"/>
<rect x="9" y="12" width="1" height="1" fill="#5348fe"/>
<rect x="10" y="12" width="1" height="1" fill="#7b6ffe"/>
<rect x="11" y="12" width="1" height="1" fill="#8c7cfe"/>
<rect x="12" y="12" width="1" height="1" fill="#8775fe"/>
<rect x="13" y="12" width="1" height="1" fill="#5042fd"/>
<rect x="14" y="12" width="1" height="1" fill="#bfbcff"/>
<rect x="15" y="12" width="1" height="1" fill="#eae9ff"/>
<rect x="16" y="12" width="1" height="1" fill="#e7e9fe"/>
<rect x="17" y="12" width="1" height="1" fill="#fbfaff"/>
<rect x="18" y="12" width="1" height="1" fill="#b6b0ff"/>
<rect x="19" y="12" width="1" height="1" fill="#5a48ff"/>
<rect x="20" y="12" width="1" height="1" fill="#e5dcff"/>
<rect x="21" y="12" width="1" height="1" fill="#f9f7ff"/>
<rect x="22" y="12" width="1" height="1" fill="#fdfdff"/>
<rect x="23" y="12" width="1" height="1" fill="#756cff"/>
<rect x="24" y="12" width="1" height="1" fill="#5245fe" fill-opacity="0.278"/>
<rect x="25" y="12" width="1" height="1" fill="#4637fc" fill-opacity="0.012"/>
<rect x="0" y="13" width="1" height="1" fill="#4637fc" fill-opacity="0.043"/>
<rect x="1" y="13" width="1" height="1" fill="#4637fc" fill-opacity="0.008"/>
<rect x="3" y="13" width="1" height="1" fill="#4637fc" fill-opacity="0.008"/>
<rect x="8" y="13" width="1" height="1" fill="#5d51fe" fill-opacity="0.365"/>
<rect x="9" y="13" width="1" height="1" fill="#584efe"/>
<rect x="10" y="13" width="1" height="1" fill="#8676fe"/>
<rect x="11" y="13" width="1" height="1" fill="#907afe"/>
<rect x="12" y="13" width="1" height="1" fill="#9482ff"/>
<rect x="13" y="13" width="1" height="1" fill="#6352fd"/>
<rect x="14" y="13" width="1" height="1" fill="#4237f9"/>
<rect x="15" y="13" width="1" height="1" fill="#4438f9"/>
<rect x="16" y="13" width="1" height="1" fill="#4737ff"/>
<rect x="17" y="13" width="1" height="1" fill="#3f31fc"/>
<rect x="18" y="13" width="1" height="1" fill="#3f37ff"/>
<rect x="19" y="13" width="1" height="1" fill="#a89bfe"/>
<rect x="20" y="13" width="1" height="1" fill="#f6f6ff"/>
<rect x="21" y="13" width="1" height="1" fill="#f7f5ff"/>
<rect x="22" y="13" width="1" height="1" fill="#7f72ff"/>
<rect x="23" y="13" width="1" height="1" fill="#5348fd" fill-opacity="0.604"/>
<rect x="0" y="14" width="1" height="1" fill="#4337ff"/>
<rect x="1" y="14" width="1" height="1" fill="#423bfa"/>
<rect x="2" y="14" width="1" height="1" fill="#4532ff"/>
<rect x="3" y="14" width="1" height="1" fill="#4637fc" fill-opacity="0.349"/>
<rect x="4" y="14" width="1" height="1" fill="#4637fc" fill-opacity="0.216"/>
<rect x="5" y="14" width="1" height="1" fill="#4738fc" fill-opacity="0.129"/>
<rect x="6" y="14" width="1" height="1" fill="#4637fc" fill-opacity="0.012"/>
<rect x="7" y="14" width="1" height="1" fill="#5d51fe" fill-opacity="0.259"/>
<rect x="8" y="14" width="1" height="1" fill="#5a4efe"/>
<rect x="9" y="14" width="1" height="1" fill="#dcda33"/>
<rect x="10" y="14" width="1" height="1" fill="#5649ff"/>
<rect x="11" y="14" width="1" height="1" fill="#7261fd"/>
<rect x="12" y="14" width="1" height="1" fill="#826dfe"/>
<rect x="13" y="14" width="1" height="1" fill="#684aff"/>
<rect x="14" y="14" width="1" height="1" fill="#674bff"/>
<rect x="15" y="14" width="1" height="1" fill="#5348fd"/>
<rect x="16" y="14" width="1" height="1" fill="#8a86ff"/>
<rect x="17" y="14" width="1" height="1" fill="#b8b1fb"/>
<rect x="18" y="14" width="1" height="1" fill="#c7c0fe"/>
<rect x="19" y="14" width="1" height="1" fill="#e1deff"/>
<rect x="20" y="14" width="1" height="1" fill="#f3ebff"/>
<rect x="21" y="14" width="1" height="1" fill="#7066fc"/>
<rect x="22" y="14" width="1" height="1" fill="#5245fd" fill-opacity="0.624"/>
<rect x="25" y="14" width="1" height="1" fill="#f91ef8" fill-opacity="0.039"/>
<rect x="0" y="15" width="1" height="1" fill="#4d43ff"/>
<rect x="1" y="15" width="1" height="1" fill="#b7b9fa"/>
<rect x="2" y="15" width="1" height="1" fill="#c1befc"/>
<rect x="3" y="15" width="1" height="1" fill="#4033fc"/>
<rect x="4" y="15" width="1" height="1" fill="#4a40fb"/>
<rect x="5" y="15" width="1" height="1" fill="#5146ff"/>
<rect x="6" y="15" width="1" height="1" fill="#4b3bff"/>
<rect x="7" y="15" width="1" height="1" fill="#5546fe"/>
<rect x="8" y="15" width="1" height="1" fill="#564bff"/>
<rect x="9" y="15" width="1" height="1" fill="#fffe04"/>
<rect x="10" y="15" width="1" height="1" fill="#ffff00"/>
<rect x="11" y="15" width="1" height="1" fill="#5548ff"/>
<rect x="12" y="15" width="1" height="1" fill="#664dfe"/>
<rect x="13" y="15" width="1" height="1" fill="#725aff"/>
<rect x="14" y="15" width="1" height="1" fill="#5f41ff"/>
<rect x="15" y="15" width="1" height="1" fill="#4e2efe"/>
<rect x="16" y="15" width="1" height="1" fill="#523cfe"/>
<rect x="17" y="15" width="1" height="1" fill="#5245ff"/>
<rect x="18" y="15" width="1" height="1" fill="#4e41ff" fill-opacity="0.937"/>
<rect x="19" y="15" width="1" height="1" fill="#5042ff" fill-opacity="0.945"/>
<rect x="20" y="15" width="1" height="1" fill="#5145ff" fill-opacity="0.965"/>
<rect x="21" y="15" width="1" height="1" fill="#5347ff" fill-opacity="0.612"/>
<rect x="25" y="15" width="1" height="1" fill="#f91ef8" fill-opacity="0.008"/>
<rect x="0" y="16" width="1" height="1" fill="#3830fd"/>
<rect x="1" y="16" width="1" height="1" fill="#d0cffe"/>
<rect x="2" y="16" width="1" height="1" fill="#f3efff"/>
<rect x="3" y="16" width="1" height="1" fill="#f9fdff"/>
<rect x="4" y="16" width="1" height="1" fill="#f6f8fc"/>
<rect x="5" y="16" width="1" height="1" fill="#fefdff"/>
<rect x="6" y="16" width="1" height="1" fill="#fcfcfd"/>
<rect x="7" y="16" width="1" height="1" fill="#cbc8fe"/>
<rect x="8" y="16" width="1" height="1" fill="#b4b2fe"/>
<rect x="9" y="16" width="1" height="1" fill="#4f45fe"/>
<rect x="10" y="16" width="1" height="1" fill="#ffb700"/>
<rect x="11" y="16" width="1" height="1" fill="#ffb402"/>
<rect x="12" y="16" width="1" height="1" fill="#463ffa"/>
<rect x="13" y="16" width="1" height="1" fill="#5a46ff"/>
<rect x="14" y="16" width="1" height="1" fill="#644bff"/>
<rect x="15" y="16" width="1" height="1" fill="#5336ff"/>
<rect x="16" y="16" width="1" height="1" fill="#5130ff"/>
<rect x="17" y="16" width="1" height="1" fill="#534aff"/>
<rect x="18" y="16" width="1" height="1" fill="#4140fb" fill-opacity="0.498"/>
<rect x="19" y="16" width="1" height="1" fill="#443cfb" fill-opacity="0.263"/>
<rect x="20" y="16" width="1" height="1" fill="#195ef3" fill-opacity="0.012"/>
<rect x="25" y="16" width="1" height="1" fill="#f91ef8" fill-opacity="0.004"/>
<rect x="0" y="17" width="1" height="1" fill="#483cff"/>
<rect x="1" y="17" width="1" height="1" fill="#e8e9fd"/>
<rect x="2" y="17" width="1" height="1" fill="#fafaff"/>
<rect x="3" y="17" width="1" height="1" fill="#fcfff6"/>
<rect x="4" y="17" width="1" height="1" fill="#ffffff"/>
<rect x="5" y="17" width="1" height="1" fill="#fcfffc"/>
<rect x="6" y="17" width="1" height="1" fill="#ffffff"/>
<rect x="7" y="17" width="1" height="1" fill="#fffeff"/>
<rect x="8" y="17" width="1" height="1" fill="#f2f1ff"/>
<rect x="9" y="17" width="1" height="1" fill="#d4cffd"/>
<rect x="10" y="17" width="1" height="1" fill="#5247fe"/>
<rect x="11" y="17" width="1" height="1" fill="#fd6602"/>
<rect x="12" y="17" width="1" height="1" fill="#fb5901"/>
<rect x="13" y="17" width="1" height="1" fill="#4c42f9"/>
<rect x="14" y="17" width="1" height="1" fill="#5a3bff"/>
<rect x="15" y="17" width="1" height="1" fill="#6b4fff"/>
<rect x="16" y="17" width="1" height="1" fill="#5d3eff"/>
<rect x="17" y="17" width="1" height="1" fill="#5440ff"/>
<rect x="18" y="17" width="1" height="1" fill="#4b4afe" fill-opacity="0.957"/>
<rect x="19" y="17" width="1" height="1" fill="#0160f0" fill-opacity="0.004"/>
<rect x="0" y="18" width="1" height="1" fill="#4d41ff" fill-opacity="0.996"/>
<rect x="1" y="18" width="1" height="1" fill="#9088fe"/>
<rect x="2" y="18" width="1" height="1" fill="#d7d4fe"/>
<rect x="3" y="18" width="1" height="1" fill="#f5f4ff"/>
<rect x="4" y="18" width="1" height="1" fill="#ffffff"/>
<rect x="5" y="18" width="1" height="1" fill="#f7feff"/>
<rect x="6" y="18" width="1" height="1" fill="#fffff9"/>
<rect x="7" y="18" width="1" height="1" fill="#fffaff"/>
<rect x="8" y="18" width="1" height="1" fill="#fefcff"/>
<rect x="9" y="18" width="1" height="1" fill="#dbd8ff"/>
<rect x="10" y="18" width="1" height="1" fill="#aca5fe"/>
<rect x="11" y="18" width="1" height="1" fill="#5042ff"/>
<rect x="12" y="18" width="1" height="1" fill="#d74704"/>
<rect x="13" y="18" width="1" height="1" fill="#d44603"/>
<rect x="14" y="18" width="1" height="1" fill="#5248fd"/>
<rect x="15" y="18" width="1" height="1" fill="#5736fe"/>
<rect x="16" y="18" width="1" height="1" fill="#5d41fd"/>
<rect x="17" y="18" width="1" height="1" fill="#4527fb"/>
<rect x="18" y="18" width="1" height="1" fill="#473dff"/>
<rect x="0" y="19" width="1" height="1" fill="#4637fc" fill-opacity="0.165"/>
<rect x="1" y="19" width="1" height="1" fill="#5348ff"/>
<rect x="2" y="19" width="1" height="1" fill="#5145fc"/>
<rect x="3" y="19" width="1" height="1" fill="#463cfd"/>
<rect x="4" y="19" width="1" height="1" fill="#4b41fe"/>
<rect x="5" y="19" width="1" height="1" fill="#4b44fc"/>
<rect x="6" y="19" width="1" height="1" fill="#5246ff"/>
<rect x="7" y="19" width="1" height="1" fill="#5448ff"/>
<rect x="8" y="19" width="1" height="1" fill="#5449ff"/>
<rect x="9" y="19" width="1" height="1" fill="#5448ff"/>
<rect x="10" y="19" width="1" height="1" fill="#5146ff"/>
<rect x="11" y="19" width="1" height="1" fill="#4d40ff"/>
<rect x="12" y="19" width="1" height="1" fill="#463aff"/>
<rect x="13" y="19" width="1" height="1" fill="#ab3d0a"/>
<rect x="14" y="19" width="1" height="1" fill="#ab440c"/>
<rect x="15" y="19" width="1" height="1" fill="#453aff"/>
<rect x="16" y="19" width="1" height="1" fill="#4131f6"/>
<rect x="17" y="19" width="1" height="1" fill="#3e3af7"/>
<rect x="18" y="19" width="1" height="1" fill="#4238ff"/>
<rect x="11" y="20" width="1" height="1" fill="#c80000" fill-opacity="0.035"/>
<rect x="12" y="20" width="1" height="1" fill="#c80000" fill-opacity="0.035"/>
<rect x="13" y="20" width="1" height="1" fill="#c80000" fill-opacity="0.035"/>
<rect x="14" y="20" width="1" height="1" fill="#c80000" fill-opacity="0.035"/>
<rect x="15" y="20" width="1" height="1" fill="#c80000" fill-opacity="0.035"/>
<rect x="16" y="20" width="1" height="1" fill="#c80000" fill-opacity="0.035"/>
</svg>