<?xml version="1.0" encoding="UTF-8" standalone="no"?>
<svg xmlns="http://www.w3.org/2000/svg" width="26" height="21" shape-rendering="crispEdges">
<rect x="23" y="1" width="1" height="1" fill="#f61cf7" fill-opacity="0.098"/>
<rect x="24" y="1" width="1" height="1" fill="#ea1ad8" fill-opacity="0.09"/>
<rect x="22" y="2" width="1" height="1" fill="#f11af8" fill-opacity="0.333"/>
<rect x="23" y="2" width="1" height="1" fill="#cb1aee"/>
<rect x="24" y="2" width="1" height="1" fill="#cd17f0"/>
<rect x="25" y="2" width="1" height="1" fill="#f71df8" fill-opacity="0.078"/>
<rect x="10" y="3" width="1" height="1" fill="#c50ff5" fill-opacity="0.988"/>
<rect x="11" y="3" width="1" height="1" fill="#da0bf3"/>
<rect x="12" y="3" width="1" height="1" fill="#d90dfe"/>
<rect x="13" y="3" width="1" height="1" fill="#d114f3" fill-opacity="0.957"/>
<rect x="21" y="3" width="1" height="1" fill="#e915fb" fill-opacity="0.678"/>
<rect x="22" y="3" width="1" height="1" fill="#c81bf1"/>
<rect x="23" y="3" width="1" height="1" fill="#f090f9"/>
<rect x="24" y="3" width="1" height="1" fill="#f217ff"/>
<rect x="25" y="3" width="1" height="1" fill="#f71df8" fill-opacity="0.063"/>
<rect x="9" y="4" width="1" height="1" fill="#f91ef8" fill-opacity="0.008"/>
<rect x="10" y="4" width="1" height="1" fill="#dc12f7"/>
<rect x="11" y="4" width="1" height="1" fill="#d758fb"/>
<rect x="12" y="4" width="1" height="1" fill="#d866fd"/>
<rect x="13" y="4" width="1" height="1" fill="#d133fa"/>
<rect x="14" y="4" width="1" height="1" fill="#e118fc"/>
<rect x="15" y="4" width="1" height="1" fill="#e415f9" fill-opacity="0.992"/>
<rect x="19" y="4" width="1" height="1" fill="#f91ef8" fill-opacity="0.004"/>
<rect x="20" y="4" width="1" height="1" fill="#ea18fb" fill-opacity="0.714"/>
<rect x="21" y="4" width="1" height="1" fill="#da20f7"/>
<rect x="22" y="4" width="1" height="1" fill="#fef1f3"/>
<rect x="23" y="4" width="1" height="1" fill="#f6b9fb"/>
<rect x="24" y="4" width="1" height="1" fill="#ca0bfd"/>
<rect x="25" y="4" width="1" height="1" fill="#f91ef8" fill-opacity="0.008"/>
<rect x="3" y="5" width="1" height="1" fill="#c70dff" fill-opacity="0.345"/>
<rect x="4" y="5" width="1" height="1" fill="#de13f9"/>
<rect x="5" y="5" width="1" height="1" fill="#c70dff" fill-opacity="0.161"/>
<rect x="6" y="5" width="1" height="1" fill="#c70dff" fill-opacity="0.027"/>
<rect x="9" y="5" width="1" height="1" fill="#f91ef8" fill-opacity="0.008"/>
<rect x="10" y="5" width="1" height="1" fill="#c80dff"/>
<rect x="11" y="5" width="1" height="1" fill="#d158fd"/>
<rect x="12" y="5" width="1" height="1" fill="#dc99f9"/>
<rect x="13" y="5" width="1" height="1" fill="#e59cfb"/>
<rect x="14" y="5" width="1" height="1" fill="#cb32f1"/>
<rect x="15" y="5" width="1" height="1" fill="#dc19f4"/>
<rect x="16" y="5" width="1" height="1" fill="#f418fb"/>
<rect x="17" y="5" width="1" height="1" fill="#f61df8" fill-opacity="0.114"/>
<rect x="18" y="5" width="1" height="1" fill="#e719f5" fill-opacity="0.596"/>
<rect x="19" y="5" width="1" height="1" fill="#e012ff"/>
<rect x="20" y="5" width="1" height="1" fill="#f146ff"/>
<rect x="21" y="5" width="1" height="1" fill="#fdedf6"/>
<rect x="22" y="5" width="1" height="1" fill="#ffffff"/>
<rect x="23" y="5" width="1" height="1" fill="#cf2dfe"/>
<rect x="24" y="5" width="1" height="1" fill="#e115f8" fill-opacity="0.698"/>
<rect x="2" y="6" width="1" height="1" fill="#c70dff" fill-opacity="0.031"/>
<rect x="3" y="6" width="1" height="1" fill="#de14f6"/>
<rect x="4" y="6" width="1" height="1" fill="#eda4fb"/>
<rect x="5" y="6" width="1" height="1" fill="#e918fa"/>
<rect x="6" y="6" width="1" height="1" fill="#c70dff" fill-opacity="0.071"/>
<rect x="9" y="6" width="1" height="1" fill="#f91ef8" fill-opacity="0.008"/>
<rect x="10" y="6" width="1" height="1" fill="#e212fd"/>
<rect x="11" y="6" width="1" height="1" fill="#d66af7"/>
<rect x="12" y="6" width="1" height="1" fill="#f4a6f9"/>
<rect x="13" y="6" width="1" height="1" fill="#e6a5f8"/>
<rect x="14" y="6" width="1" height="1" fill="#cb32ee"/>
<rect x="15" y="6" width="1" height="1" fill="#d71af0"/>
<rect x="16" y="6" width="1" height="1" fill="#e211fc"/>
<rect x="17" y="6" width="1" height="1" fill="#ef1ffe"/>
<rect x="18" y="6" width="1" height="1" fill="#dd55fe"/>
<rect x="19" y="6" width="1" height="1" fill="#f7dbf2"/>
<rect x="20" y="6" width="1" height="1" fill="#ffedf3"/>
<rect x="21" y="6" width="1" height="1" fill="#f0e5ff"/>
<rect x="22" y="6" width="1" height="1" fill="#fc6fff"/>
<rect x="23" y="6" width="1" height="1" fill="#ce10f9"/>
<rect x="24" y="6" width="1" height="1" fill="#e91bf8" fill-opacity="0.133"/>
<rect x="3" y="7" width="1" height="1" fill="#c70dff" fill-opacity="0.282"/>
<rect x="4" y="7" width="1" height="1" fill="#f01bf9"/>
<rect x="5" y="7" width="1" height="1" fill="#c70dff" fill-opacity="0.184"/>
<rect x="6" y="7" width="1" height="1" fill="#c70dff" fill-opacity="0.02"/>
<rect x="7" y="7" width="1" height="1" fill="#c70dff" fill-opacity="0.031"/>
<rect x="9" y="7" width="1" height="1" fill="#f91ef8" fill-opacity="0.008"/>
<rect x="10" y="7" width="1" height="1" fill="#d20df8"/>
<rect x="11" y="7" width="1" height="1" fill="#d85bfe"/>
<rect x="12" y="7" width="1" height="1" fill="#e3aaf6"/>
<rect x="13" y="7" width="1" height="1" fill="#da33f7"/>
<rect x="14" y="7" width="1" height="1" fill="#e017fc"/>
<rect x="15" y="7" width="1" height="1" fill="#ea46fc"/>
<rect x="16" y="7" width="1" height="1" fill="#eaaeff"/>
<rect x="17" y="7" width="1" height="1" fill="#f5e7ff"/>
<rect x="18" y="7" width="1" height="1" fill="#f2fdf6"/>
<rect x="19" y="7" width="1" height="1" fill="#fffffd"/>
<rect x="20" y="7" width="1" height="1" fill="#f7dcff"/>
<rect x="21" y="7" width="1" height="1" fill="#d962fa"/>
<rect x="22" y="7" width="1" height="1" fill="#cc0cf1"/>
<rect x="23" y="7" width="1" height="1" fill="#da22ff"/>
<rect x="24" y="7" width="1" height="1" fill="#cb1dfc"/>
<rect x="25" y="7" width="1" height="1" fill="#f61cf8" fill-opacity="0.102"/>
<rect x="1" y="8" width="1" height="1" fill="#c70dff" fill-opacity="0.157"/>
<rect x="2" y="8" width="1" height="1" fill="#e016f5"/>
<rect x="3" y="8" width="1" height="1" fill="#c70dff" fill-opacity="0.392"/>
<rect x="4" y="8" width="1" height="1" fill="#c70dff" fill-opacity="0.137"/>
<rect x="5" y="8" width="1" height="1" fill="#c70dff" fill-opacity="0.278"/>
<rect x="6" y="8" width="1" height="1" fill="#da11f9"/>
<rect x="7" y="8" width="1" height="1" fill="#c70dff" fill-opacity="0.259"/>
<rect x="8" y="8" width="1" height="1" fill="#c70dff" fill-opacity="0.055"/>
<rect x="9" y="8" width="1" height="1" fill="#f91ef8" fill-opacity="0.016"/>
<rect x="10" y="8" width="1" height="1" fill="#d60fff"/>
<rect x="11" y="8" width="1" height="1" fill="#d04ef8"/>
<rect x="12" y="8" width="1" height="1" fill="#d67dfc"/>
<rect x="13" y="8" width="1" height="1" fill="#d710fe"/>
<rect x="14" y="8" width="1" height="1" fill="#e9a9fb"/>
<rect x="15" y="8" width="1" height="1" fill="#edd9fd"/>
<rect x="16" y="8" width="1" height="1" fill="#f6f9ff"/>
<rect x="17" y="8" width="1" height="1" fill="#ffffff"/>
<rect x="18" y="8" width="1" height="1" fill="#f2f0f1"/>
<rect x="19" y="8" width="1" height="1" fill="#e98bf9"/>
<rect x="20" y="8" width="1" height="1" fill="#d61efe"/>
<rect x="21" y="8" width="1" height="1" fill="#e52ffb"/>
<rect x="22" y="8" width="1" height="1" fill="#ffb8fd"/>
<rect x="23" y="8" width="1" height="1" fill="#eea3fa"/>
<rect x="24" y="8" width="1" height="1" fill="#ef16fb"/>
<rect x="25" y="8" width="1" height="1" fill="#f91ef8" fill-opacity="0.004"/>
<rect x="1" y="9" width="1" height="1" fill="#e417fb"/>
<rect x="2" y="9" width="1" height="1" fill="#eda6fd"/>
<rect x="3" y="9" width="1" height="1" fill="#df15fa"/>
<rect x="4" y="9" width="1" height="1" fill="#c70dff" fill-opacity="0.059"/>
<rect x="5" y="9" width="1" height="1" fill="#e116fb"/>
<rect x="6" y="9" width="1" height="1" fill="#ea93fa"/>
<rect x="7" y="9" width="1" height="1" fill="#cf11fb"/>
<rect x="8" y="9" width="1" height="1" fill="#c70dff" fill-opacity="0.09"/>
<rect x="9" y="9" width="1" height="1" fill="#f91ef8" fill-opacity="0.031"/>
<rect x="10" y="9" width="1" height="1" fill="#c60aef"/>
<rect x="11" y="9" width="1" height="1" fill="#da77fd"/>
<rect x="12" y="9" width="1" height="1" fill="#e05ef6"/>
<rect x="13" y="9" width="1" height="1" fill="#e54af5"/>
<rect x="14" y="9" width="1" height="1" fill="#fdf6ff"/>
<rect x="15" y="9" width="1" height="1" fill="#fef9ff"/>
<rect x="16" y="9" width="1" height="1" fill="#ff54fe"/>
<rect x="17" y="9" width="1" height="1" fill="#f849fd"/>
<rect x="18" y="9" width="1" height="1" fill="#eb37fc"/>
<rect x="19" y="9" width="1" height="1" fill="#da0efd"/>
<rect x="20" y="9" width="1" height="1" fill="#f152ff"/>
<rect x="21" y="9" width="1" height="1" fill="#f5efff"/>
<rect x="22" y="9" width="1" height="1" fill="#ffffff"/>
<rect x="23" y="9" width="1" height="1" fill="#d922f7"/>
<rect x="24" y="9" width="1" height="1" fill="#f01bf9" fill-opacity="0.314"/>
<rect x="1" y="10" width="1" height="1" fill="#c70dff" fill-opacity="0.239"/>
<rect x="2" y="10" width="1" height="1" fill="#e518fa"/>
<rect x="3" y="10" width="1" height="1" fill="#c70dff" fill-opacity="0.196"/>
<rect x="4" y="10" width="1" height="1" fill="#c70dff" fill-opacity="0.004"/>
<rect x="5" y="10" width="1" height="1" fill="#c70dff" fill-opacity="0.329"/>
<rect x="6" y="10" width="1" height="1" fill="#cf0efe"/>
<rect x="7" y="10" width="1" height="1" fill="#c70dff" fill-opacity="0.337"/>
<rect x="8" y="10" width="1" height="1" fill="#c70dff" fill-opacity="0.039"/>
<rect x="9" y="10" width="1" height="1" fill="#f91ef8" fill-opacity="0.016"/>
<rect x="10" y="10" width="1" height="1" fill="#ce0cf3"/>
<rect x="11" y="10" width="1" height="1" fill="#d989ee"/>
<rect x="12" y="10" width="1" height="1" fill="#e341f7"/>
<rect x="13" y="10" width="1" height="1" fill="#f493fc"/>
<rect x="14" y="10" width="1" height="1" fill="#fffeff"/>
<rect x="15" y="10" width="1" height="1" fill="#febdfe"/>
<rect x="16" y="10" width="1" height="1" fill="#fef8ff"/>
<rect x="17" y="10" width="1" height="1" fill="#f5d6fe"/>
<rect x="18" y="10" width="1" height="1" fill="#ee3dfe"/>
<rect x="19" y="10" width="1" height="1" fill="#d010f0"/>
<rect x="20" y="10" width="1" height="1" fill="#f7edff"/>
<rect x="21" y="10" width="1" height="1" fill="#fbf3ff"/>
<rect x="22" y="10" width="1" height="1" fill="#f41afd"/>
<rect x="23" y="10" width="1" height="1" fill="#d70cff"/>
<rect x="24" y="10" width="1" height="1" fill="#f31cf9" fill-opacity="0.118"/>
<rect x="2" y="11" width="1" height="1" fill="#c70dff" fill-opacity="0.063"/>
<rect x="3" y="11" width="1" height="1" fill="#c70dff" fill-opacity="0.024"/>
<rect x="9" y="11" width="1" height="1" fill="#cc0ffe" fill-opacity="0.212"/>
<rect x="10" y="11" width="1" height="1" fill="#ce11f6"/>
<rect x="11" y="11" width="1" height="1" fill="#c45ef8"/>
<rect x="12" y="11" width="1" height="1" fill="#dc57f1"/>
<rect x="13" y="11" width="1" height="1" fill="#df47f2"/>
<rect x="14" y="11" width="1" height="1" fill="#fef6fe"/>
<rect x="15" y="11" width="1" height="1" fill="#fe7cfe"/>
<rect x="16" y="11" width="1" height="1" fill="#f53bfc"/>
<rect x="17" y="11" width="1" height="1" fill="#fff4ff"/>
<rect x="18" y="11" width="1" height="1" fill="#fffaf8"/>
<rect x="19" y="11" width="1" height="1" fill="#e213ff"/>
<rect x="20" y="11" width="1" height="1" fill="#cd2eff"/>
<rect x="21" y="11" width="1" height="1" fill="#e033f8"/>
<rect x="22" y="11" width="1" height="1" fill="#f489fb"/>
<rect x="23" y="11" width="1" height="1" fill="#e963fe"/>
<rect x="24" y="11" width="1" height="1" fill="#cb12f0"/>
<rect x="25" y="11" width="1" height="1" fill="#f91ef8" fill-opacity="0.016"/>
<rect x="8" y="12" width="1" height="1" fill="#c70dff" fill-opacity="0.082"/>
<rect x="9" y="12" width="1" height="1" fill="#ca0cfe"/>
<rect x="10" y="12" width="1" height="1" fill="#d43bf5"/>
<rect x="11" y="12" width="1" height="1" fill="#d151f2"/>
<rect x="12" y="12" width="1" height="1" fill="#d578ef"/>
<rect x="13" y="12" width="1" height="1" fill="#d322f2"/>
<rect x="14" y="12" width="1" height="1" fill="#f69dfd"/>
<rect x="15" y="12" width="1" height="1" fill="#fcf1fe"/>
<rect x="16" y="12" width="1" height="1" fill="#faeafe"/>
<rect x="17" y="12" width="1" height="1" fill="#faf5fc"/>
<rect x="18" y="12" width="1" height="1" fill="#ee7bff"/>
<rect x="19" y="12" width="1" height="1" fill="#c714f0"/>
<rect x="20" y="12" width="1" height="1" fill="#fec7f8"/>
<rect x="21" y="12" width="1" height="1" fill="#f5d7ff"/>
<rect x="22" y="12" width="1" height="1" fill="#fbebff"/>
<rect x="23" y="12" width="1" height="1" fill="#ef27fd"/>
<rect x="24" y="12" width="1" height="1" fill="#f11cf9" fill-opacity="0.247"/>
<rect x="8" y="13" width="1" height="1" fill="#c70dff" fill-opacity="0.412"/>
<rect x="9" y="13" width="1" height="1" fill="#db11f6"/>
<rect x="10" y="13" width="1" height="1" fill="#cb61f9"/>
<rect x="11" y="13" width="1" height="1" fill="#c755f4"/>
<rect x="12" y="13" width="1" height="1" fill="#d26cec"/>
<rect x="13" y="13" width="1" height="1" fill="#c52af8"/>
<rect x="14" y="13" width="1" height="1" fill="#bd0ef3"/>
<rect x="15" y="13" width="1" height="1" fill="#d013fa"/>
<rect x="16" y="13" width="1" height="1" fill="#e017f8"/>
<rect x="17" y="13" width="1" height="1" fill="#ec1cf9"/>
<rect x="18" y="13" width="1" height="1" fill="#e71cfb"/>
<rect x="19" y="13" width="1" height="1" fill="#eb97fb"/>
<rect x="20" y="13" width="1" height="1" fill="#fbedff"/>
<rect x="21" y="13" width="1" height="1" fill="#fdf3fd"/>
<rect x="22" y="13" width="1" height="1" fill="#e642fd"/>
<rect x="23" y="13" width="1" height="1" fill="#eb17f9" fill-opacity="0.698"/>
<rect x="0" y="14" width="1" height="1" fill="#f219f7"/>
<rect x="1" y="14" width="1" height="1" fill="#d115f3"/>
<rect x="2" y="14" width="1" height="1" fill="#e616f4"/>
<rect x="3" y="14" width="1" height="1" fill="#c70dff" fill-opacity="0.278"/>
<rect x="4" y="14" width="1" height="1" fill="#c70dff" fill-opacity="0.059"/>
<rect x="5" y="14" width="1" height="1" fill="#f91ef8" fill-opacity="0.008"/>
<rect x="7" y="14" width="1" height="1" fill="#c70dff" fill-opacity="0.2"/>
<rect x="8" y="14" width="1" height="1" fill="#e616f9"/>
<rect x="9" y="14" width="1" height="1" fill="#f9e718"/>
<rect x="10" y="14" width="1" height="1" fill="#f41cf9"/>
<rect x="11" y="14" width="1" height="1" fill="#cd5ef0"/>
<rect x="12" y="14" width="1" height="1" fill="#d360f3"/>
<rect x="13" y="14" width="1" height="1" fill="#ce42f1"/>
<rect x="14" y="14" width="1" height="1" fill="#c940ee"/>
<rect x="15" y="14" width="1" height="1" fill="#e91cf6"/>
<rect x="16" y="14" width="1" height="1" fill="#ee63fb"/>
<rect x="17" y="14" width="1" height="1" fill="#f4b9fc"/>
<rect x="18" y="14" width="1" height="1" fill="#f3c2fd"/>
<rect x="19" y="14" width="1" height="1" fill="#fee9fe"/>
<rect x="20" y="14" width="1" height="1" fill="#fef2fa"/>
<rect x="21" y="14" width="1" height="1" fill="#e838fc"/>
<rect x="22" y="14" width="1" height="1" fill="#f419f9" fill-opacity="0.643"/>
<rect x="25" y="14" width="1" height="1" fill="#b00909" fill-opacity="0.012"/>
<rect x="0" y="15" width="1" height="1" fill="#e718f6"/>
<rect x="1" y="15" width="1" height="1" fill="#ee7cfc"/>
<rect x="2" y="15" width="1" height="1" fill="#e78afd"/>
<rect x="3" y="15" width="1" height="1" fill="#df14fb"/>
<rect x="4" y="15" width="1" height="1" fill="#dc0dfe"/>
<rect x="5" y="15" width="1" height="1" fill="#c60eff"/>
<rect x="6" y="15" width="1" height="1" fill="#c507e8"/>
<rect x="7" y="15" width="1" height="1" fill="#c30aed"/>
<rect x="8" y="15" width="1" height="1" fill="#ec1bf9"/>
<rect x="9" y="15" width="1" height="1" fill="#fdfc05"/>
<rect x="10" y="15" width="1" height="1" fill="#fefe00"/>
<rect x="11" y="15" width="1" height="1" fill="#ed13f8"/>
<rect x="12" y="15" width="1" height="1" fill="#c937ee"/>
<rect x="13" y="15" width="1" height="1" fill="#d14af2"/>
<rect x="14" y="15" width="1" height="1" fill="#cc34ef"/>
<rect x="15" y="15" width="1" height="1" fill="#c521f3"/>
<rect x="16" y="15" width="1" height="1" fill="#cd17f7"/>
<rect x="17" y="15" width="1" height="1" fill="#ed1af6"/>
<rect x="18" y="15" width="1" height="1" fill="#e918fa" fill-opacity="0.929"/>
<rect x="19" y="15" width="1" height="1" fill="#f51cf8" fill-opacity="0.925"/>
<rect x="20" y="15" width="1" height="1" fill="#dd15fc" fill-opacity="0.973"/>
<rect x="21" y="15" width="1" height="1" fill="#e919fa" fill-opacity="0.631"/>
<rect x="25" y="15" width="1" height="1" fill="#ec0101" fill-opacity="0.047"/>
<rect x="0" y="16" width="1" height="1" fill="#eb1ef4" fill-opacity="0.996"/>
<rect x="1" y="16" width="1" height="1" fill="#f2b9ff"/>
<rect x="2" y="16" width="1" height="1" fill="#fadbff"/>
<rect x="3" y="16" width="1" height="1" fill="#fbe5fd"/>
<rect x="4" y="16" width="1" height="1" fill="#fdeafd"/>
<rect x="5" y="16" width="1" height="1" fill="#ffebfe"/>
<rect x="6" y="16" width="1" height="1" fill="#fee6fe"/>
<rect x="7" y="16" width="1" height="1" fill="#fee0ff"/>
<rect x="8" y="16" width="1" height="1" fill="#f1c5fe"/>
<rect x="9" y="16" width="1" height="1" fill="#e526f8"/>
<rect x="10" y="16" width="1" height="1" fill="#ffac02"/>
<rect x="11" y="16" width="1" height="1" fill="#ff8e00"/>
<rect x="12" y="16" width="1" height="1" fill="#ed18fa"/>
<rect x="13" y="16" width="1" height="1" fill="#c62df2"/>
<rect x="14" y="16" width="1" height="1" fill="#cc36f3"/>
<rect x="15" y="16" width="1" height="1" fill="#c821f0"/>
<rect x="16" y="16" width="1" height="1" fill="#c218f6"/>
<rect x="17" y="16" width="1" height="1" fill="#d717fa"/>
<rect x="18" y="16" width="1" height="1" fill="#c70dff" fill-opacity="0.31"/>
<rect x="19" y="16" width="1" height="1" fill="#c70dff" fill-opacity="0.157"/>
<rect x="25" y="16" width="1" height="1" fill="#ff0000" fill-opacity="0.008"/>
<rect x="0" y="17" width="1" height="1" fill="#e414fc"/>
<rect x="1" y="17" width="1" height="1" fill="#fce3fe"/>
<rect x="2" y="17" width="1" height="1" fill="#ffedff"/>
<rect x="3" y="17" width="1" height="1" fill="#ffecff"/>
<rect x="4" y="17" width="1" height="1" fill="#ffeaff"/>
<rect x="5" y="17" width="1" height="1" fill="#ffe9ff"/>
<rect x="6" y="17" width="1" height="1" fill="#ffeaff"/>
<rect x="7" y="17" width="1" height="1" fill="#ffe9ff"/>
<rect x="8" y="17" width="1" height="1" fill="#ffe7ff"/>
<rect x="9" y="17" width="1" height="1" fill="#f6d0fd"/>
<rect x="10" y="17" width="1" height="1" fill="#e51bf9"/>
<rect x="11" y="17" width="1" height="1" fill="#fc500e"/>
<rect x="12" y="17" width="1" height="1" fill="#f74515"/>
<rect x="13" y="17" width="1" height="1" fill="#e018f7"/>
<rect x="14" y="17" width="1" height="1" fill="#c625f3"/>
<rect x="15" y="17" width="1" height="1" fill="#c924f6"/>
<rect x="16" y="17" width="1" height="1" fill="#c51df6"/>
<rect x="17" y="17" width="1" height="1" fill="#cf1cf4"/>
<rect x="18" y="17" width="1" height="1" fill="#d70ffd" fill-opacity="0.984"/>
<rect x="19" y="17" width="1" height="1" fill="#c70dff" fill-opacity="0.004"/>
<rect x="25" y="17" width="1" height="1" fill="#ab0404" fill-opacity="0.016"/>
<rect x="0" y="18" width="1" height="1" fill="#c913fe"/>
<rect x="1" y="18" width="1" height="1" fill="#eb52fb"/>
<rect x="2" y="18" width="1" height="1" fill="#f8c6fd"/>
<rect x="3" y="18" width="1" height="1" fill="#fddfff"/>
<rect x="4" y="18" width="1" height="1" fill="#fee6ff"/>
<rect x="5" y="18" width="1" height="1" fill="#ffe5ff"/>
<rect x="6" y="18" width="1" height="1" fill="#ffe6ff"/>
<rect x="7" y="18" width="1" height="1" fill="#fee6fe"/>
<rect x="8" y="18" width="1" height="1" fill="#ffe6fc"/>
<rect x="9" y="18" width="1" height="1" fill="#ffe6fe"/>
<rect x="10" y="18" width="1" height="1" fill="#ed94ff"/>
<rect x="11" y="18" width="1" height="1" fill="#ed18f7"/>
<rect x="12" y="18" width="1" height="1" fill="#da4d0b"/>
<rect x="13" y="18" width="1" height="1" fill="#ca2505"/>
<rect x="14" y="18" width="1" height="1" fill="#ea16fa"/>
<rect x="15" y="18" width="1" height="1" fill="#c416f4"/>
<rect x="16" y="18" width="1" height="1" fill="#c214f4"/>
<rect x="17" y="18" width="1" height="1" fill="#be0ef8"/>
<rect x="18" y="18" width="1" height="1" fill="#d90cf8"/>
<rect x="19" y="18" width="1" height="1" fill="#c70dff" fill-opacity="0.004"/>
<rect x="25" y="18" width="1" height="1" fill="#8f0505" fill-opacity="0.02"/>
<rect x="0" y="19" width="1" height="1" fill="#c70dff" fill-opacity="0.216"/>
<rect x="1" y="19" width="1" height="1" fill="#d50bf3"/>
<rect x="2" y="19" width="1" height="1" fill="#e10ef5"/>
<rect x="3" y="19" width="1" height="1" fill="#f51cf9"/>
<rect x="4" y="19" width="1" height="1" fill="#f019f9"/>
<rect x="5" y="19" width="1" height="1" fill="#e215fd"/>
<rect x="6" y="19" width="1" height="1" fill="#cf0afe"/>
<rect x="7" y="19" width="1" height="1" fill="#e111f6"/>
<rect x="8" y="19" width="1" height="1" fill="#d40df0"/>
<rect x="9" y="19" width="1" height="1" fill="#ef1af9"/>
<rect x="10" y="19" width="1" height="1" fill="#f61cf8"/>
<rect x="11" y="19" width="1" height="1" fill="#e417fa"/>
<rect x="12" y="19" width="1" height="1" fill="#f41af8"/>
<rect x="13" y="19" width="1" height="1" fill="#b1430d"/>
<rect x="14" y="19" width="1" height="1" fill="#a42108"/>
<rect x="15" y="19" width="1" height="1" fill="#e914f7"/>
<rect x="16" y="19" width="1" height="1" fill="#ef1afa"/>
<rect x="17" y="19" width="1" height="1" fill="#e515fc"/>
<rect x="18" y="19" width="1" height="1" fill="#ec13fb"/>
<rect x="11" y="20" width="1" height="1" fill="#e47300" fill-opacity="0.035"/>
<rect x="12" y="20" width="1" height="1" fill="#e47300" fill-opacity="0.035"/>
<rect x="13" y="20" width="1" height="1" fill="#e47300" fill-opacity="0.035"/>
<rect x="14" y="20" width="1" height="1" fill="#e47300" fill-opacity="0.035"/>
<rect x="15" y="20" width="1" height="1" fill="#e47300" fill-opacity="0.035"/>
<rect x="16" y="20" width="1" height="1" fill="#e47300" fill-opacity="0.035"/>
</svg>