<?xml version="1.0" encoding="UTF-8" standalone="no"?>
<svg xmlns="http://www.w3.org/2000/svg" width="26" height="21" shape-rendering="crispEdges">
<rect x="12" y="0" width="1" height="1" fill="#d00202" fill-opacity="0.459"/>
<rect x="13" y="0" width="1" height="1" fill="#d10202" fill-opacity="0.875"/>
<rect x="14" y="0" width="1" height="1" fill="#d10606"/>
<rect x="15" y="0" width="1" height="1" fill="#d10606"/>
<rect x="16" y="0" width="1" height="1" fill="#d30909"/>
<rect x="17" y="0" width="1" height="1" fill="#d51010"/>
<rect x="18" y="0" width="1" height="1" fill="#d40c0c"/>
<rect x="19" y="0" width="1" height="1" fill="#d30606"/>
<rect x="20" y="0" width="1" height="1" fill="#d20505"/>
<rect x="21" y="0" width="1" height="1" fill="#d10404"/>
<rect x="22" y="0" width="1" height="1" fill="#d30b0b"/>
<rect x="23" y="0" width="1" height="1" fill="#d20a0a"/>
<rect x="24" y="0" width="1" height="1" fill="#cf0403"/>
<rect x="11" y="1" width="1" height="1" fill="#d00202" fill-opacity="0.565"/>
<rect x="12" y="1" width="1" height="1" fill="#d31212"/>
<rect x="13" y="1" width="1" height="1" fill="#f1a9a9"/>
<rect x="14" y="1" width="1" height="1" fill="#f1a9a9"/>
<rect x="15" y="1" width="1" height="1" fill="#f6c9c9"/>
<rect x="16" y="1" width="1" height="1" fill="#f8dbdb"/>
<rect x="17" y="1" width="1" height="1" fill="#f8d6d6"/>
<rect x="18" y="1" width="1" height="1" fill="#fadddd"/>
<rect x="19" y="1" width="1" height="1" fill="#f9d6d6"/>
<rect x="20" y="1" width="1" height="1" fill="#f5c1c0"/>
<rect x="21" y="1" width="1" height="1" fill="#f2afaf"/>
<rect x="22" y="1" width="1" height="1" fill="#ea8887"/>
<rect x="23" y="1" width="1" height="1" fill="#d62020"/>
<rect x="24" y="1" width="1" height="1" fill="#d70505" fill-opacity="0.212"/>
<rect x="10" y="2" width="1" height="1" fill="#d00202" fill-opacity="0.569"/>
<rect x="11" y="2" width="1" height="1" fill="#d30b0b"/>
<rect x="12" y="2" width="1" height="1" fill="#f3c2c2"/>
<rect x="13" y="2" width="1" height="1" fill="#fae8e8"/>
<rect x="14" y="2" width="1" height="1" fill="#f9dede"/>
<rect x="15" y="2" width="1" height="1" fill="#fbe9e9"/>
<rect x="16" y="2" width="1" height="1" fill="#fefbfb"/>
<rect x="17" y="2" width="1" height="1" fill="#fffcfc"/>
<rect x="18" y="2" width="1" height="1" fill="#fceded"/>
<rect x="19" y="2" width="1" height="1" fill="#f2bbbb"/>
<rect x="20" y="2" width="1" height="1" fill="#f0b2b2"/>
<rect x="21" y="2" width="1" height="1" fill="#db4141"/>
<rect x="22" y="2" width="1" height="1" fill="#d20303" fill-opacity="0.796"/>
<rect x="23" y="2" width="1" height="1" fill="#d00202" fill-opacity="0.361"/>
<rect x="9" y="3" width="1" height="1" fill="#d00202" fill-opacity="0.549"/>
<rect x="10" y="3" width="1" height="1" fill="#d50b0a"/>
<rect x="11" y="3" width="1" height="1" fill="#f5bdbd"/>
<rect x="12" y="3" width="1" height="1" fill="#fdf3f3"/>
<rect x="13" y="3" width="1" height="1" fill="#fbeeee"/>
<rect x="14" y="3" width="1" height="1" fill="#fae8e8"/>
<rect x="15" y="3" width="1" height="1" fill="#f9e3e3"/>
<rect x="16" y="3" width="1" height="1" fill="#fae7e7"/>
<rect x="17" y="3" width="1" height="1" fill="#f2bebe"/>
<rect x="18" y="3" width="1" height="1" fill="#eda3a3"/>
<rect x="19" y="3" width="1" height="1" fill="#ea9292"/>
<rect x="20" y="3" width="1" height="1" fill="#d41a1a"/>
<rect x="21" y="3" width="1" height="1" fill="#d20303" fill-opacity="0.588"/>
<rect x="22" y="3" width="1" height="1" fill="#df0908" fill-opacity="0.247"/>
<rect x="23" y="3" width="1" height="1" fill="#df0908" fill-opacity="0.004"/>
<rect x="4" y="4" width="1" height="1" fill="#eb0404" fill-opacity="0.004"/>
<rect x="5" y="4" width="1" height="1" fill="#eb0404" fill-opacity="0.012"/>
<rect x="7" y="4" width="1" height="1" fill="#b00909" fill-opacity="0.043"/>
<rect x="8" y="4" width="1" height="1" fill="#ca0303" fill-opacity="0.478"/>
<rect x="9" y="4" width="1" height="1" fill="#d40b0b"/>
<rect x="10" y="4" width="1" height="1" fill="#f2a4a4"/>
<rect x="11" y="4" width="1" height="1" fill="#fdf2f2"/>
<rect x="12" y="4" width="1" height="1" fill="#faebeb"/>
<rect x="13" y="4" width="1" height="1" fill="#fae8e8"/>
<rect x="14" y="4" width="1" height="1" fill="#fae4e4"/>
<rect x="15" y="4" width="1" height="1" fill="#f5cdcd"/>
<rect x="16" y="4" width="1" height="1" fill="#f3c2c2"/>
<rect x="17" y="4" width="1" height="1" fill="#ed9f9f"/>
<rect x="18" y="4" width="1" height="1" fill="#e05c5c"/>
<rect x="19" y="4" width="1" height="1" fill="#d00707"/>
<rect x="20" y="4" width="1" height="1" fill="#d00202" fill-opacity="0.341"/>
<rect x="21" y="4" width="1" height="1" fill="#df0908" fill-opacity="0.243"/>
<rect x="22" y="4" width="1" height="1" fill="#df0908" fill-opacity="0.059"/>
<rect x="3" y="5" width="1" height="1" fill="#eb0404"/>
<rect x="4" y="5" width="1" height="1" fill="#eb0404" fill-opacity="0.184"/>
<rect x="5" y="5" width="1" height="1" fill="#eb0404" fill-opacity="0.02"/>
<rect x="7" y="5" width="1" height="1" fill="#b00909" fill-opacity="0.361"/>
<rect x="8" y="5" width="1" height="1" fill="#c00606"/>
<rect x="9" y="5" width="1" height="1" fill="#e7a2a1"/>
<rect x="10" y="5" width="1" height="1" fill="#efbfbf"/>
<rect x="11" y="5" width="1" height="1" fill="#fbeeee"/>
<rect x="12" y="5" width="1" height="1" fill="#fae7e7"/>
<rect x="13" y="5" width="1" height="1" fill="#fceeee"/>
<rect x="14" y="5" width="1" height="1" fill="#fcefef"/>
<rect x="15" y="5" width="1" height="1" fill="#fcf0f0"/>
<rect x="16" y="5" width="1" height="1" fill="#fae6e6"/>
<rect x="17" y="5" width="1" height="1" fill="#f9dfdf"/>
<rect x="18" y="5" width="1" height="1" fill="#efa6a6"/>
<rect x="19" y="5" width="1" height="1" fill="#d92b2b"/>
<rect x="20" y="5" width="1" height="1" fill="#cf0404"/>
<rect x="21" y="5" width="1" height="1" fill="#ce0404" fill-opacity="0.286"/>
<rect x="22" y="5" width="1" height="1" fill="#ce0404" fill-opacity="0.012"/>
<rect x="2" y="6" width="1" height="1" fill="#eb0404"/>
<rect x="3" y="6" width="1" height="1" fill="#eb0404" fill-opacity="0.314"/>
<rect x="4" y="6" width="1" height="1" fill="#eb0404" fill-opacity="0.051"/>
<rect x="6" y="6" width="1" height="1" fill="#b00909" fill-opacity="0.004"/>
<rect x="7" y="6" width="1" height="1" fill="#b70808" fill-opacity="0.796"/>
<rect x="8" y="6" width="1" height="1" fill="#b10b0b"/>
<rect x="9" y="6" width="1" height="1" fill="#d07676"/>
<rect x="10" y="6" width="1" height="1" fill="#ebbaba"/>
<rect x="11" y="6" width="1" height="1" fill="#f3c2c2"/>
<rect x="12" y="6" width="1" height="1" fill="#f3bebe"/>
<rect x="13" y="6" width="1" height="1" fill="#fcf1f1"/>
<rect x="14" y="6" width="1" height="1" fill="#fefcfc"/>
<rect x="15" y="6" width="1" height="1" fill="#fffefe"/>
<rect x="16" y="6" width="1" height="1" fill="#ffffff"/>
<rect x="17" y="6" width="1" height="1" fill="#fffdfd"/>
<rect x="18" y="6" width="1" height="1" fill="#fcf1f1"/>
<rect x="19" y="6" width="1" height="1" fill="#f4c4c4"/>
<rect x="20" y="6" width="1" height="1" fill="#db3e3e"/>
<rect x="21" y="6" width="1" height="1" fill="#cf0303" fill-opacity="0.749"/>
<rect x="22" y="6" width="1" height="1" fill="#d52626" fill-opacity="0.176"/>
<rect x="23" y="6" width="1" height="1" fill="#e06565" fill-opacity="0.012"/>
<rect x="1" y="7" width="1" height="1" fill="#eb0404"/>
<rect x="2" y="7" width="1" height="1" fill="#eb0404"/>
<rect x="3" y="7" width="1" height="1" fill="#eb0404" fill-opacity="0.078"/>
<rect x="6" y="7" width="1" height="1" fill="#b00909" fill-opacity="0.024"/>
<rect x="7" y="7" width="1" height="1" fill="#b70808" fill-opacity="0.965"/>
<rect x="8" y="7" width="1" height="1" fill="#b10d0d"/>
<rect x="9" y="7" width="1" height="1" fill="#b61616"/>
<rect x="10" y="7" width="1" height="1" fill="#cc0a0a"/>
<rect x="11" y="7" width="1" height="1" fill="#d00202" fill-opacity="0.827"/>
<rect x="12" y="7" width="1" height="1" fill="#d10606"/>
<rect x="13" y="7" width="1" height="1" fill="#de4e4e"/>
<rect x="14" y="7" width="1" height="1" fill="#f2b9b9"/>
<rect x="15" y="7" width="1" height="1" fill="#fbecec"/>
<rect x="16" y="7" width="1" height="1" fill="#fdf6f6"/>
<rect x="17" y="7" width="1" height="1" fill="#fdf4f4"/>
<rect x="18" y="7" width="1" height="1" fill="#fefafa"/>
<rect x="19" y="7" width="1" height="1" fill="#fef7f7"/>
<rect x="20" y="7" width="1" height="1" fill="#f0b0b0"/>
<rect x="21" y="7" width="1" height="1" fill="#d41e1e"/>
<rect x="22" y="7" width="1" height="1" fill="#d21212" fill-opacity="0.686"/>
<rect x="23" y="7" width="1" height="1" fill="#f5cdcd" fill-opacity="0.067"/>
<rect x="24" y="7" width="1" height="1" fill="#f6cfcf" fill-opacity="0.008"/>
<rect x="1" y="8" width="1" height="1" fill="#eb0404" fill-opacity="0.329"/>
<rect x="2" y="8" width="1" height="1" fill="#eb0404"/>
<rect x="3" y="8" width="1" height="1" fill="#eb0404" fill-opacity="0.992"/>
<rect x="4" y="8" width="1" height="1" fill="#eb0404" fill-opacity="0.012"/>
<rect x="6" y="8" width="1" height="1" fill="#b00909" fill-opacity="0.043"/>
<rect x="7" y="8" width="1" height="1" fill="#b20909" fill-opacity="0.929"/>
<rect x="8" y="8" width="1" height="1" fill="#b00909"/>
<rect x="9" y="8" width="1" height="1" fill="#b80707" fill-opacity="0.824"/>
<rect x="10" y="8" width="1" height="1" fill="#cb0303" fill-opacity="0.129"/>
<rect x="12" y="8" width="1" height="1" fill="#d00202" fill-opacity="0.016"/>
<rect x="13" y="8" width="1" height="1" fill="#d00202" fill-opacity="0.549"/>
<rect x="14" y="8" width="1" height="1" fill="#da3737"/>
<rect x="15" y="8" width="1" height="1" fill="#f8dbdb"/>
<rect x="16" y="8" width="1" height="1" fill="#fae2e2"/>
<rect x="17" y="8" width="1" height="1" fill="#fae5e5"/>
<rect x="18" y="8" width="1" height="1" fill="#f8d9d9"/>
<rect x="19" y="8" width="1" height="1" fill="#f8dbdb"/>
<rect x="20" y="8" width="1" height="1" fill="#f9dede"/>
<rect x="21" y="8" width="1" height="1" fill="#ed9f9f"/>
<rect x="22" y="8" width="1" height="1" fill="#d31c1c"/>
<rect x="23" y="8" width="1" height="1" fill="#e47373"/>
<rect x="24" y="8" width="1" height="1" fill="#f6cfcf" fill-opacity="0.055"/>
<rect x="2" y="9" width="1" height="1" fill="#eb0404"/>
<rect x="3" y="9" width="1" height="1" fill="#eb0404" fill-opacity="0.373"/>
<rect x="4" y="9" width="1" height="1" fill="#eb0404" fill-opacity="0.043"/>
<rect x="6" y="9" width="1" height="1" fill="#b00909" fill-opacity="0.027"/>
<rect x="7" y="9" width="1" height="1" fill="#b00909" fill-opacity="0.906"/>
<rect x="8" y="9" width="1" height="1" fill="#b10909"/>
<rect x="9" y="9" width="1" height="1" fill="#b10909" fill-opacity="0.122"/>
<rect x="10" y="9" width="1" height="1" fill="#bf1212" fill-opacity="0.024"/>
<rect x="11" y="9" width="1" height="1" fill="#d91e1e" fill-opacity="0.839"/>
<rect x="12" y="9" width="1" height="1" fill="#d71f1f" fill-opacity="0.976"/>
<rect x="13" y="9" width="1" height="1" fill="#d40907" fill-opacity="0.933"/>
<rect x="14" y="9" width="1" height="1" fill="#d40202" fill-opacity="0.961"/>
<rect x="15" y="9" width="1" height="1" fill="#d62121"/>
<rect x="16" y="9" width="1" height="1" fill="#f5cccc"/>
<rect x="17" y="9" width="1" height="1" fill="#fae5e5"/>
<rect x="18" y="9" width="1" height="1" fill="#f2bfbf"/>
<rect x="19" y="9" width="1" height="1" fill="#eda2a2"/>
<rect x="20" y="9" width="1" height="1" fill="#f3c1c1"/>
<rect x="21" y="9" width="1" height="1" fill="#f5c7c7"/>
<rect x="22" y="9" width="1" height="1" fill="#efabab"/>
<rect x="23" y="9" width="1" height="1" fill="#dd4e4e"/>
<rect x="24" y="9" width="1" height="1" fill="#e05b5b"/>
<rect x="1" y="10" width="1" height="1" fill="#eb0404"/>
<rect x="2" y="10" width="1" height="1" fill="#eb0404" fill-opacity="0.4"/>
<rect x="3" y="10" width="1" height="1" fill="#eb0404" fill-opacity="0.047"/>
<rect x="6" y="10" width="1" height="1" fill="#b00909" fill-opacity="0.043"/>
<rect x="7" y="10" width="1" height="1" fill="#b00909" fill-opacity="0.776"/>
<rect x="8" y="10" width="1" height="1" fill="#b10909" fill-opacity="0.263"/>
<rect x="10" y="10" width="1" height="1" fill="#c10d0c" fill-opacity="0.051"/>
<rect x="11" y="10" width="1" height="1" fill="#d31414" fill-opacity="0.925"/>
<rect x="12" y="10" width="1" height="1" fill="#da2121" fill-opacity="0.992"/>
<rect x="13" y="10" width="1" height="1" fill="#de2b2b" fill-opacity="0.941"/>
<rect x="14" y="10" width="1" height="1" fill="#dd1111" fill-opacity="0.918"/>
<rect x="15" y="10" width="1" height="1" fill="#d20303" fill-opacity="0.992"/>
<rect x="16" y="10" width="1" height="1" fill="#f2bcbc"/>
<rect x="17" y="10" width="1" height="1" fill="#fbebeb"/>
<rect x="18" y="10" width="1" height="1" fill="#fcefef"/>
<rect x="19" y="10" width="1" height="1" fill="#eea3a3"/>
<rect x="20" y="10" width="1" height="1" fill="#e98686"/>
<rect x="21" y="10" width="1" height="1" fill="#da3737"/>
<rect x="22" y="10" width="1" height="1" fill="#d10a0a"/>
<rect x="23" y="10" width="1" height="1" fill="#d62a2a"/>
<rect x="24" y="10" width="1" height="1" fill="#d10a0a"/>
<rect x="1" y="11" width="1" height="1" fill="#eb0404" fill-opacity="0.235"/>
<rect x="2" y="11" width="1" height="1" fill="#eb0404" fill-opacity="0.051"/>
<rect x="6" y="11" width="1" height="1" fill="#b00909" fill-opacity="0.035"/>
<rect x="7" y="11" width="1" height="1" fill="#b00909" fill-opacity="0.082"/>
<rect x="9" y="11" width="1" height="1" fill="#b00909" fill-opacity="0.008"/>
<rect x="10" y="11" width="1" height="1" fill="#d00404" fill-opacity="0.075"/>
<rect x="11" y="11" width="1" height="1" fill="#d61e1e" fill-opacity="0.973"/>
<rect x="12" y="11" width="1" height="1" fill="#d92c2c" fill-opacity="0.992"/>
<rect x="13" y="11" width="1" height="1" fill="#ee5d5f"/>
<rect x="14" y="11" width="1" height="1" fill="#ed2f32"/>
<rect x="15" y="11" width="1" height="1" fill="#da0909"/>
<rect x="16" y="11" width="1" height="1" fill="#ec9898"/>
<rect x="17" y="11" width="1" height="1" fill="#f8dede"/>
<rect x="18" y="11" width="1" height="1" fill="#fceded"/>
<rect x="19" y="11" width="1" height="1" fill="#fcf1f1"/>
<rect x="20" y="11" width="1" height="1" fill="#eb9595"/>
<rect x="21" y="11" width="1" height="1" fill="#d00202" fill-opacity="0.596"/>
<rect x="22" y="11" width="1" height="1" fill="#ce0404" fill-opacity="0.075"/>
<rect x="23" y="11" width="1" height="1" fill="#d93535" fill-opacity="0.255"/>
<rect x="24" y="11" width="1" height="1" fill="#cf0b0b" fill-opacity="0.42"/>
<rect x="1" y="12" width="1" height="1" fill="#eb0404" fill-opacity="0.059"/>
<rect x="7" y="12" width="1" height="1" fill="#b00909" fill-opacity="0.016"/>
<rect x="10" y="12" width="1" height="1" fill="#d10707" fill-opacity="0.176"/>
<rect x="11" y="12" width="1" height="1" fill="#d71717" fill-opacity="0.941"/>
<rect x="12" y="12" width="1" height="1" fill="#e44444" fill-opacity="0.976"/>
<rect x="13" y="12" width="1" height="1" fill="#e85250" fill-opacity="0.984"/>
<rect x="14" y="12" width="1" height="1" fill="#d10707"/>
<rect x="15" y="12" width="1" height="1" fill="#da3939"/>
<rect x="16" y="12" width="1" height="1" fill="#f0b4b4"/>
<rect x="17" y="12" width="1" height="1" fill="#fbecec"/>
<rect x="18" y="12" width="1" height="1" fill="#f8dadb"/>
<rect x="19" y="12" width="1" height="1" fill="#fbeded"/>
<rect x="20" y="12" width="1" height="1" fill="#fdf3f3"/>
<rect x="21" y="12" width="1" height="1" fill="#dd4646"/>
<rect x="22" y="12" width="1" height="1" fill="#d00202" fill-opacity="0.584"/>
<rect x="24" y="12" width="1" height="1" fill="#ffffff" fill-opacity="0.043"/>
<rect x="0" y="13" width="1" height="1" fill="#b00909" fill-opacity="0.004"/>
<rect x="2" y="13" width="1" height="1" fill="#fb0301" fill-opacity="0.004"/>
<rect x="4" y="13" width="1" height="1" fill="#fb0301" fill-opacity="0.004"/>
<rect x="8" y="13" width="1" height="1" fill="#d10202" fill-opacity="0.027"/>
<rect x="9" y="13" width="1" height="1" fill="#ec4040" fill-opacity="0.165"/>
<rect x="10" y="13" width="1" height="1" fill="#d81717" fill-opacity="0.863"/>
<rect x="11" y="13" width="1" height="1" fill="#e01c1b" fill-opacity="0.973"/>
<rect x="12" y="13" width="1" height="1" fill="#d00303"/>
<rect x="13" y="13" width="1" height="1" fill="#d21d1d"/>
<rect x="14" y="13" width="1" height="1" fill="#c64545"/>
<rect x="15" y="13" width="1" height="1" fill="#ecb9b9"/>
<rect x="16" y="13" width="1" height="1" fill="#f4cfcf"/>
<rect x="17" y="13" width="1" height="1" fill="#f7d0d0"/>
<rect x="18" y="13" width="1" height="1" fill="#f6cdcd"/>
<rect x="19" y="13" width="1" height="1" fill="#f6c9c9"/>
<rect x="20" y="13" width="1" height="1" fill="#f9dfe0"/>
<rect x="21" y="13" width="1" height="1" fill="#fae5e5"/>
<rect x="22" y="13" width="1" height="1" fill="#e05a5a"/>
<rect x="23" y="13" width="1" height="1" fill="#d10707" fill-opacity="0.384"/>
<rect x="0" y="14" width="1" height="1" fill="#dc0102"/>
<rect x="1" y="14" width="1" height="1" fill="#ec0101"/>
<rect x="2" y="14" width="1" height="1" fill="#f40100"/>
<rect x="3" y="14" width="1" height="1" fill="#ed3534" fill-opacity="0.129"/>
<rect x="4" y="14" width="1" height="1" fill="#fc4a49" fill-opacity="0.129"/>
<rect x="5" y="14" width="1" height="1" fill="#fb0301" fill-opacity="0.067"/>
<rect x="6" y="14" width="1" height="1" fill="#f90301" fill-opacity="0.051"/>
<rect x="7" y="14" width="1" height="1" fill="#dd0302" fill-opacity="0.192"/>
<rect x="8" y="14" width="1" height="1" fill="#da3e03" fill-opacity="0.875"/>
<rect x="9" y="14" width="1" height="1" fill="#d20404"/>
<rect x="10" y="14" width="1" height="1" fill="#e63434"/>
<rect x="11" y="14" width="1" height="1" fill="#ed2f2f" fill-opacity="0.98"/>
<rect x="12" y="14" width="1" height="1" fill="#bd1a1a"/>
<rect x="13" y="14" width="1" height="1" fill="#b10909"/>
<rect x="14" y="14" width="1" height="1" fill="#b31212"/>
<rect x="15" y="14" width="1" height="1" fill="#f1d2d2"/>
<rect x="16" y="14" width="1" height="1" fill="#f8eaea"/>
<rect x="17" y="14" width="1" height="1" fill="#f8e1e1"/>
<rect x="18" y="14" width="1" height="1" fill="#f6cfcf"/>
<rect x="19" y="14" width="1" height="1" fill="#ec9e9e"/>
<rect x="20" y="14" width="1" height="1" fill="#e77a7a"/>
<rect x="21" y="14" width="1" height="1" fill="#e98889"/>
<rect x="22" y="14" width="1" height="1" fill="#f1b4b4"/>
<rect x="23" y="14" width="1" height="1" fill="#d82929"/>
<rect x="24" y="14" width="1" height="1" fill="#dd4747" fill-opacity="0.157"/>
<rect x="0" y="15" width="1" height="1" fill="#ea0706"/>
<rect x="1" y="15" width="1" height="1" fill="#f6cdcc"/>
<rect x="2" y="15" width="1" height="1" fill="#f6a2a2"/>
<rect x="3" y="15" width="1" height="1" fill="#e20101"/>
<rect x="4" y="15" width="1" height="1" fill="#e00505"/>
<rect x="5" y="15" width="1" height="1" fill="#d80202"/>
<rect x="6" y="15" width="1" height="1" fill="#d20302"/>
<rect x="7" y="15" width="1" height="1" fill="#c60404"/>
<rect x="8" y="15" width="1" height="1" fill="#f9c901"/>
<rect x="9" y="15" width="1" height="1" fill="#fdf600"/>
<rect x="10" y="15" width="1" height="1" fill="#df0c0b"/>
<rect x="11" y="15" width="1" height="1" fill="#ea3b3b"/>
<rect x="12" y="15" width="1" height="1" fill="#ec5b5b"/>
<rect x="13" y="15" width="1" height="1" fill="#cb1717"/>
<rect x="14" y="15" width="1" height="1" fill="#b30b0b"/>
<rect x="15" y="15" width="1" height="1" fill="#e59898"/>
<rect x="16" y="15" width="1" height="1" fill="#f8dfdf"/>
<rect x="17" y="15" width="1" height="1" fill="#fdf9f9"/>
<rect x="18" y="15" width="1" height="1" fill="#fcefef"/>
<rect x="19" y="15" width="1" height="1" fill="#f7d2d1"/>
<rect x="20" y="15" width="1" height="1" fill="#db3f3f"/>
<rect x="21" y="15" width="1" height="1" fill="#d31313"/>
<rect x="22" y="15" width="1" height="1" fill="#dd4444"/>
<rect x="23" y="15" width="1" height="1" fill="#da2b2a"/>
<rect x="24" y="15" width="1" height="1" fill="#d20b0b"/>
<rect x="0" y="16" width="1" height="1" fill="#f00303" fill-opacity="0.996"/>
<rect x="1" y="16" width="1" height="1" fill="#f9d8d7"/>
<rect x="2" y="16" width="1" height="1" fill="#fbe2e3"/>
<rect x="3" y="16" width="1" height="1" fill="#fbe5e5"/>
<rect x="4" y="16" width="1" height="1" fill="#fef0f0"/>
<rect x="5" y="16" width="1" height="1" fill="#fef1f1"/>
<rect x="6" y="16" width="1" height="1" fill="#fad4d2"/>
<rect x="7" y="16" width="1" height="1" fill="#fa9f9f"/>
<rect x="8" y="16" width="1" height="1" fill="#e90704"/>
<rect x="9" y="16" width="1" height="1" fill="#ed7203"/>
<rect x="10" y="16" width="1" height="1" fill="#feb301"/>
<rect x="11" y="16" width="1" height="1" fill="#df0908"/>
<rect x="12" y="16" width="1" height="1" fill="#e84b4b"/>
<rect x="13" y="16" width="1" height="1" fill="#eb6363"/>
<rect x="14" y="16" width="1" height="1" fill="#d00303"/>
<rect x="15" y="16" width="1" height="1" fill="#d62323"/>
<rect x="16" y="16" width="1" height="1" fill="#e88888"/>
<rect x="17" y="16" width="1" height="1" fill="#e88282"/>
<rect x="18" y="16" width="1" height="1" fill="#f4c3c3"/>
<rect x="19" y="16" width="1" height="1" fill="#fcefef"/>
<rect x="20" y="16" width="1" height="1" fill="#f1b1b1"/>
<rect x="21" y="16" width="1" height="1" fill="#d00404"/>
<rect x="22" y="16" width="1" height="1" fill="#d00202" fill-opacity="0.325"/>
<rect x="23" y="16" width="1" height="1" fill="#cf0303" fill-opacity="0.184"/>
<rect x="24" y="16" width="1" height="1" fill="#ce0404" fill-opacity="0.463"/>
<rect x="0" y="17" width="1" height="1" fill="#dd0202" fill-opacity="0.996"/>
<rect x="1" y="17" width="1" height="1" fill="#fbe9e9"/>
<rect x="2" y="17" width="1" height="1" fill="#fefdfd"/>
<rect x="3" y="17" width="1" height="1" fill="#fefdfb"/>
<rect x="4" y="17" width="1" height="1" fill="#fffefe"/>
<rect x="5" y="17" width="1" height="1" fill="#fffdfd"/>
<rect x="6" y="17" width="1" height="1" fill="#fffcfc"/>
<rect x="7" y="17" width="1" height="1" fill="#fdf6f6"/>
<rect x="8" y="17" width="1" height="1" fill="#fa8988"/>
<rect x="9" y="17" width="1" height="1" fill="#da0605"/>
<rect x="10" y="17" width="1" height="1" fill="#f14c03"/>
<rect x="11" y="17" width="1" height="1" fill="#fe6c02"/>
<rect x="12" y="17" width="1" height="1" fill="#dd0807"/>
<rect x="13" y="17" width="1" height="1" fill="#e34545"/>
<rect x="14" y="17" width="1" height="1" fill="#e65d5c"/>
<rect x="15" y="17" width="1" height="1" fill="#e12f2f"/>
<rect x="16" y="17" width="1" height="1" fill="#dc1313"/>
<rect x="17" y="17" width="1" height="1" fill="#d00303"/>
<rect x="18" y="17" width="1" height="1" fill="#d41919"/>
<rect x="19" y="17" width="1" height="1" fill="#eb9797"/>
<rect x="20" y="17" width="1" height="1" fill="#f4c4c4"/>
<rect x="21" y="17" width="1" height="1" fill="#f1b6b6"/>
<rect x="22" y="17" width="1" height="1" fill="#d10909"/>
<rect x="23" y="17" width="1" height="1" fill="#dc4747" fill-opacity="0.188"/>
<rect x="24" y="17" width="1" height="1" fill="#fcf2f2" fill-opacity="0.016"/>
<rect x="0" y="18" width="1" height="1" fill="#e60201" fill-opacity="0.996"/>
<rect x="1" y="18" width="1" height="1" fill="#f96162"/>
<rect x="2" y="18" width="1" height="1" fill="#fff0f1"/>
<rect x="3" y="18" width="1" height="1" fill="#fee5e5"/>
<rect x="4" y="18" width="1" height="1" fill="#fdf6f6"/>
<rect x="5" y="18" width="1" height="1" fill="#fef1ee"/>
<rect x="6" y="18" width="1" height="1" fill="#ffeded"/>
<rect x="7" y="18" width="1" height="1" fill="#fee6e6"/>
<rect x="8" y="18" width="1" height="1" fill="#fdcccc"/>
<rect x="9" y="18" width="1" height="1" fill="#f96261"/>
<rect x="10" y="18" width="1" height="1" fill="#db0605"/>
<rect x="11" y="18" width="1" height="1" fill="#d83a04"/>
<rect x="12" y="18" width="1" height="1" fill="#da4604"/>
<rect x="13" y="18" width="1" height="1" fill="#dd0b0a"/>
<rect x="14" y="18" width="1" height="1" fill="#e34242"/>
<rect x="15" y="18" width="1" height="1" fill="#e75656"/>
<rect x="16" y="18" width="1" height="1" fill="#e54746"/>
<rect x="17" y="18" width="1" height="1" fill="#ed0707"/>
<rect x="18" y="18" width="1" height="1" fill="#cf0202" fill-opacity="0.431"/>
<rect x="19" y="18" width="1" height="1" fill="#d62121"/>
<rect x="20" y="18" width="1" height="1" fill="#d62424"/>
<rect x="21" y="18" width="1" height="1" fill="#d10909"/>
<rect x="22" y="18" width="1" height="1" fill="#d82e2e"/>
<rect x="23" y="18" width="1" height="1" fill="#e05757"/>
<rect x="24" y="18" width="1" height="1" fill="#f9dcdc" fill-opacity="0.122"/>
<rect x="0" y="19" width="1" height="1" fill="#fb0301" fill-opacity="0.133"/>
<rect x="1" y="19" width="1" height="1" fill="#f10101"/>
<rect x="2" y="19" width="1" height="1" fill="#e60201"/>
<rect x="3" y="19" width="1" height="1" fill="#dd0201"/>
<rect x="4" y="19" width="1" height="1" fill="#ea0302"/>
<rect x="5" y="19" width="1" height="1" fill="#e50202"/>
<rect x="6" y="19" width="1" height="1" fill="#d90303"/>
<rect x="7" y="19" width="1" height="1" fill="#d30202"/>
<rect x="8" y="19" width="1" height="1" fill="#d10202"/>
<rect x="9" y="19" width="1" height="1" fill="#c60303"/>
<rect x="10" y="19" width="1" height="1" fill="#cc0202"/>
<rect x="11" y="19" width="1" height="1" fill="#d50606"/>
<rect x="12" y="19" width="1" height="1" fill="#b23007"/>
<rect x="13" y="19" width="1" height="1" fill="#b43207"/>
<rect x="14" y="19" width="1" height="1" fill="#d40707"/>
<rect x="15" y="19" width="1" height="1" fill="#cd1111"/>
<rect x="16" y="19" width="1" height="1" fill="#cc0606"/>
<rect x="17" y="19" width="1" height="1" fill="#d50605"/>
<rect x="18" y="19" width="1" height="1" fill="#e13433" fill-opacity="0.035"/>
<rect x="19" y="19" width="1" height="1" fill="#d00202" fill-opacity="0.137"/>
<rect x="20" y="19" width="1" height="1" fill="#d00707"/>
<rect x="21" y="19" width="1" height="1" fill="#ce0404" fill-opacity="0.133"/>
<rect x="22" y="19" width="1" height="1" fill="#d00202" fill-opacity="0.173"/>
<rect x="23" y="19" width="1" height="1" fill="#d00303"/>
<rect x="24" y="19" width="1" height="1" fill="#e47070"/>
<rect x="11" y="20" width="1" height="1" fill="#b77b00" fill-opacity="0.035"/>
<rect x="12" y="20" width="1" height="1" fill="#d59a00" fill-opacity="0.035"/>
<rect x="13" y="20" width="1" height="1" fill="#d59a00" fill-opacity="0.035"/>
<rect x="14" y="20" width="1" height="1" fill="#d59a00" fill-opacity="0.035"/>
<rect x="15" y="20" width="1" height="1" fill="#d59a00" fill-opacity="0.035"/>
<rect x="16" y="20" width="1" height="1" fill="#b77b00" fill-opacity="0.035"/>
</svg>