<?xml version="1.0" encoding="UTF-8" standalone="no"?>
<svg xmlns="http://www.w3.org/2000/svg" width="26" height="21" shape-rendering="crispEdges">
<rect x="12" y="0" width="1" height="1" fill="#e95408" fill-opacity="0.459"/>
<rect x="13" y="0" width="1" height="1" fill="#e85608" fill-opacity="0.875"/>
<rect x="14" y="0" width="1" height="1" fill="#e7580b"/>
<rect x="15" y="0" width="1" height="1" fill="#e6590b"/>
<rect x="16" y="0" width="1" height="1" fill="#e65d0e"/>
<rect x="17" y="0" width="1" height="1" fill="#e76214"/>
<rect x="18" y="0" width="1" height="1" fill="#e75f10"/>
<rect x="19" y="0" width="1" height="1" fill="#e85a0b"/>
<rect x="20" y="0" width="1" height="1" fill="#e8580b"/>
<rect x="21" y="0" width="1" height="1" fill="#e8580a"/>
<rect x="22" y="0" width="1" height="1" fill="#e85e10"/>
<rect x="23" y="0" width="1" height="1" fill="#e85c0f"/>
<rect x="24" y="0" width="1" height="1" fill="#e95609"/>
<rect x="11" y="1" width="1" height="1" fill="#e95408" fill-opacity="0.565"/>
<rect x="12" y="1" width="1" height="1" fill="#e95f17"/>
<rect x="13" y="1" width="1" height="1" fill="#f3caa9"/>
<rect x="14" y="1" width="1" height="1" fill="#f1cba9"/>
<rect x="15" y="1" width="1" height="1" fill="#f6dfc9"/>
<rect x="16" y="1" width="1" height="1" fill="#f8e9db"/>
<rect x="17" y="1" width="1" height="1" fill="#f9e6d6"/>
<rect x="18" y="1" width="1" height="1" fill="#faebdd"/>
<rect x="19" y="1" width="1" height="1" fill="#fae6d6"/>
<rect x="20" y="1" width="1" height="1" fill="#f7d9c1"/>
<rect x="21" y="1" width="1" height="1" fill="#f3ceb0"/>
<rect x="22" y="1" width="1" height="1" fill="#eeb489"/>
<rect x="23" y="1" width="1" height="1" fill="#eb6925"/>
<rect x="24" y="1" width="1" height="1" fill="#e46108" fill-opacity="0.212"/>
<rect x="10" y="2" width="1" height="1" fill="#e95408" fill-opacity="0.569"/>
<rect x="11" y="2" width="1" height="1" fill="#e85d11"/>
<rect x="12" y="2" width="1" height="1" fill="#f3d9c2"/>
<rect x="13" y="2" width="1" height="1" fill="#fbf0e8"/>
<rect x="14" y="2" width="1" height="1" fill="#faeadf"/>
<rect x="15" y="2" width="1" height="1" fill="#fcf1e9"/>
<rect x="16" y="2" width="1" height="1" fill="#fefcfb"/>
<rect x="17" y="2" width="1" height="1" fill="#fffdfc"/>
<rect x="18" y="2" width="1" height="1" fill="#fcf4ed"/>
<rect x="19" y="2" width="1" height="1" fill="#f2d5bb"/>
<rect x="20" y="2" width="1" height="1" fill="#f0d0b2"/>
<rect x="21" y="2" width="1" height="1" fill="#eb8145"/>
<rect x="22" y="2" width="1" height="1" fill="#e75808" fill-opacity="0.796"/>
<rect x="23" y="2" width="1" height="1" fill="#e95508" fill-opacity="0.361"/>
<rect x="9" y="3" width="1" height="1" fill="#e95408" fill-opacity="0.549"/>
<rect x="10" y="3" width="1" height="1" fill="#e85f0f"/>
<rect x="11" y="3" width="1" height="1" fill="#f5d8bd"/>
<rect x="12" y="3" width="1" height="1" fill="#fdf8f3"/>
<rect x="13" y="3" width="1" height="1" fill="#fdf4ee"/>
<rect x="14" y="3" width="1" height="1" fill="#fcefe9"/>
<rect x="15" y="3" width="1" height="1" fill="#fbece4"/>
<rect x="16" y="3" width="1" height="1" fill="#faf1e7"/>
<rect x="17" y="3" width="1" height="1" fill="#f3d6be"/>
<rect x="18" y="3" width="1" height="1" fill="#edc7a3"/>
<rect x="19" y="3" width="1" height="1" fill="#efb993"/>
<rect x="20" y="3" width="1" height="1" fill="#e9651f"/>
<rect x="21" y="3" width="1" height="1" fill="#e85708" fill-opacity="0.588"/>
<rect x="22" y="3" width="1" height="1" fill="#df7008" fill-opacity="0.247"/>
<rect x="23" y="3" width="1" height="1" fill="#df7008" fill-opacity="0.004"/>
<rect x="4" y="4" width="1" height="1" fill="#eb6b04" fill-opacity="0.004"/>
<rect x="5" y="4" width="1" height="1" fill="#eb6b04" fill-opacity="0.012"/>
<rect x="7" y="4" width="1" height="1" fill="#b04009" fill-opacity="0.043"/>
<rect x="8" y="4" width="1" height="1" fill="#df5108" fill-opacity="0.478"/>
<rect x="9" y="4" width="1" height="1" fill="#e85d10"/>
<rect x="10" y="4" width="1" height="1" fill="#f3c9a4"/>
<rect x="11" y="4" width="1" height="1" fill="#fdf7f2"/>
<rect x="12" y="4" width="1" height="1" fill="#fcf1ec"/>
<rect x="13" y="4" width="1" height="1" fill="#fcefe9"/>
<rect x="14" y="4" width="1" height="1" fill="#fbede5"/>
<rect x="15" y="4" width="1" height="1" fill="#f6e0cd"/>
<rect x="16" y="4" width="1" height="1" fill="#f3d9c2"/>
<rect x="17" y="4" width="1" height="1" fill="#efc3a0"/>
<rect x="18" y="4" width="1" height="1" fill="#e7975e"/>
<rect x="19" y="4" width="1" height="1" fill="#e55a0c"/>
<rect x="20" y="4" width="1" height="1" fill="#e75608" fill-opacity="0.341"/>
<rect x="21" y="4" width="1" height="1" fill="#df7008" fill-opacity="0.243"/>
<rect x="22" y="4" width="1" height="1" fill="#df7008" fill-opacity="0.059"/>
<rect x="3" y="5" width="1" height="1" fill="#eb6b04"/>
<rect x="4" y="5" width="1" height="1" fill="#eb6b04" fill-opacity="0.184"/>
<rect x="5" y="5" width="1" height="1" fill="#eb6b04" fill-opacity="0.02"/>
<rect x="7" y="5" width="1" height="1" fill="#b14009" fill-opacity="0.361"/>
<rect x="8" y="5" width="1" height="1" fill="#cc4a09"/>
<rect x="9" y="5" width="1" height="1" fill="#ebbda2"/>
<rect x="10" y="5" width="1" height="1" fill="#efd3bf"/>
<rect x="11" y="5" width="1" height="1" fill="#fdf4ee"/>
<rect x="12" y="5" width="1" height="1" fill="#fcefe8"/>
<rect x="13" y="5" width="1" height="1" fill="#fdf4ee"/>
<rect x="14" y="5" width="1" height="1" fill="#fcf6ef"/>
<rect x="15" y="5" width="1" height="1" fill="#fcf6f0"/>
<rect x="16" y="5" width="1" height="1" fill="#faf0e6"/>
<rect x="17" y="5" width="1" height="1" fill="#faebdf"/>
<rect x="18" y="5" width="1" height="1" fill="#f3c6a8"/>
<rect x="19" y="5" width="1" height="1" fill="#e9732e"/>
<rect x="20" y="5" width="1" height="1" fill="#e05b08"/>
<rect x="21" y="5" width="1" height="1" fill="#ce6504" fill-opacity="0.286"/>
<rect x="22" y="5" width="1" height="1" fill="#ce6504" fill-opacity="0.012"/>
<rect x="2" y="6" width="1" height="1" fill="#eb6b04"/>
<rect x="3" y="6" width="1" height="1" fill="#eb6b04" fill-opacity="0.314"/>
<rect x="4" y="6" width="1" height="1" fill="#eb6b04" fill-opacity="0.051"/>
<rect x="6" y="6" width="1" height="1" fill="#b04009" fill-opacity="0.004"/>
<rect x="7" y="6" width="1" height="1" fill="#bc4409" fill-opacity="0.796"/>
<rect x="8" y="6" width="1" height="1" fill="#b3430c"/>
<rect x="9" y="6" width="1" height="1" fill="#d09476"/>
<rect x="10" y="6" width="1" height="1" fill="#edcdbb"/>
<rect x="11" y="6" width="1" height="1" fill="#f6d5c3"/>
<rect x="12" y="6" width="1" height="1" fill="#f9d3c0"/>
<rect x="13" y="6" width="1" height="1" fill="#fdf6f1"/>
<rect x="14" y="6" width="1" height="1" fill="#fefdfc"/>
<rect x="15" y="6" width="1" height="1" fill="#fffefe"/>
<rect x="16" y="6" width="1" height="1" fill="#ffffff"/>
<rect x="17" y="6" width="1" height="1" fill="#fffefd"/>
<rect x="18" y="6" width="1" height="1" fill="#fdf6f1"/>
<rect x="19" y="6" width="1" height="1" fill="#f6dac5"/>
<rect x="20" y="6" width="1" height="1" fill="#ea8042"/>
<rect x="21" y="6" width="1" height="1" fill="#da5e06" fill-opacity="0.749"/>
<rect x="22" y="6" width="1" height="1" fill="#d57a26" fill-opacity="0.176"/>
<rect x="23" y="6" width="1" height="1" fill="#e0a065" fill-opacity="0.004"/>
<rect x="1" y="7" width="1" height="1" fill="#eb6b04"/>
<rect x="2" y="7" width="1" height="1" fill="#eb6b04"/>
<rect x="3" y="7" width="1" height="1" fill="#eb6b04" fill-opacity="0.078"/>
<rect x="6" y="7" width="1" height="1" fill="#b04009" fill-opacity="0.024"/>
<rect x="7" y="7" width="1" height="1" fill="#bc4409" fill-opacity="0.965"/>
<rect x="8" y="7" width="1" height="1" fill="#b1430d"/>
<rect x="9" y="7" width="1" height="1" fill="#b74c17"/>
<rect x="10" y="7" width="1" height="1" fill="#e0550f"/>
<rect x="11" y="7" width="1" height="1" fill="#e95408" fill-opacity="0.827"/>
<rect x="12" y="7" width="1" height="1" fill="#e8580c"/>
<rect x="13" y="7" width="1" height="1" fill="#ef8852"/>
<rect x="14" y="7" width="1" height="1" fill="#f2d4b9"/>
<rect x="15" y="7" width="1" height="1" fill="#fbf4ec"/>
<rect x="16" y="7" width="1" height="1" fill="#fdfaf6"/>
<rect x="17" y="7" width="1" height="1" fill="#fdf8f4"/>
<rect x="18" y="7" width="1" height="1" fill="#fefcfa"/>
<rect x="19" y="7" width="1" height="1" fill="#fefaf7"/>
<rect x="20" y="7" width="1" height="1" fill="#f0ceb0"/>
<rect x="21" y="7" width="1" height="1" fill="#de6f20"/>
<rect x="22" y="7" width="1" height="1" fill="#de6615" fill-opacity="0.686"/>
<rect x="23" y="7" width="1" height="1" fill="#f5e0cd" fill-opacity="0.031"/>
<rect x="24" y="7" width="1" height="1" fill="#f6e2cf" fill-opacity="0.004"/>
<rect x="1" y="8" width="1" height="1" fill="#eb6b04" fill-opacity="0.329"/>
<rect x="2" y="8" width="1" height="1" fill="#eb6b04"/>
<rect x="3" y="8" width="1" height="1" fill="#eb6b04" fill-opacity="0.992"/>
<rect x="4" y="8" width="1" height="1" fill="#eb6b04" fill-opacity="0.012"/>
<rect x="6" y="8" width="1" height="1" fill="#b04009" fill-opacity="0.043"/>
<rect x="7" y="8" width="1" height="1" fill="#b34109" fill-opacity="0.929"/>
<rect x="8" y="8" width="1" height="1" fill="#b04009"/>
<rect x="9" y="8" width="1" height="1" fill="#be4509" fill-opacity="0.824"/>
<rect x="10" y="8" width="1" height="1" fill="#e05108" fill-opacity="0.129"/>
<rect x="12" y="8" width="1" height="1" fill="#e95408" fill-opacity="0.016"/>
<rect x="13" y="8" width="1" height="1" fill="#e95408" fill-opacity="0.549"/>
<rect x="14" y="8" width="1" height="1" fill="#ee783b"/>
<rect x="15" y="8" width="1" height="1" fill="#f8e9db"/>
<rect x="16" y="8" width="1" height="1" fill="#faeee2"/>
<rect x="17" y="8" width="1" height="1" fill="#faefe5"/>
<rect x="18" y="8" width="1" height="1" fill="#f8e7d9"/>
<rect x="19" y="8" width="1" height="1" fill="#f8e8db"/>
<rect x="20" y="8" width="1" height="1" fill="#faebde"/>
<rect x="21" y="8" width="1" height="1" fill="#eec39f"/>
<rect x="22" y="8" width="1" height="1" fill="#d6711d"/>
<rect x="23" y="8" width="1" height="1" fill="#eba575"/>
<rect x="24" y="8" width="1" height="1" fill="#f9e0cf" fill-opacity="0.027"/>
<rect x="0" y="9" width="1" height="1" fill="#ffffff" fill-opacity="0.008"/>
<rect x="2" y="9" width="1" height="1" fill="#eb6b04"/>
<rect x="3" y="9" width="1" height="1" fill="#eb6b04" fill-opacity="0.373"/>
<rect x="4" y="9" width="1" height="1" fill="#eb6b04" fill-opacity="0.043"/>
<rect x="6" y="9" width="1" height="1" fill="#b04009" fill-opacity="0.027"/>
<rect x="7" y="9" width="1" height="1" fill="#b04009" fill-opacity="0.906"/>
<rect x="8" y="9" width="1" height="1" fill="#b14009"/>
<rect x="9" y="9" width="1" height="1" fill="#b24109" fill-opacity="0.122"/>
<rect x="10" y="9" width="1" height="1" fill="#ca5e06" fill-opacity="0.024"/>
<rect x="11" y="9" width="1" height="1" fill="#e57011" fill-opacity="0.839"/>
<rect x="12" y="9" width="1" height="1" fill="#e37013" fill-opacity="0.976"/>
<rect x="13" y="9" width="1" height="1" fill="#db6400" fill-opacity="0.933"/>
<rect x="14" y="9" width="1" height="1" fill="#e35905" fill-opacity="0.961"/>
<rect x="15" y="9" width="1" height="1" fill="#eb6926"/>
<rect x="16" y="9" width="1" height="1" fill="#f6e0cc"/>
<rect x="17" y="9" width="1" height="1" fill="#faefe5"/>
<rect x="18" y="9" width="1" height="1" fill="#f2d7bf"/>
<rect x="19" y="9" width="1" height="1" fill="#f0c4a3"/>
<rect x="20" y="9" width="1" height="1" fill="#f5d8c2"/>
<rect x="21" y="9" width="1" height="1" fill="#f5ddc7"/>
<rect x="22" y="9" width="1" height="1" fill="#f1caab"/>
<rect x="23" y="9" width="1" height="1" fill="#e48e50"/>
<rect x="24" y="9" width="1" height="1" fill="#ec935e"/>
<rect x="0" y="10" width="1" height="1" fill="#ffffff" fill-opacity="0.027"/>
<rect x="1" y="10" width="1" height="1" fill="#eb6b04"/>
<rect x="2" y="10" width="1" height="1" fill="#eb6b04" fill-opacity="0.4"/>
<rect x="3" y="10" width="1" height="1" fill="#eb6b04" fill-opacity="0.047"/>
<rect x="6" y="10" width="1" height="1" fill="#b04009" fill-opacity="0.043"/>
<rect x="7" y="10" width="1" height="1" fill="#b04009" fill-opacity="0.776"/>
<rect x="8" y="10" width="1" height="1" fill="#b14009" fill-opacity="0.263"/>
<rect x="10" y="10" width="1" height="1" fill="#c85405" fill-opacity="0.051"/>
<rect x="11" y="10" width="1" height="1" fill="#df6807" fill-opacity="0.925"/>
<rect x="12" y="10" width="1" height="1" fill="#e67214" fill-opacity="0.992"/>
<rect x="13" y="10" width="1" height="1" fill="#ea7a1f" fill-opacity="0.941"/>
<rect x="14" y="10" width="1" height="1" fill="#ea6b03" fill-opacity="0.918"/>
<rect x="15" y="10" width="1" height="1" fill="#e65706" fill-opacity="0.992"/>
<rect x="16" y="10" width="1" height="1" fill="#f8d3be"/>
<rect x="17" y="10" width="1" height="1" fill="#fbf3eb"/>
<rect x="18" y="10" width="1" height="1" fill="#fcf5ef"/>
<rect x="19" y="10" width="1" height="1" fill="#f4c2a4"/>
<rect x="20" y="10" width="1" height="1" fill="#f3af88"/>
<rect x="21" y="10" width="1" height="1" fill="#eb793a"/>
<rect x="22" y="10" width="1" height="1" fill="#e45c0f"/>
<rect x="23" y="10" width="1" height="1" fill="#e5732d"/>
<rect x="24" y="10" width="1" height="1" fill="#e35d0f"/>
<rect x="1" y="11" width="1" height="1" fill="#eb6b04" fill-opacity="0.235"/>
<rect x="2" y="11" width="1" height="1" fill="#eb6b04" fill-opacity="0.051"/>
<rect x="6" y="11" width="1" height="1" fill="#b04009" fill-opacity="0.035"/>
<rect x="7" y="11" width="1" height="1" fill="#b04009" fill-opacity="0.082"/>
<rect x="9" y="11" width="1" height="1" fill="#b04009" fill-opacity="0.008"/>
<rect x="10" y="11" width="1" height="1" fill="#d45f00" fill-opacity="0.075"/>
<rect x="11" y="11" width="1" height="1" fill="#e26f12" fill-opacity="0.973"/>
<rect x="12" y="11" width="1" height="1" fill="#e47820" fill-opacity="0.992"/>
<rect x="13" y="11" width="1" height="1" fill="#f79a53"/>
<rect x="14" y="11" width="1" height="1" fill="#fa7f22"/>
<rect x="15" y="11" width="1" height="1" fill="#ef6007"/>
<rect x="16" y="11" width="1" height="1" fill="#f5ba9a"/>
<rect x="17" y="11" width="1" height="1" fill="#f8eade"/>
<rect x="18" y="11" width="1" height="1" fill="#fcf4ed"/>
<rect x="19" y="11" width="1" height="1" fill="#fef6f1"/>
<rect x="20" y="11" width="1" height="1" fill="#f5b897"/>
<rect x="21" y="11" width="1" height="1" fill="#e95408" fill-opacity="0.596"/>
<rect x="22" y="11" width="1" height="1" fill="#d26205" fill-opacity="0.075"/>
<rect x="23" y="11" width="1" height="1" fill="#e27d37" fill-opacity="0.255"/>
<rect x="24" y="11" width="1" height="1" fill="#cf690b" fill-opacity="0.42"/>
<rect x="1" y="12" width="1" height="1" fill="#eb6b04" fill-opacity="0.059"/>
<rect x="7" y="12" width="1" height="1" fill="#b04009" fill-opacity="0.016"/>
<rect x="10" y="12" width="1" height="1" fill="#d86100" fill-opacity="0.176"/>
<rect x="11" y="12" width="1" height="1" fill="#e36b0a" fill-opacity="0.941"/>
<rect x="12" y="12" width="1" height="1" fill="#ee8a39" fill-opacity="0.976"/>
<rect x="13" y="12" width="1" height="1" fill="#f6924d" fill-opacity="0.984"/>
<rect x="14" y="12" width="1" height="1" fill="#e9570d"/>
<rect x="15" y="12" width="1" height="1" fill="#ed7a3d"/>
<rect x="16" y="12" width="1" height="1" fill="#f6cdb6"/>
<rect x="17" y="12" width="1" height="1" fill="#fbf3ec"/>
<rect x="18" y="12" width="1" height="1" fill="#f8e8da"/>
<rect x="19" y="12" width="1" height="1" fill="#fcf4ed"/>
<rect x="20" y="12" width="1" height="1" fill="#fdf8f3"/>
<rect x="21" y="12" width="1" height="1" fill="#ec834b"/>
<rect x="22" y="12" width="1" height="1" fill="#e95408" fill-opacity="0.584"/>
<rect x="24" y="12" width="1" height="1" fill="#ffffff" fill-opacity="0.043"/>
<rect x="0" y="13" width="1" height="1" fill="#b04009" fill-opacity="0.004"/>
<rect x="2" y="13" width="1" height="1" fill="#fc7300" fill-opacity="0.004"/>
<rect x="4" y="13" width="1" height="1" fill="#fc7300" fill-opacity="0.004"/>
<rect x="8" y="13" width="1" height="1" fill="#d35f00" fill-opacity="0.027"/>
<rect x="9" y="13" width="1" height="1" fill="#f78c34" fill-opacity="0.165"/>
<rect x="10" y="13" width="1" height="1" fill="#e56c0a" fill-opacity="0.863"/>
<rect x="11" y="13" width="1" height="1" fill="#ed730e" fill-opacity="0.973"/>
<rect x="12" y="13" width="1" height="1" fill="#e95509"/>
<rect x="13" y="13" width="1" height="1" fill="#e66422"/>
<rect x="14" y="13" width="1" height="1" fill="#c77145"/>
<rect x="15" y="13" width="1" height="1" fill="#edcdb9"/>
<rect x="16" y="13" width="1" height="1" fill="#f4dfcf"/>
<rect x="17" y="13" width="1" height="1" fill="#f7e2d0"/>
<rect x="18" y="13" width="1" height="1" fill="#f6e0cd"/>
<rect x="19" y="13" width="1" height="1" fill="#f6dfc9"/>
<rect x="20" y="13" width="1" height="1" fill="#f9ebdf"/>
<rect x="21" y="13" width="1" height="1" fill="#faefe5"/>
<rect x="22" y="13" width="1" height="1" fill="#ee915e"/>
<rect x="23" y="13" width="1" height="1" fill="#e9570d" fill-opacity="0.384"/>
<rect x="0" y="14" width="1" height="1" fill="#dd6200"/>
<rect x="1" y="14" width="1" height="1" fill="#ed6a00"/>
<rect x="2" y="14" width="1" height="1" fill="#f46f00"/>
<rect x="3" y="14" width="1" height="1" fill="#f98627" fill-opacity="0.129"/>
<rect x="4" y="14" width="1" height="1" fill="#ff9a46" fill-opacity="0.129"/>
<rect x="5" y="14" width="1" height="1" fill="#fc7300" fill-opacity="0.067"/>
<rect x="6" y="14" width="1" height="1" fill="#fa7200" fill-opacity="0.051"/>
<rect x="7" y="14" width="1" height="1" fill="#df6500" fill-opacity="0.192"/>
<rect x="8" y="14" width="1" height="1" fill="#dda000" fill-opacity="0.875"/>
<rect x="9" y="14" width="1" height="1" fill="#d66000"/>
<rect x="10" y="14" width="1" height="1" fill="#f28328"/>
<rect x="11" y="14" width="1" height="1" fill="#f88222" fill-opacity="0.98"/>
<rect x="12" y="14" width="1" height="1" fill="#bf5318"/>
<rect x="13" y="14" width="1" height="1" fill="#b2410a"/>
<rect x="14" y="14" width="1" height="1" fill="#b34712"/>
<rect x="15" y="14" width="1" height="1" fill="#f1dcd2"/>
<rect x="16" y="14" width="1" height="1" fill="#f8efea"/>
<rect x="17" y="14" width="1" height="1" fill="#f8ece1"/>
<rect x="18" y="14" width="1" height="1" fill="#f6e2cf"/>
<rect x="19" y="14" width="1" height="1" fill="#efc29e"/>
<rect x="20" y="14" width="1" height="1" fill="#ebab7b"/>
<rect x="21" y="14" width="1" height="1" fill="#eeb389"/>
<rect x="22" y="14" width="1" height="1" fill="#f7ceb6"/>
<rect x="23" y="14" width="1" height="1" fill="#ec6f2d"/>
<rect x="24" y="14" width="1" height="1" fill="#ef834c" fill-opacity="0.157"/>
<rect x="0" y="15" width="1" height="1" fill="#f06d00"/>
<rect x="1" y="15" width="1" height="1" fill="#f6e0cc"/>
<rect x="2" y="15" width="1" height="1" fill="#fac79e"/>
<rect x="3" y="15" width="1" height="1" fill="#e36500"/>
<rect x="4" y="15" width="1" height="1" fill="#e56700"/>
<rect x="5" y="15" width="1" height="1" fill="#da6200"/>
<rect x="6" y="15" width="1" height="1" fill="#d46000"/>
<rect x="7" y="15" width="1" height="1" fill="#ca5b00"/>
<rect x="8" y="15" width="1" height="1" fill="#f9c901"/>
<rect x="9" y="15" width="1" height="1" fill="#fdf600"/>
<rect x="10" y="15" width="1" height="1" fill="#ea6a00"/>
<rect x="11" y="15" width="1" height="1" fill="#f58830"/>
<rect x="12" y="15" width="1" height="1" fill="#f49a52"/>
<rect x="13" y="15" width="1" height="1" fill="#d45c14"/>
<rect x="14" y="15" width="1" height="1" fill="#b4430b"/>
<rect x="15" y="15" width="1" height="1" fill="#e5b998"/>
<rect x="16" y="15" width="1" height="1" fill="#f8ebdf"/>
<rect x="17" y="15" width="1" height="1" fill="#fdfcf9"/>
<rect x="18" y="15" width="1" height="1" fill="#fcf5ef"/>
<rect x="19" y="15" width="1" height="1" fill="#f7e3d1"/>
<rect x="20" y="15" width="1" height="1" fill="#e98143"/>
<rect x="21" y="15" width="1" height="1" fill="#ea6019"/>
<rect x="22" y="15" width="1" height="1" fill="#ef8148"/>
<rect x="23" y="15" width="1" height="1" fill="#ea742e"/>
<rect x="24" y="15" width="1" height="1" fill="#ea5a11"/>
<rect x="0" y="16" width="1" height="1" fill="#f36e00" fill-opacity="0.996"/>
<rect x="1" y="16" width="1" height="1" fill="#f9e8d6"/>
<rect x="2" y="16" width="1" height="1" fill="#fbece1"/>
<rect x="3" y="16" width="1" height="1" fill="#fbefe4"/>
<rect x="4" y="16" width="1" height="1" fill="#fef6f0"/>
<rect x="5" y="16" width="1" height="1" fill="#fef7f1"/>
<rect x="6" y="16" width="1" height="1" fill="#fbe6d0"/>
<rect x="7" y="16" width="1" height="1" fill="#fec89b"/>
<rect x="8" y="16" width="1" height="1" fill="#ed6d00"/>
<rect x="9" y="16" width="1" height="1" fill="#ed7203"/>
<rect x="10" y="16" width="1" height="1" fill="#feb301"/>
<rect x="11" y="16" width="1" height="1" fill="#e76900"/>
<rect x="12" y="16" width="1" height="1" fill="#f29040"/>
<rect x="13" y="16" width="1" height="1" fill="#f49f5a"/>
<rect x="14" y="16" width="1" height="1" fill="#e95509"/>
<rect x="15" y="16" width="1" height="1" fill="#eb6a28"/>
<rect x="16" y="16" width="1" height="1" fill="#eeb188"/>
<rect x="17" y="16" width="1" height="1" fill="#e9b282"/>
<rect x="18" y="16" width="1" height="1" fill="#f4dac3"/>
<rect x="19" y="16" width="1" height="1" fill="#fcf5ef"/>
<rect x="20" y="16" width="1" height="1" fill="#f6ccb2"/>
<rect x="21" y="16" width="1" height="1" fill="#e8560a"/>
<rect x="22" y="16" width="1" height="1" fill="#e95408" fill-opacity="0.325"/>
<rect x="23" y="16" width="1" height="1" fill="#db5d06" fill-opacity="0.184"/>
<rect x="24" y="16" width="1" height="1" fill="#cf6404" fill-opacity="0.463"/>
<rect x="0" y="17" width="1" height="1" fill="#df6400" fill-opacity="0.996"/>
<rect x="1" y="17" width="1" height="1" fill="#fbf1e8"/>
<rect x="2" y="17" width="1" height="1" fill="#fefdfd"/>
<rect x="3" y="17" width="1" height="1" fill="#fdfdfb"/>
<rect x="4" y="17" width="1" height="1" fill="#fffefe"/>
<rect x="5" y="17" width="1" height="1" fill="#fffdfd"/>
<rect x="6" y="17" width="1" height="1" fill="#fffdfc"/>
<rect x="7" y="17" width="1" height="1" fill="#fdfaf6"/>
<rect x="8" y="17" width="1" height="1" fill="#ffbc84"/>
<rect x="9" y="17" width="1" height="1" fill="#df6500"/>
<rect x="10" y="17" width="1" height="1" fill="#f14c03"/>
<rect x="11" y="17" width="1" height="1" fill="#fe6c02"/>
<rect x="12" y="17" width="1" height="1" fill="#e46700"/>
<rect x="13" y="17" width="1" height="1" fill="#ed8a3a"/>
<rect x="14" y="17" width="1" height="1" fill="#ef9a53"/>
<rect x="15" y="17" width="1" height="1" fill="#f07b29"/>
<rect x="16" y="17" width="1" height="1" fill="#f06613"/>
<rect x="17" y="17" width="1" height="1" fill="#e85509"/>
<rect x="18" y="17" width="1" height="1" fill="#e6661d"/>
<rect x="19" y="17" width="1" height="1" fill="#eebd97"/>
<rect x="20" y="17" width="1" height="1" fill="#f7d9c5"/>
<rect x="21" y="17" width="1" height="1" fill="#f7cdb6"/>
<rect x="22" y="17" width="1" height="1" fill="#e95a0e"/>
<rect x="23" y="17" width="1" height="1" fill="#ea864a" fill-opacity="0.188"/>
<rect x="24" y="17" width="1" height="1" fill="#fcf7f2" fill-opacity="0.016"/>
<rect x="0" y="18" width="1" height="1" fill="#e76900" fill-opacity="0.996"/>
<rect x="1" y="18" width="1" height="1" fill="#ffa35b"/>
<rect x="2" y="18" width="1" height="1" fill="#fff6f0"/>
<rect x="3" y="18" width="1" height="1" fill="#fef0e5"/>
<rect x="4" y="18" width="1" height="1" fill="#fdf8f5"/>
<rect x="5" y="18" width="1" height="1" fill="#fef9ee"/>
<rect x="6" y="18" width="1" height="1" fill="#fff5ed"/>
<rect x="7" y="18" width="1" height="1" fill="#fef1e6"/>
<rect x="8" y="18" width="1" height="1" fill="#fde2cc"/>
<rect x="9" y="18" width="1" height="1" fill="#ffa65b"/>
<rect x="10" y="18" width="1" height="1" fill="#e06500"/>
<rect x="11" y="18" width="1" height="1" fill="#d83a04"/>
<rect x="12" y="18" width="1" height="1" fill="#da4604"/>
<rect x="13" y="18" width="1" height="1" fill="#e76900"/>
<rect x="14" y="18" width="1" height="1" fill="#ed8937"/>
<rect x="15" y="18" width="1" height="1" fill="#f0964c"/>
<rect x="16" y="18" width="1" height="1" fill="#ef8d3b"/>
<rect x="17" y="18" width="1" height="1" fill="#e96b01"/>
<rect x="18" y="18" width="1" height="1" fill="#e65607" fill-opacity="0.49"/>
<rect x="19" y="18" width="1" height="1" fill="#eb6925"/>
<rect x="20" y="18" width="1" height="1" fill="#e07327"/>
<rect x="21" y="18" width="1" height="1" fill="#e65b0e"/>
<rect x="22" y="18" width="1" height="1" fill="#ed7233"/>
<rect x="23" y="18" width="1" height="1" fill="#f18d5b"/>
<rect x="24" y="18" width="1" height="1" fill="#fce8dd" fill-opacity="0.063"/>
<rect x="0" y="19" width="1" height="1" fill="#fc7300" fill-opacity="0.133"/>
<rect x="1" y="19" width="1" height="1" fill="#f26d00"/>
<rect x="2" y="19" width="1" height="1" fill="#e76900"/>
<rect x="3" y="19" width="1" height="1" fill="#de6500"/>
<rect x="4" y="19" width="1" height="1" fill="#ec6a01"/>
<rect x="5" y="19" width="1" height="1" fill="#e56801"/>
<rect x="6" y="19" width="1" height="1" fill="#db6401"/>
<rect x="7" y="19" width="1" height="1" fill="#d56000"/>
<rect x="8" y="19" width="1" height="1" fill="#d35f00"/>
<rect x="9" y="19" width="1" height="1" fill="#c95a00"/>
<rect x="10" y="19" width="1" height="1" fill="#ce5d00"/>
<rect x="11" y="19" width="1" height="1" fill="#db6200"/>
<rect x="12" y="19" width="1" height="1" fill="#b23007"/>
<rect x="13" y="19" width="1" height="1" fill="#b43207"/>
<rect x="14" y="19" width="1" height="1" fill="#db6200"/>
<rect x="15" y="19" width="1" height="1" fill="#d96404"/>
<rect x="16" y="19" width="1" height="1" fill="#d25e00"/>
<rect x="17" y="19" width="1" height="1" fill="#da6300"/>
<rect x="18" y="19" width="1" height="1" fill="#e47519" fill-opacity="0.059"/>
<rect x="19" y="19" width="1" height="1" fill="#e65608" fill-opacity="0.137"/>
<rect x="20" y="19" width="1" height="1" fill="#e15d0b"/>
<rect x="21" y="19" width="1" height="1" fill="#d46205" fill-opacity="0.133"/>
<rect x="22" y="19" width="1" height="1" fill="#e95408" fill-opacity="0.173"/>
<rect x="23" y="19" width="1" height="1" fill="#e95409"/>
<rect x="24" y="19" width="1" height="1" fill="#f29e73"/>
<rect x="11" y="20" width="1" height="1" fill="#3bc800" fill-opacity="0.035"/>
<rect x="12" y="20" width="1" height="1" fill="#3bc800" fill-opacity="0.035"/>
<rect x="13" y="20" width="1" height="1" fill="#3bc800" fill-opacity="0.035"/>
<rect x="14" y="20" width="1" height="1" fill="#3bc800" fill-opacity="0.035"/>
<rect x="15" y="20" width="1" height="1" fill="#3bc800" fill-opacity="0.035"/>
<rect x="16" y="20" width="1" height="1" fill="#3bc800" fill-opacity="0.035"/>
</svg>