<?xml version="1.0" encoding="UTF-8" standalone="no"?>
<svg xmlns="http://www.w3.org/2000/svg" width="26" height="21" shape-rendering="crispEdges">
<rect x="2" y="0" width="1" height="1" fill="#946b00" fill-opacity="0.012"/>
<rect x="12" y="0" width="1" height="1" fill="#e88e00" fill-opacity="0.459"/>
<rect x="13" y="0" width="1" height="1" fill="#e48f00" fill-opacity="0.878"/>
<rect x="14" y="0" width="1" height="1" fill="#e28f04"/>
<rect x="15" y="0" width="1" height="1" fill="#e08f03"/>
<rect x="16" y="0" width="1" height="1" fill="#dd9306"/>
<rect x="17" y="0" width="1" height="1" fill="#df960b"/>
<rect x="18" y="0" width="1" height="1" fill="#e09508"/>
<rect x="19" y="0" width="1" height="1" fill="#e39303"/>
<rect x="20" y="0" width="1" height="1" fill="#e59103"/>
<rect x="21" y="0" width="1" height="1" fill="#e49102"/>
<rect x="22" y="0" width="1" height="1" fill="#e29308"/>
<rect x="23" y="0" width="1" height="1" fill="#e29307"/>
<rect x="24" y="0" width="1" height="1" fill="#e78e01"/>
<rect x="11" y="1" width="1" height="1" fill="#e88e00" fill-opacity="0.565"/>
<rect x="12" y="1" width="1" height="1" fill="#e79610"/>
<rect x="13" y="1" width="1" height="1" fill="#e9d290"/>
<rect x="14" y="1" width="1" height="1" fill="#e6ce83"/>
<rect x="15" y="1" width="1" height="1" fill="#ecdeb8"/>
<rect x="16" y="1" width="1" height="1" fill="#f0e7cd"/>
<rect x="17" y="1" width="1" height="1" fill="#f3e8cb"/>
<rect x="18" y="1" width="1" height="1" fill="#f4ebd0"/>
<rect x="19" y="1" width="1" height="1" fill="#f5eacb"/>
<rect x="20" y="1" width="1" height="1" fill="#f1dfb2"/>
<rect x="21" y="1" width="1" height="1" fill="#e7d49b"/>
<rect x="22" y="1" width="1" height="1" fill="#e1c274"/>
<rect x="23" y="1" width="1" height="1" fill="#e89c1d"/>
<rect x="24" y="1" width="1" height="1" fill="#da9700" fill-opacity="0.243"/>
<rect x="10" y="2" width="1" height="1" fill="#e88e00" fill-opacity="0.569"/>
<rect x="11" y="2" width="1" height="1" fill="#e39308"/>
<rect x="12" y="2" width="1" height="1" fill="#e8d7a1"/>
<rect x="13" y="2" width="1" height="1" fill="#f4e7b8"/>
<rect x="14" y="2" width="1" height="1" fill="#f6e9c7"/>
<rect x="15" y="2" width="1" height="1" fill="#f9f2e4"/>
<rect x="16" y="2" width="1" height="1" fill="#fefdfa"/>
<rect x="17" y="2" width="1" height="1" fill="#fefefb"/>
<rect x="18" y="2" width="1" height="1" fill="#f7f2e3"/>
<rect x="19" y="2" width="1" height="1" fill="#e4d49f"/>
<rect x="20" y="2" width="1" height="1" fill="#e3ce89"/>
<rect x="21" y="2" width="1" height="1" fill="#e7af30"/>
<rect x="22" y="2" width="1" height="1" fill="#e39401" fill-opacity="0.816"/>
<rect x="23" y="2" width="1" height="1" fill="#e78f00" fill-opacity="0.365"/>
<rect x="9" y="3" width="1" height="1" fill="#e88e00" fill-opacity="0.549"/>
<rect x="10" y="3" width="1" height="1" fill="#e19606"/>
<rect x="11" y="3" width="1" height="1" fill="#ebd797"/>
<rect x="12" y="3" width="1" height="1" fill="#f7ebc0"/>
<rect x="13" y="3" width="1" height="1" fill="#f9edc8"/>
<rect x="14" y="3" width="1" height="1" fill="#faf3e6"/>
<rect x="15" y="3" width="1" height="1" fill="#f9f1df"/>
<rect x="16" y="3" width="1" height="1" fill="#f5f0de"/>
<rect x="17" y="3" width="1" height="1" fill="#e6d8aa"/>
<rect x="18" y="3" width="1" height="1" fill="#dec677"/>
<rect x="19" y="3" width="1" height="1" fill="#e5c46b"/>
<rect x="20" y="3" width="1" height="1" fill="#e6a017"/>
<rect x="21" y="3" width="1" height="1" fill="#e59703" fill-opacity="0.635"/>
<rect x="22" y="3" width="1" height="1" fill="#ce9f00" fill-opacity="0.322"/>
<rect x="23" y="3" width="1" height="1" fill="#ce9f00" fill-opacity="0.004"/>
<rect x="4" y="4" width="1" height="1" fill="#d5a406" fill-opacity="0.004"/>
<rect x="5" y="4" width="1" height="1" fill="#d5a406" fill-opacity="0.012"/>
<rect x="7" y="4" width="1" height="1" fill="#e57701" fill-opacity="0.043"/>
<rect x="8" y="4" width="1" height="1" fill="#e78a00" fill-opacity="0.478"/>
<rect x="9" y="4" width="1" height="1" fill="#e49507"/>
<rect x="10" y="4" width="1" height="1" fill="#e8d289"/>
<rect x="11" y="4" width="1" height="1" fill="#f7ecc7"/>
<rect x="12" y="4" width="1" height="1" fill="#fbf2de"/>
<rect x="13" y="4" width="1" height="1" fill="#faf4e7"/>
<rect x="14" y="4" width="1" height="1" fill="#f9f1e0"/>
<rect x="15" y="4" width="1" height="1" fill="#ebe0bd"/>
<rect x="16" y="4" width="1" height="1" fill="#e6dab0"/>
<rect x="17" y="4" width="1" height="1" fill="#e0c980"/>
<rect x="18" y="4" width="1" height="1" fill="#dbb140"/>
<rect x="19" y="4" width="1" height="1" fill="#dc9407"/>
<rect x="20" y="4" width="1" height="1" fill="#e39805" fill-opacity="0.416"/>
<rect x="21" y="4" width="1" height="1" fill="#cda001" fill-opacity="0.318"/>
<rect x="22" y="4" width="1" height="1" fill="#ce9f00" fill-opacity="0.082"/>
<rect x="3" y="5" width="1" height="1" fill="#d5a406"/>
<rect x="4" y="5" width="1" height="1" fill="#d5a406" fill-opacity="0.184"/>
<rect x="5" y="5" width="1" height="1" fill="#d5a406" fill-opacity="0.02"/>
<rect x="7" y="5" width="1" height="1" fill="#e57701" fill-opacity="0.361"/>
<rect x="8" y="5" width="1" height="1" fill="#e68201"/>
<rect x="9" y="5" width="1" height="1" fill="#f0cf97"/>
<rect x="10" y="5" width="1" height="1" fill="#f1d9ad"/>
<rect x="11" y="5" width="1" height="1" fill="#fcf1d7"/>
<rect x="12" y="5" width="1" height="1" fill="#fbf4e5"/>
<rect x="13" y="5" width="1" height="1" fill="#fcf6ec"/>
<rect x="14" y="5" width="1" height="1" fill="#f9f5e9"/>
<rect x="15" y="5" width="1" height="1" fill="#f8f5e8"/>
<rect x="16" y="5" width="1" height="1" fill="#f3e9c6"/>
<rect x="17" y="5" width="1" height="1" fill="#f2de9d"/>
<rect x="18" y="5" width="1" height="1" fill="#ebcb6a"/>
<rect x="19" y="5" width="1" height="1" fill="#e4a921"/>
<rect x="20" y="5" width="1" height="1" fill="#d79907"/>
<rect x="21" y="5" width="1" height="1" fill="#b89104" fill-opacity="0.404"/>
<rect x="22" y="5" width="1" height="1" fill="#af8801" fill-opacity="0.016"/>
<rect x="2" y="6" width="1" height="1" fill="#d5a406"/>
<rect x="3" y="6" width="1" height="1" fill="#d5a406" fill-opacity="0.314"/>
<rect x="4" y="6" width="1" height="1" fill="#d5a406" fill-opacity="0.051"/>
<rect x="6" y="6" width="1" height="1" fill="#e57701" fill-opacity="0.004"/>
<rect x="7" y="6" width="1" height="1" fill="#e67c01" fill-opacity="0.796"/>
<rect x="8" y="6" width="1" height="1" fill="#e27904"/>
<rect x="9" y="6" width="1" height="1" fill="#ebb172"/>
<rect x="10" y="6" width="1" height="1" fill="#f4d7ad"/>
<rect x="11" y="6" width="1" height="1" fill="#f4dda8"/>
<rect x="12" y="6" width="1" height="1" fill="#f6dda8"/>
<rect x="13" y="6" width="1" height="1" fill="#fbf3dc"/>
<rect x="14" y="6" width="1" height="1" fill="#fdfbf2"/>
<rect x="15" y="6" width="1" height="1" fill="#fffefc"/>
<rect x="16" y="6" width="1" height="1" fill="#fefdf7"/>
<rect x="17" y="6" width="1" height="1" fill="#fbf0cb"/>
<rect x="18" y="6" width="1" height="1" fill="#f3d980"/>
<rect x="19" y="6" width="1" height="1" fill="#ecd074"/>
<rect x="20" y="6" width="1" height="1" fill="#e5af2b"/>
<rect x="21" y="6" width="1" height="1" fill="#d4a00b" fill-opacity="0.878"/>
<rect x="22" y="6" width="1" height="1" fill="#d1a506" fill-opacity="0.286"/>
<rect x="23" y="6" width="1" height="1" fill="#fccd28" fill-opacity="0.035"/>
<rect x="1" y="7" width="1" height="1" fill="#d5a406"/>
<rect x="2" y="7" width="1" height="1" fill="#d5a406"/>
<rect x="3" y="7" width="1" height="1" fill="#d5a406" fill-opacity="0.078"/>
<rect x="6" y="7" width="1" height="1" fill="#e57701" fill-opacity="0.024"/>
<rect x="7" y="7" width="1" height="1" fill="#e67c01" fill-opacity="0.965"/>
<rect x="8" y="7" width="1" height="1" fill="#e57905"/>
<rect x="9" y="7" width="1" height="1" fill="#e6800f"/>
<rect x="10" y="7" width="1" height="1" fill="#e88d07"/>
<rect x="11" y="7" width="1" height="1" fill="#e88e00" fill-opacity="0.827"/>
<rect x="12" y="7" width="1" height="1" fill="#e59205"/>
<rect x="13" y="7" width="1" height="1" fill="#ecb145"/>
<rect x="14" y="7" width="1" height="1" fill="#e6d49c"/>
<rect x="15" y="7" width="1" height="1" fill="#f7f1e0"/>
<rect x="16" y="7" width="1" height="1" fill="#fbf9f2"/>
<rect x="17" y="7" width="1" height="1" fill="#faf8f0"/>
<rect x="18" y="7" width="1" height="1" fill="#faf1d0"/>
<rect x="19" y="7" width="1" height="1" fill="#f5e29d"/>
<rect x="20" y="7" width="1" height="1" fill="#e5ca6d"/>
<rect x="21" y="7" width="1" height="1" fill="#e1b015"/>
<rect x="22" y="7" width="1" height="1" fill="#e4b00f" fill-opacity="0.894"/>
<rect x="23" y="7" width="1" height="1" fill="#ffeba5" fill-opacity="0.157"/>
<rect x="24" y="7" width="1" height="1" fill="#ffefb9" fill-opacity="0.024"/>
<rect x="1" y="8" width="1" height="1" fill="#d5a406" fill-opacity="0.329"/>
<rect x="2" y="8" width="1" height="1" fill="#d5a406"/>
<rect x="3" y="8" width="1" height="1" fill="#d5a406" fill-opacity="0.992"/>
<rect x="4" y="8" width="1" height="1" fill="#d5a406" fill-opacity="0.012"/>
<rect x="6" y="8" width="1" height="1" fill="#e57701" fill-opacity="0.043"/>
<rect x="7" y="8" width="1" height="1" fill="#e57801" fill-opacity="0.929"/>
<rect x="8" y="8" width="1" height="1" fill="#e57701"/>
<rect x="9" y="8" width="1" height="1" fill="#e67d01" fill-opacity="0.824"/>
<rect x="10" y="8" width="1" height="1" fill="#e88a00" fill-opacity="0.129"/>
<rect x="12" y="8" width="1" height="1" fill="#e88e00" fill-opacity="0.016"/>
<rect x="13" y="8" width="1" height="1" fill="#e88e00" fill-opacity="0.549"/>
<rect x="14" y="8" width="1" height="1" fill="#eda633"/>
<rect x="15" y="8" width="1" height="1" fill="#f1e8cd"/>
<rect x="16" y="8" width="1" height="1" fill="#f3ecd7"/>
<rect x="17" y="8" width="1" height="1" fill="#f5f0dd"/>
<rect x="18" y="8" width="1" height="1" fill="#eee6ca"/>
<rect x="19" y="8" width="1" height="1" fill="#f0e8cf"/>
<rect x="20" y="8" width="1" height="1" fill="#f4e8c6"/>
<rect x="21" y="8" width="1" height="1" fill="#e4c456"/>
<rect x="22" y="8" width="1" height="1" fill="#deb015"/>
<rect x="23" y="8" width="1" height="1" fill="#f2c22c"/>
<rect x="24" y="8" width="1" height="1" fill="#fdeec2" fill-opacity="0.137"/>
<rect x="0" y="9" width="1" height="1" fill="#ffffff" fill-opacity="0.008"/>
<rect x="2" y="9" width="1" height="1" fill="#d5a406"/>
<rect x="3" y="9" width="1" height="1" fill="#d5a406" fill-opacity="0.373"/>
<rect x="4" y="9" width="1" height="1" fill="#d5a406" fill-opacity="0.043"/>
<rect x="6" y="9" width="1" height="1" fill="#e57701" fill-opacity="0.027"/>
<rect x="7" y="9" width="1" height="1" fill="#e57701" fill-opacity="0.906"/>
<rect x="8" y="9" width="1" height="1" fill="#e57801"/>
<rect x="9" y="9" width="1" height="1" fill="#e57801" fill-opacity="0.122"/>
<rect x="10" y="9" width="1" height="1" fill="#d09600" fill-opacity="0.024"/>
<rect x="11" y="9" width="1" height="1" fill="#f6b200" fill-opacity="0.839"/>
<rect x="12" y="9" width="1" height="1" fill="#f6b300" fill-opacity="0.976"/>
<rect x="13" y="9" width="1" height="1" fill="#dba000" fill-opacity="0.933"/>
<rect x="14" y="9" width="1" height="1" fill="#e29500" fill-opacity="0.961"/>
<rect x="15" y="9" width="1" height="1" fill="#e89b1f"/>
<rect x="16" y="9" width="1" height="1" fill="#ece0bb"/>
<rect x="17" y="9" width="1" height="1" fill="#f4eeda"/>
<rect x="18" y="9" width="1" height="1" fill="#e5d7a7"/>
<rect x="19" y="9" width="1" height="1" fill="#e4c978"/>
<rect x="20" y="9" width="1" height="1" fill="#ebd9a5"/>
<rect x="21" y="9" width="1" height="1" fill="#eadbac"/>
<rect x="22" y="9" width="1" height="1" fill="#e6cc7f"/>
<rect x="23" y="9" width="1" height="1" fill="#e2b524"/>
<rect x="24" y="9" width="1" height="1" fill="#f5c145"/>
<rect x="0" y="10" width="1" height="1" fill="#ffffff" fill-opacity="0.027"/>
<rect x="1" y="10" width="1" height="1" fill="#d5a406"/>
<rect x="2" y="10" width="1" height="1" fill="#d5a406" fill-opacity="0.4"/>
<rect x="3" y="10" width="1" height="1" fill="#d5a406" fill-opacity="0.047"/>
<rect x="6" y="10" width="1" height="1" fill="#e57701" fill-opacity="0.043"/>
<rect x="7" y="10" width="1" height="1" fill="#e57701" fill-opacity="0.776"/>
<rect x="8" y="10" width="1" height="1" fill="#e57701" fill-opacity="0.263"/>
<rect x="10" y="10" width="1" height="1" fill="#e28e00" fill-opacity="0.051"/>
<rect x="11" y="10" width="1" height="1" fill="#e6a800" fill-opacity="0.925"/>
<rect x="12" y="10" width="1" height="1" fill="#fab500" fill-opacity="0.992"/>
<rect x="13" y="10" width="1" height="1" fill="#ffbb0a" fill-opacity="0.941"/>
<rect x="14" y="10" width="1" height="1" fill="#edac00" fill-opacity="0.918"/>
<rect x="15" y="10" width="1" height="1" fill="#e69200" fill-opacity="0.992"/>
<rect x="16" y="10" width="1" height="1" fill="#f4dca8"/>
<rect x="17" y="10" width="1" height="1" fill="#f6eed1"/>
<rect x="18" y="10" width="1" height="1" fill="#f9f5ea"/>
<rect x="19" y="10" width="1" height="1" fill="#eed298"/>
<rect x="20" y="10" width="1" height="1" fill="#eec676"/>
<rect x="21" y="10" width="1" height="1" fill="#e6a432"/>
<rect x="22" y="10" width="1" height="1" fill="#df9504"/>
<rect x="23" y="10" width="1" height="1" fill="#e5a711"/>
<rect x="24" y="10" width="1" height="1" fill="#de9704"/>
<rect x="1" y="11" width="1" height="1" fill="#c49505" fill-opacity="0.286"/>
<rect x="2" y="11" width="1" height="1" fill="#aa7c02" fill-opacity="0.153"/>
<rect x="3" y="11" width="1" height="1" fill="#9d6c00" fill-opacity="0.024"/>
<rect x="6" y="11" width="1" height="1" fill="#da7301" fill-opacity="0.039"/>
<rect x="7" y="11" width="1" height="1" fill="#e57701" fill-opacity="0.082"/>
<rect x="9" y="11" width="1" height="1" fill="#e57701" fill-opacity="0.008"/>
<rect x="10" y="11" width="1" height="1" fill="#d49900" fill-opacity="0.075"/>
<rect x="11" y="11" width="1" height="1" fill="#f4b100" fill-opacity="0.973"/>
<rect x="12" y="11" width="1" height="1" fill="#fbb708" fill-opacity="0.992"/>
<rect x="13" y="11" width="1" height="1" fill="#ffda86"/>
<rect x="14" y="11" width="1" height="1" fill="#e8990d"/>
<rect x="15" y="11" width="1" height="1" fill="#f09d00"/>
<rect x="16" y="11" width="1" height="1" fill="#f1cd84"/>
<rect x="17" y="11" width="1" height="1" fill="#f2df9d"/>
<rect x="18" y="11" width="1" height="1" fill="#f8f5e9"/>
<rect x="19" y="11" width="1" height="1" fill="#fdf6e7"/>
<rect x="20" y="11" width="1" height="1" fill="#f3cc80"/>
<rect x="21" y="11" width="1" height="1" fill="#e89202" fill-opacity="0.62"/>
<rect x="22" y="11" width="1" height="1" fill="#b88800" fill-opacity="0.098"/>
<rect x="23" y="11" width="1" height="1" fill="#ecb100" fill-opacity="0.302"/>
<rect x="24" y="11" width="1" height="1" fill="#b68900" fill-opacity="0.514"/>
<rect x="1" y="12" width="1" height="1" fill="#d5a406" fill-opacity="0.059"/>
<rect x="7" y="12" width="1" height="1" fill="#e57701" fill-opacity="0.016"/>
<rect x="10" y="12" width="1" height="1" fill="#d89e00" fill-opacity="0.176"/>
<rect x="11" y="12" width="1" height="1" fill="#edac00" fill-opacity="0.941"/>
<rect x="12" y="12" width="1" height="1" fill="#ffc428" fill-opacity="0.976"/>
<rect x="13" y="12" width="1" height="1" fill="#f7bb43" fill-opacity="0.988"/>
<rect x="14" y="12" width="1" height="1" fill="#e89005"/>
<rect x="15" y="12" width="1" height="1" fill="#eca637"/>
<rect x="16" y="12" width="1" height="1" fill="#f1d699"/>
<rect x="17" y="12" width="1" height="1" fill="#f5e4ad"/>
<rect x="18" y="12" width="1" height="1" fill="#f1e9d0"/>
<rect x="19" y="12" width="1" height="1" fill="#f9f4e7"/>
<rect x="20" y="12" width="1" height="1" fill="#f8f0d2"/>
<rect x="21" y="12" width="1" height="1" fill="#e9af38"/>
<rect x="22" y="12" width="1" height="1" fill="#e88e00" fill-opacity="0.588"/>
<rect x="24" y="12" width="1" height="1" fill="#ffffff" fill-opacity="0.059"/>
<rect x="0" y="13" width="1" height="1" fill="#e57701" fill-opacity="0.004"/>
<rect x="2" y="13" width="1" height="1" fill="#fcb800" fill-opacity="0.004"/>
<rect x="4" y="13" width="1" height="1" fill="#fcb800" fill-opacity="0.004"/>
<rect x="7" y="13" width="1" height="1" fill="#b18400" fill-opacity="0.012"/>
<rect x="8" y="13" width="1" height="1" fill="#e29000" fill-opacity="0.165"/>
<rect x="9" y="13" width="1" height="1" fill="#ffb815" fill-opacity="0.349"/>
<rect x="10" y="13" width="1" height="1" fill="#f1af02" fill-opacity="0.875"/>
<rect x="11" y="13" width="1" height="1" fill="#fbb600" fill-opacity="0.973"/>
<rect x="12" y="13" width="1" height="1" fill="#e88e01"/>
<rect x="13" y="13" width="1" height="1" fill="#eb981b"/>
<rect x="14" y="13" width="1" height="1" fill="#eb9a3f"/>
<rect x="15" y="13" width="1" height="1" fill="#f0d7af"/>
<rect x="16" y="13" width="1" height="1" fill="#efe0bb"/>
<rect x="17" y="13" width="1" height="1" fill="#ede1b9"/>
<rect x="18" y="13" width="1" height="1" fill="#ece0bb"/>
<rect x="19" y="13" width="1" height="1" fill="#ebdcac"/>
<rect x="20" y="13" width="1" height="1" fill="#f2ead2"/>
<rect x="21" y="13" width="1" height="1" fill="#f2e0a2"/>
<rect x="22" y="13" width="1" height="1" fill="#ebb648"/>
<rect x="23" y="13" width="1" height="1" fill="#e99208" fill-opacity="0.388"/>
<rect x="0" y="14" width="1" height="1" fill="#c98400"/>
<rect x="1" y="14" width="1" height="1" fill="#dc9000"/>
<rect x="2" y="14" width="1" height="1" fill="#d19200"/>
<rect x="3" y="14" width="1" height="1" fill="#e0a717" fill-opacity="0.184"/>
<rect x="4" y="14" width="1" height="1" fill="#e3af31" fill-opacity="0.173"/>
<rect x="5" y="14" width="1" height="1" fill="#f7b400" fill-opacity="0.071"/>
<rect x="6" y="14" width="1" height="1" fill="#cd9400" fill-opacity="0.086"/>
<rect x="7" y="14" width="1" height="1" fill="#dd9d00" fill-opacity="0.216"/>
<rect x="8" y="14" width="1" height="1" fill="#daad00" fill-opacity="0.937"/>
<rect x="9" y="14" width="1" height="1" fill="#d38a00"/>
<rect x="10" y="14" width="1" height="1" fill="#ffbb17"/>
<rect x="11" y="14" width="1" height="1" fill="#ffc01c" fill-opacity="0.98"/>
<rect x="12" y="14" width="1" height="1" fill="#ea8810"/>
<rect x="13" y="14" width="1" height="1" fill="#e57802"/>
<rect x="14" y="14" width="1" height="1" fill="#e67c0a"/>
<rect x="15" y="14" width="1" height="1" fill="#f9e4ca"/>
<rect x="16" y="14" width="1" height="1" fill="#fbf2e5"/>
<rect x="17" y="14" width="1" height="1" fill="#f4ebd8"/>
<rect x="18" y="14" width="1" height="1" fill="#ede2bf"/>
<rect x="19" y="14" width="1" height="1" fill="#e3c87f"/>
<rect x="20" y="14" width="1" height="1" fill="#e2bc4b"/>
<rect x="21" y="14" width="1" height="1" fill="#e5c056"/>
<rect x="22" y="14" width="1" height="1" fill="#f1d386"/>
<rect x="23" y="14" width="1" height="1" fill="#eda321"/>
<rect x="24" y="14" width="1" height="1" fill="#f0b559" fill-opacity="0.169"/>
<rect x="0" y="15" width="1" height="1" fill="#cc7c00"/>
<rect x="1" y="15" width="1" height="1" fill="#f5c65f"/>
<rect x="2" y="15" width="1" height="1" fill="#f6c840"/>
<rect x="3" y="15" width="1" height="1" fill="#d28a00"/>
<rect x="4" y="15" width="1" height="1" fill="#db8b00"/>
<rect x="5" y="15" width="1" height="1" fill="#d68e00"/>
<rect x="6" y="15" width="1" height="1" fill="#cd8400"/>
<rect x="7" y="15" width="1" height="1" fill="#db8d00"/>
<rect x="8" y="15" width="1" height="1" fill="#f8cb05"/>
<rect x="9" y="15" width="1" height="1" fill="#ffd703"/>
<rect x="10" y="15" width="1" height="1" fill="#df9000"/>
<rect x="11" y="15" width="1" height="1" fill="#ffc326"/>
<rect x="12" y="15" width="1" height="1" fill="#fdc949"/>
<rect x="13" y="15" width="1" height="1" fill="#ee950d"/>
<rect x="14" y="15" width="1" height="1" fill="#e57a03"/>
<rect x="15" y="15" width="1" height="1" fill="#e3c17f"/>
<rect x="16" y="15" width="1" height="1" fill="#f0d98c"/>
<rect x="17" y="15" width="1" height="1" fill="#f9ebbe"/>
<rect x="18" y="15" width="1" height="1" fill="#f8f4e6"/>
<rect x="19" y="15" width="1" height="1" fill="#eee4c1"/>
<rect x="20" y="15" width="1" height="1" fill="#e0a737"/>
<rect x="21" y="15" width="1" height="1" fill="#eb9c10"/>
<rect x="22" y="15" width="1" height="1" fill="#f1b54b"/>
<rect x="23" y="15" width="1" height="1" fill="#f1ad11"/>
<rect x="24" y="15" width="1" height="1" fill="#e99209"/>
<rect x="0" y="16" width="1" height="1" fill="#d47b00"/>
<rect x="1" y="16" width="1" height="1" fill="#f7d179"/>
<rect x="2" y="16" width="1" height="1" fill="#f8e9b5"/>
<rect x="3" y="16" width="1" height="1" fill="#fae9b8"/>
<rect x="4" y="16" width="1" height="1" fill="#fceab8"/>
<rect x="5" y="16" width="1" height="1" fill="#fcdb77"/>
<rect x="6" y="16" width="1" height="1" fill="#f9cd53"/>
<rect x="7" y="16" width="1" height="1" fill="#fdb20a"/>
<rect x="8" y="16" width="1" height="1" fill="#d37c00"/>
<rect x="9" y="16" width="1" height="1" fill="#f17e00"/>
<rect x="10" y="16" width="1" height="1" fill="#fa7a00"/>
<rect x="11" y="16" width="1" height="1" fill="#e09600"/>
<rect x="12" y="16" width="1" height="1" fill="#ffc733"/>
<rect x="13" y="16" width="1" height="1" fill="#ffce4d"/>
<rect x="14" y="16" width="1" height="1" fill="#e88e01"/>
<rect x="15" y="16" width="1" height="1" fill="#eb9c21"/>
<rect x="16" y="16" width="1" height="1" fill="#e4c279"/>
<rect x="17" y="16" width="1" height="1" fill="#dbbb56"/>
<rect x="18" y="16" width="1" height="1" fill="#e9cd6e"/>
<rect x="19" y="16" width="1" height="1" fill="#f6ebc4"/>
<rect x="20" y="16" width="1" height="1" fill="#f2daa9"/>
<rect x="21" y="16" width="1" height="1" fill="#e58f02"/>
<rect x="22" y="16" width="1" height="1" fill="#e78e00" fill-opacity="0.325"/>
<rect x="23" y="16" width="1" height="1" fill="#c78a00" fill-opacity="0.216"/>
<rect x="24" y="16" width="1" height="1" fill="#b38700" fill-opacity="0.557"/>
<rect x="0" y="17" width="1" height="1" fill="#d87900"/>
<rect x="1" y="17" width="1" height="1" fill="#fbcf78"/>
<rect x="2" y="17" width="1" height="1" fill="#fff6de"/>
<rect x="3" y="17" width="1" height="1" fill="#fff2d1"/>
<rect x="4" y="17" width="1" height="1" fill="#fffbf3"/>
<rect x="5" y="17" width="1" height="1" fill="#fffffe"/>
<rect x="6" y="17" width="1" height="1" fill="#fefaee"/>
<rect x="7" y="17" width="1" height="1" fill="#fdf1ca"/>
<rect x="8" y="17" width="1" height="1" fill="#feba12"/>
<rect x="9" y="17" width="1" height="1" fill="#ce8400"/>
<rect x="10" y="17" width="1" height="1" fill="#f44300"/>
<rect x="11" y="17" width="1" height="1" fill="#fa4800"/>
<rect x="12" y="17" width="1" height="1" fill="#e3a400"/>
<rect x="13" y="17" width="1" height="1" fill="#ffc328"/>
<rect x="14" y="17" width="1" height="1" fill="#ffcc43"/>
<rect x="15" y="17" width="1" height="1" fill="#f9b61d"/>
<rect x="16" y="17" width="1" height="1" fill="#f0a00e"/>
<rect x="17" y="17" width="1" height="1" fill="#e68e01"/>
<rect x="18" y="17" width="1" height="1" fill="#df9916"/>
<rect x="19" y="17" width="1" height="1" fill="#e2c369"/>
<rect x="20" y="17" width="1" height="1" fill="#f2dca5"/>
<rect x="21" y="17" width="1" height="1" fill="#f5dcb1"/>
<rect x="22" y="17" width="1" height="1" fill="#e59007"/>
<rect x="23" y="17" width="1" height="1" fill="#f4bb24" fill-opacity="0.22"/>
<rect x="24" y="17" width="1" height="1" fill="#fffce5" fill-opacity="0.024"/>
<rect x="0" y="18" width="1" height="1" fill="#c57c00"/>
<rect x="1" y="18" width="1" height="1" fill="#ffaa08"/>
<rect x="2" y="18" width="1" height="1" fill="#ffcc48"/>
<rect x="3" y="18" width="1" height="1" fill="#fee194"/>
<rect x="4" y="18" width="1" height="1" fill="#fff4d4"/>
<rect x="5" y="18" width="1" height="1" fill="#fef2cc"/>
<rect x="6" y="18" width="1" height="1" fill="#fefdf8"/>
<rect x="7" y="18" width="1" height="1" fill="#fde9ae"/>
<rect x="8" y="18" width="1" height="1" fill="#fcf6e8"/>
<rect x="9" y="18" width="1" height="1" fill="#ffcd4b"/>
<rect x="10" y="18" width="1" height="1" fill="#cf8100"/>
<rect x="11" y="18" width="1" height="1" fill="#cf3300"/>
<rect x="12" y="18" width="1" height="1" fill="#cb5000"/>
<rect x="13" y="18" width="1" height="1" fill="#e7a900"/>
<rect x="14" y="18" width="1" height="1" fill="#ffc325"/>
<rect x="15" y="18" width="1" height="1" fill="#ffca3d"/>
<rect x="16" y="18" width="1" height="1" fill="#ffc62b"/>
<rect x="17" y="18" width="1" height="1" fill="#da8f00"/>
<rect x="18" y="18" width="1" height="1" fill="#e18900" fill-opacity="0.533"/>
<rect x="19" y="18" width="1" height="1" fill="#e89b1e"/>
<rect x="20" y="18" width="1" height="1" fill="#ce981c"/>
<rect x="21" y="18" width="1" height="1" fill="#dd9006"/>
<rect x="22" y="18" width="1" height="1" fill="#eca12c"/>
<rect x="23" y="18" width="1" height="1" fill="#f2bc67"/>
<rect x="24" y="18" width="1" height="1" fill="#fdf4e7" fill-opacity="0.141"/>
<rect x="0" y="19" width="1" height="1" fill="#d49700" fill-opacity="0.357"/>
<rect x="1" y="19" width="1" height="1" fill="#cf7f00"/>
<rect x="2" y="19" width="1" height="1" fill="#e18600"/>
<rect x="3" y="19" width="1" height="1" fill="#d28300"/>
<rect x="4" y="19" width="1" height="1" fill="#d48500"/>
<rect x="5" y="19" width="1" height="1" fill="#d29000"/>
<rect x="6" y="19" width="1" height="1" fill="#d29100"/>
<rect x="7" y="19" width="1" height="1" fill="#d28e00"/>
<rect x="8" y="19" width="1" height="1" fill="#d28a00"/>
<rect x="9" y="19" width="1" height="1" fill="#d28e00"/>
<rect x="10" y="19" width="1" height="1" fill="#d38c00"/>
<rect x="11" y="19" width="1" height="1" fill="#de8100"/>
<rect x="12" y="19" width="1" height="1" fill="#cd5600"/>
<rect x="13" y="19" width="1" height="1" fill="#c49700"/>
<rect x="14" y="19" width="1" height="1" fill="#db9e00"/>
<rect x="15" y="19" width="1" height="1" fill="#dca000"/>
<rect x="16" y="19" width="1" height="1" fill="#d29800"/>
<rect x="17" y="19" width="1" height="1" fill="#da9e00"/>
<rect x="18" y="19" width="1" height="1" fill="#e59c0b" fill-opacity="0.067"/>
<rect x="19" y="19" width="1" height="1" fill="#df8d00" fill-opacity="0.145"/>
<rect x="20" y="19" width="1" height="1" fill="#d18d04"/>
<rect x="21" y="19" width="1" height="1" fill="#ba8800" fill-opacity="0.173"/>
<rect x="22" y="19" width="1" height="1" fill="#e88e00" fill-opacity="0.173"/>
<rect x="23" y="19" width="1" height="1" fill="#e88e01"/>
<rect x="24" y="19" width="1" height="1" fill="#f4ca87"/>
<rect x="11" y="20" width="1" height="1" fill="#1e90c8" fill-opacity="0.035"/>
<rect x="12" y="20" width="1" height="1" fill="#1e90e4" fill-opacity="0.035"/>
<rect x="13" y="20" width="1" height="1" fill="#1e90e4" fill-opacity="0.035"/>
<rect x="14" y="20" width="1" height="1" fill="#1e90e4" fill-opacity="0.035"/>
<rect x="15" y="20" width="1" height="1" fill="#1e90e4" fill-opacity="0.035"/>
<rect x="16" y="20" width="1" height="1" fill="#1e90c8" fill-opacity="0.035"/>
</svg>