<?xml version="1.0" encoding="UTF-8" standalone="no"?>
<svg xmlns="http://www.w3.org/2000/svg" width="26" height="21" shape-rendering="crispEdges">
<rect x="2" y="0" width="1" height="1" fill="#1d7900" fill-opacity="0.012"/>
<rect x="12" y="0" width="1" height="1" fill="#068e06" fill-opacity="0.459"/>
<rect x="13" y="0" width="1" height="1" fill="#089106" fill-opacity="0.875"/>
<rect x="14" y="0" width="1" height="1" fill="#0c9209"/>
<rect x="15" y="0" width="1" height="1" fill="#0d9309"/>
<rect x="16" y="0" width="1" height="1" fill="#139a0b"/>
<rect x="17" y="0" width="1" height="1" fill="#199d12"/>
<rect x="18" y="0" width="1" height="1" fill="#159c0e"/>
<rect x="19" y="0" width="1" height="1" fill="#0e9709"/>
<rect x="20" y="0" width="1" height="1" fill="#0b9308"/>
<rect x="21" y="0" width="1" height="1" fill="#0b9407"/>
<rect x="22" y="0" width="1" height="1" fill="#13980e"/>
<rect x="23" y="0" width="1" height="1" fill="#11970c"/>
<rect x="24" y="0" width="1" height="1" fill="#0f920f"/>
<rect x="11" y="1" width="1" height="1" fill="#068e06" fill-opacity="0.565"/>
<rect x="12" y="1" width="1" height="1" fill="#179716"/>
<rect x="13" y="1" width="1" height="1" fill="#b0e1a9"/>
<rect x="14" y="1" width="1" height="1" fill="#b1e3a7"/>
<rect x="15" y="1" width="1" height="1" fill="#cfedc9"/>
<rect x="16" y="1" width="1" height="1" fill="#dff2da"/>
<rect x="17" y="1" width="1" height="1" fill="#daf1d6"/>
<rect x="18" y="1" width="1" height="1" fill="#e1f5dc"/>
<rect x="19" y="1" width="1" height="1" fill="#d9f1d5"/>
<rect x="20" y="1" width="1" height="1" fill="#c5e9c1"/>
<rect x="21" y="1" width="1" height="1" fill="#b7e4ae"/>
<rect x="22" y="1" width="1" height="1" fill="#91d487"/>
<rect x="23" y="1" width="1" height="1" fill="#259e23"/>
<rect x="24" y="1" width="1" height="1" fill="#14a605" fill-opacity="0.212"/>
<rect x="10" y="2" width="1" height="1" fill="#068e06" fill-opacity="0.569"/>
<rect x="11" y="2" width="1" height="1" fill="#12970e"/>
<rect x="12" y="2" width="1" height="1" fill="#c8e8c2"/>
<rect x="13" y="2" width="1" height="1" fill="#eaf7e7"/>
<rect x="14" y="2" width="1" height="1" fill="#e0f1de"/>
<rect x="15" y="2" width="1" height="1" fill="#eaf6e9"/>
<rect x="16" y="2" width="1" height="1" fill="#fbfefb"/>
<rect x="17" y="2" width="1" height="1" fill="#fcfefc"/>
<rect x="18" y="2" width="1" height="1" fill="#eff9ed"/>
<rect x="19" y="2" width="1" height="1" fill="#c3e6bb"/>
<rect x="20" y="2" width="1" height="1" fill="#bae2b2"/>
<rect x="21" y="2" width="1" height="1" fill="#46ac43"/>
<rect x="22" y="2" width="1" height="1" fill="#0b9606" fill-opacity="0.796"/>
<rect x="23" y="2" width="1" height="1" fill="#078f06" fill-opacity="0.361"/>
<rect x="9" y="3" width="1" height="1" fill="#068e06" fill-opacity="0.549"/>
<rect x="10" y="3" width="1" height="1" fill="#149c0c"/>
<rect x="11" y="3" width="1" height="1" fill="#c4ebbc"/>
<rect x="12" y="3" width="1" height="1" fill="#f4fbf3"/>
<rect x="13" y="3" width="1" height="1" fill="#eef7ee"/>
<rect x="14" y="3" width="1" height="1" fill="#e9f4e9"/>
<rect x="15" y="3" width="1" height="1" fill="#e4f4e3"/>
<rect x="16" y="3" width="1" height="1" fill="#eaf6e7"/>
<rect x="17" y="3" width="1" height="1" fill="#c4e6bd"/>
<rect x="18" y="3" width="1" height="1" fill="#addda2"/>
<rect x="19" y="3" width="1" height="1" fill="#99d292"/>
<rect x="20" y="3" width="1" height="1" fill="#1f9b1d"/>
<rect x="21" y="3" width="1" height="1" fill="#0a9406" fill-opacity="0.588"/>
<rect x="22" y="3" width="1" height="1" fill="#25c103" fill-opacity="0.247"/>
<rect x="23" y="3" width="1" height="1" fill="#25c103" fill-opacity="0.004"/>
<rect x="4" y="4" width="1" height="1" fill="#00c21b" fill-opacity="0.004"/>
<rect x="5" y="4" width="1" height="1" fill="#00c21b" fill-opacity="0.012"/>
<rect x="7" y="4" width="1" height="1" fill="#047724" fill-opacity="0.043"/>
<rect x="8" y="4" width="1" height="1" fill="#068a0b" fill-opacity="0.478"/>
<rect x="9" y="4" width="1" height="1" fill="#12990d"/>
<rect x="10" y="4" width="1" height="1" fill="#ade6a2"/>
<rect x="11" y="4" width="1" height="1" fill="#f4faf2"/>
<rect x="12" y="4" width="1" height="1" fill="#ecf6eb"/>
<rect x="13" y="4" width="1" height="1" fill="#e9f4e9"/>
<rect x="14" y="4" width="1" height="1" fill="#e5f4e4"/>
<rect x="15" y="4" width="1" height="1" fill="#d2eccc"/>
<rect x="16" y="4" width="1" height="1" fill="#c9e9c2"/>
<rect x="17" y="4" width="1" height="1" fill="#a8db9f"/>
<rect x="18" y="4" width="1" height="1" fill="#67bf5c"/>
<rect x="19" y="4" width="1" height="1" fill="#10940a"/>
<rect x="20" y="4" width="1" height="1" fill="#099106" fill-opacity="0.341"/>
<rect x="21" y="4" width="1" height="1" fill="#25c103" fill-opacity="0.243"/>
<rect x="22" y="4" width="1" height="1" fill="#25c103" fill-opacity="0.059"/>
<rect x="3" y="5" width="1" height="1" fill="#00c21b"/>
<rect x="4" y="5" width="1" height="1" fill="#00c21b" fill-opacity="0.184"/>
<rect x="5" y="5" width="1" height="1" fill="#00c21b" fill-opacity="0.02"/>
<rect x="7" y="5" width="1" height="1" fill="#047724" fill-opacity="0.361"/>
<rect x="8" y="5" width="1" height="1" fill="#058216"/>
<rect x="9" y="5" width="1" height="1" fill="#a3d4a5"/>
<rect x="10" y="5" width="1" height="1" fill="#c2e2c3"/>
<rect x="11" y="5" width="1" height="1" fill="#eef8ee"/>
<rect x="12" y="5" width="1" height="1" fill="#e8f4e8"/>
<rect x="13" y="5" width="1" height="1" fill="#eff8ee"/>
<rect x="14" y="5" width="1" height="1" fill="#f1f9ef"/>
<rect x="15" y="5" width="1" height="1" fill="#f2faf0"/>
<rect x="16" y="5" width="1" height="1" fill="#e9f6e6"/>
<rect x="17" y="5" width="1" height="1" fill="#e2f2df"/>
<rect x="18" y="5" width="1" height="1" fill="#acdea6"/>
<rect x="19" y="5" width="1" height="1" fill="#32a72c"/>
<rect x="20" y="5" width="1" height="1" fill="#109606"/>
<rect x="21" y="5" width="1" height="1" fill="#20a302" fill-opacity="0.286"/>
<rect x="22" y="5" width="1" height="1" fill="#20a302" fill-opacity="0.012"/>
<rect x="2" y="6" width="1" height="1" fill="#00c21b"/>
<rect x="3" y="6" width="1" height="1" fill="#00c21b" fill-opacity="0.314"/>
<rect x="4" y="6" width="1" height="1" fill="#00c21b" fill-opacity="0.051"/>
<rect x="6" y="6" width="1" height="1" fill="#047724" fill-opacity="0.004"/>
<rect x="7" y="6" width="1" height="1" fill="#047c1e" fill-opacity="0.796"/>
<rect x="8" y="6" width="1" height="1" fill="#087924"/>
<rect x="9" y="6" width="1" height="1" fill="#74b184"/>
<rect x="10" y="6" width="1" height="1" fill="#badcbe"/>
<rect x="11" y="6" width="1" height="1" fill="#c4e5c3"/>
<rect x="12" y="6" width="1" height="1" fill="#c0e3bf"/>
<rect x="13" y="6" width="1" height="1" fill="#f2f9f1"/>
<rect x="14" y="6" width="1" height="1" fill="#fcfefc"/>
<rect x="15" y="6" width="1" height="1" fill="#fefffe"/>
<rect x="16" y="6" width="1" height="1" fill="#ffffff"/>
<rect x="17" y="6" width="1" height="1" fill="#fdfefd"/>
<rect x="18" y="6" width="1" height="1" fill="#f3faf1"/>
<rect x="19" y="6" width="1" height="1" fill="#c9e9c3"/>
<rect x="20" y="6" width="1" height="1" fill="#45ad40"/>
<rect x="21" y="6" width="1" height="1" fill="#159a04" fill-opacity="0.749"/>
<rect x="22" y="6" width="1" height="1" fill="#2eaf0c" fill-opacity="0.176"/>
<rect x="23" y="6" width="1" height="1" fill="#56c42a" fill-opacity="0.027"/>
<rect x="1" y="7" width="1" height="1" fill="#00c21b"/>
<rect x="2" y="7" width="1" height="1" fill="#00c21b"/>
<rect x="3" y="7" width="1" height="1" fill="#00c21b" fill-opacity="0.078"/>
<rect x="6" y="7" width="1" height="1" fill="#047724" fill-opacity="0.024"/>
<rect x="7" y="7" width="1" height="1" fill="#047c1e" fill-opacity="0.965"/>
<rect x="8" y="7" width="1" height="1" fill="#087927"/>
<rect x="9" y="7" width="1" height="1" fill="#12802f"/>
<rect x="10" y="7" width="1" height="1" fill="#0c8d12"/>
<rect x="11" y="7" width="1" height="1" fill="#068e06" fill-opacity="0.827"/>
<rect x="12" y="7" width="1" height="1" fill="#0b910a"/>
<rect x="13" y="7" width="1" height="1" fill="#53b251"/>
<rect x="14" y="7" width="1" height="1" fill="#c0e6b8"/>
<rect x="15" y="7" width="1" height="1" fill="#eef8ec"/>
<rect x="16" y="7" width="1" height="1" fill="#f7fcf6"/>
<rect x="17" y="7" width="1" height="1" fill="#f5fbf4"/>
<rect x="18" y="7" width="1" height="1" fill="#fbfdfa"/>
<rect x="19" y="7" width="1" height="1" fill="#f8fcf7"/>
<rect x="20" y="7" width="1" height="1" fill="#b8e2b0"/>
<rect x="21" y="7" width="1" height="1" fill="#2ea41f"/>
<rect x="22" y="7" width="1" height="1" fill="#1a9f08" fill-opacity="0.686"/>
<rect x="23" y="7" width="1" height="1" fill="#c1eba5" fill-opacity="0.133"/>
<rect x="24" y="7" width="1" height="1" fill="#c3eca8" fill-opacity="0.016"/>
<rect x="1" y="8" width="1" height="1" fill="#00c21b" fill-opacity="0.329"/>
<rect x="2" y="8" width="1" height="1" fill="#00c21b"/>
<rect x="3" y="8" width="1" height="1" fill="#00c21b" fill-opacity="0.992"/>
<rect x="4" y="8" width="1" height="1" fill="#00c21b" fill-opacity="0.012"/>
<rect x="6" y="8" width="1" height="1" fill="#047724" fill-opacity="0.043"/>
<rect x="7" y="8" width="1" height="1" fill="#047822" fill-opacity="0.929"/>
<rect x="8" y="8" width="1" height="1" fill="#047724"/>
<rect x="9" y="8" width="1" height="1" fill="#047d1d" fill-opacity="0.824"/>
<rect x="10" y="8" width="1" height="1" fill="#068a0b" fill-opacity="0.129"/>
<rect x="12" y="8" width="1" height="1" fill="#068e06" fill-opacity="0.016"/>
<rect x="13" y="8" width="1" height="1" fill="#068e06" fill-opacity="0.549"/>
<rect x="14" y="8" width="1" height="1" fill="#3aa53a"/>
<rect x="15" y="8" width="1" height="1" fill="#dff1db"/>
<rect x="16" y="8" width="1" height="1" fill="#e6f5e2"/>
<rect x="17" y="8" width="1" height="1" fill="#e8f6e5"/>
<rect x="18" y="8" width="1" height="1" fill="#ddf1d8"/>
<rect x="19" y="8" width="1" height="1" fill="#dff1db"/>
<rect x="20" y="8" width="1" height="1" fill="#e1f3de"/>
<rect x="21" y="8" width="1" height="1" fill="#a8dd9e"/>
<rect x="22" y="8" width="1" height="1" fill="#32a91b"/>
<rect x="23" y="8" width="1" height="1" fill="#67c547"/>
<rect x="24" y="8" width="1" height="1" fill="#caecbe" fill-opacity="0.114"/>
<rect x="0" y="9" width="1" height="1" fill="#ffffff" fill-opacity="0.012"/>
<rect x="2" y="9" width="1" height="1" fill="#00c21b"/>
<rect x="3" y="9" width="1" height="1" fill="#00c21b" fill-opacity="0.373"/>
<rect x="4" y="9" width="1" height="1" fill="#00c21b" fill-opacity="0.043"/>
<rect x="6" y="9" width="1" height="1" fill="#047724" fill-opacity="0.027"/>
<rect x="7" y="9" width="1" height="1" fill="#047724" fill-opacity="0.906"/>
<rect x="8" y="9" width="1" height="1" fill="#047823"/>
<rect x="9" y="9" width="1" height="1" fill="#047823" fill-opacity="0.122"/>
<rect x="10" y="9" width="1" height="1" fill="#2bb904" fill-opacity="0.024"/>
<rect x="11" y="9" width="1" height="1" fill="#2ead17" fill-opacity="0.902"/>
<rect x="12" y="9" width="1" height="1" fill="#2ea619" fill-opacity="0.949"/>
<rect x="13" y="9" width="1" height="1" fill="#239417" fill-opacity="0.973"/>
<rect x="14" y="9" width="1" height="1" fill="#0c920f" fill-opacity="0.988"/>
<rect x="15" y="9" width="1" height="1" fill="#259c24"/>
<rect x="16" y="9" width="1" height="1" fill="#d1eccb"/>
<rect x="17" y="9" width="1" height="1" fill="#e8f6e5"/>
<rect x="18" y="9" width="1" height="1" fill="#c5e7be"/>
<rect x="19" y="9" width="1" height="1" fill="#aadba2"/>
<rect x="20" y="9" width="1" height="1" fill="#c6e6c1"/>
<rect x="21" y="9" width="1" height="1" fill="#cdeac7"/>
<rect x="22" y="9" width="1" height="1" fill="#b2deab"/>
<rect x="23" y="9" width="1" height="1" fill="#58b84b"/>
<rect x="24" y="9" width="1" height="1" fill="#54b83e"/>
<rect x="0" y="10" width="1" height="1" fill="#ffffff" fill-opacity="0.039"/>
<rect x="1" y="10" width="1" height="1" fill="#00c21b"/>
<rect x="2" y="10" width="1" height="1" fill="#00c21b" fill-opacity="0.4"/>
<rect x="3" y="10" width="1" height="1" fill="#00c21b" fill-opacity="0.047"/>
<rect x="6" y="10" width="1" height="1" fill="#047724" fill-opacity="0.043"/>
<rect x="7" y="10" width="1" height="1" fill="#047724" fill-opacity="0.776"/>
<rect x="8" y="10" width="1" height="1" fill="#047724" fill-opacity="0.263"/>
<rect x="10" y="10" width="1" height="1" fill="#19a811" fill-opacity="0.051"/>
<rect x="11" y="10" width="1" height="1" fill="#288b1e" fill-opacity="0.98"/>
<rect x="12" y="10" width="1" height="1" fill="#2ba01d" fill-opacity="0.827"/>
<rect x="13" y="10" width="1" height="1" fill="#28b222" fill-opacity="0.839"/>
<rect x="14" y="10" width="1" height="1" fill="#21bc12" fill-opacity="0.882"/>
<rect x="15" y="10" width="1" height="1" fill="#0d9a06" fill-opacity="0.988"/>
<rect x="16" y="10" width="1" height="1" fill="#bee3bd"/>
<rect x="17" y="10" width="1" height="1" fill="#edf8eb"/>
<rect x="18" y="10" width="1" height="1" fill="#f1faef"/>
<rect x="19" y="10" width="1" height="1" fill="#a7d9a4"/>
<rect x="20" y="10" width="1" height="1" fill="#8acb87"/>
<rect x="21" y="10" width="1" height="1" fill="#3ca839"/>
<rect x="22" y="10" width="1" height="1" fill="#109509"/>
<rect x="23" y="10" width="1" height="1" fill="#2ba51d"/>
<rect x="24" y="10" width="1" height="1" fill="#109608"/>
<rect x="1" y="11" width="1" height="1" fill="#00c21b" fill-opacity="0.235"/>
<rect x="2" y="11" width="1" height="1" fill="#14bc2a" fill-opacity="0.125"/>
<rect x="3" y="11" width="1" height="1" fill="#0e9719" fill-opacity="0.024"/>
<rect x="6" y="11" width="1" height="1" fill="#047724" fill-opacity="0.035"/>
<rect x="7" y="11" width="1" height="1" fill="#047724" fill-opacity="0.082"/>
<rect x="9" y="11" width="1" height="1" fill="#03890b" fill-opacity="0.09"/>
<rect x="10" y="11" width="1" height="1" fill="#19ab04" fill-opacity="0.125"/>
<rect x="11" y="11" width="1" height="1" fill="#179812" fill-opacity="0.996"/>
<rect x="12" y="11" width="1" height="1" fill="#30b721" fill-opacity="0.996"/>
<rect x="13" y="11" width="1" height="1" fill="#3bce35" fill-opacity="0.957"/>
<rect x="14" y="11" width="1" height="1" fill="#3ce020" fill-opacity="0.969"/>
<rect x="15" y="11" width="1" height="1" fill="#44b63a"/>
<rect x="16" y="11" width="1" height="1" fill="#9ad299"/>
<rect x="17" y="11" width="1" height="1" fill="#e1f3dd"/>
<rect x="18" y="11" width="1" height="1" fill="#eff9ed"/>
<rect x="19" y="11" width="1" height="1" fill="#f1f9f1"/>
<rect x="20" y="11" width="1" height="1" fill="#97d096"/>
<rect x="21" y="11" width="1" height="1" fill="#068e06" fill-opacity="0.596"/>
<rect x="22" y="11" width="1" height="1" fill="#1ca003" fill-opacity="0.075"/>
<rect x="23" y="11" width="1" height="1" fill="#30ad15" fill-opacity="0.255"/>
<rect x="24" y="11" width="1" height="1" fill="#22a504" fill-opacity="0.42"/>
<rect x="1" y="12" width="1" height="1" fill="#00c21b" fill-opacity="0.059"/>
<rect x="7" y="12" width="1" height="1" fill="#047724" fill-opacity="0.016"/>
<rect x="9" y="12" width="1" height="1" fill="#037d0a" fill-opacity="0.016"/>
<rect x="10" y="12" width="1" height="1" fill="#1ebb02" fill-opacity="0.231"/>
<rect x="11" y="12" width="1" height="1" fill="#1da623" fill-opacity="0.988"/>
<rect x="12" y="12" width="1" height="1" fill="#29bb2e" fill-opacity="0.996"/>
<rect x="13" y="12" width="1" height="1" fill="#33c433" fill-opacity="0.992"/>
<rect x="14" y="12" width="1" height="1" fill="#0b900b"/>
<rect x="15" y="12" width="1" height="1" fill="#3da73c"/>
<rect x="16" y="12" width="1" height="1" fill="#b7dfb5"/>
<rect x="17" y="12" width="1" height="1" fill="#eef8ec"/>
<rect x="18" y="12" width="1" height="1" fill="#dff2da"/>
<rect x="19" y="12" width="1" height="1" fill="#eff9ed"/>
<rect x="20" y="12" width="1" height="1" fill="#f4fbf3"/>
<rect x="21" y="12" width="1" height="1" fill="#4bae49"/>
<rect x="22" y="12" width="1" height="1" fill="#068e06" fill-opacity="0.584"/>
<rect x="24" y="12" width="1" height="1" fill="#ffffff" fill-opacity="0.043"/>
<rect x="0" y="13" width="1" height="1" fill="#047724" fill-opacity="0.004"/>
<rect x="2" y="13" width="1" height="1" fill="#31fb00" fill-opacity="0.004"/>
<rect x="4" y="13" width="1" height="1" fill="#089508" fill-opacity="0.024"/>
<rect x="5" y="13" width="1" height="1" fill="#008309" fill-opacity="0.012"/>
<rect x="8" y="13" width="1" height="1" fill="#1eab03" fill-opacity="0.039"/>
<rect x="9" y="13" width="1" height="1" fill="#3fde1e" fill-opacity="0.196"/>
<rect x="10" y="13" width="1" height="1" fill="#12ae07" fill-opacity="0.949"/>
<rect x="11" y="13" width="1" height="1" fill="#23b331"/>
<rect x="12" y="13" width="1" height="1" fill="#078e07"/>
<rect x="13" y="13" width="1" height="1" fill="#209822"/>
<rect x="14" y="13" width="1" height="1" fill="#429a58"/>
<rect x="15" y="13" width="1" height="1" fill="#bbdebe"/>
<rect x="16" y="13" width="1" height="1" fill="#d3ecd0"/>
<rect x="17" y="13" width="1" height="1" fill="#d6efd0"/>
<rect x="18" y="13" width="1" height="1" fill="#d2eecd"/>
<rect x="19" y="13" width="1" height="1" fill="#cfedc9"/>
<rect x="20" y="13" width="1" height="1" fill="#e3f4df"/>
<rect x="21" y="13" width="1" height="1" fill="#e8f6e5"/>
<rect x="22" y="13" width="1" height="1" fill="#5fb75d"/>
<rect x="23" y="13" width="1" height="1" fill="#0b900b" fill-opacity="0.384"/>
<rect x="0" y="14" width="1" height="1" fill="#029206"/>
<rect x="1" y="14" width="1" height="1" fill="#01a307"/>
<rect x="2" y="14" width="1" height="1" fill="#048e08"/>
<rect x="3" y="14" width="1" height="1" fill="#14a30f" fill-opacity="0.329"/>
<rect x="4" y="14" width="1" height="1" fill="#43e028" fill-opacity="0.165"/>
<rect x="5" y="14" width="1" height="1" fill="#2ef701" fill-opacity="0.071"/>
<rect x="6" y="14" width="1" height="1" fill="#1ac005" fill-opacity="0.09"/>
<rect x="7" y="14" width="1" height="1" fill="#24c902" fill-opacity="0.227"/>
<rect x="8" y="14" width="1" height="1" fill="#10af10" fill-opacity="0.937"/>
<rect x="9" y="14" width="1" height="1" fill="#0c8e1e"/>
<rect x="10" y="14" width="1" height="1" fill="#26b83a"/>
<rect x="11" y="14" width="1" height="1" fill="#2ee247"/>
<rect x="12" y="14" width="1" height="1" fill="#068721"/>
<rect x="13" y="14" width="1" height="1" fill="#057824"/>
<rect x="14" y="14" width="1" height="1" fill="#0d7c2c"/>
<rect x="15" y="14" width="1" height="1" fill="#d1e6d7"/>
<rect x="16" y="14" width="1" height="1" fill="#eaf4ec"/>
<rect x="17" y="14" width="1" height="1" fill="#e4f2e1"/>
<rect x="18" y="14" width="1" height="1" fill="#d4eecf"/>
<rect x="19" y="14" width="1" height="1" fill="#a6da9e"/>
<rect x="20" y="14" width="1" height="1" fill="#85cd7a"/>
<rect x="21" y="14" width="1" height="1" fill="#90d188"/>
<rect x="22" y="14" width="1" height="1" fill="#b7dfb5"/>
<rect x="23" y="14" width="1" height="1" fill="#2aa026"/>
<rect x="24" y="14" width="1" height="1" fill="#4aad4a" fill-opacity="0.157"/>
<rect x="0" y="15" width="1" height="1" fill="#03950c"/>
<rect x="1" y="15" width="1" height="1" fill="#7ace77"/>
<rect x="2" y="15" width="1" height="1" fill="#90d78b"/>
<rect x="3" y="15" width="1" height="1" fill="#029407"/>
<rect x="4" y="15" width="1" height="1" fill="#038f07"/>
<rect x="5" y="15" width="1" height="1" fill="#048e09"/>
<rect x="6" y="15" width="1" height="1" fill="#059906"/>
<rect x="7" y="15" width="1" height="1" fill="#07aa09"/>
<rect x="8" y="15" width="1" height="1" fill="#f7b801"/>
<rect x="9" y="15" width="1" height="1" fill="#fcf300"/>
<rect x="10" y="15" width="1" height="1" fill="#019b07"/>
<rect x="11" y="15" width="1" height="1" fill="#10c01e"/>
<rect x="12" y="15" width="1" height="1" fill="#0ac822"/>
<rect x="13" y="15" width="1" height="1" fill="#069119"/>
<rect x="14" y="15" width="1" height="1" fill="#077a24"/>
<rect x="15" y="15" width="1" height="1" fill="#9ed19c"/>
<rect x="16" y="15" width="1" height="1" fill="#e2f3df"/>
<rect x="17" y="15" width="1" height="1" fill="#f9fdf9"/>
<rect x="18" y="15" width="1" height="1" fill="#f1f9ef"/>
<rect x="19" y="15" width="1" height="1" fill="#d6f0d1"/>
<rect x="20" y="15" width="1" height="1" fill="#47ae41"/>
<rect x="21" y="15" width="1" height="1" fill="#169614"/>
<rect x="22" y="15" width="1" height="1" fill="#45ad40"/>
<rect x="23" y="15" width="1" height="1" fill="#2aa91e"/>
<rect x="24" y="15" width="1" height="1" fill="#0f930f"/>
<rect x="0" y="16" width="1" height="1" fill="#049a08"/>
<rect x="1" y="16" width="1" height="1" fill="#ceecc9"/>
<rect x="2" y="16" width="1" height="1" fill="#daf2d7"/>
<rect x="3" y="16" width="1" height="1" fill="#e8f6e2"/>
<rect x="4" y="16" width="1" height="1" fill="#f6fcf3"/>
<rect x="5" y="16" width="1" height="1" fill="#cae9c6"/>
<rect x="6" y="16" width="1" height="1" fill="#ace0aa"/>
<rect x="7" y="16" width="1" height="1" fill="#79c07d"/>
<rect x="8" y="16" width="1" height="1" fill="#1fb30b"/>
<rect x="9" y="16" width="1" height="1" fill="#e75702"/>
<rect x="10" y="16" width="1" height="1" fill="#fe9d01"/>
<rect x="11" y="16" width="1" height="1" fill="#00a304"/>
<rect x="12" y="16" width="1" height="1" fill="#06b013"/>
<rect x="13" y="16" width="1" height="1" fill="#05bd16"/>
<rect x="14" y="16" width="1" height="1" fill="#078e07"/>
<rect x="15" y="16" width="1" height="1" fill="#269c26"/>
<rect x="16" y="16" width="1" height="1" fill="#8dce88"/>
<rect x="17" y="16" width="1" height="1" fill="#8ed281"/>
<rect x="18" y="16" width="1" height="1" fill="#c9e9c2"/>
<rect x="19" y="16" width="1" height="1" fill="#f1f9ef"/>
<rect x="20" y="16" width="1" height="1" fill="#b4e0b1"/>
<rect x="21" y="16" width="1" height="1" fill="#099008"/>
<rect x="22" y="16" width="1" height="1" fill="#068e06" fill-opacity="0.325"/>
<rect x="23" y="16" width="1" height="1" fill="#139904" fill-opacity="0.184"/>
<rect x="24" y="16" width="1" height="1" fill="#1fa202" fill-opacity="0.463"/>
<rect x="0" y="17" width="1" height="1" fill="#049909"/>
<rect x="1" y="17" width="1" height="1" fill="#eef9ec"/>
<rect x="2" y="17" width="1" height="1" fill="#fcfefe"/>
<rect x="3" y="17" width="1" height="1" fill="#fefefb"/>
<rect x="4" y="17" width="1" height="1" fill="#f9fff6"/>
<rect x="5" y="17" width="1" height="1" fill="#f5fbf7"/>
<rect x="6" y="17" width="1" height="1" fill="#eef7f0"/>
<rect x="7" y="17" width="1" height="1" fill="#eaf3e8"/>
<rect x="8" y="17" width="1" height="1" fill="#f9fbf9"/>
<rect x="9" y="17" width="1" height="1" fill="#27ae0c"/>
<rect x="10" y="17" width="1" height="1" fill="#ec3602"/>
<rect x="11" y="17" width="1" height="1" fill="#fe5101"/>
<rect x="12" y="17" width="1" height="1" fill="#019f06"/>
<rect x="13" y="17" width="1" height="1" fill="#03b014"/>
<rect x="14" y="17" width="1" height="1" fill="#05c21b"/>
<rect x="15" y="17" width="1" height="1" fill="#05a60e"/>
<rect x="16" y="17" width="1" height="1" fill="#059108"/>
<rect x="17" y="17" width="1" height="1" fill="#088f07"/>
<rect x="18" y="17" width="1" height="1" fill="#209b1b"/>
<rect x="19" y="17" width="1" height="1" fill="#a0d697"/>
<rect x="20" y="17" width="1" height="1" fill="#c7e7c5"/>
<rect x="21" y="17" width="1" height="1" fill="#b7dfb6"/>
<rect x="22" y="17" width="1" height="1" fill="#0e920c"/>
<rect x="23" y="17" width="1" height="1" fill="#40b02c" fill-opacity="0.188"/>
<rect x="24" y="17" width="1" height="1" fill="#eef9e7" fill-opacity="0.016"/>
<rect x="0" y="18" width="1" height="1" fill="#019707"/>
<rect x="1" y="18" width="1" height="1" fill="#21bb2b"/>
<rect x="2" y="18" width="1" height="1" fill="#93cf91"/>
<rect x="3" y="18" width="1" height="1" fill="#e7f6d6"/>
<rect x="4" y="18" width="1" height="1" fill="#f2ecf2"/>
<rect x="5" y="18" width="1" height="1" fill="#fcfefb"/>
<rect x="6" y="18" width="1" height="1" fill="#f1fbf2"/>
<rect x="7" y="18" width="1" height="1" fill="#e6f5e6"/>
<rect x="8" y="18" width="1" height="1" fill="#e5f8e3"/>
<rect x="9" y="18" width="1" height="1" fill="#b2e2b2"/>
<rect x="10" y="18" width="1" height="1" fill="#03a40c"/>
<rect x="11" y="18" width="1" height="1" fill="#cb2803"/>
<rect x="12" y="18" width="1" height="1" fill="#ce3103"/>
<rect x="13" y="18" width="1" height="1" fill="#029f09"/>
<rect x="14" y="18" width="1" height="1" fill="#05ad14"/>
<rect x="15" y="18" width="1" height="1" fill="#04a40e"/>
<rect x="16" y="18" width="1" height="1" fill="#03a912"/>
<rect x="17" y="18" width="1" height="1" fill="#029709"/>
<rect x="18" y="18" width="1" height="1" fill="#068e06" fill-opacity="0.49"/>
<rect x="19" y="18" width="1" height="1" fill="#259c23"/>
<rect x="20" y="18" width="1" height="1" fill="#33a925"/>
<rect x="21" y="18" width="1" height="1" fill="#11960c"/>
<rect x="22" y="18" width="1" height="1" fill="#31a131"/>
<rect x="23" y="18" width="1" height="1" fill="#59b459"/>
<rect x="24" y="18" width="1" height="1" fill="#ddefdd" fill-opacity="0.122"/>
<rect x="0" y="19" width="1" height="1" fill="#0ea507" fill-opacity="0.333"/>
<rect x="1" y="19" width="1" height="1" fill="#008a07"/>
<rect x="2" y="19" width="1" height="1" fill="#058506"/>
<rect x="3" y="19" width="1" height="1" fill="#008007"/>
<rect x="4" y="19" width="1" height="1" fill="#049306"/>
<rect x="5" y="19" width="1" height="1" fill="#049909"/>
<rect x="6" y="19" width="1" height="1" fill="#059909"/>
<rect x="7" y="19" width="1" height="1" fill="#059507"/>
<rect x="8" y="19" width="1" height="1" fill="#028c07"/>
<rect x="9" y="19" width="1" height="1" fill="#029a09"/>
<rect x="10" y="19" width="1" height="1" fill="#029309"/>
<rect x="11" y="19" width="1" height="1" fill="#049109"/>
<rect x="12" y="19" width="1" height="1" fill="#98420b"/>
<rect x="13" y="19" width="1" height="1" fill="#a03f0c"/>
<rect x="14" y="19" width="1" height="1" fill="#049408"/>
<rect x="15" y="19" width="1" height="1" fill="#018f08"/>
<rect x="16" y="19" width="1" height="1" fill="#018c07"/>
<rect x="17" y="19" width="1" height="1" fill="#018906"/>
<rect x="18" y="19" width="1" height="1" fill="#12a30c" fill-opacity="0.114"/>
<rect x="19" y="19" width="1" height="1" fill="#099006" fill-opacity="0.137"/>
<rect x="20" y="19" width="1" height="1" fill="#139709"/>
<rect x="21" y="19" width="1" height="1" fill="#1b9f03" fill-opacity="0.133"/>
<rect x="22" y="19" width="1" height="1" fill="#068e06" fill-opacity="0.173"/>
<rect x="23" y="19" width="1" height="1" fill="#078e07"/>
<rect x="24" y="19" width="1" height="1" fill="#72bf72"/>
<rect x="11" y="20" width="1" height="1" fill="#5151e2" fill-opacity="0.035"/>
<rect x="12" y="20" width="1" height="1" fill="#5151e2" fill-opacity="0.035"/>
<rect x="13" y="20" width="1" height="1" fill="#5151e2" fill-opacity="0.035"/>
<rect x="14" y="20" width="1" height="1" fill="#5151e2" fill-opacity="0.035"/>
<rect x="15" y="20" width="1" height="1" fill="#5151e2" fill-opacity="0.035"/>
<rect x="16" y="20" width="1" height="1" fill="#5151e2" fill-opacity="0.035"/>
</svg>