<?xml version="1.0" encoding="UTF-8" standalone="no"?>
<svg xmlns="http://www.w3.org/2000/svg" width="26" height="21" shape-rendering="crispEdges">
<rect x="12" y="0" width="1" height="1" fill="#0152e6" fill-opacity="0.459"/>
<rect x="13" y="0" width="1" height="1" fill="#0556e8" fill-opacity="0.875"/>
<rect x="14" y="0" width="1" height="1" fill="#0858e8"/>
<rect x="15" y="0" width="1" height="1" fill="#0958e9"/>
<rect x="16" y="0" width="1" height="1" fill="#145fed"/>
<rect x="17" y="0" width="1" height="1" fill="#1a64ed"/>
<rect x="18" y="0" width="1" height="1" fill="#1661ec"/>
<rect x="19" y="0" width="1" height="1" fill="#0d5be9"/>
<rect x="20" y="0" width="1" height="1" fill="#0958e8"/>
<rect x="21" y="0" width="1" height="1" fill="#0958e9"/>
<rect x="22" y="0" width="1" height="1" fill="#125eeb"/>
<rect x="23" y="0" width="1" height="1" fill="#0f5cea"/>
<rect x="24" y="0" width="1" height="1" fill="#0253e5"/>
<rect x="11" y="1" width="1" height="1" fill="#0052e6" fill-opacity="0.565"/>
<rect x="12" y="1" width="1" height="1" fill="#135fe9"/>
<rect x="13" y="1" width="1" height="1" fill="#b5cdfd"/>
<rect x="14" y="1" width="1" height="1" fill="#b8cffe"/>
<rect x="15" y="1" width="1" height="1" fill="#d2e1ff"/>
<rect x="16" y="1" width="1" height="1" fill="#e0eaff"/>
<rect x="17" y="1" width="1" height="1" fill="#dce7fe"/>
<rect x="18" y="1" width="1" height="1" fill="#e4edff"/>
<rect x="19" y="1" width="1" height="1" fill="#dbe7fd"/>
<rect x="20" y="1" width="1" height="1" fill="#c9dafc"/>
<rect x="21" y="1" width="1" height="1" fill="#bcd2fe"/>
<rect x="22" y="1" width="1" height="1" fill="#96b8fb"/>
<rect x="23" y="1" width="1" height="1" fill="#2269ea"/>
<rect x="24" y="1" width="1" height="1" fill="#2068f2" fill-opacity="0.212"/>
<rect x="10" y="2" width="1" height="1" fill="#0052e6" fill-opacity="0.569"/>
<rect x="11" y="2" width="1" height="1" fill="#115eea"/>
<rect x="12" y="2" width="1" height="1" fill="#cbdcfe"/>
<rect x="13" y="2" width="1" height="1" fill="#ebf1ff"/>
<rect x="14" y="2" width="1" height="1" fill="#e0eafd"/>
<rect x="15" y="2" width="1" height="1" fill="#eaf2fe"/>
<rect x="16" y="2" width="1" height="1" fill="#fbfcff"/>
<rect x="17" y="2" width="1" height="1" fill="#fcfdff"/>
<rect x="18" y="2" width="1" height="1" fill="#f0f5ff"/>
<rect x="19" y="2" width="1" height="1" fill="#c5d8ff"/>
<rect x="20" y="2" width="1" height="1" fill="#bdd3fe"/>
<rect x="21" y="2" width="1" height="1" fill="#4480ef"/>
<rect x="22" y="2" width="1" height="1" fill="#0b59ea" fill-opacity="0.796"/>
<rect x="23" y="2" width="1" height="1" fill="#0253e7" fill-opacity="0.361"/>
<rect x="9" y="3" width="1" height="1" fill="#0052e6" fill-opacity="0.549"/>
<rect x="10" y="3" width="1" height="1" fill="#1661ec"/>
<rect x="11" y="3" width="1" height="1" fill="#cadcff"/>
<rect x="12" y="3" width="1" height="1" fill="#f5f8ff"/>
<rect x="13" y="3" width="1" height="1" fill="#eef4fd"/>
<rect x="14" y="3" width="1" height="1" fill="#e9effb"/>
<rect x="15" y="3" width="1" height="1" fill="#e5edfd"/>
<rect x="16" y="3" width="1" height="1" fill="#ebf1ff"/>
<rect x="17" y="3" width="1" height="1" fill="#c6d8fe"/>
<rect x="18" y="3" width="1" height="1" fill="#b1caff"/>
<rect x="19" y="3" width="1" height="1" fill="#9abafa"/>
<rect x="20" y="3" width="1" height="1" fill="#1b65eb"/>
<rect x="21" y="3" width="1" height="1" fill="#0857e9" fill-opacity="0.588"/>
<rect x="22" y="3" width="1" height="1" fill="#4582ff" fill-opacity="0.247"/>
<rect x="23" y="3" width="1" height="1" fill="#4582ff" fill-opacity="0.004"/>
<rect x="4" y="4" width="1" height="1" fill="#3184fe" fill-opacity="0.004"/>
<rect x="5" y="4" width="1" height="1" fill="#3184fe" fill-opacity="0.012"/>
<rect x="7" y="4" width="1" height="1" fill="#044e9a" fill-opacity="0.043"/>
<rect x="8" y="4" width="1" height="1" fill="#0151d9" fill-opacity="0.478"/>
<rect x="9" y="4" width="1" height="1" fill="#125eeb"/>
<rect x="10" y="4" width="1" height="1" fill="#b8cffe"/>
<rect x="11" y="4" width="1" height="1" fill="#f4f8ff"/>
<rect x="12" y="4" width="1" height="1" fill="#ecf1fc"/>
<rect x="13" y="4" width="1" height="1" fill="#e9effb"/>
<rect x="14" y="4" width="1" height="1" fill="#e5eefd"/>
<rect x="15" y="4" width="1" height="1" fill="#d4e2ff"/>
<rect x="16" y="4" width="1" height="1" fill="#cbdcff"/>
<rect x="17" y="4" width="1" height="1" fill="#abc6fe"/>
<rect x="18" y="4" width="1" height="1" fill="#6a9af8"/>
<rect x="19" y="4" width="1" height="1" fill="#0d5bec"/>
<rect x="20" y="4" width="1" height="1" fill="#0555e9" fill-opacity="0.341"/>
<rect x="21" y="4" width="1" height="1" fill="#4582ff" fill-opacity="0.243"/>
<rect x="22" y="4" width="1" height="1" fill="#4582ff" fill-opacity="0.059"/>
<rect x="3" y="5" width="1" height="1" fill="#3184fe"/>
<rect x="4" y="5" width="1" height="1" fill="#3184fe" fill-opacity="0.184"/>
<rect x="5" y="5" width="1" height="1" fill="#3184fe" fill-opacity="0.02"/>
<rect x="7" y="5" width="1" height="1" fill="#044e9b" fill-opacity="0.361"/>
<rect x="8" y="5" width="1" height="1" fill="#0350bf"/>
<rect x="9" y="5" width="1" height="1" fill="#a5c1eb"/>
<rect x="10" y="5" width="1" height="1" fill="#c4d6f1"/>
<rect x="11" y="5" width="1" height="1" fill="#eef4fd"/>
<rect x="12" y="5" width="1" height="1" fill="#e8effc"/>
<rect x="13" y="5" width="1" height="1" fill="#eff4fe"/>
<rect x="14" y="5" width="1" height="1" fill="#f1f6ff"/>
<rect x="15" y="5" width="1" height="1" fill="#f2f7ff"/>
<rect x="16" y="5" width="1" height="1" fill="#eaf1ff"/>
<rect x="17" y="5" width="1" height="1" fill="#e3ecfe"/>
<rect x="18" y="5" width="1" height="1" fill="#afc9fb"/>
<rect x="19" y="5" width="1" height="1" fill="#3374ef"/>
<rect x="20" y="5" width="1" height="1" fill="#105def"/>
<rect x="21" y="5" width="1" height="1" fill="#2a6fff" fill-opacity="0.286"/>
<rect x="22" y="5" width="1" height="1" fill="#2a6fff" fill-opacity="0.012"/>
<rect x="2" y="6" width="1" height="1" fill="#3184fe"/>
<rect x="3" y="6" width="1" height="1" fill="#3184fe" fill-opacity="0.314"/>
<rect x="4" y="6" width="1" height="1" fill="#3184fe" fill-opacity="0.051"/>
<rect x="6" y="6" width="1" height="1" fill="#044e9a" fill-opacity="0.004"/>
<rect x="7" y="6" width="1" height="1" fill="#034faa" fill-opacity="0.796"/>
<rect x="8" y="6" width="1" height="1" fill="#074fa0"/>
<rect x="9" y="6" width="1" height="1" fill="#749bc5"/>
<rect x="10" y="6" width="1" height="1" fill="#bcd0eb"/>
<rect x="11" y="6" width="1" height="1" fill="#c4d7f9"/>
<rect x="12" y="6" width="1" height="1" fill="#bfd4f9"/>
<rect x="13" y="6" width="1" height="1" fill="#f2f6fe"/>
<rect x="14" y="6" width="1" height="1" fill="#fcfdff"/>
<rect x="15" y="6" width="1" height="1" fill="#fefeff"/>
<rect x="16" y="6" width="1" height="1" fill="#ffffff"/>
<rect x="17" y="6" width="1" height="1" fill="#fdfeff"/>
<rect x="18" y="6" width="1" height="1" fill="#f3f7ff"/>
<rect x="19" y="6" width="1" height="1" fill="#cbdcfd"/>
<rect x="20" y="6" width="1" height="1" fill="#4481f0"/>
<rect x="21" y="6" width="1" height="1" fill="#1863f4" fill-opacity="0.749"/>
<rect x="22" y="6" width="1" height="1" fill="#3b7bff" fill-opacity="0.176"/>
<rect x="23" y="6" width="1" height="1" fill="#6396ff" fill-opacity="0.008"/>
<rect x="1" y="7" width="1" height="1" fill="#3184fe"/>
<rect x="2" y="7" width="1" height="1" fill="#3184fe"/>
<rect x="3" y="7" width="1" height="1" fill="#3184fe" fill-opacity="0.078"/>
<rect x="6" y="7" width="1" height="1" fill="#044e9a" fill-opacity="0.024"/>
<rect x="7" y="7" width="1" height="1" fill="#034fa9" fill-opacity="0.965"/>
<rect x="8" y="7" width="1" height="1" fill="#08519c"/>
<rect x="9" y="7" width="1" height="1" fill="#1258a3"/>
<rect x="10" y="7" width="1" height="1" fill="#0756da"/>
<rect x="11" y="7" width="1" height="1" fill="#0052e6" fill-opacity="0.827"/>
<rect x="12" y="7" width="1" height="1" fill="#0556e7"/>
<rect x="13" y="7" width="1" height="1" fill="#5088ef"/>
<rect x="14" y="7" width="1" height="1" fill="#c3d6fe"/>
<rect x="15" y="7" width="1" height="1" fill="#eff4ff"/>
<rect x="16" y="7" width="1" height="1" fill="#f8faff"/>
<rect x="17" y="7" width="1" height="1" fill="#f5f8ff"/>
<rect x="18" y="7" width="1" height="1" fill="#fbfcff"/>
<rect x="19" y="7" width="1" height="1" fill="#f8faff"/>
<rect x="20" y="7" width="1" height="1" fill="#bcd1fe"/>
<rect x="21" y="7" width="1" height="1" fill="#3073f5"/>
<rect x="22" y="7" width="1" height="1" fill="#1e67f3" fill-opacity="0.686"/>
<rect x="23" y="7" width="1" height="1" fill="#c7d8ff" fill-opacity="0.031"/>
<rect x="24" y="7" width="1" height="1" fill="#c8d9ff" fill-opacity="0.004"/>
<rect x="1" y="8" width="1" height="1" fill="#3184fe" fill-opacity="0.329"/>
<rect x="2" y="8" width="1" height="1" fill="#3184fe"/>
<rect x="3" y="8" width="1" height="1" fill="#3184fe" fill-opacity="0.992"/>
<rect x="4" y="8" width="1" height="1" fill="#3184fe" fill-opacity="0.012"/>
<rect x="6" y="8" width="1" height="1" fill="#044e9a" fill-opacity="0.043"/>
<rect x="7" y="8" width="1" height="1" fill="#044e9e" fill-opacity="0.929"/>
<rect x="8" y="8" width="1" height="1" fill="#044e9a"/>
<rect x="9" y="8" width="1" height="1" fill="#034fac" fill-opacity="0.824"/>
<rect x="10" y="8" width="1" height="1" fill="#0151da" fill-opacity="0.129"/>
<rect x="12" y="8" width="1" height="1" fill="#0052e6" fill-opacity="0.016"/>
<rect x="13" y="8" width="1" height="1" fill="#0052e6" fill-opacity="0.549"/>
<rect x="14" y="8" width="1" height="1" fill="#3576eb"/>
<rect x="15" y="8" width="1" height="1" fill="#e0eafe"/>
<rect x="16" y="8" width="1" height="1" fill="#e7efff"/>
<rect x="17" y="8" width="1" height="1" fill="#e9f0ff"/>
<rect x="18" y="8" width="1" height="1" fill="#dfe9ff"/>
<rect x="19" y="8" width="1" height="1" fill="#e0eafe"/>
<rect x="20" y="8" width="1" height="1" fill="#e2ecfe"/>
<rect x="21" y="8" width="1" height="1" fill="#adc7fe"/>
<rect x="22" y="8" width="1" height="1" fill="#3979fb"/>
<rect x="23" y="8" width="1" height="1" fill="#6e9df8"/>
<rect x="24" y="8" width="1" height="1" fill="#cfdffc" fill-opacity="0.027"/>
<rect x="2" y="9" width="1" height="1" fill="#3184fe"/>
<rect x="3" y="9" width="1" height="1" fill="#3184fe" fill-opacity="0.373"/>
<rect x="4" y="9" width="1" height="1" fill="#3184fe" fill-opacity="0.043"/>
<rect x="6" y="9" width="1" height="1" fill="#044e9a" fill-opacity="0.027"/>
<rect x="7" y="9" width="1" height="1" fill="#044e9a" fill-opacity="0.906"/>
<rect x="8" y="9" width="1" height="1" fill="#044e9c"/>
<rect x="9" y="9" width="1" height="1" fill="#044e9c" fill-opacity="0.122"/>
<rect x="10" y="9" width="1" height="1" fill="#0692ca" fill-opacity="0.024"/>
<rect x="11" y="9" width="1" height="1" fill="#2286c0" fill-opacity="0.902"/>
<rect x="12" y="9" width="1" height="1" fill="#2582bb" fill-opacity="0.949"/>
<rect x="13" y="9" width="1" height="1" fill="#216fac" fill-opacity="0.973"/>
<rect x="14" y="9" width="1" height="1" fill="#0d52ce" fill-opacity="0.988"/>
<rect x="15" y="9" width="1" height="1" fill="#2068ea"/>
<rect x="16" y="9" width="1" height="1" fill="#d3e1ff"/>
<rect x="17" y="9" width="1" height="1" fill="#e9f0ff"/>
<rect x="18" y="9" width="1" height="1" fill="#c7d9ff"/>
<rect x="19" y="9" width="1" height="1" fill="#acc7fc"/>
<rect x="20" y="9" width="1" height="1" fill="#c7d9fd"/>
<rect x="21" y="9" width="1" height="1" fill="#cfdffe"/>
<rect x="22" y="9" width="1" height="1" fill="#b4ccfd"/>
<rect x="23" y="9" width="1" height="1" fill="#5b90f8"/>
<rect x="24" y="9" width="1" height="1" fill="#558cf3"/>
<rect x="1" y="10" width="1" height="1" fill="#3184fe"/>
<rect x="2" y="10" width="1" height="1" fill="#3184fe" fill-opacity="0.4"/>
<rect x="3" y="10" width="1" height="1" fill="#3184fe" fill-opacity="0.047"/>
<rect x="6" y="10" width="1" height="1" fill="#044e9a" fill-opacity="0.043"/>
<rect x="7" y="10" width="1" height="1" fill="#044e9a" fill-opacity="0.776"/>
<rect x="8" y="10" width="1" height="1" fill="#044e9b" fill-opacity="0.263"/>
<rect x="10" y="10" width="1" height="1" fill="#0378be" fill-opacity="0.051"/>
<rect x="11" y="10" width="1" height="1" fill="#2c6fa6" fill-opacity="0.98"/>
<rect x="12" y="10" width="1" height="1" fill="#2b7ebb" fill-opacity="0.843"/>
<rect x="13" y="10" width="1" height="1" fill="#317bc6" fill-opacity="0.847"/>
<rect x="14" y="10" width="1" height="1" fill="#2084d3" fill-opacity="0.906"/>
<rect x="15" y="10" width="1" height="1" fill="#045fe3" fill-opacity="0.988"/>
<rect x="16" y="10" width="1" height="1" fill="#bed3f9"/>
<rect x="17" y="10" width="1" height="1" fill="#eef4ff"/>
<rect x="18" y="10" width="1" height="1" fill="#f2f6ff"/>
<rect x="19" y="10" width="1" height="1" fill="#a7c4f9"/>
<rect x="20" y="10" width="1" height="1" fill="#89aff5"/>
<rect x="21" y="10" width="1" height="1" fill="#3978ee"/>
<rect x="22" y="10" width="1" height="1" fill="#0e5beb"/>
<rect x="23" y="10" width="1" height="1" fill="#2d71f1"/>
<rect x="24" y="10" width="1" height="1" fill="#0f5ded"/>
<rect x="1" y="11" width="1" height="1" fill="#3184fe" fill-opacity="0.235"/>
<rect x="2" y="11" width="1" height="1" fill="#316bdf" fill-opacity="0.125"/>
<rect x="3" y="11" width="1" height="1" fill="#1445ae" fill-opacity="0.024"/>
<rect x="6" y="11" width="1" height="1" fill="#044e9a" fill-opacity="0.035"/>
<rect x="7" y="11" width="1" height="1" fill="#044e9a" fill-opacity="0.082"/>
<rect x="9" y="11" width="1" height="1" fill="#0542a3" fill-opacity="0.09"/>
<rect x="10" y="11" width="1" height="1" fill="#0673bf" fill-opacity="0.125"/>
<rect x="11" y="11" width="1" height="1" fill="#277ecc" fill-opacity="0.996"/>
<rect x="12" y="11" width="1" height="1" fill="#3296e5" fill-opacity="0.996"/>
<rect x="13" y="11" width="1" height="1" fill="#4393e0" fill-opacity="0.973"/>
<rect x="14" y="11" width="1" height="1" fill="#31a1ea" fill-opacity="0.976"/>
<rect x="15" y="11" width="1" height="1" fill="#3f88ee"/>
<rect x="16" y="11" width="1" height="1" fill="#99b9f5"/>
<rect x="17" y="11" width="1" height="1" fill="#e3ecff"/>
<rect x="18" y="11" width="1" height="1" fill="#f0f5ff"/>
<rect x="19" y="11" width="1" height="1" fill="#f1f6fe"/>
<rect x="20" y="11" width="1" height="1" fill="#95b7f5"/>
<rect x="21" y="11" width="1" height="1" fill="#0052e6" fill-opacity="0.596"/>
<rect x="22" y="11" width="1" height="1" fill="#236afb" fill-opacity="0.075"/>
<rect x="23" y="11" width="1" height="1" fill="#3878f6" fill-opacity="0.255"/>
<rect x="24" y="11" width="1" height="1" fill="#2d71ff" fill-opacity="0.42"/>
<rect x="1" y="12" width="1" height="1" fill="#3184fe" fill-opacity="0.059"/>
<rect x="7" y="12" width="1" height="1" fill="#044e9a" fill-opacity="0.016"/>
<rect x="9" y="12" width="1" height="1" fill="#053a98" fill-opacity="0.016"/>
<rect x="10" y="12" width="1" height="1" fill="#0381cb" fill-opacity="0.216"/>
<rect x="11" y="12" width="1" height="1" fill="#2f8de3" fill-opacity="0.996"/>
<rect x="12" y="12" width="1" height="1" fill="#3297ea"/>
<rect x="13" y="12" width="1" height="1" fill="#2d84ea" fill-opacity="0.996"/>
<rect x="14" y="12" width="1" height="1" fill="#0555e5"/>
<rect x="15" y="12" width="1" height="1" fill="#3878eb"/>
<rect x="16" y="12" width="1" height="1" fill="#b7cef8"/>
<rect x="17" y="12" width="1" height="1" fill="#eff4ff"/>
<rect x="18" y="12" width="1" height="1" fill="#e0eaff"/>
<rect x="19" y="12" width="1" height="1" fill="#f0f5ff"/>
<rect x="20" y="12" width="1" height="1" fill="#f5f8ff"/>
<rect x="21" y="12" width="1" height="1" fill="#4883ee"/>
<rect x="22" y="12" width="1" height="1" fill="#0052e6" fill-opacity="0.584"/>
<rect x="24" y="12" width="1" height="1" fill="#ffffff" fill-opacity="0.043"/>
<rect x="0" y="13" width="1" height="1" fill="#044e9a" fill-opacity="0.004"/>
<rect x="2" y="13" width="1" height="1" fill="#00b2fc" fill-opacity="0.004"/>
<rect x="4" y="13" width="1" height="1" fill="#0c51ad" fill-opacity="0.016"/>
<rect x="5" y="13" width="1" height="1" fill="#00359d" fill-opacity="0.012"/>
<rect x="8" y="13" width="1" height="1" fill="#057bbf" fill-opacity="0.039"/>
<rect x="9" y="13" width="1" height="1" fill="#2ca7e6" fill-opacity="0.18"/>
<rect x="10" y="13" width="1" height="1" fill="#2c8adb" fill-opacity="0.976"/>
<rect x="11" y="13" width="1" height="1" fill="#3ca4f0"/>
<rect x="12" y="13" width="1" height="1" fill="#0153e5"/>
<rect x="13" y="13" width="1" height="1" fill="#1b64e2"/>
<rect x="14" y="13" width="1" height="1" fill="#417ab8"/>
<rect x="15" y="13" width="1" height="1" fill="#bdd1ee"/>
<rect x="16" y="13" width="1" height="1" fill="#d4e1fa"/>
<rect x="17" y="13" width="1" height="1" fill="#d8e4ff"/>
<rect x="18" y="13" width="1" height="1" fill="#d5e2ff"/>
<rect x="19" y="13" width="1" height="1" fill="#d2e1ff"/>
<rect x="20" y="13" width="1" height="1" fill="#e5edff"/>
<rect x="21" y="13" width="1" height="1" fill="#e9f0ff"/>
<rect x="22" y="13" width="1" height="1" fill="#5c91f1"/>
<rect x="23" y="13" width="1" height="1" fill="#0555e6" fill-opacity="0.384"/>
<rect x="0" y="14" width="1" height="1" fill="#045ee4"/>
<rect x="1" y="14" width="1" height="1" fill="#0571ee"/>
<rect x="2" y="14" width="1" height="1" fill="#067fec"/>
<rect x="3" y="14" width="1" height="1" fill="#0b4fdc" fill-opacity="0.243"/>
<rect x="4" y="14" width="1" height="1" fill="#359fe8" fill-opacity="0.098"/>
<rect x="5" y="14" width="1" height="1" fill="#01a6f8" fill-opacity="0.051"/>
<rect x="6" y="14" width="1" height="1" fill="#0774d4" fill-opacity="0.078"/>
<rect x="7" y="14" width="1" height="1" fill="#038ed6" fill-opacity="0.173"/>
<rect x="8" y="14" width="1" height="1" fill="#155cc8" fill-opacity="0.647"/>
<rect x="9" y="14" width="1" height="1" fill="#0957d2" fill-opacity="0.902"/>
<rect x="10" y="14" width="1" height="1" fill="#327cee" fill-opacity="0.992"/>
<rect x="11" y="14" width="1" height="1" fill="#37a0ed"/>
<rect x="12" y="14" width="1" height="1" fill="#085dad"/>
<rect x="13" y="14" width="1" height="1" fill="#054f9d"/>
<rect x="14" y="14" width="1" height="1" fill="#0d559f"/>
<rect x="15" y="14" width="1" height="1" fill="#d1deed"/>
<rect x="16" y="14" width="1" height="1" fill="#eaf0f7"/>
<rect x="17" y="14" width="1" height="1" fill="#e5ecfd"/>
<rect x="18" y="14" width="1" height="1" fill="#d7e3ff"/>
<rect x="19" y="14" width="1" height="1" fill="#a9c5fc"/>
<rect x="20" y="14" width="1" height="1" fill="#89affa"/>
<rect x="21" y="14" width="1" height="1" fill="#93b6fa"/>
<rect x="22" y="14" width="1" height="1" fill="#b7cef9"/>
<rect x="23" y="14" width="1" height="1" fill="#276ceb"/>
<rect x="24" y="14" width="1" height="1" fill="#4681ed" fill-opacity="0.157"/>
<rect x="0" y="15" width="1" height="1" fill="#0a5cf3"/>
<rect x="1" y="15" width="1" height="1" fill="#8ebed0"/>
<rect x="2" y="15" width="1" height="1" fill="#71a9d6"/>
<rect x="3" y="15" width="1" height="1" fill="#0369dd"/>
<rect x="4" y="15" width="1" height="1" fill="#0566f0"/>
<rect x="5" y="15" width="1" height="1" fill="#067aed"/>
<rect x="6" y="15" width="1" height="1" fill="#0663ef"/>
<rect x="7" y="15" width="1" height="1" fill="#056ff3"/>
<rect x="8" y="15" width="1" height="1" fill="#f9c901"/>
<rect x="9" y="15" width="1" height="1" fill="#fdf600"/>
<rect x="10" y="15" width="1" height="1" fill="#0571e9"/>
<rect x="11" y="15" width="1" height="1" fill="#1e93f5"/>
<rect x="12" y="15" width="1" height="1" fill="#2391f5"/>
<rect x="13" y="15" width="1" height="1" fill="#0761c8"/>
<rect x="14" y="15" width="1" height="1" fill="#0650a0"/>
<rect x="15" y="15" width="1" height="1" fill="#a0beed"/>
<rect x="16" y="15" width="1" height="1" fill="#e3ecfd"/>
<rect x="17" y="15" width="1" height="1" fill="#fafcfe"/>
<rect x="18" y="15" width="1" height="1" fill="#f2f6ff"/>
<rect x="19" y="15" width="1" height="1" fill="#d9e5ff"/>
<rect x="20" y="15" width="1" height="1" fill="#4682f1"/>
<rect x="21" y="15" width="1" height="1" fill="#115de8"/>
<rect x="22" y="15" width="1" height="1" fill="#437fee"/>
<rect x="23" y="15" width="1" height="1" fill="#2f72ee"/>
<rect x="24" y="15" width="1" height="1" fill="#0a58e7"/>
<rect x="0" y="16" width="1" height="1" fill="#0358dd"/>
<rect x="1" y="16" width="1" height="1" fill="#c5dad7"/>
<rect x="2" y="16" width="1" height="1" fill="#e6ece6"/>
<rect x="3" y="16" width="1" height="1" fill="#e7faea"/>
<rect x="4" y="16" width="1" height="1" fill="#f6f7f1"/>
<rect x="5" y="16" width="1" height="1" fill="#dae4ee"/>
<rect x="6" y="16" width="1" height="1" fill="#b0cfe3"/>
<rect x="7" y="16" width="1" height="1" fill="#a1baf1"/>
<rect x="8" y="16" width="1" height="1" fill="#107bf1"/>
<rect x="9" y="16" width="1" height="1" fill="#ed7203"/>
<rect x="10" y="16" width="1" height="1" fill="#feb301"/>
<rect x="11" y="16" width="1" height="1" fill="#065fe3"/>
<rect x="12" y="16" width="1" height="1" fill="#137ce7"/>
<rect x="13" y="16" width="1" height="1" fill="#1474e9"/>
<rect x="14" y="16" width="1" height="1" fill="#0153e6"/>
<rect x="15" y="16" width="1" height="1" fill="#2168e8"/>
<rect x="16" y="16" width="1" height="1" fill="#8eb3f8"/>
<rect x="17" y="16" width="1" height="1" fill="#93b7fe"/>
<rect x="18" y="16" width="1" height="1" fill="#ccddff"/>
<rect x="19" y="16" width="1" height="1" fill="#f2f6ff"/>
<rect x="20" y="16" width="1" height="1" fill="#b6cdfa"/>
<rect x="21" y="16" width="1" height="1" fill="#0454e7"/>
<rect x="22" y="16" width="1" height="1" fill="#0052e6" fill-opacity="0.325"/>
<rect x="23" y="16" width="1" height="1" fill="#1561f3" fill-opacity="0.184"/>
<rect x="24" y="16" width="1" height="1" fill="#286efe" fill-opacity="0.463"/>
<rect x="0" y="17" width="1" height="1" fill="#004ae4"/>
<rect x="1" y="17" width="1" height="1" fill="#e7f2f0"/>
<rect x="2" y="17" width="1" height="1" fill="#ebfcff"/>
<rect x="3" y="17" width="1" height="1" fill="#fefff9"/>
<rect x="4" y="17" width="1" height="1" fill="#fef6fe"/>
<rect x="5" y="17" width="1" height="1" fill="#fef4fe"/>
<rect x="6" y="17" width="1" height="1" fill="#fcfefc"/>
<rect x="7" y="17" width="1" height="1" fill="#fafcf9"/>
<rect x="8" y="17" width="1" height="1" fill="#dfeafa"/>
<rect x="9" y="17" width="1" height="1" fill="#377ff0"/>
<rect x="10" y="17" width="1" height="1" fill="#f14c03"/>
<rect x="11" y="17" width="1" height="1" fill="#fe6c02"/>
<rect x="12" y="17" width="1" height="1" fill="#035dec"/>
<rect x="13" y="17" width="1" height="1" fill="#0474ec"/>
<rect x="14" y="17" width="1" height="1" fill="#067af1"/>
<rect x="15" y="17" width="1" height="1" fill="#067df0"/>
<rect x="16" y="17" width="1" height="1" fill="#0255e8"/>
<rect x="17" y="17" width="1" height="1" fill="#0254e7"/>
<rect x="18" y="17" width="1" height="1" fill="#1d66ec"/>
<rect x="19" y="17" width="1" height="1" fill="#a2c0fc"/>
<rect x="20" y="17" width="1" height="1" fill="#c7d9fb"/>
<rect x="21" y="17" width="1" height="1" fill="#b6cef8"/>
<rect x="22" y="17" width="1" height="1" fill="#0958e8"/>
<rect x="23" y="17" width="1" height="1" fill="#427ff1" fill-opacity="0.188"/>
<rect x="24" y="17" width="1" height="1" fill="#f0f4ff" fill-opacity="0.004"/>
<rect x="0" y="18" width="1" height="1" fill="#0653ea"/>
<rect x="1" y="18" width="1" height="1" fill="#589ef1"/>
<rect x="2" y="18" width="1" height="1" fill="#d6dcfb"/>
<rect x="3" y="18" width="1" height="1" fill="#eaf1f8"/>
<rect x="4" y="18" width="1" height="1" fill="#fbfffb"/>
<rect x="5" y="18" width="1" height="1" fill="#f2fdfb"/>
<rect x="6" y="18" width="1" height="1" fill="#effcf0"/>
<rect x="7" y="18" width="1" height="1" fill="#e9f2ef"/>
<rect x="8" y="18" width="1" height="1" fill="#cedfee"/>
<rect x="9" y="18" width="1" height="1" fill="#88b0f9"/>
<rect x="10" y="18" width="1" height="1" fill="#0665e8"/>
<rect x="11" y="18" width="1" height="1" fill="#d83a04"/>
<rect x="12" y="18" width="1" height="1" fill="#da4604"/>
<rect x="13" y="18" width="1" height="1" fill="#015ee1"/>
<rect x="14" y="18" width="1" height="1" fill="#0266ef"/>
<rect x="15" y="18" width="1" height="1" fill="#0368eb"/>
<rect x="16" y="18" width="1" height="1" fill="#0460f2"/>
<rect x="17" y="18" width="1" height="1" fill="#045eed"/>
<rect x="18" y="18" width="1" height="1" fill="#0151de" fill-opacity="0.49"/>
<rect x="19" y="18" width="1" height="1" fill="#2068ea"/>
<rect x="20" y="18" width="1" height="1" fill="#3777f5"/>
<rect x="21" y="18" width="1" height="1" fill="#0f5ceb"/>
<rect x="22" y="18" width="1" height="1" fill="#2c70ea"/>
<rect x="23" y="18" width="1" height="1" fill="#568cef"/>
<rect x="24" y="18" width="1" height="1" fill="#dce7fc" fill-opacity="0.063"/>
<rect x="0" y="19" width="1" height="1" fill="#0645ed" fill-opacity="0.267"/>
<rect x="1" y="19" width="1" height="1" fill="#035cf2"/>
<rect x="2" y="19" width="1" height="1" fill="#0156e7"/>
<rect x="3" y="19" width="1" height="1" fill="#0570f4"/>
<rect x="4" y="19" width="1" height="1" fill="#0884dd"/>
<rect x="5" y="19" width="1" height="1" fill="#087ae1"/>
<rect x="6" y="19" width="1" height="1" fill="#0979d5"/>
<rect x="7" y="19" width="1" height="1" fill="#066bdc"/>
<rect x="8" y="19" width="1" height="1" fill="#025bf1"/>
<rect x="9" y="19" width="1" height="1" fill="#0372eb"/>
<rect x="10" y="19" width="1" height="1" fill="#0469eb"/>
<rect x="11" y="19" width="1" height="1" fill="#025ef5"/>
<rect x="12" y="19" width="1" height="1" fill="#9f380c"/>
<rect x="13" y="19" width="1" height="1" fill="#933e0e"/>
<rect x="14" y="19" width="1" height="1" fill="#014cf9"/>
<rect x="15" y="19" width="1" height="1" fill="#014eeb"/>
<rect x="16" y="19" width="1" height="1" fill="#0254eb"/>
<rect x="17" y="19" width="1" height="1" fill="#045def"/>
<rect x="18" y="19" width="1" height="1" fill="#1262b8" fill-opacity="0.114"/>
<rect x="19" y="19" width="1" height="1" fill="#0555e9" fill-opacity="0.137"/>
<rect x="20" y="19" width="1" height="1" fill="#135fef"/>
<rect x="21" y="19" width="1" height="1" fill="#2169fa" fill-opacity="0.133"/>
<rect x="22" y="19" width="1" height="1" fill="#0052e6" fill-opacity="0.173"/>
<rect x="23" y="19" width="1" height="1" fill="#0152e6"/>
<rect x="24" y="19" width="1" height="1" fill="#6f9df1"/>
<rect x="11" y="20" width="1" height="1" fill="#c81ec8" fill-opacity="0.035"/>
<rect x="12" y="20" width="1" height="1" fill="#e41ee4" fill-opacity="0.035"/>
<rect x="13" y="20" width="1" height="1" fill="#e41ee4" fill-opacity="0.035"/>
<rect x="14" y="20" width="1" height="1" fill="#e41ee4" fill-opacity="0.035"/>
<rect x="15" y="20" width="1" height="1" fill="#e41ee4" fill-opacity="0.035"/>
<rect x="16" y="20" width="1" height="1" fill="#c81ec8" fill-opacity="0.035"/>
</svg>