<?xml version="1.0" encoding="UTF-8" standalone="no"?>
<svg xmlns="http://www.w3.org/2000/svg" width="26" height="21" shape-rendering="crispEdges">
<rect x="12" y="0" width="1" height="1" fill="#2e21fe" fill-opacity="0.459"/>
<rect x="13" y="0" width="1" height="1" fill="#3427fe" fill-opacity="0.875"/>
<rect x="14" y="0" width="1" height="1" fill="#372afe"/>
<rect x="15" y="0" width="1" height="1" fill="#392dfe"/>
<rect x="16" y="0" width="1" height="1" fill="#453afe"/>
<rect x="17" y="0" width="1" height="1" fill="#493efe"/>
<rect x="18" y="0" width="1" height="1" fill="#463bfe"/>
<rect x="19" y="0" width="1" height="1" fill="#3b2efe"/>
<rect x="20" y="0" width="1" height="1" fill="#362afe"/>
<rect x="21" y="0" width="1" height="1" fill="#382bfe"/>
<rect x="22" y="0" width="1" height="1" fill="#4034fe"/>
<rect x="23" y="0" width="1" height="1" fill="#3e31fe"/>
<rect x="24" y="0" width="1" height="1" fill="#3023fe"/>
<rect x="11" y="1" width="1" height="1" fill="#2d20fe" fill-opacity="0.565"/>
<rect x="12" y="1" width="1" height="1" fill="#3e32fe"/>
<rect x="13" y="1" width="1" height="1" fill="#cac7ff"/>
<rect x="14" y="1" width="1" height="1" fill="#d0cdff"/>
<rect x="15" y="1" width="1" height="1" fill="#e3e1ff"/>
<rect x="16" y="1" width="1" height="1" fill="#ecebff"/>
<rect x="17" y="1" width="1" height="1" fill="#e7e6ff"/>
<rect x="18" y="1" width="1" height="1" fill="#edecff"/>
<rect x="19" y="1" width="1" height="1" fill="#e5e3ff"/>
<rect x="20" y="1" width="1" height="1" fill="#d7d5ff"/>
<rect x="21" y="1" width="1" height="1" fill="#d2cfff"/>
<rect x="22" y="1" width="1" height="1" fill="#b5b0ff"/>
<rect x="23" y="1" width="1" height="1" fill="#4a40fe"/>
<rect x="24" y="1" width="1" height="1" fill="#5248fe" fill-opacity="0.212"/>
<rect x="10" y="2" width="1" height="1" fill="#2d20fe" fill-opacity="0.569"/>
<rect x="11" y="2" width="1" height="1" fill="#3e33fe"/>
<rect x="12" y="2" width="1" height="1" fill="#dedcff"/>
<rect x="13" y="2" width="1" height="1" fill="#f3f1ff"/>
<rect x="14" y="2" width="1" height="1" fill="#e9e7ff"/>
<rect x="15" y="2" width="1" height="1" fill="#f0efff"/>
<rect x="16" y="2" width="1" height="1" fill="#fcfcff"/>
<rect x="17" y="2" width="1" height="1" fill="#fdfdff"/>
<rect x="18" y="2" width="1" height="1" fill="#f6f5ff"/>
<rect x="19" y="2" width="1" height="1" fill="#dcdaff"/>
<rect x="20" y="2" width="1" height="1" fill="#d6d3ff"/>
<rect x="21" y="2" width="1" height="1" fill="#6a61fe"/>
<rect x="22" y="2" width="1" height="1" fill="#392dfe" fill-opacity="0.796"/>
<rect x="23" y="2" width="1" height="1" fill="#2f22fe" fill-opacity="0.361"/>
<rect x="9" y="3" width="1" height="1" fill="#2d20fe" fill-opacity="0.549"/>
<rect x="10" y="3" width="1" height="1" fill="#4439fe"/>
<rect x="11" y="3" width="1" height="1" fill="#dcdaff"/>
<rect x="12" y="3" width="1" height="1" fill="#f9f9ff"/>
<rect x="13" y="3" width="1" height="1" fill="#f2f1fe"/>
<rect x="14" y="3" width="1" height="1" fill="#edecfd"/>
<rect x="15" y="3" width="1" height="1" fill="#ebe9ff"/>
<rect x="16" y="3" width="1" height="1" fill="#f3f2ff"/>
<rect x="17" y="3" width="1" height="1" fill="#dad8ff"/>
<rect x="18" y="3" width="1" height="1" fill="#cfccff"/>
<rect x="19" y="3" width="1" height="1" fill="#b6b2ff"/>
<rect x="20" y="3" width="1" height="1" fill="#473cfe"/>
<rect x="21" y="3" width="1" height="1" fill="#362afe" fill-opacity="0.588"/>
<rect x="22" y="3" width="1" height="1" fill="#7e76ff" fill-opacity="0.247"/>
<rect x="23" y="3" width="1" height="1" fill="#7e76ff" fill-opacity="0.004"/>
<rect x="4" y="4" width="1" height="1" fill="#3b2ffa" fill-opacity="0.004"/>
<rect x="5" y="4" width="1" height="1" fill="#3b2ffa" fill-opacity="0.012"/>
<rect x="7" y="4" width="1" height="1" fill="#1005c8" fill-opacity="0.043"/>
<rect x="8" y="4" width="1" height="1" fill="#281bf5" fill-opacity="0.478"/>
<rect x="9" y="4" width="1" height="1" fill="#3f34fe"/>
<rect x="10" y="4" width="1" height="1" fill="#cecaff"/>
<rect x="11" y="4" width="1" height="1" fill="#f8f8ff"/>
<rect x="12" y="4" width="1" height="1" fill="#f0effe"/>
<rect x="13" y="4" width="1" height="1" fill="#edecfd"/>
<rect x="14" y="4" width="1" height="1" fill="#eceaff"/>
<rect x="15" y="4" width="1" height="1" fill="#e4e3ff"/>
<rect x="16" y="4" width="1" height="1" fill="#dfddff"/>
<rect x="17" y="4" width="1" height="1" fill="#c8c5ff"/>
<rect x="18" y="4" width="1" height="1" fill="#958eff"/>
<rect x="19" y="4" width="1" height="1" fill="#4135fe"/>
<rect x="20" y="4" width="1" height="1" fill="#3529fe" fill-opacity="0.341"/>
<rect x="21" y="4" width="1" height="1" fill="#7e76ff" fill-opacity="0.243"/>
<rect x="22" y="4" width="1" height="1" fill="#7e76ff" fill-opacity="0.059"/>
<rect x="3" y="5" width="1" height="1" fill="#3b2ffa"/>
<rect x="4" y="5" width="1" height="1" fill="#3b2ffa" fill-opacity="0.184"/>
<rect x="5" y="5" width="1" height="1" fill="#3b2ffa" fill-opacity="0.02"/>
<rect x="7" y="5" width="1" height="1" fill="#1005c9" fill-opacity="0.361"/>
<rect x="8" y="5" width="1" height="1" fill="#1f13e2"/>
<rect x="9" y="5" width="1" height="1" fill="#b3aef4"/>
<rect x="10" y="5" width="1" height="1" fill="#cecbf7"/>
<rect x="11" y="5" width="1" height="1" fill="#f1f1ff"/>
<rect x="12" y="5" width="1" height="1" fill="#ecebfe"/>
<rect x="13" y="5" width="1" height="1" fill="#f2f2ff"/>
<rect x="14" y="5" width="1" height="1" fill="#f6f6ff"/>
<rect x="15" y="5" width="1" height="1" fill="#f7f7ff"/>
<rect x="16" y="5" width="1" height="1" fill="#f2f2ff"/>
<rect x="17" y="5" width="1" height="1" fill="#eceaff"/>
<rect x="18" y="5" width="1" height="1" fill="#c3c0ff"/>
<rect x="19" y="5" width="1" height="1" fill="#5d53fe"/>
<rect x="20" y="5" width="1" height="1" fill="#4a3ffe"/>
<rect x="21" y="5" width="1" height="1" fill="#7d75ff" fill-opacity="0.286"/>
<rect x="22" y="5" width="1" height="1" fill="#7e76ff" fill-opacity="0.012"/>
<rect x="2" y="6" width="1" height="1" fill="#3b2ffa"/>
<rect x="3" y="6" width="1" height="1" fill="#3b2ffa" fill-opacity="0.314"/>
<rect x="4" y="6" width="1" height="1" fill="#3b2ffa" fill-opacity="0.051"/>
<rect x="6" y="6" width="1" height="1" fill="#1005c8" fill-opacity="0.004"/>
<rect x="7" y="6" width="1" height="1" fill="#160bd3" fill-opacity="0.796"/>
<rect x="8" y="6" width="1" height="1" fill="#160bca"/>
<rect x="9" y="6" width="1" height="1" fill="#7b75dd"/>
<rect x="10" y="6" width="1" height="1" fill="#c4c0f4"/>
<rect x="11" y="6" width="1" height="1" fill="#d0cefe"/>
<rect x="12" y="6" width="1" height="1" fill="#cbc8ff"/>
<rect x="13" y="6" width="1" height="1" fill="#f5f4ff"/>
<rect x="14" y="6" width="1" height="1" fill="#fdfdff"/>
<rect x="15" y="6" width="1" height="1" fill="#fefeff"/>
<rect x="16" y="6" width="1" height="1" fill="#ffffff"/>
<rect x="17" y="6" width="1" height="1" fill="#fdfdff"/>
<rect x="18" y="6" width="1" height="1" fill="#f8f6ff"/>
<rect x="19" y="6" width="1" height="1" fill="#dddaff"/>
<rect x="20" y="6" width="1" height="1" fill="#6d64fe"/>
<rect x="21" y="6" width="1" height="1" fill="#5b51ff" fill-opacity="0.749"/>
<rect x="22" y="6" width="1" height="1" fill="#7e76ff" fill-opacity="0.176"/>
<rect x="23" y="6" width="1" height="1" fill="#8d86ff" fill-opacity="0.008"/>
<rect x="1" y="7" width="1" height="1" fill="#3b2ffa"/>
<rect x="2" y="7" width="1" height="1" fill="#3b2ffa"/>
<rect x="3" y="7" width="1" height="1" fill="#3b2ffa" fill-opacity="0.078"/>
<rect x="6" y="7" width="1" height="1" fill="#1005c8" fill-opacity="0.024"/>
<rect x="7" y="7" width="1" height="1" fill="#160bd3" fill-opacity="0.965"/>
<rect x="8" y="7" width="1" height="1" fill="#1409c9"/>
<rect x="9" y="7" width="1" height="1" fill="#1f14cd"/>
<rect x="10" y="7" width="1" height="1" fill="#2e22f4"/>
<rect x="11" y="7" width="1" height="1" fill="#2d20fe" fill-opacity="0.827"/>
<rect x="12" y="7" width="1" height="1" fill="#3326fe"/>
<rect x="13" y="7" width="1" height="1" fill="#7168fe"/>
<rect x="14" y="7" width="1" height="1" fill="#d9d6ff"/>
<rect x="15" y="7" width="1" height="1" fill="#f5f5ff"/>
<rect x="16" y="7" width="1" height="1" fill="#fafaff"/>
<rect x="17" y="7" width="1" height="1" fill="#f9f9ff"/>
<rect x="18" y="7" width="1" height="1" fill="#fcfcff"/>
<rect x="19" y="7" width="1" height="1" fill="#fafaff"/>
<rect x="20" y="7" width="1" height="1" fill="#d5d2ff"/>
<rect x="21" y="7" width="1" height="1" fill="#6c63ff"/>
<rect x="22" y="7" width="1" height="1" fill="#574dff" fill-opacity="0.686"/>
<rect x="23" y="7" width="1" height="1" fill="#fbfbff" fill-opacity="0.031"/>
<rect x="24" y="7" width="1" height="1" fill="#f9f9ff" fill-opacity="0.004"/>
<rect x="1" y="8" width="1" height="1" fill="#3b2ffa" fill-opacity="0.329"/>
<rect x="2" y="8" width="1" height="1" fill="#3b2ffa"/>
<rect x="3" y="8" width="1" height="1" fill="#3b2ffa" fill-opacity="0.992"/>
<rect x="4" y="8" width="1" height="1" fill="#3b2ffa" fill-opacity="0.012"/>
<rect x="6" y="8" width="1" height="1" fill="#1005c8" fill-opacity="0.043"/>
<rect x="7" y="8" width="1" height="1" fill="#1207cb" fill-opacity="0.929"/>
<rect x="8" y="8" width="1" height="1" fill="#1005c8"/>
<rect x="9" y="8" width="1" height="1" fill="#170bd5" fill-opacity="0.824"/>
<rect x="10" y="8" width="1" height="1" fill="#291cf6" fill-opacity="0.129"/>
<rect x="12" y="8" width="1" height="1" fill="#2d20fe" fill-opacity="0.016"/>
<rect x="13" y="8" width="1" height="1" fill="#2d20fe" fill-opacity="0.549"/>
<rect x="14" y="8" width="1" height="1" fill="#594efe"/>
<rect x="15" y="8" width="1" height="1" fill="#ebeaff"/>
<rect x="16" y="8" width="1" height="1" fill="#f0efff"/>
<rect x="17" y="8" width="1" height="1" fill="#f2f0ff"/>
<rect x="18" y="8" width="1" height="1" fill="#ebeaff"/>
<rect x="19" y="8" width="1" height="1" fill="#ebeaff"/>
<rect x="20" y="8" width="1" height="1" fill="#eceaff"/>
<rect x="21" y="8" width="1" height="1" fill="#c9c6ff"/>
<rect x="22" y="8" width="1" height="1" fill="#7f77ff"/>
<rect x="23" y="8" width="1" height="1" fill="#b2adff"/>
<rect x="24" y="8" width="1" height="1" fill="#e4e2ff" fill-opacity="0.027"/>
<rect x="0" y="9" width="1" height="1" fill="#ffffff" fill-opacity="0.008"/>
<rect x="2" y="9" width="1" height="1" fill="#3b2ffa"/>
<rect x="3" y="9" width="1" height="1" fill="#3b2ffa" fill-opacity="0.373"/>
<rect x="4" y="9" width="1" height="1" fill="#3b2ffa" fill-opacity="0.043"/>
<rect x="6" y="9" width="1" height="1" fill="#1005c8" fill-opacity="0.027"/>
<rect x="7" y="9" width="1" height="1" fill="#1005c8" fill-opacity="0.906"/>
<rect x="8" y="9" width="1" height="1" fill="#1106c9"/>
<rect x="9" y="9" width="1" height="1" fill="#1106ca" fill-opacity="0.122"/>
<rect x="10" y="9" width="1" height="1" fill="#0636ca" fill-opacity="0.024"/>
<rect x="11" y="9" width="1" height="1" fill="#2940c5" fill-opacity="0.91"/>
<rect x="12" y="9" width="1" height="1" fill="#4d51da" fill-opacity="0.973"/>
<rect x="13" y="9" width="1" height="1" fill="#5550da" fill-opacity="0.988"/>
<rect x="14" y="9" width="1" height="1" fill="#3729e6" fill-opacity="0.992"/>
<rect x="15" y="9" width="1" height="1" fill="#483efe"/>
<rect x="16" y="9" width="1" height="1" fill="#e3e2ff"/>
<rect x="17" y="9" width="1" height="1" fill="#f1f1ff"/>
<rect x="18" y="9" width="1" height="1" fill="#dedcff"/>
<rect x="19" y="9" width="1" height="1" fill="#c7c3ff"/>
<rect x="20" y="9" width="1" height="1" fill="#d9d7ff"/>
<rect x="21" y="9" width="1" height="1" fill="#e0dfff"/>
<rect x="22" y="9" width="1" height="1" fill="#ccc9ff"/>
<rect x="23" y="9" width="1" height="1" fill="#8b84fe"/>
<rect x="24" y="9" width="1" height="1" fill="#908aff"/>
<rect x="0" y="10" width="1" height="1" fill="#ffffff" fill-opacity="0.027"/>
<rect x="1" y="10" width="1" height="1" fill="#3b2ffa"/>
<rect x="2" y="10" width="1" height="1" fill="#3b2ffa" fill-opacity="0.4"/>
<rect x="3" y="10" width="1" height="1" fill="#3b2ffa" fill-opacity="0.047"/>
<rect x="6" y="10" width="1" height="1" fill="#1005c8" fill-opacity="0.043"/>
<rect x="7" y="10" width="1" height="1" fill="#1005c8" fill-opacity="0.776"/>
<rect x="8" y="10" width="1" height="1" fill="#1005c9" fill-opacity="0.263"/>
<rect x="10" y="10" width="1" height="1" fill="#081fd3" fill-opacity="0.051"/>
<rect x="11" y="10" width="1" height="1" fill="#4445c0" fill-opacity="0.984"/>
<rect x="12" y="10" width="1" height="1" fill="#5855e0" fill-opacity="0.925"/>
<rect x="13" y="10" width="1" height="1" fill="#4947d8" fill-opacity="0.89"/>
<rect x="14" y="10" width="1" height="1" fill="#4d4de8" fill-opacity="0.953"/>
<rect x="15" y="10" width="1" height="1" fill="#372dfb" fill-opacity="0.996"/>
<rect x="16" y="10" width="1" height="1" fill="#ccc8ff"/>
<rect x="17" y="10" width="1" height="1" fill="#f5f4ff"/>
<rect x="18" y="10" width="1" height="1" fill="#f7f6ff"/>
<rect x="19" y="10" width="1" height="1" fill="#bcb8ff"/>
<rect x="20" y="10" width="1" height="1" fill="#a19bff"/>
<rect x="21" y="10" width="1" height="1" fill="#6056fe"/>
<rect x="22" y="10" width="1" height="1" fill="#3f34fe"/>
<rect x="23" y="10" width="1" height="1" fill="#594ffe"/>
<rect x="24" y="10" width="1" height="1" fill="#4337fe"/>
<rect x="1" y="11" width="1" height="1" fill="#3b2ffa" fill-opacity="0.235"/>
<rect x="2" y="11" width="1" height="1" fill="#4730dd" fill-opacity="0.125"/>
<rect x="3" y="11" width="1" height="1" fill="#2b14ae" fill-opacity="0.024"/>
<rect x="6" y="11" width="1" height="1" fill="#1005c8" fill-opacity="0.035"/>
<rect x="7" y="11" width="1" height="1" fill="#1005c8" fill-opacity="0.082"/>
<rect x="9" y="11" width="1" height="1" fill="#1305a7" fill-opacity="0.09"/>
<rect x="10" y="11" width="1" height="1" fill="#061cbf" fill-opacity="0.125"/>
<rect x="11" y="11" width="1" height="1" fill="#5550e7"/>
<rect x="12" y="11" width="1" height="1" fill="#7566fa"/>
<rect x="13" y="11" width="1" height="1" fill="#685ef3" fill-opacity="0.992"/>
<rect x="14" y="11" width="1" height="1" fill="#7165fa" fill-opacity="0.996"/>
<rect x="15" y="11" width="1" height="1" fill="#4e43fd"/>
<rect x="16" y="11" width="1" height="1" fill="#aca7ff"/>
<rect x="17" y="11" width="1" height="1" fill="#eeedff"/>
<rect x="18" y="11" width="1" height="1" fill="#f6f5ff"/>
<rect x="19" y="11" width="1" height="1" fill="#f3f3ff"/>
<rect x="20" y="11" width="1" height="1" fill="#a9a4ff"/>
<rect x="21" y="11" width="1" height="1" fill="#2e21fe" fill-opacity="0.596"/>
<rect x="22" y="11" width="1" height="1" fill="#7169ff" fill-opacity="0.075"/>
<rect x="23" y="11" width="1" height="1" fill="#6a60ff" fill-opacity="0.255"/>
<rect x="24" y="11" width="1" height="1" fill="#7d75ff" fill-opacity="0.42"/>
<rect x="1" y="12" width="1" height="1" fill="#3b2ffa" fill-opacity="0.059"/>
<rect x="7" y="12" width="1" height="1" fill="#1005c8" fill-opacity="0.016"/>
<rect x="9" y="12" width="1" height="1" fill="#150598" fill-opacity="0.016"/>
<rect x="10" y="12" width="1" height="1" fill="#0324cb" fill-opacity="0.216"/>
<rect x="11" y="12" width="1" height="1" fill="#4145e9" fill-opacity="0.996"/>
<rect x="12" y="12" width="1" height="1" fill="#7768fb"/>
<rect x="13" y="12" width="1" height="1" fill="#5d4ffd"/>
<rect x="14" y="12" width="1" height="1" fill="#3124fe"/>
<rect x="15" y="12" width="1" height="1" fill="#5b51fe"/>
<rect x="16" y="12" width="1" height="1" fill="#c6c3fe"/>
<rect x="17" y="12" width="1" height="1" fill="#f5f5ff"/>
<rect x="18" y="12" width="1" height="1" fill="#ecebff"/>
<rect x="19" y="12" width="1" height="1" fill="#f6f4ff"/>
<rect x="20" y="12" width="1" height="1" fill="#f9f9ff"/>
<rect x="21" y="12" width="1" height="1" fill="#6d64fe"/>
<rect x="22" y="12" width="1" height="1" fill="#2e21fe" fill-opacity="0.584"/>
<rect x="24" y="12" width="1" height="1" fill="#ffffff" fill-opacity="0.043"/>
<rect x="0" y="13" width="1" height="1" fill="#4d3fd6" fill-opacity="0.047"/>
<rect x="1" y="13" width="1" height="1" fill="#5142d5" fill-opacity="0.008"/>
<rect x="2" y="13" width="1" height="1" fill="#003cfc" fill-opacity="0.004"/>
<rect x="3" y="13" width="1" height="1" fill="#4d3ed1" fill-opacity="0.008"/>
<rect x="4" y="13" width="1" height="1" fill="#120cad" fill-opacity="0.016"/>
<rect x="5" y="13" width="1" height="1" fill="#14009d" fill-opacity="0.012"/>
<rect x="7" y="13" width="1" height="1" fill="#6556e9" fill-opacity="0.012"/>
<rect x="8" y="13" width="1" height="1" fill="#142cc5" fill-opacity="0.047"/>
<rect x="9" y="13" width="1" height="1" fill="#2c50e6" fill-opacity="0.18"/>
<rect x="10" y="13" width="1" height="1" fill="#2f3adc" fill-opacity="0.976"/>
<rect x="11" y="13" width="1" height="1" fill="#6466f8"/>
<rect x="12" y="13" width="1" height="1" fill="#2e21fe"/>
<rect x="13" y="13" width="1" height="1" fill="#4135fa"/>
<rect x="14" y="13" width="1" height="1" fill="#4d45d9"/>
<rect x="15" y="13" width="1" height="1" fill="#c6c3f6"/>
<rect x="16" y="13" width="1" height="1" fill="#e0ddfc"/>
<rect x="17" y="13" width="1" height="1" fill="#e7e5ff"/>
<rect x="18" y="13" width="1" height="1" fill="#e5e3ff"/>
<rect x="19" y="13" width="1" height="1" fill="#e3e1ff"/>
<rect x="20" y="13" width="1" height="1" fill="#eeedff"/>
<rect x="21" y="13" width="1" height="1" fill="#f1f1ff"/>
<rect x="22" y="13" width="1" height="1" fill="#7d75fe"/>
<rect x="23" y="13" width="1" height="1" fill="#3124fe" fill-opacity="0.384"/>
<rect x="0" y="14" width="1" height="1" fill="#594ae1"/>
<rect x="1" y="14" width="1" height="1" fill="#5e51e0"/>
<rect x="2" y="14" width="1" height="1" fill="#5247d2"/>
<rect x="3" y="14" width="1" height="1" fill="#3d27d9" fill-opacity="0.392"/>
<rect x="4" y="14" width="1" height="1" fill="#3d47e1" fill-opacity="0.141"/>
<rect x="5" y="14" width="1" height="1" fill="#1a37ed" fill-opacity="0.075"/>
<rect x="6" y="14" width="1" height="1" fill="#3233df" fill-opacity="0.133"/>
<rect x="7" y="14" width="1" height="1" fill="#2b3dde" fill-opacity="0.259"/>
<rect x="8" y="14" width="1" height="1" fill="#2d20cb" fill-opacity="0.663"/>
<rect x="9" y="14" width="1" height="1" fill="#1e0ed3" fill-opacity="0.91"/>
<rect x="10" y="14" width="1" height="1" fill="#5f50f2" fill-opacity="0.996"/>
<rect x="11" y="14" width="1" height="1" fill="#776bfe"/>
<rect x="12" y="14" width="1" height="1" fill="#2315d3"/>
<rect x="13" y="14" width="1" height="1" fill="#1207ca"/>
<rect x="14" y="14" width="1" height="1" fill="#190fcb"/>
<rect x="15" y="14" width="1" height="1" fill="#d3d1f5"/>
<rect x="16" y="14" width="1" height="1" fill="#ebebfa"/>
<rect x="17" y="14" width="1" height="1" fill="#edebfe"/>
<rect x="18" y="14" width="1" height="1" fill="#e6e4ff"/>
<rect x="19" y="14" width="1" height="1" fill="#c5c1ff"/>
<rect x="20" y="14" width="1" height="1" fill="#aca7ff"/>
<rect x="21" y="14" width="1" height="1" fill="#b1adff"/>
<rect x="22" y="14" width="1" height="1" fill="#c6c3ff"/>
<rect x="23" y="14" width="1" height="1" fill="#5146fe"/>
<rect x="24" y="14" width="1" height="1" fill="#675dfe" fill-opacity="0.157"/>
<rect x="0" y="15" width="1" height="1" fill="#7061f6"/>
<rect x="1" y="15" width="1" height="1" fill="#cfe7d6"/>
<rect x="2" y="15" width="1" height="1" fill="#c1d4db"/>
<rect x="3" y="15" width="1" height="1" fill="#4e44cd"/>
<rect x="4" y="15" width="1" height="1" fill="#5849db"/>
<rect x="5" y="15" width="1" height="1" fill="#574bd9"/>
<rect x="6" y="15" width="1" height="1" fill="#5f50e3"/>
<rect x="7" y="15" width="1" height="1" fill="#6253e6"/>
<rect x="8" y="15" width="1" height="1" fill="#f9c901"/>
<rect x="9" y="15" width="1" height="1" fill="#fdf600"/>
<rect x="10" y="15" width="1" height="1" fill="#5a4bde"/>
<rect x="11" y="15" width="1" height="1" fill="#6152e6"/>
<rect x="12" y="15" width="1" height="1" fill="#6b54fb"/>
<rect x="13" y="15" width="1" height="1" fill="#301ee5"/>
<rect x="14" y="15" width="1" height="1" fill="#1409cc"/>
<rect x="15" y="15" width="1" height="1" fill="#b2aff5"/>
<rect x="16" y="15" width="1" height="1" fill="#ecebfd"/>
<rect x="17" y="15" width="1" height="1" fill="#fbfbff"/>
<rect x="18" y="15" width="1" height="1" fill="#f7f6ff"/>
<rect x="19" y="15" width="1" height="1" fill="#e7e5ff"/>
<rect x="20" y="15" width="1" height="1" fill="#7067fe"/>
<rect x="21" y="15" width="1" height="1" fill="#3f33fe"/>
<rect x="22" y="15" width="1" height="1" fill="#6960fe"/>
<rect x="23" y="15" width="1" height="1" fill="#6359fe"/>
<rect x="24" y="15" width="1" height="1" fill="#3529fe"/>
<rect x="0" y="16" width="1" height="1" fill="#423abf"/>
<rect x="1" y="16" width="1" height="1" fill="#d6e8de"/>
<rect x="2" y="16" width="1" height="1" fill="#e6f5e6"/>
<rect x="3" y="16" width="1" height="1" fill="#eaf7ea"/>
<rect x="4" y="16" width="1" height="1" fill="#f2f8f4"/>
<rect x="5" y="16" width="1" height="1" fill="#f4faf5"/>
<rect x="6" y="16" width="1" height="1" fill="#c7d0e8"/>
<rect x="7" y="16" width="1" height="1" fill="#b9b6f7"/>
<rect x="8" y="16" width="1" height="1" fill="#5647da"/>
<rect x="9" y="16" width="1" height="1" fill="#ed7203"/>
<rect x="10" y="16" width="1" height="1" fill="#feb301"/>
<rect x="11" y="16" width="1" height="1" fill="#5041d4"/>
<rect x="12" y="16" width="1" height="1" fill="#5a46ff"/>
<rect x="13" y="16" width="1" height="1" fill="#644bff"/>
<rect x="14" y="16" width="1" height="1" fill="#2e21fe"/>
<rect x="15" y="16" width="1" height="1" fill="#473cfd"/>
<rect x="16" y="16" width="1" height="1" fill="#a9a4fe"/>
<rect x="17" y="16" width="1" height="1" fill="#b9b5ff"/>
<rect x="18" y="16" width="1" height="1" fill="#e0deff"/>
<rect x="19" y="16" width="1" height="1" fill="#f7f6ff"/>
<rect x="20" y="16" width="1" height="1" fill="#c6c2ff"/>
<rect x="21" y="16" width="1" height="1" fill="#3226fe"/>
<rect x="22" y="16" width="1" height="1" fill="#2e21fe" fill-opacity="0.325"/>
<rect x="23" y="16" width="1" height="1" fill="#564cff" fill-opacity="0.184"/>
<rect x="24" y="16" width="1" height="1" fill="#7b72ff" fill-opacity="0.463"/>
<rect x="0" y="17" width="1" height="1" fill="#594add"/>
<rect x="1" y="17" width="1" height="1" fill="#eff8f1"/>
<rect x="2" y="17" width="1" height="1" fill="#fbfbff"/>
<rect x="3" y="17" width="1" height="1" fill="#fcfdfe"/>
<rect x="4" y="17" width="1" height="1" fill="#fefffe"/>
<rect x="5" y="17" width="1" height="1" fill="#fefffe"/>
<rect x="6" y="17" width="1" height="1" fill="#fbfdfc"/>
<rect x="7" y="17" width="1" height="1" fill="#f1f4f9"/>
<rect x="8" y="17" width="1" height="1" fill="#d5d2fc"/>
<rect x="9" y="17" width="1" height="1" fill="#5849dc"/>
<rect x="10" y="17" width="1" height="1" fill="#f14c03"/>
<rect x="11" y="17" width="1" height="1" fill="#fe6c02"/>
<rect x="12" y="17" width="1" height="1" fill="#4c42f9"/>
<rect x="13" y="17" width="1" height="1" fill="#5a3bff"/>
<rect x="14" y="17" width="1" height="1" fill="#6b4fff"/>
<rect x="15" y="17" width="1" height="1" fill="#5136ff"/>
<rect x="16" y="17" width="1" height="1" fill="#4031fe"/>
<rect x="17" y="17" width="1" height="1" fill="#3023fe"/>
<rect x="18" y="17" width="1" height="1" fill="#4c42fe"/>
<rect x="19" y="17" width="1" height="1" fill="#c0bcff"/>
<rect x="20" y="17" width="1" height="1" fill="#d5d2ff"/>
<rect x="21" y="17" width="1" height="1" fill="#c4c1ff"/>
<rect x="22" y="17" width="1" height="1" fill="#372afe"/>
<rect x="23" y="17" width="1" height="1" fill="#7970fe" fill-opacity="0.188"/>
<rect x="24" y="17" width="1" height="1" fill="#fbfbff" fill-opacity="0.008"/>
<rect x="0" y="18" width="1" height="1" fill="#5748db"/>
<rect x="1" y="18" width="1" height="1" fill="#9f93ff"/>
<rect x="2" y="18" width="1" height="1" fill="#f0eeff"/>
<rect x="3" y="18" width="1" height="1" fill="#f7fafa"/>
<rect x="4" y="18" width="1" height="1" fill="#fefffe"/>
<rect x="5" y="18" width="1" height="1" fill="#fbfdfb"/>
<rect x="6" y="18" width="1" height="1" fill="#fafcfd"/>
<rect x="7" y="18" width="1" height="1" fill="#f8fcf9"/>
<rect x="8" y="18" width="1" height="1" fill="#d3d7f3"/>
<rect x="9" y="18" width="1" height="1" fill="#afa6ff"/>
<rect x="10" y="18" width="1" height="1" fill="#5546d9"/>
<rect x="11" y="18" width="1" height="1" fill="#d83a04"/>
<rect x="12" y="18" width="1" height="1" fill="#da4604"/>
<rect x="13" y="18" width="1" height="1" fill="#5248fd"/>
<rect x="14" y="18" width="1" height="1" fill="#5736fe"/>
<rect x="15" y="18" width="1" height="1" fill="#5d41fd"/>
<rect x="16" y="18" width="1" height="1" fill="#553bfb"/>
<rect x="17" y="18" width="1" height="1" fill="#584bfe"/>
<rect x="18" y="18" width="1" height="1" fill="#291df2" fill-opacity="0.49"/>
<rect x="19" y="18" width="1" height="1" fill="#493efe"/>
<rect x="20" y="18" width="1" height="1" fill="#6f66fe"/>
<rect x="21" y="18" width="1" height="1" fill="#4135fe"/>
<rect x="22" y="18" width="1" height="1" fill="#5146fe"/>
<rect x="23" y="18" width="1" height="1" fill="#746bfe"/>
<rect x="24" y="18" width="1" height="1" fill="#e2e0ff" fill-opacity="0.059"/>
<rect x="0" y="19" width="1" height="1" fill="#3a15e6" fill-opacity="0.329"/>
<rect x="1" y="19" width="1" height="1" fill="#5e4ee6"/>
<rect x="2" y="19" width="1" height="1" fill="#5f50e3"/>
<rect x="3" y="19" width="1" height="1" fill="#5345d5"/>
<rect x="4" y="19" width="1" height="1" fill="#504fc7"/>
<rect x="5" y="19" width="1" height="1" fill="#5453ca"/>
<rect x="6" y="19" width="1" height="1" fill="#5458c5"/>
<rect x="7" y="19" width="1" height="1" fill="#5752d1"/>
<rect x="8" y="19" width="1" height="1" fill="#594ed8"/>
<rect x="9" y="19" width="1" height="1" fill="#5849dc"/>
<rect x="10" y="19" width="1" height="1" fill="#4d40ff"/>
<rect x="11" y="19" width="1" height="1" fill="#463aff"/>
<rect x="12" y="19" width="1" height="1" fill="#ab3d0a"/>
<rect x="13" y="19" width="1" height="1" fill="#ab440c"/>
<rect x="14" y="19" width="1" height="1" fill="#453aff"/>
<rect x="15" y="19" width="1" height="1" fill="#4131f6"/>
<rect x="16" y="19" width="1" height="1" fill="#3e3af7"/>
<rect x="17" y="19" width="1" height="1" fill="#4238ff"/>
<rect x="18" y="19" width="1" height="1" fill="#1215b8" fill-opacity="0.114"/>
<rect x="19" y="19" width="1" height="1" fill="#3528fe" fill-opacity="0.137"/>
<rect x="20" y="19" width="1" height="1" fill="#493efe"/>
<rect x="21" y="19" width="1" height="1" fill="#6960ff" fill-opacity="0.133"/>
<rect x="22" y="19" width="1" height="1" fill="#2d20fe" fill-opacity="0.173"/>
<rect x="23" y="19" width="1" height="1" fill="#2e21fe"/>
<rect x="24" y="19" width="1" height="1" fill="#8881fe"/>
<rect x="4" y="20" width="1" height="1" fill="#ff0000" fill-opacity="0.031"/>
<rect x="17" y="20" width="1" height="1" fill="#900000" fill-opacity="0.035"/>
<rect x="18" y="20" width="1" height="1" fill="#ac0000" fill-opacity="0.035"/>
<rect x="19" y="20" width="1" height="1" fill="#ac0000" fill-opacity="0.035"/>
<rect x="20" y="20" width="1" height="1" fill="#900000" fill-opacity="0.035"/>
<rect x="21" y="20" width="1" height="1" fill="#900000" fill-opacity="0.035"/>
</svg>