<?xml version="1.0" encoding="UTF-8" standalone="no"?>
<svg xmlns="http://www.w3.org/2000/svg" width="26" height="21" shape-rendering="crispEdges">
<rect x="9" y="1" width="1" height="1" fill="#b100dd" fill-opacity="0.008"/>
<rect x="10" y="1" width="1" height="1" fill="#ab00d6" fill-opacity="0.027"/>
<rect x="11" y="1" width="1" height="1" fill="#b100dd" fill-opacity="0.027"/>
<rect x="12" y="1" width="1" height="1" fill="#b100dd" fill-opacity="0.039"/>
<rect x="13" y="1" width="1" height="1" fill="#b100dd" fill-opacity="0.012"/>
<rect x="8" y="2" width="1" height="1" fill="#a000cd" fill-opacity="0.451"/>
<rect x="9" y="2" width="1" height="1" fill="#9200b9" fill-opacity="0.984"/>
<rect x="10" y="2" width="1" height="1" fill="#9500b8"/>
<rect x="11" y="2" width="1" height="1" fill="#9800bc"/>
<rect x="12" y="2" width="1" height="1" fill="#a200c8"/>
<rect x="13" y="2" width="1" height="1" fill="#9600c4" fill-opacity="0.863"/>
<rect x="14" y="2" width="1" height="1" fill="#9c00cf" fill-opacity="0.278"/>
<rect x="17" y="2" width="1" height="1" fill="#186f00" fill-opacity="0.933"/>
<rect x="18" y="2" width="1" height="1" fill="#186f00" fill-opacity="0.349"/>
<rect x="7" y="3" width="1" height="1" fill="#a000d2" fill-opacity="0.839"/>
<rect x="8" y="3" width="1" height="1" fill="#9800bc"/>
<rect x="9" y="3" width="1" height="1" fill="#cc00fa"/>
<rect x="10" y="3" width="1" height="1" fill="#e009ff"/>
<rect x="11" y="3" width="1" height="1" fill="#da01ff"/>
<rect x="12" y="3" width="1" height="1" fill="#d400fa"/>
<rect x="13" y="3" width="1" height="1" fill="#b000cb"/>
<rect x="14" y="3" width="1" height="1" fill="#a600bd"/>
<rect x="15" y="3" width="1" height="1" fill="#a200d2" fill-opacity="0.569"/>
<rect x="17" y="3" width="1" height="1" fill="#186f00"/>
<rect x="18" y="3" width="1" height="1" fill="#186d00" fill-opacity="0.557"/>
<rect x="19" y="3" width="1" height="1" fill="#186f00" fill-opacity="0.125"/>
<rect x="6" y="4" width="1" height="1" fill="#9f00cf" fill-opacity="0.459"/>
<rect x="7" y="4" width="1" height="1" fill="#a300bb"/>
<rect x="8" y="4" width="1" height="1" fill="#d300fe"/>
<rect x="9" y="4" width="1" height="1" fill="#da15ff"/>
<rect x="10" y="4" width="1" height="1" fill="#dc1fff"/>
<rect x="11" y="4" width="1" height="1" fill="#e017ff"/>
<rect x="12" y="4" width="1" height="1" fill="#e111ff"/>
<rect x="13" y="4" width="1" height="1" fill="#dc03ff"/>
<rect x="14" y="4" width="1" height="1" fill="#b600d1"/>
<rect x="15" y="4" width="1" height="1" fill="#ac00c2" fill-opacity="0.992"/>
<rect x="16" y="4" width="1" height="1" fill="#aa00d4" fill-opacity="0.302"/>
<rect x="17" y="4" width="1" height="1" fill="#186f00" fill-opacity="0.886"/>
<rect x="18" y="4" width="1" height="1" fill="#186f00"/>
<rect x="19" y="4" width="1" height="1" fill="#186f00"/>
<rect x="20" y="4" width="1" height="1" fill="#186f00" fill-opacity="0.157"/>
<rect x="5" y="5" width="1" height="1" fill="#a900df" fill-opacity="0.525"/>
<rect x="6" y="5" width="1" height="1" fill="#a302be" fill-opacity="0.996"/>
<rect x="7" y="5" width="1" height="1" fill="#c106e6"/>
<rect x="8" y="5" width="1" height="1" fill="#e023ff"/>
<rect x="9" y="5" width="1" height="1" fill="#e030ff"/>
<rect x="10" y="5" width="1" height="1" fill="#ea38ff"/>
<rect x="11" y="5" width="1" height="1" fill="#e935ff"/>
<rect x="12" y="5" width="1" height="1" fill="#e228ff"/>
<rect x="13" y="5" width="1" height="1" fill="#e218ff"/>
<rect x="14" y="5" width="1" height="1" fill="#dc04ff"/>
<rect x="15" y="5" width="1" height="1" fill="#c000d9"/>
<rect x="16" y="5" width="1" height="1" fill="#b300c1" fill-opacity="0.882"/>
<rect x="17" y="5" width="1" height="1" fill="#b600c5" fill-opacity="0.016"/>
<rect x="3" y="6" width="1" height="1" fill="#e00033" fill-opacity="0.369"/>
<rect x="4" y="6" width="1" height="1" fill="#fe003d" fill-opacity="0.431"/>
<rect x="5" y="6" width="1" height="1" fill="#9900ca" fill-opacity="0.984"/>
<rect x="6" y="6" width="1" height="1" fill="#b806d4"/>
<rect x="7" y="6" width="1" height="1" fill="#de2aff"/>
<rect x="8" y="6" width="1" height="1" fill="#eb46ff"/>
<rect x="9" y="6" width="1" height="1" fill="#ee4eff"/>
<rect x="10" y="6" width="1" height="1" fill="#f14aff"/>
<rect x="11" y="6" width="1" height="1" fill="#ed3dff"/>
<rect x="12" y="6" width="1" height="1" fill="#eb38ff"/>
<rect x="13" y="6" width="1" height="1" fill="#e72fff"/>
<rect x="14" y="6" width="1" height="1" fill="#df10ff"/>
<rect x="15" y="6" width="1" height="1" fill="#d900f5"/>
<rect x="16" y="6" width="1" height="1" fill="#ae00c5"/>
<rect x="17" y="6" width="1" height="1" fill="#a700bf" fill-opacity="0.231"/>
<rect x="3" y="7" width="1" height="1" fill="#eb0036" fill-opacity="0.976"/>
<rect x="4" y="7" width="1" height="1" fill="#fe003f"/>
<rect x="5" y="7" width="1" height="1" fill="#9600c0"/>
<rect x="6" y="7" width="1" height="1" fill="#cb09f5"/>
<rect x="7" y="7" width="1" height="1" fill="#dc33ff"/>
<rect x="8" y="7" width="1" height="1" fill="#01004f"/>
<rect x="9" y="7" width="1" height="1" fill="#777777"/>
<rect x="10" y="7" width="1" height="1" fill="#eb50ff"/>
<rect x="11" y="7" width="1" height="1" fill="#eb42ff"/>
<rect x="12" y="7" width="1" height="1" fill="#ea33ff"/>
<rect x="13" y="7" width="1" height="1" fill="#e933ff"/>
<rect x="14" y="7" width="1" height="1" fill="#e72eff"/>
<rect x="15" y="7" width="1" height="1" fill="#e507ff"/>
<rect x="16" y="7" width="1" height="1" fill="#b600d1"/>
<rect x="17" y="7" width="1" height="1" fill="#a200b8" fill-opacity="0.824"/>
<rect x="18" y="7" width="1" height="1" fill="#9f00a9" fill-opacity="0.012"/>
<rect x="4" y="8" width="1" height="1" fill="#ff003e" fill-opacity="0.953"/>
<rect x="5" y="8" width="1" height="1" fill="#9d00c2"/>
<rect x="6" y="8" width="1" height="1" fill="#da18ff"/>
<rect x="7" y="8" width="1" height="1" fill="#de3bff"/>
<rect x="8" y="8" width="1" height="1" fill="#01004f"/>
<rect x="9" y="8" width="1" height="1" fill="#1c1c1d"/>
<rect x="10" y="8" width="1" height="1" fill="#e959ff"/>
<rect x="11" y="8" width="1" height="1" fill="#eb4bff"/>
<rect x="12" y="8" width="1" height="1" fill="#ef38ff"/>
<rect x="13" y="8" width="1" height="1" fill="#ea35ff"/>
<rect x="14" y="8" width="1" height="1" fill="#e933ff"/>
<rect x="15" y="8" width="1" height="1" fill="#e51aff"/>
<rect x="16" y="8" width="1" height="1" fill="#df00fd"/>
<rect x="17" y="8" width="1" height="1" fill="#9e00b9" fill-opacity="0.969"/>
<rect x="18" y="8" width="1" height="1" fill="#8e00ae" fill-opacity="0.482"/>
<rect x="19" y="8" width="1" height="1" fill="#8300a9" fill-opacity="0.012"/>
<rect x="4" y="9" width="1" height="1" fill="#8d00af" fill-opacity="0.039"/>
<rect x="5" y="9" width="1" height="1" fill="#9c00c2"/>
<rect x="6" y="9" width="1" height="1" fill="#e009ff"/>
<rect x="7" y="9" width="1" height="1" fill="#e53eff"/>
<rect x="8" y="9" width="1" height="1" fill="#f04dff"/>
<rect x="9" y="9" width="1" height="1" fill="#e319ff"/>
<rect x="10" y="9" width="1" height="1" fill="#c412de"/>
<rect x="11" y="9" width="1" height="1" fill="#cc06f8"/>
<rect x="12" y="9" width="1" height="1" fill="#eb3eff"/>
<rect x="13" y="9" width="1" height="1" fill="#ea35ff"/>
<rect x="14" y="9" width="1" height="1" fill="#ea35ff"/>
<rect x="15" y="9" width="1" height="1" fill="#e831ff"/>
<rect x="16" y="9" width="1" height="1" fill="#e10bff"/>
<rect x="17" y="9" width="1" height="1" fill="#ca00ec"/>
<rect x="18" y="9" width="1" height="1" fill="#9e00b9" fill-opacity="0.933"/>
<rect x="19" y="9" width="1" height="1" fill="#8a00a9" fill-opacity="0.373"/>
<rect x="4" y="10" width="1" height="1" fill="#9800bd" fill-opacity="0.031"/>
<rect x="5" y="10" width="1" height="1" fill="#9b00bd" fill-opacity="0.992"/>
<rect x="6" y="10" width="1" height="1" fill="#dc02fa"/>
<rect x="7" y="10" width="1" height="1" fill="#ea35ff"/>
<rect x="8" y="10" width="1" height="1" fill="#f140ff"/>
<rect x="9" y="10" width="1" height="1" fill="#f042ff"/>
<rect x="10" y="10" width="1" height="1" fill="#e944ff"/>
<rect x="11" y="10" width="1" height="1" fill="#e945ff"/>
<rect x="12" y="10" width="1" height="1" fill="#ed42ff"/>
<rect x="13" y="10" width="1" height="1" fill="#ee3dff"/>
<rect x="14" y="10" width="1" height="1" fill="#e836ff"/>
<rect x="15" y="10" width="1" height="1" fill="#e838ff"/>
<rect x="16" y="10" width="1" height="1" fill="#e72bff"/>
<rect x="17" y="10" width="1" height="1" fill="#dd0aff"/>
<rect x="18" y="10" width="1" height="1" fill="#c100e2" fill-opacity="0.996"/>
<rect x="19" y="10" width="1" height="1" fill="#9b00b7" fill-opacity="0.945"/>
<rect x="20" y="10" width="1" height="1" fill="#9400b8" fill-opacity="0.369"/>
<rect x="4" y="11" width="1" height="1" fill="#9d00c5" fill-opacity="0.008"/>
<rect x="5" y="11" width="1" height="1" fill="#9300be" fill-opacity="0.98"/>
<rect x="6" y="11" width="1" height="1" fill="#d800f6" fill-opacity="0.996"/>
<rect x="7" y="11" width="1" height="1" fill="#e72eff"/>
<rect x="8" y="11" width="1" height="1" fill="#ec39ff"/>
<rect x="9" y="11" width="1" height="1" fill="#ec3eff"/>
<rect x="10" y="11" width="1" height="1" fill="#eb42ff"/>
<rect x="11" y="11" width="1" height="1" fill="#ea44ff"/>
<rect x="12" y="11" width="1" height="1" fill="#eb42ff"/>
<rect x="13" y="11" width="1" height="1" fill="#ea44ff"/>
<rect x="14" y="11" width="1" height="1" fill="#e941ff"/>
<rect x="15" y="11" width="1" height="1" fill="#e743ff"/>
<rect x="16" y="11" width="1" height="1" fill="#db38ff"/>
<rect x="17" y="11" width="1" height="1" fill="#e52cff"/>
<rect x="18" y="11" width="1" height="1" fill="#e717ff"/>
<rect x="19" y="11" width="1" height="1" fill="#c200e1"/>
<rect x="20" y="11" width="1" height="1" fill="#9f00bb" fill-opacity="0.98"/>
<rect x="21" y="11" width="1" height="1" fill="#a100c1" fill-opacity="0.251"/>
<rect x="5" y="12" width="1" height="1" fill="#9a00c5" fill-opacity="0.961"/>
<rect x="6" y="12" width="1" height="1" fill="#d000ef" fill-opacity="0.984"/>
<rect x="7" y="12" width="1" height="1" fill="#e520ff"/>
<rect x="8" y="12" width="1" height="1" fill="#e834ff"/>
<rect x="9" y="12" width="1" height="1" fill="#e73bff"/>
<rect x="10" y="12" width="1" height="1" fill="#e549ff"/>
<rect x="11" y="12" width="1" height="1" fill="#e548ff"/>
<rect x="12" y="12" width="1" height="1" fill="#b500e8"/>
<rect x="13" y="12" width="1" height="1" fill="#d31cff"/>
<rect x="14" y="12" width="1" height="1" fill="#dd35ff"/>
<rect x="15" y="12" width="1" height="1" fill="#e73eff"/>
<rect x="16" y="12" width="1" height="1" fill="#dc1bff"/>
<rect x="17" y="12" width="1" height="1" fill="#c600f5"/>
<rect x="18" y="12" width="1" height="1" fill="#e92bff"/>
<rect x="19" y="12" width="1" height="1" fill="#e21aff"/>
<rect x="20" y="12" width="1" height="1" fill="#c800f2"/>
<rect x="21" y="12" width="1" height="1" fill="#ac00c6" fill-opacity="0.992"/>
<rect x="22" y="12" width="1" height="1" fill="#a200b7" fill-opacity="0.141"/>
<rect x="5" y="13" width="1" height="1" fill="#9400b6" fill-opacity="0.894"/>
<rect x="6" y="13" width="1" height="1" fill="#c100e0" fill-opacity="0.973"/>
<rect x="7" y="13" width="1" height="1" fill="#e314ff" fill-opacity="0.984"/>
<rect x="8" y="13" width="1" height="1" fill="#e72fff"/>
<rect x="9" y="13" width="1" height="1" fill="#e838ff"/>
<rect x="10" y="13" width="1" height="1" fill="#e73dff"/>
<rect x="11" y="13" width="1" height="1" fill="#eb3bff"/>
<rect x="12" y="13" width="1" height="1" fill="#c700f8"/>
<rect x="13" y="13" width="1" height="1" fill="#a600d8"/>
<rect x="14" y="13" width="1" height="1" fill="#cb0bff"/>
<rect x="15" y="13" width="1" height="1" fill="#db1bff"/>
<rect x="16" y="13" width="1" height="1" fill="#c700fd"/>
<rect x="17" y="13" width="1" height="1" fill="#a600cd"/>
<rect x="18" y="13" width="1" height="1" fill="#db20ff"/>
<rect x="19" y="13" width="1" height="1" fill="#e02eff"/>
<rect x="20" y="13" width="1" height="1" fill="#d300f3"/>
<rect x="21" y="13" width="1" height="1" fill="#a900c8" fill-opacity="0.941"/>
<rect x="22" y="13" width="1" height="1" fill="#9700b4" fill-opacity="0.118"/>
<rect x="4" y="14" width="1" height="1" fill="#7d009c" fill-opacity="0.004"/>
<rect x="5" y="14" width="1" height="1" fill="#9000bb" fill-opacity="0.49"/>
<rect x="6" y="14" width="1" height="1" fill="#ab00cc" fill-opacity="0.969"/>
<rect x="7" y="14" width="1" height="1" fill="#db00ff"/>
<rect x="8" y="14" width="1" height="1" fill="#e923ff"/>
<rect x="9" y="14" width="1" height="1" fill="#e933ff"/>
<rect x="10" y="14" width="1" height="1" fill="#e839ff"/>
<rect x="11" y="14" width="1" height="1" fill="#e938ff"/>
<rect x="12" y="14" width="1" height="1" fill="#e843ff"/>
<rect x="13" y="14" width="1" height="1" fill="#b900e7"/>
<rect x="14" y="14" width="1" height="1" fill="#9600c4"/>
<rect x="15" y="14" width="1" height="1" fill="#9400c5"/>
<rect x="16" y="14" width="1" height="1" fill="#ae00dd"/>
<rect x="17" y="14" width="1" height="1" fill="#e139ff"/>
<rect x="18" y="14" width="1" height="1" fill="#e92cff"/>
<rect x="19" y="14" width="1" height="1" fill="#d700f5"/>
<rect x="20" y="14" width="1" height="1" fill="#b800d0" fill-opacity="0.996"/>
<rect x="21" y="14" width="1" height="1" fill="#9000b2" fill-opacity="0.435"/>
<rect x="22" y="14" width="1" height="1" fill="#8600a8" fill-opacity="0.008"/>
<rect x="4" y="15" width="1" height="1" fill="#7d009c" fill-opacity="0.004"/>
<rect x="5" y="15" width="1" height="1" fill="#8100a1" fill-opacity="0.22"/>
<rect x="6" y="15" width="1" height="1" fill="#9800b6" fill-opacity="0.875"/>
<rect x="7" y="15" width="1" height="1" fill="#d500fa" fill-opacity="0.988"/>
<rect x="8" y="15" width="1" height="1" fill="#e517ff"/>
<rect x="9" y="15" width="1" height="1" fill="#e92bff"/>
<rect x="10" y="15" width="1" height="1" fill="#ea34ff"/>
<rect x="11" y="15" width="1" height="1" fill="#eb36ff"/>
<rect x="12" y="15" width="1" height="1" fill="#f03aff"/>
<rect x="13" y="15" width="1" height="1" fill="#f042ff"/>
<rect x="14" y="15" width="1" height="1" fill="#ee46ff"/>
<rect x="15" y="15" width="1" height="1" fill="#ed41ff"/>
<rect x="16" y="15" width="1" height="1" fill="#e73bff"/>
<rect x="17" y="15" width="1" height="1" fill="#e224ff"/>
<rect x="18" y="15" width="1" height="1" fill="#d700f6"/>
<rect x="19" y="15" width="1" height="1" fill="#b000c5" fill-opacity="0.996"/>
<rect x="20" y="15" width="1" height="1" fill="#9700b4" fill-opacity="0.525"/>
<rect x="5" y="16" width="1" height="1" fill="#7d009c" fill-opacity="0.031"/>
<rect x="6" y="16" width="1" height="1" fill="#9900bd" fill-opacity="0.463"/>
<rect x="7" y="16" width="1" height="1" fill="#b200c8" fill-opacity="0.98"/>
<rect x="8" y="16" width="1" height="1" fill="#c900ed"/>
<rect x="9" y="16" width="1" height="1" fill="#e713ff"/>
<rect x="10" y="16" width="1" height="1" fill="#e928ff"/>
<rect x="11" y="16" width="1" height="1" fill="#e730ff"/>
<rect x="12" y="16" width="1" height="1" fill="#e93aff"/>
<rect x="13" y="16" width="1" height="1" fill="#e83fff"/>
<rect x="14" y="16" width="1" height="1" fill="#e442ff"/>
<rect x="15" y="16" width="1" height="1" fill="#e530ff"/>
<rect x="16" y="16" width="1" height="1" fill="#e71eff"/>
<rect x="17" y="16" width="1" height="1" fill="#d100f0"/>
<rect x="18" y="16" width="1" height="1" fill="#a300bc"/>
<rect x="19" y="16" width="1" height="1" fill="#a000b8" fill-opacity="0.373"/>
<rect x="5" y="17" width="1" height="1" fill="#7d009c" fill-opacity="0.008"/>
<rect x="6" y="17" width="1" height="1" fill="#7e009d" fill-opacity="0.145"/>
<rect x="7" y="17" width="1" height="1" fill="#9f00bb" fill-opacity="0.694"/>
<rect x="8" y="17" width="1" height="1" fill="#b300c9" fill-opacity="0.992"/>
<rect x="9" y="17" width="1" height="1" fill="#c500eb"/>
<rect x="10" y="17" width="1" height="1" fill="#e511ff"/>
<rect x="11" y="17" width="1" height="1" fill="#e825ff"/>
<rect x="12" y="17" width="1" height="1" fill="#e923ff"/>
<rect x="13" y="17" width="1" height="1" fill="#e929ff"/>
<rect x="14" y="17" width="1" height="1" fill="#e724ff"/>
<rect x="15" y="17" width="1" height="1" fill="#dc07ff"/>
<rect x="16" y="17" width="1" height="1" fill="#bf00e1"/>
<rect x="17" y="17" width="1" height="1" fill="#a400be" fill-opacity="0.996"/>
<rect x="18" y="17" width="1" height="1" fill="#a100c2" fill-opacity="0.439"/>
<rect x="6" y="18" width="1" height="1" fill="#7d009c" fill-opacity="0.063"/>
<rect x="7" y="18" width="1" height="1" fill="#7f00a2" fill-opacity="0.2"/>
<rect x="8" y="18" width="1" height="1" fill="#9f00bb" fill-opacity="0.694"/>
<rect x="9" y="18" width="1" height="1" fill="#b300c7" fill-opacity="0.992"/>
<rect x="10" y="18" width="1" height="1" fill="#c600ea"/>
<rect x="11" y="18" width="1" height="1" fill="#d300fd"/>
<rect x="12" y="18" width="1" height="1" fill="#d902ff"/>
<rect x="13" y="18" width="1" height="1" fill="#d900ff"/>
<rect x="14" y="18" width="1" height="1" fill="#c300ec"/>
<rect x="15" y="18" width="1" height="1" fill="#a000bc"/>
<rect x="16" y="18" width="1" height="1" fill="#a000b8" fill-opacity="0.996"/>
<rect x="17" y="18" width="1" height="1" fill="#9c00c1" fill-opacity="0.38"/>
<rect x="7" y="19" width="1" height="1" fill="#7d009c" fill-opacity="0.008"/>
<rect x="8" y="19" width="1" height="1" fill="#8e00ba" fill-opacity="0.2"/>
<rect x="9" y="19" width="1" height="1" fill="#a200d4" fill-opacity="0.42"/>
<rect x="10" y="19" width="1" height="1" fill="#ad00cb" fill-opacity="0.839"/>
<rect x="11" y="19" width="1" height="1" fill="#ac00c6" fill-opacity="0.961"/>
<rect x="12" y="19" width="1" height="1" fill="#9c00c0" fill-opacity="0.976"/>
<rect x="13" y="19" width="1" height="1" fill="#9400b7" fill-opacity="0.996"/>
<rect x="14" y="19" width="1" height="1" fill="#9400be" fill-opacity="0.996"/>
<rect x="15" y="19" width="1" height="1" fill="#9c00c2" fill-opacity="0.667"/>
<rect x="16" y="19" width="1" height="1" fill="#9600c4" fill-opacity="0.098"/>
<rect x="7" y="20" width="1" height="1" fill="#b2b205" fill-opacity="0.024"/>
<rect x="8" y="20" width="1" height="1" fill="#b2b205" fill-opacity="0.004"/>
<rect x="9" y="20" width="1" height="1" fill="#52480d" fill-opacity="0.012"/>
<rect x="10" y="20" width="1" height="1" fill="#52480d" fill-opacity="0.11"/>
<rect x="11" y="20" width="1" height="1" fill="#5c3a2b" fill-opacity="0.184"/>
<rect x="12" y="20" width="1" height="1" fill="#701e68" fill-opacity="0.094"/>
<rect x="13" y="20" width="1" height="1" fill="#8600a8" fill-opacity="0.086"/>
<rect x="14" y="20" width="1" height="1" fill="#8600a8" fill-opacity="0.027"/>
</svg>