<?xml version="1.0" encoding="UTF-8" standalone="no"?>
<svg xmlns="http://www.w3.org/2000/svg" width="26" height="21" shape-rendering="crispEdges">
<rect x="12" y="0" width="1" height="1" fill="#cd17f0" fill-opacity="0.459"/>
<rect x="13" y="0" width="1" height="1" fill="#d01bf1" fill-opacity="0.875"/>
<rect x="14" y="0" width="1" height="1" fill="#d120f1"/>
<rect x="15" y="0" width="1" height="1" fill="#d222f2"/>
<rect x="16" y="0" width="1" height="1" fill="#d72af4"/>
<rect x="17" y="0" width="1" height="1" fill="#d730f4"/>
<rect x="18" y="0" width="1" height="1" fill="#d62cf4"/>
<rect x="19" y="0" width="1" height="1" fill="#d323f2"/>
<rect x="20" y="0" width="1" height="1" fill="#d11ff1"/>
<rect x="21" y="0" width="1" height="1" fill="#d11ff2"/>
<rect x="22" y="0" width="1" height="1" fill="#d427f3"/>
<rect x="23" y="0" width="1" height="1" fill="#d324f2"/>
<rect x="24" y="0" width="1" height="1" fill="#ce19f0"/>
<rect x="25" y="0" width="1" height="1" fill="#fff9b6" fill-opacity="0.02"/>
<rect x="11" y="1" width="1" height="1" fill="#cd17f0" fill-opacity="0.565"/>
<rect x="12" y="1" width="1" height="1" fill="#d128f2"/>
<rect x="13" y="1" width="1" height="1" fill="#f6befd"/>
<rect x="14" y="1" width="1" height="1" fill="#f9c2fe"/>
<rect x="15" y="1" width="1" height="1" fill="#fcdaff"/>
<rect x="16" y="1" width="1" height="1" fill="#fde6ff"/>
<rect x="17" y="1" width="1" height="1" fill="#fbe1fe"/>
<rect x="18" y="1" width="1" height="1" fill="#fde8ff"/>
<rect x="19" y="1" width="1" height="1" fill="#fbe0fe"/>
<rect x="20" y="1" width="1" height="1" fill="#f7cffd"/>
<rect x="21" y="1" width="1" height="1" fill="#f8c6fe"/>
<rect x="22" y="1" width="1" height="1" fill="#f2a4fd"/>
<rect x="23" y="1" width="1" height="1" fill="#d536f3"/>
<rect x="24" y="1" width="1" height="1" fill="#dc2cf7" fill-opacity="0.212"/>
<rect x="10" y="2" width="1" height="1" fill="#cd17f0" fill-opacity="0.569"/>
<rect x="11" y="2" width="1" height="1" fill="#d327f3"/>
<rect x="12" y="2" width="1" height="1" fill="#fbd5ff"/>
<rect x="13" y="2" width="1" height="1" fill="#fdeeff"/>
<rect x="14" y="2" width="1" height="1" fill="#fae5fe"/>
<rect x="15" y="2" width="1" height="1" fill="#fceefe"/>
<rect x="16" y="2" width="1" height="1" fill="#fffcff"/>
<rect x="17" y="2" width="1" height="1" fill="#fffdff"/>
<rect x="18" y="2" width="1" height="1" fill="#fef3ff"/>
<rect x="19" y="2" width="1" height="1" fill="#fbd1ff"/>
<rect x="20" y="2" width="1" height="1" fill="#f9caff"/>
<rect x="21" y="2" width="1" height="1" fill="#dd58f5"/>
<rect x="22" y="2" width="1" height="1" fill="#d221f2" fill-opacity="0.796"/>
<rect x="23" y="2" width="1" height="1" fill="#ce18f0" fill-opacity="0.361"/>
<rect x="9" y="3" width="1" height="1" fill="#cd17f0" fill-opacity="0.549"/>
<rect x="10" y="3" width="1" height="1" fill="#d62bf4"/>
<rect x="11" y="3" width="1" height="1" fill="#fad1ff"/>
<rect x="12" y="3" width="1" height="1" fill="#fef7ff"/>
<rect x="13" y="3" width="1" height="1" fill="#fbf0fd"/>
<rect x="14" y="3" width="1" height="1" fill="#f9ebfc"/>
<rect x="15" y="3" width="1" height="1" fill="#fbe8fe"/>
<rect x="16" y="3" width="1" height="1" fill="#fdefff"/>
<rect x="17" y="3" width="1" height="1" fill="#f9d1fe"/>
<rect x="18" y="3" width="1" height="1" fill="#f9c1ff"/>
<rect x="19" y="3" width="1" height="1" fill="#f1a8fc"/>
<rect x="20" y="3" width="1" height="1" fill="#d432f3"/>
<rect x="21" y="3" width="1" height="1" fill="#d11ef2" fill-opacity="0.588"/>
<rect x="22" y="3" width="1" height="1" fill="#ef56ff" fill-opacity="0.247"/>
<rect x="23" y="3" width="1" height="1" fill="#ef56ff" fill-opacity="0.004"/>
<rect x="25" y="3" width="1" height="1" fill="#e40000" fill-opacity="0.035"/>
<rect x="4" y="4" width="1" height="1" fill="#da11f9" fill-opacity="0.004"/>
<rect x="5" y="4" width="1" height="1" fill="#da11f9" fill-opacity="0.012"/>
<rect x="7" y="4" width="1" height="1" fill="#9c00be" fill-opacity="0.043"/>
<rect x="8" y="4" width="1" height="1" fill="#c513e7" fill-opacity="0.478"/>
<rect x="9" y="4" width="1" height="1" fill="#d427f3"/>
<rect x="10" y="4" width="1" height="1" fill="#f8bffe"/>
<rect x="11" y="4" width="1" height="1" fill="#fef6ff"/>
<rect x="12" y="4" width="1" height="1" fill="#fbeefd"/>
<rect x="13" y="4" width="1" height="1" fill="#f9ebfc"/>
<rect x="14" y="4" width="1" height="1" fill="#fbe9fe"/>
<rect x="15" y="4" width="1" height="1" fill="#fbdcff"/>
<rect x="16" y="4" width="1" height="1" fill="#fbd6ff"/>
<rect x="17" y="4" width="1" height="1" fill="#f7bafe"/>
<rect x="18" y="4" width="1" height="1" fill="#eb80fb"/>
<rect x="19" y="4" width="1" height="1" fill="#d427f3"/>
<rect x="20" y="4" width="1" height="1" fill="#d01df2" fill-opacity="0.341"/>
<rect x="21" y="4" width="1" height="1" fill="#ef56ff" fill-opacity="0.243"/>
<rect x="22" y="4" width="1" height="1" fill="#ef56ff" fill-opacity="0.059"/>
<rect x="25" y="4" width="1" height="1" fill="#ff0000" fill-opacity="0.035"/>
<rect x="3" y="5" width="1" height="1" fill="#da11f9"/>
<rect x="4" y="5" width="1" height="1" fill="#da11f9" fill-opacity="0.184"/>
<rect x="5" y="5" width="1" height="1" fill="#da11f9" fill-opacity="0.02"/>
<rect x="7" y="5" width="1" height="1" fill="#9d00bf" fill-opacity="0.361"/>
<rect x="8" y="5" width="1" height="1" fill="#b40cd6"/>
<rect x="9" y="5" width="1" height="1" fill="#e6aaf1"/>
<rect x="10" y="5" width="1" height="1" fill="#efc6f6"/>
<rect x="11" y="5" width="1" height="1" fill="#fbeffd"/>
<rect x="12" y="5" width="1" height="1" fill="#faeafd"/>
<rect x="13" y="5" width="1" height="1" fill="#fcf1fe"/>
<rect x="14" y="5" width="1" height="1" fill="#fef4ff"/>
<rect x="15" y="5" width="1" height="1" fill="#fef5ff"/>
<rect x="16" y="5" width="1" height="1" fill="#fdeeff"/>
<rect x="17" y="5" width="1" height="1" fill="#fce7fe"/>
<rect x="18" y="5" width="1" height="1" fill="#f4b9fd"/>
<rect x="19" y="5" width="1" height="1" fill="#db47f5"/>
<rect x="20" y="5" width="1" height="1" fill="#d92ef5"/>
<rect x="21" y="5" width="1" height="1" fill="#ef55ff" fill-opacity="0.286"/>
<rect x="22" y="5" width="1" height="1" fill="#ef56ff" fill-opacity="0.012"/>
<rect x="25" y="5" width="1" height="1" fill="#ff0000" fill-opacity="0.035"/>
<rect x="2" y="6" width="1" height="1" fill="#da11f9"/>
<rect x="3" y="6" width="1" height="1" fill="#da11f9" fill-opacity="0.314"/>
<rect x="4" y="6" width="1" height="1" fill="#da11f9" fill-opacity="0.051"/>
<rect x="6" y="6" width="1" height="1" fill="#9c00be" fill-opacity="0.004"/>
<rect x="7" y="6" width="1" height="1" fill="#a605c8" fill-opacity="0.796"/>
<rect x="8" y="6" width="1" height="1" fill="#9f05c0"/>
<rect x="9" y="6" width="1" height="1" fill="#c572d7"/>
<rect x="10" y="6" width="1" height="1" fill="#e9bdf1"/>
<rect x="11" y="6" width="1" height="1" fill="#f4cafb"/>
<rect x="12" y="6" width="1" height="1" fill="#f3c5fc"/>
<rect x="13" y="6" width="1" height="1" fill="#fdf3fe"/>
<rect x="14" y="6" width="1" height="1" fill="#fffdff"/>
<rect x="15" y="6" width="1" height="1" fill="#fffeff"/>
<rect x="16" y="6" width="1" height="1" fill="#ffffff"/>
<rect x="17" y="6" width="1" height="1" fill="#fffdff"/>
<rect x="18" y="6" width="1" height="1" fill="#fdf5ff"/>
<rect x="19" y="6" width="1" height="1" fill="#fad4fe"/>
<rect x="20" y="6" width="1" height="1" fill="#de58f6"/>
<rect x="21" y="6" width="1" height="1" fill="#e03bf9" fill-opacity="0.749"/>
<rect x="22" y="6" width="1" height="1" fill="#ef56ff" fill-opacity="0.176"/>
<rect x="23" y="6" width="1" height="1" fill="#ef56ff" fill-opacity="0.012"/>
<rect x="25" y="6" width="1" height="1" fill="#ff0000" fill-opacity="0.035"/>
<rect x="1" y="7" width="1" height="1" fill="#da11f9"/>
<rect x="2" y="7" width="1" height="1" fill="#da11f9"/>
<rect x="3" y="7" width="1" height="1" fill="#da11f9" fill-opacity="0.078"/>
<rect x="6" y="7" width="1" height="1" fill="#9c00be" fill-opacity="0.024"/>
<rect x="7" y="7" width="1" height="1" fill="#a605c8" fill-opacity="0.965"/>
<rect x="8" y="7" width="1" height="1" fill="#9d04bf"/>
<rect x="9" y="7" width="1" height="1" fill="#a40fc4"/>
<rect x="10" y="7" width="1" height="1" fill="#c61ae8"/>
<rect x="11" y="7" width="1" height="1" fill="#cd17f0" fill-opacity="0.827"/>
<rect x="12" y="7" width="1" height="1" fill="#cf1df1"/>
<rect x="13" y="7" width="1" height="1" fill="#de60f5"/>
<rect x="14" y="7" width="1" height="1" fill="#f9cefe"/>
<rect x="15" y="7" width="1" height="1" fill="#fef2ff"/>
<rect x="16" y="7" width="1" height="1" fill="#fef9ff"/>
<rect x="17" y="7" width="1" height="1" fill="#fef7ff"/>
<rect x="18" y="7" width="1" height="1" fill="#fffcff"/>
<rect x="19" y="7" width="1" height="1" fill="#fff9ff"/>
<rect x="20" y="7" width="1" height="1" fill="#fac9ff"/>
<rect x="21" y="7" width="1" height="1" fill="#e450f9"/>
<rect x="22" y="7" width="1" height="1" fill="#df38f8" fill-opacity="0.686"/>
<rect x="23" y="7" width="1" height="1" fill="#fffeff" fill-opacity="0.067"/>
<rect x="24" y="7" width="1" height="1" fill="#fffeff" fill-opacity="0.008"/>
<rect x="1" y="8" width="1" height="1" fill="#da11f9" fill-opacity="0.329"/>
<rect x="2" y="8" width="1" height="1" fill="#da11f9"/>
<rect x="3" y="8" width="1" height="1" fill="#da11f9" fill-opacity="0.992"/>
<rect x="4" y="8" width="1" height="1" fill="#da11f9" fill-opacity="0.012"/>
<rect x="6" y="8" width="1" height="1" fill="#9c00be" fill-opacity="0.043"/>
<rect x="7" y="8" width="1" height="1" fill="#9f01c1" fill-opacity="0.929"/>
<rect x="8" y="8" width="1" height="1" fill="#9c00be"/>
<rect x="9" y="8" width="1" height="1" fill="#a806ca" fill-opacity="0.824"/>
<rect x="10" y="8" width="1" height="1" fill="#c613e8" fill-opacity="0.129"/>
<rect x="12" y="8" width="1" height="1" fill="#cb1df3" fill-opacity="0.031"/>
<rect x="13" y="8" width="1" height="1" fill="#cd17f0" fill-opacity="0.549"/>
<rect x="14" y="8" width="1" height="1" fill="#d747f3"/>
<rect x="15" y="8" width="1" height="1" fill="#fce6ff"/>
<rect x="16" y="8" width="1" height="1" fill="#fdecff"/>
<rect x="17" y="8" width="1" height="1" fill="#fdedff"/>
<rect x="18" y="8" width="1" height="1" fill="#fde5ff"/>
<rect x="19" y="8" width="1" height="1" fill="#fce6ff"/>
<rect x="20" y="8" width="1" height="1" fill="#fce7fe"/>
<rect x="21" y="8" width="1" height="1" fill="#f7bbfe"/>
<rect x="22" y="8" width="1" height="1" fill="#ec5efd"/>
<rect x="23" y="8" width="1" height="1" fill="#efa5fb"/>
<rect x="24" y="8" width="1" height="1" fill="#f9e4fd" fill-opacity="0.055"/>
<rect x="2" y="9" width="1" height="1" fill="#da11f9"/>
<rect x="3" y="9" width="1" height="1" fill="#da11f9" fill-opacity="0.373"/>
<rect x="4" y="9" width="1" height="1" fill="#da11f9" fill-opacity="0.043"/>
<rect x="6" y="9" width="1" height="1" fill="#9c00be" fill-opacity="0.027"/>
<rect x="7" y="9" width="1" height="1" fill="#9c00be" fill-opacity="0.906"/>
<rect x="8" y="9" width="1" height="1" fill="#9d01bf"/>
<rect x="9" y="9" width="1" height="1" fill="#9e01c0" fill-opacity="0.122"/>
<rect x="10" y="9" width="1" height="1" fill="#a706ca" fill-opacity="0.024"/>
<rect x="11" y="9" width="1" height="1" fill="#b829c5" fill-opacity="0.91"/>
<rect x="12" y="9" width="1" height="1" fill="#d43fdf" fill-opacity="0.984"/>
<rect x="13" y="9" width="1" height="1" fill="#cc2af0" fill-opacity="0.996"/>
<rect x="14" y="9" width="1" height="1" fill="#cb1df3"/>
<rect x="15" y="9" width="1" height="1" fill="#d435f2"/>
<rect x="16" y="9" width="1" height="1" fill="#fbdbff"/>
<rect x="17" y="9" width="1" height="1" fill="#fdeeff"/>
<rect x="18" y="9" width="1" height="1" fill="#fbd3ff"/>
<rect x="19" y="9" width="1" height="1" fill="#f6bafe"/>
<rect x="20" y="9" width="1" height="1" fill="#f9d1fe"/>
<rect x="21" y="9" width="1" height="1" fill="#fad8ff"/>
<rect x="22" y="9" width="1" height="1" fill="#f7c0fd"/>
<rect x="23" y="9" width="1" height="1" fill="#ea74fb"/>
<rect x="24" y="9" width="1" height="1" fill="#e682f8"/>
<rect x="1" y="10" width="1" height="1" fill="#da11f9"/>
<rect x="2" y="10" width="1" height="1" fill="#da11f9" fill-opacity="0.4"/>
<rect x="3" y="10" width="1" height="1" fill="#da11f9" fill-opacity="0.047"/>
<rect x="6" y="10" width="1" height="1" fill="#9c00be" fill-opacity="0.043"/>
<rect x="7" y="10" width="1" height="1" fill="#9c00be" fill-opacity="0.776"/>
<rect x="8" y="10" width="1" height="1" fill="#9d00bf" fill-opacity="0.263"/>
<rect x="10" y="10" width="1" height="1" fill="#ab01cf" fill-opacity="0.051"/>
<rect x="11" y="10" width="1" height="1" fill="#c140c1" fill-opacity="0.984"/>
<rect x="12" y="10" width="1" height="1" fill="#d644fd" fill-opacity="0.941"/>
<rect x="13" y="10" width="1" height="1" fill="#d235fc" fill-opacity="0.929"/>
<rect x="14" y="10" width="1" height="1" fill="#d239fc" fill-opacity="0.973"/>
<rect x="15" y="10" width="1" height="1" fill="#d024f3" fill-opacity="0.996"/>
<rect x="16" y="10" width="1" height="1" fill="#f4c5fc"/>
<rect x="17" y="10" width="1" height="1" fill="#fef2ff"/>
<rect x="18" y="10" width="1" height="1" fill="#fef4ff"/>
<rect x="19" y="10" width="1" height="1" fill="#f1b1fb"/>
<rect x="20" y="10" width="1" height="1" fill="#ea95fa"/>
<rect x="21" y="10" width="1" height="1" fill="#da4df4"/>
<rect x="22" y="10" width="1" height="1" fill="#d526f3"/>
<rect x="23" y="10" width="1" height="1" fill="#dd3ef7"/>
<rect x="24" y="10" width="1" height="1" fill="#d628f4"/>
<rect x="1" y="11" width="1" height="1" fill="#da11f9" fill-opacity="0.235"/>
<rect x="2" y="11" width="1" height="1" fill="#d024c4" fill-opacity="0.125"/>
<rect x="3" y="11" width="1" height="1" fill="#ae148d" fill-opacity="0.024"/>
<rect x="6" y="11" width="1" height="1" fill="#9c00be" fill-opacity="0.035"/>
<rect x="7" y="11" width="1" height="1" fill="#9c00be" fill-opacity="0.082"/>
<rect x="9" y="11" width="1" height="1" fill="#a30491" fill-opacity="0.078"/>
<rect x="10" y="11" width="1" height="1" fill="#b406bf" fill-opacity="0.106"/>
<rect x="11" y="11" width="1" height="1" fill="#d442fc"/>
<rect x="12" y="11" width="1" height="1" fill="#da56fc"/>
<rect x="13" y="11" width="1" height="1" fill="#d54efe" fill-opacity="0.992"/>
<rect x="14" y="11" width="1" height="1" fill="#d339fb" fill-opacity="0.996"/>
<rect x="15" y="11" width="1" height="1" fill="#d439f5"/>
<rect x="16" y="11" width="1" height="1" fill="#eca3f9"/>
<rect x="17" y="11" width="1" height="1" fill="#fde8ff"/>
<rect x="18" y="11" width="1" height="1" fill="#fef3ff"/>
<rect x="19" y="11" width="1" height="1" fill="#fcf2fe"/>
<rect x="20" y="11" width="1" height="1" fill="#eb9ff9"/>
<rect x="21" y="11" width="1" height="1" fill="#cd17f0" fill-opacity="0.596"/>
<rect x="22" y="11" width="1" height="1" fill="#ea4cfd" fill-opacity="0.075"/>
<rect x="23" y="11" width="1" height="1" fill="#e23ff9" fill-opacity="0.255"/>
<rect x="24" y="11" width="1" height="1" fill="#ef56ff" fill-opacity="0.42"/>
<rect x="1" y="12" width="1" height="1" fill="#da11f9" fill-opacity="0.059"/>
<rect x="7" y="12" width="1" height="1" fill="#9c00be" fill-opacity="0.016"/>
<rect x="9" y="12" width="1" height="1" fill="#98057f" fill-opacity="0.016"/>
<rect x="10" y="12" width="1" height="1" fill="#b603cb" fill-opacity="0.212"/>
<rect x="11" y="12" width="1" height="1" fill="#d136fb" fill-opacity="0.996"/>
<rect x="12" y="12" width="1" height="1" fill="#d95cff"/>
<rect x="13" y="12" width="1" height="1" fill="#d94df9"/>
<rect x="14" y="12" width="1" height="1" fill="#ce1cf0"/>
<rect x="15" y="12" width="1" height="1" fill="#d84af3"/>
<rect x="16" y="12" width="1" height="1" fill="#f3bffb"/>
<rect x="17" y="12" width="1" height="1" fill="#fef2ff"/>
<rect x="18" y="12" width="1" height="1" fill="#fde6ff"/>
<rect x="19" y="12" width="1" height="1" fill="#fdf2ff"/>
<rect x="20" y="12" width="1" height="1" fill="#fef7ff"/>
<rect x="21" y="12" width="1" height="1" fill="#de5bf5"/>
<rect x="22" y="12" width="1" height="1" fill="#cd17f0" fill-opacity="0.584"/>
<rect x="24" y="12" width="1" height="1" fill="#ffffff" fill-opacity="0.043"/>
<rect x="0" y="13" width="1" height="1" fill="#d23ebe" fill-opacity="0.047"/>
<rect x="1" y="13" width="1" height="1" fill="#ce27dd" fill-opacity="0.016"/>
<rect x="2" y="13" width="1" height="1" fill="#ca09fe" fill-opacity="0.012"/>
<rect x="3" y="13" width="1" height="1" fill="#d13eb8" fill-opacity="0.008"/>
<rect x="4" y="13" width="1" height="1" fill="#ad0c9c" fill-opacity="0.016"/>
<rect x="5" y="13" width="1" height="1" fill="#9d007f" fill-opacity="0.012"/>
<rect x="7" y="13" width="1" height="1" fill="#e956d0" fill-opacity="0.012"/>
<rect x="8" y="13" width="1" height="1" fill="#c213d3" fill-opacity="0.067"/>
<rect x="9" y="13" width="1" height="1" fill="#cc45ef" fill-opacity="0.282"/>
<rect x="10" y="13" width="1" height="1" fill="#cb4bef" fill-opacity="0.996"/>
<rect x="11" y="13" width="1" height="1" fill="#d26cec"/>
<rect x="12" y="13" width="1" height="1" fill="#cd18f0"/>
<rect x="13" y="13" width="1" height="1" fill="#ce2dee"/>
<rect x="14" y="13" width="1" height="1" fill="#b841d2"/>
<rect x="15" y="13" width="1" height="1" fill="#ecbef4"/>
<rect x="16" y="13" width="1" height="1" fill="#f8dafc"/>
<rect x="17" y="13" width="1" height="1" fill="#fce0ff"/>
<rect x="18" y="13" width="1" height="1" fill="#fcddff"/>
<rect x="19" y="13" width="1" height="1" fill="#fcdaff"/>
<rect x="20" y="13" width="1" height="1" fill="#fdeaff"/>
<rect x="21" y="13" width="1" height="1" fill="#fdeeff"/>
<rect x="22" y="13" width="1" height="1" fill="#e16df7"/>
<rect x="23" y="13" width="1" height="1" fill="#ce1cf0" fill-opacity="0.384"/>
<rect x="0" y="14" width="1" height="1" fill="#f01bf5"/>
<rect x="1" y="14" width="1" height="1" fill="#d528ec" fill-opacity="0.992"/>
<rect x="2" y="14" width="1" height="1" fill="#dd2be9" fill-opacity="0.922"/>
<rect x="3" y="14" width="1" height="1" fill="#cf18ee" fill-opacity="0.404"/>
<rect x="4" y="14" width="1" height="1" fill="#e13de0" fill-opacity="0.098"/>
<rect x="5" y="14" width="1" height="1" fill="#dd1aed" fill-opacity="0.075"/>
<rect x="6" y="14" width="1" height="1" fill="#df32d4" fill-opacity="0.114"/>
<rect x="7" y="14" width="1" height="1" fill="#d72bde" fill-opacity="0.145"/>
<rect x="8" y="14" width="1" height="1" fill="#cc26ad" fill-opacity="0.525"/>
<rect x="9" y="14" width="1" height="1" fill="#f01af2" fill-opacity="0.988"/>
<rect x="10" y="14" width="1" height="1" fill="#cd5ef0"/>
<rect x="11" y="14" width="1" height="1" fill="#d35ff3"/>
<rect x="12" y="14" width="1" height="1" fill="#a70dc9"/>
<rect x="13" y="14" width="1" height="1" fill="#9e02c0"/>
<rect x="14" y="14" width="1" height="1" fill="#a00ac1"/>
<rect x="15" y="14" width="1" height="1" fill="#edd0f3"/>
<rect x="16" y="14" width="1" height="1" fill="#f7eaf9"/>
<rect x="17" y="14" width="1" height="1" fill="#fbe8fd"/>
<rect x="18" y="14" width="1" height="1" fill="#fcdeff"/>
<rect x="19" y="14" width="1" height="1" fill="#f5b7fe"/>
<rect x="20" y="14" width="1" height="1" fill="#f09afc"/>
<rect x="21" y="14" width="1" height="1" fill="#f0a2fc"/>
<rect x="22" y="14" width="1" height="1" fill="#f3bffb"/>
<rect x="23" y="14" width="1" height="1" fill="#d63df3"/>
<rect x="24" y="14" width="1" height="1" fill="#db57f4" fill-opacity="0.157"/>
<rect x="0" y="15" width="1" height="1" fill="#e820f5"/>
<rect x="1" y="15" width="1" height="1" fill="#d7cfd4"/>
<rect x="2" y="15" width="1" height="1" fill="#d8bdd8"/>
<rect x="3" y="15" width="1" height="1" fill="#d93eee" fill-opacity="0.996"/>
<rect x="4" y="15" width="1" height="1" fill="#dc11fc"/>
<rect x="5" y="15" width="1" height="1" fill="#c20ae4"/>
<rect x="6" y="15" width="1" height="1" fill="#c916e7"/>
<rect x="7" y="15" width="1" height="1" fill="#eb26f0"/>
<rect x="8" y="15" width="1" height="1" fill="#f9c901"/>
<rect x="9" y="15" width="1" height="1" fill="#fdf600"/>
<rect x="10" y="15" width="1" height="1" fill="#ed13f8"/>
<rect x="11" y="15" width="1" height="1" fill="#c836ed"/>
<rect x="12" y="15" width="1" height="1" fill="#cd45ef"/>
<rect x="13" y="15" width="1" height="1" fill="#b616d8"/>
<rect x="14" y="15" width="1" height="1" fill="#a004c2"/>
<rect x="15" y="15" width="1" height="1" fill="#e9a6f3"/>
<rect x="16" y="15" width="1" height="1" fill="#fbe8fd"/>
<rect x="17" y="15" width="1" height="1" fill="#fefafe"/>
<rect x="18" y="15" width="1" height="1" fill="#fef4ff"/>
<rect x="19" y="15" width="1" height="1" fill="#fce0ff"/>
<rect x="20" y="15" width="1" height="1" fill="#e05cf7"/>
<rect x="21" y="15" width="1" height="1" fill="#d22af1"/>
<rect x="22" y="15" width="1" height="1" fill="#db5af4"/>
<rect x="23" y="15" width="1" height="1" fill="#dc4df5"/>
<rect x="24" y="15" width="1" height="1" fill="#cf20f1"/>
<rect x="0" y="16" width="1" height="1" fill="#e228eb"/>
<rect x="1" y="16" width="1" height="1" fill="#e1e9dd"/>
<rect x="2" y="16" width="1" height="1" fill="#e9f3e6"/>
<rect x="3" y="16" width="1" height="1" fill="#eae9e9"/>
<rect x="4" y="16" width="1" height="1" fill="#f4e7f2"/>
<rect x="5" y="16" width="1" height="1" fill="#f5e5f4"/>
<rect x="6" y="16" width="1" height="1" fill="#eadde8"/>
<rect x="7" y="16" width="1" height="1" fill="#ebc5f6"/>
<rect x="8" y="16" width="1" height="1" fill="#e526f8"/>
<rect x="9" y="16" width="1" height="1" fill="#ed7203"/>
<rect x="10" y="16" width="1" height="1" fill="#feb301"/>
<rect x="11" y="16" width="1" height="1" fill="#ed18fa"/>
<rect x="12" y="16" width="1" height="1" fill="#c62df2"/>
<rect x="13" y="16" width="1" height="1" fill="#cc36f3"/>
<rect x="14" y="16" width="1" height="1" fill="#cd18f0"/>
<rect x="15" y="16" width="1" height="1" fill="#d234f1"/>
<rect x="16" y="16" width="1" height="1" fill="#ee9dfa"/>
<rect x="17" y="16" width="1" height="1" fill="#f5a6fe"/>
<rect x="18" y="16" width="1" height="1" fill="#fbd7ff"/>
<rect x="19" y="16" width="1" height="1" fill="#fef4ff"/>
<rect x="20" y="16" width="1" height="1" fill="#f3bdfc"/>
<rect x="21" y="16" width="1" height="1" fill="#ce1cf1"/>
<rect x="22" y="16" width="1" height="1" fill="#cd18f0" fill-opacity="0.325"/>
<rect x="23" y="16" width="1" height="1" fill="#de37f8" fill-opacity="0.184"/>
<rect x="24" y="16" width="1" height="1" fill="#ee53fe" fill-opacity="0.463"/>
<rect x="0" y="17" width="1" height="1" fill="#e414fc"/>
<rect x="1" y="17" width="1" height="1" fill="#efe4f0"/>
<rect x="2" y="17" width="1" height="1" fill="#ffefff"/>
<rect x="3" y="17" width="1" height="1" fill="#feedfe"/>
<rect x="4" y="17" width="1" height="1" fill="#feebfe"/>
<rect x="5" y="17" width="1" height="1" fill="#feebfe"/>
<rect x="6" y="17" width="1" height="1" fill="#fce9fc"/>
<rect x="7" y="17" width="1" height="1" fill="#fae6f9"/>
<rect x="8" y="17" width="1" height="1" fill="#f4d0fa"/>
<rect x="9" y="17" width="1" height="1" fill="#e51bf9"/>
<rect x="10" y="17" width="1" height="1" fill="#f14c03"/>
<rect x="11" y="17" width="1" height="1" fill="#fe6c02"/>
<rect x="12" y="17" width="1" height="1" fill="#e018f7"/>
<rect x="13" y="17" width="1" height="1" fill="#c625f3"/>
<rect x="14" y="17" width="1" height="1" fill="#c924f6"/>
<rect x="15" y="17" width="1" height="1" fill="#c71bf4"/>
<rect x="16" y="17" width="1" height="1" fill="#ce19f1"/>
<rect x="17" y="17" width="1" height="1" fill="#ce1af0"/>
<rect x="18" y="17" width="1" height="1" fill="#d736f4"/>
<rect x="19" y="17" width="1" height="1" fill="#f5b2fe"/>
<rect x="20" y="17" width="1" height="1" fill="#f6cffd"/>
<rect x="21" y="17" width="1" height="1" fill="#f2bdfb"/>
<rect x="22" y="17" width="1" height="1" fill="#d020f1"/>
<rect x="23" y="17" width="1" height="1" fill="#e164f7" fill-opacity="0.188"/>
<rect x="25" y="17" width="1" height="1" fill="#c80000" fill-opacity="0.035"/>
<rect x="0" y="18" width="1" height="1" fill="#c913fe"/>
<rect x="1" y="18" width="1" height="1" fill="#eb52fb"/>
<rect x="2" y="18" width="1" height="1" fill="#f8c6fd"/>
<rect x="3" y="18" width="1" height="1" fill="#f9defa"/>
<rect x="4" y="18" width="1" height="1" fill="#fde6fe"/>
<rect x="5" y="18" width="1" height="1" fill="#fce5fb"/>
<rect x="6" y="18" width="1" height="1" fill="#fce6fc"/>
<rect x="7" y="18" width="1" height="1" fill="#fae5f6"/>
<rect x="8" y="18" width="1" height="1" fill="#f5e4f2"/>
<rect x="9" y="18" width="1" height="1" fill="#ed94ff"/>
<rect x="10" y="18" width="1" height="1" fill="#ed18f7"/>
<rect x="11" y="18" width="1" height="1" fill="#d83a04"/>
<rect x="12" y="18" width="1" height="1" fill="#da4604"/>
<rect x="13" y="18" width="1" height="1" fill="#ea16fa"/>
<rect x="14" y="18" width="1" height="1" fill="#c416f4"/>
<rect x="15" y="18" width="1" height="1" fill="#c214f4"/>
<rect x="16" y="18" width="1" height="1" fill="#be0ef8"/>
<rect x="17" y="18" width="1" height="1" fill="#d90cf8"/>
<rect x="18" y="18" width="1" height="1" fill="#c815e4" fill-opacity="0.49"/>
<rect x="19" y="18" width="1" height="1" fill="#d435f3"/>
<rect x="20" y="18" width="1" height="1" fill="#e453f9"/>
<rect x="21" y="18" width="1" height="1" fill="#d528f3"/>
<rect x="22" y="18" width="1" height="1" fill="#d63ff3"/>
<rect x="23" y="18" width="1" height="1" fill="#de65f5"/>
<rect x="24" y="18" width="1" height="1" fill="#f8dffd" fill-opacity="0.031"/>
<rect x="25" y="18" width="1" height="1" fill="#ac0000" fill-opacity="0.035"/>
<rect x="0" y="19" width="1" height="1" fill="#c70dff" fill-opacity="0.216"/>
<rect x="1" y="19" width="1" height="1" fill="#d50bf3"/>
<rect x="2" y="19" width="1" height="1" fill="#e10ef5"/>
<rect x="3" y="19" width="1" height="1" fill="#f31df7"/>
<rect x="4" y="19" width="1" height="1" fill="#e026e6"/>
<rect x="5" y="19" width="1" height="1" fill="#c119e9"/>
<rect x="6" y="19" width="1" height="1" fill="#cc25da"/>
<rect x="7" y="19" width="1" height="1" fill="#ca18e2"/>
<rect x="8" y="19" width="1" height="1" fill="#e91ff2"/>
<rect x="9" y="19" width="1" height="1" fill="#f61cf8"/>
<rect x="10" y="19" width="1" height="1" fill="#e417fa"/>
<rect x="11" y="19" width="1" height="1" fill="#f41af8"/>
<rect x="12" y="19" width="1" height="1" fill="#b1430d"/>
<rect x="13" y="19" width="1" height="1" fill="#a42108"/>
<rect x="14" y="19" width="1" height="1" fill="#e914f7"/>
<rect x="15" y="19" width="1" height="1" fill="#ef1afa"/>
<rect x="16" y="19" width="1" height="1" fill="#e515fc"/>
<rect x="17" y="19" width="1" height="1" fill="#ec13fb"/>
<rect x="18" y="19" width="1" height="1" fill="#b812b0" fill-opacity="0.114"/>
<rect x="19" y="19" width="1" height="1" fill="#d11af2" fill-opacity="0.137"/>
<rect x="20" y="19" width="1" height="1" fill="#d829f5"/>
<rect x="21" y="19" width="1" height="1" fill="#e73efc" fill-opacity="0.133"/>
<rect x="22" y="19" width="1" height="1" fill="#cd17f0" fill-opacity="0.173"/>
<rect x="23" y="19" width="1" height="1" fill="#cd18f0"/>
<rect x="24" y="19" width="1" height="1" fill="#e37cf6"/>
<rect x="25" y="19" width="1" height="1" fill="#ac0000" fill-opacity="0.035"/>
<rect x="4" y="20" width="1" height="1" fill="#ff8300" fill-opacity="0.031"/>
<rect x="17" y="20" width="1" height="1" fill="#ac5700" fill-opacity="0.035"/>
<rect x="18" y="20" width="1" height="1" fill="#c85700" fill-opacity="0.035"/>
<rect x="19" y="20" width="1" height="1" fill="#c85700" fill-opacity="0.035"/>
<rect x="20" y="20" width="1" height="1" fill="#ac5700" fill-opacity="0.035"/>
<rect x="21" y="20" width="1" height="1" fill="#ac5700" fill-opacity="0.035"/>
</svg>