<?xml version="1.0" encoding="UTF-8" standalone="no"?>
<svg xmlns="http://www.w3.org/2000/svg" width="26" height="21" shape-rendering="crispEdges">
<rect x="2" y="0" width="1" height="1" fill="#e40000" fill-opacity="0.035"/>
<rect x="3" y="0" width="1" height="1" fill="#ff0000" fill-opacity="0.035"/>
<rect x="4" y="0" width="1" height="1" fill="#c80000" fill-opacity="0.035"/>
<rect x="10" y="0" width="1" height="1" fill="#e00000" fill-opacity="0.031"/>
<rect x="11" y="0" width="1" height="1" fill="#ce0202" fill-opacity="0.949"/>
<rect x="12" y="0" width="1" height="1" fill="#ce0202" fill-opacity="0.984"/>
<rect x="13" y="0" width="1" height="1" fill="#cf0505" fill-opacity="0.984"/>
<rect x="14" y="0" width="1" height="1" fill="#cf0505" fill-opacity="0.984"/>
<rect x="15" y="0" width="1" height="1" fill="#cf0505" fill-opacity="0.984"/>
<rect x="16" y="0" width="1" height="1" fill="#cf0404" fill-opacity="0.969"/>
<rect x="17" y="0" width="1" height="1" fill="#d30000" fill-opacity="0.067"/>
<rect x="18" y="0" width="1" height="1" fill="#000000" fill-opacity="0.004"/>
<rect x="19" y="0" width="1" height="1" fill="#c80000" fill-opacity="0.035"/>
<rect x="20" y="0" width="1" height="1" fill="#c80000" fill-opacity="0.035"/>
<rect x="25" y="0" width="1" height="1" fill="#fcffbb" fill-opacity="0.02"/>
<rect x="1" y="1" width="1" height="1" fill="#f00000" fill-opacity="0.067"/>
<rect x="2" y="1" width="1" height="1" fill="#f40000" fill-opacity="0.969"/>
<rect x="3" y="1" width="1" height="1" fill="#f30000" fill-opacity="0.984"/>
<rect x="4" y="1" width="1" height="1" fill="#d70000" fill-opacity="0.949"/>
<rect x="5" y="1" width="1" height="1" fill="#e00000" fill-opacity="0.031"/>
<rect x="9" y="1" width="1" height="1" fill="#c80000" fill-opacity="0.035"/>
<rect x="10" y="1" width="1" height="1" fill="#c80000" fill-opacity="0.035"/>
<rect x="11" y="1" width="1" height="1" fill="#e31515" fill-opacity="0.102"/>
<rect x="12" y="1" width="1" height="1" fill="#f93939" fill-opacity="0.984"/>
<rect x="13" y="1" width="1" height="1" fill="#fecaca"/>
<rect x="14" y="1" width="1" height="1" fill="#fec3c5"/>
<rect x="15" y="1" width="1" height="1" fill="#fea7a8"/>
<rect x="16" y="1" width="1" height="1" fill="#fd797c"/>
<rect x="17" y="1" width="1" height="1" fill="#d00707" fill-opacity="0.969"/>
<rect x="18" y="1" width="1" height="1" fill="#c50000" fill-opacity="0.102"/>
<rect x="19" y="1" width="1" height="1" fill="#cf0202" fill-opacity="0.969"/>
<rect x="20" y="1" width="1" height="1" fill="#cf0505" fill-opacity="0.969"/>
<rect x="21" y="1" width="1" height="1" fill="#d30000" fill-opacity="0.067"/>
<rect x="0" y="2" width="1" height="1" fill="#e20000" fill-opacity="0.067"/>
<rect x="1" y="2" width="1" height="1" fill="#e60000" fill-opacity="0.969"/>
<rect x="2" y="2" width="1" height="1" fill="#f90000"/>
<rect x="3" y="2" width="1" height="1" fill="#d60000" fill-opacity="0.969"/>
<rect x="4" y="2" width="1" height="1" fill="#d30000" fill-opacity="0.067"/>
<rect x="7" y="2" width="1" height="1" fill="#c80000" fill-opacity="0.035"/>
<rect x="8" y="2" width="1" height="1" fill="#d30000" fill-opacity="0.067"/>
<rect x="9" y="2" width="1" height="1" fill="#cf0707" fill-opacity="0.969"/>
<rect x="10" y="2" width="1" height="1" fill="#cf0505" fill-opacity="0.984"/>
<rect x="11" y="2" width="1" height="1" fill="#d00707" fill-opacity="0.984"/>
<rect x="12" y="2" width="1" height="1" fill="#fa3d3d"/>
<rect x="13" y="2" width="1" height="1" fill="#fff8f8"/>
<rect x="14" y="2" width="1" height="1" fill="#fffefe"/>
<rect x="15" y="2" width="1" height="1" fill="#fffdfd"/>
<rect x="16" y="2" width="1" height="1" fill="#ffc4c5"/>
<rect x="17" y="2" width="1" height="1" fill="#fd9193"/>
<rect x="18" y="2" width="1" height="1" fill="#d00707" fill-opacity="0.984"/>
<rect x="19" y="2" width="1" height="1" fill="#f62929"/>
<rect x="20" y="2" width="1" height="1" fill="#fdbdbf"/>
<rect x="21" y="2" width="1" height="1" fill="#d00808" fill-opacity="0.969"/>
<rect x="22" y="2" width="1" height="1" fill="#d30000" fill-opacity="0.067"/>
<rect x="0" y="3" width="1" height="1" fill="#e40000" fill-opacity="0.969"/>
<rect x="1" y="3" width="1" height="1" fill="#fd0000"/>
<rect x="2" y="3" width="1" height="1" fill="#d20000" fill-opacity="0.984"/>
<rect x="3" y="3" width="1" height="1" fill="#d30000" fill-opacity="0.067"/>
<rect x="6" y="3" width="1" height="1" fill="#d30000" fill-opacity="0.067"/>
<rect x="7" y="3" width="1" height="1" fill="#cf0707" fill-opacity="0.969"/>
<rect x="8" y="3" width="1" height="1" fill="#d00b0b" fill-opacity="0.984"/>
<rect x="9" y="3" width="1" height="1" fill="#fdf7f7"/>
<rect x="10" y="3" width="1" height="1" fill="#fefbfb"/>
<rect x="11" y="3" width="1" height="1" fill="#fefafa"/>
<rect x="12" y="3" width="1" height="1" fill="#ffe7e9"/>
<rect x="13" y="3" width="1" height="1" fill="#ff4949"/>
<rect x="14" y="3" width="1" height="1" fill="#fffcfc"/>
<rect x="15" y="3" width="1" height="1" fill="#ffffff"/>
<rect x="16" y="3" width="1" height="1" fill="#fffdfd"/>
<rect x="17" y="3" width="1" height="1" fill="#ffc5c6"/>
<rect x="18" y="3" width="1" height="1" fill="#fea8a9"/>
<rect x="19" y="3" width="1" height="1" fill="#f3292a"/>
<rect x="20" y="3" width="1" height="1" fill="#fff9f9"/>
<rect x="21" y="3" width="1" height="1" fill="#fd9f9f"/>
<rect x="22" y="3" width="1" height="1" fill="#cf0505" fill-opacity="0.969"/>
<rect x="23" y="3" width="1" height="1" fill="#c80000" fill-opacity="0.035"/>
<rect x="25" y="3" width="1" height="1" fill="#ff7300" fill-opacity="0.035"/>
<rect x="0" y="4" width="1" height="1" fill="#ff0000" fill-opacity="0.984"/>
<rect x="1" y="4" width="1" height="1" fill="#fe0000"/>
<rect x="2" y="4" width="1" height="1" fill="#ca0000" fill-opacity="0.984"/>
<rect x="3" y="4" width="1" height="1" fill="#c80000" fill-opacity="0.035"/>
<rect x="5" y="4" width="1" height="1" fill="#c40000" fill-opacity="0.067"/>
<rect x="6" y="4" width="1" height="1" fill="#d00808" fill-opacity="0.969"/>
<rect x="7" y="4" width="1" height="1" fill="#fdf5f5"/>
<rect x="8" y="4" width="1" height="1" fill="#fefafa"/>
<rect x="9" y="4" width="1" height="1" fill="#ffffff"/>
<rect x="10" y="4" width="1" height="1" fill="#ffffff"/>
<rect x="11" y="4" width="1" height="1" fill="#ffffff"/>
<rect x="12" y="4" width="1" height="1" fill="#ffebeb"/>
<rect x="13" y="4" width="1" height="1" fill="#ff4646"/>
<rect x="14" y="4" width="1" height="1" fill="#fffcfc"/>
<rect x="15" y="4" width="1" height="1" fill="#ffffff"/>
<rect x="16" y="4" width="1" height="1" fill="#ffffff"/>
<rect x="17" y="4" width="1" height="1" fill="#fffdfd"/>
<rect x="18" y="4" width="1" height="1" fill="#ffbdbe"/>
<rect x="19" y="4" width="1" height="1" fill="#fd3636"/>
<rect x="20" y="4" width="1" height="1" fill="#fffbfb"/>
<rect x="21" y="4" width="1" height="1" fill="#fec6c6"/>
<rect x="22" y="4" width="1" height="1" fill="#d00707" fill-opacity="0.984"/>
<rect x="23" y="4" width="1" height="1" fill="#d30000" fill-opacity="0.067"/>
<rect x="25" y="4" width="1" height="1" fill="#ff9000" fill-opacity="0.035"/>
<rect x="0" y="5" width="1" height="1" fill="#ff0000" fill-opacity="0.984"/>
<rect x="1" y="5" width="1" height="1" fill="#fe0000"/>
<rect x="2" y="5" width="1" height="1" fill="#ca0000" fill-opacity="0.984"/>
<rect x="3" y="5" width="1" height="1" fill="#c80000" fill-opacity="0.035"/>
<rect x="4" y="5" width="1" height="1" fill="#c80000" fill-opacity="0.035"/>
<rect x="5" y="5" width="1" height="1" fill="#bc0202" fill-opacity="0.969"/>
<rect x="6" y="5" width="1" height="1" fill="#fc6566"/>
<rect x="7" y="5" width="1" height="1" fill="#feadae"/>
<rect x="8" y="5" width="1" height="1" fill="#ffc6c6"/>
<rect x="9" y="5" width="1" height="1" fill="#ffeaeb"/>
<rect x="10" y="5" width="1" height="1" fill="#fffefe"/>
<rect x="11" y="5" width="1" height="1" fill="#fffefe"/>
<rect x="12" y="5" width="1" height="1" fill="#ffeaeb"/>
<rect x="13" y="5" width="1" height="1" fill="#ff4545"/>
<rect x="14" y="5" width="1" height="1" fill="#fffcfc"/>
<rect x="15" y="5" width="1" height="1" fill="#ffffff"/>
<rect x="16" y="5" width="1" height="1" fill="#ffffff"/>
<rect x="17" y="5" width="1" height="1" fill="#fffefe"/>
<rect x="18" y="5" width="1" height="1" fill="#ffa1a3"/>
<rect x="19" y="5" width="1" height="1" fill="#fd3838"/>
<rect x="20" y="5" width="1" height="1" fill="#fffbfb"/>
<rect x="21" y="5" width="1" height="1" fill="#ffd3d3"/>
<rect x="22" y="5" width="1" height="1" fill="#fd7777"/>
<rect x="23" y="5" width="1" height="1" fill="#cf0404" fill-opacity="0.969"/>
<rect x="24" y="5" width="1" height="1" fill="#c80000" fill-opacity="0.035"/>
<rect x="25" y="5" width="1" height="1" fill="#ff9000" fill-opacity="0.035"/>
<rect x="0" y="6" width="1" height="1" fill="#ff0000" fill-opacity="0.969"/>
<rect x="1" y="6" width="1" height="1" fill="#fd0000"/>
<rect x="2" y="6" width="1" height="1" fill="#cd0000" fill-opacity="0.984"/>
<rect x="3" y="6" width="1" height="1" fill="#d30000" fill-opacity="0.067"/>
<rect x="4" y="6" width="1" height="1" fill="#b50000" fill-opacity="0.039"/>
<rect x="5" y="6" width="1" height="1" fill="#b90000" fill-opacity="0.984"/>
<rect x="6" y="6" width="1" height="1" fill="#ca0e0e" fill-opacity="0.984"/>
<rect x="7" y="6" width="1" height="1" fill="#cb0f0f" fill-opacity="0.984"/>
<rect x="8" y="6" width="1" height="1" fill="#fd6667"/>
<rect x="9" y="6" width="1" height="1" fill="#fe8e90"/>
<rect x="10" y="6" width="1" height="1" fill="#ffccce"/>
<rect x="11" y="6" width="1" height="1" fill="#ffcdcf"/>
<rect x="12" y="6" width="1" height="1" fill="#ffe5e6"/>
<rect x="13" y="6" width="1" height="1" fill="#ff4848"/>
<rect x="14" y="6" width="1" height="1" fill="#fffcfc"/>
<rect x="15" y="6" width="1" height="1" fill="#ffffff"/>
<rect x="16" y="6" width="1" height="1" fill="#ffffff"/>
<rect x="17" y="6" width="1" height="1" fill="#fffcfc"/>
<rect x="18" y="6" width="1" height="1" fill="#ff6364"/>
<rect x="19" y="6" width="1" height="1" fill="#ffd6d7"/>
<rect x="20" y="6" width="1" height="1" fill="#fffdfd"/>
<rect x="21" y="6" width="1" height="1" fill="#ffd2d3"/>
<rect x="22" y="6" width="1" height="1" fill="#fe7070"/>
<rect x="23" y="6" width="1" height="1" fill="#cf0404" fill-opacity="0.984"/>
<rect x="24" y="6" width="1" height="1" fill="#c80000" fill-opacity="0.035"/>
<rect x="25" y="6" width="1" height="1" fill="#ff9000" fill-opacity="0.035"/>
<rect x="0" y="7" width="1" height="1" fill="#f00000" fill-opacity="0.067"/>
<rect x="1" y="7" width="1" height="1" fill="#db0000" fill-opacity="0.969"/>
<rect x="2" y="7" width="1" height="1" fill="#f40000"/>
<rect x="3" y="7" width="1" height="1" fill="#ca0000" fill-opacity="0.969"/>
<rect x="4" y="7" width="1" height="1" fill="#e5555a" fill-opacity="0.227"/>
<rect x="5" y="7" width="1" height="1" fill="#bb0000" fill-opacity="0.953"/>
<rect x="6" y="7" width="1" height="1" fill="#d30000" fill-opacity="0.067"/>
<rect x="7" y="7" width="1" height="1" fill="#d30000" fill-opacity="0.067"/>
<rect x="8" y="7" width="1" height="1" fill="#cf0202" fill-opacity="0.969"/>
<rect x="9" y="7" width="1" height="1" fill="#cf0707"/>
<rect x="10" y="7" width="1" height="1" fill="#fdaaae"/>
<rect x="11" y="7" width="1" height="1" fill="#ffd1d2"/>
<rect x="12" y="7" width="1" height="1" fill="#ff5d5d"/>
<rect x="13" y="7" width="1" height="1" fill="#ffdcdc"/>
<rect x="14" y="7" width="1" height="1" fill="#ffffff"/>
<rect x="15" y="7" width="1" height="1" fill="#ffffff"/>
<rect x="16" y="7" width="1" height="1" fill="#ffffff"/>
<rect x="17" y="7" width="1" height="1" fill="#fffcfc"/>
<rect x="18" y="7" width="1" height="1" fill="#ff9495"/>
<rect x="19" y="7" width="1" height="1" fill="#fffdfd"/>
<rect x="20" y="7" width="1" height="1" fill="#fff4f4"/>
<rect x="21" y="7" width="1" height="1" fill="#ffcccc"/>
<rect x="22" y="7" width="1" height="1" fill="#fe6b6b"/>
<rect x="23" y="7" width="1" height="1" fill="#cf0404" fill-opacity="0.984"/>
<rect x="24" y="7" width="1" height="1" fill="#c80000" fill-opacity="0.035"/>
<rect x="1" y="8" width="1" height="1" fill="#d30000" fill-opacity="0.067"/>
<rect x="2" y="8" width="1" height="1" fill="#ca0000" fill-opacity="0.969"/>
<rect x="3" y="8" width="1" height="1" fill="#ca0000" fill-opacity="0.984"/>
<rect x="4" y="8" width="1" height="1" fill="#ca0000" fill-opacity="0.953"/>
<rect x="5" y="8" width="1" height="1" fill="#c40000" fill-opacity="0.067"/>
<rect x="8" y="8" width="1" height="1" fill="#c40000" fill-opacity="0.067"/>
<rect x="9" y="8" width="1" height="1" fill="#a90000" fill-opacity="0.984"/>
<rect x="10" y="8" width="1" height="1" fill="#cf0708"/>
<rect x="11" y="8" width="1" height="1" fill="#fdaaae"/>
<rect x="12" y="8" width="1" height="1" fill="#ff6b6b"/>
<rect x="13" y="8" width="1" height="1" fill="#ffd4d6"/>
<rect x="14" y="8" width="1" height="1" fill="#fffeff"/>
<rect x="15" y="8" width="1" height="1" fill="#ffffff"/>
<rect x="16" y="8" width="1" height="1" fill="#fffefe"/>
<rect x="17" y="8" width="1" height="1" fill="#ffb8bb"/>
<rect x="18" y="8" width="1" height="1" fill="#fffcfc"/>
<rect x="19" y="8" width="1" height="1" fill="#fffefe"/>
<rect x="20" y="8" width="1" height="1" fill="#ffe7e9"/>
<rect x="21" y="8" width="1" height="1" fill="#ffc3c5"/>
<rect x="22" y="8" width="1" height="1" fill="#fe6969"/>
<rect x="23" y="8" width="1" height="1" fill="#cf0404" fill-opacity="0.984"/>
<rect x="24" y="8" width="1" height="1" fill="#c80000" fill-opacity="0.035"/>
<rect x="2" y="9" width="1" height="1" fill="#c80000" fill-opacity="0.035"/>
<rect x="3" y="9" width="1" height="1" fill="#c80000" fill-opacity="0.035"/>
<rect x="4" y="9" width="1" height="1" fill="#c80000" fill-opacity="0.035"/>
<rect x="8" y="9" width="1" height="1" fill="#ac0000" fill-opacity="0.035"/>
<rect x="9" y="9" width="1" height="1" fill="#a90000" fill-opacity="0.984"/>
<rect x="10" y="9" width="1" height="1" fill="#d80202"/>
<rect x="11" y="9" width="1" height="1" fill="#d00808"/>
<rect x="12" y="9" width="1" height="1" fill="#fececf"/>
<rect x="13" y="9" width="1" height="1" fill="#fff5f5"/>
<rect x="14" y="9" width="1" height="1" fill="#ffffff"/>
<rect x="15" y="9" width="1" height="1" fill="#ffffff"/>
<rect x="16" y="9" width="1" height="1" fill="#ffffff"/>
<rect x="17" y="9" width="1" height="1" fill="#fffdfd"/>
<rect x="18" y="9" width="1" height="1" fill="#fffefe"/>
<rect x="19" y="9" width="1" height="1" fill="#ffe7e9"/>
<rect x="20" y="9" width="1" height="1" fill="#ffd4d5"/>
<rect x="21" y="9" width="1" height="1" fill="#ffc2c4"/>
<rect x="22" y="9" width="1" height="1" fill="#fe6969"/>
<rect x="23" y="9" width="1" height="1" fill="#cf0404" fill-opacity="0.984"/>
<rect x="24" y="9" width="1" height="1" fill="#d30000" fill-opacity="0.067"/>
<rect x="4" y="10" width="1" height="1" fill="#c80000" fill-opacity="0.035"/>
<rect x="5" y="10" width="1" height="1" fill="#c80000" fill-opacity="0.035"/>
<rect x="6" y="10" width="1" height="1" fill="#c80000" fill-opacity="0.035"/>
<rect x="7" y="10" width="1" height="1" fill="#000000" fill-opacity="0.004"/>
<rect x="8" y="10" width="1" height="1" fill="#c40000" fill-opacity="0.067"/>
<rect x="9" y="10" width="1" height="1" fill="#bd0202" fill-opacity="0.984"/>
<rect x="10" y="10" width="1" height="1" fill="#e60000"/>
<rect x="11" y="10" width="1" height="1" fill="#cf0505"/>
<rect x="12" y="10" width="1" height="1" fill="#feccce"/>
<rect x="13" y="10" width="1" height="1" fill="#fff9fa"/>
<rect x="14" y="10" width="1" height="1" fill="#fef7f8"/>
<rect x="15" y="10" width="1" height="1" fill="#fedadb"/>
<rect x="16" y="10" width="1" height="1" fill="#fed9db"/>
<rect x="17" y="10" width="1" height="1" fill="#fed9da"/>
<rect x="18" y="10" width="1" height="1" fill="#ffd2d3"/>
<rect x="19" y="10" width="1" height="1" fill="#ffd5d7"/>
<rect x="20" y="10" width="1" height="1" fill="#ffbfc0"/>
<rect x="21" y="10" width="1" height="1" fill="#ffb2b5"/>
<rect x="22" y="10" width="1" height="1" fill="#fe7979"/>
<rect x="23" y="10" width="1" height="1" fill="#cf0707"/>
<rect x="24" y="10" width="1" height="1" fill="#ce0202" fill-opacity="0.969"/>
<rect x="25" y="10" width="1" height="1" fill="#c80000" fill-opacity="0.035"/>
<rect x="3" y="11" width="1" height="1" fill="#c80000" fill-opacity="0.035"/>
<rect x="4" y="11" width="1" height="1" fill="#ce0202" fill-opacity="0.965"/>
<rect x="5" y="11" width="1" height="1" fill="#ce0502" fill-opacity="0.984"/>
<rect x="6" y="11" width="1" height="1" fill="#cf0502" fill-opacity="0.969"/>
<rect x="7" y="11" width="1" height="1" fill="#c50000" fill-opacity="0.102"/>
<rect x="8" y="11" width="1" height="1" fill="#b90000" fill-opacity="0.969"/>
<rect x="9" y="11" width="1" height="1" fill="#e60000"/>
<rect x="10" y="11" width="1" height="1" fill="#e70000"/>
<rect x="11" y="11" width="1" height="1" fill="#cf0505"/>
<rect x="12" y="11" width="1" height="1" fill="#fecbcd"/>
<rect x="13" y="11" width="1" height="1" fill="#fdb8bc"/>
<rect x="14" y="11" width="1" height="1" fill="#bc0b0b"/>
<rect x="15" y="11" width="1" height="1" fill="#b90505"/>
<rect x="16" y="11" width="1" height="1" fill="#b80505"/>
<rect x="17" y="11" width="1" height="1" fill="#bb0808"/>
<rect x="18" y="11" width="1" height="1" fill="#fdc4c8"/>
<rect x="19" y="11" width="1" height="1" fill="#ffb9bd"/>
<rect x="20" y="11" width="1" height="1" fill="#ffbcbf"/>
<rect x="21" y="11" width="1" height="1" fill="#ffa2a4"/>
<rect x="22" y="11" width="1" height="1" fill="#ee2e2e"/>
<rect x="23" y="11" width="1" height="1" fill="#fdd1d1"/>
<rect x="24" y="11" width="1" height="1" fill="#cf0505" fill-opacity="0.984"/>
<rect x="25" y="11" width="1" height="1" fill="#c80000" fill-opacity="0.035"/>
<rect x="3" y="12" width="1" height="1" fill="#c80000" fill-opacity="0.035"/>
<rect x="4" y="12" width="1" height="1" fill="#cf0502" fill-opacity="0.984"/>
<rect x="5" y="12" width="1" height="1" fill="#fdeb08"/>
<rect x="6" y="12" width="1" height="1" fill="#fdeb08"/>
<rect x="7" y="12" width="1" height="1" fill="#bc0800" fill-opacity="0.984"/>
<rect x="8" y="12" width="1" height="1" fill="#ef0202"/>
<rect x="9" y="12" width="1" height="1" fill="#fe0000"/>
<rect x="10" y="12" width="1" height="1" fill="#e70000"/>
<rect x="11" y="12" width="1" height="1" fill="#d00505"/>
<rect x="12" y="12" width="1" height="1" fill="#fcb9bc"/>
<rect x="13" y="12" width="1" height="1" fill="#be0e0e"/>
<rect x="14" y="12" width="1" height="1" fill="#fd9d9d"/>
<rect x="15" y="12" width="1" height="1" fill="#fd4242"/>
<rect x="16" y="12" width="1" height="1" fill="#fd3f3f"/>
<rect x="17" y="12" width="1" height="1" fill="#fd1010"/>
<rect x="18" y="12" width="1" height="1" fill="#b60808"/>
<rect x="19" y="12" width="1" height="1" fill="#fdb3b5"/>
<rect x="20" y="12" width="1" height="1" fill="#ff9b9d"/>
<rect x="21" y="12" width="1" height="1" fill="#ff4c4c"/>
<rect x="22" y="12" width="1" height="1" fill="#ffbbbb"/>
<rect x="23" y="12" width="1" height="1" fill="#fe8a8a"/>
<rect x="24" y="12" width="1" height="1" fill="#cf0404" fill-opacity="0.984"/>
<rect x="25" y="12" width="1" height="1" fill="#c80000" fill-opacity="0.035"/>
<rect x="3" y="13" width="1" height="1" fill="#c40000" fill-opacity="0.067"/>
<rect x="4" y="13" width="1" height="1" fill="#d00a05" fill-opacity="0.984"/>
<rect x="5" y="13" width="1" height="1" fill="#fdeb08"/>
<rect x="6" y="13" width="1" height="1" fill="#fff108"/>
<rect x="7" y="13" width="1" height="1" fill="#fdcd08"/>
<rect x="8" y="13" width="1" height="1" fill="#ae0800"/>
<rect x="9" y="13" width="1" height="1" fill="#fc0000"/>
<rect x="10" y="13" width="1" height="1" fill="#fe0000"/>
<rect x="11" y="13" width="1" height="1" fill="#eb0202"/>
<rect x="12" y="13" width="1" height="1" fill="#bb0707"/>
<rect x="13" y="13" width="1" height="1" fill="#fd9d9d"/>
<rect x="14" y="13" width="1" height="1" fill="#fd3737"/>
<rect x="15" y="13" width="1" height="1" fill="#c00705"/>
<rect x="16" y="13" width="1" height="1" fill="#bf0504"/>
<rect x="17" y="13" width="1" height="1" fill="#fd2121"/>
<rect x="18" y="13" width="1" height="1" fill="#fc0f0f"/>
<rect x="19" y="13" width="1" height="1" fill="#bb0505"/>
<rect x="20" y="13" width="1" height="1" fill="#fe8788"/>
<rect x="21" y="13" width="1" height="1" fill="#ffb3b3"/>
<rect x="22" y="13" width="1" height="1" fill="#ff9090"/>
<rect x="23" y="13" width="1" height="1" fill="#fe8787"/>
<rect x="24" y="13" width="1" height="1" fill="#cf0404" fill-opacity="0.984"/>
<rect x="25" y="13" width="1" height="1" fill="#c80000" fill-opacity="0.035"/>
<rect x="2" y="14" width="1" height="1" fill="#b50000" fill-opacity="0.067"/>
<rect x="3" y="14" width="1" height="1" fill="#bb0a0a" fill-opacity="0.969"/>
<rect x="4" y="14" width="1" height="1" fill="#fce6f1"/>
<rect x="5" y="14" width="1" height="1" fill="#c01008"/>
<rect x="6" y="14" width="1" height="1" fill="#fdcc08"/>
<rect x="7" y="14" width="1" height="1" fill="#ffd108"/>
<rect x="8" y="14" width="1" height="1" fill="#fccb08"/>
<rect x="9" y="14" width="1" height="1" fill="#ae0700"/>
<rect x="10" y="14" width="1" height="1" fill="#eb0202"/>
<rect x="11" y="14" width="1" height="1" fill="#eb0202"/>
<rect x="12" y="14" width="1" height="1" fill="#b90202"/>
<rect x="13" y="14" width="1" height="1" fill="#fd5352"/>
<rect x="14" y="14" width="1" height="1" fill="#c60b08"/>
<rect x="15" y="14" width="1" height="1" fill="#fd2121"/>
<rect x="16" y="14" width="1" height="1" fill="#fd2121"/>
<rect x="17" y="14" width="1" height="1" fill="#c00505"/>
<rect x="18" y="14" width="1" height="1" fill="#fd0f0f"/>
<rect x="19" y="14" width="1" height="1" fill="#b90202"/>
<rect x="20" y="14" width="1" height="1" fill="#fe797a"/>
<rect x="21" y="14" width="1" height="1" fill="#ff8686"/>
<rect x="22" y="14" width="1" height="1" fill="#ff8585"/>
<rect x="23" y="14" width="1" height="1" fill="#fd6464"/>
<rect x="24" y="14" width="1" height="1" fill="#cf0202" fill-opacity="0.969"/>
<rect x="25" y="14" width="1" height="1" fill="#c80000" fill-opacity="0.035"/>
<rect x="1" y="15" width="1" height="1" fill="#b50000" fill-opacity="0.067"/>
<rect x="2" y="15" width="1" height="1" fill="#b8080a" fill-opacity="0.969"/>
<rect x="3" y="15" width="1" height="1" fill="#fdeaf5"/>
<rect x="4" y="15" width="1" height="1" fill="#ffc3ca"/>
<rect x="5" y="15" width="1" height="1" fill="#fda0a3"/>
<rect x="6" y="15" width="1" height="1" fill="#af0c05"/>
<rect x="7" y="15" width="1" height="1" fill="#fcbd08"/>
<rect x="8" y="15" width="1" height="1" fill="#ffc208"/>
<rect x="9" y="15" width="1" height="1" fill="#fcbc08"/>
<rect x="10" y="15" width="1" height="1" fill="#ae0400"/>
<rect x="11" y="15" width="1" height="1" fill="#ea0202"/>
<rect x="12" y="15" width="1" height="1" fill="#b90202"/>
<rect x="13" y="15" width="1" height="1" fill="#fd3f3f"/>
<rect x="14" y="15" width="1" height="1" fill="#c30807"/>
<rect x="15" y="15" width="1" height="1" fill="#fd2121"/>
<rect x="16" y="15" width="1" height="1" fill="#fd2121"/>
<rect x="17" y="15" width="1" height="1" fill="#bf0404"/>
<rect x="18" y="15" width="1" height="1" fill="#fd1010"/>
<rect x="19" y="15" width="1" height="1" fill="#b90202"/>
<rect x="20" y="15" width="1" height="1" fill="#fe6262"/>
<rect x="21" y="15" width="1" height="1" fill="#ff6666"/>
<rect x="22" y="15" width="1" height="1" fill="#fd6161"/>
<rect x="23" y="15" width="1" height="1" fill="#d00505" fill-opacity="0.969"/>
<rect x="24" y="15" width="1" height="1" fill="#d30000" fill-opacity="0.067"/>
<rect x="0" y="16" width="1" height="1" fill="#c40000" fill-opacity="0.067"/>
<rect x="1" y="16" width="1" height="1" fill="#c10505" fill-opacity="0.969"/>
<rect x="2" y="16" width="1" height="1" fill="#fcc9d0"/>
<rect x="3" y="16" width="1" height="1" fill="#feb9bf"/>
<rect x="4" y="16" width="1" height="1" fill="#fea4a7"/>
<rect x="5" y="16" width="1" height="1" fill="#fe9091"/>
<rect x="6" y="16" width="1" height="1" fill="#fb6a6a"/>
<rect x="7" y="16" width="1" height="1" fill="#ae0802"/>
<rect x="8" y="16" width="1" height="1" fill="#fca000"/>
<rect x="9" y="16" width="1" height="1" fill="#fca000"/>
<rect x="10" y="16" width="1" height="1" fill="#ad0400"/>
<rect x="11" y="16" width="1" height="1" fill="#ea0202"/>
<rect x="12" y="16" width="1" height="1" fill="#b90000"/>
<rect x="13" y="16" width="1" height="1" fill="#fd1919"/>
<rect x="14" y="16" width="1" height="1" fill="#fd2121"/>
<rect x="15" y="16" width="1" height="1" fill="#bc0202"/>
<rect x="16" y="16" width="1" height="1" fill="#bc0202"/>
<rect x="17" y="16" width="1" height="1" fill="#fd201f"/>
<rect x="18" y="16" width="1" height="1" fill="#fc1111"/>
<rect x="19" y="16" width="1" height="1" fill="#b50202"/>
<rect x="20" y="16" width="1" height="1" fill="#fd6363"/>
<rect x="21" y="16" width="1" height="1" fill="#fd5e5e"/>
<rect x="22" y="16" width="1" height="1" fill="#d00505" fill-opacity="0.984"/>
<rect x="23" y="16" width="1" height="1" fill="#c50000" fill-opacity="0.102"/>
<rect x="24" y="16" width="1" height="1" fill="#000000" fill-opacity="0.004"/>
<rect x="0" y="17" width="1" height="1" fill="#c00000" fill-opacity="0.969"/>
<rect x="1" y="17" width="1" height="1" fill="#c00202"/>
<rect x="2" y="17" width="1" height="1" fill="#c10505"/>
<rect x="3" y="17" width="1" height="1" fill="#c10505"/>
<rect x="4" y="17" width="1" height="1" fill="#c10505"/>
<rect x="5" y="17" width="1" height="1" fill="#c10505"/>
<rect x="6" y="17" width="1" height="1" fill="#c10404"/>
<rect x="7" y="17" width="1" height="1" fill="#c00202"/>
<rect x="8" y="17" width="1" height="1" fill="#ac0502"/>
<rect x="9" y="17" width="1" height="1" fill="#ac0502"/>
<rect x="10" y="17" width="1" height="1" fill="#aa0202"/>
<rect x="11" y="17" width="1" height="1" fill="#c10000"/>
<rect x="12" y="17" width="1" height="1" fill="#cc0000"/>
<rect x="13" y="17" width="1" height="1" fill="#bc0202"/>
<rect x="14" y="17" width="1" height="1" fill="#fd0e0c"/>
<rect x="15" y="17" width="1" height="1" fill="#fd0c0c"/>
<rect x="16" y="17" width="1" height="1" fill="#fd0b0b"/>
<rect x="17" y="17" width="1" height="1" fill="#fd0b0b"/>
<rect x="18" y="17" width="1" height="1" fill="#b10000"/>
<rect x="19" y="17" width="1" height="1" fill="#c90202"/>
<rect x="20" y="17" width="1" height="1" fill="#ca0202"/>
<rect x="21" y="17" width="1" height="1" fill="#ca0202"/>
<rect x="22" y="17" width="1" height="1" fill="#c40000"/>
<rect x="23" y="17" width="1" height="1" fill="#ce0202" fill-opacity="0.969"/>
<rect x="24" y="17" width="1" height="1" fill="#c80000" fill-opacity="0.035"/>
<rect x="25" y="17" width="1" height="1" fill="#e45700" fill-opacity="0.035"/>
<rect x="0" y="18" width="1" height="1" fill="#b80202" fill-opacity="0.984"/>
<rect x="1" y="18" width="1" height="1" fill="#fb5353"/>
<rect x="2" y="18" width="1" height="1" fill="#fd5454"/>
<rect x="3" y="18" width="1" height="1" fill="#fd5454"/>
<rect x="4" y="18" width="1" height="1" fill="#fd5454"/>
<rect x="5" y="18" width="1" height="1" fill="#fd5454"/>
<rect x="6" y="18" width="1" height="1" fill="#fd5454"/>
<rect x="7" y="18" width="1" height="1" fill="#fd5050"/>
<rect x="8" y="18" width="1" height="1" fill="#fc4141"/>
<rect x="9" y="18" width="1" height="1" fill="#fc4040"/>
<rect x="10" y="18" width="1" height="1" fill="#fc3838"/>
<rect x="11" y="18" width="1" height="1" fill="#fd2222"/>
<rect x="12" y="18" width="1" height="1" fill="#fd2121"/>
<rect x="13" y="18" width="1" height="1" fill="#fb2121"/>
<rect x="14" y="18" width="1" height="1" fill="#bb0000" fill-opacity="0.984"/>
<rect x="15" y="18" width="1" height="1" fill="#b80000" fill-opacity="0.984"/>
<rect x="16" y="18" width="1" height="1" fill="#b80000" fill-opacity="0.984"/>
<rect x="17" y="18" width="1" height="1" fill="#bb0000" fill-opacity="0.984"/>
<rect x="18" y="18" width="1" height="1" fill="#fb0000"/>
<rect x="19" y="18" width="1" height="1" fill="#fd0000"/>
<rect x="20" y="18" width="1" height="1" fill="#fd0000"/>
<rect x="21" y="18" width="1" height="1" fill="#fd0000"/>
<rect x="22" y="18" width="1" height="1" fill="#fc0000"/>
<rect x="23" y="18" width="1" height="1" fill="#ce0202" fill-opacity="0.984"/>
<rect x="24" y="18" width="1" height="1" fill="#c80000" fill-opacity="0.035"/>
<rect x="25" y="18" width="1" height="1" fill="#c85700" fill-opacity="0.035"/>
<rect x="0" y="19" width="1" height="1" fill="#b70000" fill-opacity="0.965"/>
<rect x="1" y="19" width="1" height="1" fill="#b80202" fill-opacity="0.984"/>
<rect x="2" y="19" width="1" height="1" fill="#b80202" fill-opacity="0.984"/>
<rect x="3" y="19" width="1" height="1" fill="#b80202" fill-opacity="0.984"/>
<rect x="4" y="19" width="1" height="1" fill="#b80202" fill-opacity="0.984"/>
<rect x="5" y="19" width="1" height="1" fill="#b80202" fill-opacity="0.984"/>
<rect x="6" y="19" width="1" height="1" fill="#b80202" fill-opacity="0.984"/>
<rect x="7" y="19" width="1" height="1" fill="#b80202" fill-opacity="0.984"/>
<rect x="8" y="19" width="1" height="1" fill="#b80202" fill-opacity="0.988"/>
<rect x="9" y="19" width="1" height="1" fill="#b80202" fill-opacity="0.984"/>
<rect x="10" y="19" width="1" height="1" fill="#b80202" fill-opacity="0.984"/>
<rect x="11" y="19" width="1" height="1" fill="#b80000" fill-opacity="0.984"/>
<rect x="12" y="19" width="1" height="1" fill="#b80000" fill-opacity="0.984"/>
<rect x="13" y="19" width="1" height="1" fill="#b80000" fill-opacity="0.969"/>
<rect x="14" y="19" width="1" height="1" fill="#b50000" fill-opacity="0.067"/>
<rect x="15" y="19" width="1" height="1" fill="#ac0000" fill-opacity="0.035"/>
<rect x="16" y="19" width="1" height="1" fill="#ac0000" fill-opacity="0.035"/>
<rect x="17" y="19" width="1" height="1" fill="#b50000" fill-opacity="0.067"/>
<rect x="18" y="19" width="1" height="1" fill="#b80000" fill-opacity="0.969"/>
<rect x="19" y="19" width="1" height="1" fill="#b80000" fill-opacity="0.984"/>
<rect x="20" y="19" width="1" height="1" fill="#b80000" fill-opacity="0.984"/>
<rect x="21" y="19" width="1" height="1" fill="#b80000" fill-opacity="0.984"/>
<rect x="22" y="19" width="1" height="1" fill="#b80000" fill-opacity="0.984"/>
<rect x="23" y="19" width="1" height="1" fill="#b80000" fill-opacity="0.965"/>
<rect x="24" y="19" width="1" height="1" fill="#ac0000" fill-opacity="0.035"/>
<rect x="25" y="19" width="1" height="1" fill="#c85700" fill-opacity="0.035"/>
<rect x="0" y="20" width="1" height="1" fill="#ac0000" fill-opacity="0.035"/>
<rect x="1" y="20" width="1" height="1" fill="#ac0000" fill-opacity="0.035"/>
<rect x="2" y="20" width="1" height="1" fill="#ac0000" fill-opacity="0.035"/>
<rect x="3" y="20" width="1" height="1" fill="#ac0000" fill-opacity="0.035"/>
<rect x="4" y="20" width="1" height="1" fill="#d35000" fill-opacity="0.067"/>
<rect x="5" y="20" width="1" height="1" fill="#ac0000" fill-opacity="0.035"/>
<rect x="6" y="20" width="1" height="1" fill="#ac0000" fill-opacity="0.035"/>
<rect x="7" y="20" width="1" height="1" fill="#bb3000" fill-opacity="0.043"/>
<rect x="8" y="20" width="1" height="1" fill="#f5d707" fill-opacity="0.275"/>
<rect x="9" y="20" width="1" height="1" fill="#bb3000" fill-opacity="0.043"/>
<rect x="10" y="20" width="1" height="1" fill="#ac0000" fill-opacity="0.035"/>
<rect x="11" y="20" width="1" height="1" fill="#ac0000" fill-opacity="0.035"/>
<rect x="12" y="20" width="1" height="1" fill="#ac0000" fill-opacity="0.035"/>
<rect x="13" y="20" width="1" height="1" fill="#ac0000" fill-opacity="0.035"/>
<rect x="17" y="20" width="1" height="1" fill="#9a5d00" fill-opacity="0.035"/>
<rect x="18" y="20" width="1" height="1" fill="#a33e00" fill-opacity="0.071"/>
<rect x="19" y="20" width="1" height="1" fill="#a33e00" fill-opacity="0.071"/>
<rect x="20" y="20" width="1" height="1" fill="#a32f00" fill-opacity="0.071"/>
<rect x="21" y="20" width="1" height="1" fill="#a32f00" fill-opacity="0.071"/>
<rect x="22" y="20" width="1" height="1" fill="#ac0000" fill-opacity="0.035"/>
<rect x="23" y="20" width="1" height="1" fill="#ac0000" fill-opacity="0.035"/>
</svg>