<?xml version="1.0" encoding="UTF-8" standalone="no"?>
<svg xmlns="http://www.w3.org/2000/svg" width="26" height="21" shape-rendering="crispEdges">
<rect x="2" y="0" width="1" height="1" fill="#ff7300" fill-opacity="0.035"/>
<rect x="3" y="0" width="1" height="1" fill="#ff7300" fill-opacity="0.035"/>
<rect x="4" y="0" width="1" height="1" fill="#e47300" fill-opacity="0.035"/>
<rect x="10" y="0" width="1" height="1" fill="#e08300" fill-opacity="0.031"/>
<rect x="11" y="0" width="1" height="1" fill="#ef6d00" fill-opacity="0.949"/>
<rect x="12" y="0" width="1" height="1" fill="#ef6e02" fill-opacity="0.984"/>
<rect x="13" y="0" width="1" height="1" fill="#ef6f04" fill-opacity="0.984"/>
<rect x="14" y="0" width="1" height="1" fill="#ef6f04" fill-opacity="0.984"/>
<rect x="15" y="0" width="1" height="1" fill="#ef6f04" fill-opacity="0.984"/>
<rect x="16" y="0" width="1" height="1" fill="#ef6e02" fill-opacity="0.969"/>
<rect x="17" y="0" width="1" height="1" fill="#f06b00" fill-opacity="0.067"/>
<rect x="18" y="0" width="1" height="1" fill="#ff0000" fill-opacity="0.004"/>
<rect x="19" y="0" width="1" height="1" fill="#e47300" fill-opacity="0.035"/>
<rect x="20" y="0" width="1" height="1" fill="#e47300" fill-opacity="0.035"/>
<rect x="1" y="1" width="1" height="1" fill="#ff7a00" fill-opacity="0.067"/>
<rect x="2" y="1" width="1" height="1" fill="#ff7e00" fill-opacity="0.969"/>
<rect x="3" y="1" width="1" height="1" fill="#ff7e00" fill-opacity="0.984"/>
<rect x="4" y="1" width="1" height="1" fill="#f97200" fill-opacity="0.949"/>
<rect x="5" y="1" width="1" height="1" fill="#ff8300" fill-opacity="0.031"/>
<rect x="9" y="1" width="1" height="1" fill="#e47300" fill-opacity="0.035"/>
<rect x="10" y="1" width="1" height="1" fill="#ff7300" fill-opacity="0.035"/>
<rect x="11" y="1" width="1" height="1" fill="#f58315" fill-opacity="0.102"/>
<rect x="12" y="1" width="1" height="1" fill="#ff9f37" fill-opacity="0.984"/>
<rect x="13" y="1" width="1" height="1" fill="#ffedd3"/>
<rect x="14" y="1" width="1" height="1" fill="#ffe6cd"/>
<rect x="15" y="1" width="1" height="1" fill="#ffdab0"/>
<rect x="16" y="1" width="1" height="1" fill="#febf7f"/>
<rect x="17" y="1" width="1" height="1" fill="#ef7005" fill-opacity="0.969"/>
<rect x="18" y="1" width="1" height="1" fill="#ec6e00" fill-opacity="0.102"/>
<rect x="19" y="1" width="1" height="1" fill="#ef6d00" fill-opacity="0.969"/>
<rect x="20" y="1" width="1" height="1" fill="#ef6f05" fill-opacity="0.969"/>
<rect x="21" y="1" width="1" height="1" fill="#f07a00" fill-opacity="0.067"/>
<rect x="0" y="2" width="1" height="1" fill="#ff7a00" fill-opacity="0.067"/>
<rect x="1" y="2" width="1" height="1" fill="#ff7900" fill-opacity="0.969"/>
<rect x="2" y="2" width="1" height="1" fill="#ff8100"/>
<rect x="3" y="2" width="1" height="1" fill="#f87200" fill-opacity="0.969"/>
<rect x="4" y="2" width="1" height="1" fill="#ff7a00" fill-opacity="0.067"/>
<rect x="7" y="2" width="1" height="1" fill="#e47300" fill-opacity="0.035"/>
<rect x="8" y="2" width="1" height="1" fill="#f07a00" fill-opacity="0.067"/>
<rect x="9" y="2" width="1" height="1" fill="#ef7005" fill-opacity="0.969"/>
<rect x="10" y="2" width="1" height="1" fill="#ef6f05" fill-opacity="0.984"/>
<rect x="11" y="2" width="1" height="1" fill="#ef7105" fill-opacity="0.984"/>
<rect x="12" y="2" width="1" height="1" fill="#ffa23a"/>
<rect x="13" y="2" width="1" height="1" fill="#fffcf8"/>
<rect x="14" y="2" width="1" height="1" fill="#fffffe"/>
<rect x="15" y="2" width="1" height="1" fill="#fffefd"/>
<rect x="16" y="2" width="1" height="1" fill="#ffe9ce"/>
<rect x="17" y="2" width="1" height="1" fill="#fecd98"/>
<rect x="18" y="2" width="1" height="1" fill="#f07107" fill-opacity="0.984"/>
<rect x="19" y="2" width="1" height="1" fill="#fe9724"/>
<rect x="20" y="2" width="1" height="1" fill="#fee4c5"/>
<rect x="21" y="2" width="1" height="1" fill="#ef7107" fill-opacity="0.969"/>
<rect x="22" y="2" width="1" height="1" fill="#f06b00" fill-opacity="0.067"/>
<rect x="0" y="3" width="1" height="1" fill="#ff7800" fill-opacity="0.969"/>
<rect x="1" y="3" width="1" height="1" fill="#ff8300"/>
<rect x="2" y="3" width="1" height="1" fill="#f46f00" fill-opacity="0.984"/>
<rect x="3" y="3" width="1" height="1" fill="#ff7a00" fill-opacity="0.067"/>
<rect x="6" y="3" width="1" height="1" fill="#f07a00" fill-opacity="0.067"/>
<rect x="7" y="3" width="1" height="1" fill="#ef7005" fill-opacity="0.969"/>
<rect x="8" y="3" width="1" height="1" fill="#ef720a" fill-opacity="0.984"/>
<rect x="9" y="3" width="1" height="1" fill="#fefaf7"/>
<rect x="10" y="3" width="1" height="1" fill="#fffdfb"/>
<rect x="11" y="3" width="1" height="1" fill="#fffdfb"/>
<rect x="12" y="3" width="1" height="1" fill="#fffbf3"/>
<rect x="13" y="3" width="1" height="1" fill="#ffa848"/>
<rect x="14" y="3" width="1" height="1" fill="#fffefc"/>
<rect x="15" y="3" width="1" height="1" fill="#ffffff"/>
<rect x="16" y="3" width="1" height="1" fill="#fffefd"/>
<rect x="17" y="3" width="1" height="1" fill="#ffeacf"/>
<rect x="18" y="3" width="1" height="1" fill="#ffdab1"/>
<rect x="19" y="3" width="1" height="1" fill="#ff9221"/>
<rect x="20" y="3" width="1" height="1" fill="#fffcf9"/>
<rect x="21" y="3" width="1" height="1" fill="#fed6a7"/>
<rect x="22" y="3" width="1" height="1" fill="#ef6e04" fill-opacity="0.969"/>
<rect x="23" y="3" width="1" height="1" fill="#e47300" fill-opacity="0.035"/>
<rect x="0" y="4" width="1" height="1" fill="#ff8300" fill-opacity="0.984"/>
<rect x="1" y="4" width="1" height="1" fill="#ff8300"/>
<rect x="2" y="4" width="1" height="1" fill="#ea6a00" fill-opacity="0.984"/>
<rect x="3" y="4" width="1" height="1" fill="#e47300" fill-opacity="0.035"/>
<rect x="5" y="4" width="1" height="1" fill="#e26b00" fill-opacity="0.067"/>
<rect x="6" y="4" width="1" height="1" fill="#ef7107" fill-opacity="0.969"/>
<rect x="7" y="4" width="1" height="1" fill="#fefaf5"/>
<rect x="8" y="4" width="1" height="1" fill="#fffcfa"/>
<rect x="9" y="4" width="1" height="1" fill="#ffffff"/>
<rect x="10" y="4" width="1" height="1" fill="#ffffff"/>
<rect x="11" y="4" width="1" height="1" fill="#ffffff"/>
<rect x="12" y="4" width="1" height="1" fill="#fffdf4"/>
<rect x="13" y="4" width="1" height="1" fill="#ffa845"/>
<rect x="14" y="4" width="1" height="1" fill="#fffefc"/>
<rect x="15" y="4" width="1" height="1" fill="#ffffff"/>
<rect x="16" y="4" width="1" height="1" fill="#ffffff"/>
<rect x="17" y="4" width="1" height="1" fill="#fffefd"/>
<rect x="18" y="4" width="1" height="1" fill="#ffe4c4"/>
<rect x="19" y="4" width="1" height="1" fill="#ff9e30"/>
<rect x="20" y="4" width="1" height="1" fill="#fffdfb"/>
<rect x="21" y="4" width="1" height="1" fill="#ffebd0"/>
<rect x="22" y="4" width="1" height="1" fill="#ef7105" fill-opacity="0.984"/>
<rect x="23" y="4" width="1" height="1" fill="#f07a00" fill-opacity="0.067"/>
<rect x="0" y="5" width="1" height="1" fill="#ff8300" fill-opacity="0.984"/>
<rect x="1" y="5" width="1" height="1" fill="#ff8300"/>
<rect x="2" y="5" width="1" height="1" fill="#ea6a00" fill-opacity="0.984"/>
<rect x="3" y="5" width="1" height="1" fill="#e47300" fill-opacity="0.035"/>
<rect x="4" y="5" width="1" height="1" fill="#e45700" fill-opacity="0.035"/>
<rect x="5" y="5" width="1" height="1" fill="#da6202" fill-opacity="0.969"/>
<rect x="6" y="5" width="1" height="1" fill="#feb668"/>
<rect x="7" y="5" width="1" height="1" fill="#ffdcb4"/>
<rect x="8" y="5" width="1" height="1" fill="#ffebcf"/>
<rect x="9" y="5" width="1" height="1" fill="#fffdf4"/>
<rect x="10" y="5" width="1" height="1" fill="#fffffe"/>
<rect x="11" y="5" width="1" height="1" fill="#ffffff"/>
<rect x="12" y="5" width="1" height="1" fill="#fffdf4"/>
<rect x="13" y="5" width="1" height="1" fill="#ffa843"/>
<rect x="14" y="5" width="1" height="1" fill="#fffefc"/>
<rect x="15" y="5" width="1" height="1" fill="#ffffff"/>
<rect x="16" y="5" width="1" height="1" fill="#ffffff"/>
<rect x="17" y="5" width="1" height="1" fill="#fffffe"/>
<rect x="18" y="5" width="1" height="1" fill="#ffd5a8"/>
<rect x="19" y="5" width="1" height="1" fill="#ff9f33"/>
<rect x="20" y="5" width="1" height="1" fill="#fffdfb"/>
<rect x="21" y="5" width="1" height="1" fill="#fff3dc"/>
<rect x="22" y="5" width="1" height="1" fill="#fec17c"/>
<rect x="23" y="5" width="1" height="1" fill="#ef6e02" fill-opacity="0.969"/>
<rect x="24" y="5" width="1" height="1" fill="#e47300" fill-opacity="0.035"/>
<rect x="0" y="6" width="1" height="1" fill="#ff8300" fill-opacity="0.969"/>
<rect x="1" y="6" width="1" height="1" fill="#ff8200"/>
<rect x="2" y="6" width="1" height="1" fill="#ee6d00" fill-opacity="0.984"/>
<rect x="3" y="6" width="1" height="1" fill="#f06b00" fill-opacity="0.067"/>
<rect x="4" y="6" width="1" height="1" fill="#e66800" fill-opacity="0.039"/>
<rect x="5" y="6" width="1" height="1" fill="#d86000" fill-opacity="0.984"/>
<rect x="6" y="6" width="1" height="1" fill="#ec7302" fill-opacity="0.984"/>
<rect x="7" y="6" width="1" height="1" fill="#ec7505" fill-opacity="0.984"/>
<rect x="8" y="6" width="1" height="1" fill="#feb769"/>
<rect x="9" y="6" width="1" height="1" fill="#ffcc95"/>
<rect x="10" y="6" width="1" height="1" fill="#ffecd5"/>
<rect x="11" y="6" width="1" height="1" fill="#ffecd7"/>
<rect x="12" y="6" width="1" height="1" fill="#fffaf0"/>
<rect x="13" y="6" width="1" height="1" fill="#ffa847"/>
<rect x="14" y="6" width="1" height="1" fill="#fffefc"/>
<rect x="15" y="6" width="1" height="1" fill="#ffffff"/>
<rect x="16" y="6" width="1" height="1" fill="#ffffff"/>
<rect x="17" y="6" width="1" height="1" fill="#fffefc"/>
<rect x="18" y="6" width="1" height="1" fill="#ffb565"/>
<rect x="19" y="6" width="1" height="1" fill="#fff0df"/>
<rect x="20" y="6" width="1" height="1" fill="#fffffe"/>
<rect x="21" y="6" width="1" height="1" fill="#fff1dc"/>
<rect x="22" y="6" width="1" height="1" fill="#ffbf74"/>
<rect x="23" y="6" width="1" height="1" fill="#ef6e02" fill-opacity="0.984"/>
<rect x="24" y="6" width="1" height="1" fill="#e47300" fill-opacity="0.035"/>
<rect x="0" y="7" width="1" height="1" fill="#ff7a00" fill-opacity="0.067"/>
<rect x="1" y="7" width="1" height="1" fill="#fd7400" fill-opacity="0.969"/>
<rect x="2" y="7" width="1" height="1" fill="#fe7f00"/>
<rect x="3" y="7" width="1" height="1" fill="#ec6c00" fill-opacity="0.969"/>
<rect x="4" y="7" width="1" height="1" fill="#f4a75c" fill-opacity="0.227"/>
<rect x="5" y="7" width="1" height="1" fill="#d96000" fill-opacity="0.953"/>
<rect x="6" y="7" width="1" height="1" fill="#f06b00" fill-opacity="0.067"/>
<rect x="7" y="7" width="1" height="1" fill="#f07a00" fill-opacity="0.067"/>
<rect x="8" y="7" width="1" height="1" fill="#ef6e02" fill-opacity="0.969"/>
<rect x="9" y="7" width="1" height="1" fill="#ef7005"/>
<rect x="10" y="7" width="1" height="1" fill="#fedab3"/>
<rect x="11" y="7" width="1" height="1" fill="#ffefdb"/>
<rect x="12" y="7" width="1" height="1" fill="#ffb55f"/>
<rect x="13" y="7" width="1" height="1" fill="#fff6e6"/>
<rect x="14" y="7" width="1" height="1" fill="#ffffff"/>
<rect x="15" y="7" width="1" height="1" fill="#ffffff"/>
<rect x="16" y="7" width="1" height="1" fill="#ffffff"/>
<rect x="17" y="7" width="1" height="1" fill="#fffefc"/>
<rect x="18" y="7" width="1" height="1" fill="#ffd09b"/>
<rect x="19" y="7" width="1" height="1" fill="#fffefd"/>
<rect x="20" y="7" width="1" height="1" fill="#fffffe"/>
<rect x="21" y="7" width="1" height="1" fill="#ffefd6"/>
<rect x="22" y="7" width="1" height="1" fill="#ffbd6f"/>
<rect x="23" y="7" width="1" height="1" fill="#ef6e02" fill-opacity="0.984"/>
<rect x="24" y="7" width="1" height="1" fill="#e47300" fill-opacity="0.035"/>
<rect x="1" y="8" width="1" height="1" fill="#f07a00" fill-opacity="0.067"/>
<rect x="2" y="8" width="1" height="1" fill="#eb6a00" fill-opacity="0.969"/>
<rect x="3" y="8" width="1" height="1" fill="#eb6a00" fill-opacity="0.984"/>
<rect x="4" y="8" width="1" height="1" fill="#eb6a00" fill-opacity="0.953"/>
<rect x="5" y="8" width="1" height="1" fill="#e26b00" fill-opacity="0.067"/>
<rect x="8" y="8" width="1" height="1" fill="#e26b00" fill-opacity="0.067"/>
<rect x="9" y="8" width="1" height="1" fill="#c85800" fill-opacity="0.984"/>
<rect x="10" y="8" width="1" height="1" fill="#ef7007"/>
<rect x="11" y="8" width="1" height="1" fill="#ffd9b4"/>
<rect x="12" y="8" width="1" height="1" fill="#ffbc6e"/>
<rect x="13" y="8" width="1" height="1" fill="#fff0de"/>
<rect x="14" y="8" width="1" height="1" fill="#ffffff"/>
<rect x="15" y="8" width="1" height="1" fill="#ffffff"/>
<rect x="16" y="8" width="1" height="1" fill="#fffffe"/>
<rect x="17" y="8" width="1" height="1" fill="#ffe2c0"/>
<rect x="18" y="8" width="1" height="1" fill="#fffefd"/>
<rect x="19" y="8" width="1" height="1" fill="#ffffff"/>
<rect x="20" y="8" width="1" height="1" fill="#fffbf3"/>
<rect x="21" y="8" width="1" height="1" fill="#ffe9cd"/>
<rect x="22" y="8" width="1" height="1" fill="#ffb96d"/>
<rect x="23" y="8" width="1" height="1" fill="#ef6e02" fill-opacity="0.984"/>
<rect x="24" y="8" width="1" height="1" fill="#e47300" fill-opacity="0.035"/>
<rect x="2" y="9" width="1" height="1" fill="#e47300" fill-opacity="0.035"/>
<rect x="3" y="9" width="1" height="1" fill="#e47300" fill-opacity="0.035"/>
<rect x="4" y="9" width="1" height="1" fill="#e47300" fill-opacity="0.035"/>
<rect x="8" y="9" width="1" height="1" fill="#c85700" fill-opacity="0.035"/>
<rect x="9" y="9" width="1" height="1" fill="#c65700" fill-opacity="0.984"/>
<rect x="10" y="9" width="1" height="1" fill="#fb7400"/>
<rect x="11" y="9" width="1" height="1" fill="#ef7108"/>
<rect x="12" y="9" width="1" height="1" fill="#ffecd7"/>
<rect x="13" y="9" width="1" height="1" fill="#fffefe"/>
<rect x="14" y="9" width="1" height="1" fill="#ffffff"/>
<rect x="15" y="9" width="1" height="1" fill="#ffffff"/>
<rect x="16" y="9" width="1" height="1" fill="#ffffff"/>
<rect x="17" y="9" width="1" height="1" fill="#fffffe"/>
<rect x="18" y="9" width="1" height="1" fill="#ffffff"/>
<rect x="19" y="9" width="1" height="1" fill="#fffbf3"/>
<rect x="20" y="9" width="1" height="1" fill="#fff1de"/>
<rect x="21" y="9" width="1" height="1" fill="#ffe9cc"/>
<rect x="22" y="9" width="1" height="1" fill="#ffb96d"/>
<rect x="23" y="9" width="1" height="1" fill="#ef6e02" fill-opacity="0.984"/>
<rect x="24" y="9" width="1" height="1" fill="#f06b00" fill-opacity="0.067"/>
<rect x="4" y="10" width="1" height="1" fill="#e47300" fill-opacity="0.035"/>
<rect x="5" y="10" width="1" height="1" fill="#e47300" fill-opacity="0.035"/>
<rect x="6" y="10" width="1" height="1" fill="#e47300" fill-opacity="0.035"/>
<rect x="7" y="10" width="1" height="1" fill="#ff0000" fill-opacity="0.004"/>
<rect x="8" y="10" width="1" height="1" fill="#e25c00" fill-opacity="0.067"/>
<rect x="9" y="10" width="1" height="1" fill="#dc6300" fill-opacity="0.984"/>
<rect x="10" y="10" width="1" height="1" fill="#fe7900"/>
<rect x="11" y="10" width="1" height="1" fill="#ef6f05"/>
<rect x="12" y="10" width="1" height="1" fill="#ffecd6"/>
<rect x="13" y="10" width="1" height="1" fill="#fffefe"/>
<rect x="14" y="10" width="1" height="1" fill="#fffcfa"/>
<rect x="15" y="10" width="1" height="1" fill="#fff4e4"/>
<rect x="16" y="10" width="1" height="1" fill="#fef3e3"/>
<rect x="17" y="10" width="1" height="1" fill="#fff4e3"/>
<rect x="18" y="10" width="1" height="1" fill="#ffeedc"/>
<rect x="19" y="10" width="1" height="1" fill="#fff1e0"/>
<rect x="20" y="10" width="1" height="1" fill="#ffe4c8"/>
<rect x="21" y="10" width="1" height="1" fill="#ffdebb"/>
<rect x="22" y="10" width="1" height="1" fill="#ffc37e"/>
<rect x="23" y="10" width="1" height="1" fill="#ef7005"/>
<rect x="24" y="10" width="1" height="1" fill="#ef6d00" fill-opacity="0.969"/>
<rect x="25" y="10" width="1" height="1" fill="#e47300" fill-opacity="0.035"/>
<rect x="3" y="11" width="1" height="1" fill="#e47300" fill-opacity="0.035"/>
<rect x="4" y="11" width="1" height="1" fill="#ef6d00" fill-opacity="0.965"/>
<rect x="5" y="11" width="1" height="1" fill="#ef6f00" fill-opacity="0.984"/>
<rect x="6" y="11" width="1" height="1" fill="#ef6f00" fill-opacity="0.969"/>
<rect x="7" y="11" width="1" height="1" fill="#e36400" fill-opacity="0.102"/>
<rect x="8" y="11" width="1" height="1" fill="#d96100" fill-opacity="0.969"/>
<rect x="9" y="11" width="1" height="1" fill="#fe7900"/>
<rect x="10" y="11" width="1" height="1" fill="#ff7900"/>
<rect x="11" y="11" width="1" height="1" fill="#ef6f05"/>
<rect x="12" y="11" width="1" height="1" fill="#ffecd5"/>
<rect x="13" y="11" width="1" height="1" fill="#fee0c1"/>
<rect x="14" y="11" width="1" height="1" fill="#d8650b"/>
<rect x="15" y="11" width="1" height="1" fill="#d76205"/>
<rect x="16" y="11" width="1" height="1" fill="#d66205"/>
<rect x="17" y="11" width="1" height="1" fill="#d76408"/>
<rect x="18" y="11" width="1" height="1" fill="#fee6ce"/>
<rect x="19" y="11" width="1" height="1" fill="#ffe1c2"/>
<rect x="20" y="11" width="1" height="1" fill="#ffe3c5"/>
<rect x="21" y="11" width="1" height="1" fill="#ffd6a9"/>
<rect x="22" y="11" width="1" height="1" fill="#ff9528"/>
<rect x="23" y="11" width="1" height="1" fill="#fff0db"/>
<rect x="24" y="11" width="1" height="1" fill="#ef6f05" fill-opacity="0.984"/>
<rect x="25" y="11" width="1" height="1" fill="#e47300" fill-opacity="0.035"/>
<rect x="3" y="12" width="1" height="1" fill="#e47300" fill-opacity="0.035"/>
<rect x="4" y="12" width="1" height="1" fill="#ef6f00" fill-opacity="0.984"/>
<rect x="5" y="12" width="1" height="1" fill="#feed08"/>
<rect x="6" y="12" width="1" height="1" fill="#feed08"/>
<rect x="7" y="12" width="1" height="1" fill="#d96400" fill-opacity="0.984"/>
<rect x="8" y="12" width="1" height="1" fill="#fd7e00"/>
<rect x="9" y="12" width="1" height="1" fill="#ff8300"/>
<rect x="10" y="12" width="1" height="1" fill="#ff7900"/>
<rect x="11" y="12" width="1" height="1" fill="#ef6f04"/>
<rect x="12" y="12" width="1" height="1" fill="#fee3c1"/>
<rect x="13" y="12" width="1" height="1" fill="#da680e"/>
<rect x="14" y="12" width="1" height="1" fill="#fed5a5"/>
<rect x="15" y="12" width="1" height="1" fill="#fea640"/>
<rect x="16" y="12" width="1" height="1" fill="#fea43d"/>
<rect x="17" y="12" width="1" height="1" fill="#fe8b04"/>
<rect x="18" y="12" width="1" height="1" fill="#d26108"/>
<rect x="19" y="12" width="1" height="1" fill="#fedcbb"/>
<rect x="20" y="12" width="1" height="1" fill="#ffd3a3"/>
<rect x="21" y="12" width="1" height="1" fill="#ffa94c"/>
<rect x="22" y="12" width="1" height="1" fill="#ffe5c2"/>
<rect x="23" y="12" width="1" height="1" fill="#ffcb90"/>
<rect x="24" y="12" width="1" height="1" fill="#ef6f02" fill-opacity="0.984"/>
<rect x="25" y="12" width="1" height="1" fill="#e47300" fill-opacity="0.035"/>
<rect x="3" y="13" width="1" height="1" fill="#e26b00" fill-opacity="0.067"/>
<rect x="4" y="13" width="1" height="1" fill="#ef7205" fill-opacity="0.984"/>
<rect x="5" y="13" width="1" height="1" fill="#feed08"/>
<rect x="6" y="13" width="1" height="1" fill="#fff108"/>
<rect x="7" y="13" width="1" height="1" fill="#fed008"/>
<rect x="8" y="13" width="1" height="1" fill="#ca5c00"/>
<rect x="9" y="13" width="1" height="1" fill="#fd8200"/>
<rect x="10" y="13" width="1" height="1" fill="#ff8300"/>
<rect x="11" y="13" width="1" height="1" fill="#ff7b00"/>
<rect x="12" y="13" width="1" height="1" fill="#d86207"/>
<rect x="13" y="13" width="1" height="1" fill="#fed5a5"/>
<rect x="14" y="13" width="1" height="1" fill="#fe9f33"/>
<rect x="15" y="13" width="1" height="1" fill="#de6a02"/>
<rect x="16" y="13" width="1" height="1" fill="#dc6702"/>
<rect x="17" y="13" width="1" height="1" fill="#fe9419"/>
<rect x="18" y="13" width="1" height="1" fill="#fe8b00"/>
<rect x="19" y="13" width="1" height="1" fill="#d86205"/>
<rect x="20" y="13" width="1" height="1" fill="#ffca8d"/>
<rect x="21" y="13" width="1" height="1" fill="#ffe2bc"/>
<rect x="22" y="13" width="1" height="1" fill="#ffcf97"/>
<rect x="23" y="13" width="1" height="1" fill="#ffca8d"/>
<rect x="24" y="13" width="1" height="1" fill="#ef6f02" fill-opacity="0.984"/>
<rect x="25" y="13" width="1" height="1" fill="#e47300" fill-opacity="0.035"/>
<rect x="2" y="14" width="1" height="1" fill="#d35c00" fill-opacity="0.067"/>
<rect x="3" y="14" width="1" height="1" fill="#d7630a" fill-opacity="0.969"/>
<rect x="4" y="14" width="1" height="1" fill="#fdf6f3"/>
<rect x="5" y="14" width="1" height="1" fill="#dc6b08"/>
<rect x="6" y="14" width="1" height="1" fill="#fecf08"/>
<rect x="7" y="14" width="1" height="1" fill="#ffd108"/>
<rect x="8" y="14" width="1" height="1" fill="#fdce08"/>
<rect x="9" y="14" width="1" height="1" fill="#ca5c00"/>
<rect x="10" y="14" width="1" height="1" fill="#fd7a00"/>
<rect x="11" y="14" width="1" height="1" fill="#ff7b00"/>
<rect x="12" y="14" width="1" height="1" fill="#d76002"/>
<rect x="13" y="14" width="1" height="1" fill="#feae53"/>
<rect x="14" y="14" width="1" height="1" fill="#e57104"/>
<rect x="15" y="14" width="1" height="1" fill="#fe951a"/>
<rect x="16" y="14" width="1" height="1" fill="#fe941a"/>
<rect x="17" y="14" width="1" height="1" fill="#de6902"/>
<rect x="18" y="14" width="1" height="1" fill="#fe8b00"/>
<rect x="19" y="14" width="1" height="1" fill="#d76002"/>
<rect x="20" y="14" width="1" height="1" fill="#ffc37f"/>
<rect x="21" y="14" width="1" height="1" fill="#ffc98b"/>
<rect x="22" y="14" width="1" height="1" fill="#ffc98a"/>
<rect x="23" y="14" width="1" height="1" fill="#feb767"/>
<rect x="24" y="14" width="1" height="1" fill="#ef6e02" fill-opacity="0.969"/>
<rect x="25" y="14" width="1" height="1" fill="#e47300" fill-opacity="0.035"/>
<rect x="1" y="15" width="1" height="1" fill="#d35c00" fill-opacity="0.067"/>
<rect x="2" y="15" width="1" height="1" fill="#d66508" fill-opacity="0.969"/>
<rect x="3" y="15" width="1" height="1" fill="#fdf8f5"/>
<rect x="4" y="15" width="1" height="1" fill="#ffe4cd"/>
<rect x="5" y="15" width="1" height="1" fill="#fed2a8"/>
<rect x="6" y="15" width="1" height="1" fill="#ca5e05"/>
<rect x="7" y="15" width="1" height="1" fill="#fdc008"/>
<rect x="8" y="15" width="1" height="1" fill="#ffc208"/>
<rect x="9" y="15" width="1" height="1" fill="#fdbf08"/>
<rect x="10" y="15" width="1" height="1" fill="#ca5b00"/>
<rect x="11" y="15" width="1" height="1" fill="#fe7a00"/>
<rect x="12" y="15" width="1" height="1" fill="#d76002"/>
<rect x="13" y="15" width="1" height="1" fill="#fea53d"/>
<rect x="14" y="15" width="1" height="1" fill="#e36d02"/>
<rect x="15" y="15" width="1" height="1" fill="#fe941a"/>
<rect x="16" y="15" width="1" height="1" fill="#fe941a"/>
<rect x="17" y="15" width="1" height="1" fill="#dc6602"/>
<rect x="18" y="15" width="1" height="1" fill="#fe8b02"/>
<rect x="19" y="15" width="1" height="1" fill="#d76002"/>
<rect x="20" y="15" width="1" height="1" fill="#ffb765"/>
<rect x="21" y="15" width="1" height="1" fill="#ffb969"/>
<rect x="22" y="15" width="1" height="1" fill="#feb664"/>
<rect x="23" y="15" width="1" height="1" fill="#ef7005" fill-opacity="0.969"/>
<rect x="24" y="15" width="1" height="1" fill="#f06b00" fill-opacity="0.067"/>
<rect x="0" y="16" width="1" height="1" fill="#e26b00" fill-opacity="0.067"/>
<rect x="1" y="16" width="1" height="1" fill="#e16805" fill-opacity="0.969"/>
<rect x="2" y="16" width="1" height="1" fill="#fde3d1"/>
<rect x="3" y="16" width="1" height="1" fill="#ffdfc3"/>
<rect x="4" y="16" width="1" height="1" fill="#ffd5ac"/>
<rect x="5" y="16" width="1" height="1" fill="#ffcd97"/>
<rect x="6" y="16" width="1" height="1" fill="#fdbb6e"/>
<rect x="7" y="16" width="1" height="1" fill="#ca5c02"/>
<rect x="8" y="16" width="1" height="1" fill="#fda300"/>
<rect x="9" y="16" width="1" height="1" fill="#fda300"/>
<rect x="10" y="16" width="1" height="1" fill="#ca5a00"/>
<rect x="11" y="16" width="1" height="1" fill="#fd7a00"/>
<rect x="12" y="16" width="1" height="1" fill="#d85f00"/>
<rect x="13" y="16" width="1" height="1" fill="#fe900e"/>
<rect x="14" y="16" width="1" height="1" fill="#fe9419"/>
<rect x="15" y="16" width="1" height="1" fill="#d86002"/>
<rect x="16" y="16" width="1" height="1" fill="#d86002"/>
<rect x="17" y="16" width="1" height="1" fill="#fe9418"/>
<rect x="18" y="16" width="1" height="1" fill="#fd8c04"/>
<rect x="19" y="16" width="1" height="1" fill="#d35f02"/>
<rect x="20" y="16" width="1" height="1" fill="#feb665"/>
<rect x="21" y="16" width="1" height="1" fill="#feb561"/>
<rect x="22" y="16" width="1" height="1" fill="#ef6f04" fill-opacity="0.984"/>
<rect x="23" y="16" width="1" height="1" fill="#ec6e00" fill-opacity="0.102"/>
<rect x="24" y="16" width="1" height="1" fill="#ff0000" fill-opacity="0.004"/>
<rect x="0" y="17" width="1" height="1" fill="#e06400" fill-opacity="0.969"/>
<rect x="1" y="17" width="1" height="1" fill="#e06502"/>
<rect x="2" y="17" width="1" height="1" fill="#e16705"/>
<rect x="3" y="17" width="1" height="1" fill="#e16705"/>
<rect x="4" y="17" width="1" height="1" fill="#e16705"/>
<rect x="5" y="17" width="1" height="1" fill="#e16705"/>
<rect x="6" y="17" width="1" height="1" fill="#e16704"/>
<rect x="7" y="17" width="1" height="1" fill="#e06502"/>
<rect x="8" y="17" width="1" height="1" fill="#c85902"/>
<rect x="9" y="17" width="1" height="1" fill="#c85902"/>
<rect x="10" y="17" width="1" height="1" fill="#c65802"/>
<rect x="11" y="17" width="1" height="1" fill="#e16500"/>
<rect x="12" y="17" width="1" height="1" fill="#ee6c00"/>
<rect x="13" y="17" width="1" height="1" fill="#d86000"/>
<rect x="14" y="17" width="1" height="1" fill="#fe8a00"/>
<rect x="15" y="17" width="1" height="1" fill="#fe8900"/>
<rect x="16" y="17" width="1" height="1" fill="#fe8800"/>
<rect x="17" y="17" width="1" height="1" fill="#fe8800"/>
<rect x="18" y="17" width="1" height="1" fill="#cc5b00"/>
<rect x="19" y="17" width="1" height="1" fill="#ea6b00"/>
<rect x="20" y="17" width="1" height="1" fill="#ea6c02"/>
<rect x="21" y="17" width="1" height="1" fill="#ea6b02"/>
<rect x="22" y="17" width="1" height="1" fill="#e46700"/>
<rect x="23" y="17" width="1" height="1" fill="#ef6d00" fill-opacity="0.969"/>
<rect x="24" y="17" width="1" height="1" fill="#e47300" fill-opacity="0.035"/>
<rect x="0" y="18" width="1" height="1" fill="#d75f02" fill-opacity="0.984"/>
<rect x="1" y="18" width="1" height="1" fill="#fdae55"/>
<rect x="2" y="18" width="1" height="1" fill="#feaf56"/>
<rect x="3" y="18" width="1" height="1" fill="#feaf56"/>
<rect x="4" y="18" width="1" height="1" fill="#feaf56"/>
<rect x="5" y="18" width="1" height="1" fill="#feaf56"/>
<rect x="6" y="18" width="1" height="1" fill="#feaf56"/>
<rect x="7" y="18" width="1" height="1" fill="#fead51"/>
<rect x="8" y="18" width="1" height="1" fill="#fda541"/>
<rect x="9" y="18" width="1" height="1" fill="#fda53e"/>
<rect x="10" y="18" width="1" height="1" fill="#fda137"/>
<rect x="11" y="18" width="1" height="1" fill="#fe941b"/>
<rect x="12" y="18" width="1" height="1" fill="#fe951a"/>
<rect x="13" y="18" width="1" height="1" fill="#fd931a"/>
<rect x="14" y="18" width="1" height="1" fill="#d75f00" fill-opacity="0.984"/>
<rect x="15" y="18" width="1" height="1" fill="#d75e00" fill-opacity="0.984"/>
<rect x="16" y="18" width="1" height="1" fill="#d75e00" fill-opacity="0.984"/>
<rect x="17" y="18" width="1" height="1" fill="#d75f00" fill-opacity="0.984"/>
<rect x="18" y="18" width="1" height="1" fill="#fd8100"/>
<rect x="19" y="18" width="1" height="1" fill="#fe8200"/>
<rect x="20" y="18" width="1" height="1" fill="#fe8200"/>
<rect x="21" y="18" width="1" height="1" fill="#fe8200"/>
<rect x="22" y="18" width="1" height="1" fill="#fe8200"/>
<rect x="23" y="18" width="1" height="1" fill="#ef6d00" fill-opacity="0.984"/>
<rect x="24" y="18" width="1" height="1" fill="#e47300" fill-opacity="0.035"/>
<rect x="0" y="19" width="1" height="1" fill="#d65e00" fill-opacity="0.965"/>
<rect x="1" y="19" width="1" height="1" fill="#d75f02" fill-opacity="0.984"/>
<rect x="2" y="19" width="1" height="1" fill="#d75f02" fill-opacity="0.984"/>
<rect x="3" y="19" width="1" height="1" fill="#d75f02" fill-opacity="0.984"/>
<rect x="4" y="19" width="1" height="1" fill="#d75f02" fill-opacity="0.984"/>
<rect x="5" y="19" width="1" height="1" fill="#d75f02" fill-opacity="0.984"/>
<rect x="6" y="19" width="1" height="1" fill="#d75f02" fill-opacity="0.984"/>
<rect x="7" y="19" width="1" height="1" fill="#d75f02" fill-opacity="0.984"/>
<rect x="8" y="19" width="1" height="1" fill="#d66002" fill-opacity="0.988"/>
<rect x="9" y="19" width="1" height="1" fill="#d75f02" fill-opacity="0.984"/>
<rect x="10" y="19" width="1" height="1" fill="#d75f02" fill-opacity="0.984"/>
<rect x="11" y="19" width="1" height="1" fill="#d75f00" fill-opacity="0.984"/>
<rect x="12" y="19" width="1" height="1" fill="#d75f00" fill-opacity="0.984"/>
<rect x="13" y="19" width="1" height="1" fill="#d65f00" fill-opacity="0.969"/>
<rect x="14" y="19" width="1" height="1" fill="#d35c00" fill-opacity="0.067"/>
<rect x="15" y="19" width="1" height="1" fill="#c85700" fill-opacity="0.035"/>
<rect x="16" y="19" width="1" height="1" fill="#c85700" fill-opacity="0.035"/>
<rect x="17" y="19" width="1" height="1" fill="#d35c00" fill-opacity="0.067"/>
<rect x="18" y="19" width="1" height="1" fill="#d65e00" fill-opacity="0.969"/>
<rect x="19" y="19" width="1" height="1" fill="#d75e00" fill-opacity="0.984"/>
<rect x="20" y="19" width="1" height="1" fill="#d75e00" fill-opacity="0.984"/>
<rect x="21" y="19" width="1" height="1" fill="#d75e00" fill-opacity="0.984"/>
<rect x="22" y="19" width="1" height="1" fill="#d75e00" fill-opacity="0.984"/>
<rect x="23" y="19" width="1" height="1" fill="#d75e00" fill-opacity="0.965"/>
<rect x="24" y="19" width="1" height="1" fill="#c85700" fill-opacity="0.035"/>
<rect x="0" y="20" width="1" height="1" fill="#c85700" fill-opacity="0.035"/>
<rect x="1" y="20" width="1" height="1" fill="#c85700" fill-opacity="0.035"/>
<rect x="2" y="20" width="1" height="1" fill="#c85700" fill-opacity="0.035"/>
<rect x="3" y="20" width="1" height="1" fill="#c85700" fill-opacity="0.035"/>
<rect x="4" y="20" width="1" height="1" fill="#98a600" fill-opacity="0.067"/>
<rect x="5" y="20" width="1" height="1" fill="#c85700" fill-opacity="0.035"/>
<rect x="6" y="20" width="1" height="1" fill="#c85700" fill-opacity="0.035"/>
<rect x="7" y="20" width="1" height="1" fill="#bb7600" fill-opacity="0.043"/>
<rect x="8" y="20" width="1" height="1" fill="#cfec00" fill-opacity="0.275"/>
<rect x="9" y="20" width="1" height="1" fill="#bb7600" fill-opacity="0.043"/>
<rect x="10" y="20" width="1" height="1" fill="#c85700" fill-opacity="0.035"/>
<rect x="11" y="20" width="1" height="1" fill="#c85700" fill-opacity="0.035"/>
<rect x="12" y="20" width="1" height="1" fill="#c85700" fill-opacity="0.035"/>
<rect x="13" y="20" width="1" height="1" fill="#c85700" fill-opacity="0.035"/>
<rect x="17" y="20" width="1" height="1" fill="#1e9000" fill-opacity="0.035"/>
<rect x="18" y="20" width="1" height="1" fill="#738200" fill-opacity="0.071"/>
<rect x="19" y="20" width="1" height="1" fill="#738200" fill-opacity="0.071"/>
<rect x="20" y="20" width="1" height="1" fill="#737400" fill-opacity="0.071"/>
<rect x="21" y="20" width="1" height="1" fill="#737400" fill-opacity="0.071"/>
<rect x="22" y="20" width="1" height="1" fill="#c85700" fill-opacity="0.035"/>
<rect x="23" y="20" width="1" height="1" fill="#c85700" fill-opacity="0.035"/>
</svg>