<?xml version="1.0" encoding="UTF-8" standalone="no"?>
<svg xmlns="http://www.w3.org/2000/svg" width="26" height="21" shape-rendering="crispEdges">
<rect x="2" y="0" width="1" height="1" fill="#f39a00" fill-opacity="0.035"/>
<rect x="3" y="0" width="1" height="1" fill="#f39a00" fill-opacity="0.035"/>
<rect x="4" y="0" width="1" height="1" fill="#d59a00" fill-opacity="0.035"/>
<rect x="10" y="0" width="1" height="1" fill="#efab00" fill-opacity="0.031"/>
<rect x="11" y="0" width="1" height="1" fill="#cc8e00" fill-opacity="0.949"/>
<rect x="12" y="0" width="1" height="1" fill="#cd8f00" fill-opacity="0.984"/>
<rect x="13" y="0" width="1" height="1" fill="#cd9002" fill-opacity="0.984"/>
<rect x="14" y="0" width="1" height="1" fill="#cd9002" fill-opacity="0.984"/>
<rect x="15" y="0" width="1" height="1" fill="#cd8f02" fill-opacity="0.984"/>
<rect x="16" y="0" width="1" height="1" fill="#cd8f02" fill-opacity="0.969"/>
<rect x="17" y="0" width="1" height="1" fill="#d19300" fill-opacity="0.067"/>
<rect x="18" y="0" width="1" height="1" fill="#000000" fill-opacity="0.004"/>
<rect x="19" y="0" width="1" height="1" fill="#b77b00" fill-opacity="0.035"/>
<rect x="20" y="0" width="1" height="1" fill="#b77b00" fill-opacity="0.035"/>
<rect x="25" y="0" width="1" height="1" fill="#b6fff3" fill-opacity="0.02"/>
<rect x="1" y="1" width="1" height="1" fill="#f1a200" fill-opacity="0.067"/>
<rect x="2" y="1" width="1" height="1" fill="#f0a700" fill-opacity="0.969"/>
<rect x="3" y="1" width="1" height="1" fill="#efa600" fill-opacity="0.984"/>
<rect x="4" y="1" width="1" height="1" fill="#d29300" fill-opacity="0.949"/>
<rect x="5" y="1" width="1" height="1" fill="#efab00" fill-opacity="0.031"/>
<rect x="9" y="1" width="1" height="1" fill="#b77b00" fill-opacity="0.035"/>
<rect x="10" y="1" width="1" height="1" fill="#d59a00" fill-opacity="0.035"/>
<rect x="11" y="1" width="1" height="1" fill="#e79e00" fill-opacity="0.102"/>
<rect x="12" y="1" width="1" height="1" fill="#ffc302" fill-opacity="0.984"/>
<rect x="13" y="1" width="1" height="1" fill="#ffeea2"/>
<rect x="14" y="1" width="1" height="1" fill="#ffeb9a"/>
<rect x="15" y="1" width="1" height="1" fill="#ffe479"/>
<rect x="16" y="1" width="1" height="1" fill="#ffd546"/>
<rect x="17" y="1" width="1" height="1" fill="#ce9002" fill-opacity="0.969"/>
<rect x="18" y="1" width="1" height="1" fill="#c98b00" fill-opacity="0.102"/>
<rect x="19" y="1" width="1" height="1" fill="#cd8e00" fill-opacity="0.969"/>
<rect x="20" y="1" width="1" height="1" fill="#cd8f02" fill-opacity="0.969"/>
<rect x="21" y="1" width="1" height="1" fill="#d19300" fill-opacity="0.067"/>
<rect x="0" y="2" width="1" height="1" fill="#e2a200" fill-opacity="0.067"/>
<rect x="1" y="2" width="1" height="1" fill="#e49d00" fill-opacity="0.969"/>
<rect x="2" y="2" width="1" height="1" fill="#f4aa00"/>
<rect x="3" y="2" width="1" height="1" fill="#d29000" fill-opacity="0.969"/>
<rect x="4" y="2" width="1" height="1" fill="#d19300" fill-opacity="0.067"/>
<rect x="7" y="2" width="1" height="1" fill="#b77b00" fill-opacity="0.035"/>
<rect x="8" y="2" width="1" height="1" fill="#d19300" fill-opacity="0.067"/>
<rect x="9" y="2" width="1" height="1" fill="#cc8f05" fill-opacity="0.969"/>
<rect x="10" y="2" width="1" height="1" fill="#cd9004" fill-opacity="0.984"/>
<rect x="11" y="2" width="1" height="1" fill="#ce9104" fill-opacity="0.984"/>
<rect x="12" y="2" width="1" height="1" fill="#ffc307"/>
<rect x="13" y="2" width="1" height="1" fill="#fcfbd7"/>
<rect x="14" y="2" width="1" height="1" fill="#fbfddc"/>
<rect x="15" y="2" width="1" height="1" fill="#fbfcdc"/>
<rect x="16" y="2" width="1" height="1" fill="#ffeb9a"/>
<rect x="17" y="2" width="1" height="1" fill="#ffdc61"/>
<rect x="18" y="2" width="1" height="1" fill="#ce9104" fill-opacity="0.984"/>
<rect x="19" y="2" width="1" height="1" fill="#ffbd02"/>
<rect x="20" y="2" width="1" height="1" fill="#ffe794"/>
<rect x="21" y="2" width="1" height="1" fill="#ce9005" fill-opacity="0.969"/>
<rect x="22" y="2" width="1" height="1" fill="#d19300" fill-opacity="0.067"/>
<rect x="0" y="3" width="1" height="1" fill="#df9b00" fill-opacity="0.969"/>
<rect x="1" y="3" width="1" height="1" fill="#fbad00"/>
<rect x="2" y="3" width="1" height="1" fill="#cf9000" fill-opacity="0.984"/>
<rect x="3" y="3" width="1" height="1" fill="#d19300" fill-opacity="0.067"/>
<rect x="6" y="3" width="1" height="1" fill="#d19300" fill-opacity="0.067"/>
<rect x="7" y="3" width="1" height="1" fill="#cc8f05" fill-opacity="0.969"/>
<rect x="8" y="3" width="1" height="1" fill="#ce9308" fill-opacity="0.984"/>
<rect x="9" y="3" width="1" height="1" fill="#fafad7"/>
<rect x="10" y="3" width="1" height="1" fill="#fbfbdb"/>
<rect x="11" y="3" width="1" height="1" fill="#fbfbda"/>
<rect x="12" y="3" width="1" height="1" fill="#fdf4c2"/>
<rect x="13" y="3" width="1" height="1" fill="#ffcb0c"/>
<rect x="14" y="3" width="1" height="1" fill="#fbfcdb"/>
<rect x="15" y="3" width="1" height="1" fill="#fbfddd"/>
<rect x="16" y="3" width="1" height="1" fill="#fbfcdc"/>
<rect x="17" y="3" width="1" height="1" fill="#ffed9a"/>
<rect x="18" y="3" width="1" height="1" fill="#ffe47a"/>
<rect x="19" y="3" width="1" height="1" fill="#ffbb05"/>
<rect x="20" y="3" width="1" height="1" fill="#fbfbd8"/>
<rect x="21" y="3" width="1" height="1" fill="#ffdf70"/>
<rect x="22" y="3" width="1" height="1" fill="#cd8f02" fill-opacity="0.969"/>
<rect x="23" y="3" width="1" height="1" fill="#d59a00" fill-opacity="0.035"/>
<rect x="25" y="3" width="1" height="1" fill="#3be400" fill-opacity="0.035"/>
<rect x="0" y="4" width="1" height="1" fill="#fbae00" fill-opacity="0.984"/>
<rect x="1" y="4" width="1" height="1" fill="#fbae00"/>
<rect x="2" y="4" width="1" height="1" fill="#c58a00" fill-opacity="0.984"/>
<rect x="3" y="4" width="1" height="1" fill="#b77b00" fill-opacity="0.035"/>
<rect x="5" y="4" width="1" height="1" fill="#c19300" fill-opacity="0.067"/>
<rect x="6" y="4" width="1" height="1" fill="#ce9105" fill-opacity="0.969"/>
<rect x="7" y="4" width="1" height="1" fill="#fbfad6"/>
<rect x="8" y="4" width="1" height="1" fill="#fbfbda"/>
<rect x="9" y="4" width="1" height="1" fill="#fbfddd"/>
<rect x="10" y="4" width="1" height="1" fill="#fbfddd"/>
<rect x="11" y="4" width="1" height="1" fill="#fbfddd"/>
<rect x="12" y="4" width="1" height="1" fill="#fdf6c4"/>
<rect x="13" y="4" width="1" height="1" fill="#ffca08"/>
<rect x="14" y="4" width="1" height="1" fill="#fbfcdb"/>
<rect x="15" y="4" width="1" height="1" fill="#fbfddd"/>
<rect x="16" y="4" width="1" height="1" fill="#fbfddd"/>
<rect x="17" y="4" width="1" height="1" fill="#fbfcdc"/>
<rect x="18" y="4" width="1" height="1" fill="#ffea90"/>
<rect x="19" y="4" width="1" height="1" fill="#ffc307"/>
<rect x="20" y="4" width="1" height="1" fill="#fbfcda"/>
<rect x="21" y="4" width="1" height="1" fill="#ffee9c"/>
<rect x="22" y="4" width="1" height="1" fill="#ce9104" fill-opacity="0.984"/>
<rect x="23" y="4" width="1" height="1" fill="#d19300" fill-opacity="0.067"/>
<rect x="25" y="4" width="1" height="1" fill="#57ff00" fill-opacity="0.035"/>
<rect x="0" y="5" width="1" height="1" fill="#fbae00" fill-opacity="0.984"/>
<rect x="1" y="5" width="1" height="1" fill="#fbae00"/>
<rect x="2" y="5" width="1" height="1" fill="#c58a00" fill-opacity="0.984"/>
<rect x="3" y="5" width="1" height="1" fill="#b77b00" fill-opacity="0.035"/>
<rect x="4" y="5" width="1" height="1" fill="#b77b00" fill-opacity="0.035"/>
<rect x="5" y="5" width="1" height="1" fill="#b88000" fill-opacity="0.969"/>
<rect x="6" y="5" width="1" height="1" fill="#ffcf2e"/>
<rect x="7" y="5" width="1" height="1" fill="#ffe57f"/>
<rect x="8" y="5" width="1" height="1" fill="#ffee9b"/>
<rect x="9" y="5" width="1" height="1" fill="#fdf6c5"/>
<rect x="10" y="5" width="1" height="1" fill="#fbfddc"/>
<rect x="11" y="5" width="1" height="1" fill="#fbfddc"/>
<rect x="12" y="5" width="1" height="1" fill="#fdf6c4"/>
<rect x="13" y="5" width="1" height="1" fill="#ffca08"/>
<rect x="14" y="5" width="1" height="1" fill="#fbfcdb"/>
<rect x="15" y="5" width="1" height="1" fill="#fbfddd"/>
<rect x="16" y="5" width="1" height="1" fill="#fbfddd"/>
<rect x="17" y="5" width="1" height="1" fill="#fbfddc"/>
<rect x="18" y="5" width="1" height="1" fill="#ffe271"/>
<rect x="19" y="5" width="1" height="1" fill="#ffc408"/>
<rect x="20" y="5" width="1" height="1" fill="#fbfcda"/>
<rect x="21" y="5" width="1" height="1" fill="#fff2aa"/>
<rect x="22" y="5" width="1" height="1" fill="#ffd842"/>
<rect x="23" y="5" width="1" height="1" fill="#cd8f02" fill-opacity="0.969"/>
<rect x="24" y="5" width="1" height="1" fill="#d59a00" fill-opacity="0.035"/>
<rect x="25" y="5" width="1" height="1" fill="#57ff00" fill-opacity="0.035"/>
<rect x="0" y="6" width="1" height="1" fill="#fbae00" fill-opacity="0.969"/>
<rect x="1" y="6" width="1" height="1" fill="#fbad00"/>
<rect x="2" y="6" width="1" height="1" fill="#ca8d00" fill-opacity="0.984"/>
<rect x="3" y="6" width="1" height="1" fill="#d19300" fill-opacity="0.067"/>
<rect x="4" y="6" width="1" height="1" fill="#c08b00" fill-opacity="0.039"/>
<rect x="5" y="6" width="1" height="1" fill="#b77f00" fill-opacity="0.984"/>
<rect x="6" y="6" width="1" height="1" fill="#d09102" fill-opacity="0.984"/>
<rect x="7" y="6" width="1" height="1" fill="#d19102" fill-opacity="0.984"/>
<rect x="8" y="6" width="1" height="1" fill="#ffd12f"/>
<rect x="9" y="6" width="1" height="1" fill="#ffdb5c"/>
<rect x="10" y="6" width="1" height="1" fill="#ffeda3"/>
<rect x="11" y="6" width="1" height="1" fill="#ffeda5"/>
<rect x="12" y="6" width="1" height="1" fill="#fef5c1"/>
<rect x="13" y="6" width="1" height="1" fill="#ffca0a"/>
<rect x="14" y="6" width="1" height="1" fill="#fbfcdb"/>
<rect x="15" y="6" width="1" height="1" fill="#fbfddd"/>
<rect x="16" y="6" width="1" height="1" fill="#fbfddd"/>
<rect x="17" y="6" width="1" height="1" fill="#fbfcdb"/>
<rect x="18" y="6" width="1" height="1" fill="#ffd227"/>
<rect x="19" y="6" width="1" height="1" fill="#fff0ae"/>
<rect x="20" y="6" width="1" height="1" fill="#fbfddc"/>
<rect x="21" y="6" width="1" height="1" fill="#fff2aa"/>
<rect x="22" y="6" width="1" height="1" fill="#ffd639"/>
<rect x="23" y="6" width="1" height="1" fill="#cd8f02" fill-opacity="0.984"/>
<rect x="24" y="6" width="1" height="1" fill="#d59a00" fill-opacity="0.035"/>
<rect x="25" y="6" width="1" height="1" fill="#57ff00" fill-opacity="0.035"/>
<rect x="0" y="7" width="1" height="1" fill="#e2a200" fill-opacity="0.067"/>
<rect x="1" y="7" width="1" height="1" fill="#d89500" fill-opacity="0.969"/>
<rect x="2" y="7" width="1" height="1" fill="#f1a700"/>
<rect x="3" y="7" width="1" height="1" fill="#c98a00" fill-opacity="0.969"/>
<rect x="4" y="7" width="1" height="1" fill="#ebbb38" fill-opacity="0.227"/>
<rect x="5" y="7" width="1" height="1" fill="#b77f00" fill-opacity="0.953"/>
<rect x="6" y="7" width="1" height="1" fill="#c18200" fill-opacity="0.067"/>
<rect x="7" y="7" width="1" height="1" fill="#d19300" fill-opacity="0.067"/>
<rect x="8" y="7" width="1" height="1" fill="#cd8f00" fill-opacity="0.969"/>
<rect x="9" y="7" width="1" height="1" fill="#cd9004"/>
<rect x="10" y="7" width="1" height="1" fill="#ffe37f"/>
<rect x="11" y="7" width="1" height="1" fill="#fff0a8"/>
<rect x="12" y="7" width="1" height="1" fill="#ffd022"/>
<rect x="13" y="7" width="1" height="1" fill="#fef3b4"/>
<rect x="14" y="7" width="1" height="1" fill="#fbfddd"/>
<rect x="15" y="7" width="1" height="1" fill="#fbfddd"/>
<rect x="16" y="7" width="1" height="1" fill="#fbfddd"/>
<rect x="17" y="7" width="1" height="1" fill="#fbfcdb"/>
<rect x="18" y="7" width="1" height="1" fill="#ffdd61"/>
<rect x="19" y="7" width="1" height="1" fill="#fbfddb"/>
<rect x="20" y="7" width="1" height="1" fill="#fcfbcf"/>
<rect x="21" y="7" width="1" height="1" fill="#fff0a2"/>
<rect x="22" y="7" width="1" height="1" fill="#ffd533"/>
<rect x="23" y="7" width="1" height="1" fill="#cd8f02" fill-opacity="0.984"/>
<rect x="24" y="7" width="1" height="1" fill="#d59a00" fill-opacity="0.035"/>
<rect x="1" y="8" width="1" height="1" fill="#c18200" fill-opacity="0.067"/>
<rect x="2" y="8" width="1" height="1" fill="#c58a00" fill-opacity="0.969"/>
<rect x="3" y="8" width="1" height="1" fill="#c58900" fill-opacity="0.984"/>
<rect x="4" y="8" width="1" height="1" fill="#c58900" fill-opacity="0.953"/>
<rect x="5" y="8" width="1" height="1" fill="#b28200" fill-opacity="0.067"/>
<rect x="8" y="8" width="1" height="1" fill="#b28200" fill-opacity="0.067"/>
<rect x="9" y="8" width="1" height="1" fill="#a87400" fill-opacity="0.984"/>
<rect x="10" y="8" width="1" height="1" fill="#cd9005"/>
<rect x="11" y="8" width="1" height="1" fill="#ffe37f"/>
<rect x="12" y="8" width="1" height="1" fill="#ffd630"/>
<rect x="13" y="8" width="1" height="1" fill="#fff0ab"/>
<rect x="14" y="8" width="1" height="1" fill="#fbfddc"/>
<rect x="15" y="8" width="1" height="1" fill="#fbfddd"/>
<rect x="16" y="8" width="1" height="1" fill="#fbfddc"/>
<rect x="17" y="8" width="1" height="1" fill="#ffe68c"/>
<rect x="18" y="8" width="1" height="1" fill="#fbfcdb"/>
<rect x="19" y="8" width="1" height="1" fill="#fbfddc"/>
<rect x="20" y="8" width="1" height="1" fill="#fdf4c2"/>
<rect x="21" y="8" width="1" height="1" fill="#ffea99"/>
<rect x="22" y="8" width="1" height="1" fill="#ffd331"/>
<rect x="23" y="8" width="1" height="1" fill="#cd8f02" fill-opacity="0.984"/>
<rect x="24" y="8" width="1" height="1" fill="#d59a00" fill-opacity="0.035"/>
<rect x="2" y="9" width="1" height="1" fill="#b77b00" fill-opacity="0.035"/>
<rect x="3" y="9" width="1" height="1" fill="#b77b00" fill-opacity="0.035"/>
<rect x="4" y="9" width="1" height="1" fill="#b77b00" fill-opacity="0.035"/>
<rect x="8" y="9" width="1" height="1" fill="#9a7b00" fill-opacity="0.035"/>
<rect x="9" y="9" width="1" height="1" fill="#a87300" fill-opacity="0.984"/>
<rect x="10" y="9" width="1" height="1" fill="#d69500"/>
<rect x="11" y="9" width="1" height="1" fill="#ce9105"/>
<rect x="12" y="9" width="1" height="1" fill="#ffefa7"/>
<rect x="13" y="9" width="1" height="1" fill="#fcfbd2"/>
<rect x="14" y="9" width="1" height="1" fill="#fbfddd"/>
<rect x="15" y="9" width="1" height="1" fill="#fbfddd"/>
<rect x="16" y="9" width="1" height="1" fill="#fbfddd"/>
<rect x="17" y="9" width="1" height="1" fill="#fbfddc"/>
<rect x="18" y="9" width="1" height="1" fill="#fbfddc"/>
<rect x="19" y="9" width="1" height="1" fill="#fdf4c2"/>
<rect x="20" y="9" width="1" height="1" fill="#fff1ab"/>
<rect x="21" y="9" width="1" height="1" fill="#ffea98"/>
<rect x="22" y="9" width="1" height="1" fill="#ffd331"/>
<rect x="23" y="9" width="1" height="1" fill="#cd8f02" fill-opacity="0.984"/>
<rect x="24" y="9" width="1" height="1" fill="#d19300" fill-opacity="0.067"/>
<rect x="4" y="10" width="1" height="1" fill="#b77b00" fill-opacity="0.035"/>
<rect x="5" y="10" width="1" height="1" fill="#d59a00" fill-opacity="0.035"/>
<rect x="6" y="10" width="1" height="1" fill="#b77b00" fill-opacity="0.035"/>
<rect x="7" y="10" width="1" height="1" fill="#000000" fill-opacity="0.004"/>
<rect x="8" y="10" width="1" height="1" fill="#c18200" fill-opacity="0.067"/>
<rect x="9" y="10" width="1" height="1" fill="#bb8100" fill-opacity="0.984"/>
<rect x="10" y="10" width="1" height="1" fill="#e49c00"/>
<rect x="11" y="10" width="1" height="1" fill="#cd9002"/>
<rect x="12" y="10" width="1" height="1" fill="#ffeba5"/>
<rect x="13" y="10" width="1" height="1" fill="#fbfbd7"/>
<rect x="14" y="10" width="1" height="1" fill="#fbf8d5"/>
<rect x="15" y="10" width="1" height="1" fill="#fef2b4"/>
<rect x="16" y="10" width="1" height="1" fill="#fef0b3"/>
<rect x="17" y="10" width="1" height="1" fill="#fef2b3"/>
<rect x="18" y="10" width="1" height="1" fill="#ffefa9"/>
<rect x="19" y="10" width="1" height="1" fill="#fff0ad"/>
<rect x="20" y="10" width="1" height="1" fill="#ffe893"/>
<rect x="21" y="10" width="1" height="1" fill="#ffe485"/>
<rect x="22" y="10" width="1" height="1" fill="#ffd945"/>
<rect x="23" y="10" width="1" height="1" fill="#cd9104"/>
<rect x="24" y="10" width="1" height="1" fill="#cc8e00" fill-opacity="0.969"/>
<rect x="25" y="10" width="1" height="1" fill="#d59a00" fill-opacity="0.035"/>
<rect x="3" y="11" width="1" height="1" fill="#d59a00" fill-opacity="0.035"/>
<rect x="4" y="11" width="1" height="1" fill="#cc8e00" fill-opacity="0.965"/>
<rect x="5" y="11" width="1" height="1" fill="#cd9000" fill-opacity="0.984"/>
<rect x="6" y="11" width="1" height="1" fill="#cd9000" fill-opacity="0.969"/>
<rect x="7" y="11" width="1" height="1" fill="#bf8b00" fill-opacity="0.102"/>
<rect x="8" y="11" width="1" height="1" fill="#b87f00" fill-opacity="0.969"/>
<rect x="9" y="11" width="1" height="1" fill="#e49c00"/>
<rect x="10" y="11" width="1" height="1" fill="#e49d00"/>
<rect x="11" y="11" width="1" height="1" fill="#cd9002"/>
<rect x="12" y="11" width="1" height="1" fill="#ffeba3"/>
<rect x="13" y="11" width="1" height="1" fill="#ffe58e"/>
<rect x="14" y="11" width="1" height="1" fill="#ba8208"/>
<rect x="15" y="11" width="1" height="1" fill="#b88004"/>
<rect x="16" y="11" width="1" height="1" fill="#b78004"/>
<rect x="17" y="11" width="1" height="1" fill="#b88205"/>
<rect x="18" y="11" width="1" height="1" fill="#ffe89c"/>
<rect x="19" y="11" width="1" height="1" fill="#ffe78e"/>
<rect x="20" y="11" width="1" height="1" fill="#ffe78f"/>
<rect x="21" y="11" width="1" height="1" fill="#ffe271"/>
<rect x="22" y="11" width="1" height="1" fill="#ffb808"/>
<rect x="23" y="11" width="1" height="1" fill="#fef0ab"/>
<rect x="24" y="11" width="1" height="1" fill="#cd9004" fill-opacity="0.984"/>
<rect x="25" y="11" width="1" height="1" fill="#d59a00" fill-opacity="0.035"/>
<rect x="3" y="12" width="1" height="1" fill="#d59a00" fill-opacity="0.035"/>
<rect x="4" y="12" width="1" height="1" fill="#cd9000" fill-opacity="0.984"/>
<rect x="5" y="12" width="1" height="1" fill="#fffe08"/>
<rect x="6" y="12" width="1" height="1" fill="#fffe08"/>
<rect x="7" y="12" width="1" height="1" fill="#bb8200" fill-opacity="0.984"/>
<rect x="8" y="12" width="1" height="1" fill="#eda500"/>
<rect x="9" y="12" width="1" height="1" fill="#fbad00"/>
<rect x="10" y="12" width="1" height="1" fill="#e49d00"/>
<rect x="11" y="12" width="1" height="1" fill="#ce9002"/>
<rect x="12" y="12" width="1" height="1" fill="#ffe490"/>
<rect x="13" y="12" width="1" height="1" fill="#bc8508"/>
<rect x="14" y="12" width="1" height="1" fill="#ffe26f"/>
<rect x="15" y="12" width="1" height="1" fill="#ffc805"/>
<rect x="16" y="12" width="1" height="1" fill="#ffc502"/>
<rect x="17" y="12" width="1" height="1" fill="#ffb500"/>
<rect x="18" y="12" width="1" height="1" fill="#b47e05"/>
<rect x="19" y="12" width="1" height="1" fill="#ffe487"/>
<rect x="20" y="12" width="1" height="1" fill="#ffdf69"/>
<rect x="21" y="12" width="1" height="1" fill="#ffcc0f"/>
<rect x="22" y="12" width="1" height="1" fill="#ffe98f"/>
<rect x="23" y="12" width="1" height="1" fill="#ffdc55"/>
<rect x="24" y="12" width="1" height="1" fill="#cd8f02" fill-opacity="0.984"/>
<rect x="25" y="12" width="1" height="1" fill="#d59a00" fill-opacity="0.035"/>
<rect x="3" y="13" width="1" height="1" fill="#d19300" fill-opacity="0.067"/>
<rect x="4" y="13" width="1" height="1" fill="#ce9104" fill-opacity="0.984"/>
<rect x="5" y="13" width="1" height="1" fill="#fffe08"/>
<rect x="6" y="13" width="1" height="1" fill="#ffff08"/>
<rect x="7" y="13" width="1" height="1" fill="#ffdd08"/>
<rect x="8" y="13" width="1" height="1" fill="#ab7900"/>
<rect x="9" y="13" width="1" height="1" fill="#faab00"/>
<rect x="10" y="13" width="1" height="1" fill="#fbae00"/>
<rect x="11" y="13" width="1" height="1" fill="#e8a200"/>
<rect x="12" y="13" width="1" height="1" fill="#b88105"/>
<rect x="13" y="13" width="1" height="1" fill="#ffe26f"/>
<rect x="14" y="13" width="1" height="1" fill="#ffc304"/>
<rect x="15" y="13" width="1" height="1" fill="#c18700"/>
<rect x="16" y="13" width="1" height="1" fill="#bd8500"/>
<rect x="17" y="13" width="1" height="1" fill="#ffbe00"/>
<rect x="18" y="13" width="1" height="1" fill="#ffb500"/>
<rect x="19" y="13" width="1" height="1" fill="#ba8104"/>
<rect x="20" y="13" width="1" height="1" fill="#ffdb52"/>
<rect x="21" y="13" width="1" height="1" fill="#ffe986"/>
<rect x="22" y="13" width="1" height="1" fill="#ffdd5d"/>
<rect x="23" y="13" width="1" height="1" fill="#ffdc53"/>
<rect x="24" y="13" width="1" height="1" fill="#cd8f02" fill-opacity="0.984"/>
<rect x="25" y="13" width="1" height="1" fill="#d59a00" fill-opacity="0.035"/>
<rect x="2" y="14" width="1" height="1" fill="#b28200" fill-opacity="0.067"/>
<rect x="3" y="14" width="1" height="1" fill="#b78108" fill-opacity="0.969"/>
<rect x="4" y="14" width="1" height="1" fill="#fae9c8"/>
<rect x="5" y="14" width="1" height="1" fill="#bf8705"/>
<rect x="6" y="14" width="1" height="1" fill="#ffdd08"/>
<rect x="7" y="14" width="1" height="1" fill="#ffde08"/>
<rect x="8" y="14" width="1" height="1" fill="#ffdc08"/>
<rect x="9" y="14" width="1" height="1" fill="#ad7800"/>
<rect x="10" y="14" width="1" height="1" fill="#e8a100"/>
<rect x="11" y="14" width="1" height="1" fill="#e8a200"/>
<rect x="12" y="14" width="1" height="1" fill="#b77f00"/>
<rect x="13" y="14" width="1" height="1" fill="#ffcd16"/>
<rect x="14" y="14" width="1" height="1" fill="#ca8e00"/>
<rect x="15" y="14" width="1" height="1" fill="#ffbe00"/>
<rect x="16" y="14" width="1" height="1" fill="#ffbe00"/>
<rect x="17" y="14" width="1" height="1" fill="#c08700"/>
<rect x="18" y="14" width="1" height="1" fill="#ffb500"/>
<rect x="19" y="14" width="1" height="1" fill="#b87f02"/>
<rect x="20" y="14" width="1" height="1" fill="#ffd945"/>
<rect x="21" y="14" width="1" height="1" fill="#ffdc51"/>
<rect x="22" y="14" width="1" height="1" fill="#ffdc50"/>
<rect x="23" y="14" width="1" height="1" fill="#ffd22a"/>
<rect x="24" y="14" width="1" height="1" fill="#cd8f00" fill-opacity="0.969"/>
<rect x="25" y="14" width="1" height="1" fill="#d59a00" fill-opacity="0.035"/>
<rect x="1" y="15" width="1" height="1" fill="#c18200" fill-opacity="0.067"/>
<rect x="2" y="15" width="1" height="1" fill="#b78107" fill-opacity="0.969"/>
<rect x="3" y="15" width="1" height="1" fill="#fbeaca"/>
<rect x="4" y="15" width="1" height="1" fill="#ffe79a"/>
<rect x="5" y="15" width="1" height="1" fill="#ffdc71"/>
<rect x="6" y="15" width="1" height="1" fill="#ad7a04"/>
<rect x="7" y="15" width="1" height="1" fill="#ffcd08"/>
<rect x="8" y="15" width="1" height="1" fill="#ffcf08"/>
<rect x="9" y="15" width="1" height="1" fill="#ffcc08"/>
<rect x="10" y="15" width="1" height="1" fill="#ad7800"/>
<rect x="11" y="15" width="1" height="1" fill="#e7a100"/>
<rect x="12" y="15" width="1" height="1" fill="#b77f00"/>
<rect x="13" y="15" width="1" height="1" fill="#ffc902"/>
<rect x="14" y="15" width="1" height="1" fill="#c48c00"/>
<rect x="15" y="15" width="1" height="1" fill="#ffbe00"/>
<rect x="16" y="15" width="1" height="1" fill="#ffbe00"/>
<rect x="17" y="15" width="1" height="1" fill="#bf8500"/>
<rect x="18" y="15" width="1" height="1" fill="#ffb500"/>
<rect x="19" y="15" width="1" height="1" fill="#b87f00"/>
<rect x="20" y="15" width="1" height="1" fill="#ffd128"/>
<rect x="21" y="15" width="1" height="1" fill="#ffd52a"/>
<rect x="22" y="15" width="1" height="1" fill="#ffd028"/>
<rect x="23" y="15" width="1" height="1" fill="#ce9002" fill-opacity="0.969"/>
<rect x="24" y="15" width="1" height="1" fill="#d19300" fill-opacity="0.067"/>
<rect x="0" y="16" width="1" height="1" fill="#c18200" fill-opacity="0.067"/>
<rect x="1" y="16" width="1" height="1" fill="#c08604" fill-opacity="0.969"/>
<rect x="2" y="16" width="1" height="1" fill="#fde4a3"/>
<rect x="3" y="16" width="1" height="1" fill="#ffe48f"/>
<rect x="4" y="16" width="1" height="1" fill="#ffdf75"/>
<rect x="5" y="16" width="1" height="1" fill="#ffdc5f"/>
<rect x="6" y="16" width="1" height="1" fill="#ffd134"/>
<rect x="7" y="16" width="1" height="1" fill="#ad7902"/>
<rect x="8" y="16" width="1" height="1" fill="#ffaf00"/>
<rect x="9" y="16" width="1" height="1" fill="#ffaf00"/>
<rect x="10" y="16" width="1" height="1" fill="#ab7500"/>
<rect x="11" y="16" width="1" height="1" fill="#e7a000"/>
<rect x="12" y="16" width="1" height="1" fill="#b77e00"/>
<rect x="13" y="16" width="1" height="1" fill="#ffbd00"/>
<rect x="14" y="16" width="1" height="1" fill="#ffbe00"/>
<rect x="15" y="16" width="1" height="1" fill="#ba8000"/>
<rect x="16" y="16" width="1" height="1" fill="#ba8000"/>
<rect x="17" y="16" width="1" height="1" fill="#ffbe00"/>
<rect x="18" y="16" width="1" height="1" fill="#ffb700"/>
<rect x="19" y="16" width="1" height="1" fill="#b37d00"/>
<rect x="20" y="16" width="1" height="1" fill="#ffd229"/>
<rect x="21" y="16" width="1" height="1" fill="#ffd125"/>
<rect x="22" y="16" width="1" height="1" fill="#ce9002" fill-opacity="0.984"/>
<rect x="23" y="16" width="1" height="1" fill="#c99500" fill-opacity="0.102"/>
<rect x="24" y="16" width="1" height="1" fill="#000000" fill-opacity="0.004"/>
<rect x="0" y="17" width="1" height="1" fill="#bd8200" fill-opacity="0.969"/>
<rect x="1" y="17" width="1" height="1" fill="#be8300"/>
<rect x="2" y="17" width="1" height="1" fill="#bf8604"/>
<rect x="3" y="17" width="1" height="1" fill="#bf8602"/>
<rect x="4" y="17" width="1" height="1" fill="#bf8602"/>
<rect x="5" y="17" width="1" height="1" fill="#bf8602"/>
<rect x="6" y="17" width="1" height="1" fill="#bf8502"/>
<rect x="7" y="17" width="1" height="1" fill="#bd8300"/>
<rect x="8" y="17" width="1" height="1" fill="#aa7500"/>
<rect x="9" y="17" width="1" height="1" fill="#a97500"/>
<rect x="10" y="17" width="1" height="1" fill="#a87400"/>
<rect x="11" y="17" width="1" height="1" fill="#bf8300"/>
<rect x="12" y="17" width="1" height="1" fill="#ca8c00"/>
<rect x="13" y="17" width="1" height="1" fill="#ba8000"/>
<rect x="14" y="17" width="1" height="1" fill="#ffb500"/>
<rect x="15" y="17" width="1" height="1" fill="#ffb300"/>
<rect x="16" y="17" width="1" height="1" fill="#ffb200"/>
<rect x="17" y="17" width="1" height="1" fill="#ffb300"/>
<rect x="18" y="17" width="1" height="1" fill="#af7900"/>
<rect x="19" y="17" width="1" height="1" fill="#c58900"/>
<rect x="20" y="17" width="1" height="1" fill="#c98b00"/>
<rect x="21" y="17" width="1" height="1" fill="#c88b00"/>
<rect x="22" y="17" width="1" height="1" fill="#c18700"/>
<rect x="23" y="17" width="1" height="1" fill="#cc8e00" fill-opacity="0.969"/>
<rect x="24" y="17" width="1" height="1" fill="#d59a00" fill-opacity="0.035"/>
<rect x="25" y="17" width="1" height="1" fill="#3bc800" fill-opacity="0.035"/>
<rect x="0" y="18" width="1" height="1" fill="#b57e00" fill-opacity="0.984"/>
<rect x="1" y="18" width="1" height="1" fill="#ffcb19"/>
<rect x="2" y="18" width="1" height="1" fill="#ffcd19"/>
<rect x="3" y="18" width="1" height="1" fill="#ffcd19"/>
<rect x="4" y="18" width="1" height="1" fill="#ffcd19"/>
<rect x="5" y="18" width="1" height="1" fill="#ffcd19"/>
<rect x="6" y="18" width="1" height="1" fill="#ffcd19"/>
<rect x="7" y="18" width="1" height="1" fill="#ffcc15"/>
<rect x="8" y="18" width="1" height="1" fill="#ffc904"/>
<rect x="9" y="18" width="1" height="1" fill="#ffc802"/>
<rect x="10" y="18" width="1" height="1" fill="#ffc300"/>
<rect x="11" y="18" width="1" height="1" fill="#ffbe00"/>
<rect x="12" y="18" width="1" height="1" fill="#ffbe00"/>
<rect x="13" y="18" width="1" height="1" fill="#ffbd00"/>
<rect x="14" y="18" width="1" height="1" fill="#b87f00" fill-opacity="0.984"/>
<rect x="15" y="18" width="1" height="1" fill="#b57e00" fill-opacity="0.984"/>
<rect x="16" y="18" width="1" height="1" fill="#b57e00" fill-opacity="0.984"/>
<rect x="17" y="18" width="1" height="1" fill="#b77f00" fill-opacity="0.984"/>
<rect x="18" y="18" width="1" height="1" fill="#f8ab00"/>
<rect x="19" y="18" width="1" height="1" fill="#faad00"/>
<rect x="20" y="18" width="1" height="1" fill="#faad00"/>
<rect x="21" y="18" width="1" height="1" fill="#faad00"/>
<rect x="22" y="18" width="1" height="1" fill="#f8ab00"/>
<rect x="23" y="18" width="1" height="1" fill="#cc8e00" fill-opacity="0.984"/>
<rect x="24" y="18" width="1" height="1" fill="#d59a00" fill-opacity="0.035"/>
<rect x="25" y="18" width="1" height="1" fill="#3bac00" fill-opacity="0.035"/>
<rect x="0" y="19" width="1" height="1" fill="#b57d00" fill-opacity="0.965"/>
<rect x="1" y="19" width="1" height="1" fill="#b57e00" fill-opacity="0.984"/>
<rect x="2" y="19" width="1" height="1" fill="#b57e00" fill-opacity="0.984"/>
<rect x="3" y="19" width="1" height="1" fill="#b57e00" fill-opacity="0.984"/>
<rect x="4" y="19" width="1" height="1" fill="#b57e00" fill-opacity="0.984"/>
<rect x="5" y="19" width="1" height="1" fill="#b57e00" fill-opacity="0.984"/>
<rect x="6" y="19" width="1" height="1" fill="#b57e00" fill-opacity="0.984"/>
<rect x="7" y="19" width="1" height="1" fill="#b57e00" fill-opacity="0.984"/>
<rect x="8" y="19" width="1" height="1" fill="#b57e00" fill-opacity="0.988"/>
<rect x="9" y="19" width="1" height="1" fill="#b57e00" fill-opacity="0.984"/>
<rect x="10" y="19" width="1" height="1" fill="#b57e00" fill-opacity="0.984"/>
<rect x="11" y="19" width="1" height="1" fill="#b57e00" fill-opacity="0.984"/>
<rect x="12" y="19" width="1" height="1" fill="#b57e00" fill-opacity="0.984"/>
<rect x="13" y="19" width="1" height="1" fill="#b57e00" fill-opacity="0.969"/>
<rect x="14" y="19" width="1" height="1" fill="#c18200" fill-opacity="0.067"/>
<rect x="15" y="19" width="1" height="1" fill="#b77b00" fill-opacity="0.035"/>
<rect x="16" y="19" width="1" height="1" fill="#b77b00" fill-opacity="0.035"/>
<rect x="17" y="19" width="1" height="1" fill="#c18200" fill-opacity="0.067"/>
<rect x="18" y="19" width="1" height="1" fill="#b57e00" fill-opacity="0.969"/>
<rect x="19" y="19" width="1" height="1" fill="#b57e00" fill-opacity="0.984"/>
<rect x="20" y="19" width="1" height="1" fill="#b57e00" fill-opacity="0.984"/>
<rect x="21" y="19" width="1" height="1" fill="#b57e00" fill-opacity="0.984"/>
<rect x="22" y="19" width="1" height="1" fill="#b57e00" fill-opacity="0.984"/>
<rect x="23" y="19" width="1" height="1" fill="#b57d00" fill-opacity="0.965"/>
<rect x="24" y="19" width="1" height="1" fill="#b77b00" fill-opacity="0.035"/>
<rect x="25" y="19" width="1" height="1" fill="#3bac00" fill-opacity="0.035"/>
<rect x="0" y="20" width="1" height="1" fill="#b77b00" fill-opacity="0.035"/>
<rect x="1" y="20" width="1" height="1" fill="#b77b00" fill-opacity="0.035"/>
<rect x="2" y="20" width="1" height="1" fill="#b77b00" fill-opacity="0.035"/>
<rect x="3" y="20" width="1" height="1" fill="#b77b00" fill-opacity="0.035"/>
<rect x="4" y="20" width="1" height="1" fill="#709b78" fill-opacity="0.067"/>
<rect x="5" y="20" width="1" height="1" fill="#b77b00" fill-opacity="0.035"/>
<rect x="6" y="20" width="1" height="1" fill="#b77b00" fill-opacity="0.035"/>
<rect x="7" y="20" width="1" height="1" fill="#977e00" fill-opacity="0.043"/>
<rect x="8" y="20" width="1" height="1" fill="#41df00" fill-opacity="0.275"/>
<rect x="9" y="20" width="1" height="1" fill="#977e00" fill-opacity="0.043"/>
<rect x="10" y="20" width="1" height="1" fill="#b77b00" fill-opacity="0.035"/>
<rect x="11" y="20" width="1" height="1" fill="#b77b00" fill-opacity="0.035"/>
<rect x="12" y="20" width="1" height="1" fill="#b77b00" fill-opacity="0.035"/>
<rect x="13" y="20" width="1" height="1" fill="#b77b00" fill-opacity="0.035"/>
<rect x="17" y="20" width="1" height="1" fill="#1e73ac" fill-opacity="0.035"/>
<rect x="18" y="20" width="1" height="1" fill="#6a7756" fill-opacity="0.071"/>
<rect x="19" y="20" width="1" height="1" fill="#6a7756" fill-opacity="0.071"/>
<rect x="20" y="20" width="1" height="1" fill="#6a7756" fill-opacity="0.071"/>
<rect x="21" y="20" width="1" height="1" fill="#6a7756" fill-opacity="0.071"/>
<rect x="22" y="20" width="1" height="1" fill="#b77b00" fill-opacity="0.035"/>
<rect x="23" y="20" width="1" height="1" fill="#b77b00" fill-opacity="0.035"/>
</svg>