<?xml version="1.0" encoding="UTF-8" standalone="no"?>
<svg xmlns="http://www.w3.org/2000/svg" width="26" height="21" shape-rendering="crispEdges">
<rect x="2" y="0" width="1" height="1" fill="#3be400" fill-opacity="0.035"/>
<rect x="3" y="0" width="1" height="1" fill="#3bff00" fill-opacity="0.035"/>
<rect x="4" y="0" width="1" height="1" fill="#3bc800" fill-opacity="0.035"/>
<rect x="10" y="0" width="1" height="1" fill="#42e000" fill-opacity="0.031"/>
<rect x="11" y="0" width="1" height="1" fill="#3ccd00" fill-opacity="0.949"/>
<rect x="12" y="0" width="1" height="1" fill="#3dcd00" fill-opacity="0.984"/>
<rect x="13" y="0" width="1" height="1" fill="#3fce04" fill-opacity="0.984"/>
<rect x="14" y="0" width="1" height="1" fill="#3fce04" fill-opacity="0.984"/>
<rect x="15" y="0" width="1" height="1" fill="#3ece04" fill-opacity="0.984"/>
<rect x="16" y="0" width="1" height="1" fill="#3ece02" fill-opacity="0.969"/>
<rect x="17" y="0" width="1" height="1" fill="#3ed300" fill-opacity="0.067"/>
<rect x="18" y="0" width="1" height="1" fill="#000000" fill-opacity="0.004"/>
<rect x="19" y="0" width="1" height="1" fill="#3bc800" fill-opacity="0.035"/>
<rect x="20" y="0" width="1" height="1" fill="#3bc800" fill-opacity="0.035"/>
<rect x="25" y="0" width="1" height="1" fill="#f1efff" fill-opacity="0.02"/>
<rect x="1" y="1" width="1" height="1" fill="#3ef000" fill-opacity="0.067"/>
<rect x="2" y="1" width="1" height="1" fill="#4af400" fill-opacity="0.969"/>
<rect x="3" y="1" width="1" height="1" fill="#4af300" fill-opacity="0.984"/>
<rect x="4" y="1" width="1" height="1" fill="#3fd600" fill-opacity="0.949"/>
<rect x="5" y="1" width="1" height="1" fill="#42e000" fill-opacity="0.031"/>
<rect x="9" y="1" width="1" height="1" fill="#3bc800" fill-opacity="0.035"/>
<rect x="10" y="1" width="1" height="1" fill="#3bc800" fill-opacity="0.035"/>
<rect x="11" y="1" width="1" height="1" fill="#50e30b" fill-opacity="0.102"/>
<rect x="12" y="1" width="1" height="1" fill="#6ef929" fill-opacity="0.984"/>
<rect x="13" y="1" width="1" height="1" fill="#dafeca"/>
<rect x="14" y="1" width="1" height="1" fill="#d7fec2"/>
<rect x="15" y="1" width="1" height="1" fill="#c4fea5"/>
<rect x="16" y="1" width="1" height="1" fill="#a3fd75"/>
<rect x="17" y="1" width="1" height="1" fill="#40cf05" fill-opacity="0.969"/>
<rect x="18" y="1" width="1" height="1" fill="#3dc500" fill-opacity="0.102"/>
<rect x="19" y="1" width="1" height="1" fill="#3cce00" fill-opacity="0.969"/>
<rect x="20" y="1" width="1" height="1" fill="#3ece04" fill-opacity="0.969"/>
<rect x="21" y="1" width="1" height="1" fill="#3ed300" fill-opacity="0.067"/>
<rect x="0" y="2" width="1" height="1" fill="#3ee200" fill-opacity="0.067"/>
<rect x="1" y="2" width="1" height="1" fill="#45e600" fill-opacity="0.969"/>
<rect x="2" y="2" width="1" height="1" fill="#4bf900"/>
<rect x="3" y="2" width="1" height="1" fill="#3ed500" fill-opacity="0.969"/>
<rect x="4" y="2" width="1" height="1" fill="#3ed300" fill-opacity="0.067"/>
<rect x="7" y="2" width="1" height="1" fill="#3bc800" fill-opacity="0.035"/>
<rect x="8" y="2" width="1" height="1" fill="#3ed300" fill-opacity="0.067"/>
<rect x="9" y="2" width="1" height="1" fill="#3fce05" fill-opacity="0.969"/>
<rect x="10" y="2" width="1" height="1" fill="#3fce05" fill-opacity="0.984"/>
<rect x="11" y="2" width="1" height="1" fill="#40cf05" fill-opacity="0.984"/>
<rect x="12" y="2" width="1" height="1" fill="#71fa2e"/>
<rect x="13" y="2" width="1" height="1" fill="#fafff7"/>
<rect x="14" y="2" width="1" height="1" fill="#fefffe"/>
<rect x="15" y="2" width="1" height="1" fill="#fefffd"/>
<rect x="16" y="2" width="1" height="1" fill="#d8ffc3"/>
<rect x="17" y="2" width="1" height="1" fill="#b3fd8e"/>
<rect x="18" y="2" width="1" height="1" fill="#41cf05" fill-opacity="0.984"/>
<rect x="19" y="2" width="1" height="1" fill="#61f614"/>
<rect x="20" y="2" width="1" height="1" fill="#d2fdbc"/>
<rect x="21" y="2" width="1" height="1" fill="#41cf07" fill-opacity="0.969"/>
<rect x="22" y="2" width="1" height="1" fill="#3ed300" fill-opacity="0.067"/>
<rect x="0" y="3" width="1" height="1" fill="#43e400" fill-opacity="0.969"/>
<rect x="1" y="3" width="1" height="1" fill="#4dfd00"/>
<rect x="2" y="3" width="1" height="1" fill="#3cd200" fill-opacity="0.984"/>
<rect x="3" y="3" width="1" height="1" fill="#3ed300" fill-opacity="0.067"/>
<rect x="6" y="3" width="1" height="1" fill="#3ed300" fill-opacity="0.067"/>
<rect x="7" y="3" width="1" height="1" fill="#3fce05" fill-opacity="0.969"/>
<rect x="8" y="3" width="1" height="1" fill="#43cf0a" fill-opacity="0.984"/>
<rect x="9" y="3" width="1" height="1" fill="#f8fdf7"/>
<rect x="10" y="3" width="1" height="1" fill="#fcfefb"/>
<rect x="11" y="3" width="1" height="1" fill="#fcfefa"/>
<rect x="12" y="3" width="1" height="1" fill="#efffe7"/>
<rect x="13" y="3" width="1" height="1" fill="#7aff3b"/>
<rect x="14" y="3" width="1" height="1" fill="#fdfffc"/>
<rect x="15" y="3" width="1" height="1" fill="#ffffff"/>
<rect x="16" y="3" width="1" height="1" fill="#fefffd"/>
<rect x="17" y="3" width="1" height="1" fill="#d8ffc4"/>
<rect x="18" y="3" width="1" height="1" fill="#c4fea5"/>
<rect x="19" y="3" width="1" height="1" fill="#60f313"/>
<rect x="20" y="3" width="1" height="1" fill="#fbfff8"/>
<rect x="21" y="3" width="1" height="1" fill="#bbfd9c"/>
<rect x="22" y="3" width="1" height="1" fill="#3ece04" fill-opacity="0.969"/>
<rect x="23" y="3" width="1" height="1" fill="#3bc800" fill-opacity="0.035"/>
<rect x="25" y="3" width="1" height="1" fill="#1e90e4" fill-opacity="0.035"/>
<rect x="0" y="4" width="1" height="1" fill="#4dff00" fill-opacity="0.984"/>
<rect x="1" y="4" width="1" height="1" fill="#4dfe00"/>
<rect x="2" y="4" width="1" height="1" fill="#3ac900" fill-opacity="0.984"/>
<rect x="3" y="4" width="1" height="1" fill="#3bc800" fill-opacity="0.035"/>
<rect x="5" y="4" width="1" height="1" fill="#3ec400" fill-opacity="0.067"/>
<rect x="6" y="4" width="1" height="1" fill="#41cf07" fill-opacity="0.969"/>
<rect x="7" y="4" width="1" height="1" fill="#f7fdf5"/>
<rect x="8" y="4" width="1" height="1" fill="#fbfefa"/>
<rect x="9" y="4" width="1" height="1" fill="#ffffff"/>
<rect x="10" y="4" width="1" height="1" fill="#ffffff"/>
<rect x="11" y="4" width="1" height="1" fill="#ffffff"/>
<rect x="12" y="4" width="1" height="1" fill="#f1ffea"/>
<rect x="13" y="4" width="1" height="1" fill="#78ff38"/>
<rect x="14" y="4" width="1" height="1" fill="#fdfffc"/>
<rect x="15" y="4" width="1" height="1" fill="#ffffff"/>
<rect x="16" y="4" width="1" height="1" fill="#ffffff"/>
<rect x="17" y="4" width="1" height="1" fill="#fefffd"/>
<rect x="18" y="4" width="1" height="1" fill="#d2ffbc"/>
<rect x="19" y="4" width="1" height="1" fill="#6cfd22"/>
<rect x="20" y="4" width="1" height="1" fill="#fcfffa"/>
<rect x="21" y="4" width="1" height="1" fill="#d7fec5"/>
<rect x="22" y="4" width="1" height="1" fill="#40cf05" fill-opacity="0.984"/>
<rect x="23" y="4" width="1" height="1" fill="#3ed300" fill-opacity="0.067"/>
<rect x="25" y="4" width="1" height="1" fill="#1eacff" fill-opacity="0.035"/>
<rect x="0" y="5" width="1" height="1" fill="#4dff00" fill-opacity="0.984"/>
<rect x="1" y="5" width="1" height="1" fill="#4dfe00"/>
<rect x="2" y="5" width="1" height="1" fill="#3ac900" fill-opacity="0.984"/>
<rect x="3" y="5" width="1" height="1" fill="#3bc800" fill-opacity="0.035"/>
<rect x="4" y="5" width="1" height="1" fill="#3bac00" fill-opacity="0.035"/>
<rect x="5" y="5" width="1" height="1" fill="#37bb02" fill-opacity="0.969"/>
<rect x="6" y="5" width="1" height="1" fill="#91fc5e"/>
<rect x="7" y="5" width="1" height="1" fill="#c5feaa"/>
<rect x="8" y="5" width="1" height="1" fill="#d8ffc4"/>
<rect x="9" y="5" width="1" height="1" fill="#f0ffea"/>
<rect x="10" y="5" width="1" height="1" fill="#fffffe"/>
<rect x="11" y="5" width="1" height="1" fill="#fffffe"/>
<rect x="12" y="5" width="1" height="1" fill="#f1ffea"/>
<rect x="13" y="5" width="1" height="1" fill="#79ff38"/>
<rect x="14" y="5" width="1" height="1" fill="#fdfffc"/>
<rect x="15" y="5" width="1" height="1" fill="#ffffff"/>
<rect x="16" y="5" width="1" height="1" fill="#ffffff"/>
<rect x="17" y="5" width="1" height="1" fill="#fefffe"/>
<rect x="18" y="5" width="1" height="1" fill="#beff9e"/>
<rect x="19" y="5" width="1" height="1" fill="#6efd26"/>
<rect x="20" y="5" width="1" height="1" fill="#fcfffa"/>
<rect x="21" y="5" width="1" height="1" fill="#e1ffd2"/>
<rect x="22" y="5" width="1" height="1" fill="#9ffd72"/>
<rect x="23" y="5" width="1" height="1" fill="#3ece02" fill-opacity="0.969"/>
<rect x="24" y="5" width="1" height="1" fill="#3bc800" fill-opacity="0.035"/>
<rect x="25" y="5" width="1" height="1" fill="#1eacff" fill-opacity="0.035"/>
<rect x="0" y="6" width="1" height="1" fill="#4dff00" fill-opacity="0.969"/>
<rect x="1" y="6" width="1" height="1" fill="#4cfd00"/>
<rect x="2" y="6" width="1" height="1" fill="#3bcc00" fill-opacity="0.984"/>
<rect x="3" y="6" width="1" height="1" fill="#3ed300" fill-opacity="0.067"/>
<rect x="4" y="6" width="1" height="1" fill="#4fb500" fill-opacity="0.039"/>
<rect x="5" y="6" width="1" height="1" fill="#33b800" fill-opacity="0.984"/>
<rect x="6" y="6" width="1" height="1" fill="#3fc902" fill-opacity="0.984"/>
<rect x="7" y="6" width="1" height="1" fill="#42ca05" fill-opacity="0.984"/>
<rect x="8" y="6" width="1" height="1" fill="#94fd5f"/>
<rect x="9" y="6" width="1" height="1" fill="#b1fe8a"/>
<rect x="10" y="6" width="1" height="1" fill="#dcffcb"/>
<rect x="11" y="6" width="1" height="1" fill="#deffcc"/>
<rect x="12" y="6" width="1" height="1" fill="#eeffe5"/>
<rect x="13" y="6" width="1" height="1" fill="#7bff3a"/>
<rect x="14" y="6" width="1" height="1" fill="#fdfffc"/>
<rect x="15" y="6" width="1" height="1" fill="#ffffff"/>
<rect x="16" y="6" width="1" height="1" fill="#ffffff"/>
<rect x="17" y="6" width="1" height="1" fill="#fdfffc"/>
<rect x="18" y="6" width="1" height="1" fill="#92ff5a"/>
<rect x="19" y="6" width="1" height="1" fill="#e4ffd5"/>
<rect x="20" y="6" width="1" height="1" fill="#fefffd"/>
<rect x="21" y="6" width="1" height="1" fill="#e1ffd1"/>
<rect x="22" y="6" width="1" height="1" fill="#9afe6a"/>
<rect x="23" y="6" width="1" height="1" fill="#3dce02" fill-opacity="0.984"/>
<rect x="24" y="6" width="1" height="1" fill="#3bc800" fill-opacity="0.035"/>
<rect x="25" y="6" width="1" height="1" fill="#1eacff" fill-opacity="0.035"/>
<rect x="0" y="7" width="1" height="1" fill="#3ef000" fill-opacity="0.067"/>
<rect x="1" y="7" width="1" height="1" fill="#3fdb00" fill-opacity="0.969"/>
<rect x="2" y="7" width="1" height="1" fill="#4af400"/>
<rect x="3" y="7" width="1" height="1" fill="#3aca00" fill-opacity="0.969"/>
<rect x="4" y="7" width="1" height="1" fill="#84e555" fill-opacity="0.227"/>
<rect x="5" y="7" width="1" height="1" fill="#34b900" fill-opacity="0.953"/>
<rect x="6" y="7" width="1" height="1" fill="#3ec400" fill-opacity="0.067"/>
<rect x="7" y="7" width="1" height="1" fill="#3ed300" fill-opacity="0.067"/>
<rect x="8" y="7" width="1" height="1" fill="#3dce02" fill-opacity="0.969"/>
<rect x="9" y="7" width="1" height="1" fill="#40ce05"/>
<rect x="10" y="7" width="1" height="1" fill="#c6fda9"/>
<rect x="11" y="7" width="1" height="1" fill="#e0ffd0"/>
<rect x="12" y="7" width="1" height="1" fill="#8cff54"/>
<rect x="13" y="7" width="1" height="1" fill="#e7ffdb"/>
<rect x="14" y="7" width="1" height="1" fill="#ffffff"/>
<rect x="15" y="7" width="1" height="1" fill="#ffffff"/>
<rect x="16" y="7" width="1" height="1" fill="#ffffff"/>
<rect x="17" y="7" width="1" height="1" fill="#fdfffc"/>
<rect x="18" y="7" width="1" height="1" fill="#b4ff90"/>
<rect x="19" y="7" width="1" height="1" fill="#fdfffc"/>
<rect x="20" y="7" width="1" height="1" fill="#f7fff4"/>
<rect x="21" y="7" width="1" height="1" fill="#dcffcb"/>
<rect x="22" y="7" width="1" height="1" fill="#96fe64"/>
<rect x="23" y="7" width="1" height="1" fill="#3dce02" fill-opacity="0.984"/>
<rect x="24" y="7" width="1" height="1" fill="#3bc800" fill-opacity="0.035"/>
<rect x="1" y="8" width="1" height="1" fill="#3ed300" fill-opacity="0.067"/>
<rect x="2" y="8" width="1" height="1" fill="#3ac900" fill-opacity="0.969"/>
<rect x="3" y="8" width="1" height="1" fill="#3ac900" fill-opacity="0.984"/>
<rect x="4" y="8" width="1" height="1" fill="#3ac900" fill-opacity="0.953"/>
<rect x="5" y="8" width="1" height="1" fill="#3ec400" fill-opacity="0.067"/>
<rect x="8" y="8" width="1" height="1" fill="#3ec400" fill-opacity="0.067"/>
<rect x="9" y="8" width="1" height="1" fill="#2fa800" fill-opacity="0.984"/>
<rect x="10" y="8" width="1" height="1" fill="#41ce05"/>
<rect x="11" y="8" width="1" height="1" fill="#c5fda8"/>
<rect x="12" y="8" width="1" height="1" fill="#95ff63"/>
<rect x="13" y="8" width="1" height="1" fill="#e3ffd3"/>
<rect x="14" y="8" width="1" height="1" fill="#fffffe"/>
<rect x="15" y="8" width="1" height="1" fill="#ffffff"/>
<rect x="16" y="8" width="1" height="1" fill="#fefffe"/>
<rect x="17" y="8" width="1" height="1" fill="#ceffb6"/>
<rect x="18" y="8" width="1" height="1" fill="#fdfffc"/>
<rect x="19" y="8" width="1" height="1" fill="#fefffe"/>
<rect x="20" y="8" width="1" height="1" fill="#efffe7"/>
<rect x="21" y="8" width="1" height="1" fill="#d8ffc2"/>
<rect x="22" y="8" width="1" height="1" fill="#93fe62"/>
<rect x="23" y="8" width="1" height="1" fill="#3dce02" fill-opacity="0.984"/>
<rect x="24" y="8" width="1" height="1" fill="#3bc800" fill-opacity="0.035"/>
<rect x="2" y="9" width="1" height="1" fill="#3bc800" fill-opacity="0.035"/>
<rect x="3" y="9" width="1" height="1" fill="#3bc800" fill-opacity="0.035"/>
<rect x="4" y="9" width="1" height="1" fill="#3bc800" fill-opacity="0.035"/>
<rect x="8" y="9" width="1" height="1" fill="#3bac00" fill-opacity="0.035"/>
<rect x="9" y="9" width="1" height="1" fill="#2ea800" fill-opacity="0.984"/>
<rect x="10" y="9" width="1" height="1" fill="#40d800"/>
<rect x="11" y="9" width="1" height="1" fill="#41cf07"/>
<rect x="12" y="9" width="1" height="1" fill="#defecd"/>
<rect x="13" y="9" width="1" height="1" fill="#f8fff5"/>
<rect x="14" y="9" width="1" height="1" fill="#ffffff"/>
<rect x="15" y="9" width="1" height="1" fill="#ffffff"/>
<rect x="16" y="9" width="1" height="1" fill="#ffffff"/>
<rect x="17" y="9" width="1" height="1" fill="#fefffd"/>
<rect x="18" y="9" width="1" height="1" fill="#fefffe"/>
<rect x="19" y="9" width="1" height="1" fill="#efffe7"/>
<rect x="20" y="9" width="1" height="1" fill="#e2ffd3"/>
<rect x="21" y="9" width="1" height="1" fill="#d8ffc1"/>
<rect x="22" y="9" width="1" height="1" fill="#93fe62"/>
<rect x="23" y="9" width="1" height="1" fill="#3dce02" fill-opacity="0.984"/>
<rect x="24" y="9" width="1" height="1" fill="#3ed300" fill-opacity="0.067"/>
<rect x="4" y="10" width="1" height="1" fill="#3bc800" fill-opacity="0.035"/>
<rect x="5" y="10" width="1" height="1" fill="#3bc800" fill-opacity="0.035"/>
<rect x="6" y="10" width="1" height="1" fill="#3bc800" fill-opacity="0.035"/>
<rect x="7" y="10" width="1" height="1" fill="#000000" fill-opacity="0.004"/>
<rect x="8" y="10" width="1" height="1" fill="#3eb500" fill-opacity="0.067"/>
<rect x="9" y="10" width="1" height="1" fill="#36bb00" fill-opacity="0.984"/>
<rect x="10" y="10" width="1" height="1" fill="#45e600"/>
<rect x="11" y="10" width="1" height="1" fill="#3fce04"/>
<rect x="12" y="10" width="1" height="1" fill="#defecb"/>
<rect x="13" y="10" width="1" height="1" fill="#fcfff9"/>
<rect x="14" y="10" width="1" height="1" fill="#f9fef7"/>
<rect x="15" y="10" width="1" height="1" fill="#e6feda"/>
<rect x="16" y="10" width="1" height="1" fill="#e5fed9"/>
<rect x="17" y="10" width="1" height="1" fill="#e5fed9"/>
<rect x="18" y="10" width="1" height="1" fill="#e1ffd1"/>
<rect x="19" y="10" width="1" height="1" fill="#e3ffd4"/>
<rect x="20" y="10" width="1" height="1" fill="#d4ffbe"/>
<rect x="21" y="10" width="1" height="1" fill="#ccffb0"/>
<rect x="22" y="10" width="1" height="1" fill="#a0fe73"/>
<rect x="23" y="10" width="1" height="1" fill="#40ce05"/>
<rect x="24" y="10" width="1" height="1" fill="#3ccd00" fill-opacity="0.969"/>
<rect x="25" y="10" width="1" height="1" fill="#3bc800" fill-opacity="0.035"/>
<rect x="3" y="11" width="1" height="1" fill="#3bc800" fill-opacity="0.035"/>
<rect x="4" y="11" width="1" height="1" fill="#3ccd00" fill-opacity="0.965"/>
<rect x="5" y="11" width="1" height="1" fill="#3fcd00" fill-opacity="0.984"/>
<rect x="6" y="11" width="1" height="1" fill="#3fce00" fill-opacity="0.969"/>
<rect x="7" y="11" width="1" height="1" fill="#3dc500" fill-opacity="0.102"/>
<rect x="8" y="11" width="1" height="1" fill="#34b800" fill-opacity="0.969"/>
<rect x="9" y="11" width="1" height="1" fill="#45e600"/>
<rect x="10" y="11" width="1" height="1" fill="#45e700"/>
<rect x="11" y="11" width="1" height="1" fill="#3fce04"/>
<rect x="12" y="11" width="1" height="1" fill="#dcfeca"/>
<rect x="13" y="11" width="1" height="1" fill="#d1fdb7"/>
<rect x="14" y="11" width="1" height="1" fill="#3bbb0b"/>
<rect x="15" y="11" width="1" height="1" fill="#38b805"/>
<rect x="16" y="11" width="1" height="1" fill="#38b705"/>
<rect x="17" y="11" width="1" height="1" fill="#3ab908"/>
<rect x="18" y="11" width="1" height="1" fill="#d9fdc3"/>
<rect x="19" y="11" width="1" height="1" fill="#d1ffb8"/>
<rect x="20" y="11" width="1" height="1" fill="#d2ffb9"/>
<rect x="21" y="11" width="1" height="1" fill="#c0ffa0"/>
<rect x="22" y="11" width="1" height="1" fill="#63ee19"/>
<rect x="23" y="11" width="1" height="1" fill="#dffdd1"/>
<rect x="24" y="11" width="1" height="1" fill="#3fce05" fill-opacity="0.984"/>
<rect x="25" y="11" width="1" height="1" fill="#3bc800" fill-opacity="0.035"/>
<rect x="3" y="12" width="1" height="1" fill="#3bc800" fill-opacity="0.035"/>
<rect x="4" y="12" width="1" height="1" fill="#3fcd00" fill-opacity="0.984"/>
<rect x="5" y="12" width="1" height="1" fill="#f8f108"/>
<rect x="6" y="12" width="1" height="1" fill="#f8f108"/>
<rect x="7" y="12" width="1" height="1" fill="#3bb900" fill-opacity="0.984"/>
<rect x="8" y="12" width="1" height="1" fill="#4aef00"/>
<rect x="9" y="12" width="1" height="1" fill="#4dfe00"/>
<rect x="10" y="12" width="1" height="1" fill="#45e700"/>
<rect x="11" y="12" width="1" height="1" fill="#3fcf04"/>
<rect x="12" y="12" width="1" height="1" fill="#cefcb8"/>
<rect x="13" y="12" width="1" height="1" fill="#3ebd0c"/>
<rect x="14" y="12" width="1" height="1" fill="#b9fd9b"/>
<rect x="15" y="12" width="1" height="1" fill="#76fd34"/>
<rect x="16" y="12" width="1" height="1" fill="#74fd32"/>
<rect x="17" y="12" width="1" height="1" fill="#55fd02"/>
<rect x="18" y="12" width="1" height="1" fill="#38b507"/>
<rect x="19" y="12" width="1" height="1" fill="#cbfdb1"/>
<rect x="20" y="12" width="1" height="1" fill="#b9ff97"/>
<rect x="21" y="12" width="1" height="1" fill="#7fff40"/>
<rect x="22" y="12" width="1" height="1" fill="#ceffb8"/>
<rect x="23" y="12" width="1" height="1" fill="#acfe86"/>
<rect x="24" y="12" width="1" height="1" fill="#3ece02" fill-opacity="0.984"/>
<rect x="25" y="12" width="1" height="1" fill="#3bc800" fill-opacity="0.035"/>
<rect x="3" y="13" width="1" height="1" fill="#3ec400" fill-opacity="0.067"/>
<rect x="4" y="13" width="1" height="1" fill="#43ce05" fill-opacity="0.984"/>
<rect x="5" y="13" width="1" height="1" fill="#f9f108"/>
<rect x="6" y="13" width="1" height="1" fill="#fff108"/>
<rect x="7" y="13" width="1" height="1" fill="#f9d308"/>
<rect x="8" y="13" width="1" height="1" fill="#37aa00"/>
<rect x="9" y="13" width="1" height="1" fill="#4cfc00"/>
<rect x="10" y="13" width="1" height="1" fill="#4dfe00"/>
<rect x="11" y="13" width="1" height="1" fill="#48eb00"/>
<rect x="12" y="13" width="1" height="1" fill="#38b907"/>
<rect x="13" y="13" width="1" height="1" fill="#b9fd9b"/>
<rect x="14" y="13" width="1" height="1" fill="#6efd27"/>
<rect x="15" y="13" width="1" height="1" fill="#39bf02"/>
<rect x="16" y="13" width="1" height="1" fill="#38be02"/>
<rect x="17" y="13" width="1" height="1" fill="#5cfd0b"/>
<rect x="18" y="13" width="1" height="1" fill="#54fc00"/>
<rect x="19" y="13" width="1" height="1" fill="#38b905"/>
<rect x="20" y="13" width="1" height="1" fill="#aafe83"/>
<rect x="21" y="13" width="1" height="1" fill="#caffb2"/>
<rect x="22" y="13" width="1" height="1" fill="#b1ff8c"/>
<rect x="23" y="13" width="1" height="1" fill="#a9fe84"/>
<rect x="24" y="13" width="1" height="1" fill="#3ece02" fill-opacity="0.984"/>
<rect x="25" y="13" width="1" height="1" fill="#3bc800" fill-opacity="0.035"/>
<rect x="2" y="14" width="1" height="1" fill="#3eb500" fill-opacity="0.067"/>
<rect x="3" y="14" width="1" height="1" fill="#3ab80a" fill-opacity="0.969"/>
<rect x="4" y="14" width="1" height="1" fill="#f5f8e6"/>
<rect x="5" y="14" width="1" height="1" fill="#41bd08"/>
<rect x="6" y="14" width="1" height="1" fill="#f9d208"/>
<rect x="7" y="14" width="1" height="1" fill="#ffd108"/>
<rect x="8" y="14" width="1" height="1" fill="#f8d008"/>
<rect x="9" y="14" width="1" height="1" fill="#37aa00"/>
<rect x="10" y="14" width="1" height="1" fill="#48eb00"/>
<rect x="11" y="14" width="1" height="1" fill="#48eb00"/>
<rect x="12" y="14" width="1" height="1" fill="#36b802"/>
<rect x="13" y="14" width="1" height="1" fill="#84fd49"/>
<rect x="14" y="14" width="1" height="1" fill="#39c502"/>
<rect x="15" y="14" width="1" height="1" fill="#5dfd0c"/>
<rect x="16" y="14" width="1" height="1" fill="#5dfd0c"/>
<rect x="17" y="14" width="1" height="1" fill="#38bf00"/>
<rect x="18" y="14" width="1" height="1" fill="#54fd00"/>
<rect x="19" y="14" width="1" height="1" fill="#36b802"/>
<rect x="20" y="14" width="1" height="1" fill="#a1fe74"/>
<rect x="21" y="14" width="1" height="1" fill="#a8ff81"/>
<rect x="22" y="14" width="1" height="1" fill="#a8ff7f"/>
<rect x="23" y="14" width="1" height="1" fill="#90fd5c"/>
<rect x="24" y="14" width="1" height="1" fill="#3dce02" fill-opacity="0.969"/>
<rect x="25" y="14" width="1" height="1" fill="#3bc800" fill-opacity="0.035"/>
<rect x="1" y="15" width="1" height="1" fill="#3eb500" fill-opacity="0.067"/>
<rect x="2" y="15" width="1" height="1" fill="#3ab708" fill-opacity="0.969"/>
<rect x="3" y="15" width="1" height="1" fill="#f7f9ea"/>
<rect x="4" y="15" width="1" height="1" fill="#dcffc2"/>
<rect x="5" y="15" width="1" height="1" fill="#c0fd9e"/>
<rect x="6" y="15" width="1" height="1" fill="#39aa05"/>
<rect x="7" y="15" width="1" height="1" fill="#f8c208"/>
<rect x="8" y="15" width="1" height="1" fill="#ffc208"/>
<rect x="9" y="15" width="1" height="1" fill="#f8c108"/>
<rect x="10" y="15" width="1" height="1" fill="#33aa00"/>
<rect x="11" y="15" width="1" height="1" fill="#47ea00"/>
<rect x="12" y="15" width="1" height="1" fill="#34b802"/>
<rect x="13" y="15" width="1" height="1" fill="#75fd31"/>
<rect x="14" y="15" width="1" height="1" fill="#38c202"/>
<rect x="15" y="15" width="1" height="1" fill="#5dfd0c"/>
<rect x="16" y="15" width="1" height="1" fill="#5dfd0c"/>
<rect x="17" y="15" width="1" height="1" fill="#38bd00"/>
<rect x="18" y="15" width="1" height="1" fill="#54fd00"/>
<rect x="19" y="15" width="1" height="1" fill="#36b802"/>
<rect x="20" y="15" width="1" height="1" fill="#8ffe5a"/>
<rect x="21" y="15" width="1" height="1" fill="#92ff5e"/>
<rect x="22" y="15" width="1" height="1" fill="#8efd59"/>
<rect x="23" y="15" width="1" height="1" fill="#3fcf04" fill-opacity="0.969"/>
<rect x="24" y="15" width="1" height="1" fill="#3ed300" fill-opacity="0.067"/>
<rect x="0" y="16" width="1" height="1" fill="#3ec400" fill-opacity="0.067"/>
<rect x="1" y="16" width="1" height="1" fill="#3ac005" fill-opacity="0.969"/>
<rect x="2" y="16" width="1" height="1" fill="#dffcc8"/>
<rect x="3" y="16" width="1" height="1" fill="#d3feb7"/>
<rect x="4" y="16" width="1" height="1" fill="#c1fea2"/>
<rect x="5" y="16" width="1" height="1" fill="#b3fe8e"/>
<rect x="6" y="16" width="1" height="1" fill="#94fb64"/>
<rect x="7" y="16" width="1" height="1" fill="#38a902"/>
<rect x="8" y="16" width="1" height="1" fill="#f8a500"/>
<rect x="9" y="16" width="1" height="1" fill="#f8a500"/>
<rect x="10" y="16" width="1" height="1" fill="#33a900"/>
<rect x="11" y="16" width="1" height="1" fill="#47ea00"/>
<rect x="12" y="16" width="1" height="1" fill="#34b900"/>
<rect x="13" y="16" width="1" height="1" fill="#58fd02"/>
<rect x="14" y="16" width="1" height="1" fill="#5cfd0a"/>
<rect x="15" y="16" width="1" height="1" fill="#36bb00"/>
<rect x="16" y="16" width="1" height="1" fill="#36bb00"/>
<rect x="17" y="16" width="1" height="1" fill="#5bfd08"/>
<rect x="18" y="16" width="1" height="1" fill="#54fc00"/>
<rect x="19" y="16" width="1" height="1" fill="#34b402"/>
<rect x="20" y="16" width="1" height="1" fill="#8ffd5b"/>
<rect x="21" y="16" width="1" height="1" fill="#8cfd56"/>
<rect x="22" y="16" width="1" height="1" fill="#3fcf04" fill-opacity="0.984"/>
<rect x="23" y="16" width="1" height="1" fill="#3dc500" fill-opacity="0.102"/>
<rect x="24" y="16" width="1" height="1" fill="#000000" fill-opacity="0.004"/>
<rect x="0" y="17" width="1" height="1" fill="#37bf00" fill-opacity="0.969"/>
<rect x="1" y="17" width="1" height="1" fill="#38c002"/>
<rect x="2" y="17" width="1" height="1" fill="#3ac005"/>
<rect x="3" y="17" width="1" height="1" fill="#3ac005"/>
<rect x="4" y="17" width="1" height="1" fill="#3ac005"/>
<rect x="5" y="17" width="1" height="1" fill="#39c005"/>
<rect x="6" y="17" width="1" height="1" fill="#39c004"/>
<rect x="7" y="17" width="1" height="1" fill="#38bf02"/>
<rect x="8" y="17" width="1" height="1" fill="#33a802"/>
<rect x="9" y="17" width="1" height="1" fill="#33a802"/>
<rect x="10" y="17" width="1" height="1" fill="#2fa800"/>
<rect x="11" y="17" width="1" height="1" fill="#38c000"/>
<rect x="12" y="17" width="1" height="1" fill="#3bcb00"/>
<rect x="13" y="17" width="1" height="1" fill="#36bb00"/>
<rect x="14" y="17" width="1" height="1" fill="#51fd00"/>
<rect x="15" y="17" width="1" height="1" fill="#52fd00"/>
<rect x="16" y="17" width="1" height="1" fill="#52fd00"/>
<rect x="17" y="17" width="1" height="1" fill="#52fd00"/>
<rect x="18" y="17" width="1" height="1" fill="#32b000"/>
<rect x="19" y="17" width="1" height="1" fill="#3ac800"/>
<rect x="20" y="17" width="1" height="1" fill="#3cca02"/>
<rect x="21" y="17" width="1" height="1" fill="#3bc902"/>
<rect x="22" y="17" width="1" height="1" fill="#38c300"/>
<rect x="23" y="17" width="1" height="1" fill="#3ccd00" fill-opacity="0.969"/>
<rect x="24" y="17" width="1" height="1" fill="#3bc800" fill-opacity="0.035"/>
<rect x="25" y="17" width="1" height="1" fill="#1e90c8" fill-opacity="0.035"/>
<rect x="0" y="18" width="1" height="1" fill="#34b702" fill-opacity="0.984"/>
<rect x="1" y="18" width="1" height="1" fill="#85fb4a"/>
<rect x="2" y="18" width="1" height="1" fill="#86fd4c"/>
<rect x="3" y="18" width="1" height="1" fill="#86fd4c"/>
<rect x="4" y="18" width="1" height="1" fill="#86fd4c"/>
<rect x="5" y="18" width="1" height="1" fill="#86fd4c"/>
<rect x="6" y="18" width="1" height="1" fill="#86fd4c"/>
<rect x="7" y="18" width="1" height="1" fill="#81fd47"/>
<rect x="8" y="18" width="1" height="1" fill="#77fc34"/>
<rect x="9" y="18" width="1" height="1" fill="#75fc32"/>
<rect x="10" y="18" width="1" height="1" fill="#6ffc28"/>
<rect x="11" y="18" width="1" height="1" fill="#5dfd0c"/>
<rect x="12" y="18" width="1" height="1" fill="#5dfd0c"/>
<rect x="13" y="18" width="1" height="1" fill="#5cfb0c"/>
<rect x="14" y="18" width="1" height="1" fill="#34b900" fill-opacity="0.984"/>
<rect x="15" y="18" width="1" height="1" fill="#33b700" fill-opacity="0.984"/>
<rect x="16" y="18" width="1" height="1" fill="#33b700" fill-opacity="0.984"/>
<rect x="17" y="18" width="1" height="1" fill="#34b900" fill-opacity="0.984"/>
<rect x="18" y="18" width="1" height="1" fill="#4cfb00"/>
<rect x="19" y="18" width="1" height="1" fill="#4cfd00"/>
<rect x="20" y="18" width="1" height="1" fill="#4cfd00"/>
<rect x="21" y="18" width="1" height="1" fill="#4cfd00"/>
<rect x="22" y="18" width="1" height="1" fill="#4cfc00"/>
<rect x="23" y="18" width="1" height="1" fill="#3ccd00" fill-opacity="0.984"/>
<rect x="24" y="18" width="1" height="1" fill="#3bc800" fill-opacity="0.035"/>
<rect x="25" y="18" width="1" height="1" fill="#1e73c8" fill-opacity="0.035"/>
<rect x="0" y="19" width="1" height="1" fill="#33b600" fill-opacity="0.965"/>
<rect x="1" y="19" width="1" height="1" fill="#34b702" fill-opacity="0.984"/>
<rect x="2" y="19" width="1" height="1" fill="#34b702" fill-opacity="0.984"/>
<rect x="3" y="19" width="1" height="1" fill="#34b702" fill-opacity="0.984"/>
<rect x="4" y="19" width="1" height="1" fill="#34b702" fill-opacity="0.984"/>
<rect x="5" y="19" width="1" height="1" fill="#34b702" fill-opacity="0.984"/>
<rect x="6" y="19" width="1" height="1" fill="#34b702" fill-opacity="0.984"/>
<rect x="7" y="19" width="1" height="1" fill="#34b702" fill-opacity="0.984"/>
<rect x="8" y="19" width="1" height="1" fill="#34b702" fill-opacity="0.988"/>
<rect x="9" y="19" width="1" height="1" fill="#34b702" fill-opacity="0.984"/>
<rect x="10" y="19" width="1" height="1" fill="#34b700" fill-opacity="0.984"/>
<rect x="11" y="19" width="1" height="1" fill="#34b700" fill-opacity="0.984"/>
<rect x="12" y="19" width="1" height="1" fill="#34b700" fill-opacity="0.984"/>
<rect x="13" y="19" width="1" height="1" fill="#33b700" fill-opacity="0.969"/>
<rect x="14" y="19" width="1" height="1" fill="#3eb500" fill-opacity="0.067"/>
<rect x="15" y="19" width="1" height="1" fill="#3bac00" fill-opacity="0.035"/>
<rect x="16" y="19" width="1" height="1" fill="#3bac00" fill-opacity="0.035"/>
<rect x="17" y="19" width="1" height="1" fill="#3eb500" fill-opacity="0.067"/>
<rect x="18" y="19" width="1" height="1" fill="#33b700" fill-opacity="0.969"/>
<rect x="19" y="19" width="1" height="1" fill="#33b700" fill-opacity="0.984"/>
<rect x="20" y="19" width="1" height="1" fill="#33b700" fill-opacity="0.984"/>
<rect x="21" y="19" width="1" height="1" fill="#33b700" fill-opacity="0.984"/>
<rect x="22" y="19" width="1" height="1" fill="#33b700" fill-opacity="0.984"/>
<rect x="23" y="19" width="1" height="1" fill="#33b700" fill-opacity="0.965"/>
<rect x="24" y="19" width="1" height="1" fill="#3bac00" fill-opacity="0.035"/>
<rect x="25" y="19" width="1" height="1" fill="#1e73c8" fill-opacity="0.035"/>
<rect x="0" y="20" width="1" height="1" fill="#3bac00" fill-opacity="0.035"/>
<rect x="1" y="20" width="1" height="1" fill="#3bac00" fill-opacity="0.035"/>
<rect x="2" y="20" width="1" height="1" fill="#3bac00" fill-opacity="0.035"/>
<rect x="3" y="20" width="1" height="1" fill="#3bac00" fill-opacity="0.035"/>
<rect x="4" y="20" width="1" height="1" fill="#4b8678" fill-opacity="0.067"/>
<rect x="5" y="20" width="1" height="1" fill="#3bac00" fill-opacity="0.035"/>
<rect x="6" y="20" width="1" height="1" fill="#3bac00" fill-opacity="0.035"/>
<rect x="7" y="20" width="1" height="1" fill="#30bb19" fill-opacity="0.043"/>
<rect x="8" y="20" width="1" height="1" fill="#08f58e" fill-opacity="0.275"/>
<rect x="9" y="20" width="1" height="1" fill="#30bb19" fill-opacity="0.043"/>
<rect x="10" y="20" width="1" height="1" fill="#3bac00" fill-opacity="0.035"/>
<rect x="11" y="20" width="1" height="1" fill="#3bac00" fill-opacity="0.035"/>
<rect x="12" y="20" width="1" height="1" fill="#3bac00" fill-opacity="0.035"/>
<rect x="13" y="20" width="1" height="1" fill="#3bac00" fill-opacity="0.035"/>
<rect x="17" y="20" width="1" height="1" fill="#5151a8" fill-opacity="0.035"/>
<rect x="18" y="20" width="1" height="1" fill="#467e63" fill-opacity="0.071"/>
<rect x="19" y="20" width="1" height="1" fill="#467e63" fill-opacity="0.071"/>
<rect x="20" y="20" width="1" height="1" fill="#467e63" fill-opacity="0.071"/>
<rect x="21" y="20" width="1" height="1" fill="#467e54" fill-opacity="0.071"/>
<rect x="22" y="20" width="1" height="1" fill="#3bac00" fill-opacity="0.035"/>
<rect x="23" y="20" width="1" height="1" fill="#3bac00" fill-opacity="0.035"/>
</svg>