<?xml version="1.0" encoding="UTF-8" standalone="no"?>
<svg xmlns="http://www.w3.org/2000/svg" width="26" height="21" shape-rendering="crispEdges">
<rect x="2" y="0" width="1" height="1" fill="#1eacff" fill-opacity="0.035"/>
<rect x="3" y="0" width="1" height="1" fill="#1eacff" fill-opacity="0.035"/>
<rect x="4" y="0" width="1" height="1" fill="#1e90e4" fill-opacity="0.035"/>
<rect x="10" y="0" width="1" height="1" fill="#21a1e0" fill-opacity="0.031"/>
<rect x="11" y="0" width="1" height="1" fill="#1a91de" fill-opacity="0.949"/>
<rect x="12" y="0" width="1" height="1" fill="#1a92de" fill-opacity="0.984"/>
<rect x="13" y="0" width="1" height="1" fill="#1e93de" fill-opacity="0.984"/>
<rect x="14" y="0" width="1" height="1" fill="#1e93de" fill-opacity="0.984"/>
<rect x="15" y="0" width="1" height="1" fill="#1e92de" fill-opacity="0.984"/>
<rect x="16" y="0" width="1" height="1" fill="#1d92de" fill-opacity="0.969"/>
<rect x="17" y="0" width="1" height="1" fill="#2098e2" fill-opacity="0.067"/>
<rect x="18" y="0" width="1" height="1" fill="#0000ff" fill-opacity="0.004"/>
<rect x="19" y="0" width="1" height="1" fill="#1e90c8" fill-opacity="0.035"/>
<rect x="20" y="0" width="1" height="1" fill="#1e90c8" fill-opacity="0.035"/>
<rect x="25" y="0" width="1" height="1" fill="#fff0ff" fill-opacity="0.02"/>
<rect x="1" y="1" width="1" height="1" fill="#20a7ff" fill-opacity="0.067"/>
<rect x="2" y="1" width="1" height="1" fill="#1aa8ff" fill-opacity="0.969"/>
<rect x="3" y="1" width="1" height="1" fill="#1aa7fe" fill-opacity="0.984"/>
<rect x="4" y="1" width="1" height="1" fill="#1a96e4" fill-opacity="0.949"/>
<rect x="5" y="1" width="1" height="1" fill="#21a1e0" fill-opacity="0.031"/>
<rect x="9" y="1" width="1" height="1" fill="#1e90c8" fill-opacity="0.035"/>
<rect x="10" y="1" width="1" height="1" fill="#1e90e4" fill-opacity="0.035"/>
<rect x="11" y="1" width="1" height="1" fill="#299fec" fill-opacity="0.102"/>
<rect x="12" y="1" width="1" height="1" fill="#40c2fe" fill-opacity="0.984"/>
<rect x="13" y="1" width="1" height="1" fill="#d9f9ff"/>
<rect x="14" y="1" width="1" height="1" fill="#d3f8ff"/>
<rect x="15" y="1" width="1" height="1" fill="#b6f0ff"/>
<rect x="16" y="1" width="1" height="1" fill="#89dcfe"/>
<rect x="17" y="1" width="1" height="1" fill="#1f94df" fill-opacity="0.969"/>
<rect x="18" y="1" width="1" height="1" fill="#1f95e3" fill-opacity="0.102"/>
<rect x="19" y="1" width="1" height="1" fill="#1a92de" fill-opacity="0.969"/>
<rect x="20" y="1" width="1" height="1" fill="#1e93de" fill-opacity="0.969"/>
<rect x="21" y="1" width="1" height="1" fill="#2098e2" fill-opacity="0.067"/>
<rect x="0" y="2" width="1" height="1" fill="#20a7ff" fill-opacity="0.067"/>
<rect x="1" y="2" width="1" height="1" fill="#1aa0f5" fill-opacity="0.969"/>
<rect x="2" y="2" width="1" height="1" fill="#1aaafe"/>
<rect x="3" y="2" width="1" height="1" fill="#1a96e4" fill-opacity="0.969"/>
<rect x="4" y="2" width="1" height="1" fill="#2098e2" fill-opacity="0.067"/>
<rect x="7" y="2" width="1" height="1" fill="#1e90c8" fill-opacity="0.035"/>
<rect x="8" y="2" width="1" height="1" fill="#2098e2" fill-opacity="0.067"/>
<rect x="9" y="2" width="1" height="1" fill="#1f93de" fill-opacity="0.969"/>
<rect x="10" y="2" width="1" height="1" fill="#1f93de" fill-opacity="0.984"/>
<rect x="11" y="2" width="1" height="1" fill="#1f94df" fill-opacity="0.984"/>
<rect x="12" y="2" width="1" height="1" fill="#46c3ff"/>
<rect x="13" y="2" width="1" height="1" fill="#f8fdff"/>
<rect x="14" y="2" width="1" height="1" fill="#feffff"/>
<rect x="15" y="2" width="1" height="1" fill="#fdffff"/>
<rect x="16" y="2" width="1" height="1" fill="#d4faff"/>
<rect x="17" y="2" width="1" height="1" fill="#a1e5fe"/>
<rect x="18" y="2" width="1" height="1" fill="#2095df" fill-opacity="0.984"/>
<rect x="19" y="2" width="1" height="1" fill="#2db8fe"/>
<rect x="20" y="2" width="1" height="1" fill="#ccf6fe"/>
<rect x="21" y="2" width="1" height="1" fill="#2194df" fill-opacity="0.969"/>
<rect x="22" y="2" width="1" height="1" fill="#2098e2" fill-opacity="0.067"/>
<rect x="0" y="3" width="1" height="1" fill="#1a9ef1" fill-opacity="0.969"/>
<rect x="1" y="3" width="1" height="1" fill="#1aaefe"/>
<rect x="2" y="3" width="1" height="1" fill="#1a91e2" fill-opacity="0.984"/>
<rect x="3" y="3" width="1" height="1" fill="#2098e2" fill-opacity="0.067"/>
<rect x="6" y="3" width="1" height="1" fill="#2098e2" fill-opacity="0.067"/>
<rect x="7" y="3" width="1" height="1" fill="#1f93de" fill-opacity="0.969"/>
<rect x="8" y="3" width="1" height="1" fill="#2295df" fill-opacity="0.984"/>
<rect x="9" y="3" width="1" height="1" fill="#f7fbfe"/>
<rect x="10" y="3" width="1" height="1" fill="#fbfdff"/>
<rect x="11" y="3" width="1" height="1" fill="#fbfdff"/>
<rect x="12" y="3" width="1" height="1" fill="#f6fdff"/>
<rect x="13" y="3" width="1" height="1" fill="#51c9ff"/>
<rect x="14" y="3" width="1" height="1" fill="#fcfeff"/>
<rect x="15" y="3" width="1" height="1" fill="#ffffff"/>
<rect x="16" y="3" width="1" height="1" fill="#feffff"/>
<rect x="17" y="3" width="1" height="1" fill="#d5faff"/>
<rect x="18" y="3" width="1" height="1" fill="#b7efff"/>
<rect x="19" y="3" width="1" height="1" fill="#2cb6ff"/>
<rect x="20" y="3" width="1" height="1" fill="#f9feff"/>
<rect x="21" y="3" width="1" height="1" fill="#afe9fe"/>
<rect x="22" y="3" width="1" height="1" fill="#1d92de" fill-opacity="0.969"/>
<rect x="23" y="3" width="1" height="1" fill="#1e90e4" fill-opacity="0.035"/>
<rect x="25" y="3" width="1" height="1" fill="#5151ff" fill-opacity="0.035"/>
<rect x="0" y="4" width="1" height="1" fill="#1aafff" fill-opacity="0.984"/>
<rect x="1" y="4" width="1" height="1" fill="#1aafff"/>
<rect x="2" y="4" width="1" height="1" fill="#1a8bd8" fill-opacity="0.984"/>
<rect x="3" y="4" width="1" height="1" fill="#1e90e4" fill-opacity="0.035"/>
<rect x="5" y="4" width="1" height="1" fill="#2089d3" fill-opacity="0.067"/>
<rect x="6" y="4" width="1" height="1" fill="#2094df" fill-opacity="0.969"/>
<rect x="7" y="4" width="1" height="1" fill="#f6fbfe"/>
<rect x="8" y="4" width="1" height="1" fill="#fbfdff"/>
<rect x="9" y="4" width="1" height="1" fill="#ffffff"/>
<rect x="10" y="4" width="1" height="1" fill="#ffffff"/>
<rect x="11" y="4" width="1" height="1" fill="#ffffff"/>
<rect x="12" y="4" width="1" height="1" fill="#f8feff"/>
<rect x="13" y="4" width="1" height="1" fill="#4ec8ff"/>
<rect x="14" y="4" width="1" height="1" fill="#fcfeff"/>
<rect x="15" y="4" width="1" height="1" fill="#ffffff"/>
<rect x="16" y="4" width="1" height="1" fill="#ffffff"/>
<rect x="17" y="4" width="1" height="1" fill="#feffff"/>
<rect x="18" y="4" width="1" height="1" fill="#cbf5ff"/>
<rect x="19" y="4" width="1" height="1" fill="#3bc2ff"/>
<rect x="20" y="4" width="1" height="1" fill="#fbfeff"/>
<rect x="21" y="4" width="1" height="1" fill="#d5f8ff"/>
<rect x="22" y="4" width="1" height="1" fill="#2094df" fill-opacity="0.984"/>
<rect x="23" y="4" width="1" height="1" fill="#2098e2" fill-opacity="0.067"/>
<rect x="25" y="4" width="1" height="1" fill="#516dff" fill-opacity="0.035"/>
<rect x="0" y="5" width="1" height="1" fill="#1aafff" fill-opacity="0.984"/>
<rect x="1" y="5" width="1" height="1" fill="#1aafff"/>
<rect x="2" y="5" width="1" height="1" fill="#1a8bd8" fill-opacity="0.984"/>
<rect x="3" y="5" width="1" height="1" fill="#1e90e4" fill-opacity="0.035"/>
<rect x="4" y="5" width="1" height="1" fill="#1e90c8" fill-opacity="0.035"/>
<rect x="5" y="5" width="1" height="1" fill="#1b85cc" fill-opacity="0.969"/>
<rect x="6" y="5" width="1" height="1" fill="#73d4fd"/>
<rect x="7" y="5" width="1" height="1" fill="#bdeeff"/>
<rect x="8" y="5" width="1" height="1" fill="#d5faff"/>
<rect x="9" y="5" width="1" height="1" fill="#f8ffff"/>
<rect x="10" y="5" width="1" height="1" fill="#ffffff"/>
<rect x="11" y="5" width="1" height="1" fill="#ffffff"/>
<rect x="12" y="5" width="1" height="1" fill="#f8feff"/>
<rect x="13" y="5" width="1" height="1" fill="#4dcaff"/>
<rect x="14" y="5" width="1" height="1" fill="#fcfeff"/>
<rect x="15" y="5" width="1" height="1" fill="#ffffff"/>
<rect x="16" y="5" width="1" height="1" fill="#ffffff"/>
<rect x="17" y="5" width="1" height="1" fill="#feffff"/>
<rect x="18" y="5" width="1" height="1" fill="#b1ecff"/>
<rect x="19" y="5" width="1" height="1" fill="#3ec3ff"/>
<rect x="20" y="5" width="1" height="1" fill="#fbfeff"/>
<rect x="21" y="5" width="1" height="1" fill="#e2fdff"/>
<rect x="22" y="5" width="1" height="1" fill="#87dbfe"/>
<rect x="23" y="5" width="1" height="1" fill="#1d92de" fill-opacity="0.969"/>
<rect x="24" y="5" width="1" height="1" fill="#1e90e4" fill-opacity="0.035"/>
<rect x="25" y="5" width="1" height="1" fill="#516dff" fill-opacity="0.035"/>
<rect x="0" y="6" width="1" height="1" fill="#1aafff" fill-opacity="0.969"/>
<rect x="1" y="6" width="1" height="1" fill="#1aaefe"/>
<rect x="2" y="6" width="1" height="1" fill="#1a8fdc" fill-opacity="0.984"/>
<rect x="3" y="6" width="1" height="1" fill="#2098e2" fill-opacity="0.067"/>
<rect x="4" y="6" width="1" height="1" fill="#369bcd" fill-opacity="0.039"/>
<rect x="5" y="6" width="1" height="1" fill="#1a83ca" fill-opacity="0.984"/>
<rect x="6" y="6" width="1" height="1" fill="#1b91d8" fill-opacity="0.984"/>
<rect x="7" y="6" width="1" height="1" fill="#1f92d9" fill-opacity="0.984"/>
<rect x="8" y="6" width="1" height="1" fill="#74d5fe"/>
<rect x="9" y="6" width="1" height="1" fill="#9ee4ff"/>
<rect x="10" y="6" width="1" height="1" fill="#dbfcff"/>
<rect x="11" y="6" width="1" height="1" fill="#dcfcff"/>
<rect x="12" y="6" width="1" height="1" fill="#f4fdff"/>
<rect x="13" y="6" width="1" height="1" fill="#50caff"/>
<rect x="14" y="6" width="1" height="1" fill="#fcfeff"/>
<rect x="15" y="6" width="1" height="1" fill="#ffffff"/>
<rect x="16" y="6" width="1" height="1" fill="#ffffff"/>
<rect x="17" y="6" width="1" height="1" fill="#fdfeff"/>
<rect x="18" y="6" width="1" height="1" fill="#70d5ff"/>
<rect x="19" y="6" width="1" height="1" fill="#e4fdff"/>
<rect x="20" y="6" width="1" height="1" fill="#feffff"/>
<rect x="21" y="6" width="1" height="1" fill="#e1fdff"/>
<rect x="22" y="6" width="1" height="1" fill="#7fd9ff"/>
<rect x="23" y="6" width="1" height="1" fill="#1d92de" fill-opacity="0.984"/>
<rect x="24" y="6" width="1" height="1" fill="#1e90e4" fill-opacity="0.035"/>
<rect x="25" y="6" width="1" height="1" fill="#516dff" fill-opacity="0.035"/>
<rect x="0" y="7" width="1" height="1" fill="#20a7f0" fill-opacity="0.067"/>
<rect x="1" y="7" width="1" height="1" fill="#1a97eb" fill-opacity="0.969"/>
<rect x="2" y="7" width="1" height="1" fill="#1aa8fd"/>
<rect x="3" y="7" width="1" height="1" fill="#1a8ddb" fill-opacity="0.969"/>
<rect x="4" y="7" width="1" height="1" fill="#6ec4ee" fill-opacity="0.227"/>
<rect x="5" y="7" width="1" height="1" fill="#1a84cb" fill-opacity="0.953"/>
<rect x="6" y="7" width="1" height="1" fill="#2098d3" fill-opacity="0.067"/>
<rect x="7" y="7" width="1" height="1" fill="#2098e2" fill-opacity="0.067"/>
<rect x="8" y="7" width="1" height="1" fill="#1b92de" fill-opacity="0.969"/>
<rect x="9" y="7" width="1" height="1" fill="#2093de"/>
<rect x="10" y="7" width="1" height="1" fill="#bceffe"/>
<rect x="11" y="7" width="1" height="1" fill="#e0fdff"/>
<rect x="12" y="7" width="1" height="1" fill="#69d2ff"/>
<rect x="13" y="7" width="1" height="1" fill="#ebfdff"/>
<rect x="14" y="7" width="1" height="1" fill="#ffffff"/>
<rect x="15" y="7" width="1" height="1" fill="#ffffff"/>
<rect x="16" y="7" width="1" height="1" fill="#ffffff"/>
<rect x="17" y="7" width="1" height="1" fill="#fdffff"/>
<rect x="18" y="7" width="1" height="1" fill="#a3e5ff"/>
<rect x="19" y="7" width="1" height="1" fill="#fdffff"/>
<rect x="20" y="7" width="1" height="1" fill="#ffffff"/>
<rect x="21" y="7" width="1" height="1" fill="#dcfbff"/>
<rect x="22" y="7" width="1" height="1" fill="#79d7ff"/>
<rect x="23" y="7" width="1" height="1" fill="#1b92de" fill-opacity="0.984"/>
<rect x="24" y="7" width="1" height="1" fill="#1e90e4" fill-opacity="0.035"/>
<rect x="1" y="8" width="1" height="1" fill="#2098e2" fill-opacity="0.067"/>
<rect x="2" y="8" width="1" height="1" fill="#1a8dd8" fill-opacity="0.969"/>
<rect x="3" y="8" width="1" height="1" fill="#1a8dd8" fill-opacity="0.984"/>
<rect x="4" y="8" width="1" height="1" fill="#1a8dd8" fill-opacity="0.953"/>
<rect x="5" y="8" width="1" height="1" fill="#2089d3" fill-opacity="0.067"/>
<rect x="8" y="8" width="1" height="1" fill="#2089c4" fill-opacity="0.067"/>
<rect x="9" y="8" width="1" height="1" fill="#1a77bb" fill-opacity="0.984"/>
<rect x="10" y="8" width="1" height="1" fill="#2094de"/>
<rect x="11" y="8" width="1" height="1" fill="#bbeefe"/>
<rect x="12" y="8" width="1" height="1" fill="#78d7ff"/>
<rect x="13" y="8" width="1" height="1" fill="#e3feff"/>
<rect x="14" y="8" width="1" height="1" fill="#ffffff"/>
<rect x="15" y="8" width="1" height="1" fill="#ffffff"/>
<rect x="16" y="8" width="1" height="1" fill="#feffff"/>
<rect x="17" y="8" width="1" height="1" fill="#c8f4ff"/>
<rect x="18" y="8" width="1" height="1" fill="#fdffff"/>
<rect x="19" y="8" width="1" height="1" fill="#ffffff"/>
<rect x="20" y="8" width="1" height="1" fill="#f6ffff"/>
<rect x="21" y="8" width="1" height="1" fill="#d3faff"/>
<rect x="22" y="8" width="1" height="1" fill="#77d5ff"/>
<rect x="23" y="8" width="1" height="1" fill="#1b92de" fill-opacity="0.984"/>
<rect x="24" y="8" width="1" height="1" fill="#1e90e4" fill-opacity="0.035"/>
<rect x="2" y="9" width="1" height="1" fill="#1e90c8" fill-opacity="0.035"/>
<rect x="3" y="9" width="1" height="1" fill="#1e90e4" fill-opacity="0.035"/>
<rect x="4" y="9" width="1" height="1" fill="#1e90c8" fill-opacity="0.035"/>
<rect x="8" y="9" width="1" height="1" fill="#1e73ac" fill-opacity="0.035"/>
<rect x="9" y="9" width="1" height="1" fill="#1a76b9" fill-opacity="0.984"/>
<rect x="10" y="9" width="1" height="1" fill="#1a97e7"/>
<rect x="11" y="9" width="1" height="1" fill="#2194df"/>
<rect x="12" y="9" width="1" height="1" fill="#dcfdff"/>
<rect x="13" y="9" width="1" height="1" fill="#feffff"/>
<rect x="14" y="9" width="1" height="1" fill="#ffffff"/>
<rect x="15" y="9" width="1" height="1" fill="#ffffff"/>
<rect x="16" y="9" width="1" height="1" fill="#ffffff"/>
<rect x="17" y="9" width="1" height="1" fill="#feffff"/>
<rect x="18" y="9" width="1" height="1" fill="#ffffff"/>
<rect x="19" y="9" width="1" height="1" fill="#f6ffff"/>
<rect x="20" y="9" width="1" height="1" fill="#e3feff"/>
<rect x="21" y="9" width="1" height="1" fill="#d2faff"/>
<rect x="22" y="9" width="1" height="1" fill="#77d5ff"/>
<rect x="23" y="9" width="1" height="1" fill="#1b92de" fill-opacity="0.984"/>
<rect x="24" y="9" width="1" height="1" fill="#2098e2" fill-opacity="0.067"/>
<rect x="4" y="10" width="1" height="1" fill="#1e90c8" fill-opacity="0.035"/>
<rect x="5" y="10" width="1" height="1" fill="#1e90e4" fill-opacity="0.035"/>
<rect x="6" y="10" width="1" height="1" fill="#1e90c8" fill-opacity="0.035"/>
<rect x="7" y="10" width="1" height="1" fill="#0000ff" fill-opacity="0.004"/>
<rect x="8" y="10" width="1" height="1" fill="#2089d3" fill-opacity="0.067"/>
<rect x="9" y="10" width="1" height="1" fill="#1a85cc" fill-opacity="0.984"/>
<rect x="10" y="10" width="1" height="1" fill="#1a9ff5"/>
<rect x="11" y="10" width="1" height="1" fill="#1e93df"/>
<rect x="12" y="10" width="1" height="1" fill="#dcfcff"/>
<rect x="13" y="10" width="1" height="1" fill="#feffff"/>
<rect x="14" y="10" width="1" height="1" fill="#fbfdfe"/>
<rect x="15" y="10" width="1" height="1" fill="#eafdfe"/>
<rect x="16" y="10" width="1" height="1" fill="#e9fdfe"/>
<rect x="17" y="10" width="1" height="1" fill="#e9fdfe"/>
<rect x="18" y="10" width="1" height="1" fill="#e1feff"/>
<rect x="19" y="10" width="1" height="1" fill="#e4ffff"/>
<rect x="20" y="10" width="1" height="1" fill="#cef8ff"/>
<rect x="21" y="10" width="1" height="1" fill="#c1f4ff"/>
<rect x="22" y="10" width="1" height="1" fill="#87dcff"/>
<rect x="23" y="10" width="1" height="1" fill="#2094df"/>
<rect x="24" y="10" width="1" height="1" fill="#1a91de" fill-opacity="0.969"/>
<rect x="25" y="10" width="1" height="1" fill="#1e90e4" fill-opacity="0.035"/>
<rect x="3" y="11" width="1" height="1" fill="#1e90e4" fill-opacity="0.035"/>
<rect x="4" y="11" width="1" height="1" fill="#1a91de" fill-opacity="0.965"/>
<rect x="5" y="11" width="1" height="1" fill="#1f92db" fill-opacity="0.984"/>
<rect x="6" y="11" width="1" height="1" fill="#1f93da" fill-opacity="0.969"/>
<rect x="7" y="11" width="1" height="1" fill="#1f8bcf" fill-opacity="0.102"/>
<rect x="8" y="11" width="1" height="1" fill="#1a84ca" fill-opacity="0.969"/>
<rect x="9" y="11" width="1" height="1" fill="#1a9ef5"/>
<rect x="10" y="11" width="1" height="1" fill="#1a9ff6"/>
<rect x="11" y="11" width="1" height="1" fill="#1e93df"/>
<rect x="12" y="11" width="1" height="1" fill="#dbfcff"/>
<rect x="13" y="11" width="1" height="1" fill="#c9f6fd"/>
<rect x="14" y="11" width="1" height="1" fill="#2487ca"/>
<rect x="15" y="11" width="1" height="1" fill="#1f84ca"/>
<rect x="16" y="11" width="1" height="1" fill="#1f86c9"/>
<rect x="17" y="11" width="1" height="1" fill="#2187ca"/>
<rect x="18" y="11" width="1" height="1" fill="#d5f9fd"/>
<rect x="19" y="11" width="1" height="1" fill="#caf6ff"/>
<rect x="20" y="11" width="1" height="1" fill="#cbf8ff"/>
<rect x="21" y="11" width="1" height="1" fill="#b2eeff"/>
<rect x="22" y="11" width="1" height="1" fill="#33b6fc"/>
<rect x="23" y="11" width="1" height="1" fill="#e2fafe"/>
<rect x="24" y="11" width="1" height="1" fill="#1f93de" fill-opacity="0.984"/>
<rect x="25" y="11" width="1" height="1" fill="#1e90e4" fill-opacity="0.035"/>
<rect x="3" y="12" width="1" height="1" fill="#1e90e4" fill-opacity="0.035"/>
<rect x="4" y="12" width="1" height="1" fill="#1f92db" fill-opacity="0.984"/>
<rect x="5" y="12" width="1" height="1" fill="#f7ef0f"/>
<rect x="6" y="12" width="1" height="1" fill="#f7ef0f"/>
<rect x="7" y="12" width="1" height="1" fill="#2186c2" fill-opacity="0.984"/>
<rect x="8" y="12" width="1" height="1" fill="#1aa6fc"/>
<rect x="9" y="12" width="1" height="1" fill="#1aaeff"/>
<rect x="10" y="12" width="1" height="1" fill="#1a9ff6"/>
<rect x="11" y="12" width="1" height="1" fill="#1e93df"/>
<rect x="12" y="12" width="1" height="1" fill="#caf4fd"/>
<rect x="13" y="12" width="1" height="1" fill="#2689cc"/>
<rect x="14" y="12" width="1" height="1" fill="#ade7fd"/>
<rect x="15" y="12" width="1" height="1" fill="#4cc4fd"/>
<rect x="16" y="12" width="1" height="1" fill="#4ac3fd"/>
<rect x="17" y="12" width="1" height="1" fill="#1bb5fd"/>
<rect x="18" y="12" width="1" height="1" fill="#2183c5"/>
<rect x="19" y="12" width="1" height="1" fill="#c2f3fd"/>
<rect x="20" y="12" width="1" height="1" fill="#a9eaff"/>
<rect x="21" y="12" width="1" height="1" fill="#56cbff"/>
<rect x="22" y="12" width="1" height="1" fill="#caf4ff"/>
<rect x="23" y="12" width="1" height="1" fill="#98e2ff"/>
<rect x="24" y="12" width="1" height="1" fill="#1d92de" fill-opacity="0.984"/>
<rect x="25" y="12" width="1" height="1" fill="#1e90e4" fill-opacity="0.035"/>
<rect x="3" y="13" width="1" height="1" fill="#2089e2" fill-opacity="0.067"/>
<rect x="4" y="13" width="1" height="1" fill="#2194dc" fill-opacity="0.984"/>
<rect x="5" y="13" width="1" height="1" fill="#f8ef0f"/>
<rect x="6" y="13" width="1" height="1" fill="#fff108"/>
<rect x="7" y="13" width="1" height="1" fill="#f8d10e"/>
<rect x="8" y="13" width="1" height="1" fill="#217bb5"/>
<rect x="9" y="13" width="1" height="1" fill="#1aadfd"/>
<rect x="10" y="13" width="1" height="1" fill="#1aafff"/>
<rect x="11" y="13" width="1" height="1" fill="#1aa3f9"/>
<rect x="12" y="13" width="1" height="1" fill="#2085ca"/>
<rect x="13" y="13" width="1" height="1" fill="#ade9fd"/>
<rect x="14" y="13" width="1" height="1" fill="#3ec1fe"/>
<rect x="15" y="13" width="1" height="1" fill="#1b88cf"/>
<rect x="16" y="13" width="1" height="1" fill="#1b87ce"/>
<rect x="17" y="13" width="1" height="1" fill="#25bbfd"/>
<rect x="18" y="13" width="1" height="1" fill="#1ab4fd"/>
<rect x="19" y="13" width="1" height="1" fill="#2085ca"/>
<rect x="20" y="13" width="1" height="1" fill="#96e2fe"/>
<rect x="21" y="13" width="1" height="1" fill="#c2f1ff"/>
<rect x="22" y="13" width="1" height="1" fill="#a0e4ff"/>
<rect x="23" y="13" width="1" height="1" fill="#96e1ff"/>
<rect x="24" y="13" width="1" height="1" fill="#1d92de" fill-opacity="0.984"/>
<rect x="25" y="13" width="1" height="1" fill="#1e90e4" fill-opacity="0.035"/>
<rect x="2" y="14" width="1" height="1" fill="#207ac4" fill-opacity="0.067"/>
<rect x="3" y="14" width="1" height="1" fill="#2285ca" fill-opacity="0.969"/>
<rect x="4" y="14" width="1" height="1" fill="#f4f9fd"/>
<rect x="5" y="14" width="1" height="1" fill="#298ac8"/>
<rect x="6" y="14" width="1" height="1" fill="#f8d00e"/>
<rect x="7" y="14" width="1" height="1" fill="#ffd108"/>
<rect x="8" y="14" width="1" height="1" fill="#f8cf0e"/>
<rect x="9" y="14" width="1" height="1" fill="#217ab5"/>
<rect x="10" y="14" width="1" height="1" fill="#1aa2f8"/>
<rect x="11" y="14" width="1" height="1" fill="#1aa3f9"/>
<rect x="12" y="14" width="1" height="1" fill="#1b83ca"/>
<rect x="13" y="14" width="1" height="1" fill="#5ecdfd"/>
<rect x="14" y="14" width="1" height="1" fill="#1d8ad5"/>
<rect x="15" y="14" width="1" height="1" fill="#26bbfd"/>
<rect x="16" y="14" width="1" height="1" fill="#26bbfd"/>
<rect x="17" y="14" width="1" height="1" fill="#1a88d0"/>
<rect x="18" y="14" width="1" height="1" fill="#1ab4fd"/>
<rect x="19" y="14" width="1" height="1" fill="#1d83ca"/>
<rect x="20" y="14" width="1" height="1" fill="#88defe"/>
<rect x="21" y="14" width="1" height="1" fill="#94e0ff"/>
<rect x="22" y="14" width="1" height="1" fill="#93e0ff"/>
<rect x="23" y="14" width="1" height="1" fill="#71d3fe"/>
<rect x="24" y="14" width="1" height="1" fill="#1b92de" fill-opacity="0.969"/>
<rect x="25" y="14" width="1" height="1" fill="#1e90e4" fill-opacity="0.035"/>
<rect x="1" y="15" width="1" height="1" fill="#2089d3" fill-opacity="0.067"/>
<rect x="2" y="15" width="1" height="1" fill="#2187c9" fill-opacity="0.969"/>
<rect x="3" y="15" width="1" height="1" fill="#f6fbfd"/>
<rect x="4" y="15" width="1" height="1" fill="#d3feff"/>
<rect x="5" y="15" width="1" height="1" fill="#b1ecfd"/>
<rect x="6" y="15" width="1" height="1" fill="#277cb5"/>
<rect x="7" y="15" width="1" height="1" fill="#f8c00e"/>
<rect x="8" y="15" width="1" height="1" fill="#ffc208"/>
<rect x="9" y="15" width="1" height="1" fill="#f7c00e"/>
<rect x="10" y="15" width="1" height="1" fill="#1f7bb9"/>
<rect x="11" y="15" width="1" height="1" fill="#1aa2f8"/>
<rect x="12" y="15" width="1" height="1" fill="#1b83ca"/>
<rect x="13" y="15" width="1" height="1" fill="#49c6fd"/>
<rect x="14" y="15" width="1" height="1" fill="#1b88d2"/>
<rect x="15" y="15" width="1" height="1" fill="#26bbfd"/>
<rect x="16" y="15" width="1" height="1" fill="#26bbfd"/>
<rect x="17" y="15" width="1" height="1" fill="#1a87ce"/>
<rect x="18" y="15" width="1" height="1" fill="#1ab4fd"/>
<rect x="19" y="15" width="1" height="1" fill="#1b83ca"/>
<rect x="20" y="15" width="1" height="1" fill="#70d3fe"/>
<rect x="21" y="15" width="1" height="1" fill="#73d5ff"/>
<rect x="22" y="15" width="1" height="1" fill="#6fd2fe"/>
<rect x="23" y="15" width="1" height="1" fill="#1e93df" fill-opacity="0.969"/>
<rect x="24" y="15" width="1" height="1" fill="#2098e2" fill-opacity="0.067"/>
<rect x="0" y="16" width="1" height="1" fill="#2089d3" fill-opacity="0.067"/>
<rect x="1" y="16" width="1" height="1" fill="#1e88d0" fill-opacity="0.969"/>
<rect x="2" y="16" width="1" height="1" fill="#d8f9fc"/>
<rect x="3" y="16" width="1" height="1" fill="#caf8fe"/>
<rect x="4" y="16" width="1" height="1" fill="#b4eefe"/>
<rect x="5" y="16" width="1" height="1" fill="#a1e5fe"/>
<rect x="6" y="16" width="1" height="1" fill="#78d3fc"/>
<rect x="7" y="16" width="1" height="1" fill="#247cb5"/>
<rect x="8" y="16" width="1" height="1" fill="#f7a407"/>
<rect x="9" y="16" width="1" height="1" fill="#f7a407"/>
<rect x="10" y="16" width="1" height="1" fill="#1f7ab8"/>
<rect x="11" y="16" width="1" height="1" fill="#1aa1f8"/>
<rect x="12" y="16" width="1" height="1" fill="#1a82ca"/>
<rect x="13" y="16" width="1" height="1" fill="#1bb7fd"/>
<rect x="14" y="16" width="1" height="1" fill="#24b9fd"/>
<rect x="15" y="16" width="1" height="1" fill="#1a84ca"/>
<rect x="16" y="16" width="1" height="1" fill="#1a84ca"/>
<rect x="17" y="16" width="1" height="1" fill="#22b8fd"/>
<rect x="18" y="16" width="1" height="1" fill="#1ab4fd"/>
<rect x="19" y="16" width="1" height="1" fill="#1b7fc4"/>
<rect x="20" y="16" width="1" height="1" fill="#70d2fe"/>
<rect x="21" y="16" width="1" height="1" fill="#6bd2fe"/>
<rect x="22" y="16" width="1" height="1" fill="#1e93de" fill-opacity="0.984"/>
<rect x="23" y="16" width="1" height="1" fill="#1f8bd9" fill-opacity="0.102"/>
<rect x="24" y="16" width="1" height="1" fill="#0000ff" fill-opacity="0.004"/>
<rect x="0" y="17" width="1" height="1" fill="#1a85cf" fill-opacity="0.969"/>
<rect x="1" y="17" width="1" height="1" fill="#1b86cf"/>
<rect x="2" y="17" width="1" height="1" fill="#1f87d0"/>
<rect x="3" y="17" width="1" height="1" fill="#1f87d0"/>
<rect x="4" y="17" width="1" height="1" fill="#1f87d0"/>
<rect x="5" y="17" width="1" height="1" fill="#1e87d0"/>
<rect x="6" y="17" width="1" height="1" fill="#1e87d0"/>
<rect x="7" y="17" width="1" height="1" fill="#1b86cf"/>
<rect x="8" y="17" width="1" height="1" fill="#2078b7"/>
<rect x="9" y="17" width="1" height="1" fill="#1f78b6"/>
<rect x="10" y="17" width="1" height="1" fill="#1b77b9"/>
<rect x="11" y="17" width="1" height="1" fill="#1a86d0"/>
<rect x="12" y="17" width="1" height="1" fill="#1a8edc"/>
<rect x="13" y="17" width="1" height="1" fill="#1a84ca"/>
<rect x="14" y="17" width="1" height="1" fill="#1ab3fd"/>
<rect x="15" y="17" width="1" height="1" fill="#1ab3fd"/>
<rect x="16" y="17" width="1" height="1" fill="#1ab3fd"/>
<rect x="17" y="17" width="1" height="1" fill="#1ab3fd"/>
<rect x="18" y="17" width="1" height="1" fill="#1a7dc0"/>
<rect x="19" y="17" width="1" height="1" fill="#1a8bd7"/>
<rect x="20" y="17" width="1" height="1" fill="#1b8dd8"/>
<rect x="21" y="17" width="1" height="1" fill="#1b8cd8"/>
<rect x="22" y="17" width="1" height="1" fill="#1a88d4"/>
<rect x="23" y="17" width="1" height="1" fill="#1a91de" fill-opacity="0.969"/>
<rect x="24" y="17" width="1" height="1" fill="#1e90e4" fill-opacity="0.035"/>
<rect x="25" y="17" width="1" height="1" fill="#5151e2" fill-opacity="0.035"/>
<rect x="0" y="18" width="1" height="1" fill="#1b82c9" fill-opacity="0.984"/>
<rect x="1" y="18" width="1" height="1" fill="#5fccfc"/>
<rect x="2" y="18" width="1" height="1" fill="#61cdfd"/>
<rect x="3" y="18" width="1" height="1" fill="#61cdfd"/>
<rect x="4" y="18" width="1" height="1" fill="#61cdfd"/>
<rect x="5" y="18" width="1" height="1" fill="#61cdfd"/>
<rect x="6" y="18" width="1" height="1" fill="#61cdfd"/>
<rect x="7" y="18" width="1" height="1" fill="#5ccafd"/>
<rect x="8" y="18" width="1" height="1" fill="#4cc6fd"/>
<rect x="9" y="18" width="1" height="1" fill="#4bc4fd"/>
<rect x="10" y="18" width="1" height="1" fill="#40c2fd"/>
<rect x="11" y="18" width="1" height="1" fill="#26bbfd"/>
<rect x="12" y="18" width="1" height="1" fill="#26bbfe"/>
<rect x="13" y="18" width="1" height="1" fill="#26b9fc"/>
<rect x="14" y="18" width="1" height="1" fill="#1a83ca" fill-opacity="0.984"/>
<rect x="15" y="18" width="1" height="1" fill="#1a82c9" fill-opacity="0.984"/>
<rect x="16" y="18" width="1" height="1" fill="#1a82c9" fill-opacity="0.984"/>
<rect x="17" y="18" width="1" height="1" fill="#1a83ca" fill-opacity="0.984"/>
<rect x="18" y="18" width="1" height="1" fill="#1aadfc"/>
<rect x="19" y="18" width="1" height="1" fill="#1aaefe"/>
<rect x="20" y="18" width="1" height="1" fill="#1aaefe"/>
<rect x="21" y="18" width="1" height="1" fill="#1aaefe"/>
<rect x="22" y="18" width="1" height="1" fill="#1aadfd"/>
<rect x="23" y="18" width="1" height="1" fill="#1a91de" fill-opacity="0.984"/>
<rect x="24" y="18" width="1" height="1" fill="#1e90e4" fill-opacity="0.035"/>
<rect x="25" y="18" width="1" height="1" fill="#5151c5" fill-opacity="0.035"/>
<rect x="0" y="19" width="1" height="1" fill="#1a81c8" fill-opacity="0.965"/>
<rect x="1" y="19" width="1" height="1" fill="#1b82c9" fill-opacity="0.984"/>
<rect x="2" y="19" width="1" height="1" fill="#1b82c9" fill-opacity="0.984"/>
<rect x="3" y="19" width="1" height="1" fill="#1b82c9" fill-opacity="0.984"/>
<rect x="4" y="19" width="1" height="1" fill="#1b82c9" fill-opacity="0.984"/>
<rect x="5" y="19" width="1" height="1" fill="#1b82c9" fill-opacity="0.984"/>
<rect x="6" y="19" width="1" height="1" fill="#1b82c9" fill-opacity="0.984"/>
<rect x="7" y="19" width="1" height="1" fill="#1b82c9" fill-opacity="0.984"/>
<rect x="8" y="19" width="1" height="1" fill="#1b82c9" fill-opacity="0.988"/>
<rect x="9" y="19" width="1" height="1" fill="#1b82c9" fill-opacity="0.984"/>
<rect x="10" y="19" width="1" height="1" fill="#1a82c9" fill-opacity="0.984"/>
<rect x="11" y="19" width="1" height="1" fill="#1a82c9" fill-opacity="0.984"/>
<rect x="12" y="19" width="1" height="1" fill="#1a82c9" fill-opacity="0.984"/>
<rect x="13" y="19" width="1" height="1" fill="#1a82c8" fill-opacity="0.969"/>
<rect x="14" y="19" width="1" height="1" fill="#207ad3" fill-opacity="0.067"/>
<rect x="15" y="19" width="1" height="1" fill="#1e73c8" fill-opacity="0.035"/>
<rect x="16" y="19" width="1" height="1" fill="#1e73c8" fill-opacity="0.035"/>
<rect x="17" y="19" width="1" height="1" fill="#207ad3" fill-opacity="0.067"/>
<rect x="18" y="19" width="1" height="1" fill="#1a82c8" fill-opacity="0.969"/>
<rect x="19" y="19" width="1" height="1" fill="#1a82c9" fill-opacity="0.984"/>
<rect x="20" y="19" width="1" height="1" fill="#1a82c9" fill-opacity="0.984"/>
<rect x="21" y="19" width="1" height="1" fill="#1a82c9" fill-opacity="0.984"/>
<rect x="22" y="19" width="1" height="1" fill="#1a82c9" fill-opacity="0.984"/>
<rect x="23" y="19" width="1" height="1" fill="#1a81c8" fill-opacity="0.965"/>
<rect x="24" y="19" width="1" height="1" fill="#1e73c8" fill-opacity="0.035"/>
<rect x="25" y="19" width="1" height="1" fill="#5151c5" fill-opacity="0.035"/>
<rect x="0" y="20" width="1" height="1" fill="#1e73c8" fill-opacity="0.035"/>
<rect x="1" y="20" width="1" height="1" fill="#1e73c8" fill-opacity="0.035"/>
<rect x="2" y="20" width="1" height="1" fill="#1e73c8" fill-opacity="0.035"/>
<rect x="3" y="20" width="1" height="1" fill="#1e73c8" fill-opacity="0.035"/>
<rect x="4" y="20" width="1" height="1" fill="#884ce2" fill-opacity="0.067"/>
<rect x="5" y="20" width="1" height="1" fill="#1e73c8" fill-opacity="0.035"/>
<rect x="6" y="20" width="1" height="1" fill="#1e73c8" fill-opacity="0.035"/>
<rect x="7" y="20" width="1" height="1" fill="#305fd2" fill-opacity="0.043"/>
<rect x="8" y="20" width="1" height="1" fill="#5f28f8" fill-opacity="0.275"/>
<rect x="9" y="20" width="1" height="1" fill="#305fd2" fill-opacity="0.043"/>
<rect x="10" y="20" width="1" height="1" fill="#1e73c8" fill-opacity="0.035"/>
<rect x="11" y="20" width="1" height="1" fill="#1e73c8" fill-opacity="0.035"/>
<rect x="12" y="20" width="1" height="1" fill="#1e73c8" fill-opacity="0.035"/>
<rect x="13" y="20" width="1" height="1" fill="#1e73c8" fill-opacity="0.035"/>
<rect x="17" y="20" width="1" height="1" fill="#ac1eac" fill-opacity="0.035"/>
<rect x="18" y="20" width="1" height="1" fill="#6548ba" fill-opacity="0.071"/>
<rect x="19" y="20" width="1" height="1" fill="#6548ba" fill-opacity="0.071"/>
<rect x="20" y="20" width="1" height="1" fill="#6548ba" fill-opacity="0.071"/>
<rect x="21" y="20" width="1" height="1" fill="#6548ba" fill-opacity="0.071"/>
<rect x="22" y="20" width="1" height="1" fill="#1e73c8" fill-opacity="0.035"/>
<rect x="23" y="20" width="1" height="1" fill="#1e73c8" fill-opacity="0.035"/>
</svg>