<?xml version="1.0" encoding="UTF-8" standalone="no"?>
<svg xmlns="http://www.w3.org/2000/svg" width="26" height="21" shape-rendering="crispEdges">
<rect x="2" y="0" width="1" height="1" fill="#5151ff" fill-opacity="0.035"/>
<rect x="3" y="0" width="1" height="1" fill="#5151ff" fill-opacity="0.035"/>
<rect x="4" y="0" width="1" height="1" fill="#5151e2" fill-opacity="0.035"/>
<rect x="10" y="0" width="1" height="1" fill="#5c5cde" fill-opacity="0.031"/>
<rect x="11" y="0" width="1" height="1" fill="#5055e1" fill-opacity="0.949"/>
<rect x="12" y="0" width="1" height="1" fill="#5055e1" fill-opacity="0.984"/>
<rect x="13" y="0" width="1" height="1" fill="#5357e1" fill-opacity="0.984"/>
<rect x="14" y="0" width="1" height="1" fill="#5357e1" fill-opacity="0.984"/>
<rect x="15" y="0" width="1" height="1" fill="#5257e1" fill-opacity="0.984"/>
<rect x="16" y="0" width="1" height="1" fill="#5256e1" fill-opacity="0.969"/>
<rect x="17" y="0" width="1" height="1" fill="#5656e0" fill-opacity="0.067"/>
<rect x="18" y="0" width="1" height="1" fill="#0000ff" fill-opacity="0.004"/>
<rect x="19" y="0" width="1" height="1" fill="#5151e2" fill-opacity="0.035"/>
<rect x="20" y="0" width="1" height="1" fill="#5151e2" fill-opacity="0.035"/>
<rect x="25" y="0" width="1" height="1" fill="#ffeff3" fill-opacity="0.02"/>
<rect x="1" y="1" width="1" height="1" fill="#5656ff" fill-opacity="0.067"/>
<rect x="2" y="1" width="1" height="1" fill="#535bff" fill-opacity="0.969"/>
<rect x="3" y="1" width="1" height="1" fill="#535bfe" fill-opacity="0.984"/>
<rect x="4" y="1" width="1" height="1" fill="#5056e8" fill-opacity="0.949"/>
<rect x="5" y="1" width="1" height="1" fill="#5c5cde" fill-opacity="0.031"/>
<rect x="9" y="1" width="1" height="1" fill="#5151e2" fill-opacity="0.035"/>
<rect x="10" y="1" width="1" height="1" fill="#5151e2" fill-opacity="0.035"/>
<rect x="11" y="1" width="1" height="1" fill="#5e68eb" fill-opacity="0.102"/>
<rect x="12" y="1" width="1" height="1" fill="#7382ff" fill-opacity="0.984"/>
<rect x="13" y="1" width="1" height="1" fill="#f4ebff"/>
<rect x="14" y="1" width="1" height="1" fill="#efeaff"/>
<rect x="15" y="1" width="1" height="1" fill="#d8d6ff"/>
<rect x="16" y="1" width="1" height="1" fill="#b0b3fe"/>
<rect x="17" y="1" width="1" height="1" fill="#5358e2" fill-opacity="0.969"/>
<rect x="18" y="1" width="1" height="1" fill="#5454e1" fill-opacity="0.102"/>
<rect x="19" y="1" width="1" height="1" fill="#5055e1" fill-opacity="0.969"/>
<rect x="20" y="1" width="1" height="1" fill="#5257e1" fill-opacity="0.969"/>
<rect x="21" y="1" width="1" height="1" fill="#5656e0" fill-opacity="0.067"/>
<rect x="0" y="2" width="1" height="1" fill="#5656ff" fill-opacity="0.067"/>
<rect x="1" y="2" width="1" height="1" fill="#5257f6" fill-opacity="0.969"/>
<rect x="2" y="2" width="1" height="1" fill="#535dff"/>
<rect x="3" y="2" width="1" height="1" fill="#5056e8" fill-opacity="0.969"/>
<rect x="4" y="2" width="1" height="1" fill="#5656e0" fill-opacity="0.067"/>
<rect x="7" y="2" width="1" height="1" fill="#5151e2" fill-opacity="0.035"/>
<rect x="8" y="2" width="1" height="1" fill="#5656e0" fill-opacity="0.067"/>
<rect x="9" y="2" width="1" height="1" fill="#5358e1" fill-opacity="0.969"/>
<rect x="10" y="2" width="1" height="1" fill="#5358e1" fill-opacity="0.984"/>
<rect x="11" y="2" width="1" height="1" fill="#5358e2" fill-opacity="0.984"/>
<rect x="12" y="2" width="1" height="1" fill="#7583ff"/>
<rect x="13" y="2" width="1" height="1" fill="#fbfbff"/>
<rect x="14" y="2" width="1" height="1" fill="#ffffff"/>
<rect x="15" y="2" width="1" height="1" fill="#fffeff"/>
<rect x="16" y="2" width="1" height="1" fill="#efebff"/>
<rect x="17" y="2" width="1" height="1" fill="#c6c5fe"/>
<rect x="18" y="2" width="1" height="1" fill="#5559e2" fill-opacity="0.984"/>
<rect x="19" y="2" width="1" height="1" fill="#6271fe"/>
<rect x="20" y="2" width="1" height="1" fill="#eae3fe"/>
<rect x="21" y="2" width="1" height="1" fill="#555ae2" fill-opacity="0.969"/>
<rect x="22" y="2" width="1" height="1" fill="#5656e0" fill-opacity="0.067"/>
<rect x="0" y="3" width="1" height="1" fill="#5259f3" fill-opacity="0.969"/>
<rect x="1" y="3" width="1" height="1" fill="#5361fe"/>
<rect x="2" y="3" width="1" height="1" fill="#5053e4" fill-opacity="0.984"/>
<rect x="3" y="3" width="1" height="1" fill="#5656ef" fill-opacity="0.067"/>
<rect x="6" y="3" width="1" height="1" fill="#5656e0" fill-opacity="0.067"/>
<rect x="7" y="3" width="1" height="1" fill="#5358e1" fill-opacity="0.969"/>
<rect x="8" y="3" width="1" height="1" fill="#565be2" fill-opacity="0.984"/>
<rect x="9" y="3" width="1" height="1" fill="#f9f9fe"/>
<rect x="10" y="3" width="1" height="1" fill="#fcfcff"/>
<rect x="11" y="3" width="1" height="1" fill="#fcfcff"/>
<rect x="12" y="3" width="1" height="1" fill="#fafaff"/>
<rect x="13" y="3" width="1" height="1" fill="#818cff"/>
<rect x="14" y="3" width="1" height="1" fill="#fdfdff"/>
<rect x="15" y="3" width="1" height="1" fill="#ffffff"/>
<rect x="16" y="3" width="1" height="1" fill="#fffeff"/>
<rect x="17" y="3" width="1" height="1" fill="#f2ebff"/>
<rect x="18" y="3" width="1" height="1" fill="#d8d6ff"/>
<rect x="19" y="3" width="1" height="1" fill="#616fff"/>
<rect x="20" y="3" width="1" height="1" fill="#fbfbff"/>
<rect x="21" y="3" width="1" height="1" fill="#cfcbfe"/>
<rect x="22" y="3" width="1" height="1" fill="#5257e1" fill-opacity="0.969"/>
<rect x="23" y="3" width="1" height="1" fill="#5151e2" fill-opacity="0.035"/>
<rect x="25" y="3" width="1" height="1" fill="#e41ee4" fill-opacity="0.035"/>
<rect x="0" y="4" width="1" height="1" fill="#5361ff" fill-opacity="0.984"/>
<rect x="1" y="4" width="1" height="1" fill="#5361ff"/>
<rect x="2" y="4" width="1" height="1" fill="#4f52da" fill-opacity="0.984"/>
<rect x="3" y="4" width="1" height="1" fill="#5151e2" fill-opacity="0.035"/>
<rect x="5" y="4" width="1" height="1" fill="#5656e0" fill-opacity="0.067"/>
<rect x="6" y="4" width="1" height="1" fill="#545ae2" fill-opacity="0.969"/>
<rect x="7" y="4" width="1" height="1" fill="#f9f9fe"/>
<rect x="8" y="4" width="1" height="1" fill="#fcfcff"/>
<rect x="9" y="4" width="1" height="1" fill="#ffffff"/>
<rect x="10" y="4" width="1" height="1" fill="#ffffff"/>
<rect x="11" y="4" width="1" height="1" fill="#ffffff"/>
<rect x="12" y="4" width="1" height="1" fill="#fdfcff"/>
<rect x="13" y="4" width="1" height="1" fill="#7f8aff"/>
<rect x="14" y="4" width="1" height="1" fill="#fdfdff"/>
<rect x="15" y="4" width="1" height="1" fill="#ffffff"/>
<rect x="16" y="4" width="1" height="1" fill="#ffffff"/>
<rect x="17" y="4" width="1" height="1" fill="#fffeff"/>
<rect x="18" y="4" width="1" height="1" fill="#eae2ff"/>
<rect x="19" y="4" width="1" height="1" fill="#6e7fff"/>
<rect x="20" y="4" width="1" height="1" fill="#fcfdff"/>
<rect x="21" y="4" width="1" height="1" fill="#f0eaff"/>
<rect x="22" y="4" width="1" height="1" fill="#5459e2" fill-opacity="0.984"/>
<rect x="23" y="4" width="1" height="1" fill="#5656e0" fill-opacity="0.067"/>
<rect x="25" y="4" width="1" height="1" fill="#ff1eff" fill-opacity="0.035"/>
<rect x="0" y="5" width="1" height="1" fill="#5361ff" fill-opacity="0.984"/>
<rect x="1" y="5" width="1" height="1" fill="#5361ff"/>
<rect x="2" y="5" width="1" height="1" fill="#4f52da" fill-opacity="0.984"/>
<rect x="3" y="5" width="1" height="1" fill="#5151e2" fill-opacity="0.035"/>
<rect x="4" y="5" width="1" height="1" fill="#5151c5" fill-opacity="0.035"/>
<rect x="5" y="5" width="1" height="1" fill="#5051d0" fill-opacity="0.969"/>
<rect x="6" y="5" width="1" height="1" fill="#9da4fd"/>
<rect x="7" y="5" width="1" height="1" fill="#dcd7ff"/>
<rect x="8" y="5" width="1" height="1" fill="#f2ebff"/>
<rect x="9" y="5" width="1" height="1" fill="#fefcff"/>
<rect x="10" y="5" width="1" height="1" fill="#ffffff"/>
<rect x="11" y="5" width="1" height="1" fill="#ffffff"/>
<rect x="12" y="5" width="1" height="1" fill="#fdfcff"/>
<rect x="13" y="5" width="1" height="1" fill="#7e8bff"/>
<rect x="14" y="5" width="1" height="1" fill="#fdfdff"/>
<rect x="15" y="5" width="1" height="1" fill="#ffffff"/>
<rect x="16" y="5" width="1" height="1" fill="#ffffff"/>
<rect x="17" y="5" width="1" height="1" fill="#fefeff"/>
<rect x="18" y="5" width="1" height="1" fill="#d2cfff"/>
<rect x="19" y="5" width="1" height="1" fill="#7081ff"/>
<rect x="20" y="5" width="1" height="1" fill="#fdfdff"/>
<rect x="21" y="5" width="1" height="1" fill="#fdf2ff"/>
<rect x="22" y="5" width="1" height="1" fill="#adb0fe"/>
<rect x="23" y="5" width="1" height="1" fill="#5156e1" fill-opacity="0.969"/>
<rect x="24" y="5" width="1" height="1" fill="#5151e2" fill-opacity="0.035"/>
<rect x="25" y="5" width="1" height="1" fill="#ff1eff" fill-opacity="0.035"/>
<rect x="0" y="6" width="1" height="1" fill="#5361ff" fill-opacity="0.969"/>
<rect x="1" y="6" width="1" height="1" fill="#5361fe"/>
<rect x="2" y="6" width="1" height="1" fill="#5053e1" fill-opacity="0.984"/>
<rect x="3" y="6" width="1" height="1" fill="#5656e0" fill-opacity="0.067"/>
<rect x="4" y="6" width="1" height="1" fill="#6262ca" fill-opacity="0.039"/>
<rect x="5" y="6" width="1" height="1" fill="#4e50cf" fill-opacity="0.984"/>
<rect x="6" y="6" width="1" height="1" fill="#5057dd" fill-opacity="0.984"/>
<rect x="7" y="6" width="1" height="1" fill="#5359dd" fill-opacity="0.984"/>
<rect x="8" y="6" width="1" height="1" fill="#9ea4fe"/>
<rect x="9" y="6" width="1" height="1" fill="#c2c2ff"/>
<rect x="10" y="6" width="1" height="1" fill="#f6eeff"/>
<rect x="11" y="6" width="1" height="1" fill="#f8eeff"/>
<rect x="12" y="6" width="1" height="1" fill="#fbf9ff"/>
<rect x="13" y="6" width="1" height="1" fill="#808dff"/>
<rect x="14" y="6" width="1" height="1" fill="#fdfdff"/>
<rect x="15" y="6" width="1" height="1" fill="#ffffff"/>
<rect x="16" y="6" width="1" height="1" fill="#ffffff"/>
<rect x="17" y="6" width="1" height="1" fill="#fdfeff"/>
<rect x="18" y="6" width="1" height="1" fill="#9aa3ff"/>
<rect x="19" y="6" width="1" height="1" fill="#fbf3ff"/>
<rect x="20" y="6" width="1" height="1" fill="#ffffff"/>
<rect x="21" y="6" width="1" height="1" fill="#fcf0ff"/>
<rect x="22" y="6" width="1" height="1" fill="#a8acff"/>
<rect x="23" y="6" width="1" height="1" fill="#5156e1" fill-opacity="0.984"/>
<rect x="24" y="6" width="1" height="1" fill="#5151e2" fill-opacity="0.035"/>
<rect x="25" y="6" width="1" height="1" fill="#ff1eff" fill-opacity="0.035"/>
<rect x="0" y="7" width="1" height="1" fill="#5656ef" fill-opacity="0.067"/>
<rect x="1" y="7" width="1" height="1" fill="#5155eb" fill-opacity="0.969"/>
<rect x="2" y="7" width="1" height="1" fill="#535cfd"/>
<rect x="3" y="7" width="1" height="1" fill="#4f52de" fill-opacity="0.969"/>
<rect x="4" y="7" width="1" height="1" fill="#9497ed" fill-opacity="0.227"/>
<rect x="5" y="7" width="1" height="1" fill="#4f50d0" fill-opacity="0.953"/>
<rect x="6" y="7" width="1" height="1" fill="#5656d0" fill-opacity="0.067"/>
<rect x="7" y="7" width="1" height="1" fill="#5656e0" fill-opacity="0.067"/>
<rect x="8" y="7" width="1" height="1" fill="#5156e1" fill-opacity="0.969"/>
<rect x="9" y="7" width="1" height="1" fill="#5459e1"/>
<rect x="10" y="7" width="1" height="1" fill="#dad7fe"/>
<rect x="11" y="7" width="1" height="1" fill="#fbf0ff"/>
<rect x="12" y="7" width="1" height="1" fill="#959eff"/>
<rect x="13" y="7" width="1" height="1" fill="#fbf5ff"/>
<rect x="14" y="7" width="1" height="1" fill="#ffffff"/>
<rect x="15" y="7" width="1" height="1" fill="#ffffff"/>
<rect x="16" y="7" width="1" height="1" fill="#ffffff"/>
<rect x="17" y="7" width="1" height="1" fill="#fefeff"/>
<rect x="18" y="7" width="1" height="1" fill="#c5c5ff"/>
<rect x="19" y="7" width="1" height="1" fill="#fefeff"/>
<rect x="20" y="7" width="1" height="1" fill="#ffffff"/>
<rect x="21" y="7" width="1" height="1" fill="#f6edff"/>
<rect x="22" y="7" width="1" height="1" fill="#a3a8ff"/>
<rect x="23" y="7" width="1" height="1" fill="#5156e1" fill-opacity="0.984"/>
<rect x="24" y="7" width="1" height="1" fill="#5151e2" fill-opacity="0.035"/>
<rect x="1" y="8" width="1" height="1" fill="#5656e0" fill-opacity="0.067"/>
<rect x="2" y="8" width="1" height="1" fill="#4f53dc" fill-opacity="0.969"/>
<rect x="3" y="8" width="1" height="1" fill="#4f53dc" fill-opacity="0.984"/>
<rect x="4" y="8" width="1" height="1" fill="#4f53dc" fill-opacity="0.953"/>
<rect x="5" y="8" width="1" height="1" fill="#5656d0" fill-opacity="0.067"/>
<rect x="8" y="8" width="1" height="1" fill="#5656d0" fill-opacity="0.067"/>
<rect x="9" y="8" width="1" height="1" fill="#4c4dc1" fill-opacity="0.984"/>
<rect x="10" y="8" width="1" height="1" fill="#5459e1"/>
<rect x="11" y="8" width="1" height="1" fill="#dad7fe"/>
<rect x="12" y="8" width="1" height="1" fill="#a2a8ff"/>
<rect x="13" y="8" width="1" height="1" fill="#fdf3ff"/>
<rect x="14" y="8" width="1" height="1" fill="#ffffff"/>
<rect x="15" y="8" width="1" height="1" fill="#ffffff"/>
<rect x="16" y="8" width="1" height="1" fill="#ffffff"/>
<rect x="17" y="8" width="1" height="1" fill="#e3dfff"/>
<rect x="18" y="8" width="1" height="1" fill="#fefeff"/>
<rect x="19" y="8" width="1" height="1" fill="#ffffff"/>
<rect x="20" y="8" width="1" height="1" fill="#fffbff"/>
<rect x="21" y="8" width="1" height="1" fill="#efeaff"/>
<rect x="22" y="8" width="1" height="1" fill="#a2a5ff"/>
<rect x="23" y="8" width="1" height="1" fill="#5156e1" fill-opacity="0.984"/>
<rect x="24" y="8" width="1" height="1" fill="#5151e2" fill-opacity="0.035"/>
<rect x="2" y="9" width="1" height="1" fill="#5151c5" fill-opacity="0.035"/>
<rect x="3" y="9" width="1" height="1" fill="#5151e2" fill-opacity="0.035"/>
<rect x="4" y="9" width="1" height="1" fill="#5151c5" fill-opacity="0.035"/>
<rect x="8" y="9" width="1" height="1" fill="#5151c5" fill-opacity="0.035"/>
<rect x="9" y="9" width="1" height="1" fill="#4c4cc1" fill-opacity="0.984"/>
<rect x="10" y="9" width="1" height="1" fill="#5156eb"/>
<rect x="11" y="9" width="1" height="1" fill="#5559e2"/>
<rect x="12" y="9" width="1" height="1" fill="#f9f0ff"/>
<rect x="13" y="9" width="1" height="1" fill="#ffffff"/>
<rect x="14" y="9" width="1" height="1" fill="#ffffff"/>
<rect x="15" y="9" width="1" height="1" fill="#ffffff"/>
<rect x="16" y="9" width="1" height="1" fill="#ffffff"/>
<rect x="17" y="9" width="1" height="1" fill="#ffffff"/>
<rect x="18" y="9" width="1" height="1" fill="#ffffff"/>
<rect x="19" y="9" width="1" height="1" fill="#fffbff"/>
<rect x="20" y="9" width="1" height="1" fill="#fef3ff"/>
<rect x="21" y="9" width="1" height="1" fill="#efeaff"/>
<rect x="22" y="9" width="1" height="1" fill="#a2a5ff"/>
<rect x="23" y="9" width="1" height="1" fill="#5156e1" fill-opacity="0.984"/>
<rect x="24" y="9" width="1" height="1" fill="#5656e0" fill-opacity="0.067"/>
<rect x="4" y="10" width="1" height="1" fill="#5151e2" fill-opacity="0.035"/>
<rect x="5" y="10" width="1" height="1" fill="#5151e2" fill-opacity="0.035"/>
<rect x="6" y="10" width="1" height="1" fill="#5151e2" fill-opacity="0.035"/>
<rect x="7" y="10" width="1" height="1" fill="#0000ff" fill-opacity="0.004"/>
<rect x="8" y="10" width="1" height="1" fill="#5656d0" fill-opacity="0.067"/>
<rect x="9" y="10" width="1" height="1" fill="#4f50d2" fill-opacity="0.984"/>
<rect x="10" y="10" width="1" height="1" fill="#5257f5"/>
<rect x="11" y="10" width="1" height="1" fill="#5357e2"/>
<rect x="12" y="10" width="1" height="1" fill="#f6efff"/>
<rect x="13" y="10" width="1" height="1" fill="#ffffff"/>
<rect x="14" y="10" width="1" height="1" fill="#fcfcfe"/>
<rect x="15" y="10" width="1" height="1" fill="#fcf4fe"/>
<rect x="16" y="10" width="1" height="1" fill="#fcf5fe"/>
<rect x="17" y="10" width="1" height="1" fill="#fcf5fe"/>
<rect x="18" y="10" width="1" height="1" fill="#fcf3ff"/>
<rect x="19" y="10" width="1" height="1" fill="#fdf3ff"/>
<rect x="20" y="10" width="1" height="1" fill="#ebe6ff"/>
<rect x="21" y="10" width="1" height="1" fill="#e1ddff"/>
<rect x="22" y="10" width="1" height="1" fill="#afb1ff"/>
<rect x="23" y="10" width="1" height="1" fill="#5459e2"/>
<rect x="24" y="10" width="1" height="1" fill="#5055e1" fill-opacity="0.969"/>
<rect x="25" y="10" width="1" height="1" fill="#5151e2" fill-opacity="0.035"/>
<rect x="3" y="11" width="1" height="1" fill="#5151e2" fill-opacity="0.035"/>
<rect x="4" y="11" width="1" height="1" fill="#5055e1" fill-opacity="0.965"/>
<rect x="5" y="11" width="1" height="1" fill="#5357de" fill-opacity="0.984"/>
<rect x="6" y="11" width="1" height="1" fill="#5357dd" fill-opacity="0.969"/>
<rect x="7" y="11" width="1" height="1" fill="#5454cc" fill-opacity="0.102"/>
<rect x="8" y="11" width="1" height="1" fill="#4e50cf" fill-opacity="0.969"/>
<rect x="9" y="11" width="1" height="1" fill="#5257f5"/>
<rect x="10" y="11" width="1" height="1" fill="#5257f6"/>
<rect x="11" y="11" width="1" height="1" fill="#5357e2"/>
<rect x="12" y="11" width="1" height="1" fill="#f6eeff"/>
<rect x="13" y="11" width="1" height="1" fill="#e6e2fe"/>
<rect x="14" y="11" width="1" height="1" fill="#5555cf"/>
<rect x="15" y="11" width="1" height="1" fill="#5252ce"/>
<rect x="16" y="11" width="1" height="1" fill="#5255cd"/>
<rect x="17" y="11" width="1" height="1" fill="#5456ce"/>
<rect x="18" y="11" width="1" height="1" fill="#f2eafd"/>
<rect x="19" y="11" width="1" height="1" fill="#e6e2ff"/>
<rect x="20" y="11" width="1" height="1" fill="#e9e3ff"/>
<rect x="21" y="11" width="1" height="1" fill="#d4d3ff"/>
<rect x="22" y="11" width="1" height="1" fill="#6672fc"/>
<rect x="23" y="11" width="1" height="1" fill="#f5effe"/>
<rect x="24" y="11" width="1" height="1" fill="#5357e1" fill-opacity="0.984"/>
<rect x="25" y="11" width="1" height="1" fill="#5151e2" fill-opacity="0.035"/>
<rect x="3" y="12" width="1" height="1" fill="#5151e2" fill-opacity="0.035"/>
<rect x="4" y="12" width="1" height="1" fill="#5357dd" fill-opacity="0.984"/>
<rect x="5" y="12" width="1" height="1" fill="#f9ec0d"/>
<rect x="6" y="12" width="1" height="1" fill="#f9ec0d"/>
<rect x="7" y="12" width="1" height="1" fill="#5455c8" fill-opacity="0.984"/>
<rect x="8" y="12" width="1" height="1" fill="#535bfc"/>
<rect x="9" y="12" width="1" height="1" fill="#5361ff"/>
<rect x="10" y="12" width="1" height="1" fill="#5257f6"/>
<rect x="11" y="12" width="1" height="1" fill="#5357e2"/>
<rect x="12" y="12" width="1" height="1" fill="#e8e1fd"/>
<rect x="13" y="12" width="1" height="1" fill="#5759d2"/>
<rect x="14" y="12" width="1" height="1" fill="#cfcafd"/>
<rect x="15" y="12" width="1" height="1" fill="#7e88fe"/>
<rect x="16" y="12" width="1" height="1" fill="#7c86fe"/>
<rect x="17" y="12" width="1" height="1" fill="#5367fd"/>
<rect x="18" y="12" width="1" height="1" fill="#5253cb"/>
<rect x="19" y="12" width="1" height="1" fill="#e1ddfe"/>
<rect x="20" y="12" width="1" height="1" fill="#cbcaff"/>
<rect x="21" y="12" width="1" height="1" fill="#8590ff"/>
<rect x="22" y="12" width="1" height="1" fill="#e9e1ff"/>
<rect x="23" y="12" width="1" height="1" fill="#bdbdff"/>
<rect x="24" y="12" width="1" height="1" fill="#5256e1" fill-opacity="0.984"/>
<rect x="25" y="12" width="1" height="1" fill="#5151e2" fill-opacity="0.035"/>
<rect x="3" y="13" width="1" height="1" fill="#5656e0" fill-opacity="0.067"/>
<rect x="4" y="13" width="1" height="1" fill="#555ade" fill-opacity="0.984"/>
<rect x="5" y="13" width="1" height="1" fill="#faec0d"/>
<rect x="6" y="13" width="1" height="1" fill="#fff006"/>
<rect x="7" y="13" width="1" height="1" fill="#facd0c"/>
<rect x="8" y="13" width="1" height="1" fill="#5251bd"/>
<rect x="9" y="13" width="1" height="1" fill="#5360fd"/>
<rect x="10" y="13" width="1" height="1" fill="#5361ff"/>
<rect x="11" y="13" width="1" height="1" fill="#5259fa"/>
<rect x="12" y="13" width="1" height="1" fill="#5353cf"/>
<rect x="13" y="13" width="1" height="1" fill="#cfcbfd"/>
<rect x="14" y="13" width="1" height="1" fill="#7081fe"/>
<rect x="15" y="13" width="1" height="1" fill="#5052d5"/>
<rect x="16" y="13" width="1" height="1" fill="#5052d3"/>
<rect x="17" y="13" width="1" height="1" fill="#5b70fe"/>
<rect x="18" y="13" width="1" height="1" fill="#5366fd"/>
<rect x="19" y="13" width="1" height="1" fill="#5253cf"/>
<rect x="20" y="13" width="1" height="1" fill="#bcbdfe"/>
<rect x="21" y="13" width="1" height="1" fill="#e0daff"/>
<rect x="22" y="13" width="1" height="1" fill="#c3c2ff"/>
<rect x="23" y="13" width="1" height="1" fill="#babcff"/>
<rect x="24" y="13" width="1" height="1" fill="#5256e1" fill-opacity="0.984"/>
<rect x="25" y="13" width="1" height="1" fill="#5151e2" fill-opacity="0.035"/>
<rect x="2" y="14" width="1" height="1" fill="#5656d0" fill-opacity="0.067"/>
<rect x="3" y="14" width="1" height="1" fill="#5454ce" fill-opacity="0.969"/>
<rect x="4" y="14" width="1" height="1" fill="#f5f5fd"/>
<rect x="5" y="14" width="1" height="1" fill="#5959cb"/>
<rect x="6" y="14" width="1" height="1" fill="#facc0c"/>
<rect x="7" y="14" width="1" height="1" fill="#ffce06"/>
<rect x="8" y="14" width="1" height="1" fill="#f9ca0c"/>
<rect x="9" y="14" width="1" height="1" fill="#5250bd"/>
<rect x="10" y="14" width="1" height="1" fill="#5259f9"/>
<rect x="11" y="14" width="1" height="1" fill="#5259fa"/>
<rect x="12" y="14" width="1" height="1" fill="#4f4fce"/>
<rect x="13" y="14" width="1" height="1" fill="#8b96fe"/>
<rect x="14" y="14" width="1" height="1" fill="#5152da"/>
<rect x="15" y="14" width="1" height="1" fill="#5c70fe"/>
<rect x="16" y="14" width="1" height="1" fill="#5c70fe"/>
<rect x="17" y="14" width="1" height="1" fill="#4f51d5"/>
<rect x="18" y="14" width="1" height="1" fill="#5366fe"/>
<rect x="19" y="14" width="1" height="1" fill="#5050ce"/>
<rect x="20" y="14" width="1" height="1" fill="#b0b4fe"/>
<rect x="21" y="14" width="1" height="1" fill="#b9baff"/>
<rect x="22" y="14" width="1" height="1" fill="#b8b9ff"/>
<rect x="23" y="14" width="1" height="1" fill="#9ba3fe"/>
<rect x="24" y="14" width="1" height="1" fill="#5156e1" fill-opacity="0.969"/>
<rect x="25" y="14" width="1" height="1" fill="#5151e2" fill-opacity="0.035"/>
<rect x="1" y="15" width="1" height="1" fill="#5656d0" fill-opacity="0.067"/>
<rect x="2" y="15" width="1" height="1" fill="#5456cd" fill-opacity="0.969"/>
<rect x="3" y="15" width="1" height="1" fill="#f9f9fd"/>
<rect x="4" y="15" width="1" height="1" fill="#efecff"/>
<rect x="5" y="15" width="1" height="1" fill="#d2d0fd"/>
<rect x="6" y="15" width="1" height="1" fill="#5554bd"/>
<rect x="7" y="15" width="1" height="1" fill="#fabd0c"/>
<rect x="8" y="15" width="1" height="1" fill="#ffbf06"/>
<rect x="9" y="15" width="1" height="1" fill="#f9bc0c"/>
<rect x="10" y="15" width="1" height="1" fill="#504fc1"/>
<rect x="11" y="15" width="1" height="1" fill="#5259fa"/>
<rect x="12" y="15" width="1" height="1" fill="#4f4fce"/>
<rect x="13" y="15" width="1" height="1" fill="#7988fe"/>
<rect x="14" y="15" width="1" height="1" fill="#5051d8"/>
<rect x="15" y="15" width="1" height="1" fill="#5c70fe"/>
<rect x="16" y="15" width="1" height="1" fill="#5c70fd"/>
<rect x="17" y="15" width="1" height="1" fill="#4f51d3"/>
<rect x="18" y="15" width="1" height="1" fill="#5366fe"/>
<rect x="19" y="15" width="1" height="1" fill="#4f50ce"/>
<rect x="20" y="15" width="1" height="1" fill="#9ba2fe"/>
<rect x="21" y="15" width="1" height="1" fill="#9da4ff"/>
<rect x="22" y="15" width="1" height="1" fill="#9aa0fe"/>
<rect x="23" y="15" width="1" height="1" fill="#5358e2" fill-opacity="0.969"/>
<rect x="24" y="15" width="1" height="1" fill="#5656e0" fill-opacity="0.067"/>
<rect x="0" y="16" width="1" height="1" fill="#5656e0" fill-opacity="0.067"/>
<rect x="1" y="16" width="1" height="1" fill="#5253d6" fill-opacity="0.969"/>
<rect x="2" y="16" width="1" height="1" fill="#f3ebfd"/>
<rect x="3" y="16" width="1" height="1" fill="#e6e3fe"/>
<rect x="4" y="16" width="1" height="1" fill="#d5d3ff"/>
<rect x="5" y="16" width="1" height="1" fill="#c5c3fe"/>
<rect x="6" y="16" width="1" height="1" fill="#a2a4fc"/>
<rect x="7" y="16" width="1" height="1" fill="#5451bd"/>
<rect x="8" y="16" width="1" height="1" fill="#f99e06"/>
<rect x="9" y="16" width="1" height="1" fill="#f99e06"/>
<rect x="10" y="16" width="1" height="1" fill="#504ec0"/>
<rect x="11" y="16" width="1" height="1" fill="#5259f9"/>
<rect x="12" y="16" width="1" height="1" fill="#4e4ece"/>
<rect x="13" y="16" width="1" height="1" fill="#5369fd"/>
<rect x="14" y="16" width="1" height="1" fill="#5b6ffe"/>
<rect x="15" y="16" width="1" height="1" fill="#4e4fcf"/>
<rect x="16" y="16" width="1" height="1" fill="#4e4fcf"/>
<rect x="17" y="16" width="1" height="1" fill="#5a6efe"/>
<rect x="18" y="16" width="1" height="1" fill="#5366fd"/>
<rect x="19" y="16" width="1" height="1" fill="#4e50cb"/>
<rect x="20" y="16" width="1" height="1" fill="#9aa2fe"/>
<rect x="21" y="16" width="1" height="1" fill="#979ffe"/>
<rect x="22" y="16" width="1" height="1" fill="#5257e1" fill-opacity="0.984"/>
<rect x="23" y="16" width="1" height="1" fill="#5454e1" fill-opacity="0.102"/>
<rect x="24" y="16" width="1" height="1" fill="#0000ff" fill-opacity="0.004"/>
<rect x="0" y="17" width="1" height="1" fill="#4f4fd5" fill-opacity="0.969"/>
<rect x="1" y="17" width="1" height="1" fill="#5050d5"/>
<rect x="2" y="17" width="1" height="1" fill="#5353d6"/>
<rect x="3" y="17" width="1" height="1" fill="#5353d6"/>
<rect x="4" y="17" width="1" height="1" fill="#5252d6"/>
<rect x="5" y="17" width="1" height="1" fill="#5252d6"/>
<rect x="6" y="17" width="1" height="1" fill="#5152d6"/>
<rect x="7" y="17" width="1" height="1" fill="#5050d5"/>
<rect x="8" y="17" width="1" height="1" fill="#504ebf"/>
<rect x="9" y="17" width="1" height="1" fill="#504ebe"/>
<rect x="10" y="17" width="1" height="1" fill="#4d4dc1"/>
<rect x="11" y="17" width="1" height="1" fill="#4f50d6"/>
<rect x="12" y="17" width="1" height="1" fill="#5053e0"/>
<rect x="13" y="17" width="1" height="1" fill="#4e4fcf"/>
<rect x="14" y="17" width="1" height="1" fill="#5366fd"/>
<rect x="15" y="17" width="1" height="1" fill="#5365fe"/>
<rect x="16" y="17" width="1" height="1" fill="#5365fe"/>
<rect x="17" y="17" width="1" height="1" fill="#5366fd"/>
<rect x="18" y="17" width="1" height="1" fill="#4d4ec7"/>
<rect x="19" y="17" width="1" height="1" fill="#4f52da"/>
<rect x="20" y="17" width="1" height="1" fill="#5053dc"/>
<rect x="21" y="17" width="1" height="1" fill="#5053dc"/>
<rect x="22" y="17" width="1" height="1" fill="#4f50d8"/>
<rect x="23" y="17" width="1" height="1" fill="#5055e1" fill-opacity="0.969"/>
<rect x="24" y="17" width="1" height="1" fill="#5151e2" fill-opacity="0.035"/>
<rect x="25" y="17" width="1" height="1" fill="#c81ec8" fill-opacity="0.035"/>
<rect x="0" y="18" width="1" height="1" fill="#4f4fcd" fill-opacity="0.984"/>
<rect x="1" y="18" width="1" height="1" fill="#8d96fd"/>
<rect x="2" y="18" width="1" height="1" fill="#8e98fe"/>
<rect x="3" y="18" width="1" height="1" fill="#8e98fe"/>
<rect x="4" y="18" width="1" height="1" fill="#8e98fe"/>
<rect x="5" y="18" width="1" height="1" fill="#8e98fe"/>
<rect x="6" y="18" width="1" height="1" fill="#8e98fe"/>
<rect x="7" y="18" width="1" height="1" fill="#8a92fe"/>
<rect x="8" y="18" width="1" height="1" fill="#7d89fd"/>
<rect x="9" y="18" width="1" height="1" fill="#7d86fd"/>
<rect x="10" y="18" width="1" height="1" fill="#7282fd"/>
<rect x="11" y="18" width="1" height="1" fill="#5c71fe"/>
<rect x="12" y="18" width="1" height="1" fill="#5c70fe"/>
<rect x="13" y="18" width="1" height="1" fill="#5c70fd"/>
<rect x="14" y="18" width="1" height="1" fill="#4e4fce" fill-opacity="0.984"/>
<rect x="15" y="18" width="1" height="1" fill="#4e4ecd" fill-opacity="0.984"/>
<rect x="16" y="18" width="1" height="1" fill="#4e4ecd" fill-opacity="0.984"/>
<rect x="17" y="18" width="1" height="1" fill="#4e4fce" fill-opacity="0.984"/>
<rect x="18" y="18" width="1" height="1" fill="#5360fc"/>
<rect x="19" y="18" width="1" height="1" fill="#5361fe"/>
<rect x="20" y="18" width="1" height="1" fill="#5361fe"/>
<rect x="21" y="18" width="1" height="1" fill="#5361fe"/>
<rect x="22" y="18" width="1" height="1" fill="#5361fd"/>
<rect x="23" y="18" width="1" height="1" fill="#5055e1" fill-opacity="0.984"/>
<rect x="24" y="18" width="1" height="1" fill="#5151e2" fill-opacity="0.035"/>
<rect x="25" y="18" width="1" height="1" fill="#c81ec8" fill-opacity="0.035"/>
<rect x="0" y="19" width="1" height="1" fill="#4e4ecd" fill-opacity="0.965"/>
<rect x="1" y="19" width="1" height="1" fill="#4f4fcd" fill-opacity="0.984"/>
<rect x="2" y="19" width="1" height="1" fill="#4f4fcd" fill-opacity="0.984"/>
<rect x="3" y="19" width="1" height="1" fill="#4f4fcd" fill-opacity="0.984"/>
<rect x="4" y="19" width="1" height="1" fill="#4f4fcd" fill-opacity="0.984"/>
<rect x="5" y="19" width="1" height="1" fill="#4f4fcd" fill-opacity="0.984"/>
<rect x="6" y="19" width="1" height="1" fill="#4f4fcd" fill-opacity="0.984"/>
<rect x="7" y="19" width="1" height="1" fill="#4f4fcd" fill-opacity="0.984"/>
<rect x="8" y="19" width="1" height="1" fill="#4f4fce" fill-opacity="0.988"/>
<rect x="9" y="19" width="1" height="1" fill="#4f4fcd" fill-opacity="0.984"/>
<rect x="10" y="19" width="1" height="1" fill="#4e4fcd" fill-opacity="0.984"/>
<rect x="11" y="19" width="1" height="1" fill="#4e4ecd" fill-opacity="0.984"/>
<rect x="12" y="19" width="1" height="1" fill="#4e4ecd" fill-opacity="0.984"/>
<rect x="13" y="19" width="1" height="1" fill="#4e4fce" fill-opacity="0.969"/>
<rect x="14" y="19" width="1" height="1" fill="#5656d0" fill-opacity="0.067"/>
<rect x="15" y="19" width="1" height="1" fill="#5151c5" fill-opacity="0.035"/>
<rect x="16" y="19" width="1" height="1" fill="#5151c5" fill-opacity="0.035"/>
<rect x="17" y="19" width="1" height="1" fill="#5656d0" fill-opacity="0.067"/>
<rect x="18" y="19" width="1" height="1" fill="#4e4ece" fill-opacity="0.969"/>
<rect x="19" y="19" width="1" height="1" fill="#4e4ecd" fill-opacity="0.984"/>
<rect x="20" y="19" width="1" height="1" fill="#4e4ecd" fill-opacity="0.984"/>
<rect x="21" y="19" width="1" height="1" fill="#4e4ecd" fill-opacity="0.984"/>
<rect x="22" y="19" width="1" height="1" fill="#4e4ecd" fill-opacity="0.984"/>
<rect x="23" y="19" width="1" height="1" fill="#4e4ece" fill-opacity="0.965"/>
<rect x="24" y="19" width="1" height="1" fill="#5151c5" fill-opacity="0.035"/>
<rect x="25" y="19" width="1" height="1" fill="#c81ec8" fill-opacity="0.035"/>
<rect x="0" y="20" width="1" height="1" fill="#5151c5" fill-opacity="0.035"/>
<rect x="1" y="20" width="1" height="1" fill="#5151c5" fill-opacity="0.035"/>
<rect x="2" y="20" width="1" height="1" fill="#5151c5" fill-opacity="0.035"/>
<rect x="3" y="20" width="1" height="1" fill="#5151c5" fill-opacity="0.035"/>
<rect x="4" y="20" width="1" height="1" fill="#5151c5" fill-opacity="0.035"/>
<rect x="5" y="20" width="1" height="1" fill="#5151c5" fill-opacity="0.035"/>
<rect x="6" y="20" width="1" height="1" fill="#5151c5" fill-opacity="0.035"/>
<rect x="7" y="20" width="1" height="1" fill="#7043cf" fill-opacity="0.043"/>
<rect x="8" y="20" width="1" height="1" fill="#d039f8" fill-opacity="0.275"/>
<rect x="9" y="20" width="1" height="1" fill="#7043cf" fill-opacity="0.043"/>
<rect x="10" y="20" width="1" height="1" fill="#5151c5" fill-opacity="0.035"/>
<rect x="11" y="20" width="1" height="1" fill="#5151c5" fill-opacity="0.035"/>
<rect x="12" y="20" width="1" height="1" fill="#5151c5" fill-opacity="0.035"/>
<rect x="13" y="20" width="1" height="1" fill="#5151c5" fill-opacity="0.035"/>
<rect x="18" y="20" width="1" height="1" fill="#5151c5" fill-opacity="0.035"/>
<rect x="19" y="20" width="1" height="1" fill="#5151c5" fill-opacity="0.035"/>
<rect x="20" y="20" width="1" height="1" fill="#5151c5" fill-opacity="0.035"/>
<rect x="21" y="20" width="1" height="1" fill="#5151c5" fill-opacity="0.035"/>
<rect x="22" y="20" width="1" height="1" fill="#5151c5" fill-opacity="0.035"/>
<rect x="23" y="20" width="1" height="1" fill="#5151c5" fill-opacity="0.035"/>
</svg>