<?xml version="1.0" encoding="UTF-8" standalone="no"?>
<svg xmlns="http://www.w3.org/2000/svg" width="26" height="21" shape-rendering="crispEdges">
<rect x="2" y="0" width="1" height="1" fill="#ff1ee4" fill-opacity="0.035"/>
<rect x="3" y="0" width="1" height="1" fill="#ff1eff" fill-opacity="0.035"/>
<rect x="4" y="0" width="1" height="1" fill="#e41ee4" fill-opacity="0.035"/>
<rect x="10" y="0" width="1" height="1" fill="#e021e0" fill-opacity="0.031"/>
<rect x="11" y="0" width="1" height="1" fill="#de1ad7" fill-opacity="0.949"/>
<rect x="12" y="0" width="1" height="1" fill="#de1ad8" fill-opacity="0.984"/>
<rect x="13" y="0" width="1" height="1" fill="#de1ed8" fill-opacity="0.984"/>
<rect x="14" y="0" width="1" height="1" fill="#de1ed8" fill-opacity="0.984"/>
<rect x="15" y="0" width="1" height="1" fill="#de1ed8" fill-opacity="0.984"/>
<rect x="16" y="0" width="1" height="1" fill="#de1dd7" fill-opacity="0.969"/>
<rect x="17" y="0" width="1" height="1" fill="#e220e2" fill-opacity="0.067"/>
<rect x="18" y="0" width="1" height="1" fill="#ff00ff" fill-opacity="0.004"/>
<rect x="19" y="0" width="1" height="1" fill="#c81ec8" fill-opacity="0.035"/>
<rect x="20" y="0" width="1" height="1" fill="#c81ec8" fill-opacity="0.035"/>
<rect x="1" y="1" width="1" height="1" fill="#ff20f0" fill-opacity="0.067"/>
<rect x="2" y="1" width="1" height="1" fill="#ff1af9" fill-opacity="0.969"/>
<rect x="3" y="1" width="1" height="1" fill="#fe1af8" fill-opacity="0.984"/>
<rect x="4" y="1" width="1" height="1" fill="#e41adf" fill-opacity="0.949"/>
<rect x="5" y="1" width="1" height="1" fill="#e021e0" fill-opacity="0.031"/>
<rect x="9" y="1" width="1" height="1" fill="#c81ec8" fill-opacity="0.035"/>
<rect x="10" y="1" width="1" height="1" fill="#e41ee4" fill-opacity="0.035"/>
<rect x="11" y="1" width="1" height="1" fill="#ec29e3" fill-opacity="0.102"/>
<rect x="12" y="1" width="1" height="1" fill="#f540fe" fill-opacity="0.984"/>
<rect x="13" y="1" width="1" height="1" fill="#f6d9ff"/>
<rect x="14" y="1" width="1" height="1" fill="#f4d3ff"/>
<rect x="15" y="1" width="1" height="1" fill="#f4b6ff"/>
<rect x="16" y="1" width="1" height="1" fill="#f489fe"/>
<rect x="17" y="1" width="1" height="1" fill="#df1fd9" fill-opacity="0.969"/>
<rect x="18" y="1" width="1" height="1" fill="#e31fd9" fill-opacity="0.102"/>
<rect x="19" y="1" width="1" height="1" fill="#de1ad7" fill-opacity="0.969"/>
<rect x="20" y="1" width="1" height="1" fill="#de1ed7" fill-opacity="0.969"/>
<rect x="21" y="1" width="1" height="1" fill="#e220e2" fill-opacity="0.067"/>
<rect x="0" y="2" width="1" height="1" fill="#ff20e2" fill-opacity="0.067"/>
<rect x="1" y="2" width="1" height="1" fill="#f51aec" fill-opacity="0.969"/>
<rect x="2" y="2" width="1" height="1" fill="#fe1afb"/>
<rect x="3" y="2" width="1" height="1" fill="#e41ade" fill-opacity="0.969"/>
<rect x="4" y="2" width="1" height="1" fill="#e220e2" fill-opacity="0.067"/>
<rect x="7" y="2" width="1" height="1" fill="#c81ec8" fill-opacity="0.035"/>
<rect x="8" y="2" width="1" height="1" fill="#e220e2" fill-opacity="0.067"/>
<rect x="9" y="2" width="1" height="1" fill="#de1fd7" fill-opacity="0.969"/>
<rect x="10" y="2" width="1" height="1" fill="#de1fd8" fill-opacity="0.984"/>
<rect x="11" y="2" width="1" height="1" fill="#df1fd8" fill-opacity="0.984"/>
<rect x="12" y="2" width="1" height="1" fill="#f546ff"/>
<rect x="13" y="2" width="1" height="1" fill="#fff8ff"/>
<rect x="14" y="2" width="1" height="1" fill="#fffeff"/>
<rect x="15" y="2" width="1" height="1" fill="#fffdff"/>
<rect x="16" y="2" width="1" height="1" fill="#f4d4ff"/>
<rect x="17" y="2" width="1" height="1" fill="#f4a1fe"/>
<rect x="18" y="2" width="1" height="1" fill="#df20d9" fill-opacity="0.984"/>
<rect x="19" y="2" width="1" height="1" fill="#f72dfe"/>
<rect x="20" y="2" width="1" height="1" fill="#f4ccfe"/>
<rect x="21" y="2" width="1" height="1" fill="#df21d9" fill-opacity="0.969"/>
<rect x="22" y="2" width="1" height="1" fill="#e220e2" fill-opacity="0.067"/>
<rect x="0" y="3" width="1" height="1" fill="#f11aec" fill-opacity="0.969"/>
<rect x="1" y="3" width="1" height="1" fill="#fc1afe"/>
<rect x="2" y="3" width="1" height="1" fill="#e21ad8" fill-opacity="0.984"/>
<rect x="3" y="3" width="1" height="1" fill="#e220e2" fill-opacity="0.067"/>
<rect x="6" y="3" width="1" height="1" fill="#e220e2" fill-opacity="0.067"/>
<rect x="7" y="3" width="1" height="1" fill="#de1fd7" fill-opacity="0.969"/>
<rect x="8" y="3" width="1" height="1" fill="#df22d8" fill-opacity="0.984"/>
<rect x="9" y="3" width="1" height="1" fill="#fef7fe"/>
<rect x="10" y="3" width="1" height="1" fill="#fffbff"/>
<rect x="11" y="3" width="1" height="1" fill="#fffbff"/>
<rect x="12" y="3" width="1" height="1" fill="#fef6ff"/>
<rect x="13" y="3" width="1" height="1" fill="#f651ff"/>
<rect x="14" y="3" width="1" height="1" fill="#fffcff"/>
<rect x="15" y="3" width="1" height="1" fill="#ffffff"/>
<rect x="16" y="3" width="1" height="1" fill="#fffeff"/>
<rect x="17" y="3" width="1" height="1" fill="#f4d5ff"/>
<rect x="18" y="3" width="1" height="1" fill="#f4b7ff"/>
<rect x="19" y="3" width="1" height="1" fill="#fa2cff"/>
<rect x="20" y="3" width="1" height="1" fill="#fff9ff"/>
<rect x="21" y="3" width="1" height="1" fill="#f6affe"/>
<rect x="22" y="3" width="1" height="1" fill="#de1dd7" fill-opacity="0.969"/>
<rect x="23" y="3" width="1" height="1" fill="#e41ee4" fill-opacity="0.035"/>
<rect x="0" y="4" width="1" height="1" fill="#fc1aff" fill-opacity="0.984"/>
<rect x="1" y="4" width="1" height="1" fill="#fc1afe"/>
<rect x="2" y="4" width="1" height="1" fill="#d81acf" fill-opacity="0.984"/>
<rect x="3" y="4" width="1" height="1" fill="#e41ec8" fill-opacity="0.035"/>
<rect x="5" y="4" width="1" height="1" fill="#d320d3" fill-opacity="0.067"/>
<rect x="6" y="4" width="1" height="1" fill="#df20d9" fill-opacity="0.969"/>
<rect x="7" y="4" width="1" height="1" fill="#fef6fe"/>
<rect x="8" y="4" width="1" height="1" fill="#fefbff"/>
<rect x="9" y="4" width="1" height="1" fill="#ffffff"/>
<rect x="10" y="4" width="1" height="1" fill="#ffffff"/>
<rect x="11" y="4" width="1" height="1" fill="#ffffff"/>
<rect x="12" y="4" width="1" height="1" fill="#fef8ff"/>
<rect x="13" y="4" width="1" height="1" fill="#f64eff"/>
<rect x="14" y="4" width="1" height="1" fill="#fffcff"/>
<rect x="15" y="4" width="1" height="1" fill="#ffffff"/>
<rect x="16" y="4" width="1" height="1" fill="#ffffff"/>
<rect x="17" y="4" width="1" height="1" fill="#fffeff"/>
<rect x="18" y="4" width="1" height="1" fill="#f6cbff"/>
<rect x="19" y="4" width="1" height="1" fill="#f43bff"/>
<rect x="20" y="4" width="1" height="1" fill="#fffbff"/>
<rect x="21" y="4" width="1" height="1" fill="#f5d5ff"/>
<rect x="22" y="4" width="1" height="1" fill="#df20d9" fill-opacity="0.984"/>
<rect x="23" y="4" width="1" height="1" fill="#e220e2" fill-opacity="0.067"/>
<rect x="25" y="4" width="1" height="1" fill="#ff0000" fill-opacity="0.031"/>
<rect x="0" y="5" width="1" height="1" fill="#fc1aff" fill-opacity="0.984"/>
<rect x="1" y="5" width="1" height="1" fill="#fc1afe"/>
<rect x="2" y="5" width="1" height="1" fill="#d81acf" fill-opacity="0.984"/>
<rect x="3" y="5" width="1" height="1" fill="#e41ec8" fill-opacity="0.035"/>
<rect x="4" y="5" width="1" height="1" fill="#c81ec8" fill-opacity="0.035"/>
<rect x="5" y="5" width="1" height="1" fill="#cb1bc3" fill-opacity="0.969"/>
<rect x="6" y="5" width="1" height="1" fill="#f473fd"/>
<rect x="7" y="5" width="1" height="1" fill="#f6bdfe"/>
<rect x="8" y="5" width="1" height="1" fill="#f4d5ff"/>
<rect x="9" y="5" width="1" height="1" fill="#fdf8ff"/>
<rect x="10" y="5" width="1" height="1" fill="#ffffff"/>
<rect x="11" y="5" width="1" height="1" fill="#ffffff"/>
<rect x="12" y="5" width="1" height="1" fill="#fef8ff"/>
<rect x="13" y="5" width="1" height="1" fill="#f44dff"/>
<rect x="14" y="5" width="1" height="1" fill="#fffcff"/>
<rect x="15" y="5" width="1" height="1" fill="#ffffff"/>
<rect x="16" y="5" width="1" height="1" fill="#ffffff"/>
<rect x="17" y="5" width="1" height="1" fill="#fffeff"/>
<rect x="18" y="5" width="1" height="1" fill="#f5b1ff"/>
<rect x="19" y="5" width="1" height="1" fill="#f43eff"/>
<rect x="20" y="5" width="1" height="1" fill="#fffbff"/>
<rect x="21" y="5" width="1" height="1" fill="#f6e2ff"/>
<rect x="22" y="5" width="1" height="1" fill="#f587fe"/>
<rect x="23" y="5" width="1" height="1" fill="#de1dd7" fill-opacity="0.969"/>
<rect x="24" y="5" width="1" height="1" fill="#e41ee4" fill-opacity="0.035"/>
<rect x="0" y="6" width="1" height="1" fill="#fc1aff" fill-opacity="0.969"/>
<rect x="1" y="6" width="1" height="1" fill="#fb1afe"/>
<rect x="2" y="6" width="1" height="1" fill="#dc1ad4" fill-opacity="0.984"/>
<rect x="3" y="6" width="1" height="1" fill="#e220d3" fill-opacity="0.067"/>
<rect x="4" y="6" width="1" height="1" fill="#cd36cd" fill-opacity="0.039"/>
<rect x="5" y="6" width="1" height="1" fill="#ca1ac0" fill-opacity="0.984"/>
<rect x="6" y="6" width="1" height="1" fill="#d81bd4" fill-opacity="0.984"/>
<rect x="7" y="6" width="1" height="1" fill="#d91fd6" fill-opacity="0.984"/>
<rect x="8" y="6" width="1" height="1" fill="#f474fd"/>
<rect x="9" y="6" width="1" height="1" fill="#f59eff"/>
<rect x="10" y="6" width="1" height="1" fill="#f5dbff"/>
<rect x="11" y="6" width="1" height="1" fill="#f5dcff"/>
<rect x="12" y="6" width="1" height="1" fill="#fdf4ff"/>
<rect x="13" y="6" width="1" height="1" fill="#f450ff"/>
<rect x="14" y="6" width="1" height="1" fill="#fffcff"/>
<rect x="15" y="6" width="1" height="1" fill="#ffffff"/>
<rect x="16" y="6" width="1" height="1" fill="#ffffff"/>
<rect x="17" y="6" width="1" height="1" fill="#fffdff"/>
<rect x="18" y="6" width="1" height="1" fill="#f470ff"/>
<rect x="19" y="6" width="1" height="1" fill="#f7e4ff"/>
<rect x="20" y="6" width="1" height="1" fill="#fffeff"/>
<rect x="21" y="6" width="1" height="1" fill="#f6e1ff"/>
<rect x="22" y="6" width="1" height="1" fill="#f67fff"/>
<rect x="23" y="6" width="1" height="1" fill="#de1dd8" fill-opacity="0.984"/>
<rect x="24" y="6" width="1" height="1" fill="#e41ee4" fill-opacity="0.035"/>
<rect x="0" y="7" width="1" height="1" fill="#f020f0" fill-opacity="0.067"/>
<rect x="1" y="7" width="1" height="1" fill="#eb1ae1" fill-opacity="0.969"/>
<rect x="2" y="7" width="1" height="1" fill="#fd1af9"/>
<rect x="3" y="7" width="1" height="1" fill="#db1ad0" fill-opacity="0.969"/>
<rect x="4" y="7" width="1" height="1" fill="#e96eeb" fill-opacity="0.227"/>
<rect x="5" y="7" width="1" height="1" fill="#cb1ac2" fill-opacity="0.953"/>
<rect x="6" y="7" width="1" height="1" fill="#d320d3" fill-opacity="0.067"/>
<rect x="7" y="7" width="1" height="1" fill="#e220e2" fill-opacity="0.067"/>
<rect x="8" y="7" width="1" height="1" fill="#de1bd7" fill-opacity="0.969"/>
<rect x="9" y="7" width="1" height="1" fill="#de20d7"/>
<rect x="10" y="7" width="1" height="1" fill="#f4bcfe"/>
<rect x="11" y="7" width="1" height="1" fill="#f5e0ff"/>
<rect x="12" y="7" width="1" height="1" fill="#f469ff"/>
<rect x="13" y="7" width="1" height="1" fill="#f9ebff"/>
<rect x="14" y="7" width="1" height="1" fill="#ffffff"/>
<rect x="15" y="7" width="1" height="1" fill="#ffffff"/>
<rect x="16" y="7" width="1" height="1" fill="#ffffff"/>
<rect x="17" y="7" width="1" height="1" fill="#fffdff"/>
<rect x="18" y="7" width="1" height="1" fill="#f6a3ff"/>
<rect x="19" y="7" width="1" height="1" fill="#fffdff"/>
<rect x="20" y="7" width="1" height="1" fill="#ffffff"/>
<rect x="21" y="7" width="1" height="1" fill="#f6dcff"/>
<rect x="22" y="7" width="1" height="1" fill="#f679ff"/>
<rect x="23" y="7" width="1" height="1" fill="#de1bd8" fill-opacity="0.984"/>
<rect x="24" y="7" width="1" height="1" fill="#e41ee4" fill-opacity="0.035"/>
<rect x="1" y="8" width="1" height="1" fill="#e220d3" fill-opacity="0.067"/>
<rect x="2" y="8" width="1" height="1" fill="#d81ad2" fill-opacity="0.969"/>
<rect x="3" y="8" width="1" height="1" fill="#d81ad1" fill-opacity="0.984"/>
<rect x="4" y="8" width="1" height="1" fill="#d81ad1" fill-opacity="0.953"/>
<rect x="5" y="8" width="1" height="1" fill="#d320c4" fill-opacity="0.067"/>
<rect x="8" y="8" width="1" height="1" fill="#c420c4" fill-opacity="0.067"/>
<rect x="9" y="8" width="1" height="1" fill="#bb1ab0" fill-opacity="0.984"/>
<rect x="10" y="8" width="1" height="1" fill="#de20d8"/>
<rect x="11" y="8" width="1" height="1" fill="#f4bbfe"/>
<rect x="12" y="8" width="1" height="1" fill="#f678ff"/>
<rect x="13" y="8" width="1" height="1" fill="#f4e3ff"/>
<rect x="14" y="8" width="1" height="1" fill="#ffffff"/>
<rect x="15" y="8" width="1" height="1" fill="#ffffff"/>
<rect x="16" y="8" width="1" height="1" fill="#fffeff"/>
<rect x="17" y="8" width="1" height="1" fill="#f6c8ff"/>
<rect x="18" y="8" width="1" height="1" fill="#fffdff"/>
<rect x="19" y="8" width="1" height="1" fill="#ffffff"/>
<rect x="20" y="8" width="1" height="1" fill="#fcf6ff"/>
<rect x="21" y="8" width="1" height="1" fill="#f4d3ff"/>
<rect x="22" y="8" width="1" height="1" fill="#f777ff"/>
<rect x="23" y="8" width="1" height="1" fill="#de1bd8" fill-opacity="0.984"/>
<rect x="24" y="8" width="1" height="1" fill="#e41ee4" fill-opacity="0.035"/>
<rect x="2" y="9" width="1" height="1" fill="#c81ec8" fill-opacity="0.035"/>
<rect x="3" y="9" width="1" height="1" fill="#e41ec8" fill-opacity="0.035"/>
<rect x="4" y="9" width="1" height="1" fill="#c81ec8" fill-opacity="0.035"/>
<rect x="8" y="9" width="1" height="1" fill="#ac1eac" fill-opacity="0.035"/>
<rect x="9" y="9" width="1" height="1" fill="#b91ab0" fill-opacity="0.984"/>
<rect x="10" y="9" width="1" height="1" fill="#e71ae0"/>
<rect x="11" y="9" width="1" height="1" fill="#df21d8"/>
<rect x="12" y="9" width="1" height="1" fill="#f4dcff"/>
<rect x="13" y="9" width="1" height="1" fill="#fffeff"/>
<rect x="14" y="9" width="1" height="1" fill="#ffffff"/>
<rect x="15" y="9" width="1" height="1" fill="#ffffff"/>
<rect x="16" y="9" width="1" height="1" fill="#ffffff"/>
<rect x="17" y="9" width="1" height="1" fill="#fffeff"/>
<rect x="18" y="9" width="1" height="1" fill="#ffffff"/>
<rect x="19" y="9" width="1" height="1" fill="#fcf6ff"/>
<rect x="20" y="9" width="1" height="1" fill="#f5e3ff"/>
<rect x="21" y="9" width="1" height="1" fill="#f4d2ff"/>
<rect x="22" y="9" width="1" height="1" fill="#f777ff"/>
<rect x="23" y="9" width="1" height="1" fill="#de1bd8" fill-opacity="0.984"/>
<rect x="24" y="9" width="1" height="1" fill="#e220e2" fill-opacity="0.067"/>
<rect x="4" y="10" width="1" height="1" fill="#c81ec8" fill-opacity="0.035"/>
<rect x="5" y="10" width="1" height="1" fill="#e41ee4" fill-opacity="0.035"/>
<rect x="6" y="10" width="1" height="1" fill="#c81ec8" fill-opacity="0.035"/>
<rect x="7" y="10" width="1" height="1" fill="#ff0000" fill-opacity="0.004"/>
<rect x="8" y="10" width="1" height="1" fill="#d320c4" fill-opacity="0.067"/>
<rect x="9" y="10" width="1" height="1" fill="#cc1ac3" fill-opacity="0.984"/>
<rect x="10" y="10" width="1" height="1" fill="#f51aec"/>
<rect x="11" y="10" width="1" height="1" fill="#df1ed8"/>
<rect x="12" y="10" width="1" height="1" fill="#f4dcff"/>
<rect x="13" y="10" width="1" height="1" fill="#fffeff"/>
<rect x="14" y="10" width="1" height="1" fill="#fefbfe"/>
<rect x="15" y="10" width="1" height="1" fill="#f7eafe"/>
<rect x="16" y="10" width="1" height="1" fill="#f7e9fe"/>
<rect x="17" y="10" width="1" height="1" fill="#f8e9fe"/>
<rect x="18" y="10" width="1" height="1" fill="#f5e1ff"/>
<rect x="19" y="10" width="1" height="1" fill="#f5e4ff"/>
<rect x="20" y="10" width="1" height="1" fill="#f4ceff"/>
<rect x="21" y="10" width="1" height="1" fill="#f4c1ff"/>
<rect x="22" y="10" width="1" height="1" fill="#f587ff"/>
<rect x="23" y="10" width="1" height="1" fill="#df20d8"/>
<rect x="24" y="10" width="1" height="1" fill="#de1ad7" fill-opacity="0.969"/>
<rect x="25" y="10" width="1" height="1" fill="#e41ee4" fill-opacity="0.035"/>
<rect x="3" y="11" width="1" height="1" fill="#e41ee4" fill-opacity="0.035"/>
<rect x="4" y="11" width="1" height="1" fill="#de1ad7" fill-opacity="0.965"/>
<rect x="5" y="11" width="1" height="1" fill="#de1ed3" fill-opacity="0.984"/>
<rect x="6" y="11" width="1" height="1" fill="#de1fd3" fill-opacity="0.969"/>
<rect x="7" y="11" width="1" height="1" fill="#cf1fc5" fill-opacity="0.102"/>
<rect x="8" y="11" width="1" height="1" fill="#ca1ac2" fill-opacity="0.969"/>
<rect x="9" y="11" width="1" height="1" fill="#f51aec"/>
<rect x="10" y="11" width="1" height="1" fill="#f61aed"/>
<rect x="11" y="11" width="1" height="1" fill="#df1ed8"/>
<rect x="12" y="11" width="1" height="1" fill="#f4dbff"/>
<rect x="13" y="11" width="1" height="1" fill="#f0c9fd"/>
<rect x="14" y="11" width="1" height="1" fill="#ca24c1"/>
<rect x="15" y="11" width="1" height="1" fill="#c91fc0"/>
<rect x="16" y="11" width="1" height="1" fill="#c91fc1"/>
<rect x="17" y="11" width="1" height="1" fill="#c921c2"/>
<rect x="18" y="11" width="1" height="1" fill="#f3d5fd"/>
<rect x="19" y="11" width="1" height="1" fill="#f4caff"/>
<rect x="20" y="11" width="1" height="1" fill="#f4cbff"/>
<rect x="21" y="11" width="1" height="1" fill="#f4b2ff"/>
<rect x="22" y="11" width="1" height="1" fill="#f933fc"/>
<rect x="23" y="11" width="1" height="1" fill="#f7e2fe"/>
<rect x="24" y="11" width="1" height="1" fill="#de1fd8" fill-opacity="0.984"/>
<rect x="25" y="11" width="1" height="1" fill="#e41ee4" fill-opacity="0.035"/>
<rect x="3" y="12" width="1" height="1" fill="#e41ee4" fill-opacity="0.035"/>
<rect x="4" y="12" width="1" height="1" fill="#de1fd3" fill-opacity="0.984"/>
<rect x="5" y="12" width="1" height="1" fill="#feec0f"/>
<rect x="6" y="12" width="1" height="1" fill="#feec0e"/>
<rect x="7" y="12" width="1" height="1" fill="#ca21bc" fill-opacity="0.984"/>
<rect x="8" y="12" width="1" height="1" fill="#fc1af6"/>
<rect x="9" y="12" width="1" height="1" fill="#fc1afe"/>
<rect x="10" y="12" width="1" height="1" fill="#f61aed"/>
<rect x="11" y="12" width="1" height="1" fill="#df1ed8"/>
<rect x="12" y="12" width="1" height="1" fill="#f4cafc"/>
<rect x="13" y="12" width="1" height="1" fill="#cb26c4"/>
<rect x="14" y="12" width="1" height="1" fill="#f5adfd"/>
<rect x="15" y="12" width="1" height="1" fill="#f54cfd"/>
<rect x="16" y="12" width="1" height="1" fill="#f54afd"/>
<rect x="17" y="12" width="1" height="1" fill="#f41bfd"/>
<rect x="18" y="12" width="1" height="1" fill="#c421bd"/>
<rect x="19" y="12" width="1" height="1" fill="#f3c2fd"/>
<rect x="20" y="12" width="1" height="1" fill="#f5a9ff"/>
<rect x="21" y="12" width="1" height="1" fill="#f556ff"/>
<rect x="22" y="12" width="1" height="1" fill="#f7caff"/>
<rect x="23" y="12" width="1" height="1" fill="#f698ff"/>
<rect x="24" y="12" width="1" height="1" fill="#de1dd8" fill-opacity="0.984"/>
<rect x="25" y="12" width="1" height="1" fill="#e41ee4" fill-opacity="0.035"/>
<rect x="3" y="13" width="1" height="1" fill="#e220d3" fill-opacity="0.067"/>
<rect x="4" y="13" width="1" height="1" fill="#df21d4" fill-opacity="0.984"/>
<rect x="5" y="13" width="1" height="1" fill="#feec0e"/>
<rect x="6" y="13" width="1" height="1" fill="#fff108"/>
<rect x="7" y="13" width="1" height="1" fill="#fdce0e"/>
<rect x="8" y="13" width="1" height="1" fill="#be21ac"/>
<rect x="9" y="13" width="1" height="1" fill="#fa1afc"/>
<rect x="10" y="13" width="1" height="1" fill="#fc1aff"/>
<rect x="11" y="13" width="1" height="1" fill="#f91af1"/>
<rect x="12" y="13" width="1" height="1" fill="#ca20c1"/>
<rect x="13" y="13" width="1" height="1" fill="#f5adfd"/>
<rect x="14" y="13" width="1" height="1" fill="#f43efd"/>
<rect x="15" y="13" width="1" height="1" fill="#cf1bc9"/>
<rect x="16" y="13" width="1" height="1" fill="#cd1bc5"/>
<rect x="17" y="13" width="1" height="1" fill="#f125fd"/>
<rect x="18" y="13" width="1" height="1" fill="#f41afd"/>
<rect x="19" y="13" width="1" height="1" fill="#ca20c1"/>
<rect x="20" y="13" width="1" height="1" fill="#f496fe"/>
<rect x="21" y="13" width="1" height="1" fill="#f7c2ff"/>
<rect x="22" y="13" width="1" height="1" fill="#f7a0ff"/>
<rect x="23" y="13" width="1" height="1" fill="#f696ff"/>
<rect x="24" y="13" width="1" height="1" fill="#de1dd8" fill-opacity="0.984"/>
<rect x="25" y="13" width="1" height="1" fill="#e41ee4" fill-opacity="0.035"/>
<rect x="2" y="14" width="1" height="1" fill="#c420c4" fill-opacity="0.067"/>
<rect x="3" y="14" width="1" height="1" fill="#ca22c0" fill-opacity="0.969"/>
<rect x="4" y="14" width="1" height="1" fill="#fcf4fc"/>
<rect x="5" y="14" width="1" height="1" fill="#ce28bf"/>
<rect x="6" y="14" width="1" height="1" fill="#fdcd0e"/>
<rect x="7" y="14" width="1" height="1" fill="#ffd108"/>
<rect x="8" y="14" width="1" height="1" fill="#fdcc0e"/>
<rect x="9" y="14" width="1" height="1" fill="#bd20ac"/>
<rect x="10" y="14" width="1" height="1" fill="#f81af0"/>
<rect x="11" y="14" width="1" height="1" fill="#f91af1"/>
<rect x="12" y="14" width="1" height="1" fill="#c91bc0"/>
<rect x="13" y="14" width="1" height="1" fill="#f45efd"/>
<rect x="14" y="14" width="1" height="1" fill="#d41dcc"/>
<rect x="15" y="14" width="1" height="1" fill="#f126fd"/>
<rect x="16" y="14" width="1" height="1" fill="#f126fd"/>
<rect x="17" y="14" width="1" height="1" fill="#cf1ac9"/>
<rect x="18" y="14" width="1" height="1" fill="#f41afd"/>
<rect x="19" y="14" width="1" height="1" fill="#c91dc0"/>
<rect x="20" y="14" width="1" height="1" fill="#f488fe"/>
<rect x="21" y="14" width="1" height="1" fill="#f794ff"/>
<rect x="22" y="14" width="1" height="1" fill="#f793ff"/>
<rect x="23" y="14" width="1" height="1" fill="#f571fe"/>
<rect x="24" y="14" width="1" height="1" fill="#de1bd7" fill-opacity="0.969"/>
<rect x="25" y="14" width="1" height="1" fill="#e41ee4" fill-opacity="0.035"/>
<rect x="1" y="15" width="1" height="1" fill="#d320c4" fill-opacity="0.067"/>
<rect x="2" y="15" width="1" height="1" fill="#c821c1" fill-opacity="0.969"/>
<rect x="3" y="15" width="1" height="1" fill="#fdf6fd"/>
<rect x="4" y="15" width="1" height="1" fill="#f0d3ff"/>
<rect x="5" y="15" width="1" height="1" fill="#f1b1fd"/>
<rect x="6" y="15" width="1" height="1" fill="#bd25ac"/>
<rect x="7" y="15" width="1" height="1" fill="#fdbe0e"/>
<rect x="8" y="15" width="1" height="1" fill="#ffc208"/>
<rect x="9" y="15" width="1" height="1" fill="#fdbd0e"/>
<rect x="10" y="15" width="1" height="1" fill="#be1eb2"/>
<rect x="11" y="15" width="1" height="1" fill="#f81af0"/>
<rect x="12" y="15" width="1" height="1" fill="#c91bc0"/>
<rect x="13" y="15" width="1" height="1" fill="#f449fd"/>
<rect x="14" y="15" width="1" height="1" fill="#d21bca"/>
<rect x="15" y="15" width="1" height="1" fill="#f126fd"/>
<rect x="16" y="15" width="1" height="1" fill="#f126fd"/>
<rect x="17" y="15" width="1" height="1" fill="#cd1ac5"/>
<rect x="18" y="15" width="1" height="1" fill="#f41afd"/>
<rect x="19" y="15" width="1" height="1" fill="#c91bc0"/>
<rect x="20" y="15" width="1" height="1" fill="#f570fe"/>
<rect x="21" y="15" width="1" height="1" fill="#f673ff"/>
<rect x="22" y="15" width="1" height="1" fill="#f56ffe"/>
<rect x="23" y="15" width="1" height="1" fill="#df1ed9" fill-opacity="0.969"/>
<rect x="24" y="15" width="1" height="1" fill="#e220e2" fill-opacity="0.067"/>
<rect x="0" y="16" width="1" height="1" fill="#d320c4" fill-opacity="0.067"/>
<rect x="1" y="16" width="1" height="1" fill="#d01ec9" fill-opacity="0.969"/>
<rect x="2" y="16" width="1" height="1" fill="#f3d8fc"/>
<rect x="3" y="16" width="1" height="1" fill="#f1cafe"/>
<rect x="4" y="16" width="1" height="1" fill="#f4b4fe"/>
<rect x="5" y="16" width="1" height="1" fill="#f4a1fe"/>
<rect x="6" y="16" width="1" height="1" fill="#f578fb"/>
<rect x="7" y="16" width="1" height="1" fill="#be21ad"/>
<rect x="8" y="16" width="1" height="1" fill="#fda107"/>
<rect x="9" y="16" width="1" height="1" fill="#fda107"/>
<rect x="10" y="16" width="1" height="1" fill="#bd1db1"/>
<rect x="11" y="16" width="1" height="1" fill="#f81aef"/>
<rect x="12" y="16" width="1" height="1" fill="#ca1ac0"/>
<rect x="13" y="16" width="1" height="1" fill="#f11bfd"/>
<rect x="14" y="16" width="1" height="1" fill="#f324fd"/>
<rect x="15" y="16" width="1" height="1" fill="#ca1ac1"/>
<rect x="16" y="16" width="1" height="1" fill="#ca1ac1"/>
<rect x="17" y="16" width="1" height="1" fill="#f422fd"/>
<rect x="18" y="16" width="1" height="1" fill="#f41afd"/>
<rect x="19" y="16" width="1" height="1" fill="#c41bbd"/>
<rect x="20" y="16" width="1" height="1" fill="#f570fd"/>
<rect x="21" y="16" width="1" height="1" fill="#f46bfe"/>
<rect x="22" y="16" width="1" height="1" fill="#de1ed8" fill-opacity="0.984"/>
<rect x="23" y="16" width="1" height="1" fill="#d91fd9" fill-opacity="0.102"/>
<rect x="24" y="16" width="1" height="1" fill="#ff00ff" fill-opacity="0.004"/>
<rect x="0" y="17" width="1" height="1" fill="#cf1ac4" fill-opacity="0.969"/>
<rect x="1" y="17" width="1" height="1" fill="#cf1bc5"/>
<rect x="2" y="17" width="1" height="1" fill="#d01fc6"/>
<rect x="3" y="17" width="1" height="1" fill="#d01fc6"/>
<rect x="4" y="17" width="1" height="1" fill="#d01fc6"/>
<rect x="5" y="17" width="1" height="1" fill="#d01ec6"/>
<rect x="6" y="17" width="1" height="1" fill="#d01ec6"/>
<rect x="7" y="17" width="1" height="1" fill="#cf1bc4"/>
<rect x="8" y="17" width="1" height="1" fill="#bc1eae"/>
<rect x="9" y="17" width="1" height="1" fill="#bb1eae"/>
<rect x="10" y="17" width="1" height="1" fill="#b91bb1"/>
<rect x="11" y="17" width="1" height="1" fill="#d01ac6"/>
<rect x="12" y="17" width="1" height="1" fill="#dc1ad3"/>
<rect x="13" y="17" width="1" height="1" fill="#ca1ac1"/>
<rect x="14" y="17" width="1" height="1" fill="#f51afd"/>
<rect x="15" y="17" width="1" height="1" fill="#f51afd"/>
<rect x="16" y="17" width="1" height="1" fill="#f51afd"/>
<rect x="17" y="17" width="1" height="1" fill="#f41afd"/>
<rect x="18" y="17" width="1" height="1" fill="#c01ab8"/>
<rect x="19" y="17" width="1" height="1" fill="#d71ace"/>
<rect x="20" y="17" width="1" height="1" fill="#d81bcf"/>
<rect x="21" y="17" width="1" height="1" fill="#d81bcf"/>
<rect x="22" y="17" width="1" height="1" fill="#d41aca"/>
<rect x="23" y="17" width="1" height="1" fill="#de1ad7" fill-opacity="0.969"/>
<rect x="24" y="17" width="1" height="1" fill="#e41ee4" fill-opacity="0.035"/>
<rect x="25" y="17" width="1" height="1" fill="#c80000" fill-opacity="0.035"/>
<rect x="0" y="18" width="1" height="1" fill="#c91bc0" fill-opacity="0.984"/>
<rect x="1" y="18" width="1" height="1" fill="#f45ffc"/>
<rect x="2" y="18" width="1" height="1" fill="#f461fd"/>
<rect x="3" y="18" width="1" height="1" fill="#f461fd"/>
<rect x="4" y="18" width="1" height="1" fill="#f461fd"/>
<rect x="5" y="18" width="1" height="1" fill="#f461fd"/>
<rect x="6" y="18" width="1" height="1" fill="#f461fd"/>
<rect x="7" y="18" width="1" height="1" fill="#f65cfd"/>
<rect x="8" y="18" width="1" height="1" fill="#f14cfd"/>
<rect x="9" y="18" width="1" height="1" fill="#f44bfd"/>
<rect x="10" y="18" width="1" height="1" fill="#f440fd"/>
<rect x="11" y="18" width="1" height="1" fill="#f126fd"/>
<rect x="12" y="18" width="1" height="1" fill="#f126fd"/>
<rect x="13" y="18" width="1" height="1" fill="#f026fc"/>
<rect x="14" y="18" width="1" height="1" fill="#ca1ac0" fill-opacity="0.984"/>
<rect x="15" y="18" width="1" height="1" fill="#c91ac0" fill-opacity="0.984"/>
<rect x="16" y="18" width="1" height="1" fill="#c91ac0" fill-opacity="0.984"/>
<rect x="17" y="18" width="1" height="1" fill="#ca1ac0" fill-opacity="0.984"/>
<rect x="18" y="18" width="1" height="1" fill="#f91afc"/>
<rect x="19" y="18" width="1" height="1" fill="#fb1afd"/>
<rect x="20" y="18" width="1" height="1" fill="#fb1afd"/>
<rect x="21" y="18" width="1" height="1" fill="#fb1afd"/>
<rect x="22" y="18" width="1" height="1" fill="#fa1afd"/>
<rect x="23" y="18" width="1" height="1" fill="#de1ad7" fill-opacity="0.984"/>
<rect x="24" y="18" width="1" height="1" fill="#e41ee4" fill-opacity="0.035"/>
<rect x="25" y="18" width="1" height="1" fill="#ac0000" fill-opacity="0.035"/>
<rect x="0" y="19" width="1" height="1" fill="#c81abf" fill-opacity="0.965"/>
<rect x="1" y="19" width="1" height="1" fill="#c91bc0" fill-opacity="0.984"/>
<rect x="2" y="19" width="1" height="1" fill="#c91bc0" fill-opacity="0.984"/>
<rect x="3" y="19" width="1" height="1" fill="#c91bc0" fill-opacity="0.984"/>
<rect x="4" y="19" width="1" height="1" fill="#c91bc0" fill-opacity="0.984"/>
<rect x="5" y="19" width="1" height="1" fill="#c91bc0" fill-opacity="0.984"/>
<rect x="6" y="19" width="1" height="1" fill="#c91bc0" fill-opacity="0.984"/>
<rect x="7" y="19" width="1" height="1" fill="#c91bc0" fill-opacity="0.984"/>
<rect x="8" y="19" width="1" height="1" fill="#c81bbf" fill-opacity="0.988"/>
<rect x="9" y="19" width="1" height="1" fill="#c91bc0" fill-opacity="0.984"/>
<rect x="10" y="19" width="1" height="1" fill="#c91ac0" fill-opacity="0.984"/>
<rect x="11" y="19" width="1" height="1" fill="#c91ac0" fill-opacity="0.984"/>
<rect x="12" y="19" width="1" height="1" fill="#c91ac0" fill-opacity="0.984"/>
<rect x="13" y="19" width="1" height="1" fill="#c81ac0" fill-opacity="0.969"/>
<rect x="14" y="19" width="1" height="1" fill="#d320c4" fill-opacity="0.067"/>
<rect x="15" y="19" width="1" height="1" fill="#c81ec8" fill-opacity="0.035"/>
<rect x="16" y="19" width="1" height="1" fill="#c81ec8" fill-opacity="0.035"/>
<rect x="17" y="19" width="1" height="1" fill="#d320c4" fill-opacity="0.067"/>
<rect x="18" y="19" width="1" height="1" fill="#c81ac0" fill-opacity="0.969"/>
<rect x="19" y="19" width="1" height="1" fill="#c91ac0" fill-opacity="0.984"/>
<rect x="20" y="19" width="1" height="1" fill="#c91ac0" fill-opacity="0.984"/>
<rect x="21" y="19" width="1" height="1" fill="#c91ac0" fill-opacity="0.984"/>
<rect x="22" y="19" width="1" height="1" fill="#c91ac0" fill-opacity="0.984"/>
<rect x="23" y="19" width="1" height="1" fill="#c81abf" fill-opacity="0.965"/>
<rect x="24" y="19" width="1" height="1" fill="#c81ec8" fill-opacity="0.035"/>
<rect x="25" y="19" width="1" height="1" fill="#ac0000" fill-opacity="0.035"/>
<rect x="0" y="20" width="1" height="1" fill="#c81eac" fill-opacity="0.035"/>
<rect x="1" y="20" width="1" height="1" fill="#c81ec8" fill-opacity="0.035"/>
<rect x="2" y="20" width="1" height="1" fill="#c81ec8" fill-opacity="0.035"/>
<rect x="3" y="20" width="1" height="1" fill="#c81ec8" fill-opacity="0.035"/>
<rect x="4" y="20" width="1" height="1" fill="#c81ec8" fill-opacity="0.035"/>
<rect x="5" y="20" width="1" height="1" fill="#c81ec8" fill-opacity="0.035"/>
<rect x="6" y="20" width="1" height="1" fill="#c81ec8" fill-opacity="0.035"/>
<rect x="7" y="20" width="1" height="1" fill="#d219a4" fill-opacity="0.043"/>
<rect x="8" y="20" width="1" height="1" fill="#f81e39" fill-opacity="0.275"/>
<rect x="9" y="20" width="1" height="1" fill="#d219a4" fill-opacity="0.043"/>
<rect x="10" y="20" width="1" height="1" fill="#c81ec8" fill-opacity="0.035"/>
<rect x="11" y="20" width="1" height="1" fill="#c81ec8" fill-opacity="0.035"/>
<rect x="12" y="20" width="1" height="1" fill="#c81ec8" fill-opacity="0.035"/>
<rect x="13" y="20" width="1" height="1" fill="#c81eac" fill-opacity="0.035"/>
<rect x="18" y="20" width="1" height="1" fill="#c81eac" fill-opacity="0.035"/>
<rect x="19" y="20" width="1" height="1" fill="#c81ec8" fill-opacity="0.035"/>
<rect x="20" y="20" width="1" height="1" fill="#c81ec8" fill-opacity="0.035"/>
<rect x="21" y="20" width="1" height="1" fill="#c81ec8" fill-opacity="0.035"/>
<rect x="22" y="20" width="1" height="1" fill="#c81ec8" fill-opacity="0.035"/>
<rect x="23" y="20" width="1" height="1" fill="#c81eac" fill-opacity="0.035"/>
</svg>