<?xml version="1.0" encoding="UTF-8" standalone="no"?>
<svg xmlns="http://www.w3.org/2000/svg" width="26" height="21" shape-rendering="crispEdges">
<rect x="1" y="0" width="1" height="1" fill="#ff0000" fill-opacity="0.035"/>
<rect x="2" y="0" width="1" height="1" fill="#ff0000" fill-opacity="0.027"/>
<rect x="3" y="0" width="1" height="1" fill="#ff0000" fill-opacity="0.035"/>
<rect x="4" y="0" width="1" height="1" fill="#ff0a0a" fill-opacity="0.945"/>
<rect x="5" y="0" width="1" height="1" fill="#ff0000" fill-opacity="0.035"/>
<rect x="6" y="0" width="1" height="1" fill="#ff0000" fill-opacity="0.027"/>
<rect x="7" y="0" width="1" height="1" fill="#ff0000" fill-opacity="0.035"/>
<rect x="14" y="0" width="1" height="1" fill="#c80000" fill-opacity="0.035"/>
<rect x="15" y="0" width="1" height="1" fill="#c80000" fill-opacity="0.035"/>
<rect x="16" y="0" width="1" height="1" fill="#b50000" fill-opacity="0.067"/>
<rect x="17" y="0" width="1" height="1" fill="#a30202" fill-opacity="0.969"/>
<rect x="18" y="0" width="1" height="1" fill="#a40202" fill-opacity="0.984"/>
<rect x="19" y="0" width="1" height="1" fill="#a40202" fill-opacity="0.984"/>
<rect x="20" y="0" width="1" height="1" fill="#9e0000" fill-opacity="0.984"/>
<rect x="21" y="0" width="1" height="1" fill="#a20200" fill-opacity="0.949"/>
<rect x="22" y="0" width="1" height="1" fill="#c00000" fill-opacity="0.031"/>
<rect x="0" y="1" width="1" height="1" fill="#ff0000" fill-opacity="0.035"/>
<rect x="1" y="1" width="1" height="1" fill="#ff0b0b" fill-opacity="0.961"/>
<rect x="2" y="1" width="1" height="1" fill="#ff0808" fill-opacity="0.835"/>
<rect x="3" y="1" width="1" height="1" fill="#ff0000" fill-opacity="0.059"/>
<rect x="4" y="1" width="1" height="1" fill="#ff0a0a" fill-opacity="0.878"/>
<rect x="5" y="1" width="1" height="1" fill="#ff0000" fill-opacity="0.059"/>
<rect x="6" y="1" width="1" height="1" fill="#ff0808" fill-opacity="0.835"/>
<rect x="7" y="1" width="1" height="1" fill="#ff0b0b" fill-opacity="0.961"/>
<rect x="8" y="1" width="1" height="1" fill="#ff0000" fill-opacity="0.035"/>
<rect x="10" y="1" width="1" height="1" fill="#ac1e00" fill-opacity="0.035"/>
<rect x="11" y="1" width="1" height="1" fill="#c81e1e" fill-opacity="0.035"/>
<rect x="12" y="1" width="1" height="1" fill="#c81e1e" fill-opacity="0.035"/>
<rect x="13" y="1" width="1" height="1" fill="#c41000" fill-opacity="0.067"/>
<rect x="14" y="1" width="1" height="1" fill="#cd0202" fill-opacity="0.969"/>
<rect x="15" y="1" width="1" height="1" fill="#c00404" fill-opacity="0.984"/>
<rect x="16" y="1" width="1" height="1" fill="#c10707" fill-opacity="0.984"/>
<rect x="17" y="1" width="1" height="1" fill="#fd9087"/>
<rect x="18" y="1" width="1" height="1" fill="#fe9b93"/>
<rect x="19" y="1" width="1" height="1" fill="#fb7d73"/>
<rect x="20" y="1" width="1" height="1" fill="#a50202" fill-opacity="0.984"/>
<rect x="21" y="1" width="1" height="1" fill="#a80b00" fill-opacity="0.102"/>
<rect x="22" y="1" width="1" height="1" fill="#000000" fill-opacity="0.004"/>
<rect x="0" y="2" width="1" height="1" fill="#ff0000" fill-opacity="0.027"/>
<rect x="1" y="2" width="1" height="1" fill="#ff0808" fill-opacity="0.835"/>
<rect x="2" y="2" width="1" height="1" fill="#ff0000" fill-opacity="0.055"/>
<rect x="3" y="2" width="1" height="1" fill="#ff0f0f" fill-opacity="0.071"/>
<rect x="4" y="2" width="1" height="1" fill="#ff1010" fill-opacity="0.965"/>
<rect x="5" y="2" width="1" height="1" fill="#ff0f0f" fill-opacity="0.071"/>
<rect x="6" y="2" width="1" height="1" fill="#ff0000" fill-opacity="0.055"/>
<rect x="7" y="2" width="1" height="1" fill="#ff0808" fill-opacity="0.839"/>
<rect x="8" y="2" width="1" height="1" fill="#ff0000" fill-opacity="0.027"/>
<rect x="9" y="2" width="1" height="1" fill="#c81e1e" fill-opacity="0.035"/>
<rect x="10" y="2" width="1" height="1" fill="#c01810" fill-opacity="0.965"/>
<rect x="11" y="2" width="1" height="1" fill="#c01a10" fill-opacity="0.984"/>
<rect x="12" y="2" width="1" height="1" fill="#c01910" fill-opacity="0.984"/>
<rect x="13" y="2" width="1" height="1" fill="#c0180f" fill-opacity="0.984"/>
<rect x="14" y="2" width="1" height="1" fill="#c10707"/>
<rect x="15" y="2" width="1" height="1" fill="#fda9a4"/>
<rect x="16" y="2" width="1" height="1" fill="#fecdc8"/>
<rect x="17" y="2" width="1" height="1" fill="#ffd8d1"/>
<rect x="18" y="2" width="1" height="1" fill="#feb4ae"/>
<rect x="19" y="2" width="1" height="1" fill="#a70505"/>
<rect x="20" y="2" width="1" height="1" fill="#c0190f"/>
<rect x="21" y="2" width="1" height="1" fill="#c01810" fill-opacity="0.969"/>
<rect x="22" y="2" width="1" height="1" fill="#c81e1e" fill-opacity="0.035"/>
<rect x="0" y="3" width="1" height="1" fill="#ff0000" fill-opacity="0.035"/>
<rect x="1" y="3" width="1" height="1" fill="#ff0000" fill-opacity="0.055"/>
<rect x="2" y="3" width="1" height="1" fill="#ff0f0f" fill-opacity="0.071"/>
<rect x="3" y="3" width="1" height="1" fill="#ff1616" fill-opacity="0.969"/>
<rect x="4" y="3" width="1" height="1" fill="#ff4847"/>
<rect x="5" y="3" width="1" height="1" fill="#ff1616" fill-opacity="0.969"/>
<rect x="6" y="3" width="1" height="1" fill="#ff0f0f" fill-opacity="0.071"/>
<rect x="7" y="3" width="1" height="1" fill="#ff0000" fill-opacity="0.055"/>
<rect x="8" y="3" width="1" height="1" fill="#ff0000" fill-opacity="0.035"/>
<rect x="9" y="3" width="1" height="1" fill="#b90f0f" fill-opacity="0.071"/>
<rect x="10" y="3" width="1" height="1" fill="#c01a10" fill-opacity="0.984"/>
<rect x="11" y="3" width="1" height="1" fill="#fcc908"/>
<rect x="12" y="3" width="1" height="1" fill="#fca902"/>
<rect x="13" y="3" width="1" height="1" fill="#c10704"/>
<rect x="14" y="3" width="1" height="1" fill="#fdb1a9"/>
<rect x="15" y="3" width="1" height="1" fill="#ffedea"/>
<rect x="16" y="3" width="1" height="1" fill="#fffdfd"/>
<rect x="17" y="3" width="1" height="1" fill="#ffd6d0"/>
<rect x="18" y="3" width="1" height="1" fill="#fea8a2"/>
<rect x="19" y="3" width="1" height="1" fill="#a80805"/>
<rect x="20" y="3" width="1" height="1" fill="#fac508"/>
<rect x="21" y="3" width="1" height="1" fill="#c01a10" fill-opacity="0.984"/>
<rect x="22" y="3" width="1" height="1" fill="#c81e1e" fill-opacity="0.035"/>
<rect x="0" y="4" width="1" height="1" fill="#ff0b0b" fill-opacity="0.949"/>
<rect x="1" y="4" width="1" height="1" fill="#ff0a0a" fill-opacity="0.878"/>
<rect x="2" y="4" width="1" height="1" fill="#ff1010" fill-opacity="0.965"/>
<rect x="3" y="4" width="1" height="1" fill="#ff4848"/>
<rect x="4" y="4" width="1" height="1" fill="#ff8b8b"/>
<rect x="5" y="4" width="1" height="1" fill="#ff4848"/>
<rect x="6" y="4" width="1" height="1" fill="#ff1010" fill-opacity="0.965"/>
<rect x="7" y="4" width="1" height="1" fill="#ff0a0a" fill-opacity="0.878"/>
<rect x="8" y="4" width="1" height="1" fill="#fe0b0b" fill-opacity="0.965"/>
<rect x="9" y="4" width="1" height="1" fill="#aa0000" fill-opacity="0.984"/>
<rect x="10" y="4" width="1" height="1" fill="#a80505"/>
<rect x="11" y="4" width="1" height="1" fill="#c01910"/>
<rect x="12" y="4" width="1" height="1" fill="#c1190f"/>
<rect x="13" y="4" width="1" height="1" fill="#c00504"/>
<rect x="14" y="4" width="1" height="1" fill="#fec2bf"/>
<rect x="15" y="4" width="1" height="1" fill="#fffefe"/>
<rect x="16" y="4" width="1" height="1" fill="#ffffff"/>
<rect x="17" y="4" width="1" height="1" fill="#fff8f6"/>
<rect x="18" y="4" width="1" height="1" fill="#ffdbd8"/>
<rect x="19" y="4" width="1" height="1" fill="#fc928a"/>
<rect x="20" y="4" width="1" height="1" fill="#a20805"/>
<rect x="21" y="4" width="1" height="1" fill="#bf1810" fill-opacity="0.984"/>
<rect x="22" y="4" width="1" height="1" fill="#c81e1e" fill-opacity="0.035"/>
<rect x="25" y="4" width="1" height="1" fill="#ffa100" fill-opacity="0.031"/>
<rect x="0" y="5" width="1" height="1" fill="#ff0000" fill-opacity="0.035"/>
<rect x="1" y="5" width="1" height="1" fill="#ff0000" fill-opacity="0.055"/>
<rect x="2" y="5" width="1" height="1" fill="#ff0f0f" fill-opacity="0.071"/>
<rect x="3" y="5" width="1" height="1" fill="#ff1616" fill-opacity="0.969"/>
<rect x="4" y="5" width="1" height="1" fill="#ff4847"/>
<rect x="5" y="5" width="1" height="1" fill="#ff1616" fill-opacity="0.969"/>
<rect x="6" y="5" width="1" height="1" fill="#ff0f0f" fill-opacity="0.071"/>
<rect x="7" y="5" width="1" height="1" fill="#ff0000" fill-opacity="0.059"/>
<rect x="8" y="5" width="1" height="1" fill="#d60000" fill-opacity="0.071"/>
<rect x="9" y="5" width="1" height="1" fill="#a70404" fill-opacity="0.984"/>
<rect x="10" y="5" width="1" height="1" fill="#fac8c5"/>
<rect x="11" y="5" width="1" height="1" fill="#a20808"/>
<rect x="12" y="5" width="1" height="1" fill="#e90202"/>
<rect x="13" y="5" width="1" height="1" fill="#c20505"/>
<rect x="14" y="5" width="1" height="1" fill="#fec4c0"/>
<rect x="15" y="5" width="1" height="1" fill="#fffefe"/>
<rect x="16" y="5" width="1" height="1" fill="#ffffff"/>
<rect x="17" y="5" width="1" height="1" fill="#ffffff"/>
<rect x="18" y="5" width="1" height="1" fill="#fff5f1"/>
<rect x="19" y="5" width="1" height="1" fill="#ffbfb9"/>
<rect x="20" y="5" width="1" height="1" fill="#fc8d86"/>
<rect x="21" y="5" width="1" height="1" fill="#a80505" fill-opacity="0.984"/>
<rect x="22" y="5" width="1" height="1" fill="#ac0000" fill-opacity="0.035"/>
<rect x="0" y="6" width="1" height="1" fill="#ff0000" fill-opacity="0.027"/>
<rect x="1" y="6" width="1" height="1" fill="#ff0808" fill-opacity="0.835"/>
<rect x="2" y="6" width="1" height="1" fill="#ff0000" fill-opacity="0.055"/>
<rect x="3" y="6" width="1" height="1" fill="#ff0f0f" fill-opacity="0.071"/>
<rect x="4" y="6" width="1" height="1" fill="#ff1010" fill-opacity="0.965"/>
<rect x="5" y="6" width="1" height="1" fill="#ff0f0f" fill-opacity="0.071"/>
<rect x="6" y="6" width="1" height="1" fill="#ff0000" fill-opacity="0.059"/>
<rect x="7" y="6" width="1" height="1" fill="#ff0a0a" fill-opacity="0.867"/>
<rect x="8" y="6" width="1" height="1" fill="#c40000" fill-opacity="0.067"/>
<rect x="9" y="6" width="1" height="1" fill="#a70504" fill-opacity="0.984"/>
<rect x="10" y="6" width="1" height="1" fill="#fed5d2"/>
<rect x="11" y="6" width="1" height="1" fill="#fdd3d1"/>
<rect x="12" y="6" width="1" height="1" fill="#c30a0a"/>
<rect x="13" y="6" width="1" height="1" fill="#fd6562"/>
<rect x="14" y="6" width="1" height="1" fill="#ffd2ce"/>
<rect x="15" y="6" width="1" height="1" fill="#fffefe"/>
<rect x="16" y="6" width="1" height="1" fill="#ffffff"/>
<rect x="17" y="6" width="1" height="1" fill="#ffffff"/>
<rect x="18" y="6" width="1" height="1" fill="#fff8f6"/>
<rect x="19" y="6" width="1" height="1" fill="#ffc2be"/>
<rect x="20" y="6" width="1" height="1" fill="#fe9489"/>
<rect x="21" y="6" width="1" height="1" fill="#a80505" fill-opacity="0.984"/>
<rect x="22" y="6" width="1" height="1" fill="#ac0000" fill-opacity="0.071"/>
<rect x="23" y="6" width="1" height="1" fill="#ac0000" fill-opacity="0.035"/>
<rect x="24" y="6" width="1" height="1" fill="#900000" fill-opacity="0.035"/>
<rect x="0" y="7" width="1" height="1" fill="#ff0000" fill-opacity="0.035"/>
<rect x="1" y="7" width="1" height="1" fill="#ff0b0b" fill-opacity="0.961"/>
<rect x="2" y="7" width="1" height="1" fill="#ff0808" fill-opacity="0.835"/>
<rect x="3" y="7" width="1" height="1" fill="#ff0000" fill-opacity="0.059"/>
<rect x="4" y="7" width="1" height="1" fill="#ff0a0a" fill-opacity="0.878"/>
<rect x="5" y="7" width="1" height="1" fill="#ff0000" fill-opacity="0.059"/>
<rect x="6" y="7" width="1" height="1" fill="#ff0808" fill-opacity="0.839"/>
<rect x="7" y="7" width="1" height="1" fill="#ff0e0c" fill-opacity="0.961"/>
<rect x="8" y="7" width="1" height="1" fill="#d60000" fill-opacity="0.071"/>
<rect x="9" y="7" width="1" height="1" fill="#a70505" fill-opacity="0.984"/>
<rect x="10" y="7" width="1" height="1" fill="#fedbd9"/>
<rect x="11" y="7" width="1" height="1" fill="#ffeeec"/>
<rect x="12" y="7" width="1" height="1" fill="#fed3d2"/>
<rect x="13" y="7" width="1" height="1" fill="#ffc0be"/>
<rect x="14" y="7" width="1" height="1" fill="#ffedeb"/>
<rect x="15" y="7" width="1" height="1" fill="#ffffff"/>
<rect x="16" y="7" width="1" height="1" fill="#ffffff"/>
<rect x="17" y="7" width="1" height="1" fill="#fffffe"/>
<rect x="18" y="7" width="1" height="1" fill="#fff1ee"/>
<rect x="19" y="7" width="1" height="1" fill="#ffc0b9"/>
<rect x="20" y="7" width="1" height="1" fill="#fd7e75"/>
<rect x="21" y="7" width="1" height="1" fill="#b8100e"/>
<rect x="22" y="7" width="1" height="1" fill="#a60404" fill-opacity="0.984"/>
<rect x="23" y="7" width="1" height="1" fill="#a40202" fill-opacity="0.984"/>
<rect x="24" y="7" width="1" height="1" fill="#a00000" fill-opacity="0.965"/>
<rect x="25" y="7" width="1" height="1" fill="#ac0000" fill-opacity="0.035"/>
<rect x="1" y="8" width="1" height="1" fill="#ff0000" fill-opacity="0.035"/>
<rect x="2" y="8" width="1" height="1" fill="#ff0000" fill-opacity="0.027"/>
<rect x="3" y="8" width="1" height="1" fill="#ff0000" fill-opacity="0.035"/>
<rect x="4" y="8" width="1" height="1" fill="#ff0b0b" fill-opacity="0.945"/>
<rect x="5" y="8" width="1" height="1" fill="#ff0000" fill-opacity="0.035"/>
<rect x="6" y="8" width="1" height="1" fill="#ff0000" fill-opacity="0.027"/>
<rect x="7" y="8" width="1" height="1" fill="#ff0000" fill-opacity="0.035"/>
<rect x="8" y="8" width="1" height="1" fill="#ac0000" fill-opacity="0.035"/>
<rect x="9" y="8" width="1" height="1" fill="#a70505" fill-opacity="0.984"/>
<rect x="10" y="8" width="1" height="1" fill="#fededc"/>
<rect x="11" y="8" width="1" height="1" fill="#fffefe"/>
<rect x="12" y="8" width="1" height="1" fill="#fffefe"/>
<rect x="13" y="8" width="1" height="1" fill="#fff3ef"/>
<rect x="14" y="8" width="1" height="1" fill="#fffafa"/>
<rect x="15" y="8" width="1" height="1" fill="#ffffff"/>
<rect x="16" y="8" width="1" height="1" fill="#fffffe"/>
<rect x="17" y="8" width="1" height="1" fill="#fff1ed"/>
<rect x="18" y="8" width="1" height="1" fill="#ffd9d3"/>
<rect x="19" y="8" width="1" height="1" fill="#fe9890"/>
<rect x="20" y="8" width="1" height="1" fill="#cb2822"/>
<rect x="21" y="8" width="1" height="1" fill="#fd7f75"/>
<rect x="22" y="8" width="1" height="1" fill="#fe8f87"/>
<rect x="23" y="8" width="1" height="1" fill="#fb5b50"/>
<rect x="24" y="8" width="1" height="1" fill="#a80404" fill-opacity="0.969"/>
<rect x="25" y="8" width="1" height="1" fill="#ac0000" fill-opacity="0.035"/>
<rect x="4" y="9" width="1" height="1" fill="#ff0000" fill-opacity="0.031"/>
<rect x="8" y="9" width="1" height="1" fill="#ac0000" fill-opacity="0.035"/>
<rect x="9" y="9" width="1" height="1" fill="#aa0404" fill-opacity="0.984"/>
<rect x="10" y="9" width="1" height="1" fill="#fcc2c0"/>
<rect x="11" y="9" width="1" height="1" fill="#ffdedc"/>
<rect x="12" y="9" width="1" height="1" fill="#fffefe"/>
<rect x="13" y="9" width="1" height="1" fill="#ffffff"/>
<rect x="14" y="9" width="1" height="1" fill="#fffffe"/>
<rect x="15" y="9" width="1" height="1" fill="#fffefe"/>
<rect x="16" y="9" width="1" height="1" fill="#ffe6e4"/>
<rect x="17" y="9" width="1" height="1" fill="#ffb5af"/>
<rect x="18" y="9" width="1" height="1" fill="#ff867b"/>
<rect x="19" y="9" width="1" height="1" fill="#eb463d"/>
<rect x="20" y="9" width="1" height="1" fill="#fe8f87"/>
<rect x="21" y="9" width="1" height="1" fill="#ffada2"/>
<rect x="22" y="9" width="1" height="1" fill="#fd6a61"/>
<rect x="23" y="9" width="1" height="1" fill="#d61913" fill-opacity="0.969"/>
<rect x="24" y="9" width="1" height="1" fill="#b51010" fill-opacity="0.067"/>
<rect x="0" y="10" width="1" height="1" fill="#040404" fill-opacity="0.012"/>
<rect x="4" y="10" width="1" height="1" fill="#c80000" fill-opacity="0.035"/>
<rect x="5" y="10" width="1" height="1" fill="#c80000" fill-opacity="0.035"/>
<rect x="6" y="10" width="1" height="1" fill="#c80000" fill-opacity="0.035"/>
<rect x="7" y="10" width="1" height="1" fill="#000000" fill-opacity="0.004"/>
<rect x="8" y="10" width="1" height="1" fill="#b50000" fill-opacity="0.067"/>
<rect x="9" y="10" width="1" height="1" fill="#ad0404" fill-opacity="0.984"/>
<rect x="10" y="10" width="1" height="1" fill="#f9a19e"/>
<rect x="11" y="10" width="1" height="1" fill="#ffc0bd"/>
<rect x="12" y="10" width="1" height="1" fill="#ffe0df"/>
<rect x="13" y="10" width="1" height="1" fill="#ffe9e7"/>
<rect x="14" y="10" width="1" height="1" fill="#fed9d5"/>
<rect x="15" y="10" width="1" height="1" fill="#fed8d3"/>
<rect x="16" y="10" width="1" height="1" fill="#fed4d0"/>
<rect x="17" y="10" width="1" height="1" fill="#fecdc8"/>
<rect x="18" y="10" width="1" height="1" fill="#ffd7d2"/>
<rect x="19" y="10" width="1" height="1" fill="#ffcec9"/>
<rect x="20" y="10" width="1" height="1" fill="#ffcdc5"/>
<rect x="21" y="10" width="1" height="1" fill="#feb1a9"/>
<rect x="22" y="10" width="1" height="1" fill="#d11511" fill-opacity="0.984"/>
<rect x="23" y="10" width="1" height="1" fill="#d32010" fill-opacity="0.067"/>
<rect x="0" y="11" width="1" height="1" fill="#ff0404" fill-opacity="0.012"/>
<rect x="1" y="11" width="1" height="1" fill="#ff0404" fill-opacity="0.043"/>
<rect x="3" y="11" width="1" height="1" fill="#c80000" fill-opacity="0.035"/>
<rect x="4" y="11" width="1" height="1" fill="#ce0202" fill-opacity="0.965"/>
<rect x="5" y="11" width="1" height="1" fill="#ce0502" fill-opacity="0.984"/>
<rect x="6" y="11" width="1" height="1" fill="#cf0502" fill-opacity="0.969"/>
<rect x="7" y="11" width="1" height="1" fill="#c50000" fill-opacity="0.102"/>
<rect x="8" y="11" width="1" height="1" fill="#bb0000" fill-opacity="0.969"/>
<rect x="9" y="11" width="1" height="1" fill="#f70000"/>
<rect x="10" y="11" width="1" height="1" fill="#af0505"/>
<rect x="11" y="11" width="1" height="1" fill="#fc8683"/>
<rect x="12" y="11" width="1" height="1" fill="#fea09d"/>
<rect x="13" y="11" width="1" height="1" fill="#fda7a0"/>
<rect x="14" y="11" width="1" height="1" fill="#bc0a0a"/>
<rect x="15" y="11" width="1" height="1" fill="#b90505"/>
<rect x="16" y="11" width="1" height="1" fill="#b80505"/>
<rect x="17" y="11" width="1" height="1" fill="#bb0707"/>
<rect x="18" y="11" width="1" height="1" fill="#fda9a4"/>
<rect x="19" y="11" width="1" height="1" fill="#ffdcda"/>
<rect x="20" y="11" width="1" height="1" fill="#ffdbd7"/>
<rect x="21" y="11" width="1" height="1" fill="#feafa8"/>
<rect x="22" y="11" width="1" height="1" fill="#cb0f0e" fill-opacity="0.984"/>
<rect x="23" y="11" width="1" height="1" fill="#c80000" fill-opacity="0.035"/>
<rect x="3" y="12" width="1" height="1" fill="#c80000" fill-opacity="0.035"/>
<rect x="4" y="12" width="1" height="1" fill="#cf0502" fill-opacity="0.984"/>
<rect x="5" y="12" width="1" height="1" fill="#fdeb08"/>
<rect x="6" y="12" width="1" height="1" fill="#fdeb08"/>
<rect x="7" y="12" width="1" height="1" fill="#bc0800" fill-opacity="0.984"/>
<rect x="8" y="12" width="1" height="1" fill="#ef0202"/>
<rect x="9" y="12" width="1" height="1" fill="#fe0000"/>
<rect x="10" y="12" width="1" height="1" fill="#da1e19"/>
<rect x="11" y="12" width="1" height="1" fill="#a90402"/>
<rect x="12" y="12" width="1" height="1" fill="#cc0404"/>
<rect x="13" y="12" width="1" height="1" fill="#bd0808"/>
<rect x="14" y="12" width="1" height="1" fill="#fd9d9d"/>
<rect x="15" y="12" width="1" height="1" fill="#fe4642"/>
<rect x="16" y="12" width="1" height="1" fill="#fe423f"/>
<rect x="17" y="12" width="1" height="1" fill="#fd1010"/>
<rect x="18" y="12" width="1" height="1" fill="#b60707"/>
<rect x="19" y="12" width="1" height="1" fill="#fd9f9a"/>
<rect x="20" y="12" width="1" height="1" fill="#ffbdb4"/>
<rect x="21" y="12" width="1" height="1" fill="#fe9a91"/>
<rect x="22" y="12" width="1" height="1" fill="#ca0e0a" fill-opacity="0.984"/>
<rect x="23" y="12" width="1" height="1" fill="#c80000" fill-opacity="0.035"/>
<rect x="3" y="13" width="1" height="1" fill="#c40000" fill-opacity="0.067"/>
<rect x="4" y="13" width="1" height="1" fill="#d00a05" fill-opacity="0.984"/>
<rect x="5" y="13" width="1" height="1" fill="#fdeb08"/>
<rect x="6" y="13" width="1" height="1" fill="#fff108"/>
<rect x="7" y="13" width="1" height="1" fill="#fdcd08"/>
<rect x="8" y="13" width="1" height="1" fill="#ae0800"/>
<rect x="9" y="13" width="1" height="1" fill="#fc0000"/>
<rect x="10" y="13" width="1" height="1" fill="#fe0000"/>
<rect x="11" y="13" width="1" height="1" fill="#eb0202"/>
<rect x="12" y="13" width="1" height="1" fill="#b90404"/>
<rect x="13" y="13" width="1" height="1" fill="#fd9d9d"/>
<rect x="14" y="13" width="1" height="1" fill="#ff3d37"/>
<rect x="15" y="13" width="1" height="1" fill="#ffca0a"/>
<rect x="16" y="13" width="1" height="1" fill="#ffca0a"/>
<rect x="17" y="13" width="1" height="1" fill="#ff2721"/>
<rect x="18" y="13" width="1" height="1" fill="#fd0f0f"/>
<rect x="19" y="13" width="1" height="1" fill="#bb0505"/>
<rect x="20" y="13" width="1" height="1" fill="#fe8c86"/>
<rect x="21" y="13" width="1" height="1" fill="#fd786f"/>
<rect x="22" y="13" width="1" height="1" fill="#ca0c0a" fill-opacity="0.969"/>
<rect x="23" y="13" width="1" height="1" fill="#c80000" fill-opacity="0.035"/>
<rect x="2" y="14" width="1" height="1" fill="#b50000" fill-opacity="0.067"/>
<rect x="3" y="14" width="1" height="1" fill="#bb0a0a" fill-opacity="0.969"/>
<rect x="4" y="14" width="1" height="1" fill="#fce6f1"/>
<rect x="5" y="14" width="1" height="1" fill="#c01008"/>
<rect x="6" y="14" width="1" height="1" fill="#fdcc08"/>
<rect x="7" y="14" width="1" height="1" fill="#ffd108"/>
<rect x="8" y="14" width="1" height="1" fill="#fccb08"/>
<rect x="9" y="14" width="1" height="1" fill="#ae0700"/>
<rect x="10" y="14" width="1" height="1" fill="#eb0202"/>
<rect x="11" y="14" width="1" height="1" fill="#eb0202"/>
<rect x="12" y="14" width="1" height="1" fill="#b90202"/>
<rect x="13" y="14" width="1" height="1" fill="#fe5553"/>
<rect x="14" y="14" width="1" height="1" fill="#ffc80b"/>
<rect x="15" y="14" width="1" height="1" fill="#fe2821"/>
<rect x="16" y="14" width="1" height="1" fill="#ff2821"/>
<rect x="17" y="14" width="1" height="1" fill="#ffa202"/>
<rect x="18" y="14" width="1" height="1" fill="#fe110f"/>
<rect x="19" y="14" width="1" height="1" fill="#b90202"/>
<rect x="20" y="14" width="1" height="1" fill="#fd554c"/>
<rect x="21" y="14" width="1" height="1" fill="#c20707" fill-opacity="0.984"/>
<rect x="22" y="14" width="1" height="1" fill="#c50b0b" fill-opacity="0.102"/>
<rect x="23" y="14" width="1" height="1" fill="#000000" fill-opacity="0.004"/>
<rect x="1" y="15" width="1" height="1" fill="#b50000" fill-opacity="0.067"/>
<rect x="2" y="15" width="1" height="1" fill="#b8080a" fill-opacity="0.969"/>
<rect x="3" y="15" width="1" height="1" fill="#fdeaf5"/>
<rect x="4" y="15" width="1" height="1" fill="#ffc3ca"/>
<rect x="5" y="15" width="1" height="1" fill="#fda0a3"/>
<rect x="6" y="15" width="1" height="1" fill="#af0c05"/>
<rect x="7" y="15" width="1" height="1" fill="#fcbd08"/>
<rect x="8" y="15" width="1" height="1" fill="#ffc208"/>
<rect x="9" y="15" width="1" height="1" fill="#fcbc08"/>
<rect x="10" y="15" width="1" height="1" fill="#ae0400"/>
<rect x="11" y="15" width="1" height="1" fill="#ea0202"/>
<rect x="12" y="15" width="1" height="1" fill="#b90202"/>
<rect x="13" y="15" width="1" height="1" fill="#fe423f"/>
<rect x="14" y="15" width="1" height="1" fill="#ffc60a"/>
<rect x="15" y="15" width="1" height="1" fill="#ff2821"/>
<rect x="16" y="15" width="1" height="1" fill="#fa2520"/>
<rect x="17" y="15" width="1" height="1" fill="#ff8707"/>
<rect x="18" y="15" width="1" height="1" fill="#fe1310"/>
<rect x="19" y="15" width="1" height="1" fill="#b90404"/>
<rect x="20" y="15" width="1" height="1" fill="#fe9b95"/>
<rect x="21" y="15" width="1" height="1" fill="#fda8a5"/>
<rect x="22" y="15" width="1" height="1" fill="#c10707" fill-opacity="0.969"/>
<rect x="23" y="15" width="1" height="1" fill="#c40000" fill-opacity="0.067"/>
<rect x="0" y="16" width="1" height="1" fill="#c40000" fill-opacity="0.067"/>
<rect x="1" y="16" width="1" height="1" fill="#c10505" fill-opacity="0.969"/>
<rect x="2" y="16" width="1" height="1" fill="#fcc9d0"/>
<rect x="3" y="16" width="1" height="1" fill="#feb9bf"/>
<rect x="4" y="16" width="1" height="1" fill="#fea4a7"/>
<rect x="5" y="16" width="1" height="1" fill="#fe9091"/>
<rect x="6" y="16" width="1" height="1" fill="#fb6a6a"/>
<rect x="7" y="16" width="1" height="1" fill="#ae0802"/>
<rect x="8" y="16" width="1" height="1" fill="#fca000"/>
<rect x="9" y="16" width="1" height="1" fill="#fca000"/>
<rect x="10" y="16" width="1" height="1" fill="#ad0400"/>
<rect x="11" y="16" width="1" height="1" fill="#ea0202"/>
<rect x="12" y="16" width="1" height="1" fill="#b90000"/>
<rect x="13" y="16" width="1" height="1" fill="#fd1919"/>
<rect x="14" y="16" width="1" height="1" fill="#ff130c"/>
<rect x="15" y="16" width="1" height="1" fill="#ffa402"/>
<rect x="16" y="16" width="1" height="1" fill="#ff8d05"/>
<rect x="17" y="16" width="1" height="1" fill="#ff150b"/>
<rect x="18" y="16" width="1" height="1" fill="#fc1111"/>
<rect x="19" y="16" width="1" height="1" fill="#b60707"/>
<rect x="20" y="16" width="1" height="1" fill="#feb0ac"/>
<rect x="21" y="16" width="1" height="1" fill="#fff4f4"/>
<rect x="22" y="16" width="1" height="1" fill="#fdc0bd"/>
<rect x="23" y="16" width="1" height="1" fill="#c10808" fill-opacity="0.969"/>
<rect x="24" y="16" width="1" height="1" fill="#c40000" fill-opacity="0.067"/>
<rect x="0" y="17" width="1" height="1" fill="#c00000" fill-opacity="0.969"/>
<rect x="1" y="17" width="1" height="1" fill="#c00202"/>
<rect x="2" y="17" width="1" height="1" fill="#c10505"/>
<rect x="3" y="17" width="1" height="1" fill="#c10505"/>
<rect x="4" y="17" width="1" height="1" fill="#c10505"/>
<rect x="5" y="17" width="1" height="1" fill="#c10505"/>
<rect x="6" y="17" width="1" height="1" fill="#c10404"/>
<rect x="7" y="17" width="1" height="1" fill="#c00202"/>
<rect x="8" y="17" width="1" height="1" fill="#ac0502"/>
<rect x="9" y="17" width="1" height="1" fill="#ac0502"/>
<rect x="10" y="17" width="1" height="1" fill="#aa0202"/>
<rect x="11" y="17" width="1" height="1" fill="#c10000"/>
<rect x="12" y="17" width="1" height="1" fill="#cc0000"/>
<rect x="13" y="17" width="1" height="1" fill="#bc0202"/>
<rect x="14" y="17" width="1" height="1" fill="#fd0e0c"/>
<rect x="15" y="17" width="1" height="1" fill="#fe0e0c"/>
<rect x="16" y="17" width="1" height="1" fill="#fe0e0b"/>
<rect x="17" y="17" width="1" height="1" fill="#fd0b0b"/>
<rect x="18" y="17" width="1" height="1" fill="#b20505"/>
<rect x="19" y="17" width="1" height="1" fill="#fd918b"/>
<rect x="20" y="17" width="1" height="1" fill="#ffb2b0"/>
<rect x="21" y="17" width="1" height="1" fill="#ffd7d5"/>
<rect x="22" y="17" width="1" height="1" fill="#ffe6e4"/>
<rect x="23" y="17" width="1" height="1" fill="#fdb8b3"/>
<rect x="24" y="17" width="1" height="1" fill="#c60504" fill-opacity="0.969"/>
<rect x="25" y="17" width="1" height="1" fill="#d62c00" fill-opacity="0.071"/>
<rect x="0" y="18" width="1" height="1" fill="#b80202" fill-opacity="0.984"/>
<rect x="1" y="18" width="1" height="1" fill="#fb5353"/>
<rect x="2" y="18" width="1" height="1" fill="#fd5454"/>
<rect x="3" y="18" width="1" height="1" fill="#fd5454"/>
<rect x="4" y="18" width="1" height="1" fill="#fd5454"/>
<rect x="5" y="18" width="1" height="1" fill="#fd5454"/>
<rect x="6" y="18" width="1" height="1" fill="#fd5454"/>
<rect x="7" y="18" width="1" height="1" fill="#fd5050"/>
<rect x="8" y="18" width="1" height="1" fill="#fc4141"/>
<rect x="9" y="18" width="1" height="1" fill="#fc4040"/>
<rect x="10" y="18" width="1" height="1" fill="#fc3838"/>
<rect x="11" y="18" width="1" height="1" fill="#fd2222"/>
<rect x="12" y="18" width="1" height="1" fill="#fd2121"/>
<rect x="13" y="18" width="1" height="1" fill="#fb2121"/>
<rect x="14" y="18" width="1" height="1" fill="#bb0000" fill-opacity="0.984"/>
<rect x="15" y="18" width="1" height="1" fill="#b80000" fill-opacity="0.984"/>
<rect x="16" y="18" width="1" height="1" fill="#b80000" fill-opacity="0.984"/>
<rect x="17" y="18" width="1" height="1" fill="#bb0202" fill-opacity="0.984"/>
<rect x="18" y="18" width="1" height="1" fill="#fc5958"/>
<rect x="19" y="18" width="1" height="1" fill="#fe8787"/>
<rect x="20" y="18" width="1" height="1" fill="#da0707"/>
<rect x="21" y="18" width="1" height="1" fill="#d90505"/>
<rect x="22" y="18" width="1" height="1" fill="#de0e0c"/>
<rect x="23" y="18" width="1" height="1" fill="#fd9590"/>
<rect x="24" y="18" width="1" height="1" fill="#c40202" fill-opacity="0.984"/>
<rect x="25" y="18" width="1" height="1" fill="#c82c00" fill-opacity="0.071"/>
<rect x="0" y="19" width="1" height="1" fill="#b70000" fill-opacity="0.965"/>
<rect x="1" y="19" width="1" height="1" fill="#b80202" fill-opacity="0.984"/>
<rect x="2" y="19" width="1" height="1" fill="#b80202" fill-opacity="0.984"/>
<rect x="3" y="19" width="1" height="1" fill="#b80202" fill-opacity="0.984"/>
<rect x="4" y="19" width="1" height="1" fill="#b80202" fill-opacity="0.984"/>
<rect x="5" y="19" width="1" height="1" fill="#b80202" fill-opacity="0.984"/>
<rect x="6" y="19" width="1" height="1" fill="#b80202" fill-opacity="0.984"/>
<rect x="7" y="19" width="1" height="1" fill="#b80202" fill-opacity="0.984"/>
<rect x="8" y="19" width="1" height="1" fill="#b80202" fill-opacity="0.984"/>
<rect x="9" y="19" width="1" height="1" fill="#b80202" fill-opacity="0.984"/>
<rect x="10" y="19" width="1" height="1" fill="#b80202" fill-opacity="0.984"/>
<rect x="11" y="19" width="1" height="1" fill="#b80000" fill-opacity="0.984"/>
<rect x="12" y="19" width="1" height="1" fill="#b80000" fill-opacity="0.984"/>
<rect x="13" y="19" width="1" height="1" fill="#b80000" fill-opacity="0.969"/>
<rect x="14" y="19" width="1" height="1" fill="#b50000" fill-opacity="0.067"/>
<rect x="15" y="19" width="1" height="1" fill="#ac0000" fill-opacity="0.035"/>
<rect x="16" y="19" width="1" height="1" fill="#ac0000" fill-opacity="0.035"/>
<rect x="17" y="19" width="1" height="1" fill="#d30000" fill-opacity="0.067"/>
<rect x="18" y="19" width="1" height="1" fill="#d90202" fill-opacity="0.969"/>
<rect x="19" y="19" width="1" height="1" fill="#da0404" fill-opacity="0.984"/>
<rect x="20" y="19" width="1" height="1" fill="#e70202" fill-opacity="0.984"/>
<rect x="21" y="19" width="1" height="1" fill="#ec0404" fill-opacity="0.984"/>
<rect x="22" y="19" width="1" height="1" fill="#ea0404" fill-opacity="0.984"/>
<rect x="23" y="19" width="1" height="1" fill="#d90202" fill-opacity="0.984"/>
<rect x="24" y="19" width="1" height="1" fill="#c30000" fill-opacity="0.965"/>
<rect x="25" y="19" width="1" height="1" fill="#c82c00" fill-opacity="0.071"/>
<rect x="0" y="20" width="1" height="1" fill="#ac0000" fill-opacity="0.035"/>
<rect x="1" y="20" width="1" height="1" fill="#ac0000" fill-opacity="0.035"/>
<rect x="2" y="20" width="1" height="1" fill="#ac0000" fill-opacity="0.035"/>
<rect x="3" y="20" width="1" height="1" fill="#ac0000" fill-opacity="0.035"/>
<rect x="4" y="20" width="1" height="1" fill="#ac0000" fill-opacity="0.035"/>
<rect x="5" y="20" width="1" height="1" fill="#ac0000" fill-opacity="0.035"/>
<rect x="6" y="20" width="1" height="1" fill="#ac0000" fill-opacity="0.035"/>
<rect x="7" y="20" width="1" height="1" fill="#ac0000" fill-opacity="0.035"/>
<rect x="8" y="20" width="1" height="1" fill="#ac0000" fill-opacity="0.035"/>
<rect x="9" y="20" width="1" height="1" fill="#ac0000" fill-opacity="0.035"/>
<rect x="10" y="20" width="1" height="1" fill="#ac0000" fill-opacity="0.035"/>
<rect x="11" y="20" width="1" height="1" fill="#ac0000" fill-opacity="0.035"/>
<rect x="12" y="20" width="1" height="1" fill="#ac0000" fill-opacity="0.035"/>
<rect x="13" y="20" width="1" height="1" fill="#ac0000" fill-opacity="0.035"/>
<rect x="18" y="20" width="1" height="1" fill="#c80000" fill-opacity="0.035"/>
<rect x="19" y="20" width="1" height="1" fill="#e40000" fill-opacity="0.035"/>
<rect x="20" y="20" width="1" height="1" fill="#e40000" fill-opacity="0.035"/>
<rect x="21" y="20" width="1" height="1" fill="#e40000" fill-opacity="0.035"/>
<rect x="22" y="20" width="1" height="1" fill="#e40000" fill-opacity="0.035"/>
<rect x="23" y="20" width="1" height="1" fill="#e40000" fill-opacity="0.035"/>
<rect x="24" y="20" width="1" height="1" fill="#c80000" fill-opacity="0.035"/>
</svg>