<?xml version="1.0" encoding="UTF-8" standalone="no"?>
<svg xmlns="http://www.w3.org/2000/svg" width="26" height="21" shape-rendering="crispEdges">
<rect x="1" y="0" width="1" height="1" fill="#ff9000" fill-opacity="0.035"/>
<rect x="2" y="0" width="1" height="1" fill="#ff9400" fill-opacity="0.027"/>
<rect x="3" y="0" width="1" height="1" fill="#ff9000" fill-opacity="0.035"/>
<rect x="4" y="0" width="1" height="1" fill="#ff8900" fill-opacity="0.945"/>
<rect x="5" y="0" width="1" height="1" fill="#ff9000" fill-opacity="0.035"/>
<rect x="6" y="0" width="1" height="1" fill="#ff9400" fill-opacity="0.027"/>
<rect x="7" y="0" width="1" height="1" fill="#ff9000" fill-opacity="0.035"/>
<rect x="14" y="0" width="1" height="1" fill="#e47300" fill-opacity="0.035"/>
<rect x="15" y="0" width="1" height="1" fill="#e45700" fill-opacity="0.035"/>
<rect x="16" y="0" width="1" height="1" fill="#d35c00" fill-opacity="0.067"/>
<rect x="17" y="0" width="1" height="1" fill="#bf5602" fill-opacity="0.969"/>
<rect x="18" y="0" width="1" height="1" fill="#bf5602" fill-opacity="0.984"/>
<rect x="19" y="0" width="1" height="1" fill="#bf5602" fill-opacity="0.984"/>
<rect x="20" y="0" width="1" height="1" fill="#b74f00" fill-opacity="0.984"/>
<rect x="21" y="0" width="1" height="1" fill="#be5500" fill-opacity="0.949"/>
<rect x="22" y="0" width="1" height="1" fill="#e06200" fill-opacity="0.031"/>
<rect x="0" y="1" width="1" height="1" fill="#ff9000" fill-opacity="0.035"/>
<rect x="1" y="1" width="1" height="1" fill="#ff8900" fill-opacity="0.961"/>
<rect x="2" y="1" width="1" height="1" fill="#ff8700" fill-opacity="0.835"/>
<rect x="3" y="1" width="1" height="1" fill="#ff8a00" fill-opacity="0.059"/>
<rect x="4" y="1" width="1" height="1" fill="#ff8800" fill-opacity="0.878"/>
<rect x="5" y="1" width="1" height="1" fill="#ff8a00" fill-opacity="0.059"/>
<rect x="6" y="1" width="1" height="1" fill="#ff8700" fill-opacity="0.835"/>
<rect x="7" y="1" width="1" height="1" fill="#ff8900" fill-opacity="0.961"/>
<rect x="8" y="1" width="1" height="1" fill="#ff9000" fill-opacity="0.035"/>
<rect x="10" y="1" width="1" height="1" fill="#e47300" fill-opacity="0.035"/>
<rect x="11" y="1" width="1" height="1" fill="#e47300" fill-opacity="0.035"/>
<rect x="12" y="1" width="1" height="1" fill="#e47300" fill-opacity="0.035"/>
<rect x="13" y="1" width="1" height="1" fill="#e27a00" fill-opacity="0.067"/>
<rect x="14" y="1" width="1" height="1" fill="#ee6d00" fill-opacity="0.969"/>
<rect x="15" y="1" width="1" height="1" fill="#e16604" fill-opacity="0.984"/>
<rect x="16" y="1" width="1" height="1" fill="#e16807" fill-opacity="0.984"/>
<rect x="17" y="1" width="1" height="1" fill="#fdd38d"/>
<rect x="18" y="1" width="1" height="1" fill="#fed899"/>
<rect x="19" y="1" width="1" height="1" fill="#fcc878"/>
<rect x="20" y="1" width="1" height="1" fill="#c05602" fill-opacity="0.984"/>
<rect x="21" y="1" width="1" height="1" fill="#cf6400" fill-opacity="0.102"/>
<rect x="22" y="1" width="1" height="1" fill="#ff0000" fill-opacity="0.004"/>
<rect x="0" y="2" width="1" height="1" fill="#ff9400" fill-opacity="0.027"/>
<rect x="1" y="2" width="1" height="1" fill="#ff8800" fill-opacity="0.835"/>
<rect x="2" y="2" width="1" height="1" fill="#ff9400" fill-opacity="0.055"/>
<rect x="3" y="2" width="1" height="1" fill="#ff9000" fill-opacity="0.071"/>
<rect x="4" y="2" width="1" height="1" fill="#ff8c02" fill-opacity="0.965"/>
<rect x="5" y="2" width="1" height="1" fill="#ff9000" fill-opacity="0.071"/>
<rect x="6" y="2" width="1" height="1" fill="#ff9400" fill-opacity="0.055"/>
<rect x="7" y="2" width="1" height="1" fill="#ff8700" fill-opacity="0.839"/>
<rect x="8" y="2" width="1" height="1" fill="#ff9400" fill-opacity="0.027"/>
<rect x="9" y="2" width="1" height="1" fill="#e47300" fill-opacity="0.035"/>
<rect x="10" y="2" width="1" height="1" fill="#e27802" fill-opacity="0.965"/>
<rect x="11" y="2" width="1" height="1" fill="#e27902" fill-opacity="0.984"/>
<rect x="12" y="2" width="1" height="1" fill="#e27902" fill-opacity="0.984"/>
<rect x="13" y="2" width="1" height="1" fill="#e27802" fill-opacity="0.984"/>
<rect x="14" y="2" width="1" height="1" fill="#e16807"/>
<rect x="15" y="2" width="1" height="1" fill="#fedfad"/>
<rect x="16" y="2" width="1" height="1" fill="#fff1d1"/>
<rect x="17" y="2" width="1" height="1" fill="#fff8db"/>
<rect x="18" y="2" width="1" height="1" fill="#fee4b6"/>
<rect x="19" y="2" width="1" height="1" fill="#c25905"/>
<rect x="20" y="2" width="1" height="1" fill="#e27802"/>
<rect x="21" y="2" width="1" height="1" fill="#e27802" fill-opacity="0.969"/>
<rect x="22" y="2" width="1" height="1" fill="#e47300" fill-opacity="0.035"/>
<rect x="0" y="3" width="1" height="1" fill="#ff9000" fill-opacity="0.035"/>
<rect x="1" y="3" width="1" height="1" fill="#ff8300" fill-opacity="0.055"/>
<rect x="2" y="3" width="1" height="1" fill="#ff9000" fill-opacity="0.071"/>
<rect x="3" y="3" width="1" height="1" fill="#ff8f0b" fill-opacity="0.969"/>
<rect x="4" y="3" width="1" height="1" fill="#ffa846"/>
<rect x="5" y="3" width="1" height="1" fill="#ff8f0b" fill-opacity="0.969"/>
<rect x="6" y="3" width="1" height="1" fill="#ff9000" fill-opacity="0.071"/>
<rect x="7" y="3" width="1" height="1" fill="#ff8300" fill-opacity="0.055"/>
<rect x="8" y="3" width="1" height="1" fill="#ff9000" fill-opacity="0.035"/>
<rect x="9" y="3" width="1" height="1" fill="#d66500" fill-opacity="0.071"/>
<rect x="10" y="3" width="1" height="1" fill="#e27902" fill-opacity="0.984"/>
<rect x="11" y="3" width="1" height="1" fill="#fecd08"/>
<rect x="12" y="3" width="1" height="1" fill="#feae02"/>
<rect x="13" y="3" width="1" height="1" fill="#e16704"/>
<rect x="14" y="3" width="1" height="1" fill="#fee2b3"/>
<rect x="15" y="3" width="1" height="1" fill="#fefef4"/>
<rect x="16" y="3" width="1" height="1" fill="#fffffe"/>
<rect x="17" y="3" width="1" height="1" fill="#fff5da"/>
<rect x="18" y="3" width="1" height="1" fill="#fedfa9"/>
<rect x="19" y="3" width="1" height="1" fill="#c25a05"/>
<rect x="20" y="3" width="1" height="1" fill="#fccb08"/>
<rect x="21" y="3" width="1" height="1" fill="#e27902" fill-opacity="0.984"/>
<rect x="22" y="3" width="1" height="1" fill="#e47300" fill-opacity="0.035"/>
<rect x="0" y="4" width="1" height="1" fill="#ff8900" fill-opacity="0.949"/>
<rect x="1" y="4" width="1" height="1" fill="#ff8800" fill-opacity="0.878"/>
<rect x="2" y="4" width="1" height="1" fill="#ff8c02" fill-opacity="0.965"/>
<rect x="3" y="4" width="1" height="1" fill="#ffa947"/>
<rect x="4" y="4" width="1" height="1" fill="#ffcc92"/>
<rect x="5" y="4" width="1" height="1" fill="#ffa947"/>
<rect x="6" y="4" width="1" height="1" fill="#ff8c02" fill-opacity="0.965"/>
<rect x="7" y="4" width="1" height="1" fill="#ff8800" fill-opacity="0.878"/>
<rect x="8" y="4" width="1" height="1" fill="#ff8800" fill-opacity="0.965"/>
<rect x="9" y="4" width="1" height="1" fill="#c85800" fill-opacity="0.984"/>
<rect x="10" y="4" width="1" height="1" fill="#c35804"/>
<rect x="11" y="4" width="1" height="1" fill="#e27802"/>
<rect x="12" y="4" width="1" height="1" fill="#e37802"/>
<rect x="13" y="4" width="1" height="1" fill="#e06704"/>
<rect x="14" y="4" width="1" height="1" fill="#ffebc8"/>
<rect x="15" y="4" width="1" height="1" fill="#fffffe"/>
<rect x="16" y="4" width="1" height="1" fill="#ffffff"/>
<rect x="17" y="4" width="1" height="1" fill="#fffffe"/>
<rect x="18" y="4" width="1" height="1" fill="#fff7e2"/>
<rect x="19" y="4" width="1" height="1" fill="#fdd390"/>
<rect x="20" y="4" width="1" height="1" fill="#bb5705"/>
<rect x="21" y="4" width="1" height="1" fill="#e17702" fill-opacity="0.984"/>
<rect x="22" y="4" width="1" height="1" fill="#e47300" fill-opacity="0.035"/>
<rect x="25" y="4" width="1" height="1" fill="#ffcd00" fill-opacity="0.031"/>
<rect x="0" y="5" width="1" height="1" fill="#ff9000" fill-opacity="0.035"/>
<rect x="1" y="5" width="1" height="1" fill="#ff8300" fill-opacity="0.055"/>
<rect x="2" y="5" width="1" height="1" fill="#ff9000" fill-opacity="0.071"/>
<rect x="3" y="5" width="1" height="1" fill="#ff8f0b" fill-opacity="0.969"/>
<rect x="4" y="5" width="1" height="1" fill="#ffa846"/>
<rect x="5" y="5" width="1" height="1" fill="#ff8f0b" fill-opacity="0.969"/>
<rect x="6" y="5" width="1" height="1" fill="#ff9000" fill-opacity="0.071"/>
<rect x="7" y="5" width="1" height="1" fill="#ff8a00" fill-opacity="0.059"/>
<rect x="8" y="5" width="1" height="1" fill="#e47300" fill-opacity="0.071"/>
<rect x="9" y="5" width="1" height="1" fill="#c25805" fill-opacity="0.984"/>
<rect x="10" y="5" width="1" height="1" fill="#fcebce"/>
<rect x="11" y="5" width="1" height="1" fill="#bb5708"/>
<rect x="12" y="5" width="1" height="1" fill="#fc7a00"/>
<rect x="13" y="5" width="1" height="1" fill="#e16805"/>
<rect x="14" y="5" width="1" height="1" fill="#ffecc9"/>
<rect x="15" y="5" width="1" height="1" fill="#fffffe"/>
<rect x="16" y="5" width="1" height="1" fill="#ffffff"/>
<rect x="17" y="5" width="1" height="1" fill="#ffffff"/>
<rect x="18" y="5" width="1" height="1" fill="#fffffc"/>
<rect x="19" y="5" width="1" height="1" fill="#ffebc3"/>
<rect x="20" y="5" width="1" height="1" fill="#fdcf8a"/>
<rect x="21" y="5" width="1" height="1" fill="#c25802" fill-opacity="0.984"/>
<rect x="22" y="5" width="1" height="1" fill="#c85700" fill-opacity="0.035"/>
<rect x="0" y="6" width="1" height="1" fill="#ff9400" fill-opacity="0.027"/>
<rect x="1" y="6" width="1" height="1" fill="#ff8800" fill-opacity="0.835"/>
<rect x="2" y="6" width="1" height="1" fill="#ff9400" fill-opacity="0.055"/>
<rect x="3" y="6" width="1" height="1" fill="#ff9000" fill-opacity="0.071"/>
<rect x="4" y="6" width="1" height="1" fill="#ff8c02" fill-opacity="0.965"/>
<rect x="5" y="6" width="1" height="1" fill="#ff9000" fill-opacity="0.071"/>
<rect x="6" y="6" width="1" height="1" fill="#ff8a00" fill-opacity="0.059"/>
<rect x="7" y="6" width="1" height="1" fill="#ff8900" fill-opacity="0.867"/>
<rect x="8" y="6" width="1" height="1" fill="#d36b00" fill-opacity="0.067"/>
<rect x="9" y="6" width="1" height="1" fill="#c25805" fill-opacity="0.984"/>
<rect x="10" y="6" width="1" height="1" fill="#fef3dc"/>
<rect x="11" y="6" width="1" height="1" fill="#fef1db"/>
<rect x="12" y="6" width="1" height="1" fill="#e26a0a"/>
<rect x="13" y="6" width="1" height="1" fill="#feb965"/>
<rect x="14" y="6" width="1" height="1" fill="#fff3d7"/>
<rect x="15" y="6" width="1" height="1" fill="#ffffff"/>
<rect x="16" y="6" width="1" height="1" fill="#ffffff"/>
<rect x="17" y="6" width="1" height="1" fill="#ffffff"/>
<rect x="18" y="6" width="1" height="1" fill="#fffffe"/>
<rect x="19" y="6" width="1" height="1" fill="#ffecc6"/>
<rect x="20" y="6" width="1" height="1" fill="#fed58f"/>
<rect x="21" y="6" width="1" height="1" fill="#c25902" fill-opacity="0.984"/>
<rect x="22" y="6" width="1" height="1" fill="#b95700" fill-opacity="0.071"/>
<rect x="23" y="6" width="1" height="1" fill="#c85700" fill-opacity="0.035"/>
<rect x="24" y="6" width="1" height="1" fill="#ac5700" fill-opacity="0.035"/>
<rect x="0" y="7" width="1" height="1" fill="#ff9000" fill-opacity="0.035"/>
<rect x="1" y="7" width="1" height="1" fill="#ff8900" fill-opacity="0.961"/>
<rect x="2" y="7" width="1" height="1" fill="#ff8700" fill-opacity="0.835"/>
<rect x="3" y="7" width="1" height="1" fill="#ff8a00" fill-opacity="0.059"/>
<rect x="4" y="7" width="1" height="1" fill="#ff8800" fill-opacity="0.878"/>
<rect x="5" y="7" width="1" height="1" fill="#ff8a00" fill-opacity="0.059"/>
<rect x="6" y="7" width="1" height="1" fill="#ff8700" fill-opacity="0.839"/>
<rect x="7" y="7" width="1" height="1" fill="#ff8c00" fill-opacity="0.961"/>
<rect x="8" y="7" width="1" height="1" fill="#e47300" fill-opacity="0.071"/>
<rect x="9" y="7" width="1" height="1" fill="#c25805" fill-opacity="0.984"/>
<rect x="10" y="7" width="1" height="1" fill="#fef5e3"/>
<rect x="11" y="7" width="1" height="1" fill="#fefff6"/>
<rect x="12" y="7" width="1" height="1" fill="#fff1dc"/>
<rect x="13" y="7" width="1" height="1" fill="#ffeac6"/>
<rect x="14" y="7" width="1" height="1" fill="#fefff5"/>
<rect x="15" y="7" width="1" height="1" fill="#ffffff"/>
<rect x="16" y="7" width="1" height="1" fill="#ffffff"/>
<rect x="17" y="7" width="1" height="1" fill="#ffffff"/>
<rect x="18" y="7" width="1" height="1" fill="#fefff8"/>
<rect x="19" y="7" width="1" height="1" fill="#ffecc3"/>
<rect x="20" y="7" width="1" height="1" fill="#feca79"/>
<rect x="21" y="7" width="1" height="1" fill="#d66b05"/>
<rect x="22" y="7" width="1" height="1" fill="#c15802" fill-opacity="0.984"/>
<rect x="23" y="7" width="1" height="1" fill="#bf5702" fill-opacity="0.984"/>
<rect x="24" y="7" width="1" height="1" fill="#bb5100" fill-opacity="0.965"/>
<rect x="25" y="7" width="1" height="1" fill="#c85700" fill-opacity="0.035"/>
<rect x="1" y="8" width="1" height="1" fill="#ff9000" fill-opacity="0.035"/>
<rect x="2" y="8" width="1" height="1" fill="#ff9400" fill-opacity="0.027"/>
<rect x="3" y="8" width="1" height="1" fill="#ff9000" fill-opacity="0.035"/>
<rect x="4" y="8" width="1" height="1" fill="#ff8900" fill-opacity="0.945"/>
<rect x="5" y="8" width="1" height="1" fill="#ff9000" fill-opacity="0.035"/>
<rect x="6" y="8" width="1" height="1" fill="#ff9400" fill-opacity="0.027"/>
<rect x="7" y="8" width="1" height="1" fill="#ff9000" fill-opacity="0.035"/>
<rect x="8" y="8" width="1" height="1" fill="#c85700" fill-opacity="0.035"/>
<rect x="9" y="8" width="1" height="1" fill="#c25805" fill-opacity="0.984"/>
<rect x="10" y="8" width="1" height="1" fill="#fef7e6"/>
<rect x="11" y="8" width="1" height="1" fill="#fffffe"/>
<rect x="12" y="8" width="1" height="1" fill="#ffffff"/>
<rect x="13" y="8" width="1" height="1" fill="#fefff8"/>
<rect x="14" y="8" width="1" height="1" fill="#ffffff"/>
<rect x="15" y="8" width="1" height="1" fill="#ffffff"/>
<rect x="16" y="8" width="1" height="1" fill="#ffffff"/>
<rect x="17" y="8" width="1" height="1" fill="#fefff8"/>
<rect x="18" y="8" width="1" height="1" fill="#fff7de"/>
<rect x="19" y="8" width="1" height="1" fill="#ffd796"/>
<rect x="20" y="8" width="1" height="1" fill="#ed841a"/>
<rect x="21" y="8" width="1" height="1" fill="#fecb7a"/>
<rect x="22" y="8" width="1" height="1" fill="#fed38c"/>
<rect x="23" y="8" width="1" height="1" fill="#fdb651"/>
<rect x="24" y="8" width="1" height="1" fill="#c45902" fill-opacity="0.969"/>
<rect x="25" y="8" width="1" height="1" fill="#c85700" fill-opacity="0.035"/>
<rect x="4" y="9" width="1" height="1" fill="#ff8300" fill-opacity="0.031"/>
<rect x="8" y="9" width="1" height="1" fill="#c85700" fill-opacity="0.035"/>
<rect x="9" y="9" width="1" height="1" fill="#c85904" fill-opacity="0.984"/>
<rect x="10" y="9" width="1" height="1" fill="#fee9ca"/>
<rect x="11" y="9" width="1" height="1" fill="#fff8e6"/>
<rect x="12" y="9" width="1" height="1" fill="#fffffe"/>
<rect x="13" y="9" width="1" height="1" fill="#ffffff"/>
<rect x="14" y="9" width="1" height="1" fill="#ffffff"/>
<rect x="15" y="9" width="1" height="1" fill="#fffffe"/>
<rect x="16" y="9" width="1" height="1" fill="#fffdee"/>
<rect x="17" y="9" width="1" height="1" fill="#ffe5b7"/>
<rect x="18" y="9" width="1" height="1" fill="#ffce81"/>
<rect x="19" y="9" width="1" height="1" fill="#ffa53b"/>
<rect x="20" y="9" width="1" height="1" fill="#ffd28c"/>
<rect x="21" y="9" width="1" height="1" fill="#ffe4a9"/>
<rect x="22" y="9" width="1" height="1" fill="#ffc063"/>
<rect x="23" y="9" width="1" height="1" fill="#f98305" fill-opacity="0.969"/>
<rect x="24" y="9" width="1" height="1" fill="#e26b00" fill-opacity="0.067"/>
<rect x="0" y="10" width="1" height="1" fill="#000000" fill-opacity="0.012"/>
<rect x="4" y="10" width="1" height="1" fill="#e47300" fill-opacity="0.035"/>
<rect x="5" y="10" width="1" height="1" fill="#e47300" fill-opacity="0.035"/>
<rect x="6" y="10" width="1" height="1" fill="#e47300" fill-opacity="0.035"/>
<rect x="7" y="10" width="1" height="1" fill="#ff0000" fill-opacity="0.004"/>
<rect x="8" y="10" width="1" height="1" fill="#d35c00" fill-opacity="0.067"/>
<rect x="9" y="10" width="1" height="1" fill="#c95a04" fill-opacity="0.984"/>
<rect x="10" y="10" width="1" height="1" fill="#fdd7a6"/>
<rect x="11" y="10" width="1" height="1" fill="#ffeac6"/>
<rect x="12" y="10" width="1" height="1" fill="#fff9ea"/>
<rect x="13" y="10" width="1" height="1" fill="#fffef3"/>
<rect x="14" y="10" width="1" height="1" fill="#fff6df"/>
<rect x="15" y="10" width="1" height="1" fill="#fff7de"/>
<rect x="16" y="10" width="1" height="1" fill="#fef4da"/>
<rect x="17" y="10" width="1" height="1" fill="#fff0d1"/>
<rect x="18" y="10" width="1" height="1" fill="#fff7dc"/>
<rect x="19" y="10" width="1" height="1" fill="#fff3d2"/>
<rect x="20" y="10" width="1" height="1" fill="#fff3cf"/>
<rect x="21" y="10" width="1" height="1" fill="#ffe4b3"/>
<rect x="22" y="10" width="1" height="1" fill="#f47f05" fill-opacity="0.984"/>
<rect x="23" y="10" width="1" height="1" fill="#ff7a00" fill-opacity="0.067"/>
<rect x="0" y="11" width="1" height="1" fill="#ff8500" fill-opacity="0.012"/>
<rect x="1" y="11" width="1" height="1" fill="#ff8f00" fill-opacity="0.043"/>
<rect x="3" y="11" width="1" height="1" fill="#e47300" fill-opacity="0.035"/>
<rect x="4" y="11" width="1" height="1" fill="#ef6d00" fill-opacity="0.965"/>
<rect x="5" y="11" width="1" height="1" fill="#ef6f00" fill-opacity="0.984"/>
<rect x="6" y="11" width="1" height="1" fill="#ef6f00" fill-opacity="0.969"/>
<rect x="7" y="11" width="1" height="1" fill="#e36400" fill-opacity="0.102"/>
<rect x="8" y="11" width="1" height="1" fill="#d96100" fill-opacity="0.969"/>
<rect x="9" y="11" width="1" height="1" fill="#fd7f00"/>
<rect x="10" y="11" width="1" height="1" fill="#ca5d05"/>
<rect x="11" y="11" width="1" height="1" fill="#fdca88"/>
<rect x="12" y="11" width="1" height="1" fill="#ffd9a5"/>
<rect x="13" y="11" width="1" height="1" fill="#fedca8"/>
<rect x="14" y="11" width="1" height="1" fill="#d8650a"/>
<rect x="15" y="11" width="1" height="1" fill="#d76205"/>
<rect x="16" y="11" width="1" height="1" fill="#d66205"/>
<rect x="17" y="11" width="1" height="1" fill="#d76407"/>
<rect x="18" y="11" width="1" height="1" fill="#fedfad"/>
<rect x="19" y="11" width="1" height="1" fill="#fff8e4"/>
<rect x="20" y="11" width="1" height="1" fill="#fff8e1"/>
<rect x="21" y="11" width="1" height="1" fill="#ffe2b1"/>
<rect x="22" y="11" width="1" height="1" fill="#ed7604" fill-opacity="0.984"/>
<rect x="23" y="11" width="1" height="1" fill="#e47300" fill-opacity="0.035"/>
<rect x="3" y="12" width="1" height="1" fill="#e47300" fill-opacity="0.035"/>
<rect x="4" y="12" width="1" height="1" fill="#ef6f00" fill-opacity="0.984"/>
<rect x="5" y="12" width="1" height="1" fill="#feed08"/>
<rect x="6" y="12" width="1" height="1" fill="#feed08"/>
<rect x="7" y="12" width="1" height="1" fill="#d96400" fill-opacity="0.984"/>
<rect x="8" y="12" width="1" height="1" fill="#fd7e00"/>
<rect x="9" y="12" width="1" height="1" fill="#ff8300"/>
<rect x="10" y="12" width="1" height="1" fill="#fd870e"/>
<rect x="11" y="12" width="1" height="1" fill="#c55902"/>
<rect x="12" y="12" width="1" height="1" fill="#ed6d04"/>
<rect x="13" y="12" width="1" height="1" fill="#d96608"/>
<rect x="14" y="12" width="1" height="1" fill="#fed5a5"/>
<rect x="15" y="12" width="1" height="1" fill="#ffa740"/>
<rect x="16" y="12" width="1" height="1" fill="#fea63d"/>
<rect x="17" y="12" width="1" height="1" fill="#fe8b04"/>
<rect x="18" y="12" width="1" height="1" fill="#d26107"/>
<rect x="19" y="12" width="1" height="1" fill="#fed8a1"/>
<rect x="20" y="12" width="1" height="1" fill="#ffecbd"/>
<rect x="21" y="12" width="1" height="1" fill="#ffd898"/>
<rect x="22" y="12" width="1" height="1" fill="#eb7402" fill-opacity="0.984"/>
<rect x="23" y="12" width="1" height="1" fill="#e47300" fill-opacity="0.035"/>
<rect x="3" y="13" width="1" height="1" fill="#e26b00" fill-opacity="0.067"/>
<rect x="4" y="13" width="1" height="1" fill="#ef7205" fill-opacity="0.984"/>
<rect x="5" y="13" width="1" height="1" fill="#feed08"/>
<rect x="6" y="13" width="1" height="1" fill="#fff108"/>
<rect x="7" y="13" width="1" height="1" fill="#fed008"/>
<rect x="8" y="13" width="1" height="1" fill="#ca5c00"/>
<rect x="9" y="13" width="1" height="1" fill="#fd8200"/>
<rect x="10" y="13" width="1" height="1" fill="#ff8300"/>
<rect x="11" y="13" width="1" height="1" fill="#fe7a00"/>
<rect x="12" y="13" width="1" height="1" fill="#d86004"/>
<rect x="13" y="13" width="1" height="1" fill="#fed5a5"/>
<rect x="14" y="13" width="1" height="1" fill="#ffa234"/>
<rect x="15" y="13" width="1" height="1" fill="#ffd00a"/>
<rect x="16" y="13" width="1" height="1" fill="#ffcf08"/>
<rect x="17" y="13" width="1" height="1" fill="#ff971a"/>
<rect x="18" y="13" width="1" height="1" fill="#fe8b00"/>
<rect x="19" y="13" width="1" height="1" fill="#d86305"/>
<rect x="20" y="13" width="1" height="1" fill="#ffd18a"/>
<rect x="21" y="13" width="1" height="1" fill="#fec674"/>
<rect x="22" y="13" width="1" height="1" fill="#ec7302" fill-opacity="0.969"/>
<rect x="23" y="13" width="1" height="1" fill="#e47300" fill-opacity="0.035"/>
<rect x="2" y="14" width="1" height="1" fill="#d35c00" fill-opacity="0.067"/>
<rect x="3" y="14" width="1" height="1" fill="#d7630a" fill-opacity="0.969"/>
<rect x="4" y="14" width="1" height="1" fill="#fdf6f3"/>
<rect x="5" y="14" width="1" height="1" fill="#dc6b08"/>
<rect x="6" y="14" width="1" height="1" fill="#fecf08"/>
<rect x="7" y="14" width="1" height="1" fill="#ffd108"/>
<rect x="8" y="14" width="1" height="1" fill="#fdce08"/>
<rect x="9" y="14" width="1" height="1" fill="#ca5c00"/>
<rect x="10" y="14" width="1" height="1" fill="#fd7a00"/>
<rect x="11" y="14" width="1" height="1" fill="#ff7b00"/>
<rect x="12" y="14" width="1" height="1" fill="#d76002"/>
<rect x="13" y="14" width="1" height="1" fill="#ffb053"/>
<rect x="14" y="14" width="1" height="1" fill="#ffcc0b"/>
<rect x="15" y="14" width="1" height="1" fill="#ff9719"/>
<rect x="16" y="14" width="1" height="1" fill="#ff971a"/>
<rect x="17" y="14" width="1" height="1" fill="#ffa802"/>
<rect x="18" y="14" width="1" height="1" fill="#ff8c00"/>
<rect x="19" y="14" width="1" height="1" fill="#d76002"/>
<rect x="20" y="14" width="1" height="1" fill="#feb44c"/>
<rect x="21" y="14" width="1" height="1" fill="#e16907" fill-opacity="0.984"/>
<rect x="22" y="14" width="1" height="1" fill="#e36400" fill-opacity="0.102"/>
<rect x="23" y="14" width="1" height="1" fill="#ff0000" fill-opacity="0.004"/>
<rect x="1" y="15" width="1" height="1" fill="#d35c00" fill-opacity="0.067"/>
<rect x="2" y="15" width="1" height="1" fill="#d66508" fill-opacity="0.969"/>
<rect x="3" y="15" width="1" height="1" fill="#fdf8f5"/>
<rect x="4" y="15" width="1" height="1" fill="#ffe4cd"/>
<rect x="5" y="15" width="1" height="1" fill="#fed2a8"/>
<rect x="6" y="15" width="1" height="1" fill="#ca5e05"/>
<rect x="7" y="15" width="1" height="1" fill="#fdc008"/>
<rect x="8" y="15" width="1" height="1" fill="#ffc208"/>
<rect x="9" y="15" width="1" height="1" fill="#fdbf08"/>
<rect x="10" y="15" width="1" height="1" fill="#ca5b00"/>
<rect x="11" y="15" width="1" height="1" fill="#fe7a00"/>
<rect x="12" y="15" width="1" height="1" fill="#d76002"/>
<rect x="13" y="15" width="1" height="1" fill="#ffa63d"/>
<rect x="14" y="15" width="1" height="1" fill="#ffcc0a"/>
<rect x="15" y="15" width="1" height="1" fill="#ff971a"/>
<rect x="16" y="15" width="1" height="1" fill="#ff9319"/>
<rect x="17" y="15" width="1" height="1" fill="#ffa802"/>
<rect x="18" y="15" width="1" height="1" fill="#ff8b02"/>
<rect x="19" y="15" width="1" height="1" fill="#d76104"/>
<rect x="20" y="15" width="1" height="1" fill="#ffd79d"/>
<rect x="21" y="15" width="1" height="1" fill="#fedcad"/>
<rect x="22" y="15" width="1" height="1" fill="#e16807" fill-opacity="0.969"/>
<rect x="23" y="15" width="1" height="1" fill="#e25c00" fill-opacity="0.067"/>
<rect x="0" y="16" width="1" height="1" fill="#e26b00" fill-opacity="0.067"/>
<rect x="1" y="16" width="1" height="1" fill="#e16805" fill-opacity="0.969"/>
<rect x="2" y="16" width="1" height="1" fill="#fde3d1"/>
<rect x="3" y="16" width="1" height="1" fill="#ffdfc3"/>
<rect x="4" y="16" width="1" height="1" fill="#ffd5ac"/>
<rect x="5" y="16" width="1" height="1" fill="#ffcd97"/>
<rect x="6" y="16" width="1" height="1" fill="#fdbb6e"/>
<rect x="7" y="16" width="1" height="1" fill="#ca5c02"/>
<rect x="8" y="16" width="1" height="1" fill="#fda300"/>
<rect x="9" y="16" width="1" height="1" fill="#fda300"/>
<rect x="10" y="16" width="1" height="1" fill="#ca5a00"/>
<rect x="11" y="16" width="1" height="1" fill="#fd7a00"/>
<rect x="12" y="16" width="1" height="1" fill="#d85f00"/>
<rect x="13" y="16" width="1" height="1" fill="#fe900e"/>
<rect x="14" y="16" width="1" height="1" fill="#ff8c00"/>
<rect x="15" y="16" width="1" height="1" fill="#ffa802"/>
<rect x="16" y="16" width="1" height="1" fill="#ffa802"/>
<rect x="17" y="16" width="1" height="1" fill="#ff9100"/>
<rect x="18" y="16" width="1" height="1" fill="#fd8b04"/>
<rect x="19" y="16" width="1" height="1" fill="#d36205"/>
<rect x="20" y="16" width="1" height="1" fill="#fee1b4"/>
<rect x="21" y="16" width="1" height="1" fill="#fffefb"/>
<rect x="22" y="16" width="1" height="1" fill="#fee7c5"/>
<rect x="23" y="16" width="1" height="1" fill="#e16808" fill-opacity="0.969"/>
<rect x="24" y="16" width="1" height="1" fill="#e25c00" fill-opacity="0.067"/>
<rect x="0" y="17" width="1" height="1" fill="#e06400" fill-opacity="0.969"/>
<rect x="1" y="17" width="1" height="1" fill="#e06502"/>
<rect x="2" y="17" width="1" height="1" fill="#e16705"/>
<rect x="3" y="17" width="1" height="1" fill="#e16705"/>
<rect x="4" y="17" width="1" height="1" fill="#e16705"/>
<rect x="5" y="17" width="1" height="1" fill="#e16705"/>
<rect x="6" y="17" width="1" height="1" fill="#e16704"/>
<rect x="7" y="17" width="1" height="1" fill="#e06502"/>
<rect x="8" y="17" width="1" height="1" fill="#c85902"/>
<rect x="9" y="17" width="1" height="1" fill="#c85902"/>
<rect x="10" y="17" width="1" height="1" fill="#c65802"/>
<rect x="11" y="17" width="1" height="1" fill="#e16500"/>
<rect x="12" y="17" width="1" height="1" fill="#ee6c00"/>
<rect x="13" y="17" width="1" height="1" fill="#d86000"/>
<rect x="14" y="17" width="1" height="1" fill="#fe8a00"/>
<rect x="15" y="17" width="1" height="1" fill="#ff8a00"/>
<rect x="16" y="17" width="1" height="1" fill="#ff8900"/>
<rect x="17" y="17" width="1" height="1" fill="#fe8800"/>
<rect x="18" y="17" width="1" height="1" fill="#cc5e05"/>
<rect x="19" y="17" width="1" height="1" fill="#fed192"/>
<rect x="20" y="17" width="1" height="1" fill="#ffe1b8"/>
<rect x="21" y="17" width="1" height="1" fill="#fff5df"/>
<rect x="22" y="17" width="1" height="1" fill="#fefcee"/>
<rect x="23" y="17" width="1" height="1" fill="#fee6bc"/>
<rect x="24" y="17" width="1" height="1" fill="#e66a05" fill-opacity="0.969"/>
<rect x="25" y="17" width="1" height="1" fill="#cd7700" fill-opacity="0.071"/>
<rect x="0" y="18" width="1" height="1" fill="#d75f02" fill-opacity="0.984"/>
<rect x="1" y="18" width="1" height="1" fill="#fdae55"/>
<rect x="2" y="18" width="1" height="1" fill="#feaf56"/>
<rect x="3" y="18" width="1" height="1" fill="#feaf56"/>
<rect x="4" y="18" width="1" height="1" fill="#feaf56"/>
<rect x="5" y="18" width="1" height="1" fill="#feaf56"/>
<rect x="6" y="18" width="1" height="1" fill="#feaf56"/>
<rect x="7" y="18" width="1" height="1" fill="#fead51"/>
<rect x="8" y="18" width="1" height="1" fill="#fda541"/>
<rect x="9" y="18" width="1" height="1" fill="#fda53e"/>
<rect x="10" y="18" width="1" height="1" fill="#fda137"/>
<rect x="11" y="18" width="1" height="1" fill="#fe941b"/>
<rect x="12" y="18" width="1" height="1" fill="#fe951a"/>
<rect x="13" y="18" width="1" height="1" fill="#fd931a"/>
<rect x="14" y="18" width="1" height="1" fill="#d75f00" fill-opacity="0.984"/>
<rect x="15" y="18" width="1" height="1" fill="#d75e00" fill-opacity="0.984"/>
<rect x="16" y="18" width="1" height="1" fill="#d75e00" fill-opacity="0.984"/>
<rect x="17" y="18" width="1" height="1" fill="#d76002" fill-opacity="0.984"/>
<rect x="18" y="18" width="1" height="1" fill="#feb15b"/>
<rect x="19" y="18" width="1" height="1" fill="#ffca8c"/>
<rect x="20" y="18" width="1" height="1" fill="#fc7705"/>
<rect x="21" y="18" width="1" height="1" fill="#fb7505"/>
<rect x="22" y="18" width="1" height="1" fill="#ff7e07"/>
<rect x="23" y="18" width="1" height="1" fill="#ffd397"/>
<rect x="24" y="18" width="1" height="1" fill="#e36902" fill-opacity="0.984"/>
<rect x="25" y="18" width="1" height="1" fill="#cd7700" fill-opacity="0.071"/>
<rect x="0" y="19" width="1" height="1" fill="#d65e00" fill-opacity="0.965"/>
<rect x="1" y="19" width="1" height="1" fill="#d75f02" fill-opacity="0.984"/>
<rect x="2" y="19" width="1" height="1" fill="#d75f02" fill-opacity="0.984"/>
<rect x="3" y="19" width="1" height="1" fill="#d75f02" fill-opacity="0.984"/>
<rect x="4" y="19" width="1" height="1" fill="#d75f02" fill-opacity="0.984"/>
<rect x="5" y="19" width="1" height="1" fill="#d75f02" fill-opacity="0.984"/>
<rect x="6" y="19" width="1" height="1" fill="#d75f02" fill-opacity="0.984"/>
<rect x="7" y="19" width="1" height="1" fill="#d75f02" fill-opacity="0.984"/>
<rect x="8" y="19" width="1" height="1" fill="#d75f02" fill-opacity="0.984"/>
<rect x="9" y="19" width="1" height="1" fill="#d75f02" fill-opacity="0.984"/>
<rect x="10" y="19" width="1" height="1" fill="#d75f02" fill-opacity="0.984"/>
<rect x="11" y="19" width="1" height="1" fill="#d75f00" fill-opacity="0.984"/>
<rect x="12" y="19" width="1" height="1" fill="#d75f00" fill-opacity="0.984"/>
<rect x="13" y="19" width="1" height="1" fill="#d65f00" fill-opacity="0.969"/>
<rect x="14" y="19" width="1" height="1" fill="#d35c00" fill-opacity="0.067"/>
<rect x="15" y="19" width="1" height="1" fill="#c85700" fill-opacity="0.035"/>
<rect x="16" y="19" width="1" height="1" fill="#c85700" fill-opacity="0.035"/>
<rect x="17" y="19" width="1" height="1" fill="#f06b00" fill-opacity="0.067"/>
<rect x="18" y="19" width="1" height="1" fill="#fc7502" fill-opacity="0.969"/>
<rect x="19" y="19" width="1" height="1" fill="#fc7502" fill-opacity="0.984"/>
<rect x="20" y="19" width="1" height="1" fill="#ff7b00" fill-opacity="0.984"/>
<rect x="21" y="19" width="1" height="1" fill="#ff7e00" fill-opacity="0.984"/>
<rect x="22" y="19" width="1" height="1" fill="#ff7d00" fill-opacity="0.984"/>
<rect x="23" y="19" width="1" height="1" fill="#fb7402" fill-opacity="0.984"/>
<rect x="24" y="19" width="1" height="1" fill="#e36700" fill-opacity="0.965"/>
<rect x="25" y="19" width="1" height="1" fill="#cd7700" fill-opacity="0.071"/>
<rect x="0" y="20" width="1" height="1" fill="#c85700" fill-opacity="0.035"/>
<rect x="1" y="20" width="1" height="1" fill="#c85700" fill-opacity="0.035"/>
<rect x="2" y="20" width="1" height="1" fill="#c85700" fill-opacity="0.035"/>
<rect x="3" y="20" width="1" height="1" fill="#c85700" fill-opacity="0.035"/>
<rect x="4" y="20" width="1" height="1" fill="#c85700" fill-opacity="0.035"/>
<rect x="5" y="20" width="1" height="1" fill="#c85700" fill-opacity="0.035"/>
<rect x="6" y="20" width="1" height="1" fill="#c85700" fill-opacity="0.035"/>
<rect x="7" y="20" width="1" height="1" fill="#c85700" fill-opacity="0.035"/>
<rect x="8" y="20" width="1" height="1" fill="#c85700" fill-opacity="0.035"/>
<rect x="9" y="20" width="1" height="1" fill="#c85700" fill-opacity="0.035"/>
<rect x="10" y="20" width="1" height="1" fill="#c85700" fill-opacity="0.035"/>
<rect x="11" y="20" width="1" height="1" fill="#c85700" fill-opacity="0.035"/>
<rect x="12" y="20" width="1" height="1" fill="#c85700" fill-opacity="0.035"/>
<rect x="13" y="20" width="1" height="1" fill="#c85700" fill-opacity="0.035"/>
<rect x="18" y="20" width="1" height="1" fill="#ff7300" fill-opacity="0.035"/>
<rect x="19" y="20" width="1" height="1" fill="#ff7300" fill-opacity="0.035"/>
<rect x="20" y="20" width="1" height="1" fill="#ff7300" fill-opacity="0.035"/>
<rect x="21" y="20" width="1" height="1" fill="#ff7300" fill-opacity="0.035"/>
<rect x="22" y="20" width="1" height="1" fill="#ff7300" fill-opacity="0.035"/>
<rect x="23" y="20" width="1" height="1" fill="#ff7300" fill-opacity="0.035"/>
<rect x="24" y="20" width="1" height="1" fill="#e45700" fill-opacity="0.035"/>
</svg>