<?xml version="1.0" encoding="UTF-8" standalone="no"?>
<svg xmlns="http://www.w3.org/2000/svg" width="26" height="21" shape-rendering="crispEdges">
<rect x="12" y="1" width="1" height="1" fill="#c7200a" fill-opacity="0.008"/>
<rect x="13" y="1" width="1" height="1" fill="#c4200a" fill-opacity="0.294"/>
<rect x="14" y="1" width="1" height="1" fill="#c7200a" fill-opacity="0.055"/>
<rect x="12" y="2" width="1" height="1" fill="#c21f0a" fill-opacity="0.451"/>
<rect x="13" y="2" width="1" height="1" fill="#af1c09"/>
<rect x="14" y="2" width="1" height="1" fill="#b01c09" fill-opacity="0.957"/>
<rect x="15" y="2" width="1" height="1" fill="#b81f0a" fill-opacity="0.863"/>
<rect x="16" y="2" width="1" height="1" fill="#a91b08" fill-opacity="0.996"/>
<rect x="17" y="2" width="1" height="1" fill="#c5200a" fill-opacity="0.188"/>
<rect x="18" y="2" width="1" height="1" fill="#c7200a" fill-opacity="0.024"/>
<rect x="19" y="2" width="1" height="1" fill="#c7200a" fill-opacity="0.047"/>
<rect x="12" y="3" width="1" height="1" fill="#c21f0a" fill-opacity="0.396"/>
<rect x="13" y="3" width="1" height="1" fill="#b5220f"/>
<rect x="14" y="3" width="1" height="1" fill="#d32b14" fill-opacity="0.988"/>
<rect x="15" y="3" width="1" height="1" fill="#e24532" fill-opacity="0.98"/>
<rect x="16" y="3" width="1" height="1" fill="#ca2c17"/>
<rect x="17" y="3" width="1" height="1" fill="#b31d09" fill-opacity="0.843"/>
<rect x="18" y="3" width="1" height="1" fill="#ac1c09" fill-opacity="0.973"/>
<rect x="19" y="3" width="1" height="1" fill="#b51d09" fill-opacity="0.875"/>
<rect x="20" y="3" width="1" height="1" fill="#a71b08" fill-opacity="0.004"/>
<rect x="13" y="4" width="1" height="1" fill="#b51e0a" fill-opacity="0.882"/>
<rect x="14" y="4" width="1" height="1" fill="#b11d09" fill-opacity="0.898"/>
<rect x="15" y="4" width="1" height="1" fill="#b11c09" fill-opacity="0.984"/>
<rect x="16" y="4" width="1" height="1" fill="#ab1c09" fill-opacity="0.988"/>
<rect x="17" y="4" width="1" height="1" fill="#b41d09" fill-opacity="0.98"/>
<rect x="18" y="4" width="1" height="1" fill="#cb2610"/>
<rect x="19" y="4" width="1" height="1" fill="#b11e0a" fill-opacity="0.949"/>
<rect x="20" y="4" width="1" height="1" fill="#a71b08" fill-opacity="0.031"/>
<rect x="10" y="5" width="1" height="1" fill="#c7200a" fill-opacity="0.039"/>
<rect x="14" y="5" width="1" height="1" fill="#ab1c08" fill-opacity="0.141"/>
<rect x="15" y="5" width="1" height="1" fill="#b91e09" fill-opacity="0.584"/>
<rect x="16" y="5" width="1" height="1" fill="#c11f0a" fill-opacity="0.267"/>
<rect x="17" y="5" width="1" height="1" fill="#ad1c09"/>
<rect x="18" y="5" width="1" height="1" fill="#e9341c"/>
<rect x="19" y="5" width="1" height="1" fill="#d43420"/>
<rect x="20" y="5" width="1" height="1" fill="#ae1c09" fill-opacity="0.937"/>
<rect x="21" y="5" width="1" height="1" fill="#b01c09" fill-opacity="0.937"/>
<rect x="22" y="5" width="1" height="1" fill="#c5200a" fill-opacity="0.243"/>
<rect x="7" y="6" width="1" height="1" fill="#c7200a" fill-opacity="0.024"/>
<rect x="8" y="6" width="1" height="1" fill="#be1f0a" fill-opacity="0.663"/>
<rect x="9" y="6" width="1" height="1" fill="#af1c09" fill-opacity="0.965"/>
<rect x="10" y="6" width="1" height="1" fill="#b01c09" fill-opacity="0.949"/>
<rect x="11" y="6" width="1" height="1" fill="#b01c09" fill-opacity="0.933"/>
<rect x="12" y="6" width="1" height="1" fill="#b11c09" fill-opacity="0.871"/>
<rect x="13" y="6" width="1" height="1" fill="#b51d09" fill-opacity="0.796"/>
<rect x="14" y="6" width="1" height="1" fill="#be1f0a" fill-opacity="0.424"/>
<rect x="17" y="6" width="1" height="1" fill="#ba1e0a" fill-opacity="0.788"/>
<rect x="18" y="6" width="1" height="1" fill="#a91b08" fill-opacity="0.996"/>
<rect x="19" y="6" width="1" height="1" fill="#c5210b" fill-opacity="0.996"/>
<rect x="20" y="6" width="1" height="1" fill="#d03622"/>
<rect x="21" y="6" width="1" height="1" fill="#d63c27"/>
<rect x="22" y="6" width="1" height="1" fill="#b31d09" fill-opacity="0.918"/>
<rect x="6" y="7" width="1" height="1" fill="#c11f0a" fill-opacity="0.525"/>
<rect x="7" y="7" width="1" height="1" fill="#aa1b08" fill-opacity="0.992"/>
<rect x="8" y="7" width="1" height="1" fill="#b71f0b"/>
<rect x="9" y="7" width="1" height="1" fill="#bb210d"/>
<rect x="10" y="7" width="1" height="1" fill="#b6220d"/>
<rect x="11" y="7" width="1" height="1" fill="#b4210d"/>
<rect x="12" y="7" width="1" height="1" fill="#b1200c"/>
<rect x="13" y="7" width="1" height="1" fill="#b11f0b"/>
<rect x="14" y="7" width="1" height="1" fill="#ae1d09" fill-opacity="0.996"/>
<rect x="15" y="7" width="1" height="1" fill="#b31d09" fill-opacity="0.902"/>
<rect x="16" y="7" width="1" height="1" fill="#c4200a" fill-opacity="0.129"/>
<rect x="18" y="7" width="1" height="1" fill="#a71b08" fill-opacity="0.024"/>
<rect x="19" y="7" width="1" height="1" fill="#a51a08"/>
<rect x="20" y="7" width="1" height="1" fill="#ec4b36"/>
<rect x="21" y="7" width="1" height="1" fill="#c42b17"/>
<rect x="22" y="7" width="1" height="1" fill="#af1c08" fill-opacity="0.894"/>
<rect x="23" y="7" width="1" height="1" fill="#c7200a" fill-opacity="0.016"/>
<rect x="5" y="8" width="1" height="1" fill="#c11f0a" fill-opacity="0.49"/>
<rect x="6" y="8" width="1" height="1" fill="#b41d09" fill-opacity="0.976"/>
<rect x="7" y="8" width="1" height="1" fill="#c82812"/>
<rect x="8" y="8" width="1" height="1" fill="#cb311c"/>
<rect x="9" y="8" width="1" height="1" fill="#d53925"/>
<rect x="10" y="8" width="1" height="1" fill="#df4733"/>
<rect x="11" y="8" width="1" height="1" fill="#e24935"/>
<rect x="12" y="8" width="1" height="1" fill="#df432e"/>
<rect x="13" y="8" width="1" height="1" fill="#d33621"/>
<rect x="14" y="8" width="1" height="1" fill="#d2321d"/>
<rect x="15" y="8" width="1" height="1" fill="#c5220d"/>
<rect x="16" y="8" width="1" height="1" fill="#ae1c09" fill-opacity="0.973"/>
<rect x="17" y="8" width="1" height="1" fill="#c7200a" fill-opacity="0.016"/>
<rect x="18" y="8" width="1" height="1" fill="#c3200a" fill-opacity="0.157"/>
<rect x="19" y="8" width="1" height="1" fill="#ae1c09" fill-opacity="0.961"/>
<rect x="20" y="8" width="1" height="1" fill="#ae1d09" fill-opacity="0.98"/>
<rect x="21" y="8" width="1" height="1" fill="#ab1c08" fill-opacity="0.933"/>
<rect x="22" y="8" width="1" height="1" fill="#a71b08" fill-opacity="0.408"/>
<rect x="3" y="9" width="1" height="1" fill="#c7200a" fill-opacity="0.008"/>
<rect x="4" y="9" width="1" height="1" fill="#be1f0a" fill-opacity="0.627"/>
<rect x="5" y="9" width="1" height="1" fill="#b31d09" fill-opacity="0.992"/>
<rect x="6" y="9" width="1" height="1" fill="#d0311d"/>
<rect x="7" y="9" width="1" height="1" fill="#d73b26"/>
<rect x="8" y="9" width="1" height="1" fill="#eb5742"/>
<rect x="9" y="9" width="1" height="1" fill="#f46b59"/>
<rect x="10" y="9" width="1" height="1" fill="#f7705e"/>
<rect x="11" y="9" width="1" height="1" fill="#f7715f"/>
<rect x="12" y="9" width="1" height="1" fill="#f77261"/>
<rect x="13" y="9" width="1" height="1" fill="#f46957"/>
<rect x="14" y="9" width="1" height="1" fill="#e75441"/>
<rect x="15" y="9" width="1" height="1" fill="#d33622"/>
<rect x="16" y="9" width="1" height="1" fill="#bc1f0b"/>
<rect x="17" y="9" width="1" height="1" fill="#bd1f0a" fill-opacity="0.69"/>
<rect x="19" y="9" width="1" height="1" fill="#b71d09" fill-opacity="0.078"/>
<rect x="20" y="9" width="1" height="1" fill="#b51d09" fill-opacity="0.686"/>
<rect x="21" y="9" width="1" height="1" fill="#ad1c08" fill-opacity="0.953"/>
<rect x="22" y="9" width="1" height="1" fill="#ac1c09" fill-opacity="0.98"/>
<rect x="23" y="9" width="1" height="1" fill="#b81e0a" fill-opacity="0.82"/>
<rect x="24" y="9" width="1" height="1" fill="#c5200a" fill-opacity="0.149"/>
<rect x="3" y="10" width="1" height="1" fill="#c4200a" fill-opacity="0.247"/>
<rect x="4" y="10" width="1" height="1" fill="#ab1c09" fill-opacity="0.992"/>
<rect x="5" y="10" width="1" height="1" fill="#c72813"/>
<rect x="6" y="10" width="1" height="1" fill="#d83c27"/>
<rect x="7" y="10" width="1" height="1" fill="#eb5946"/>
<rect x="8" y="10" width="1" height="1" fill="#f77261"/>
<rect x="9" y="10" width="1" height="1" fill="#f87362"/>
<rect x="10" y="10" width="1" height="1" fill="#f97362"/>
<rect x="11" y="10" width="1" height="1" fill="#f97260"/>
<rect x="12" y="10" width="1" height="1" fill="#f96f5e"/>
<rect x="13" y="10" width="1" height="1" fill="#fa7563"/>
<rect x="14" y="10" width="1" height="1" fill="#f7705e"/>
<rect x="15" y="10" width="1" height="1" fill="#e4513e"/>
<rect x="16" y="10" width="1" height="1" fill="#c72813"/>
<rect x="17" y="10" width="1" height="1" fill="#aa1c09" fill-opacity="0.992"/>
<rect x="18" y="10" width="1" height="1" fill="#a71b08" fill-opacity="0.016"/>
<rect x="19" y="10" width="1" height="1" fill="#bf1f0a" fill-opacity="0.553"/>
<rect x="20" y="10" width="1" height="1" fill="#b21d09" fill-opacity="0.992"/>
<rect x="21" y="10" width="1" height="1" fill="#c5200a"/>
<rect x="22" y="10" width="1" height="1" fill="#da2911"/>
<rect x="23" y="10" width="1" height="1" fill="#bd200c"/>
<rect x="24" y="10" width="1" height="1" fill="#b41d09" fill-opacity="0.89"/>
<rect x="3" y="11" width="1" height="1" fill="#b91e0a" fill-opacity="0.776"/>
<rect x="4" y="11" width="1" height="1" fill="#ba200c"/>
<rect x="5" y="11" width="1" height="1" fill="#ce331d"/>
<rect x="6" y="11" width="1" height="1" fill="#df4834"/>
<rect x="7" y="11" width="1" height="1" fill="#f67363"/>
<rect x="8" y="11" width="1" height="1" fill="#fa7765"/>
<rect x="9" y="11" width="1" height="1" fill="#f56a58"/>
<rect x="10" y="11" width="1" height="1" fill="#f46552"/>
<rect x="11" y="11" width="1" height="1" fill="#f56754"/>
<rect x="12" y="11" width="1" height="1" fill="#f76a58"/>
<rect x="13" y="11" width="1" height="1" fill="#fa7362"/>
<rect x="14" y="11" width="1" height="1" fill="#f87260"/>
<rect x="15" y="11" width="1" height="1" fill="#f05844"/>
<rect x="16" y="11" width="1" height="1" fill="#c72d17"/>
<rect x="17" y="11" width="1" height="1" fill="#aa1c09"/>
<rect x="18" y="11" width="1" height="1" fill="#ae1c08" fill-opacity="0.427"/>
<rect x="19" y="11" width="1" height="1" fill="#b41d09" fill-opacity="0.898"/>
<rect x="20" y="11" width="1" height="1" fill="#cb220a" fill-opacity="0.996"/>
<rect x="21" y="11" width="1" height="1" fill="#e8250b"/>
<rect x="22" y="11" width="1" height="1" fill="#f4543e"/>
<rect x="23" y="11" width="1" height="1" fill="#c93420"/>
<rect x="24" y="11" width="1" height="1" fill="#b41d0a" fill-opacity="0.882"/>
<rect x="25" y="11" width="1" height="1" fill="#c7200a" fill-opacity="0.008"/>
<rect x="3" y="12" width="1" height="1" fill="#a71b08" fill-opacity="0.996"/>
<rect x="4" y="12" width="1" height="1" fill="#d12d17"/>
<rect x="5" y="12" width="1" height="1" fill="#d13721"/>
<rect x="6" y="12" width="1" height="1" fill="#ea5d4b"/>
<rect x="7" y="12" width="1" height="1" fill="#f97a69"/>
<rect x="8" y="12" width="1" height="1" fill="#f66d5b"/>
<rect x="9" y="12" width="1" height="1" fill="#ef4d37"/>
<rect x="10" y="12" width="1" height="1" fill="#e92f15"/>
<rect x="11" y="12" width="1" height="1" fill="#ea3a21" fill-opacity="0.988"/>
<rect x="12" y="12" width="1" height="1" fill="#ea4c38"/>
<rect x="13" y="12" width="1" height="1" fill="#f76856"/>
<rect x="14" y="12" width="1" height="1" fill="#f87260"/>
<rect x="15" y="12" width="1" height="1" fill="#f25946"/>
<rect x="16" y="12" width="1" height="1" fill="#d02f19"/>
<rect x="17" y="12" width="1" height="1" fill="#ad1e0a"/>
<rect x="18" y="12" width="1" height="1" fill="#ad1c08" fill-opacity="0.784"/>
<rect x="19" y="12" width="1" height="1" fill="#b81e09" fill-opacity="0.824"/>
<rect x="20" y="12" width="1" height="1" fill="#bf1f0a" fill-opacity="0.996"/>
<rect x="21" y="12" width="1" height="1" fill="#de260c"/>
<rect x="22" y="12" width="1" height="1" fill="#c3230f"/>
<rect x="23" y="12" width="1" height="1" fill="#af1d0a"/>
<rect x="24" y="12" width="1" height="1" fill="#bf1f0a" fill-opacity="0.486"/>
<rect x="2" y="13" width="1" height="1" fill="#c5200a" fill-opacity="0.098"/>
<rect x="3" y="13" width="1" height="1" fill="#a81b08"/>
<rect x="4" y="13" width="1" height="1" fill="#d8341d"/>
<rect x="5" y="13" width="1" height="1" fill="#d73d28"/>
<rect x="6" y="13" width="1" height="1" fill="#f16c5b"/>
<rect x="7" y="13" width="1" height="1" fill="#f97767"/>
<rect x="8" y="13" width="1" height="1" fill="#f46350"/>
<rect x="9" y="13" width="1" height="1" fill="#ed3922"/>
<rect x="10" y="13" width="1" height="1" fill="#eb280e"/>
<rect x="11" y="13" width="1" height="1" fill="#e52a11"/>
<rect x="12" y="13" width="1" height="1" fill="#e52f16"/>
<rect x="13" y="13" width="1" height="1" fill="#e2422d"/>
<rect x="14" y="13" width="1" height="1" fill="#ed5b48"/>
<rect x="15" y="13" width="1" height="1" fill="#ea4833"/>
<rect x="16" y="13" width="1" height="1" fill="#d2321d"/>
<rect x="17" y="13" width="1" height="1" fill="#b5210e"/>
<rect x="18" y="13" width="1" height="1" fill="#b41e0a" fill-opacity="0.851"/>
<rect x="19" y="13" width="1" height="1" fill="#c5200a" fill-opacity="0.059"/>
<rect x="20" y="13" width="1" height="1" fill="#af1c09" fill-opacity="0.965"/>
<rect x="21" y="13" width="1" height="1" fill="#a51a08"/>
<rect x="22" y="13" width="1" height="1" fill="#b51d09" fill-opacity="0.839"/>
<rect x="23" y="13" width="1" height="1" fill="#c1200a" fill-opacity="0.4"/>
<rect x="24" y="13" width="1" height="1" fill="#c7200a" fill-opacity="0.008"/>
<rect x="2" y="14" width="1" height="1" fill="#c2200a" fill-opacity="0.404"/>
<rect x="3" y="14" width="1" height="1" fill="#b31d0a" fill-opacity="0.996"/>
<rect x="4" y="14" width="1" height="1" fill="#ce321d"/>
<rect x="5" y="14" width="1" height="1" fill="#de4834"/>
<rect x="6" y="14" width="1" height="1" fill="#f26958"/>
<rect x="7" y="14" width="1" height="1" fill="#f67665"/>
<rect x="8" y="14" width="1" height="1" fill="#f15440"/>
<rect x="9" y="14" width="1" height="1" fill="#e7270e"/>
<rect x="10" y="14" width="1" height="1" fill="#dd260d"/>
<rect x="11" y="14" width="1" height="1" fill="#c6240e"/>
<rect x="12" y="14" width="1" height="1" fill="#c4230d"/>
<rect x="13" y="14" width="1" height="1" fill="#cd2a14"/>
<rect x="14" y="14" width="1" height="1" fill="#d1311b"/>
<rect x="15" y="14" width="1" height="1" fill="#ce2f19"/>
<rect x="16" y="14" width="1" height="1" fill="#bc2612"/>
<rect x="17" y="14" width="1" height="1" fill="#c5240f"/>
<rect x="18" y="14" width="1" height="1" fill="#b41d09" fill-opacity="0.918"/>
<rect x="2" y="15" width="1" height="1" fill="#c3200a" fill-opacity="0.365"/>
<rect x="3" y="15" width="1" height="1" fill="#b11d0a"/>
<rect x="4" y="15" width="1" height="1" fill="#c52e19"/>
<rect x="5" y="15" width="1" height="1" fill="#d23e2a"/>
<rect x="6" y="15" width="1" height="1" fill="#e75e4b"/>
<rect x="7" y="15" width="1" height="1" fill="#ef6453"/>
<rect x="8" y="15" width="1" height="1" fill="#ec543f"/>
<rect x="9" y="15" width="1" height="1" fill="#dc260d"/>
<rect x="10" y="15" width="1" height="1" fill="#bb220d"/>
<rect x="11" y="15" width="1" height="1" fill="#ae200c"/>
<rect x="12" y="15" width="1" height="1" fill="#b01f0b"/>
<rect x="13" y="15" width="1" height="1" fill="#af1e0b"/>
<rect x="14" y="15" width="1" height="1" fill="#b11f0b"/>
<rect x="15" y="15" width="1" height="1" fill="#b4200c"/>
<rect x="16" y="15" width="1" height="1" fill="#be220c"/>
<rect x="17" y="15" width="1" height="1" fill="#ae1c09" fill-opacity="0.973"/>
<rect x="18" y="15" width="1" height="1" fill="#c3200a" fill-opacity="0.38"/>
<rect x="2" y="16" width="1" height="1" fill="#c7200a" fill-opacity="0.078"/>
<rect x="3" y="16" width="1" height="1" fill="#a71b08"/>
<rect x="4" y="16" width="1" height="1" fill="#b92712"/>
<rect x="5" y="16" width="1" height="1" fill="#cf3521"/>
<rect x="6" y="16" width="1" height="1" fill="#d84c39"/>
<rect x="7" y="16" width="1" height="1" fill="#e25a47"/>
<rect x="8" y="16" width="1" height="1" fill="#dc4734"/>
<rect x="9" y="16" width="1" height="1" fill="#cc250e"/>
<rect x="10" y="16" width="1" height="1" fill="#b2210c" fill-opacity="0.976"/>
<rect x="11" y="16" width="1" height="1" fill="#bb220c" fill-opacity="0.255"/>
<rect x="12" y="16" width="1" height="1" fill="#b3220e" fill-opacity="0.055"/>
<rect x="13" y="16" width="1" height="1" fill="#c3200a" fill-opacity="0.357"/>
<rect x="14" y="16" width="1" height="1" fill="#bc1f0a" fill-opacity="0.694"/>
<rect x="15" y="16" width="1" height="1" fill="#b81e0a" fill-opacity="0.812"/>
<rect x="16" y="16" width="1" height="1" fill="#b81e09" fill-opacity="0.839"/>
<rect x="17" y="16" width="1" height="1" fill="#c4200a" fill-opacity="0.275"/>
<rect x="2" y="17" width="1" height="1" fill="#c7200a" fill-opacity="0.016"/>
<rect x="3" y="17" width="1" height="1" fill="#b71d09" fill-opacity="0.851"/>
<rect x="4" y="17" width="1" height="1" fill="#ae1e0b"/>
<rect x="5" y="17" width="1" height="1" fill="#c02c19"/>
<rect x="6" y="17" width="1" height="1" fill="#c83320"/>
<rect x="7" y="17" width="1" height="1" fill="#d13d28"/>
<rect x="8" y="17" width="1" height="1" fill="#d3331f"/>
<rect x="9" y="17" width="1" height="1" fill="#ae1f0c"/>
<rect x="10" y="17" width="1" height="1" fill="#ba230e" fill-opacity="0.349"/>
<rect x="3" y="18" width="1" height="1" fill="#c3200a" fill-opacity="0.361"/>
<rect x="4" y="18" width="1" height="1" fill="#ae1c09"/>
<rect x="5" y="18" width="1" height="1" fill="#ae1e0b"/>
<rect x="6" y="18" width="1" height="1" fill="#d13622"/>
<rect x="7" y="18" width="1" height="1" fill="#c32a15"/>
<rect x="8" y="18" width="1" height="1" fill="#b6200b"/>
<rect x="9" y="18" width="1" height="1" fill="#ae1e0b" fill-opacity="0.984"/>
<rect x="10" y="18" width="1" height="1" fill="#ac1e0b" fill-opacity="0.016"/>
<rect x="4" y="19" width="1" height="1" fill="#c11f0a" fill-opacity="0.478"/>
<rect x="5" y="19" width="1" height="1" fill="#af1c09" fill-opacity="0.953"/>
<rect x="6" y="19" width="1" height="1" fill="#aa1c08" fill-opacity="0.996"/>
<rect x="7" y="19" width="1" height="1" fill="#aa1c09"/>
<rect x="8" y="19" width="1" height="1" fill="#b21e0a" fill-opacity="0.941"/>
<rect x="9" y="19" width="1" height="1" fill="#c2200a" fill-opacity="0.412"/>
<rect x="6" y="20" width="1" height="1" fill="#6d630a" fill-opacity="0.024"/>
<rect x="7" y="20" width="1" height="1" fill="#43960b" fill-opacity="0.082"/>
<rect x="8" y="20" width="1" height="1" fill="#33aa0b" fill-opacity="0.047"/>
</svg>