<?xml version="1.0" encoding="UTF-8" standalone="no"?>
<svg xmlns="http://www.w3.org/2000/svg" width="26" height="21" shape-rendering="crispEdges">
<rect x="1" y="0" width="1" height="1" fill="#f3b700" fill-opacity="0.035"/>
<rect x="2" y="0" width="1" height="1" fill="#ffc300" fill-opacity="0.027"/>
<rect x="3" y="0" width="1" height="1" fill="#ffb700" fill-opacity="0.035"/>
<rect x="4" y="0" width="1" height="1" fill="#ffb400" fill-opacity="0.945"/>
<rect x="5" y="0" width="1" height="1" fill="#ffb700" fill-opacity="0.035"/>
<rect x="6" y="0" width="1" height="1" fill="#ffc300" fill-opacity="0.027"/>
<rect x="7" y="0" width="1" height="1" fill="#f3b700" fill-opacity="0.035"/>
<rect x="8" y="0" width="1" height="1" fill="#ffff00" fill-opacity="0.008"/>
<rect x="14" y="0" width="1" height="1" fill="#b77b00" fill-opacity="0.035"/>
<rect x="15" y="0" width="1" height="1" fill="#b77b00" fill-opacity="0.035"/>
<rect x="16" y="0" width="1" height="1" fill="#b28200" fill-opacity="0.067"/>
<rect x="17" y="0" width="1" height="1" fill="#a17002" fill-opacity="0.969"/>
<rect x="18" y="0" width="1" height="1" fill="#a07002" fill-opacity="0.984"/>
<rect x="19" y="0" width="1" height="1" fill="#a07002" fill-opacity="0.984"/>
<rect x="20" y="0" width="1" height="1" fill="#9b6b00" fill-opacity="0.984"/>
<rect x="21" y="0" width="1" height="1" fill="#9e6f00" fill-opacity="0.949"/>
<rect x="22" y="0" width="1" height="1" fill="#ab8b00" fill-opacity="0.031"/>
<rect x="0" y="1" width="1" height="1" fill="#ffb700" fill-opacity="0.035"/>
<rect x="1" y="1" width="1" height="1" fill="#ffb400" fill-opacity="0.961"/>
<rect x="2" y="1" width="1" height="1" fill="#ffb400" fill-opacity="0.835"/>
<rect x="3" y="1" width="1" height="1" fill="#feb700" fill-opacity="0.059"/>
<rect x="4" y="1" width="1" height="1" fill="#ffb200" fill-opacity="0.878"/>
<rect x="5" y="1" width="1" height="1" fill="#feb700" fill-opacity="0.059"/>
<rect x="6" y="1" width="1" height="1" fill="#ffb400" fill-opacity="0.835"/>
<rect x="7" y="1" width="1" height="1" fill="#ffb400" fill-opacity="0.961"/>
<rect x="8" y="1" width="1" height="1" fill="#ffb700" fill-opacity="0.035"/>
<rect x="10" y="1" width="1" height="1" fill="#b79a00" fill-opacity="0.035"/>
<rect x="11" y="1" width="1" height="1" fill="#d59a00" fill-opacity="0.035"/>
<rect x="12" y="1" width="1" height="1" fill="#d59a00" fill-opacity="0.035"/>
<rect x="13" y="1" width="1" height="1" fill="#d19300" fill-opacity="0.067"/>
<rect x="14" y="1" width="1" height="1" fill="#cb8e00" fill-opacity="0.969"/>
<rect x="15" y="1" width="1" height="1" fill="#be8302" fill-opacity="0.984"/>
<rect x="16" y="1" width="1" height="1" fill="#bf8705" fill-opacity="0.984"/>
<rect x="17" y="1" width="1" height="1" fill="#ffe552"/>
<rect x="18" y="1" width="1" height="1" fill="#ffe95e"/>
<rect x="19" y="1" width="1" height="1" fill="#ffde3c"/>
<rect x="20" y="1" width="1" height="1" fill="#a27002" fill-opacity="0.984"/>
<rect x="21" y="1" width="1" height="1" fill="#a98000" fill-opacity="0.102"/>
<rect x="22" y="1" width="1" height="1" fill="#000000" fill-opacity="0.004"/>
<rect x="0" y="2" width="1" height="1" fill="#ffc300" fill-opacity="0.027"/>
<rect x="1" y="2" width="1" height="1" fill="#ffb400" fill-opacity="0.835"/>
<rect x="2" y="2" width="1" height="1" fill="#fdb100" fill-opacity="0.055"/>
<rect x="3" y="2" width="1" height="1" fill="#ffb700" fill-opacity="0.071"/>
<rect x="4" y="2" width="1" height="1" fill="#ffb700" fill-opacity="0.965"/>
<rect x="5" y="2" width="1" height="1" fill="#ffb700" fill-opacity="0.071"/>
<rect x="6" y="2" width="1" height="1" fill="#fdb100" fill-opacity="0.055"/>
<rect x="7" y="2" width="1" height="1" fill="#ffb300" fill-opacity="0.839"/>
<rect x="8" y="2" width="1" height="1" fill="#ffc300" fill-opacity="0.027"/>
<rect x="9" y="2" width="1" height="1" fill="#d59a00" fill-opacity="0.035"/>
<rect x="10" y="2" width="1" height="1" fill="#cb9500" fill-opacity="0.965"/>
<rect x="11" y="2" width="1" height="1" fill="#cc9600" fill-opacity="0.984"/>
<rect x="12" y="2" width="1" height="1" fill="#cc9500" fill-opacity="0.984"/>
<rect x="13" y="2" width="1" height="1" fill="#cb9500" fill-opacity="0.984"/>
<rect x="14" y="2" width="1" height="1" fill="#bf8605"/>
<rect x="15" y="2" width="1" height="1" fill="#ffea75"/>
<rect x="16" y="2" width="1" height="1" fill="#fff49c"/>
<rect x="17" y="2" width="1" height="1" fill="#fffaa8"/>
<rect x="18" y="2" width="1" height="1" fill="#ffee7f"/>
<rect x="19" y="2" width="1" height="1" fill="#a67404"/>
<rect x="20" y="2" width="1" height="1" fill="#cb9500"/>
<rect x="21" y="2" width="1" height="1" fill="#cb9500" fill-opacity="0.969"/>
<rect x="22" y="2" width="1" height="1" fill="#d59a00" fill-opacity="0.035"/>
<rect x="0" y="3" width="1" height="1" fill="#f3b700" fill-opacity="0.035"/>
<rect x="1" y="3" width="1" height="1" fill="#ffb100" fill-opacity="0.055"/>
<rect x="2" y="3" width="1" height="1" fill="#ffb700" fill-opacity="0.071"/>
<rect x="3" y="3" width="1" height="1" fill="#ffbc00" fill-opacity="0.969"/>
<rect x="4" y="3" width="1" height="1" fill="#ffcc08"/>
<rect x="5" y="3" width="1" height="1" fill="#ffbc00" fill-opacity="0.969"/>
<rect x="6" y="3" width="1" height="1" fill="#ffb700" fill-opacity="0.071"/>
<rect x="7" y="3" width="1" height="1" fill="#ffb100" fill-opacity="0.055"/>
<rect x="8" y="3" width="1" height="1" fill="#ffb700" fill-opacity="0.035"/>
<rect x="9" y="3" width="1" height="1" fill="#b78b00" fill-opacity="0.071"/>
<rect x="10" y="3" width="1" height="1" fill="#cc9600" fill-opacity="0.984"/>
<rect x="11" y="3" width="1" height="1" fill="#ffdc08"/>
<rect x="12" y="3" width="1" height="1" fill="#ffbb02"/>
<rect x="13" y="3" width="1" height="1" fill="#bf8602"/>
<rect x="14" y="3" width="1" height="1" fill="#ffeb7d"/>
<rect x="15" y="3" width="1" height="1" fill="#fdfbc4"/>
<rect x="16" y="3" width="1" height="1" fill="#fbfddc"/>
<rect x="17" y="3" width="1" height="1" fill="#fff5a8"/>
<rect x="18" y="3" width="1" height="1" fill="#ffea6f"/>
<rect x="19" y="3" width="1" height="1" fill="#a77504"/>
<rect x="20" y="3" width="1" height="1" fill="#ffda08"/>
<rect x="21" y="3" width="1" height="1" fill="#cc9600" fill-opacity="0.984"/>
<rect x="22" y="3" width="1" height="1" fill="#d59a00" fill-opacity="0.035"/>
<rect x="0" y="4" width="1" height="1" fill="#ffb400" fill-opacity="0.949"/>
<rect x="1" y="4" width="1" height="1" fill="#ffb200" fill-opacity="0.878"/>
<rect x="2" y="4" width="1" height="1" fill="#ffb700" fill-opacity="0.965"/>
<rect x="3" y="4" width="1" height="1" fill="#ffcc08"/>
<rect x="4" y="4" width="1" height="1" fill="#ffdd57"/>
<rect x="5" y="4" width="1" height="1" fill="#ffcc08"/>
<rect x="6" y="4" width="1" height="1" fill="#ffb700" fill-opacity="0.965"/>
<rect x="7" y="4" width="1" height="1" fill="#ffb200" fill-opacity="0.878"/>
<rect x="8" y="4" width="1" height="1" fill="#ffb300" fill-opacity="0.965"/>
<rect x="9" y="4" width="1" height="1" fill="#a87500" fill-opacity="0.984"/>
<rect x="10" y="4" width="1" height="1" fill="#a67402"/>
<rect x="11" y="4" width="1" height="1" fill="#cb9500"/>
<rect x="12" y="4" width="1" height="1" fill="#cc9500"/>
<rect x="13" y="4" width="1" height="1" fill="#be8502"/>
<rect x="14" y="4" width="1" height="1" fill="#fff195"/>
<rect x="15" y="4" width="1" height="1" fill="#fbfddc"/>
<rect x="16" y="4" width="1" height="1" fill="#fbfddd"/>
<rect x="17" y="4" width="1" height="1" fill="#fbfcd3"/>
<rect x="18" y="4" width="1" height="1" fill="#fff5af"/>
<rect x="19" y="4" width="1" height="1" fill="#ffe556"/>
<rect x="20" y="4" width="1" height="1" fill="#a17104"/>
<rect x="21" y="4" width="1" height="1" fill="#ca9400" fill-opacity="0.984"/>
<rect x="22" y="4" width="1" height="1" fill="#d59a00" fill-opacity="0.035"/>
<rect x="25" y="4" width="1" height="1" fill="#62ff00" fill-opacity="0.031"/>
<rect x="0" y="5" width="1" height="1" fill="#f3b700" fill-opacity="0.035"/>
<rect x="1" y="5" width="1" height="1" fill="#ffb100" fill-opacity="0.055"/>
<rect x="2" y="5" width="1" height="1" fill="#ffb700" fill-opacity="0.071"/>
<rect x="3" y="5" width="1" height="1" fill="#ffbc00" fill-opacity="0.969"/>
<rect x="4" y="5" width="1" height="1" fill="#ffcc08"/>
<rect x="5" y="5" width="1" height="1" fill="#ffbc00" fill-opacity="0.969"/>
<rect x="6" y="5" width="1" height="1" fill="#ffb700" fill-opacity="0.071"/>
<rect x="7" y="5" width="1" height="1" fill="#feb700" fill-opacity="0.059"/>
<rect x="8" y="5" width="1" height="1" fill="#d59a00" fill-opacity="0.071"/>
<rect x="9" y="5" width="1" height="1" fill="#a57302" fill-opacity="0.984"/>
<rect x="10" y="5" width="1" height="1" fill="#fbeb9c"/>
<rect x="11" y="5" width="1" height="1" fill="#a07005"/>
<rect x="12" y="5" width="1" height="1" fill="#e6a000"/>
<rect x="13" y="5" width="1" height="1" fill="#c08704"/>
<rect x="14" y="5" width="1" height="1" fill="#fff295"/>
<rect x="15" y="5" width="1" height="1" fill="#fbfddc"/>
<rect x="16" y="5" width="1" height="1" fill="#fbfddd"/>
<rect x="17" y="5" width="1" height="1" fill="#fbfddd"/>
<rect x="18" y="5" width="1" height="1" fill="#fafccd"/>
<rect x="19" y="5" width="1" height="1" fill="#fff18c"/>
<rect x="20" y="5" width="1" height="1" fill="#ffe351"/>
<rect x="21" y="5" width="1" height="1" fill="#a87402" fill-opacity="0.984"/>
<rect x="22" y="5" width="1" height="1" fill="#9a7b00" fill-opacity="0.035"/>
<rect x="0" y="6" width="1" height="1" fill="#ffc300" fill-opacity="0.027"/>
<rect x="1" y="6" width="1" height="1" fill="#ffb400" fill-opacity="0.835"/>
<rect x="2" y="6" width="1" height="1" fill="#fdb100" fill-opacity="0.055"/>
<rect x="3" y="6" width="1" height="1" fill="#ffb700" fill-opacity="0.071"/>
<rect x="4" y="6" width="1" height="1" fill="#ffb700" fill-opacity="0.965"/>
<rect x="5" y="6" width="1" height="1" fill="#ffb700" fill-opacity="0.071"/>
<rect x="6" y="6" width="1" height="1" fill="#eda600" fill-opacity="0.059"/>
<rect x="7" y="6" width="1" height="1" fill="#ffb400" fill-opacity="0.867"/>
<rect x="8" y="6" width="1" height="1" fill="#d19300" fill-opacity="0.067"/>
<rect x="9" y="6" width="1" height="1" fill="#a57304" fill-opacity="0.984"/>
<rect x="10" y="6" width="1" height="1" fill="#fff4a9"/>
<rect x="11" y="6" width="1" height="1" fill="#fdf1a9"/>
<rect x="12" y="6" width="1" height="1" fill="#c08707"/>
<rect x="13" y="6" width="1" height="1" fill="#ffd528"/>
<rect x="14" y="6" width="1" height="1" fill="#fff4a5"/>
<rect x="15" y="6" width="1" height="1" fill="#fbfddc"/>
<rect x="16" y="6" width="1" height="1" fill="#fbfddd"/>
<rect x="17" y="6" width="1" height="1" fill="#fbfddd"/>
<rect x="18" y="6" width="1" height="1" fill="#fbfcd3"/>
<rect x="19" y="6" width="1" height="1" fill="#fff290"/>
<rect x="20" y="6" width="1" height="1" fill="#ffe754"/>
<rect x="21" y="6" width="1" height="1" fill="#a87402" fill-opacity="0.984"/>
<rect x="22" y="6" width="1" height="1" fill="#9a7b00" fill-opacity="0.071"/>
<rect x="23" y="6" width="1" height="1" fill="#9a7b00" fill-opacity="0.035"/>
<rect x="24" y="6" width="1" height="1" fill="#9a5d00" fill-opacity="0.035"/>
<rect x="0" y="7" width="1" height="1" fill="#ffb700" fill-opacity="0.035"/>
<rect x="1" y="7" width="1" height="1" fill="#ffb400" fill-opacity="0.961"/>
<rect x="2" y="7" width="1" height="1" fill="#ffb400" fill-opacity="0.835"/>
<rect x="3" y="7" width="1" height="1" fill="#feb700" fill-opacity="0.059"/>
<rect x="4" y="7" width="1" height="1" fill="#ffb200" fill-opacity="0.878"/>
<rect x="5" y="7" width="1" height="1" fill="#feb700" fill-opacity="0.059"/>
<rect x="6" y="7" width="1" height="1" fill="#ffb300" fill-opacity="0.839"/>
<rect x="7" y="7" width="1" height="1" fill="#ffb700" fill-opacity="0.961"/>
<rect x="8" y="7" width="1" height="1" fill="#d59a00" fill-opacity="0.071"/>
<rect x="9" y="7" width="1" height="1" fill="#a57304" fill-opacity="0.984"/>
<rect x="10" y="7" width="1" height="1" fill="#fef4b3"/>
<rect x="11" y="7" width="1" height="1" fill="#fdfcc8"/>
<rect x="12" y="7" width="1" height="1" fill="#fff2aa"/>
<rect x="13" y="7" width="1" height="1" fill="#ffee90"/>
<rect x="14" y="7" width="1" height="1" fill="#fdfbc5"/>
<rect x="15" y="7" width="1" height="1" fill="#fbfddd"/>
<rect x="16" y="7" width="1" height="1" fill="#fbfddd"/>
<rect x="17" y="7" width="1" height="1" fill="#fbfddc"/>
<rect x="18" y="7" width="1" height="1" fill="#fdfdca"/>
<rect x="19" y="7" width="1" height="1" fill="#fff38b"/>
<rect x="20" y="7" width="1" height="1" fill="#ffe23c"/>
<rect x="21" y="7" width="1" height="1" fill="#bf8702"/>
<rect x="22" y="7" width="1" height="1" fill="#a57202" fill-opacity="0.984"/>
<rect x="23" y="7" width="1" height="1" fill="#a07100" fill-opacity="0.984"/>
<rect x="24" y="7" width="1" height="1" fill="#9d6e00" fill-opacity="0.965"/>
<rect x="25" y="7" width="1" height="1" fill="#9a7b00" fill-opacity="0.035"/>
<rect x="1" y="8" width="1" height="1" fill="#f3b700" fill-opacity="0.035"/>
<rect x="2" y="8" width="1" height="1" fill="#ffc300" fill-opacity="0.027"/>
<rect x="3" y="8" width="1" height="1" fill="#ffb700" fill-opacity="0.035"/>
<rect x="4" y="8" width="1" height="1" fill="#ffb400" fill-opacity="0.945"/>
<rect x="5" y="8" width="1" height="1" fill="#ffb700" fill-opacity="0.035"/>
<rect x="6" y="8" width="1" height="1" fill="#ffc300" fill-opacity="0.027"/>
<rect x="7" y="8" width="1" height="1" fill="#f3b700" fill-opacity="0.035"/>
<rect x="8" y="8" width="1" height="1" fill="#9a7b00" fill-opacity="0.035"/>
<rect x="9" y="8" width="1" height="1" fill="#a57304" fill-opacity="0.984"/>
<rect x="10" y="8" width="1" height="1" fill="#fdf4b5"/>
<rect x="11" y="8" width="1" height="1" fill="#fbfddc"/>
<rect x="12" y="8" width="1" height="1" fill="#fbfddc"/>
<rect x="13" y="8" width="1" height="1" fill="#fdfdca"/>
<rect x="14" y="8" width="1" height="1" fill="#fbfbd8"/>
<rect x="15" y="8" width="1" height="1" fill="#fbfddd"/>
<rect x="16" y="8" width="1" height="1" fill="#fbfddc"/>
<rect x="17" y="8" width="1" height="1" fill="#fcfdc9"/>
<rect x="18" y="8" width="1" height="1" fill="#fffaa9"/>
<rect x="19" y="8" width="1" height="1" fill="#ffe75c"/>
<rect x="20" y="8" width="1" height="1" fill="#dba105"/>
<rect x="21" y="8" width="1" height="1" fill="#ffe23e"/>
<rect x="22" y="8" width="1" height="1" fill="#ffe651"/>
<rect x="23" y="8" width="1" height="1" fill="#ffd814"/>
<rect x="24" y="8" width="1" height="1" fill="#a87500" fill-opacity="0.969"/>
<rect x="25" y="8" width="1" height="1" fill="#9a7b00" fill-opacity="0.035"/>
<rect x="4" y="9" width="1" height="1" fill="#ffab00" fill-opacity="0.031"/>
<rect x="8" y="9" width="1" height="1" fill="#9a7b00" fill-opacity="0.035"/>
<rect x="9" y="9" width="1" height="1" fill="#a97702" fill-opacity="0.984"/>
<rect x="10" y="9" width="1" height="1" fill="#feeb97"/>
<rect x="11" y="9" width="1" height="1" fill="#fff5b5"/>
<rect x="12" y="9" width="1" height="1" fill="#fbfddc"/>
<rect x="13" y="9" width="1" height="1" fill="#fbfddc"/>
<rect x="14" y="9" width="1" height="1" fill="#fbfddc"/>
<rect x="15" y="9" width="1" height="1" fill="#fbfddc"/>
<rect x="16" y="9" width="1" height="1" fill="#fefabe"/>
<rect x="17" y="9" width="1" height="1" fill="#ffef81"/>
<rect x="18" y="9" width="1" height="1" fill="#ffe442"/>
<rect x="19" y="9" width="1" height="1" fill="#fbc207"/>
<rect x="20" y="9" width="1" height="1" fill="#ffe551"/>
<rect x="21" y="9" width="1" height="1" fill="#fff16e"/>
<rect x="22" y="9" width="1" height="1" fill="#ffdd25"/>
<rect x="23" y="9" width="1" height="1" fill="#e2a202" fill-opacity="0.969"/>
<rect x="24" y="9" width="1" height="1" fill="#c18200" fill-opacity="0.067"/>
<rect x="0" y="10" width="1" height="1" fill="#040402" fill-opacity="0.012"/>
<rect x="4" y="10" width="1" height="1" fill="#b77b00" fill-opacity="0.035"/>
<rect x="5" y="10" width="1" height="1" fill="#d59a00" fill-opacity="0.035"/>
<rect x="6" y="10" width="1" height="1" fill="#b77b00" fill-opacity="0.035"/>
<rect x="7" y="10" width="1" height="1" fill="#000000" fill-opacity="0.004"/>
<rect x="8" y="10" width="1" height="1" fill="#b28200" fill-opacity="0.067"/>
<rect x="9" y="10" width="1" height="1" fill="#aa7802" fill-opacity="0.984"/>
<rect x="10" y="10" width="1" height="1" fill="#ffe36e"/>
<rect x="11" y="10" width="1" height="1" fill="#fff08f"/>
<rect x="12" y="10" width="1" height="1" fill="#fef4b8"/>
<rect x="13" y="10" width="1" height="1" fill="#fdf8c2"/>
<rect x="14" y="10" width="1" height="1" fill="#fef5ad"/>
<rect x="15" y="10" width="1" height="1" fill="#fef4aa"/>
<rect x="16" y="10" width="1" height="1" fill="#fff4a8"/>
<rect x="17" y="10" width="1" height="1" fill="#fff49c"/>
<rect x="18" y="10" width="1" height="1" fill="#fffaa8"/>
<rect x="19" y="10" width="1" height="1" fill="#fff59c"/>
<rect x="20" y="10" width="1" height="1" fill="#fff59a"/>
<rect x="21" y="10" width="1" height="1" fill="#ffed7b"/>
<rect x="22" y="10" width="1" height="1" fill="#da9c02" fill-opacity="0.984"/>
<rect x="23" y="10" width="1" height="1" fill="#e2a200" fill-opacity="0.067"/>
<rect x="0" y="11" width="1" height="1" fill="#ff9900" fill-opacity="0.012"/>
<rect x="1" y="11" width="1" height="1" fill="#ffbe00" fill-opacity="0.043"/>
<rect x="3" y="11" width="1" height="1" fill="#d59a00" fill-opacity="0.035"/>
<rect x="4" y="11" width="1" height="1" fill="#cc8e00" fill-opacity="0.965"/>
<rect x="5" y="11" width="1" height="1" fill="#cd9000" fill-opacity="0.984"/>
<rect x="6" y="11" width="1" height="1" fill="#cd9000" fill-opacity="0.969"/>
<rect x="7" y="11" width="1" height="1" fill="#bf8b00" fill-opacity="0.102"/>
<rect x="8" y="11" width="1" height="1" fill="#b87f00" fill-opacity="0.969"/>
<rect x="9" y="11" width="1" height="1" fill="#f4a900"/>
<rect x="10" y="11" width="1" height="1" fill="#ad7a04"/>
<rect x="11" y="11" width="1" height="1" fill="#ffdb50"/>
<rect x="12" y="11" width="1" height="1" fill="#ffe56d"/>
<rect x="13" y="11" width="1" height="1" fill="#ffe96f"/>
<rect x="14" y="11" width="1" height="1" fill="#ba8207"/>
<rect x="15" y="11" width="1" height="1" fill="#b88004"/>
<rect x="16" y="11" width="1" height="1" fill="#b78004"/>
<rect x="17" y="11" width="1" height="1" fill="#b88205"/>
<rect x="18" y="11" width="1" height="1" fill="#ffea74"/>
<rect x="19" y="11" width="1" height="1" fill="#fff8b2"/>
<rect x="20" y="11" width="1" height="1" fill="#fff6ae"/>
<rect x="21" y="11" width="1" height="1" fill="#ffea7a"/>
<rect x="22" y="11" width="1" height="1" fill="#d09302" fill-opacity="0.984"/>
<rect x="23" y="11" width="1" height="1" fill="#d59a00" fill-opacity="0.035"/>
<rect x="3" y="12" width="1" height="1" fill="#d59a00" fill-opacity="0.035"/>
<rect x="4" y="12" width="1" height="1" fill="#cd9000" fill-opacity="0.984"/>
<rect x="5" y="12" width="1" height="1" fill="#fffe08"/>
<rect x="6" y="12" width="1" height="1" fill="#fffe08"/>
<rect x="7" y="12" width="1" height="1" fill="#bb8200" fill-opacity="0.984"/>
<rect x="8" y="12" width="1" height="1" fill="#eda500"/>
<rect x="9" y="12" width="1" height="1" fill="#fbae00"/>
<rect x="10" y="12" width="1" height="1" fill="#eaaa00"/>
<rect x="11" y="12" width="1" height="1" fill="#a87502"/>
<rect x="12" y="12" width="1" height="1" fill="#ca8d02"/>
<rect x="13" y="12" width="1" height="1" fill="#bb8305"/>
<rect x="14" y="12" width="1" height="1" fill="#ffe26f"/>
<rect x="15" y="12" width="1" height="1" fill="#ffca05"/>
<rect x="16" y="12" width="1" height="1" fill="#ffc902"/>
<rect x="17" y="12" width="1" height="1" fill="#ffb700"/>
<rect x="18" y="12" width="1" height="1" fill="#b47e04"/>
<rect x="19" y="12" width="1" height="1" fill="#ffe46b"/>
<rect x="20" y="12" width="1" height="1" fill="#fff385"/>
<rect x="21" y="12" width="1" height="1" fill="#ffe85e"/>
<rect x="22" y="12" width="1" height="1" fill="#cc8f02" fill-opacity="0.984"/>
<rect x="23" y="12" width="1" height="1" fill="#d59a00" fill-opacity="0.035"/>
<rect x="3" y="13" width="1" height="1" fill="#d19300" fill-opacity="0.067"/>
<rect x="4" y="13" width="1" height="1" fill="#ce9104" fill-opacity="0.984"/>
<rect x="5" y="13" width="1" height="1" fill="#fffe08"/>
<rect x="6" y="13" width="1" height="1" fill="#ffff08"/>
<rect x="7" y="13" width="1" height="1" fill="#ffdd08"/>
<rect x="8" y="13" width="1" height="1" fill="#ab7900"/>
<rect x="9" y="13" width="1" height="1" fill="#faab00"/>
<rect x="10" y="13" width="1" height="1" fill="#fbae00"/>
<rect x="11" y="13" width="1" height="1" fill="#e8a100"/>
<rect x="12" y="13" width="1" height="1" fill="#b77f02"/>
<rect x="13" y="13" width="1" height="1" fill="#ffe26f"/>
<rect x="14" y="13" width="1" height="1" fill="#ffc805"/>
<rect x="15" y="13" width="1" height="1" fill="#ffde08"/>
<rect x="16" y="13" width="1" height="1" fill="#ffde08"/>
<rect x="17" y="13" width="1" height="1" fill="#ffc202"/>
<rect x="18" y="13" width="1" height="1" fill="#ffb500"/>
<rect x="19" y="13" width="1" height="1" fill="#ba8104"/>
<rect x="20" y="13" width="1" height="1" fill="#ffe451"/>
<rect x="21" y="13" width="1" height="1" fill="#ffde38"/>
<rect x="22" y="13" width="1" height="1" fill="#cd9102" fill-opacity="0.969"/>
<rect x="23" y="13" width="1" height="1" fill="#d59a00" fill-opacity="0.035"/>
<rect x="2" y="14" width="1" height="1" fill="#b28200" fill-opacity="0.067"/>
<rect x="3" y="14" width="1" height="1" fill="#b78108" fill-opacity="0.969"/>
<rect x="4" y="14" width="1" height="1" fill="#fae9c8"/>
<rect x="5" y="14" width="1" height="1" fill="#bf8705"/>
<rect x="6" y="14" width="1" height="1" fill="#ffdd08"/>
<rect x="7" y="14" width="1" height="1" fill="#ffde08"/>
<rect x="8" y="14" width="1" height="1" fill="#ffdc08"/>
<rect x="9" y="14" width="1" height="1" fill="#ad7800"/>
<rect x="10" y="14" width="1" height="1" fill="#e8a100"/>
<rect x="11" y="14" width="1" height="1" fill="#e8a200"/>
<rect x="12" y="14" width="1" height="1" fill="#b77f00"/>
<rect x="13" y="14" width="1" height="1" fill="#ffce16"/>
<rect x="14" y="14" width="1" height="1" fill="#ffdb08"/>
<rect x="15" y="14" width="1" height="1" fill="#ffc000"/>
<rect x="16" y="14" width="1" height="1" fill="#ffc000"/>
<rect x="17" y="14" width="1" height="1" fill="#ffdb07"/>
<rect x="18" y="14" width="1" height="1" fill="#ffb700"/>
<rect x="19" y="14" width="1" height="1" fill="#b87f00"/>
<rect x="20" y="14" width="1" height="1" fill="#ffd70e"/>
<rect x="21" y="14" width="1" height="1" fill="#c08702" fill-opacity="0.984"/>
<rect x="22" y="14" width="1" height="1" fill="#bf8b00" fill-opacity="0.102"/>
<rect x="23" y="14" width="1" height="1" fill="#000000" fill-opacity="0.004"/>
<rect x="1" y="15" width="1" height="1" fill="#c18200" fill-opacity="0.067"/>
<rect x="2" y="15" width="1" height="1" fill="#b78107" fill-opacity="0.969"/>
<rect x="3" y="15" width="1" height="1" fill="#fbeaca"/>
<rect x="4" y="15" width="1" height="1" fill="#ffe79a"/>
<rect x="5" y="15" width="1" height="1" fill="#ffdc71"/>
<rect x="6" y="15" width="1" height="1" fill="#ad7a04"/>
<rect x="7" y="15" width="1" height="1" fill="#ffcd08"/>
<rect x="8" y="15" width="1" height="1" fill="#ffcf08"/>
<rect x="9" y="15" width="1" height="1" fill="#ffcc08"/>
<rect x="10" y="15" width="1" height="1" fill="#ad7800"/>
<rect x="11" y="15" width="1" height="1" fill="#e7a100"/>
<rect x="12" y="15" width="1" height="1" fill="#b77f00"/>
<rect x="13" y="15" width="1" height="1" fill="#ffca02"/>
<rect x="14" y="15" width="1" height="1" fill="#ffdb08"/>
<rect x="15" y="15" width="1" height="1" fill="#ffc000"/>
<rect x="16" y="15" width="1" height="1" fill="#ffbf00"/>
<rect x="17" y="15" width="1" height="1" fill="#ffd808"/>
<rect x="18" y="15" width="1" height="1" fill="#ffb800"/>
<rect x="19" y="15" width="1" height="1" fill="#b88002"/>
<rect x="20" y="15" width="1" height="1" fill="#ffe662"/>
<rect x="21" y="15" width="1" height="1" fill="#ffe875"/>
<rect x="22" y="15" width="1" height="1" fill="#bf8705" fill-opacity="0.969"/>
<rect x="23" y="15" width="1" height="1" fill="#c18200" fill-opacity="0.067"/>
<rect x="0" y="16" width="1" height="1" fill="#c18200" fill-opacity="0.067"/>
<rect x="1" y="16" width="1" height="1" fill="#c08604" fill-opacity="0.969"/>
<rect x="2" y="16" width="1" height="1" fill="#fde4a3"/>
<rect x="3" y="16" width="1" height="1" fill="#ffe48f"/>
<rect x="4" y="16" width="1" height="1" fill="#ffdf75"/>
<rect x="5" y="16" width="1" height="1" fill="#ffdc5f"/>
<rect x="6" y="16" width="1" height="1" fill="#ffd134"/>
<rect x="7" y="16" width="1" height="1" fill="#ad7902"/>
<rect x="8" y="16" width="1" height="1" fill="#ffaf00"/>
<rect x="9" y="16" width="1" height="1" fill="#ffaf00"/>
<rect x="10" y="16" width="1" height="1" fill="#ab7500"/>
<rect x="11" y="16" width="1" height="1" fill="#e7a000"/>
<rect x="12" y="16" width="1" height="1" fill="#b77e00"/>
<rect x="13" y="16" width="1" height="1" fill="#ffbd00"/>
<rect x="14" y="16" width="1" height="1" fill="#ffb700"/>
<rect x="15" y="16" width="1" height="1" fill="#ffdc08"/>
<rect x="16" y="16" width="1" height="1" fill="#ffdb08"/>
<rect x="17" y="16" width="1" height="1" fill="#ffbd00"/>
<rect x="18" y="16" width="1" height="1" fill="#ffb700"/>
<rect x="19" y="16" width="1" height="1" fill="#b47f04"/>
<rect x="20" y="16" width="1" height="1" fill="#ffea7c"/>
<rect x="21" y="16" width="1" height="1" fill="#fbfbd1"/>
<rect x="22" y="16" width="1" height="1" fill="#ffed93"/>
<rect x="23" y="16" width="1" height="1" fill="#bf8705" fill-opacity="0.969"/>
<rect x="24" y="16" width="1" height="1" fill="#c18200" fill-opacity="0.067"/>
<rect x="0" y="17" width="1" height="1" fill="#bd8200" fill-opacity="0.969"/>
<rect x="1" y="17" width="1" height="1" fill="#be8300"/>
<rect x="2" y="17" width="1" height="1" fill="#bf8604"/>
<rect x="3" y="17" width="1" height="1" fill="#bf8602"/>
<rect x="4" y="17" width="1" height="1" fill="#bf8602"/>
<rect x="5" y="17" width="1" height="1" fill="#bf8602"/>
<rect x="6" y="17" width="1" height="1" fill="#bf8502"/>
<rect x="7" y="17" width="1" height="1" fill="#bd8300"/>
<rect x="8" y="17" width="1" height="1" fill="#aa7500"/>
<rect x="9" y="17" width="1" height="1" fill="#a97500"/>
<rect x="10" y="17" width="1" height="1" fill="#a87400"/>
<rect x="11" y="17" width="1" height="1" fill="#bf8300"/>
<rect x="12" y="17" width="1" height="1" fill="#ca8c00"/>
<rect x="13" y="17" width="1" height="1" fill="#ba8000"/>
<rect x="14" y="17" width="1" height="1" fill="#ffb400"/>
<rect x="15" y="17" width="1" height="1" fill="#ffb500"/>
<rect x="16" y="17" width="1" height="1" fill="#ffb400"/>
<rect x="17" y="17" width="1" height="1" fill="#ffb300"/>
<rect x="18" y="17" width="1" height="1" fill="#b17b02"/>
<rect x="19" y="17" width="1" height="1" fill="#ffe258"/>
<rect x="20" y="17" width="1" height="1" fill="#ffe982"/>
<rect x="21" y="17" width="1" height="1" fill="#fef4ae"/>
<rect x="22" y="17" width="1" height="1" fill="#fdf8bf"/>
<rect x="23" y="17" width="1" height="1" fill="#ffed87"/>
<rect x="24" y="17" width="1" height="1" fill="#c48a02" fill-opacity="0.969"/>
<rect x="25" y="17" width="1" height="1" fill="#79a200" fill-opacity="0.071"/>
<rect x="0" y="18" width="1" height="1" fill="#b57e00" fill-opacity="0.984"/>
<rect x="1" y="18" width="1" height="1" fill="#ffcb19"/>
<rect x="2" y="18" width="1" height="1" fill="#ffcd19"/>
<rect x="3" y="18" width="1" height="1" fill="#ffcd19"/>
<rect x="4" y="18" width="1" height="1" fill="#ffcd19"/>
<rect x="5" y="18" width="1" height="1" fill="#ffcd19"/>
<rect x="6" y="18" width="1" height="1" fill="#ffcd19"/>
<rect x="7" y="18" width="1" height="1" fill="#ffcc15"/>
<rect x="8" y="18" width="1" height="1" fill="#ffc904"/>
<rect x="9" y="18" width="1" height="1" fill="#ffc802"/>
<rect x="10" y="18" width="1" height="1" fill="#ffc300"/>
<rect x="11" y="18" width="1" height="1" fill="#ffbe00"/>
<rect x="12" y="18" width="1" height="1" fill="#ffbe00"/>
<rect x="13" y="18" width="1" height="1" fill="#ffbd00"/>
<rect x="14" y="18" width="1" height="1" fill="#b87f00" fill-opacity="0.984"/>
<rect x="15" y="18" width="1" height="1" fill="#b57e00" fill-opacity="0.984"/>
<rect x="16" y="18" width="1" height="1" fill="#b57e00" fill-opacity="0.984"/>
<rect x="17" y="18" width="1" height="1" fill="#b87f00" fill-opacity="0.984"/>
<rect x="18" y="18" width="1" height="1" fill="#ffce20"/>
<rect x="19" y="18" width="1" height="1" fill="#ffdc53"/>
<rect x="20" y="18" width="1" height="1" fill="#d99704"/>
<rect x="21" y="18" width="1" height="1" fill="#d69604"/>
<rect x="22" y="18" width="1" height="1" fill="#df9d05"/>
<rect x="23" y="18" width="1" height="1" fill="#ffe45f"/>
<rect x="24" y="18" width="1" height="1" fill="#c18902" fill-opacity="0.984"/>
<rect x="25" y="18" width="1" height="1" fill="#799400" fill-opacity="0.071"/>
<rect x="0" y="19" width="1" height="1" fill="#b57d00" fill-opacity="0.965"/>
<rect x="1" y="19" width="1" height="1" fill="#b57e00" fill-opacity="0.984"/>
<rect x="2" y="19" width="1" height="1" fill="#b57e00" fill-opacity="0.984"/>
<rect x="3" y="19" width="1" height="1" fill="#b57e00" fill-opacity="0.984"/>
<rect x="4" y="19" width="1" height="1" fill="#b57e00" fill-opacity="0.984"/>
<rect x="5" y="19" width="1" height="1" fill="#b57e00" fill-opacity="0.984"/>
<rect x="6" y="19" width="1" height="1" fill="#b57e00" fill-opacity="0.984"/>
<rect x="7" y="19" width="1" height="1" fill="#b57e00" fill-opacity="0.984"/>
<rect x="8" y="19" width="1" height="1" fill="#b57e00" fill-opacity="0.984"/>
<rect x="9" y="19" width="1" height="1" fill="#b57e00" fill-opacity="0.984"/>
<rect x="10" y="19" width="1" height="1" fill="#b57e00" fill-opacity="0.984"/>
<rect x="11" y="19" width="1" height="1" fill="#b57e00" fill-opacity="0.984"/>
<rect x="12" y="19" width="1" height="1" fill="#b57e00" fill-opacity="0.984"/>
<rect x="13" y="19" width="1" height="1" fill="#b57e00" fill-opacity="0.969"/>
<rect x="14" y="19" width="1" height="1" fill="#c18200" fill-opacity="0.067"/>
<rect x="15" y="19" width="1" height="1" fill="#b77b00" fill-opacity="0.035"/>
<rect x="16" y="19" width="1" height="1" fill="#b77b00" fill-opacity="0.035"/>
<rect x="17" y="19" width="1" height="1" fill="#d19300" fill-opacity="0.067"/>
<rect x="18" y="19" width="1" height="1" fill="#d79600" fill-opacity="0.969"/>
<rect x="19" y="19" width="1" height="1" fill="#d89602" fill-opacity="0.984"/>
<rect x="20" y="19" width="1" height="1" fill="#e69e00" fill-opacity="0.984"/>
<rect x="21" y="19" width="1" height="1" fill="#eba300" fill-opacity="0.984"/>
<rect x="22" y="19" width="1" height="1" fill="#eaa300" fill-opacity="0.984"/>
<rect x="23" y="19" width="1" height="1" fill="#d69502" fill-opacity="0.984"/>
<rect x="24" y="19" width="1" height="1" fill="#c08700" fill-opacity="0.965"/>
<rect x="25" y="19" width="1" height="1" fill="#799400" fill-opacity="0.071"/>
<rect x="0" y="20" width="1" height="1" fill="#b77b00" fill-opacity="0.035"/>
<rect x="1" y="20" width="1" height="1" fill="#b77b00" fill-opacity="0.035"/>
<rect x="2" y="20" width="1" height="1" fill="#b77b00" fill-opacity="0.035"/>
<rect x="3" y="20" width="1" height="1" fill="#b77b00" fill-opacity="0.035"/>
<rect x="4" y="20" width="1" height="1" fill="#b77b00" fill-opacity="0.035"/>
<rect x="5" y="20" width="1" height="1" fill="#b77b00" fill-opacity="0.035"/>
<rect x="6" y="20" width="1" height="1" fill="#b77b00" fill-opacity="0.035"/>
<rect x="7" y="20" width="1" height="1" fill="#b77b00" fill-opacity="0.035"/>
<rect x="8" y="20" width="1" height="1" fill="#b77b00" fill-opacity="0.035"/>
<rect x="9" y="20" width="1" height="1" fill="#b77b00" fill-opacity="0.035"/>
<rect x="10" y="20" width="1" height="1" fill="#b77b00" fill-opacity="0.035"/>
<rect x="11" y="20" width="1" height="1" fill="#b77b00" fill-opacity="0.035"/>
<rect x="12" y="20" width="1" height="1" fill="#b77b00" fill-opacity="0.035"/>
<rect x="13" y="20" width="1" height="1" fill="#b77b00" fill-opacity="0.035"/>
<rect x="18" y="20" width="1" height="1" fill="#d59a00" fill-opacity="0.035"/>
<rect x="19" y="20" width="1" height="1" fill="#d59a00" fill-opacity="0.035"/>
<rect x="20" y="20" width="1" height="1" fill="#f39a00" fill-opacity="0.035"/>
<rect x="21" y="20" width="1" height="1" fill="#f39a00" fill-opacity="0.035"/>
<rect x="22" y="20" width="1" height="1" fill="#f39a00" fill-opacity="0.035"/>
<rect x="23" y="20" width="1" height="1" fill="#d59a00" fill-opacity="0.035"/>
<rect x="24" y="20" width="1" height="1" fill="#b77b00" fill-opacity="0.035"/>
</svg>