<?xml version="1.0" encoding="UTF-8" standalone="no"?>
<svg xmlns="http://www.w3.org/2000/svg" width="26" height="21" shape-rendering="crispEdges">
<rect x="1" y="0" width="1" height="1" fill="#57ff00" fill-opacity="0.035"/>
<rect x="2" y="0" width="1" height="1" fill="#4cff00" fill-opacity="0.027"/>
<rect x="3" y="0" width="1" height="1" fill="#57ff00" fill-opacity="0.035"/>
<rect x="4" y="0" width="1" height="1" fill="#52ff00" fill-opacity="0.945"/>
<rect x="5" y="0" width="1" height="1" fill="#57ff00" fill-opacity="0.035"/>
<rect x="6" y="0" width="1" height="1" fill="#4cff00" fill-opacity="0.027"/>
<rect x="7" y="0" width="1" height="1" fill="#57ff00" fill-opacity="0.035"/>
<rect x="8" y="0" width="1" height="1" fill="#83ff00" fill-opacity="0.008"/>
<rect x="14" y="0" width="1" height="1" fill="#3bc800" fill-opacity="0.035"/>
<rect x="15" y="0" width="1" height="1" fill="#3bc800" fill-opacity="0.035"/>
<rect x="16" y="0" width="1" height="1" fill="#2fb500" fill-opacity="0.067"/>
<rect x="17" y="0" width="1" height="1" fill="#2ea002" fill-opacity="0.969"/>
<rect x="18" y="0" width="1" height="1" fill="#2ea102" fill-opacity="0.984"/>
<rect x="19" y="0" width="1" height="1" fill="#2ea102" fill-opacity="0.984"/>
<rect x="20" y="0" width="1" height="1" fill="#2a9b00" fill-opacity="0.984"/>
<rect x="21" y="0" width="1" height="1" fill="#2a9f00" fill-opacity="0.949"/>
<rect x="22" y="0" width="1" height="1" fill="#21c000" fill-opacity="0.031"/>
<rect x="0" y="1" width="1" height="1" fill="#57ff00" fill-opacity="0.035"/>
<rect x="1" y="1" width="1" height="1" fill="#53ff00" fill-opacity="0.961"/>
<rect x="2" y="1" width="1" height="1" fill="#51ff00" fill-opacity="0.835"/>
<rect x="3" y="1" width="1" height="1" fill="#57ff00" fill-opacity="0.059"/>
<rect x="4" y="1" width="1" height="1" fill="#52ff00" fill-opacity="0.878"/>
<rect x="5" y="1" width="1" height="1" fill="#57ff00" fill-opacity="0.059"/>
<rect x="6" y="1" width="1" height="1" fill="#51ff00" fill-opacity="0.835"/>
<rect x="7" y="1" width="1" height="1" fill="#53ff00" fill-opacity="0.961"/>
<rect x="8" y="1" width="1" height="1" fill="#57ff00" fill-opacity="0.035"/>
<rect x="10" y="1" width="1" height="1" fill="#3bac00" fill-opacity="0.035"/>
<rect x="11" y="1" width="1" height="1" fill="#3bc800" fill-opacity="0.035"/>
<rect x="12" y="1" width="1" height="1" fill="#3bc800" fill-opacity="0.035"/>
<rect x="13" y="1" width="1" height="1" fill="#3ec400" fill-opacity="0.067"/>
<rect x="14" y="1" width="1" height="1" fill="#3acb00" fill-opacity="0.969"/>
<rect x="15" y="1" width="1" height="1" fill="#38c004" fill-opacity="0.984"/>
<rect x="16" y="1" width="1" height="1" fill="#3ac007" fill-opacity="0.984"/>
<rect x="17" y="1" width="1" height="1" fill="#a1fc83"/>
<rect x="18" y="1" width="1" height="1" fill="#a8fd8f"/>
<rect x="19" y="1" width="1" height="1" fill="#90fb6d"/>
<rect x="20" y="1" width="1" height="1" fill="#2ca202" fill-opacity="0.984"/>
<rect x="21" y="1" width="1" height="1" fill="#29a800" fill-opacity="0.102"/>
<rect x="22" y="1" width="1" height="1" fill="#000000" fill-opacity="0.004"/>
<rect x="0" y="2" width="1" height="1" fill="#4cff00" fill-opacity="0.027"/>
<rect x="1" y="2" width="1" height="1" fill="#52ff00" fill-opacity="0.835"/>
<rect x="2" y="2" width="1" height="1" fill="#4cff00" fill-opacity="0.055"/>
<rect x="3" y="2" width="1" height="1" fill="#57ff00" fill-opacity="0.071"/>
<rect x="4" y="2" width="1" height="1" fill="#55ff02" fill-opacity="0.965"/>
<rect x="5" y="2" width="1" height="1" fill="#57ff00" fill-opacity="0.071"/>
<rect x="6" y="2" width="1" height="1" fill="#4cff00" fill-opacity="0.055"/>
<rect x="7" y="2" width="1" height="1" fill="#52ff00" fill-opacity="0.839"/>
<rect x="8" y="2" width="1" height="1" fill="#4cff00" fill-opacity="0.027"/>
<rect x="9" y="2" width="1" height="1" fill="#3bc800" fill-opacity="0.035"/>
<rect x="10" y="2" width="1" height="1" fill="#37bf00" fill-opacity="0.965"/>
<rect x="11" y="2" width="1" height="1" fill="#39bf00" fill-opacity="0.984"/>
<rect x="12" y="2" width="1" height="1" fill="#39bf00" fill-opacity="0.984"/>
<rect x="13" y="2" width="1" height="1" fill="#37bf00" fill-opacity="0.984"/>
<rect x="14" y="2" width="1" height="1" fill="#3ac005"/>
<rect x="15" y="2" width="1" height="1" fill="#b8fda3"/>
<rect x="16" y="2" width="1" height="1" fill="#d2fec6"/>
<rect x="17" y="2" width="1" height="1" fill="#d8ffd0"/>
<rect x="18" y="2" width="1" height="1" fill="#c0feac"/>
<rect x="19" y="2" width="1" height="1" fill="#31a405"/>
<rect x="20" y="2" width="1" height="1" fill="#39bf00"/>
<rect x="21" y="2" width="1" height="1" fill="#37bf00" fill-opacity="0.969"/>
<rect x="22" y="2" width="1" height="1" fill="#3bc800" fill-opacity="0.035"/>
<rect x="0" y="3" width="1" height="1" fill="#57ff00" fill-opacity="0.035"/>
<rect x="1" y="3" width="1" height="1" fill="#4cff00" fill-opacity="0.055"/>
<rect x="2" y="3" width="1" height="1" fill="#57ff00" fill-opacity="0.071"/>
<rect x="3" y="3" width="1" height="1" fill="#58ff02" fill-opacity="0.969"/>
<rect x="4" y="3" width="1" height="1" fill="#7aff3a"/>
<rect x="5" y="3" width="1" height="1" fill="#58ff02" fill-opacity="0.969"/>
<rect x="6" y="3" width="1" height="1" fill="#57ff00" fill-opacity="0.071"/>
<rect x="7" y="3" width="1" height="1" fill="#5dff00" fill-opacity="0.055"/>
<rect x="8" y="3" width="1" height="1" fill="#57ff00" fill-opacity="0.035"/>
<rect x="9" y="3" width="1" height="1" fill="#3bb900" fill-opacity="0.071"/>
<rect x="10" y="3" width="1" height="1" fill="#39bf00" fill-opacity="0.984"/>
<rect x="11" y="3" width="1" height="1" fill="#f5d108"/>
<rect x="12" y="3" width="1" height="1" fill="#f5b202"/>
<rect x="13" y="3" width="1" height="1" fill="#3bc004"/>
<rect x="14" y="3" width="1" height="1" fill="#bcfda8"/>
<rect x="15" y="3" width="1" height="1" fill="#edffea"/>
<rect x="16" y="3" width="1" height="1" fill="#fefffd"/>
<rect x="17" y="3" width="1" height="1" fill="#d9ffd0"/>
<rect x="18" y="3" width="1" height="1" fill="#b5fe9f"/>
<rect x="19" y="3" width="1" height="1" fill="#34a505"/>
<rect x="20" y="3" width="1" height="1" fill="#f1d008"/>
<rect x="21" y="3" width="1" height="1" fill="#39bf00" fill-opacity="0.984"/>
<rect x="22" y="3" width="1" height="1" fill="#3bc800" fill-opacity="0.035"/>
<rect x="0" y="4" width="1" height="1" fill="#53ff00" fill-opacity="0.949"/>
<rect x="1" y="4" width="1" height="1" fill="#52ff00" fill-opacity="0.878"/>
<rect x="2" y="4" width="1" height="1" fill="#55ff02" fill-opacity="0.965"/>
<rect x="3" y="4" width="1" height="1" fill="#79ff3b"/>
<rect x="4" y="4" width="1" height="1" fill="#adff87"/>
<rect x="5" y="4" width="1" height="1" fill="#79ff3b"/>
<rect x="6" y="4" width="1" height="1" fill="#55ff02" fill-opacity="0.965"/>
<rect x="7" y="4" width="1" height="1" fill="#52ff00" fill-opacity="0.878"/>
<rect x="8" y="4" width="1" height="1" fill="#52fe00" fill-opacity="0.965"/>
<rect x="9" y="4" width="1" height="1" fill="#2fa800" fill-opacity="0.984"/>
<rect x="10" y="4" width="1" height="1" fill="#2fa604"/>
<rect x="11" y="4" width="1" height="1" fill="#39bf00"/>
<rect x="12" y="4" width="1" height="1" fill="#39bf00"/>
<rect x="13" y="4" width="1" height="1" fill="#38c004"/>
<rect x="14" y="4" width="1" height="1" fill="#ccfebf"/>
<rect x="15" y="4" width="1" height="1" fill="#fefffe"/>
<rect x="16" y="4" width="1" height="1" fill="#ffffff"/>
<rect x="17" y="4" width="1" height="1" fill="#f7fff6"/>
<rect x="18" y="4" width="1" height="1" fill="#e1ffd8"/>
<rect x="19" y="4" width="1" height="1" fill="#a3fc87"/>
<rect x="20" y="4" width="1" height="1" fill="#319f05"/>
<rect x="21" y="4" width="1" height="1" fill="#37be00" fill-opacity="0.984"/>
<rect x="22" y="4" width="1" height="1" fill="#3bc800" fill-opacity="0.035"/>
<rect x="0" y="5" width="1" height="1" fill="#57ff00" fill-opacity="0.035"/>
<rect x="1" y="5" width="1" height="1" fill="#4cff00" fill-opacity="0.055"/>
<rect x="2" y="5" width="1" height="1" fill="#57ff00" fill-opacity="0.071"/>
<rect x="3" y="5" width="1" height="1" fill="#58ff02" fill-opacity="0.969"/>
<rect x="4" y="5" width="1" height="1" fill="#7aff3a"/>
<rect x="5" y="5" width="1" height="1" fill="#58ff02" fill-opacity="0.969"/>
<rect x="6" y="5" width="1" height="1" fill="#57ff00" fill-opacity="0.071"/>
<rect x="7" y="5" width="1" height="1" fill="#57ff00" fill-opacity="0.059"/>
<rect x="8" y="5" width="1" height="1" fill="#3bd600" fill-opacity="0.071"/>
<rect x="9" y="5" width="1" height="1" fill="#2fa604" fill-opacity="0.984"/>
<rect x="10" y="5" width="1" height="1" fill="#d3fac4"/>
<rect x="11" y="5" width="1" height="1" fill="#2f9f08"/>
<rect x="12" y="5" width="1" height="1" fill="#47e700"/>
<rect x="13" y="5" width="1" height="1" fill="#3ac105"/>
<rect x="14" y="5" width="1" height="1" fill="#ccfec0"/>
<rect x="15" y="5" width="1" height="1" fill="#fefffe"/>
<rect x="16" y="5" width="1" height="1" fill="#ffffff"/>
<rect x="17" y="5" width="1" height="1" fill="#ffffff"/>
<rect x="18" y="5" width="1" height="1" fill="#f3fff1"/>
<rect x="19" y="5" width="1" height="1" fill="#caffb8"/>
<rect x="20" y="5" width="1" height="1" fill="#a0fc81"/>
<rect x="21" y="5" width="1" height="1" fill="#30a602" fill-opacity="0.984"/>
<rect x="22" y="5" width="1" height="1" fill="#3bac00" fill-opacity="0.035"/>
<rect x="0" y="6" width="1" height="1" fill="#4cff00" fill-opacity="0.027"/>
<rect x="1" y="6" width="1" height="1" fill="#52ff00" fill-opacity="0.835"/>
<rect x="2" y="6" width="1" height="1" fill="#4cff00" fill-opacity="0.055"/>
<rect x="3" y="6" width="1" height="1" fill="#57ff00" fill-opacity="0.071"/>
<rect x="4" y="6" width="1" height="1" fill="#55ff02" fill-opacity="0.965"/>
<rect x="5" y="6" width="1" height="1" fill="#57ff00" fill-opacity="0.071"/>
<rect x="6" y="6" width="1" height="1" fill="#47ff00" fill-opacity="0.059"/>
<rect x="7" y="6" width="1" height="1" fill="#50ff00" fill-opacity="0.867"/>
<rect x="8" y="6" width="1" height="1" fill="#3ec400" fill-opacity="0.067"/>
<rect x="9" y="6" width="1" height="1" fill="#2fa604" fill-opacity="0.984"/>
<rect x="10" y="6" width="1" height="1" fill="#dcfed1"/>
<rect x="11" y="6" width="1" height="1" fill="#dcfdd0"/>
<rect x="12" y="6" width="1" height="1" fill="#3dc20a"/>
<rect x="13" y="6" width="1" height="1" fill="#8dfd5b"/>
<rect x="14" y="6" width="1" height="1" fill="#d9ffcd"/>
<rect x="15" y="6" width="1" height="1" fill="#fffffe"/>
<rect x="16" y="6" width="1" height="1" fill="#ffffff"/>
<rect x="17" y="6" width="1" height="1" fill="#ffffff"/>
<rect x="18" y="6" width="1" height="1" fill="#f7fff6"/>
<rect x="19" y="6" width="1" height="1" fill="#ccffbc"/>
<rect x="20" y="6" width="1" height="1" fill="#a1fe86"/>
<rect x="21" y="6" width="1" height="1" fill="#30a602" fill-opacity="0.984"/>
<rect x="22" y="6" width="1" height="1" fill="#2d9e00" fill-opacity="0.071"/>
<rect x="23" y="6" width="1" height="1" fill="#1eac00" fill-opacity="0.035"/>
<rect x="24" y="6" width="1" height="1" fill="#1e9000" fill-opacity="0.035"/>
<rect x="0" y="7" width="1" height="1" fill="#57ff00" fill-opacity="0.035"/>
<rect x="1" y="7" width="1" height="1" fill="#53ff00" fill-opacity="0.961"/>
<rect x="2" y="7" width="1" height="1" fill="#51ff00" fill-opacity="0.835"/>
<rect x="3" y="7" width="1" height="1" fill="#57ff00" fill-opacity="0.059"/>
<rect x="4" y="7" width="1" height="1" fill="#52ff00" fill-opacity="0.878"/>
<rect x="5" y="7" width="1" height="1" fill="#57ff00" fill-opacity="0.059"/>
<rect x="6" y="7" width="1" height="1" fill="#52ff00" fill-opacity="0.839"/>
<rect x="7" y="7" width="1" height="1" fill="#51ff00" fill-opacity="0.961"/>
<rect x="8" y="7" width="1" height="1" fill="#3bd600" fill-opacity="0.071"/>
<rect x="9" y="7" width="1" height="1" fill="#2fa605" fill-opacity="0.984"/>
<rect x="10" y="7" width="1" height="1" fill="#e2fed9"/>
<rect x="11" y="7" width="1" height="1" fill="#efffec"/>
<rect x="12" y="7" width="1" height="1" fill="#defed1"/>
<rect x="13" y="7" width="1" height="1" fill="#cfffbc"/>
<rect x="14" y="7" width="1" height="1" fill="#eeffeb"/>
<rect x="15" y="7" width="1" height="1" fill="#ffffff"/>
<rect x="16" y="7" width="1" height="1" fill="#ffffff"/>
<rect x="17" y="7" width="1" height="1" fill="#fffffe"/>
<rect x="18" y="7" width="1" height="1" fill="#f0ffee"/>
<rect x="19" y="7" width="1" height="1" fill="#c9ffb8"/>
<rect x="20" y="7" width="1" height="1" fill="#92fd6e"/>
<rect x="21" y="7" width="1" height="1" fill="#38b705"/>
<rect x="22" y="7" width="1" height="1" fill="#2ea302" fill-opacity="0.984"/>
<rect x="23" y="7" width="1" height="1" fill="#2aa102" fill-opacity="0.984"/>
<rect x="24" y="7" width="1" height="1" fill="#2a9d00" fill-opacity="0.965"/>
<rect x="25" y="7" width="1" height="1" fill="#1e9000" fill-opacity="0.035"/>
<rect x="1" y="8" width="1" height="1" fill="#57ff00" fill-opacity="0.035"/>
<rect x="2" y="8" width="1" height="1" fill="#4cff00" fill-opacity="0.027"/>
<rect x="3" y="8" width="1" height="1" fill="#57ff00" fill-opacity="0.035"/>
<rect x="4" y="8" width="1" height="1" fill="#53ff00" fill-opacity="0.945"/>
<rect x="5" y="8" width="1" height="1" fill="#57ff00" fill-opacity="0.035"/>
<rect x="6" y="8" width="1" height="1" fill="#4cff00" fill-opacity="0.027"/>
<rect x="7" y="8" width="1" height="1" fill="#57ff00" fill-opacity="0.035"/>
<rect x="8" y="8" width="1" height="1" fill="#1eac00" fill-opacity="0.035"/>
<rect x="9" y="8" width="1" height="1" fill="#2fa605" fill-opacity="0.984"/>
<rect x="10" y="8" width="1" height="1" fill="#e4fedb"/>
<rect x="11" y="8" width="1" height="1" fill="#fefffe"/>
<rect x="12" y="8" width="1" height="1" fill="#fffffe"/>
<rect x="13" y="8" width="1" height="1" fill="#f1ffef"/>
<rect x="14" y="8" width="1" height="1" fill="#fbfffa"/>
<rect x="15" y="8" width="1" height="1" fill="#ffffff"/>
<rect x="16" y="8" width="1" height="1" fill="#fefffe"/>
<rect x="17" y="8" width="1" height="1" fill="#efffed"/>
<rect x="18" y="8" width="1" height="1" fill="#dbffd2"/>
<rect x="19" y="8" width="1" height="1" fill="#a8fe8b"/>
<rect x="20" y="8" width="1" height="1" fill="#49ca0b"/>
<rect x="21" y="8" width="1" height="1" fill="#94fd6f"/>
<rect x="22" y="8" width="1" height="1" fill="#a1fe82"/>
<rect x="23" y="8" width="1" height="1" fill="#76fb47"/>
<rect x="24" y="8" width="1" height="1" fill="#2fa702" fill-opacity="0.969"/>
<rect x="25" y="8" width="1" height="1" fill="#3bac00" fill-opacity="0.035"/>
<rect x="4" y="9" width="1" height="1" fill="#62ff00" fill-opacity="0.031"/>
<rect x="8" y="9" width="1" height="1" fill="#3bac00" fill-opacity="0.035"/>
<rect x="9" y="9" width="1" height="1" fill="#31a804" fill-opacity="0.984"/>
<rect x="10" y="9" width="1" height="1" fill="#d1fcc0"/>
<rect x="11" y="9" width="1" height="1" fill="#e6ffdc"/>
<rect x="12" y="9" width="1" height="1" fill="#fefffe"/>
<rect x="13" y="9" width="1" height="1" fill="#ffffff"/>
<rect x="14" y="9" width="1" height="1" fill="#fffffe"/>
<rect x="15" y="9" width="1" height="1" fill="#fefffe"/>
<rect x="16" y="9" width="1" height="1" fill="#eaffe4"/>
<rect x="17" y="9" width="1" height="1" fill="#c0ffad"/>
<rect x="18" y="9" width="1" height="1" fill="#97ff75"/>
<rect x="19" y="9" width="1" height="1" fill="#65eb2e"/>
<rect x="20" y="9" width="1" height="1" fill="#a1fe81"/>
<rect x="21" y="9" width="1" height="1" fill="#b2ff9f"/>
<rect x="22" y="9" width="1" height="1" fill="#85fd58"/>
<rect x="23" y="9" width="1" height="1" fill="#43d502" fill-opacity="0.969"/>
<rect x="24" y="9" width="1" height="1" fill="#2fb500" fill-opacity="0.067"/>
<rect x="0" y="10" width="1" height="1" fill="#000000" fill-opacity="0.012"/>
<rect x="4" y="10" width="1" height="1" fill="#3bc800" fill-opacity="0.035"/>
<rect x="5" y="10" width="1" height="1" fill="#3bc800" fill-opacity="0.035"/>
<rect x="6" y="10" width="1" height="1" fill="#3bc800" fill-opacity="0.035"/>
<rect x="7" y="10" width="1" height="1" fill="#000000" fill-opacity="0.004"/>
<rect x="8" y="10" width="1" height="1" fill="#3eb500" fill-opacity="0.067"/>
<rect x="9" y="10" width="1" height="1" fill="#31aa04" fill-opacity="0.984"/>
<rect x="10" y="10" width="1" height="1" fill="#b6f99b"/>
<rect x="11" y="10" width="1" height="1" fill="#cbffbb"/>
<rect x="12" y="10" width="1" height="1" fill="#e7ffde"/>
<rect x="13" y="10" width="1" height="1" fill="#ecffe6"/>
<rect x="14" y="10" width="1" height="1" fill="#dcfed4"/>
<rect x="15" y="10" width="1" height="1" fill="#dcfed2"/>
<rect x="16" y="10" width="1" height="1" fill="#dafecf"/>
<rect x="17" y="10" width="1" height="1" fill="#d2fec6"/>
<rect x="18" y="10" width="1" height="1" fill="#daffd1"/>
<rect x="19" y="10" width="1" height="1" fill="#d3ffc8"/>
<rect x="20" y="10" width="1" height="1" fill="#cfffc4"/>
<rect x="21" y="10" width="1" height="1" fill="#bcfea8"/>
<rect x="22" y="10" width="1" height="1" fill="#41d105" fill-opacity="0.984"/>
<rect x="23" y="10" width="1" height="1" fill="#3ed300" fill-opacity="0.067"/>
<rect x="0" y="11" width="1" height="1" fill="#72ff00" fill-opacity="0.012"/>
<rect x="1" y="11" width="1" height="1" fill="#4dff00" fill-opacity="0.043"/>
<rect x="3" y="11" width="1" height="1" fill="#3bc800" fill-opacity="0.035"/>
<rect x="4" y="11" width="1" height="1" fill="#3ccd00" fill-opacity="0.965"/>
<rect x="5" y="11" width="1" height="1" fill="#3fcd00" fill-opacity="0.984"/>
<rect x="6" y="11" width="1" height="1" fill="#3fce00" fill-opacity="0.969"/>
<rect x="7" y="11" width="1" height="1" fill="#3dc500" fill-opacity="0.102"/>
<rect x="8" y="11" width="1" height="1" fill="#34b900" fill-opacity="0.969"/>
<rect x="9" y="11" width="1" height="1" fill="#4cf700"/>
<rect x="10" y="11" width="1" height="1" fill="#33ad05"/>
<rect x="11" y="11" width="1" height="1" fill="#a3fc7e"/>
<rect x="12" y="11" width="1" height="1" fill="#b7fe9a"/>
<rect x="13" y="11" width="1" height="1" fill="#b5fd9d"/>
<rect x="14" y="11" width="1" height="1" fill="#3abb0a"/>
<rect x="15" y="11" width="1" height="1" fill="#38b805"/>
<rect x="16" y="11" width="1" height="1" fill="#38b705"/>
<rect x="17" y="11" width="1" height="1" fill="#3ab907"/>
<rect x="18" y="11" width="1" height="1" fill="#b8fda2"/>
<rect x="19" y="11" width="1" height="1" fill="#e2ffda"/>
<rect x="20" y="11" width="1" height="1" fill="#e0ffd7"/>
<rect x="21" y="11" width="1" height="1" fill="#bcfea7"/>
<rect x="22" y="11" width="1" height="1" fill="#3eca04" fill-opacity="0.984"/>
<rect x="23" y="11" width="1" height="1" fill="#3bc800" fill-opacity="0.035"/>
<rect x="3" y="12" width="1" height="1" fill="#3bc800" fill-opacity="0.035"/>
<rect x="4" y="12" width="1" height="1" fill="#3fcd00" fill-opacity="0.984"/>
<rect x="5" y="12" width="1" height="1" fill="#f8f108"/>
<rect x="6" y="12" width="1" height="1" fill="#f8f108"/>
<rect x="7" y="12" width="1" height="1" fill="#3bb900" fill-opacity="0.984"/>
<rect x="8" y="12" width="1" height="1" fill="#4aef00"/>
<rect x="9" y="12" width="1" height="1" fill="#4dfe00"/>
<rect x="10" y="12" width="1" height="1" fill="#45da00"/>
<rect x="11" y="12" width="1" height="1" fill="#2fa802"/>
<rect x="12" y="12" width="1" height="1" fill="#3ccb04"/>
<rect x="13" y="12" width="1" height="1" fill="#3bbc08"/>
<rect x="14" y="12" width="1" height="1" fill="#b9fd9b"/>
<rect x="15" y="12" width="1" height="1" fill="#79fd34"/>
<rect x="16" y="12" width="1" height="1" fill="#77fd32"/>
<rect x="17" y="12" width="1" height="1" fill="#55fd02"/>
<rect x="18" y="12" width="1" height="1" fill="#38b505"/>
<rect x="19" y="12" width="1" height="1" fill="#b4fd97"/>
<rect x="20" y="12" width="1" height="1" fill="#c1ffb2"/>
<rect x="21" y="12" width="1" height="1" fill="#a8fe8e"/>
<rect x="22" y="12" width="1" height="1" fill="#3dc902" fill-opacity="0.984"/>
<rect x="23" y="12" width="1" height="1" fill="#3bc800" fill-opacity="0.035"/>
<rect x="3" y="13" width="1" height="1" fill="#3ec400" fill-opacity="0.067"/>
<rect x="4" y="13" width="1" height="1" fill="#43ce05" fill-opacity="0.984"/>
<rect x="5" y="13" width="1" height="1" fill="#f9f108"/>
<rect x="6" y="13" width="1" height="1" fill="#fff108"/>
<rect x="7" y="13" width="1" height="1" fill="#f9d308"/>
<rect x="8" y="13" width="1" height="1" fill="#37aa00"/>
<rect x="9" y="13" width="1" height="1" fill="#4cfc00"/>
<rect x="10" y="13" width="1" height="1" fill="#4dfe00"/>
<rect x="11" y="13" width="1" height="1" fill="#48eb00"/>
<rect x="12" y="13" width="1" height="1" fill="#37b804"/>
<rect x="13" y="13" width="1" height="1" fill="#b9fd9b"/>
<rect x="14" y="13" width="1" height="1" fill="#74fd27"/>
<rect x="15" y="13" width="1" height="1" fill="#f8d408"/>
<rect x="16" y="13" width="1" height="1" fill="#f7d408"/>
<rect x="17" y="13" width="1" height="1" fill="#63fd0b"/>
<rect x="18" y="13" width="1" height="1" fill="#54fc00"/>
<rect x="19" y="13" width="1" height="1" fill="#38b905"/>
<rect x="20" y="13" width="1" height="1" fill="#a1fe81"/>
<rect x="21" y="13" width="1" height="1" fill="#90fd6a"/>
<rect x="22" y="13" width="1" height="1" fill="#3bc902" fill-opacity="0.969"/>
<rect x="23" y="13" width="1" height="1" fill="#3bc800" fill-opacity="0.035"/>
<rect x="2" y="14" width="1" height="1" fill="#3eb500" fill-opacity="0.067"/>
<rect x="3" y="14" width="1" height="1" fill="#3ab80a" fill-opacity="0.969"/>
<rect x="4" y="14" width="1" height="1" fill="#f5f8e6"/>
<rect x="5" y="14" width="1" height="1" fill="#41bd08"/>
<rect x="6" y="14" width="1" height="1" fill="#f9d208"/>
<rect x="7" y="14" width="1" height="1" fill="#ffd108"/>
<rect x="8" y="14" width="1" height="1" fill="#f8d008"/>
<rect x="9" y="14" width="1" height="1" fill="#37aa00"/>
<rect x="10" y="14" width="1" height="1" fill="#48eb00"/>
<rect x="11" y="14" width="1" height="1" fill="#48eb00"/>
<rect x="12" y="14" width="1" height="1" fill="#36b802"/>
<rect x="13" y="14" width="1" height="1" fill="#87fd49"/>
<rect x="14" y="14" width="1" height="1" fill="#f8d00a"/>
<rect x="15" y="14" width="1" height="1" fill="#62fd0b"/>
<rect x="16" y="14" width="1" height="1" fill="#63fd0c"/>
<rect x="17" y="14" width="1" height="1" fill="#f7ad02"/>
<rect x="18" y="14" width="1" height="1" fill="#57fc00"/>
<rect x="19" y="14" width="1" height="1" fill="#34b802"/>
<rect x="20" y="14" width="1" height="1" fill="#74fd3f"/>
<rect x="21" y="14" width="1" height="1" fill="#3bc105" fill-opacity="0.984"/>
<rect x="22" y="14" width="1" height="1" fill="#3dc500" fill-opacity="0.102"/>
<rect x="23" y="14" width="1" height="1" fill="#000000" fill-opacity="0.004"/>
<rect x="1" y="15" width="1" height="1" fill="#3eb500" fill-opacity="0.067"/>
<rect x="2" y="15" width="1" height="1" fill="#3ab708" fill-opacity="0.969"/>
<rect x="3" y="15" width="1" height="1" fill="#f7f9ea"/>
<rect x="4" y="15" width="1" height="1" fill="#dcffc2"/>
<rect x="5" y="15" width="1" height="1" fill="#c0fd9e"/>
<rect x="6" y="15" width="1" height="1" fill="#39aa05"/>
<rect x="7" y="15" width="1" height="1" fill="#f8c208"/>
<rect x="8" y="15" width="1" height="1" fill="#ffc208"/>
<rect x="9" y="15" width="1" height="1" fill="#f8c108"/>
<rect x="10" y="15" width="1" height="1" fill="#33aa00"/>
<rect x="11" y="15" width="1" height="1" fill="#47ea00"/>
<rect x="12" y="15" width="1" height="1" fill="#34b802"/>
<rect x="13" y="15" width="1" height="1" fill="#77fd31"/>
<rect x="14" y="15" width="1" height="1" fill="#f7d00a"/>
<rect x="15" y="15" width="1" height="1" fill="#63fd0c"/>
<rect x="16" y="15" width="1" height="1" fill="#61f70a"/>
<rect x="17" y="15" width="1" height="1" fill="#f69207"/>
<rect x="18" y="15" width="1" height="1" fill="#57fc00"/>
<rect x="19" y="15" width="1" height="1" fill="#37b802"/>
<rect x="20" y="15" width="1" height="1" fill="#aefe92"/>
<rect x="21" y="15" width="1" height="1" fill="#bcfda3"/>
<rect x="22" y="15" width="1" height="1" fill="#3bc007" fill-opacity="0.969"/>
<rect x="23" y="15" width="1" height="1" fill="#3ec400" fill-opacity="0.067"/>
<rect x="0" y="16" width="1" height="1" fill="#3ec400" fill-opacity="0.067"/>
<rect x="1" y="16" width="1" height="1" fill="#3ac005" fill-opacity="0.969"/>
<rect x="2" y="16" width="1" height="1" fill="#dffcc8"/>
<rect x="3" y="16" width="1" height="1" fill="#d3feb7"/>
<rect x="4" y="16" width="1" height="1" fill="#c1fea2"/>
<rect x="5" y="16" width="1" height="1" fill="#b3fe8e"/>
<rect x="6" y="16" width="1" height="1" fill="#94fb64"/>
<rect x="7" y="16" width="1" height="1" fill="#38a902"/>
<rect x="8" y="16" width="1" height="1" fill="#f8a500"/>
<rect x="9" y="16" width="1" height="1" fill="#f8a500"/>
<rect x="10" y="16" width="1" height="1" fill="#33a900"/>
<rect x="11" y="16" width="1" height="1" fill="#47ea00"/>
<rect x="12" y="16" width="1" height="1" fill="#34b900"/>
<rect x="13" y="16" width="1" height="1" fill="#57fd02"/>
<rect x="14" y="16" width="1" height="1" fill="#57fd00"/>
<rect x="15" y="16" width="1" height="1" fill="#f7b002"/>
<rect x="16" y="16" width="1" height="1" fill="#f79905"/>
<rect x="17" y="16" width="1" height="1" fill="#51fb00"/>
<rect x="18" y="16" width="1" height="1" fill="#54fc00"/>
<rect x="19" y="16" width="1" height="1" fill="#38b505"/>
<rect x="20" y="16" width="1" height="1" fill="#bffea8"/>
<rect x="21" y="16" width="1" height="1" fill="#f7fff4"/>
<rect x="22" y="16" width="1" height="1" fill="#cbfdbc"/>
<rect x="23" y="16" width="1" height="1" fill="#3bc008" fill-opacity="0.969"/>
<rect x="24" y="16" width="1" height="1" fill="#3ec400" fill-opacity="0.067"/>
<rect x="0" y="17" width="1" height="1" fill="#37bf00" fill-opacity="0.969"/>
<rect x="1" y="17" width="1" height="1" fill="#38c002"/>
<rect x="2" y="17" width="1" height="1" fill="#3ac005"/>
<rect x="3" y="17" width="1" height="1" fill="#3ac005"/>
<rect x="4" y="17" width="1" height="1" fill="#3ac005"/>
<rect x="5" y="17" width="1" height="1" fill="#39c005"/>
<rect x="6" y="17" width="1" height="1" fill="#39c004"/>
<rect x="7" y="17" width="1" height="1" fill="#38bf02"/>
<rect x="8" y="17" width="1" height="1" fill="#33a802"/>
<rect x="9" y="17" width="1" height="1" fill="#33a802"/>
<rect x="10" y="17" width="1" height="1" fill="#2fa800"/>
<rect x="11" y="17" width="1" height="1" fill="#38c000"/>
<rect x="12" y="17" width="1" height="1" fill="#3bcb00"/>
<rect x="13" y="17" width="1" height="1" fill="#36bb00"/>
<rect x="14" y="17" width="1" height="1" fill="#51fd00"/>
<rect x="15" y="17" width="1" height="1" fill="#55fc00"/>
<rect x="16" y="17" width="1" height="1" fill="#55fc00"/>
<rect x="17" y="17" width="1" height="1" fill="#52fd00"/>
<rect x="18" y="17" width="1" height="1" fill="#36b004"/>
<rect x="19" y="17" width="1" height="1" fill="#a7fd87"/>
<rect x="20" y="17" width="1" height="1" fill="#c6ffae"/>
<rect x="21" y="17" width="1" height="1" fill="#e0ffd5"/>
<rect x="22" y="17" width="1" height="1" fill="#ebffe4"/>
<rect x="23" y="17" width="1" height="1" fill="#c4fdb2"/>
<rect x="24" y="17" width="1" height="1" fill="#3cc504" fill-opacity="0.969"/>
<rect x="25" y="17" width="1" height="1" fill="#3bc800" fill-opacity="0.035"/>
<rect x="0" y="18" width="1" height="1" fill="#34b702" fill-opacity="0.984"/>
<rect x="1" y="18" width="1" height="1" fill="#85fb4a"/>
<rect x="2" y="18" width="1" height="1" fill="#86fd4c"/>
<rect x="3" y="18" width="1" height="1" fill="#86fd4c"/>
<rect x="4" y="18" width="1" height="1" fill="#86fd4c"/>
<rect x="5" y="18" width="1" height="1" fill="#86fd4c"/>
<rect x="6" y="18" width="1" height="1" fill="#86fd4c"/>
<rect x="7" y="18" width="1" height="1" fill="#81fd47"/>
<rect x="8" y="18" width="1" height="1" fill="#77fc34"/>
<rect x="9" y="18" width="1" height="1" fill="#75fc32"/>
<rect x="10" y="18" width="1" height="1" fill="#6ffc28"/>
<rect x="11" y="18" width="1" height="1" fill="#5dfd0c"/>
<rect x="12" y="18" width="1" height="1" fill="#5dfd0c"/>
<rect x="13" y="18" width="1" height="1" fill="#5cfb0c"/>
<rect x="14" y="18" width="1" height="1" fill="#34b900" fill-opacity="0.984"/>
<rect x="15" y="18" width="1" height="1" fill="#33b700" fill-opacity="0.984"/>
<rect x="16" y="18" width="1" height="1" fill="#33b700" fill-opacity="0.984"/>
<rect x="17" y="18" width="1" height="1" fill="#36b902" fill-opacity="0.984"/>
<rect x="18" y="18" width="1" height="1" fill="#88fc50"/>
<rect x="19" y="18" width="1" height="1" fill="#a8fe83"/>
<rect x="20" y="18" width="1" height="1" fill="#45da05"/>
<rect x="21" y="18" width="1" height="1" fill="#43d805"/>
<rect x="22" y="18" width="1" height="1" fill="#48de07"/>
<rect x="23" y="18" width="1" height="1" fill="#a9fd8d"/>
<rect x="24" y="18" width="1" height="1" fill="#39c302" fill-opacity="0.984"/>
<rect x="25" y="18" width="1" height="1" fill="#3bc800" fill-opacity="0.035"/>
<rect x="0" y="19" width="1" height="1" fill="#33b600" fill-opacity="0.965"/>
<rect x="1" y="19" width="1" height="1" fill="#34b702" fill-opacity="0.984"/>
<rect x="2" y="19" width="1" height="1" fill="#34b702" fill-opacity="0.984"/>
<rect x="3" y="19" width="1" height="1" fill="#34b702" fill-opacity="0.984"/>
<rect x="4" y="19" width="1" height="1" fill="#34b702" fill-opacity="0.984"/>
<rect x="5" y="19" width="1" height="1" fill="#34b702" fill-opacity="0.984"/>
<rect x="6" y="19" width="1" height="1" fill="#34b702" fill-opacity="0.984"/>
<rect x="7" y="19" width="1" height="1" fill="#34b702" fill-opacity="0.984"/>
<rect x="8" y="19" width="1" height="1" fill="#34b702" fill-opacity="0.984"/>
<rect x="9" y="19" width="1" height="1" fill="#34b702" fill-opacity="0.984"/>
<rect x="10" y="19" width="1" height="1" fill="#34b700" fill-opacity="0.984"/>
<rect x="11" y="19" width="1" height="1" fill="#34b700" fill-opacity="0.984"/>
<rect x="12" y="19" width="1" height="1" fill="#34b700" fill-opacity="0.984"/>
<rect x="13" y="19" width="1" height="1" fill="#33b700" fill-opacity="0.969"/>
<rect x="14" y="19" width="1" height="1" fill="#3eb500" fill-opacity="0.067"/>
<rect x="15" y="19" width="1" height="1" fill="#3bac00" fill-opacity="0.035"/>
<rect x="16" y="19" width="1" height="1" fill="#3bac00" fill-opacity="0.035"/>
<rect x="17" y="19" width="1" height="1" fill="#3ed300" fill-opacity="0.067"/>
<rect x="18" y="19" width="1" height="1" fill="#41d902" fill-opacity="0.969"/>
<rect x="19" y="19" width="1" height="1" fill="#41da02" fill-opacity="0.984"/>
<rect x="20" y="19" width="1" height="1" fill="#47e700" fill-opacity="0.984"/>
<rect x="21" y="19" width="1" height="1" fill="#47ec00" fill-opacity="0.984"/>
<rect x="22" y="19" width="1" height="1" fill="#47ea00" fill-opacity="0.984"/>
<rect x="23" y="19" width="1" height="1" fill="#41d802" fill-opacity="0.984"/>
<rect x="24" y="19" width="1" height="1" fill="#38c200" fill-opacity="0.965"/>
<rect x="25" y="19" width="1" height="1" fill="#3bc800" fill-opacity="0.035"/>
<rect x="0" y="20" width="1" height="1" fill="#3bac00" fill-opacity="0.035"/>
<rect x="1" y="20" width="1" height="1" fill="#3bac00" fill-opacity="0.035"/>
<rect x="2" y="20" width="1" height="1" fill="#3bac00" fill-opacity="0.035"/>
<rect x="3" y="20" width="1" height="1" fill="#3bac00" fill-opacity="0.035"/>
<rect x="4" y="20" width="1" height="1" fill="#3bac00" fill-opacity="0.035"/>
<rect x="5" y="20" width="1" height="1" fill="#3bac00" fill-opacity="0.035"/>
<rect x="6" y="20" width="1" height="1" fill="#3bac00" fill-opacity="0.035"/>
<rect x="7" y="20" width="1" height="1" fill="#3bac00" fill-opacity="0.035"/>
<rect x="8" y="20" width="1" height="1" fill="#3bac00" fill-opacity="0.035"/>
<rect x="9" y="20" width="1" height="1" fill="#3bac00" fill-opacity="0.035"/>
<rect x="10" y="20" width="1" height="1" fill="#3bac00" fill-opacity="0.035"/>
<rect x="11" y="20" width="1" height="1" fill="#3bac00" fill-opacity="0.035"/>
<rect x="12" y="20" width="1" height="1" fill="#3bac00" fill-opacity="0.035"/>
<rect x="13" y="20" width="1" height="1" fill="#3bac00" fill-opacity="0.035"/>
<rect x="18" y="20" width="1" height="1" fill="#3bc800" fill-opacity="0.035"/>
<rect x="19" y="20" width="1" height="1" fill="#3be400" fill-opacity="0.035"/>
<rect x="20" y="20" width="1" height="1" fill="#3be400" fill-opacity="0.035"/>
<rect x="21" y="20" width="1" height="1" fill="#3be400" fill-opacity="0.035"/>
<rect x="22" y="20" width="1" height="1" fill="#3be400" fill-opacity="0.035"/>
<rect x="23" y="20" width="1" height="1" fill="#3be400" fill-opacity="0.035"/>
<rect x="24" y="20" width="1" height="1" fill="#3bc800" fill-opacity="0.035"/>
</svg>