<?xml version="1.0" encoding="UTF-8" standalone="no"?>
<svg xmlns="http://www.w3.org/2000/svg" width="26" height="21" shape-rendering="crispEdges">
<rect x="1" y="0" width="1" height="1" fill="#1eacff" fill-opacity="0.035"/>
<rect x="2" y="0" width="1" height="1" fill="#26b7ff" fill-opacity="0.027"/>
<rect x="3" y="0" width="1" height="1" fill="#1eacff" fill-opacity="0.035"/>
<rect x="4" y="0" width="1" height="1" fill="#1ab4ff" fill-opacity="0.945"/>
<rect x="5" y="0" width="1" height="1" fill="#1eacff" fill-opacity="0.035"/>
<rect x="6" y="0" width="1" height="1" fill="#26b7ff" fill-opacity="0.027"/>
<rect x="7" y="0" width="1" height="1" fill="#1eacff" fill-opacity="0.035"/>
<rect x="8" y="0" width="1" height="1" fill="#008b00" fill-opacity="0.008"/>
<rect x="14" y="0" width="1" height="1" fill="#1e90c8" fill-opacity="0.035"/>
<rect x="15" y="0" width="1" height="1" fill="#1e90c8" fill-opacity="0.035"/>
<rect x="16" y="0" width="1" height="1" fill="#207ac4" fill-opacity="0.067"/>
<rect x="17" y="0" width="1" height="1" fill="#1d74b3" fill-opacity="0.969"/>
<rect x="18" y="0" width="1" height="1" fill="#1d74b3" fill-opacity="0.984"/>
<rect x="19" y="0" width="1" height="1" fill="#1d73b3" fill-opacity="0.984"/>
<rect x="20" y="0" width="1" height="1" fill="#1a6fae" fill-opacity="0.984"/>
<rect x="21" y="0" width="1" height="1" fill="#1a72b2" fill-opacity="0.949"/>
<rect x="22" y="0" width="1" height="1" fill="#2183c0" fill-opacity="0.031"/>
<rect x="0" y="1" width="1" height="1" fill="#1eacff" fill-opacity="0.035"/>
<rect x="1" y="1" width="1" height="1" fill="#1ab5ff" fill-opacity="0.961"/>
<rect x="2" y="1" width="1" height="1" fill="#1ab2ff" fill-opacity="0.835"/>
<rect x="3" y="1" width="1" height="1" fill="#13acff" fill-opacity="0.059"/>
<rect x="4" y="1" width="1" height="1" fill="#1ab4ff" fill-opacity="0.878"/>
<rect x="5" y="1" width="1" height="1" fill="#13acff" fill-opacity="0.059"/>
<rect x="6" y="1" width="1" height="1" fill="#1ab2ff" fill-opacity="0.835"/>
<rect x="7" y="1" width="1" height="1" fill="#1ab5ff" fill-opacity="0.961"/>
<rect x="8" y="1" width="1" height="1" fill="#1eacff" fill-opacity="0.035"/>
<rect x="10" y="1" width="1" height="1" fill="#1e73c8" fill-opacity="0.035"/>
<rect x="11" y="1" width="1" height="1" fill="#1e90c8" fill-opacity="0.035"/>
<rect x="12" y="1" width="1" height="1" fill="#1e90c8" fill-opacity="0.035"/>
<rect x="13" y="1" width="1" height="1" fill="#2089e2" fill-opacity="0.067"/>
<rect x="14" y="1" width="1" height="1" fill="#1a8ddc" fill-opacity="0.969"/>
<rect x="15" y="1" width="1" height="1" fill="#1e87cf" fill-opacity="0.984"/>
<rect x="16" y="1" width="1" height="1" fill="#2087d1" fill-opacity="0.984"/>
<rect x="17" y="1" width="1" height="1" fill="#95d8fd"/>
<rect x="18" y="1" width="1" height="1" fill="#a2dcfe"/>
<rect x="19" y="1" width="1" height="1" fill="#82cefb"/>
<rect x="20" y="1" width="1" height="1" fill="#1d74b5" fill-opacity="0.984"/>
<rect x="21" y="1" width="1" height="1" fill="#1f78bc" fill-opacity="0.102"/>
<rect x="22" y="1" width="1" height="1" fill="#000000" fill-opacity="0.004"/>
<rect x="0" y="2" width="1" height="1" fill="#26b7ff" fill-opacity="0.027"/>
<rect x="1" y="2" width="1" height="1" fill="#1bb4ff" fill-opacity="0.835"/>
<rect x="2" y="2" width="1" height="1" fill="#26b7ff" fill-opacity="0.055"/>
<rect x="3" y="2" width="1" height="1" fill="#1eacff" fill-opacity="0.071"/>
<rect x="4" y="2" width="1" height="1" fill="#1bb5ff" fill-opacity="0.965"/>
<rect x="5" y="2" width="1" height="1" fill="#1eacff" fill-opacity="0.071"/>
<rect x="6" y="2" width="1" height="1" fill="#26b7ff" fill-opacity="0.055"/>
<rect x="7" y="2" width="1" height="1" fill="#1bb3ff" fill-opacity="0.839"/>
<rect x="8" y="2" width="1" height="1" fill="#26b7ff" fill-opacity="0.027"/>
<rect x="9" y="2" width="1" height="1" fill="#1e90c8" fill-opacity="0.035"/>
<rect x="10" y="2" width="1" height="1" fill="#1a85cf" fill-opacity="0.965"/>
<rect x="11" y="2" width="1" height="1" fill="#1f86cc" fill-opacity="0.984"/>
<rect x="12" y="2" width="1" height="1" fill="#1f86cc" fill-opacity="0.984"/>
<rect x="13" y="2" width="1" height="1" fill="#1a85cf" fill-opacity="0.984"/>
<rect x="14" y="2" width="1" height="1" fill="#2087d1"/>
<rect x="15" y="2" width="1" height="1" fill="#b5e4fd"/>
<rect x="16" y="2" width="1" height="1" fill="#d7f3fe"/>
<rect x="17" y="2" width="1" height="1" fill="#e0f5ff"/>
<rect x="18" y="2" width="1" height="1" fill="#bee9fe"/>
<rect x="19" y="2" width="1" height="1" fill="#2077b5"/>
<rect x="20" y="2" width="1" height="1" fill="#1f85cb"/>
<rect x="21" y="2" width="1" height="1" fill="#1a85cf" fill-opacity="0.969"/>
<rect x="22" y="2" width="1" height="1" fill="#1e90c8" fill-opacity="0.035"/>
<rect x="0" y="3" width="1" height="1" fill="#1eacff" fill-opacity="0.035"/>
<rect x="1" y="3" width="1" height="1" fill="#13b7ff" fill-opacity="0.055"/>
<rect x="2" y="3" width="1" height="1" fill="#1eacff" fill-opacity="0.071"/>
<rect x="3" y="3" width="1" height="1" fill="#1db7ff" fill-opacity="0.969"/>
<rect x="4" y="3" width="1" height="1" fill="#51caff"/>
<rect x="5" y="3" width="1" height="1" fill="#1db7ff" fill-opacity="0.969"/>
<rect x="6" y="3" width="1" height="1" fill="#1eacff" fill-opacity="0.071"/>
<rect x="7" y="3" width="1" height="1" fill="#13b7ff" fill-opacity="0.055"/>
<rect x="8" y="3" width="1" height="1" fill="#1eacff" fill-opacity="0.035"/>
<rect x="9" y="3" width="1" height="1" fill="#1e83b9" fill-opacity="0.071"/>
<rect x="10" y="3" width="1" height="1" fill="#1e86cc" fill-opacity="0.984"/>
<rect x="11" y="3" width="1" height="1" fill="#f4ce13"/>
<rect x="12" y="3" width="1" height="1" fill="#f4b00e"/>
<rect x="13" y="3" width="1" height="1" fill="#2187cd"/>
<rect x="14" y="3" width="1" height="1" fill="#b9e5fd"/>
<rect x="15" y="3" width="1" height="1" fill="#f8feff"/>
<rect x="16" y="3" width="1" height="1" fill="#feffff"/>
<rect x="17" y="3" width="1" height="1" fill="#e0f6ff"/>
<rect x="18" y="3" width="1" height="1" fill="#b2e3fe"/>
<rect x="19" y="3" width="1" height="1" fill="#2278b3"/>
<rect x="20" y="3" width="1" height="1" fill="#f0cc14"/>
<rect x="21" y="3" width="1" height="1" fill="#1e86cc" fill-opacity="0.984"/>
<rect x="22" y="3" width="1" height="1" fill="#1e90c8" fill-opacity="0.035"/>
<rect x="0" y="4" width="1" height="1" fill="#1ab5ff" fill-opacity="0.949"/>
<rect x="1" y="4" width="1" height="1" fill="#1ab3ff" fill-opacity="0.878"/>
<rect x="2" y="4" width="1" height="1" fill="#1bb5ff" fill-opacity="0.965"/>
<rect x="3" y="4" width="1" height="1" fill="#52c9ff"/>
<rect x="4" y="4" width="1" height="1" fill="#9be3ff"/>
<rect x="5" y="4" width="1" height="1" fill="#52c9ff"/>
<rect x="6" y="4" width="1" height="1" fill="#1bb5ff" fill-opacity="0.965"/>
<rect x="7" y="4" width="1" height="1" fill="#1ab3ff" fill-opacity="0.878"/>
<rect x="8" y="4" width="1" height="1" fill="#1ab4fe" fill-opacity="0.965"/>
<rect x="9" y="4" width="1" height="1" fill="#1a79bb" fill-opacity="0.984"/>
<rect x="10" y="4" width="1" height="1" fill="#1e76b7"/>
<rect x="11" y="4" width="1" height="1" fill="#1f85cb"/>
<rect x="12" y="4" width="1" height="1" fill="#1f86cc"/>
<rect x="13" y="4" width="1" height="1" fill="#1e87d0"/>
<rect x="14" y="4" width="1" height="1" fill="#cef0fe"/>
<rect x="15" y="4" width="1" height="1" fill="#feffff"/>
<rect x="16" y="4" width="1" height="1" fill="#ffffff"/>
<rect x="17" y="4" width="1" height="1" fill="#feffff"/>
<rect x="18" y="4" width="1" height="1" fill="#e7fbff"/>
<rect x="19" y="4" width="1" height="1" fill="#99d9fc"/>
<rect x="20" y="4" width="1" height="1" fill="#2274ad"/>
<rect x="21" y="4" width="1" height="1" fill="#1a85ce" fill-opacity="0.984"/>
<rect x="22" y="4" width="1" height="1" fill="#1e90c8" fill-opacity="0.035"/>
<rect x="25" y="4" width="1" height="1" fill="#5c7eff" fill-opacity="0.031"/>
<rect x="0" y="5" width="1" height="1" fill="#1eacff" fill-opacity="0.035"/>
<rect x="1" y="5" width="1" height="1" fill="#13b7ff" fill-opacity="0.055"/>
<rect x="2" y="5" width="1" height="1" fill="#1eacff" fill-opacity="0.071"/>
<rect x="3" y="5" width="1" height="1" fill="#1db7ff" fill-opacity="0.969"/>
<rect x="4" y="5" width="1" height="1" fill="#51caff"/>
<rect x="5" y="5" width="1" height="1" fill="#1db7ff" fill-opacity="0.969"/>
<rect x="6" y="5" width="1" height="1" fill="#1eacff" fill-opacity="0.071"/>
<rect x="7" y="5" width="1" height="1" fill="#13acff" fill-opacity="0.059"/>
<rect x="8" y="5" width="1" height="1" fill="#1e90d6" fill-opacity="0.071"/>
<rect x="9" y="5" width="1" height="1" fill="#1e75b6" fill-opacity="0.984"/>
<rect x="10" y="5" width="1" height="1" fill="#d5f4fb"/>
<rect x="11" y="5" width="1" height="1" fill="#2174b2"/>
<rect x="12" y="5" width="1" height="1" fill="#1aa1f7"/>
<rect x="13" y="5" width="1" height="1" fill="#1f88d1"/>
<rect x="14" y="5" width="1" height="1" fill="#cff0fe"/>
<rect x="15" y="5" width="1" height="1" fill="#feffff"/>
<rect x="16" y="5" width="1" height="1" fill="#ffffff"/>
<rect x="17" y="5" width="1" height="1" fill="#ffffff"/>
<rect x="18" y="5" width="1" height="1" fill="#feffff"/>
<rect x="19" y="5" width="1" height="1" fill="#caefff"/>
<rect x="20" y="5" width="1" height="1" fill="#94d8fc"/>
<rect x="21" y="5" width="1" height="1" fill="#1d78b6" fill-opacity="0.984"/>
<rect x="22" y="5" width="1" height="1" fill="#1e73ac" fill-opacity="0.035"/>
<rect x="0" y="6" width="1" height="1" fill="#26b7ff" fill-opacity="0.027"/>
<rect x="1" y="6" width="1" height="1" fill="#1bb4ff" fill-opacity="0.835"/>
<rect x="2" y="6" width="1" height="1" fill="#26b7ff" fill-opacity="0.055"/>
<rect x="3" y="6" width="1" height="1" fill="#1eacff" fill-opacity="0.071"/>
<rect x="4" y="6" width="1" height="1" fill="#1bb5ff" fill-opacity="0.965"/>
<rect x="5" y="6" width="1" height="1" fill="#1eacff" fill-opacity="0.071"/>
<rect x="6" y="6" width="1" height="1" fill="#24acff" fill-opacity="0.059"/>
<rect x="7" y="6" width="1" height="1" fill="#1ab3ff" fill-opacity="0.867"/>
<rect x="8" y="6" width="1" height="1" fill="#2089d3" fill-opacity="0.067"/>
<rect x="9" y="6" width="1" height="1" fill="#1e75b6" fill-opacity="0.984"/>
<rect x="10" y="6" width="1" height="1" fill="#e1f9fe"/>
<rect x="11" y="6" width="1" height="1" fill="#e1f9fd"/>
<rect x="12" y="6" width="1" height="1" fill="#228ad2"/>
<rect x="13" y="6" width="1" height="1" fill="#71d1fe"/>
<rect x="14" y="6" width="1" height="1" fill="#dcf8ff"/>
<rect x="15" y="6" width="1" height="1" fill="#ffffff"/>
<rect x="16" y="6" width="1" height="1" fill="#ffffff"/>
<rect x="17" y="6" width="1" height="1" fill="#ffffff"/>
<rect x="18" y="6" width="1" height="1" fill="#feffff"/>
<rect x="19" y="6" width="1" height="1" fill="#cdf1ff"/>
<rect x="20" y="6" width="1" height="1" fill="#98d6fe"/>
<rect x="21" y="6" width="1" height="1" fill="#1d78b6" fill-opacity="0.984"/>
<rect x="22" y="6" width="1" height="1" fill="#1e73ac" fill-opacity="0.071"/>
<rect x="23" y="6" width="1" height="1" fill="#1e73ac" fill-opacity="0.035"/>
<rect x="24" y="6" width="1" height="1" fill="#1e73ac" fill-opacity="0.035"/>
<rect x="0" y="7" width="1" height="1" fill="#1eacff" fill-opacity="0.035"/>
<rect x="1" y="7" width="1" height="1" fill="#1ab5ff" fill-opacity="0.961"/>
<rect x="2" y="7" width="1" height="1" fill="#1ab2ff" fill-opacity="0.835"/>
<rect x="3" y="7" width="1" height="1" fill="#13acff" fill-opacity="0.059"/>
<rect x="4" y="7" width="1" height="1" fill="#1ab4ff" fill-opacity="0.878"/>
<rect x="5" y="7" width="1" height="1" fill="#13acff" fill-opacity="0.059"/>
<rect x="6" y="7" width="1" height="1" fill="#1ab2ff" fill-opacity="0.839"/>
<rect x="7" y="7" width="1" height="1" fill="#1ab3ff" fill-opacity="0.961"/>
<rect x="8" y="7" width="1" height="1" fill="#1e90d6" fill-opacity="0.071"/>
<rect x="9" y="7" width="1" height="1" fill="#1f75b6" fill-opacity="0.984"/>
<rect x="10" y="7" width="1" height="1" fill="#e9fcfe"/>
<rect x="11" y="7" width="1" height="1" fill="#faffff"/>
<rect x="12" y="7" width="1" height="1" fill="#e1fafe"/>
<rect x="13" y="7" width="1" height="1" fill="#cdf4ff"/>
<rect x="14" y="7" width="1" height="1" fill="#f9ffff"/>
<rect x="15" y="7" width="1" height="1" fill="#ffffff"/>
<rect x="16" y="7" width="1" height="1" fill="#ffffff"/>
<rect x="17" y="7" width="1" height="1" fill="#ffffff"/>
<rect x="18" y="7" width="1" height="1" fill="#fdffff"/>
<rect x="19" y="7" width="1" height="1" fill="#caedff"/>
<rect x="20" y="7" width="1" height="1" fill="#84cffe"/>
<rect x="21" y="7" width="1" height="1" fill="#1e85c8"/>
<rect x="22" y="7" width="1" height="1" fill="#1d75b5" fill-opacity="0.984"/>
<rect x="23" y="7" width="1" height="1" fill="#1b73b3" fill-opacity="0.984"/>
<rect x="24" y="7" width="1" height="1" fill="#1a72b0" fill-opacity="0.965"/>
<rect x="25" y="7" width="1" height="1" fill="#1e73ac" fill-opacity="0.035"/>
<rect x="1" y="8" width="1" height="1" fill="#1eacff" fill-opacity="0.035"/>
<rect x="2" y="8" width="1" height="1" fill="#26b7ff" fill-opacity="0.027"/>
<rect x="3" y="8" width="1" height="1" fill="#1eacff" fill-opacity="0.035"/>
<rect x="4" y="8" width="1" height="1" fill="#1ab5ff" fill-opacity="0.945"/>
<rect x="5" y="8" width="1" height="1" fill="#1eacff" fill-opacity="0.035"/>
<rect x="6" y="8" width="1" height="1" fill="#26b7ff" fill-opacity="0.027"/>
<rect x="7" y="8" width="1" height="1" fill="#1eacff" fill-opacity="0.035"/>
<rect x="8" y="8" width="1" height="1" fill="#1e73ac" fill-opacity="0.035"/>
<rect x="9" y="8" width="1" height="1" fill="#1f75b6" fill-opacity="0.984"/>
<rect x="10" y="8" width="1" height="1" fill="#ebfdfe"/>
<rect x="11" y="8" width="1" height="1" fill="#feffff"/>
<rect x="12" y="8" width="1" height="1" fill="#ffffff"/>
<rect x="13" y="8" width="1" height="1" fill="#fdffff"/>
<rect x="14" y="8" width="1" height="1" fill="#ffffff"/>
<rect x="15" y="8" width="1" height="1" fill="#ffffff"/>
<rect x="16" y="8" width="1" height="1" fill="#ffffff"/>
<rect x="17" y="8" width="1" height="1" fill="#fcffff"/>
<rect x="18" y="8" width="1" height="1" fill="#e2f8ff"/>
<rect x="19" y="8" width="1" height="1" fill="#9edcff"/>
<rect x="20" y="8" width="1" height="1" fill="#2497da"/>
<rect x="21" y="8" width="1" height="1" fill="#84d2fe"/>
<rect x="22" y="8" width="1" height="1" fill="#94d9fe"/>
<rect x="23" y="8" width="1" height="1" fill="#5cc1fc"/>
<rect x="24" y="8" width="1" height="1" fill="#1b77b8" fill-opacity="0.969"/>
<rect x="25" y="8" width="1" height="1" fill="#1e73ac" fill-opacity="0.035"/>
<rect x="4" y="9" width="1" height="1" fill="#21c0ff" fill-opacity="0.031"/>
<rect x="8" y="9" width="1" height="1" fill="#1e73ac" fill-opacity="0.035"/>
<rect x="9" y="9" width="1" height="1" fill="#1e7abb" fill-opacity="0.984"/>
<rect x="10" y="9" width="1" height="1" fill="#d0f3fe"/>
<rect x="11" y="9" width="1" height="1" fill="#ecffff"/>
<rect x="12" y="9" width="1" height="1" fill="#feffff"/>
<rect x="13" y="9" width="1" height="1" fill="#ffffff"/>
<rect x="14" y="9" width="1" height="1" fill="#ffffff"/>
<rect x="15" y="9" width="1" height="1" fill="#ffffff"/>
<rect x="16" y="9" width="1" height="1" fill="#f3ffff"/>
<rect x="17" y="9" width="1" height="1" fill="#bfe9ff"/>
<rect x="18" y="9" width="1" height="1" fill="#89d3ff"/>
<rect x="19" y="9" width="1" height="1" fill="#46b3f9"/>
<rect x="20" y="9" width="1" height="1" fill="#94d9ff"/>
<rect x="21" y="9" width="1" height="1" fill="#b1e0ff"/>
<rect x="22" y="9" width="1" height="1" fill="#6ecafe"/>
<rect x="23" y="9" width="1" height="1" fill="#1d99e4" fill-opacity="0.969"/>
<rect x="24" y="9" width="1" height="1" fill="#2089d3" fill-opacity="0.067"/>
<rect x="0" y="10" width="1" height="1" fill="#080808" fill-opacity="0.012"/>
<rect x="4" y="10" width="1" height="1" fill="#1e90c8" fill-opacity="0.035"/>
<rect x="5" y="10" width="1" height="1" fill="#1e90e4" fill-opacity="0.035"/>
<rect x="6" y="10" width="1" height="1" fill="#1e90c8" fill-opacity="0.035"/>
<rect x="7" y="10" width="1" height="1" fill="#0000ff" fill-opacity="0.004"/>
<rect x="8" y="10" width="1" height="1" fill="#207ac4" fill-opacity="0.067"/>
<rect x="9" y="10" width="1" height="1" fill="#1d7bbc" fill-opacity="0.984"/>
<rect x="10" y="10" width="1" height="1" fill="#aee4fd"/>
<rect x="11" y="10" width="1" height="1" fill="#ccf0ff"/>
<rect x="12" y="10" width="1" height="1" fill="#edfeff"/>
<rect x="13" y="10" width="1" height="1" fill="#f5ffff"/>
<rect x="14" y="10" width="1" height="1" fill="#e4f8fe"/>
<rect x="15" y="10" width="1" height="1" fill="#e2f8fe"/>
<rect x="16" y="10" width="1" height="1" fill="#dff7fe"/>
<rect x="17" y="10" width="1" height="1" fill="#d7f1fe"/>
<rect x="18" y="10" width="1" height="1" fill="#e1f8ff"/>
<rect x="19" y="10" width="1" height="1" fill="#d8f3ff"/>
<rect x="20" y="10" width="1" height="1" fill="#d5f1ff"/>
<rect x="21" y="10" width="1" height="1" fill="#b9e7ff"/>
<rect x="22" y="10" width="1" height="1" fill="#1f95e1" fill-opacity="0.984"/>
<rect x="23" y="10" width="1" height="1" fill="#2098e2" fill-opacity="0.067"/>
<rect x="0" y="11" width="1" height="1" fill="#0893ff" fill-opacity="0.012"/>
<rect x="1" y="11" width="1" height="1" fill="#21b5ff" fill-opacity="0.043"/>
<rect x="3" y="11" width="1" height="1" fill="#1e90e4" fill-opacity="0.035"/>
<rect x="4" y="11" width="1" height="1" fill="#1a91de" fill-opacity="0.965"/>
<rect x="5" y="11" width="1" height="1" fill="#1f92db" fill-opacity="0.984"/>
<rect x="6" y="11" width="1" height="1" fill="#1f93da" fill-opacity="0.969"/>
<rect x="7" y="11" width="1" height="1" fill="#1f8bcf" fill-opacity="0.102"/>
<rect x="8" y="11" width="1" height="1" fill="#1a84ca" fill-opacity="0.969"/>
<rect x="9" y="11" width="1" height="1" fill="#1aaafc"/>
<rect x="10" y="11" width="1" height="1" fill="#1f7dbe"/>
<rect x="11" y="11" width="1" height="1" fill="#92dcfd"/>
<rect x="12" y="11" width="1" height="1" fill="#ade7ff"/>
<rect x="13" y="11" width="1" height="1" fill="#b0e3fd"/>
<rect x="14" y="11" width="1" height="1" fill="#2287ca"/>
<rect x="15" y="11" width="1" height="1" fill="#1f84ca"/>
<rect x="16" y="11" width="1" height="1" fill="#1f86c9"/>
<rect x="17" y="11" width="1" height="1" fill="#2187ca"/>
<rect x="18" y="11" width="1" height="1" fill="#b4e4fd"/>
<rect x="19" y="11" width="1" height="1" fill="#eafcff"/>
<rect x="20" y="11" width="1" height="1" fill="#e6faff"/>
<rect x="21" y="11" width="1" height="1" fill="#b8e7ff"/>
<rect x="22" y="11" width="1" height="1" fill="#1e8fdb" fill-opacity="0.984"/>
<rect x="23" y="11" width="1" height="1" fill="#1e90e4" fill-opacity="0.035"/>
<rect x="3" y="12" width="1" height="1" fill="#1e90e4" fill-opacity="0.035"/>
<rect x="4" y="12" width="1" height="1" fill="#1f92db" fill-opacity="0.984"/>
<rect x="5" y="12" width="1" height="1" fill="#f7ef0f"/>
<rect x="6" y="12" width="1" height="1" fill="#f7ef0f"/>
<rect x="7" y="12" width="1" height="1" fill="#2186c2" fill-opacity="0.984"/>
<rect x="8" y="12" width="1" height="1" fill="#1aa6fc"/>
<rect x="9" y="12" width="1" height="1" fill="#1aafff"/>
<rect x="10" y="12" width="1" height="1" fill="#1a9be9"/>
<rect x="11" y="12" width="1" height="1" fill="#1d76b9"/>
<rect x="12" y="12" width="1" height="1" fill="#1d8fdc"/>
<rect x="13" y="12" width="1" height="1" fill="#2187cb"/>
<rect x="14" y="12" width="1" height="1" fill="#ade7fd"/>
<rect x="15" y="12" width="1" height="1" fill="#4fc6fa"/>
<rect x="16" y="12" width="1" height="1" fill="#4cc5fa"/>
<rect x="17" y="12" width="1" height="1" fill="#1bb5fd"/>
<rect x="18" y="12" width="1" height="1" fill="#2082c5"/>
<rect x="19" y="12" width="1" height="1" fill="#aae3fd"/>
<rect x="20" y="12" width="1" height="1" fill="#c3eaff"/>
<rect x="21" y="12" width="1" height="1" fill="#a1dcff"/>
<rect x="22" y="12" width="1" height="1" fill="#1d8ed8" fill-opacity="0.984"/>
<rect x="23" y="12" width="1" height="1" fill="#1e90e4" fill-opacity="0.035"/>
<rect x="3" y="13" width="1" height="1" fill="#2089e2" fill-opacity="0.067"/>
<rect x="4" y="13" width="1" height="1" fill="#2194dc" fill-opacity="0.984"/>
<rect x="5" y="13" width="1" height="1" fill="#f8ef0f"/>
<rect x="6" y="13" width="1" height="1" fill="#fff108"/>
<rect x="7" y="13" width="1" height="1" fill="#f8d10e"/>
<rect x="8" y="13" width="1" height="1" fill="#217bb5"/>
<rect x="9" y="13" width="1" height="1" fill="#1aadfd"/>
<rect x="10" y="13" width="1" height="1" fill="#1aafff"/>
<rect x="11" y="13" width="1" height="1" fill="#1aa2f8"/>
<rect x="12" y="13" width="1" height="1" fill="#1d83ca"/>
<rect x="13" y="13" width="1" height="1" fill="#ade9fd"/>
<rect x="14" y="13" width="1" height="1" fill="#46c4f7"/>
<rect x="15" y="13" width="1" height="1" fill="#f5d114"/>
<rect x="16" y="13" width="1" height="1" fill="#f5d114"/>
<rect x="17" y="13" width="1" height="1" fill="#2cbdf7"/>
<rect x="18" y="13" width="1" height="1" fill="#1ab4fd"/>
<rect x="19" y="13" width="1" height="1" fill="#1f85ca"/>
<rect x="20" y="13" width="1" height="1" fill="#94d9fe"/>
<rect x="21" y="13" width="1" height="1" fill="#7fcefe"/>
<rect x="22" y="13" width="1" height="1" fill="#1d8ed8" fill-opacity="0.969"/>
<rect x="23" y="13" width="1" height="1" fill="#1e90e4" fill-opacity="0.035"/>
<rect x="2" y="14" width="1" height="1" fill="#207ac4" fill-opacity="0.067"/>
<rect x="3" y="14" width="1" height="1" fill="#2285ca" fill-opacity="0.969"/>
<rect x="4" y="14" width="1" height="1" fill="#f4f9fd"/>
<rect x="5" y="14" width="1" height="1" fill="#298ac8"/>
<rect x="6" y="14" width="1" height="1" fill="#f8d00e"/>
<rect x="7" y="14" width="1" height="1" fill="#ffd108"/>
<rect x="8" y="14" width="1" height="1" fill="#f8cf0e"/>
<rect x="9" y="14" width="1" height="1" fill="#217ab5"/>
<rect x="10" y="14" width="1" height="1" fill="#1aa2f8"/>
<rect x="11" y="14" width="1" height="1" fill="#1aa3f9"/>
<rect x="12" y="14" width="1" height="1" fill="#1b83ca"/>
<rect x="13" y="14" width="1" height="1" fill="#61cefa"/>
<rect x="14" y="14" width="1" height="1" fill="#f6ce15"/>
<rect x="15" y="14" width="1" height="1" fill="#2cbcf7"/>
<rect x="16" y="14" width="1" height="1" fill="#2dbdf7"/>
<rect x="17" y="14" width="1" height="1" fill="#f4a80f"/>
<rect x="18" y="14" width="1" height="1" fill="#1fb5fa"/>
<rect x="19" y="14" width="1" height="1" fill="#1b83ca"/>
<rect x="20" y="14" width="1" height="1" fill="#56c1fd"/>
<rect x="21" y="14" width="1" height="1" fill="#2088d1" fill-opacity="0.984"/>
<rect x="22" y="14" width="1" height="1" fill="#1f8bcf" fill-opacity="0.102"/>
<rect x="23" y="14" width="1" height="1" fill="#0000ff" fill-opacity="0.004"/>
<rect x="1" y="15" width="1" height="1" fill="#2089d3" fill-opacity="0.067"/>
<rect x="2" y="15" width="1" height="1" fill="#2187c9" fill-opacity="0.969"/>
<rect x="3" y="15" width="1" height="1" fill="#f6fbfd"/>
<rect x="4" y="15" width="1" height="1" fill="#d3feff"/>
<rect x="5" y="15" width="1" height="1" fill="#b1ecfd"/>
<rect x="6" y="15" width="1" height="1" fill="#277cb5"/>
<rect x="7" y="15" width="1" height="1" fill="#f8c00e"/>
<rect x="8" y="15" width="1" height="1" fill="#ffc208"/>
<rect x="9" y="15" width="1" height="1" fill="#f7c00e"/>
<rect x="10" y="15" width="1" height="1" fill="#1f7bb9"/>
<rect x="11" y="15" width="1" height="1" fill="#1aa2f8"/>
<rect x="12" y="15" width="1" height="1" fill="#1b83ca"/>
<rect x="13" y="15" width="1" height="1" fill="#4cc8fa"/>
<rect x="14" y="15" width="1" height="1" fill="#f5cd15"/>
<rect x="15" y="15" width="1" height="1" fill="#2dbdf7"/>
<rect x="16" y="15" width="1" height="1" fill="#2ab7f7"/>
<rect x="17" y="15" width="1" height="1" fill="#f48e14"/>
<rect x="18" y="15" width="1" height="1" fill="#1fb5fa"/>
<rect x="19" y="15" width="1" height="1" fill="#1d83ca"/>
<rect x="20" y="15" width="1" height="1" fill="#a5e0fe"/>
<rect x="21" y="15" width="1" height="1" fill="#b5e6fd"/>
<rect x="22" y="15" width="1" height="1" fill="#2187d0" fill-opacity="0.969"/>
<rect x="23" y="15" width="1" height="1" fill="#2089d3" fill-opacity="0.067"/>
<rect x="0" y="16" width="1" height="1" fill="#2089d3" fill-opacity="0.067"/>
<rect x="1" y="16" width="1" height="1" fill="#1e88d0" fill-opacity="0.969"/>
<rect x="2" y="16" width="1" height="1" fill="#d8f9fc"/>
<rect x="3" y="16" width="1" height="1" fill="#caf8fe"/>
<rect x="4" y="16" width="1" height="1" fill="#b4eefe"/>
<rect x="5" y="16" width="1" height="1" fill="#a1e5fe"/>
<rect x="6" y="16" width="1" height="1" fill="#78d3fc"/>
<rect x="7" y="16" width="1" height="1" fill="#247cb5"/>
<rect x="8" y="16" width="1" height="1" fill="#f7a407"/>
<rect x="9" y="16" width="1" height="1" fill="#f7a407"/>
<rect x="10" y="16" width="1" height="1" fill="#1f7ab8"/>
<rect x="11" y="16" width="1" height="1" fill="#1aa1f8"/>
<rect x="12" y="16" width="1" height="1" fill="#1a82ca"/>
<rect x="13" y="16" width="1" height="1" fill="#1bb7fd"/>
<rect x="14" y="16" width="1" height="1" fill="#21b4f7"/>
<rect x="15" y="16" width="1" height="1" fill="#f4ac0f"/>
<rect x="16" y="16" width="1" height="1" fill="#f49513"/>
<rect x="17" y="16" width="1" height="1" fill="#21acf7"/>
<rect x="18" y="16" width="1" height="1" fill="#1ab4fd"/>
<rect x="19" y="16" width="1" height="1" fill="#2082c5"/>
<rect x="20" y="16" width="1" height="1" fill="#bce9fe"/>
<rect x="21" y="16" width="1" height="1" fill="#fcfeff"/>
<rect x="22" y="16" width="1" height="1" fill="#cceefd"/>
<rect x="23" y="16" width="1" height="1" fill="#2187d0" fill-opacity="0.969"/>
<rect x="24" y="16" width="1" height="1" fill="#2089d3" fill-opacity="0.067"/>
<rect x="0" y="17" width="1" height="1" fill="#1a85cf" fill-opacity="0.969"/>
<rect x="1" y="17" width="1" height="1" fill="#1b86cf"/>
<rect x="2" y="17" width="1" height="1" fill="#1f87d0"/>
<rect x="3" y="17" width="1" height="1" fill="#1f87d0"/>
<rect x="4" y="17" width="1" height="1" fill="#1f87d0"/>
<rect x="5" y="17" width="1" height="1" fill="#1e87d0"/>
<rect x="6" y="17" width="1" height="1" fill="#1e87d0"/>
<rect x="7" y="17" width="1" height="1" fill="#1b86cf"/>
<rect x="8" y="17" width="1" height="1" fill="#2078b7"/>
<rect x="9" y="17" width="1" height="1" fill="#1f78b6"/>
<rect x="10" y="17" width="1" height="1" fill="#1b77b9"/>
<rect x="11" y="17" width="1" height="1" fill="#1a86d0"/>
<rect x="12" y="17" width="1" height="1" fill="#1a8edc"/>
<rect x="13" y="17" width="1" height="1" fill="#1a84ca"/>
<rect x="14" y="17" width="1" height="1" fill="#1ab2fd"/>
<rect x="15" y="17" width="1" height="1" fill="#1fb4fa"/>
<rect x="16" y="17" width="1" height="1" fill="#1fb4fa"/>
<rect x="17" y="17" width="1" height="1" fill="#1ab3fd"/>
<rect x="18" y="17" width="1" height="1" fill="#1e7fc0"/>
<rect x="19" y="17" width="1" height="1" fill="#9bdcfd"/>
<rect x="20" y="17" width="1" height="1" fill="#c0efff"/>
<rect x="21" y="17" width="1" height="1" fill="#e4fbff"/>
<rect x="22" y="17" width="1" height="1" fill="#f4fdff"/>
<rect x="23" y="17" width="1" height="1" fill="#c3ecfe"/>
<rect x="24" y="17" width="1" height="1" fill="#1e8cd6" fill-opacity="0.969"/>
<rect x="25" y="17" width="1" height="1" fill="#3870d5" fill-opacity="0.071"/>
<rect x="0" y="18" width="1" height="1" fill="#1b82c9" fill-opacity="0.984"/>
<rect x="1" y="18" width="1" height="1" fill="#5fccfc"/>
<rect x="2" y="18" width="1" height="1" fill="#61cdfd"/>
<rect x="3" y="18" width="1" height="1" fill="#61cdfd"/>
<rect x="4" y="18" width="1" height="1" fill="#61cdfd"/>
<rect x="5" y="18" width="1" height="1" fill="#61cdfd"/>
<rect x="6" y="18" width="1" height="1" fill="#61cdfd"/>
<rect x="7" y="18" width="1" height="1" fill="#5ccafd"/>
<rect x="8" y="18" width="1" height="1" fill="#4cc6fd"/>
<rect x="9" y="18" width="1" height="1" fill="#4bc4fd"/>
<rect x="10" y="18" width="1" height="1" fill="#40c2fd"/>
<rect x="11" y="18" width="1" height="1" fill="#26bbfd"/>
<rect x="12" y="18" width="1" height="1" fill="#26bbfe"/>
<rect x="13" y="18" width="1" height="1" fill="#26b9fc"/>
<rect x="14" y="18" width="1" height="1" fill="#1a83ca" fill-opacity="0.984"/>
<rect x="15" y="18" width="1" height="1" fill="#1a82c9" fill-opacity="0.984"/>
<rect x="16" y="18" width="1" height="1" fill="#1a82c9" fill-opacity="0.984"/>
<rect x="17" y="18" width="1" height="1" fill="#1b83ca" fill-opacity="0.984"/>
<rect x="18" y="18" width="1" height="1" fill="#66d0fd"/>
<rect x="19" y="18" width="1" height="1" fill="#95defe"/>
<rect x="20" y="18" width="1" height="1" fill="#209aea"/>
<rect x="21" y="18" width="1" height="1" fill="#1e98e7"/>
<rect x="22" y="18" width="1" height="1" fill="#219cec"/>
<rect x="23" y="18" width="1" height="1" fill="#a0dcfe"/>
<rect x="24" y="18" width="1" height="1" fill="#1d89d3" fill-opacity="0.984"/>
<rect x="25" y="18" width="1" height="1" fill="#3870c6" fill-opacity="0.071"/>
<rect x="0" y="19" width="1" height="1" fill="#1a81c8" fill-opacity="0.965"/>
<rect x="1" y="19" width="1" height="1" fill="#1b82c9" fill-opacity="0.984"/>
<rect x="2" y="19" width="1" height="1" fill="#1b82c9" fill-opacity="0.984"/>
<rect x="3" y="19" width="1" height="1" fill="#1b82c9" fill-opacity="0.984"/>
<rect x="4" y="19" width="1" height="1" fill="#1b82c9" fill-opacity="0.984"/>
<rect x="5" y="19" width="1" height="1" fill="#1b82c9" fill-opacity="0.984"/>
<rect x="6" y="19" width="1" height="1" fill="#1b82c9" fill-opacity="0.984"/>
<rect x="7" y="19" width="1" height="1" fill="#1b82c9" fill-opacity="0.984"/>
<rect x="8" y="19" width="1" height="1" fill="#1b82c9" fill-opacity="0.984"/>
<rect x="9" y="19" width="1" height="1" fill="#1b82c9" fill-opacity="0.984"/>
<rect x="10" y="19" width="1" height="1" fill="#1a82c9" fill-opacity="0.984"/>
<rect x="11" y="19" width="1" height="1" fill="#1a82c9" fill-opacity="0.984"/>
<rect x="12" y="19" width="1" height="1" fill="#1a82c9" fill-opacity="0.984"/>
<rect x="13" y="19" width="1" height="1" fill="#1a82c8" fill-opacity="0.969"/>
<rect x="14" y="19" width="1" height="1" fill="#207ad3" fill-opacity="0.067"/>
<rect x="15" y="19" width="1" height="1" fill="#1e73c8" fill-opacity="0.035"/>
<rect x="16" y="19" width="1" height="1" fill="#1e73c8" fill-opacity="0.035"/>
<rect x="17" y="19" width="1" height="1" fill="#2089d3" fill-opacity="0.067"/>
<rect x="18" y="19" width="1" height="1" fill="#1b98e9" fill-opacity="0.969"/>
<rect x="19" y="19" width="1" height="1" fill="#1d98e9" fill-opacity="0.984"/>
<rect x="20" y="19" width="1" height="1" fill="#1aa2f6" fill-opacity="0.984"/>
<rect x="21" y="19" width="1" height="1" fill="#1aa2fb" fill-opacity="0.984"/>
<rect x="22" y="19" width="1" height="1" fill="#1aa2fa" fill-opacity="0.984"/>
<rect x="23" y="19" width="1" height="1" fill="#1d97e6" fill-opacity="0.984"/>
<rect x="24" y="19" width="1" height="1" fill="#1a87d3" fill-opacity="0.965"/>
<rect x="25" y="19" width="1" height="1" fill="#3870c6" fill-opacity="0.071"/>
<rect x="0" y="20" width="1" height="1" fill="#1e73c8" fill-opacity="0.035"/>
<rect x="1" y="20" width="1" height="1" fill="#1e73c8" fill-opacity="0.035"/>
<rect x="2" y="20" width="1" height="1" fill="#1e73c8" fill-opacity="0.035"/>
<rect x="3" y="20" width="1" height="1" fill="#1e73c8" fill-opacity="0.035"/>
<rect x="4" y="20" width="1" height="1" fill="#1e73c8" fill-opacity="0.035"/>
<rect x="5" y="20" width="1" height="1" fill="#1e73c8" fill-opacity="0.035"/>
<rect x="6" y="20" width="1" height="1" fill="#1e73c8" fill-opacity="0.035"/>
<rect x="7" y="20" width="1" height="1" fill="#1e73c8" fill-opacity="0.035"/>
<rect x="8" y="20" width="1" height="1" fill="#1e73c8" fill-opacity="0.035"/>
<rect x="9" y="20" width="1" height="1" fill="#1e73c8" fill-opacity="0.035"/>
<rect x="10" y="20" width="1" height="1" fill="#1e73c8" fill-opacity="0.035"/>
<rect x="11" y="20" width="1" height="1" fill="#1e73c8" fill-opacity="0.035"/>
<rect x="12" y="20" width="1" height="1" fill="#1e73c8" fill-opacity="0.035"/>
<rect x="13" y="20" width="1" height="1" fill="#1e73c8" fill-opacity="0.035"/>
<rect x="18" y="20" width="1" height="1" fill="#1e90e4" fill-opacity="0.035"/>
<rect x="19" y="20" width="1" height="1" fill="#1e90e4" fill-opacity="0.035"/>
<rect x="20" y="20" width="1" height="1" fill="#1eacff" fill-opacity="0.035"/>
<rect x="21" y="20" width="1" height="1" fill="#1eacff" fill-opacity="0.035"/>
<rect x="22" y="20" width="1" height="1" fill="#1eacff" fill-opacity="0.035"/>
<rect x="23" y="20" width="1" height="1" fill="#1e90e4" fill-opacity="0.035"/>
<rect x="24" y="20" width="1" height="1" fill="#1e90c8" fill-opacity="0.035"/>
</svg>