<?xml version="1.0" encoding="UTF-8" standalone="no"?>
<svg xmlns="http://www.w3.org/2000/svg" width="26" height="21" shape-rendering="crispEdges">
<rect x="1" y="0" width="1" height="1" fill="#e41eff" fill-opacity="0.035"/>
<rect x="2" y="0" width="1" height="1" fill="#ff26ff" fill-opacity="0.027"/>
<rect x="3" y="0" width="1" height="1" fill="#ff1eff" fill-opacity="0.035"/>
<rect x="4" y="0" width="1" height="1" fill="#f71aff" fill-opacity="0.945"/>
<rect x="5" y="0" width="1" height="1" fill="#ff1eff" fill-opacity="0.035"/>
<rect x="6" y="0" width="1" height="1" fill="#ff26ff" fill-opacity="0.027"/>
<rect x="7" y="0" width="1" height="1" fill="#e41eff" fill-opacity="0.035"/>
<rect x="8" y="0" width="1" height="1" fill="#8300ff" fill-opacity="0.008"/>
<rect x="14" y="0" width="1" height="1" fill="#c81ec8" fill-opacity="0.035"/>
<rect x="15" y="0" width="1" height="1" fill="#c81ec8" fill-opacity="0.035"/>
<rect x="16" y="0" width="1" height="1" fill="#c420c4" fill-opacity="0.067"/>
<rect x="17" y="0" width="1" height="1" fill="#b31da9" fill-opacity="0.969"/>
<rect x="18" y="0" width="1" height="1" fill="#b31da9" fill-opacity="0.984"/>
<rect x="19" y="0" width="1" height="1" fill="#b31da9" fill-opacity="0.984"/>
<rect x="20" y="0" width="1" height="1" fill="#ae1aa4" fill-opacity="0.984"/>
<rect x="21" y="0" width="1" height="1" fill="#b21aa8" fill-opacity="0.949"/>
<rect x="22" y="0" width="1" height="1" fill="#c021c0" fill-opacity="0.031"/>
<rect x="0" y="1" width="1" height="1" fill="#ff1eff" fill-opacity="0.035"/>
<rect x="1" y="1" width="1" height="1" fill="#f61aff" fill-opacity="0.961"/>
<rect x="2" y="1" width="1" height="1" fill="#f81aff" fill-opacity="0.835"/>
<rect x="3" y="1" width="1" height="1" fill="#ee13ff" fill-opacity="0.059"/>
<rect x="4" y="1" width="1" height="1" fill="#f61aff" fill-opacity="0.878"/>
<rect x="5" y="1" width="1" height="1" fill="#ee13ff" fill-opacity="0.059"/>
<rect x="6" y="1" width="1" height="1" fill="#f81aff" fill-opacity="0.835"/>
<rect x="7" y="1" width="1" height="1" fill="#f61aff" fill-opacity="0.961"/>
<rect x="8" y="1" width="1" height="1" fill="#ff1eff" fill-opacity="0.035"/>
<rect x="10" y="1" width="1" height="1" fill="#c81ec8" fill-opacity="0.035"/>
<rect x="11" y="1" width="1" height="1" fill="#c81ec8" fill-opacity="0.035"/>
<rect x="12" y="1" width="1" height="1" fill="#c81ec8" fill-opacity="0.035"/>
<rect x="13" y="1" width="1" height="1" fill="#e220c4" fill-opacity="0.067"/>
<rect x="14" y="1" width="1" height="1" fill="#dc1ad2" fill-opacity="0.969"/>
<rect x="15" y="1" width="1" height="1" fill="#cf1ec5" fill-opacity="0.984"/>
<rect x="16" y="1" width="1" height="1" fill="#d020c6" fill-opacity="0.984"/>
<rect x="17" y="1" width="1" height="1" fill="#fb95fd"/>
<rect x="18" y="1" width="1" height="1" fill="#fea2fd"/>
<rect x="19" y="1" width="1" height="1" fill="#fb82fa"/>
<rect x="20" y="1" width="1" height="1" fill="#b51da9" fill-opacity="0.984"/>
<rect x="21" y="1" width="1" height="1" fill="#bc1fb3" fill-opacity="0.102"/>
<rect x="22" y="1" width="1" height="1" fill="#000000" fill-opacity="0.004"/>
<rect x="0" y="2" width="1" height="1" fill="#ff26ff" fill-opacity="0.027"/>
<rect x="1" y="2" width="1" height="1" fill="#f71bff" fill-opacity="0.835"/>
<rect x="2" y="2" width="1" height="1" fill="#ff26ff" fill-opacity="0.055"/>
<rect x="3" y="2" width="1" height="1" fill="#f11eff" fill-opacity="0.071"/>
<rect x="4" y="2" width="1" height="1" fill="#f51bff" fill-opacity="0.965"/>
<rect x="5" y="2" width="1" height="1" fill="#f11eff" fill-opacity="0.071"/>
<rect x="6" y="2" width="1" height="1" fill="#ff26ff" fill-opacity="0.055"/>
<rect x="7" y="2" width="1" height="1" fill="#f71bff" fill-opacity="0.839"/>
<rect x="8" y="2" width="1" height="1" fill="#ff26ff" fill-opacity="0.027"/>
<rect x="9" y="2" width="1" height="1" fill="#c81ec8" fill-opacity="0.035"/>
<rect x="10" y="2" width="1" height="1" fill="#cf1ac4" fill-opacity="0.965"/>
<rect x="11" y="2" width="1" height="1" fill="#cf1ec1" fill-opacity="0.984"/>
<rect x="12" y="2" width="1" height="1" fill="#cf1dc1" fill-opacity="0.984"/>
<rect x="13" y="2" width="1" height="1" fill="#cf1ac4" fill-opacity="0.984"/>
<rect x="14" y="2" width="1" height="1" fill="#d120c6"/>
<rect x="15" y="2" width="1" height="1" fill="#fbb5fd"/>
<rect x="16" y="2" width="1" height="1" fill="#fcd7fe"/>
<rect x="17" y="2" width="1" height="1" fill="#fde0ff"/>
<rect x="18" y="2" width="1" height="1" fill="#fbbefe"/>
<rect x="19" y="2" width="1" height="1" fill="#b520ad"/>
<rect x="20" y="2" width="1" height="1" fill="#cf1ec0"/>
<rect x="21" y="2" width="1" height="1" fill="#cf1ac4" fill-opacity="0.969"/>
<rect x="22" y="2" width="1" height="1" fill="#c81ec8" fill-opacity="0.035"/>
<rect x="0" y="3" width="1" height="1" fill="#ff1eff" fill-opacity="0.035"/>
<rect x="1" y="3" width="1" height="1" fill="#ff13ff" fill-opacity="0.055"/>
<rect x="2" y="3" width="1" height="1" fill="#f11eff" fill-opacity="0.071"/>
<rect x="3" y="3" width="1" height="1" fill="#f41dff" fill-opacity="0.969"/>
<rect x="4" y="3" width="1" height="1" fill="#f551ff"/>
<rect x="5" y="3" width="1" height="1" fill="#f41dff" fill-opacity="0.969"/>
<rect x="6" y="3" width="1" height="1" fill="#f11eff" fill-opacity="0.071"/>
<rect x="7" y="3" width="1" height="1" fill="#ff13ff" fill-opacity="0.055"/>
<rect x="8" y="3" width="1" height="1" fill="#ff1eff" fill-opacity="0.035"/>
<rect x="9" y="3" width="1" height="1" fill="#b91eb9" fill-opacity="0.071"/>
<rect x="10" y="3" width="1" height="1" fill="#cf1ec1" fill-opacity="0.984"/>
<rect x="11" y="3" width="1" height="1" fill="#fdc911"/>
<rect x="12" y="3" width="1" height="1" fill="#fda90e"/>
<rect x="13" y="3" width="1" height="1" fill="#d020c2"/>
<rect x="14" y="3" width="1" height="1" fill="#fbb9fd"/>
<rect x="15" y="3" width="1" height="1" fill="#fdf8ff"/>
<rect x="16" y="3" width="1" height="1" fill="#fffeff"/>
<rect x="17" y="3" width="1" height="1" fill="#fce0ff"/>
<rect x="18" y="3" width="1" height="1" fill="#fdb2fe"/>
<rect x="19" y="3" width="1" height="1" fill="#b522a9"/>
<rect x="20" y="3" width="1" height="1" fill="#fbc613"/>
<rect x="21" y="3" width="1" height="1" fill="#cf1ec1" fill-opacity="0.984"/>
<rect x="22" y="3" width="1" height="1" fill="#c81ec8" fill-opacity="0.035"/>
<rect x="0" y="4" width="1" height="1" fill="#f61aff" fill-opacity="0.949"/>
<rect x="1" y="4" width="1" height="1" fill="#f61aff" fill-opacity="0.878"/>
<rect x="2" y="4" width="1" height="1" fill="#f51bff" fill-opacity="0.965"/>
<rect x="3" y="4" width="1" height="1" fill="#f752ff"/>
<rect x="4" y="4" width="1" height="1" fill="#f69bff"/>
<rect x="5" y="4" width="1" height="1" fill="#f752ff"/>
<rect x="6" y="4" width="1" height="1" fill="#f51bff" fill-opacity="0.965"/>
<rect x="7" y="4" width="1" height="1" fill="#f61aff" fill-opacity="0.878"/>
<rect x="8" y="4" width="1" height="1" fill="#f51afe" fill-opacity="0.965"/>
<rect x="9" y="4" width="1" height="1" fill="#bb1ab2" fill-opacity="0.984"/>
<rect x="10" y="4" width="1" height="1" fill="#b71ead"/>
<rect x="11" y="4" width="1" height="1" fill="#cf1ec0"/>
<rect x="12" y="4" width="1" height="1" fill="#d01dc2"/>
<rect x="13" y="4" width="1" height="1" fill="#d01ec5"/>
<rect x="14" y="4" width="1" height="1" fill="#fbcefe"/>
<rect x="15" y="4" width="1" height="1" fill="#fffeff"/>
<rect x="16" y="4" width="1" height="1" fill="#ffffff"/>
<rect x="17" y="4" width="1" height="1" fill="#fffeff"/>
<rect x="18" y="4" width="1" height="1" fill="#fae7ff"/>
<rect x="19" y="4" width="1" height="1" fill="#fc99fc"/>
<rect x="20" y="4" width="1" height="1" fill="#b121a4"/>
<rect x="21" y="4" width="1" height="1" fill="#ce1ac3" fill-opacity="0.984"/>
<rect x="22" y="4" width="1" height="1" fill="#c81ec8" fill-opacity="0.035"/>
<rect x="0" y="5" width="1" height="1" fill="#ff1eff" fill-opacity="0.035"/>
<rect x="1" y="5" width="1" height="1" fill="#ff13ff" fill-opacity="0.055"/>
<rect x="2" y="5" width="1" height="1" fill="#f11eff" fill-opacity="0.071"/>
<rect x="3" y="5" width="1" height="1" fill="#f41dff" fill-opacity="0.969"/>
<rect x="4" y="5" width="1" height="1" fill="#f551ff"/>
<rect x="5" y="5" width="1" height="1" fill="#f41dff" fill-opacity="0.969"/>
<rect x="6" y="5" width="1" height="1" fill="#f11eff" fill-opacity="0.071"/>
<rect x="7" y="5" width="1" height="1" fill="#ee13ff" fill-opacity="0.059"/>
<rect x="8" y="5" width="1" height="1" fill="#d61ed6" fill-opacity="0.071"/>
<rect x="9" y="5" width="1" height="1" fill="#b61eac" fill-opacity="0.984"/>
<rect x="10" y="5" width="1" height="1" fill="#f5d5fb"/>
<rect x="11" y="5" width="1" height="1" fill="#b121a8"/>
<rect x="12" y="5" width="1" height="1" fill="#f71aef"/>
<rect x="13" y="5" width="1" height="1" fill="#d11fc8"/>
<rect x="14" y="5" width="1" height="1" fill="#fbcffe"/>
<rect x="15" y="5" width="1" height="1" fill="#fffeff"/>
<rect x="16" y="5" width="1" height="1" fill="#ffffff"/>
<rect x="17" y="5" width="1" height="1" fill="#ffffff"/>
<rect x="18" y="5" width="1" height="1" fill="#fffeff"/>
<rect x="19" y="5" width="1" height="1" fill="#fbcaff"/>
<rect x="20" y="5" width="1" height="1" fill="#fa94fc"/>
<rect x="21" y="5" width="1" height="1" fill="#b61db0" fill-opacity="0.984"/>
<rect x="22" y="5" width="1" height="1" fill="#ac1eac" fill-opacity="0.035"/>
<rect x="0" y="6" width="1" height="1" fill="#ff26ff" fill-opacity="0.027"/>
<rect x="1" y="6" width="1" height="1" fill="#f71bff" fill-opacity="0.835"/>
<rect x="2" y="6" width="1" height="1" fill="#ff26ff" fill-opacity="0.055"/>
<rect x="3" y="6" width="1" height="1" fill="#f11eff" fill-opacity="0.071"/>
<rect x="4" y="6" width="1" height="1" fill="#f51bff" fill-opacity="0.965"/>
<rect x="5" y="6" width="1" height="1" fill="#f11eff" fill-opacity="0.071"/>
<rect x="6" y="6" width="1" height="1" fill="#ee24ff" fill-opacity="0.059"/>
<rect x="7" y="6" width="1" height="1" fill="#f81aff" fill-opacity="0.867"/>
<rect x="8" y="6" width="1" height="1" fill="#d320d3" fill-opacity="0.067"/>
<rect x="9" y="6" width="1" height="1" fill="#b61eac" fill-opacity="0.984"/>
<rect x="10" y="6" width="1" height="1" fill="#f8e1fe"/>
<rect x="11" y="6" width="1" height="1" fill="#f7e1fd"/>
<rect x="12" y="6" width="1" height="1" fill="#d222c8"/>
<rect x="13" y="6" width="1" height="1" fill="#f771fd"/>
<rect x="14" y="6" width="1" height="1" fill="#f9dcff"/>
<rect x="15" y="6" width="1" height="1" fill="#ffffff"/>
<rect x="16" y="6" width="1" height="1" fill="#ffffff"/>
<rect x="17" y="6" width="1" height="1" fill="#ffffff"/>
<rect x="18" y="6" width="1" height="1" fill="#fffeff"/>
<rect x="19" y="6" width="1" height="1" fill="#facdff"/>
<rect x="20" y="6" width="1" height="1" fill="#fe98fa"/>
<rect x="21" y="6" width="1" height="1" fill="#b61db0" fill-opacity="0.984"/>
<rect x="22" y="6" width="1" height="1" fill="#ac1eac" fill-opacity="0.071"/>
<rect x="23" y="6" width="1" height="1" fill="#ac1eac" fill-opacity="0.035"/>
<rect x="24" y="6" width="1" height="1" fill="#ac1eac" fill-opacity="0.035"/>
<rect x="0" y="7" width="1" height="1" fill="#ff1eff" fill-opacity="0.035"/>
<rect x="1" y="7" width="1" height="1" fill="#f61aff" fill-opacity="0.961"/>
<rect x="2" y="7" width="1" height="1" fill="#f81aff" fill-opacity="0.835"/>
<rect x="3" y="7" width="1" height="1" fill="#ee13ff" fill-opacity="0.059"/>
<rect x="4" y="7" width="1" height="1" fill="#f61aff" fill-opacity="0.878"/>
<rect x="5" y="7" width="1" height="1" fill="#ee13ff" fill-opacity="0.059"/>
<rect x="6" y="7" width="1" height="1" fill="#f81aff" fill-opacity="0.839"/>
<rect x="7" y="7" width="1" height="1" fill="#f81aff" fill-opacity="0.961"/>
<rect x="8" y="7" width="1" height="1" fill="#d61ed6" fill-opacity="0.071"/>
<rect x="9" y="7" width="1" height="1" fill="#b61fac" fill-opacity="0.984"/>
<rect x="10" y="7" width="1" height="1" fill="#f8e9fe"/>
<rect x="11" y="7" width="1" height="1" fill="#fefaff"/>
<rect x="12" y="7" width="1" height="1" fill="#f8e1fe"/>
<rect x="13" y="7" width="1" height="1" fill="#f8cdff"/>
<rect x="14" y="7" width="1" height="1" fill="#fdf9ff"/>
<rect x="15" y="7" width="1" height="1" fill="#ffffff"/>
<rect x="16" y="7" width="1" height="1" fill="#ffffff"/>
<rect x="17" y="7" width="1" height="1" fill="#ffffff"/>
<rect x="18" y="7" width="1" height="1" fill="#fffdff"/>
<rect x="19" y="7" width="1" height="1" fill="#fecaff"/>
<rect x="20" y="7" width="1" height="1" fill="#fe84fc"/>
<rect x="21" y="7" width="1" height="1" fill="#c81ec0"/>
<rect x="22" y="7" width="1" height="1" fill="#b51dac" fill-opacity="0.984"/>
<rect x="23" y="7" width="1" height="1" fill="#b31ba9" fill-opacity="0.984"/>
<rect x="24" y="7" width="1" height="1" fill="#b01aa8" fill-opacity="0.965"/>
<rect x="25" y="7" width="1" height="1" fill="#ac1eac" fill-opacity="0.035"/>
<rect x="1" y="8" width="1" height="1" fill="#e41eff" fill-opacity="0.035"/>
<rect x="2" y="8" width="1" height="1" fill="#ff26ff" fill-opacity="0.027"/>
<rect x="3" y="8" width="1" height="1" fill="#ff1eff" fill-opacity="0.035"/>
<rect x="4" y="8" width="1" height="1" fill="#f61aff" fill-opacity="0.945"/>
<rect x="5" y="8" width="1" height="1" fill="#ff1eff" fill-opacity="0.035"/>
<rect x="6" y="8" width="1" height="1" fill="#ff26ff" fill-opacity="0.027"/>
<rect x="7" y="8" width="1" height="1" fill="#e41eff" fill-opacity="0.035"/>
<rect x="8" y="8" width="1" height="1" fill="#ac1eac" fill-opacity="0.035"/>
<rect x="9" y="8" width="1" height="1" fill="#b61fac" fill-opacity="0.984"/>
<rect x="10" y="8" width="1" height="1" fill="#f8ebfe"/>
<rect x="11" y="8" width="1" height="1" fill="#fffeff"/>
<rect x="12" y="8" width="1" height="1" fill="#ffffff"/>
<rect x="13" y="8" width="1" height="1" fill="#fffdff"/>
<rect x="14" y="8" width="1" height="1" fill="#ffffff"/>
<rect x="15" y="8" width="1" height="1" fill="#ffffff"/>
<rect x="16" y="8" width="1" height="1" fill="#ffffff"/>
<rect x="17" y="8" width="1" height="1" fill="#fefcff"/>
<rect x="18" y="8" width="1" height="1" fill="#fbe2ff"/>
<rect x="19" y="8" width="1" height="1" fill="#fd9eff"/>
<rect x="20" y="8" width="1" height="1" fill="#da24d9"/>
<rect x="21" y="8" width="1" height="1" fill="#fc84fe"/>
<rect x="22" y="8" width="1" height="1" fill="#fc94fe"/>
<rect x="23" y="8" width="1" height="1" fill="#fc5cfb"/>
<rect x="24" y="8" width="1" height="1" fill="#b81bb0" fill-opacity="0.969"/>
<rect x="25" y="8" width="1" height="1" fill="#ac1eac" fill-opacity="0.035"/>
<rect x="4" y="9" width="1" height="1" fill="#ff21ff" fill-opacity="0.031"/>
<rect x="8" y="9" width="1" height="1" fill="#ac1eac" fill-opacity="0.035"/>
<rect x="9" y="9" width="1" height="1" fill="#bb1eb2" fill-opacity="0.984"/>
<rect x="10" y="9" width="1" height="1" fill="#f8d0fe"/>
<rect x="11" y="9" width="1" height="1" fill="#f8ecff"/>
<rect x="12" y="9" width="1" height="1" fill="#fffeff"/>
<rect x="13" y="9" width="1" height="1" fill="#ffffff"/>
<rect x="14" y="9" width="1" height="1" fill="#ffffff"/>
<rect x="15" y="9" width="1" height="1" fill="#ffffff"/>
<rect x="16" y="9" width="1" height="1" fill="#faf3ff"/>
<rect x="17" y="9" width="1" height="1" fill="#fdbfff"/>
<rect x="18" y="9" width="1" height="1" fill="#ff89fe"/>
<rect x="19" y="9" width="1" height="1" fill="#f946f4"/>
<rect x="20" y="9" width="1" height="1" fill="#fe94fe"/>
<rect x="21" y="9" width="1" height="1" fill="#ffb1fb"/>
<rect x="22" y="9" width="1" height="1" fill="#fd6efe"/>
<rect x="23" y="9" width="1" height="1" fill="#e41de0" fill-opacity="0.969"/>
<rect x="24" y="9" width="1" height="1" fill="#d320c4" fill-opacity="0.067"/>
<rect x="0" y="10" width="1" height="1" fill="#080808" fill-opacity="0.012"/>
<rect x="4" y="10" width="1" height="1" fill="#c81ec8" fill-opacity="0.035"/>
<rect x="5" y="10" width="1" height="1" fill="#e41ee4" fill-opacity="0.035"/>
<rect x="6" y="10" width="1" height="1" fill="#c81ec8" fill-opacity="0.035"/>
<rect x="7" y="10" width="1" height="1" fill="#ff0000" fill-opacity="0.004"/>
<rect x="8" y="10" width="1" height="1" fill="#c420b5" fill-opacity="0.067"/>
<rect x="9" y="10" width="1" height="1" fill="#bc1db4" fill-opacity="0.984"/>
<rect x="10" y="10" width="1" height="1" fill="#f8aefd"/>
<rect x="11" y="10" width="1" height="1" fill="#fbccff"/>
<rect x="12" y="10" width="1" height="1" fill="#f9edff"/>
<rect x="13" y="10" width="1" height="1" fill="#fcf5ff"/>
<rect x="14" y="10" width="1" height="1" fill="#f9e4fe"/>
<rect x="15" y="10" width="1" height="1" fill="#f9e2fe"/>
<rect x="16" y="10" width="1" height="1" fill="#f9dffe"/>
<rect x="17" y="10" width="1" height="1" fill="#fcd7fe"/>
<rect x="18" y="10" width="1" height="1" fill="#fbe1ff"/>
<rect x="19" y="10" width="1" height="1" fill="#fdd8ff"/>
<rect x="20" y="10" width="1" height="1" fill="#fed5ff"/>
<rect x="21" y="10" width="1" height="1" fill="#fdb9ff"/>
<rect x="22" y="10" width="1" height="1" fill="#e11fdb" fill-opacity="0.984"/>
<rect x="23" y="10" width="1" height="1" fill="#e220e2" fill-opacity="0.067"/>
<rect x="0" y="11" width="1" height="1" fill="#fc08ff" fill-opacity="0.012"/>
<rect x="1" y="11" width="1" height="1" fill="#fc21ff" fill-opacity="0.043"/>
<rect x="3" y="11" width="1" height="1" fill="#e41ee4" fill-opacity="0.035"/>
<rect x="4" y="11" width="1" height="1" fill="#de1ad7" fill-opacity="0.965"/>
<rect x="5" y="11" width="1" height="1" fill="#de1ed3" fill-opacity="0.984"/>
<rect x="6" y="11" width="1" height="1" fill="#de1fd3" fill-opacity="0.969"/>
<rect x="7" y="11" width="1" height="1" fill="#cf1fc5" fill-opacity="0.102"/>
<rect x="8" y="11" width="1" height="1" fill="#ca1ac2" fill-opacity="0.969"/>
<rect x="9" y="11" width="1" height="1" fill="#fc1afa"/>
<rect x="10" y="11" width="1" height="1" fill="#be1fb5"/>
<rect x="11" y="11" width="1" height="1" fill="#f692fc"/>
<rect x="12" y="11" width="1" height="1" fill="#f8adfe"/>
<rect x="13" y="11" width="1" height="1" fill="#fab0fd"/>
<rect x="14" y="11" width="1" height="1" fill="#ca22c1"/>
<rect x="15" y="11" width="1" height="1" fill="#ca1fc0"/>
<rect x="16" y="11" width="1" height="1" fill="#c91fc1"/>
<rect x="17" y="11" width="1" height="1" fill="#c921c2"/>
<rect x="18" y="11" width="1" height="1" fill="#fab4fd"/>
<rect x="19" y="11" width="1" height="1" fill="#faeaff"/>
<rect x="20" y="11" width="1" height="1" fill="#fbe6ff"/>
<rect x="21" y="11" width="1" height="1" fill="#fcb8fe"/>
<rect x="22" y="11" width="1" height="1" fill="#db1ed2" fill-opacity="0.984"/>
<rect x="23" y="11" width="1" height="1" fill="#e41ec8" fill-opacity="0.035"/>
<rect x="3" y="12" width="1" height="1" fill="#e41ee4" fill-opacity="0.035"/>
<rect x="4" y="12" width="1" height="1" fill="#de1fd3" fill-opacity="0.984"/>
<rect x="5" y="12" width="1" height="1" fill="#feec0f"/>
<rect x="6" y="12" width="1" height="1" fill="#feec0e"/>
<rect x="7" y="12" width="1" height="1" fill="#ca21bc" fill-opacity="0.984"/>
<rect x="8" y="12" width="1" height="1" fill="#fc1af6"/>
<rect x="9" y="12" width="1" height="1" fill="#fc1aff"/>
<rect x="10" y="12" width="1" height="1" fill="#e91ae4"/>
<rect x="11" y="12" width="1" height="1" fill="#b91daf"/>
<rect x="12" y="12" width="1" height="1" fill="#dc1dd3"/>
<rect x="13" y="12" width="1" height="1" fill="#ca21c3"/>
<rect x="14" y="12" width="1" height="1" fill="#f5adfd"/>
<rect x="15" y="12" width="1" height="1" fill="#f64efa"/>
<rect x="16" y="12" width="1" height="1" fill="#f64cfa"/>
<rect x="17" y="12" width="1" height="1" fill="#f41bfd"/>
<rect x="18" y="12" width="1" height="1" fill="#c520bd"/>
<rect x="19" y="12" width="1" height="1" fill="#f8aafd"/>
<rect x="20" y="12" width="1" height="1" fill="#ffc3ff"/>
<rect x="21" y="12" width="1" height="1" fill="#fea1fe"/>
<rect x="22" y="12" width="1" height="1" fill="#d81dd0" fill-opacity="0.984"/>
<rect x="23" y="12" width="1" height="1" fill="#e41ec8" fill-opacity="0.035"/>
<rect x="3" y="13" width="1" height="1" fill="#e220d3" fill-opacity="0.067"/>
<rect x="4" y="13" width="1" height="1" fill="#df21d4" fill-opacity="0.984"/>
<rect x="5" y="13" width="1" height="1" fill="#feec0e"/>
<rect x="6" y="13" width="1" height="1" fill="#fff108"/>
<rect x="7" y="13" width="1" height="1" fill="#fdce0e"/>
<rect x="8" y="13" width="1" height="1" fill="#be21ac"/>
<rect x="9" y="13" width="1" height="1" fill="#fa1afc"/>
<rect x="10" y="13" width="1" height="1" fill="#fc1afe"/>
<rect x="11" y="13" width="1" height="1" fill="#f81af1"/>
<rect x="12" y="13" width="1" height="1" fill="#ca1dc0"/>
<rect x="13" y="13" width="1" height="1" fill="#f5adfd"/>
<rect x="14" y="13" width="1" height="1" fill="#f445f7"/>
<rect x="15" y="13" width="1" height="1" fill="#ffcb14"/>
<rect x="16" y="13" width="1" height="1" fill="#ffca14"/>
<rect x="17" y="13" width="1" height="1" fill="#f32af7"/>
<rect x="18" y="13" width="1" height="1" fill="#f41afd"/>
<rect x="19" y="13" width="1" height="1" fill="#ca1fc1"/>
<rect x="20" y="13" width="1" height="1" fill="#fb94fe"/>
<rect x="21" y="13" width="1" height="1" fill="#fd7ffb"/>
<rect x="22" y="13" width="1" height="1" fill="#d81dd1" fill-opacity="0.969"/>
<rect x="23" y="13" width="1" height="1" fill="#e41ec8" fill-opacity="0.035"/>
<rect x="2" y="14" width="1" height="1" fill="#c420c4" fill-opacity="0.067"/>
<rect x="3" y="14" width="1" height="1" fill="#ca22c0" fill-opacity="0.969"/>
<rect x="4" y="14" width="1" height="1" fill="#fcf4fc"/>
<rect x="5" y="14" width="1" height="1" fill="#ce28bf"/>
<rect x="6" y="14" width="1" height="1" fill="#fdcd0e"/>
<rect x="7" y="14" width="1" height="1" fill="#ffd108"/>
<rect x="8" y="14" width="1" height="1" fill="#fdcc0e"/>
<rect x="9" y="14" width="1" height="1" fill="#bd20ac"/>
<rect x="10" y="14" width="1" height="1" fill="#f81af0"/>
<rect x="11" y="14" width="1" height="1" fill="#f91af1"/>
<rect x="12" y="14" width="1" height="1" fill="#c91bc0"/>
<rect x="13" y="14" width="1" height="1" fill="#f461fa"/>
<rect x="14" y="14" width="1" height="1" fill="#ffc815"/>
<rect x="15" y="14" width="1" height="1" fill="#f42af7"/>
<rect x="16" y="14" width="1" height="1" fill="#f42af7"/>
<rect x="17" y="14" width="1" height="1" fill="#ffa20f"/>
<rect x="18" y="14" width="1" height="1" fill="#f51dfa"/>
<rect x="19" y="14" width="1" height="1" fill="#ca1bc0"/>
<rect x="20" y="14" width="1" height="1" fill="#fc56fd"/>
<rect x="21" y="14" width="1" height="1" fill="#d120c6" fill-opacity="0.984"/>
<rect x="22" y="14" width="1" height="1" fill="#cf1fc5" fill-opacity="0.102"/>
<rect x="23" y="14" width="1" height="1" fill="#ff0000" fill-opacity="0.004"/>
<rect x="1" y="15" width="1" height="1" fill="#d320c4" fill-opacity="0.067"/>
<rect x="2" y="15" width="1" height="1" fill="#c821c1" fill-opacity="0.969"/>
<rect x="3" y="15" width="1" height="1" fill="#fdf6fd"/>
<rect x="4" y="15" width="1" height="1" fill="#f0d3ff"/>
<rect x="5" y="15" width="1" height="1" fill="#f1b1fd"/>
<rect x="6" y="15" width="1" height="1" fill="#bd25ac"/>
<rect x="7" y="15" width="1" height="1" fill="#fdbe0e"/>
<rect x="8" y="15" width="1" height="1" fill="#ffc208"/>
<rect x="9" y="15" width="1" height="1" fill="#fdbd0e"/>
<rect x="10" y="15" width="1" height="1" fill="#be1eb2"/>
<rect x="11" y="15" width="1" height="1" fill="#f81af0"/>
<rect x="12" y="15" width="1" height="1" fill="#c91bc0"/>
<rect x="13" y="15" width="1" height="1" fill="#f44cfa"/>
<rect x="14" y="15" width="1" height="1" fill="#ffc615"/>
<rect x="15" y="15" width="1" height="1" fill="#f32af7"/>
<rect x="16" y="15" width="1" height="1" fill="#f628f7"/>
<rect x="17" y="15" width="1" height="1" fill="#ff8714"/>
<rect x="18" y="15" width="1" height="1" fill="#f51dfa"/>
<rect x="19" y="15" width="1" height="1" fill="#ca1dc0"/>
<rect x="20" y="15" width="1" height="1" fill="#fba5fe"/>
<rect x="21" y="15" width="1" height="1" fill="#f9b5fd"/>
<rect x="22" y="15" width="1" height="1" fill="#d021c6" fill-opacity="0.969"/>
<rect x="23" y="15" width="1" height="1" fill="#d320c4" fill-opacity="0.067"/>
<rect x="0" y="16" width="1" height="1" fill="#d320c4" fill-opacity="0.067"/>
<rect x="1" y="16" width="1" height="1" fill="#d01ec9" fill-opacity="0.969"/>
<rect x="2" y="16" width="1" height="1" fill="#f3d8fc"/>
<rect x="3" y="16" width="1" height="1" fill="#f1cafe"/>
<rect x="4" y="16" width="1" height="1" fill="#f4b4fe"/>
<rect x="5" y="16" width="1" height="1" fill="#f4a1fe"/>
<rect x="6" y="16" width="1" height="1" fill="#f578fb"/>
<rect x="7" y="16" width="1" height="1" fill="#be21ad"/>
<rect x="8" y="16" width="1" height="1" fill="#fda107"/>
<rect x="9" y="16" width="1" height="1" fill="#fda107"/>
<rect x="10" y="16" width="1" height="1" fill="#bd1db1"/>
<rect x="11" y="16" width="1" height="1" fill="#f81aef"/>
<rect x="12" y="16" width="1" height="1" fill="#ca1ac0"/>
<rect x="13" y="16" width="1" height="1" fill="#f11bfd"/>
<rect x="14" y="16" width="1" height="1" fill="#f720f7"/>
<rect x="15" y="16" width="1" height="1" fill="#ffa50f"/>
<rect x="16" y="16" width="1" height="1" fill="#ff8e13"/>
<rect x="17" y="16" width="1" height="1" fill="#ff1ef6"/>
<rect x="18" y="16" width="1" height="1" fill="#f41afc"/>
<rect x="19" y="16" width="1" height="1" fill="#c520bd"/>
<rect x="20" y="16" width="1" height="1" fill="#fbbcfe"/>
<rect x="21" y="16" width="1" height="1" fill="#fffcff"/>
<rect x="22" y="16" width="1" height="1" fill="#faccfd"/>
<rect x="23" y="16" width="1" height="1" fill="#d021c6" fill-opacity="0.969"/>
<rect x="24" y="16" width="1" height="1" fill="#d320d3" fill-opacity="0.067"/>
<rect x="0" y="17" width="1" height="1" fill="#cf1ac4" fill-opacity="0.969"/>
<rect x="1" y="17" width="1" height="1" fill="#cf1bc5"/>
<rect x="2" y="17" width="1" height="1" fill="#d01fc6"/>
<rect x="3" y="17" width="1" height="1" fill="#d01fc6"/>
<rect x="4" y="17" width="1" height="1" fill="#d01fc6"/>
<rect x="5" y="17" width="1" height="1" fill="#d01ec6"/>
<rect x="6" y="17" width="1" height="1" fill="#d01ec6"/>
<rect x="7" y="17" width="1" height="1" fill="#cf1bc4"/>
<rect x="8" y="17" width="1" height="1" fill="#bc1eae"/>
<rect x="9" y="17" width="1" height="1" fill="#bb1eae"/>
<rect x="10" y="17" width="1" height="1" fill="#b91bb1"/>
<rect x="11" y="17" width="1" height="1" fill="#d01ac6"/>
<rect x="12" y="17" width="1" height="1" fill="#dc1ad3"/>
<rect x="13" y="17" width="1" height="1" fill="#ca1ac1"/>
<rect x="14" y="17" width="1" height="1" fill="#f51afd"/>
<rect x="15" y="17" width="1" height="1" fill="#f61dfa"/>
<rect x="16" y="17" width="1" height="1" fill="#f61dfa"/>
<rect x="17" y="17" width="1" height="1" fill="#f51afd"/>
<rect x="18" y="17" width="1" height="1" fill="#c01eb9"/>
<rect x="19" y="17" width="1" height="1" fill="#fa9bfd"/>
<rect x="20" y="17" width="1" height="1" fill="#f7c0ff"/>
<rect x="21" y="17" width="1" height="1" fill="#f9e4ff"/>
<rect x="22" y="17" width="1" height="1" fill="#fdf4ff"/>
<rect x="23" y="17" width="1" height="1" fill="#f9c3fd"/>
<rect x="24" y="17" width="1" height="1" fill="#d61ecf" fill-opacity="0.969"/>
<rect x="25" y="17" width="1" height="1" fill="#c81ec8" fill-opacity="0.035"/>
<rect x="0" y="18" width="1" height="1" fill="#c91bc0" fill-opacity="0.984"/>
<rect x="1" y="18" width="1" height="1" fill="#f45ffc"/>
<rect x="2" y="18" width="1" height="1" fill="#f461fd"/>
<rect x="3" y="18" width="1" height="1" fill="#f461fd"/>
<rect x="4" y="18" width="1" height="1" fill="#f461fd"/>
<rect x="5" y="18" width="1" height="1" fill="#f461fd"/>
<rect x="6" y="18" width="1" height="1" fill="#f461fd"/>
<rect x="7" y="18" width="1" height="1" fill="#f65cfd"/>
<rect x="8" y="18" width="1" height="1" fill="#f14cfd"/>
<rect x="9" y="18" width="1" height="1" fill="#f44bfd"/>
<rect x="10" y="18" width="1" height="1" fill="#f440fd"/>
<rect x="11" y="18" width="1" height="1" fill="#f126fd"/>
<rect x="12" y="18" width="1" height="1" fill="#f126fd"/>
<rect x="13" y="18" width="1" height="1" fill="#f026fc"/>
<rect x="14" y="18" width="1" height="1" fill="#ca1ac0" fill-opacity="0.984"/>
<rect x="15" y="18" width="1" height="1" fill="#c91ac0" fill-opacity="0.984"/>
<rect x="16" y="18" width="1" height="1" fill="#c91ac0" fill-opacity="0.984"/>
<rect x="17" y="18" width="1" height="1" fill="#ca1bc0" fill-opacity="0.984"/>
<rect x="18" y="18" width="1" height="1" fill="#f466fc"/>
<rect x="19" y="18" width="1" height="1" fill="#f895fe"/>
<rect x="20" y="18" width="1" height="1" fill="#e920e2"/>
<rect x="21" y="18" width="1" height="1" fill="#e61ee0"/>
<rect x="22" y="18" width="1" height="1" fill="#ec21e4"/>
<rect x="23" y="18" width="1" height="1" fill="#fca0fd"/>
<rect x="24" y="18" width="1" height="1" fill="#d31dca" fill-opacity="0.984"/>
<rect x="25" y="18" width="1" height="1" fill="#c81ec8" fill-opacity="0.035"/>
<rect x="0" y="19" width="1" height="1" fill="#c81abf" fill-opacity="0.965"/>
<rect x="1" y="19" width="1" height="1" fill="#c91bc0" fill-opacity="0.984"/>
<rect x="2" y="19" width="1" height="1" fill="#c91bc0" fill-opacity="0.984"/>
<rect x="3" y="19" width="1" height="1" fill="#c91bc0" fill-opacity="0.984"/>
<rect x="4" y="19" width="1" height="1" fill="#c91bc0" fill-opacity="0.984"/>
<rect x="5" y="19" width="1" height="1" fill="#c91bc0" fill-opacity="0.984"/>
<rect x="6" y="19" width="1" height="1" fill="#c91bc0" fill-opacity="0.984"/>
<rect x="7" y="19" width="1" height="1" fill="#c91bc0" fill-opacity="0.984"/>
<rect x="8" y="19" width="1" height="1" fill="#c91bc0" fill-opacity="0.984"/>
<rect x="9" y="19" width="1" height="1" fill="#c91bc0" fill-opacity="0.984"/>
<rect x="10" y="19" width="1" height="1" fill="#c91ac0" fill-opacity="0.984"/>
<rect x="11" y="19" width="1" height="1" fill="#c91ac0" fill-opacity="0.984"/>
<rect x="12" y="19" width="1" height="1" fill="#c91ac0" fill-opacity="0.984"/>
<rect x="13" y="19" width="1" height="1" fill="#c81ac0" fill-opacity="0.969"/>
<rect x="14" y="19" width="1" height="1" fill="#d320c4" fill-opacity="0.067"/>
<rect x="15" y="19" width="1" height="1" fill="#c81ec8" fill-opacity="0.035"/>
<rect x="16" y="19" width="1" height="1" fill="#c81ec8" fill-opacity="0.035"/>
<rect x="17" y="19" width="1" height="1" fill="#d320d3" fill-opacity="0.067"/>
<rect x="18" y="19" width="1" height="1" fill="#e91be1" fill-opacity="0.969"/>
<rect x="19" y="19" width="1" height="1" fill="#e91de2" fill-opacity="0.984"/>
<rect x="20" y="19" width="1" height="1" fill="#f61aef" fill-opacity="0.984"/>
<rect x="21" y="19" width="1" height="1" fill="#fb1af1" fill-opacity="0.984"/>
<rect x="22" y="19" width="1" height="1" fill="#fa1af0" fill-opacity="0.984"/>
<rect x="23" y="19" width="1" height="1" fill="#e61ddf" fill-opacity="0.984"/>
<rect x="24" y="19" width="1" height="1" fill="#d31aca" fill-opacity="0.965"/>
<rect x="25" y="19" width="1" height="1" fill="#c81ec8" fill-opacity="0.035"/>
<rect x="0" y="20" width="1" height="1" fill="#c81eac" fill-opacity="0.035"/>
<rect x="1" y="20" width="1" height="1" fill="#c81ec8" fill-opacity="0.035"/>
<rect x="2" y="20" width="1" height="1" fill="#c81ec8" fill-opacity="0.035"/>
<rect x="3" y="20" width="1" height="1" fill="#c81ec8" fill-opacity="0.035"/>
<rect x="4" y="20" width="1" height="1" fill="#c81ec8" fill-opacity="0.035"/>
<rect x="5" y="20" width="1" height="1" fill="#c81ec8" fill-opacity="0.035"/>
<rect x="6" y="20" width="1" height="1" fill="#c81ec8" fill-opacity="0.035"/>
<rect x="7" y="20" width="1" height="1" fill="#c81ec8" fill-opacity="0.035"/>
<rect x="8" y="20" width="1" height="1" fill="#c81ec8" fill-opacity="0.035"/>
<rect x="9" y="20" width="1" height="1" fill="#c81ec8" fill-opacity="0.035"/>
<rect x="10" y="20" width="1" height="1" fill="#c81ec8" fill-opacity="0.035"/>
<rect x="11" y="20" width="1" height="1" fill="#c81ec8" fill-opacity="0.035"/>
<rect x="12" y="20" width="1" height="1" fill="#c81ec8" fill-opacity="0.035"/>
<rect x="13" y="20" width="1" height="1" fill="#c81eac" fill-opacity="0.035"/>
<rect x="18" y="20" width="1" height="1" fill="#e41ee4" fill-opacity="0.035"/>
<rect x="19" y="20" width="1" height="1" fill="#e41ee4" fill-opacity="0.035"/>
<rect x="20" y="20" width="1" height="1" fill="#ff1ee4" fill-opacity="0.035"/>
<rect x="21" y="20" width="1" height="1" fill="#ff1ee4" fill-opacity="0.035"/>
<rect x="22" y="20" width="1" height="1" fill="#ff1ee4" fill-opacity="0.035"/>
<rect x="23" y="20" width="1" height="1" fill="#e41ee4" fill-opacity="0.035"/>
<rect x="24" y="20" width="1" height="1" fill="#c81ec8" fill-opacity="0.035"/>
</svg>