<?xml version="1.0" encoding="UTF-8" standalone="no"?>
<svg xmlns="http://www.w3.org/2000/svg" width="26" height="21" shape-rendering="crispEdges">
<rect x="3" y="0" width="1" height="1" fill="#e50000"/>
<rect x="7" y="0" width="1" height="1" fill="#e50000"/>
<rect x="8" y="0" width="1" height="1" fill="#7e00ff" fill-opacity="0.008"/>
<rect x="14" y="0" width="1" height="1" fill="#ad0000"/>
<rect x="15" y="0" width="1" height="1" fill="#ad0000"/>
<rect x="16" y="0" width="1" height="1" fill="#ad0000"/>
<rect x="17" y="0" width="1" height="1" fill="#ad0000"/>
<rect x="18" y="0" width="1" height="1" fill="#ad0000"/>
<rect x="2" y="1" width="1" height="1" fill="#e50000"/>
<rect x="3" y="1" width="1" height="1" fill="#ff0000"/>
<rect x="4" y="1" width="1" height="1" fill="#e50000"/>
<rect x="6" y="1" width="1" height="1" fill="#e50000"/>
<rect x="7" y="1" width="1" height="1" fill="#ff0000"/>
<rect x="8" y="1" width="1" height="1" fill="#e50000"/>
<rect x="13" y="1" width="1" height="1" fill="#cc0000"/>
<rect x="14" y="1" width="1" height="1" fill="#ad0000"/>
<rect x="15" y="1" width="1" height="1" fill="#f7c9c8"/>
<rect x="16" y="1" width="1" height="1" fill="#f7c9c8"/>
<rect x="17" y="1" width="1" height="1" fill="#fcbfc1"/>
<rect x="18" y="1" width="1" height="1" fill="#fcbfc1"/>
<rect x="19" y="1" width="1" height="1" fill="#ad0000"/>
<rect x="20" y="1" width="1" height="1" fill="#cc0000"/>
<rect x="21" y="1" width="1" height="1" fill="#cc0000"/>
<rect x="22" y="1" width="1" height="1" fill="#cc0000"/>
<rect x="23" y="1" width="1" height="1" fill="#cc0000"/>
<rect x="1" y="2" width="1" height="1" fill="#e50000"/>
<rect x="2" y="2" width="1" height="1" fill="#ff0000"/>
<rect x="3" y="2" width="1" height="1" fill="#ff0000"/>
<rect x="4" y="2" width="1" height="1" fill="#ff0000"/>
<rect x="5" y="2" width="1" height="1" fill="#e50000"/>
<rect x="7" y="2" width="1" height="1" fill="#e50000"/>
<rect x="12" y="2" width="1" height="1" fill="#cc0000"/>
<rect x="13" y="2" width="1" height="1" fill="#ffff08"/>
<rect x="14" y="2" width="1" height="1" fill="#ffff08"/>
<rect x="15" y="2" width="1" height="1" fill="#ad0000"/>
<rect x="16" y="2" width="1" height="1" fill="#ffe7e8"/>
<rect x="17" y="2" width="1" height="1" fill="#ffe7e8"/>
<rect x="18" y="2" width="1" height="1" fill="#ffe7e8"/>
<rect x="19" y="2" width="1" height="1" fill="#ffcbcc"/>
<rect x="20" y="2" width="1" height="1" fill="#ad0000"/>
<rect x="21" y="2" width="1" height="1" fill="#ffaf00"/>
<rect x="22" y="2" width="1" height="1" fill="#ffaf00"/>
<rect x="23" y="2" width="1" height="1" fill="#cc0000"/>
<rect x="2" y="3" width="1" height="1" fill="#e50000"/>
<rect x="3" y="3" width="1" height="1" fill="#ff0000"/>
<rect x="4" y="3" width="1" height="1" fill="#e50000"/>
<rect x="11" y="3" width="1" height="1" fill="#cc0000"/>
<rect x="12" y="3" width="1" height="1" fill="#ffff08"/>
<rect x="13" y="3" width="1" height="1" fill="#ffaf00"/>
<rect x="14" y="3" width="1" height="1" fill="#cc0000"/>
<rect x="15" y="3" width="1" height="1" fill="#ad0000"/>
<rect x="16" y="3" width="1" height="1" fill="#ffeff0"/>
<rect x="17" y="3" width="1" height="1" fill="#ffeff0"/>
<rect x="18" y="3" width="1" height="1" fill="#ffeff0"/>
<rect x="19" y="3" width="1" height="1" fill="#fff2f4"/>
<rect x="20" y="3" width="1" height="1" fill="#fec3c4"/>
<rect x="21" y="3" width="1" height="1" fill="#ad0000"/>
<rect x="22" y="3" width="1" height="1" fill="#cc0000"/>
<rect x="23" y="3" width="1" height="1" fill="#cc0000"/>
<rect x="2" y="4" width="1" height="1" fill="#e50000"/>
<rect x="4" y="4" width="1" height="1" fill="#e50000"/>
<rect x="11" y="4" width="1" height="1" fill="#cc0000"/>
<rect x="12" y="4" width="1" height="1" fill="#cc0000"/>
<rect x="13" y="4" width="1" height="1" fill="#cc0000"/>
<rect x="14" y="4" width="1" height="1" fill="#ad0000"/>
<rect x="15" y="4" width="1" height="1" fill="#fdd2d3"/>
<rect x="16" y="4" width="1" height="1" fill="#ffffff"/>
<rect x="17" y="4" width="1" height="1" fill="#ffffff"/>
<rect x="18" y="4" width="1" height="1" fill="#ffffff"/>
<rect x="19" y="4" width="1" height="1" fill="#fffcfa"/>
<rect x="20" y="4" width="1" height="1" fill="#ffd4d5"/>
<rect x="21" y="4" width="1" height="1" fill="#ad0000"/>
<rect x="22" y="4" width="1" height="1" fill="#cc0000"/>
<rect x="1" y="5" width="1" height="1" fill="#e50000"/>
<rect x="11" y="5" width="1" height="1" fill="#ad0000"/>
<rect x="12" y="5" width="1" height="1" fill="#ad0000"/>
<rect x="13" y="5" width="1" height="1" fill="#ad0000"/>
<rect x="14" y="5" width="1" height="1" fill="#fdd2d3"/>
<rect x="15" y="5" width="1" height="1" fill="#ffedef"/>
<rect x="16" y="5" width="1" height="1" fill="#ffffff"/>
<rect x="17" y="5" width="1" height="1" fill="#ffffff"/>
<rect x="18" y="5" width="1" height="1" fill="#ffffff"/>
<rect x="19" y="5" width="1" height="1" fill="#ffe1e5"/>
<rect x="20" y="5" width="1" height="1" fill="#ffd4d5"/>
<rect x="21" y="5" width="1" height="1" fill="#ff9798"/>
<rect x="22" y="5" width="1" height="1" fill="#ad0000"/>
<rect x="0" y="6" width="1" height="1" fill="#e50000"/>
<rect x="1" y="6" width="1" height="1" fill="#ff0000"/>
<rect x="2" y="6" width="1" height="1" fill="#e50000"/>
<rect x="10" y="6" width="1" height="1" fill="#ad0000"/>
<rect x="11" y="6" width="1" height="1" fill="#febfbf"/>
<rect x="12" y="6" width="1" height="1" fill="#fdd3d2"/>
<rect x="13" y="6" width="1" height="1" fill="#fdd3d2"/>
<rect x="14" y="6" width="1" height="1" fill="#ffedef"/>
<rect x="15" y="6" width="1" height="1" fill="#ffffff"/>
<rect x="16" y="6" width="1" height="1" fill="#ffffff"/>
<rect x="17" y="6" width="1" height="1" fill="#ffffff"/>
<rect x="18" y="6" width="1" height="1" fill="#ffe1e5"/>
<rect x="19" y="6" width="1" height="1" fill="#ffd4d5"/>
<rect x="20" y="6" width="1" height="1" fill="#ffb0b3"/>
<rect x="21" y="6" width="1" height="1" fill="#ff9da0"/>
<rect x="22" y="6" width="1" height="1" fill="#ad0000"/>
<rect x="24" y="6" width="1" height="1" fill="#ad0000"/>
<rect x="1" y="7" width="1" height="1" fill="#e50000"/>
<rect x="9" y="7" width="1" height="1" fill="#ad0000"/>
<rect x="10" y="7" width="1" height="1" fill="#ffa2a7"/>
<rect x="11" y="7" width="1" height="1" fill="#ffdcd9"/>
<rect x="12" y="7" width="1" height="1" fill="#ffedef"/>
<rect x="13" y="7" width="1" height="1" fill="#ffedef"/>
<rect x="14" y="7" width="1" height="1" fill="#ffffff"/>
<rect x="15" y="7" width="1" height="1" fill="#ffffff"/>
<rect x="16" y="7" width="1" height="1" fill="#ffe1e5"/>
<rect x="17" y="7" width="1" height="1" fill="#ffe1e5"/>
<rect x="18" y="7" width="1" height="1" fill="#ffd4d5"/>
<rect x="19" y="7" width="1" height="1" fill="#ffb0b3"/>
<rect x="20" y="7" width="1" height="1" fill="#ffb0b3"/>
<rect x="21" y="7" width="1" height="1" fill="#ff9a9c"/>
<rect x="22" y="7" width="1" height="1" fill="#b91213"/>
<rect x="23" y="7" width="1" height="1" fill="#ad0000"/>
<rect x="24" y="7" width="1" height="1" fill="#ad0000"/>
<rect x="9" y="8" width="1" height="1" fill="#ad0000"/>
<rect x="10" y="8" width="1" height="1" fill="#fec0bf"/>
<rect x="11" y="8" width="1" height="1" fill="#fffafc"/>
<rect x="12" y="8" width="1" height="1" fill="#ffffff"/>
<rect x="13" y="8" width="1" height="1" fill="#ffffff"/>
<rect x="14" y="8" width="1" height="1" fill="#ffffff"/>
<rect x="15" y="8" width="1" height="1" fill="#ffe1e5"/>
<rect x="16" y="8" width="1" height="1" fill="#ffe1e5"/>
<rect x="17" y="8" width="1" height="1" fill="#e60202"/>
<rect x="18" y="8" width="1" height="1" fill="#e60202"/>
<rect x="19" y="8" width="1" height="1" fill="#ff7878"/>
<rect x="20" y="8" width="1" height="1" fill="#ff9495"/>
<rect x="21" y="8" width="1" height="1" fill="#ff7878"/>
<rect x="22" y="8" width="1" height="1" fill="#ffb0b3"/>
<rect x="23" y="8" width="1" height="1" fill="#ff9496"/>
<rect x="24" y="8" width="1" height="1" fill="#ad0000"/>
<rect x="7" y="9" width="1" height="1" fill="#cc0000"/>
<rect x="8" y="9" width="1" height="1" fill="#cc0000"/>
<rect x="9" y="9" width="1" height="1" fill="#ad0000"/>
<rect x="10" y="9" width="1" height="1" fill="#ffcdce"/>
<rect x="11" y="9" width="1" height="1" fill="#fffaf9"/>
<rect x="12" y="9" width="1" height="1" fill="#ffffff"/>
<rect x="13" y="9" width="1" height="1" fill="#ffffff"/>
<rect x="14" y="9" width="1" height="1" fill="#e60202"/>
<rect x="15" y="9" width="1" height="1" fill="#e60202"/>
<rect x="16" y="9" width="1" height="1" fill="#e60202"/>
<rect x="17" y="9" width="1" height="1" fill="#ffffff"/>
<rect x="18" y="9" width="1" height="1" fill="#e60202"/>
<rect x="19" y="9" width="1" height="1" fill="#ff7878"/>
<rect x="20" y="9" width="1" height="1" fill="#ff9495"/>
<rect x="21" y="9" width="1" height="1" fill="#ffb0b3"/>
<rect x="22" y="9" width="1" height="1" fill="#ffb0b3"/>
<rect x="23" y="9" width="1" height="1" fill="#ff9495"/>
<rect x="24" y="9" width="1" height="1" fill="#ad0000"/>
<rect x="0" y="10" width="1" height="1" fill="#b60000"/>
<rect x="1" y="10" width="1" height="1" fill="#b60000"/>
<rect x="2" y="10" width="1" height="1" fill="#b60000"/>
<rect x="3" y="10" width="1" height="1" fill="#b60000"/>
<rect x="5" y="10" width="1" height="1" fill="#cc0000"/>
<rect x="6" y="10" width="1" height="1" fill="#cc0000"/>
<rect x="7" y="10" width="1" height="1" fill="#ffff08"/>
<rect x="8" y="10" width="1" height="1" fill="#ffff08"/>
<rect x="9" y="10" width="1" height="1" fill="#cc0000"/>
<rect x="10" y="10" width="1" height="1" fill="#ffa2a7"/>
<rect x="11" y="10" width="1" height="1" fill="#ffcbca"/>
<rect x="12" y="10" width="1" height="1" fill="#ffe8ea"/>
<rect x="13" y="10" width="1" height="1" fill="#e60202"/>
<rect x="14" y="10" width="1" height="1" fill="#ffd8d7"/>
<rect x="15" y="10" width="1" height="1" fill="#ffffff"/>
<rect x="16" y="10" width="1" height="1" fill="#ffffff"/>
<rect x="17" y="10" width="1" height="1" fill="#ffb6bc"/>
<rect x="18" y="10" width="1" height="1" fill="#e60202"/>
<rect x="19" y="10" width="1" height="1" fill="#ff7878"/>
<rect x="20" y="10" width="1" height="1" fill="#ff7878"/>
<rect x="21" y="10" width="1" height="1" fill="#e60202"/>
<rect x="22" y="10" width="1" height="1" fill="#c90000"/>
<rect x="23" y="10" width="1" height="1" fill="#ff7878"/>
<rect x="24" y="10" width="1" height="1" fill="#ad0000"/>
<rect x="0" y="11" width="1" height="1" fill="#b60000"/>
<rect x="1" y="11" width="1" height="1" fill="#ffffff"/>
<rect x="2" y="11" width="1" height="1" fill="#ffffff"/>
<rect x="3" y="11" width="1" height="1" fill="#ffffff"/>
<rect x="4" y="11" width="1" height="1" fill="#cc0000"/>
<rect x="5" y="11" width="1" height="1" fill="#ffff08"/>
<rect x="6" y="11" width="1" height="1" fill="#ffff08"/>
<rect x="7" y="11" width="1" height="1" fill="#cc0000"/>
<rect x="8" y="11" width="1" height="1" fill="#ffff08"/>
<rect x="9" y="11" width="1" height="1" fill="#ffe008"/>
<rect x="10" y="11" width="1" height="1" fill="#cc0000"/>
<rect x="11" y="11" width="1" height="1" fill="#ffa2a7"/>
<rect x="12" y="11" width="1" height="1" fill="#c90000"/>
<rect x="13" y="11" width="1" height="1" fill="#ffd8d7"/>
<rect x="14" y="11" width="1" height="1" fill="#ffb6bc"/>
<rect x="15" y="11" width="1" height="1" fill="#ffb6bc"/>
<rect x="16" y="11" width="1" height="1" fill="#ffa2a3"/>
<rect x="17" y="11" width="1" height="1" fill="#ffa2a3"/>
<rect x="18" y="11" width="1" height="1" fill="#e60202"/>
<rect x="19" y="11" width="1" height="1" fill="#e60202"/>
<rect x="20" y="11" width="1" height="1" fill="#e60202"/>
<rect x="21" y="11" width="1" height="1" fill="#ffffff"/>
<rect x="22" y="11" width="1" height="1" fill="#c90000"/>
<rect x="23" y="11" width="1" height="1" fill="#ff7878"/>
<rect x="24" y="11" width="1" height="1" fill="#ad0000"/>
<rect x="0" y="12" width="1" height="1" fill="#b60000"/>
<rect x="1" y="12" width="1" height="1" fill="#ffffff"/>
<rect x="2" y="12" width="1" height="1" fill="#ffffff"/>
<rect x="3" y="12" width="1" height="1" fill="#ffffff"/>
<rect x="4" y="12" width="1" height="1" fill="#ffe2eb"/>
<rect x="5" y="12" width="1" height="1" fill="#cc0000"/>
<rect x="6" y="12" width="1" height="1" fill="#ffff08"/>
<rect x="7" y="12" width="1" height="1" fill="#ffe008"/>
<rect x="8" y="12" width="1" height="1" fill="#cc0000"/>
<rect x="9" y="12" width="1" height="1" fill="#ffe008"/>
<rect x="10" y="12" width="1" height="1" fill="#ffe008"/>
<rect x="11" y="12" width="1" height="1" fill="#cc0000"/>
<rect x="12" y="12" width="1" height="1" fill="#ae0000"/>
<rect x="13" y="12" width="1" height="1" fill="#ffb6bc"/>
<rect x="14" y="12" width="1" height="1" fill="#b60000"/>
<rect x="15" y="12" width="1" height="1" fill="#b60000"/>
<rect x="16" y="12" width="1" height="1" fill="#ff8182"/>
<rect x="17" y="12" width="1" height="1" fill="#e60202"/>
<rect x="18" y="12" width="1" height="1" fill="#ffd8d7"/>
<rect x="19" y="12" width="1" height="1" fill="#ffffff"/>
<rect x="20" y="12" width="1" height="1" fill="#ffffff"/>
<rect x="21" y="12" width="1" height="1" fill="#ffb6bc"/>
<rect x="22" y="12" width="1" height="1" fill="#c90000"/>
<rect x="23" y="12" width="1" height="1" fill="#ad0000"/>
<rect x="0" y="13" width="1" height="1" fill="#b60000"/>
<rect x="1" y="13" width="1" height="1" fill="#ffffff"/>
<rect x="2" y="13" width="1" height="1" fill="#ffffff"/>
<rect x="3" y="13" width="1" height="1" fill="#ffe2eb"/>
<rect x="4" y="13" width="1" height="1" fill="#ffe2eb"/>
<rect x="5" y="13" width="1" height="1" fill="#ffe2eb"/>
<rect x="6" y="13" width="1" height="1" fill="#cc0000"/>
<rect x="7" y="13" width="1" height="1" fill="#ffe008"/>
<rect x="8" y="13" width="1" height="1" fill="#ffe008"/>
<rect x="9" y="13" width="1" height="1" fill="#cc0000"/>
<rect x="10" y="13" width="1" height="1" fill="#ffe008"/>
<rect x="11" y="13" width="1" height="1" fill="#ffd008"/>
<rect x="12" y="13" width="1" height="1" fill="#cc0000"/>
<rect x="13" y="13" width="1" height="1" fill="#b60000"/>
<rect x="14" y="13" width="1" height="1" fill="#ffa4a4"/>
<rect x="15" y="13" width="1" height="1" fill="#ff3f3f"/>
<rect x="16" y="13" width="1" height="1" fill="#b60000"/>
<rect x="17" y="13" width="1" height="1" fill="#ffd8d7"/>
<rect x="18" y="13" width="1" height="1" fill="#ffb6bc"/>
<rect x="19" y="13" width="1" height="1" fill="#ffb6bc"/>
<rect x="20" y="13" width="1" height="1" fill="#e60202"/>
<rect x="21" y="13" width="1" height="1" fill="#c90000"/>
<rect x="22" y="13" width="1" height="1" fill="#ae0000"/>
<rect x="23" y="13" width="1" height="1" fill="#ff4e4e"/>
<rect x="24" y="13" width="1" height="1" fill="#c90000"/>
<rect x="0" y="14" width="1" height="1" fill="#b60000"/>
<rect x="1" y="14" width="1" height="1" fill="#ffe2eb"/>
<rect x="2" y="14" width="1" height="1" fill="#ffe2eb"/>
<rect x="3" y="14" width="1" height="1" fill="#ffe2eb"/>
<rect x="4" y="14" width="1" height="1" fill="#ffe2eb"/>
<rect x="5" y="14" width="1" height="1" fill="#ffb0b4"/>
<rect x="6" y="14" width="1" height="1" fill="#ffb0b4"/>
<rect x="7" y="14" width="1" height="1" fill="#cc0000"/>
<rect x="8" y="14" width="1" height="1" fill="#ffd008"/>
<rect x="9" y="14" width="1" height="1" fill="#ffd008"/>
<rect x="10" y="14" width="1" height="1" fill="#cc0000"/>
<rect x="11" y="14" width="1" height="1" fill="#ffd008"/>
<rect x="12" y="14" width="1" height="1" fill="#b60000"/>
<rect x="13" y="14" width="1" height="1" fill="#ffa4a4"/>
<rect x="14" y="14" width="1" height="1" fill="#b60000"/>
<rect x="15" y="14" width="1" height="1" fill="#b60000"/>
<rect x="16" y="14" width="1" height="1" fill="#ff3f3f"/>
<rect x="17" y="14" width="1" height="1" fill="#b60000"/>
<rect x="18" y="14" width="1" height="1" fill="#ffa2a3"/>
<rect x="19" y="14" width="1" height="1" fill="#e60202"/>
<rect x="20" y="14" width="1" height="1" fill="#ffd8d7"/>
<rect x="21" y="14" width="1" height="1" fill="#ffd8d7"/>
<rect x="22" y="14" width="1" height="1" fill="#ffffff"/>
<rect x="23" y="14" width="1" height="1" fill="#ae0000"/>
<rect x="24" y="14" width="1" height="1" fill="#c90000"/>
<rect x="1" y="15" width="1" height="1" fill="#b60000"/>
<rect x="2" y="15" width="1" height="1" fill="#ffb0b4"/>
<rect x="3" y="15" width="1" height="1" fill="#ffb0b4"/>
<rect x="4" y="15" width="1" height="1" fill="#ffb0b4"/>
<rect x="5" y="15" width="1" height="1" fill="#ffb0b4"/>
<rect x="6" y="15" width="1" height="1" fill="#ff7575"/>
<rect x="7" y="15" width="1" height="1" fill="#ff7575"/>
<rect x="8" y="15" width="1" height="1" fill="#cc0000"/>
<rect x="9" y="15" width="1" height="1" fill="#ffaf00"/>
<rect x="10" y="15" width="1" height="1" fill="#ffaf00"/>
<rect x="11" y="15" width="1" height="1" fill="#b60000"/>
<rect x="12" y="15" width="1" height="1" fill="#ff5252"/>
<rect x="13" y="15" width="1" height="1" fill="#b60000"/>
<rect x="14" y="15" width="1" height="1" fill="#ff0e0e"/>
<rect x="15" y="15" width="1" height="1" fill="#ff0e0e"/>
<rect x="16" y="15" width="1" height="1" fill="#b60000"/>
<rect x="17" y="15" width="1" height="1" fill="#ff0e0e"/>
<rect x="18" y="15" width="1" height="1" fill="#b60000"/>
<rect x="19" y="15" width="1" height="1" fill="#ffa2a3"/>
<rect x="20" y="15" width="1" height="1" fill="#ffa2a3"/>
<rect x="21" y="15" width="1" height="1" fill="#ffa2a3"/>
<rect x="22" y="15" width="1" height="1" fill="#ae0000"/>
<rect x="23" y="15" width="1" height="1" fill="#ff4e4e"/>
<rect x="24" y="15" width="1" height="1" fill="#c90000"/>
<rect x="1" y="16" width="1" height="1" fill="#b60000"/>
<rect x="2" y="16" width="1" height="1" fill="#ff7575"/>
<rect x="3" y="16" width="1" height="1" fill="#ff7575"/>
<rect x="4" y="16" width="1" height="1" fill="#ff7575"/>
<rect x="5" y="16" width="1" height="1" fill="#ff7575"/>
<rect x="6" y="16" width="1" height="1" fill="#ff7575"/>
<rect x="7" y="16" width="1" height="1" fill="#ff5353"/>
<rect x="8" y="16" width="1" height="1" fill="#ff5353"/>
<rect x="9" y="16" width="1" height="1" fill="#cc0000"/>
<rect x="10" y="16" width="1" height="1" fill="#ffaf00"/>
<rect x="11" y="16" width="1" height="1" fill="#b60000"/>
<rect x="12" y="16" width="1" height="1" fill="#ff0e0e"/>
<rect x="13" y="16" width="1" height="1" fill="#b60000"/>
<rect x="14" y="16" width="1" height="1" fill="#ff0e0e"/>
<rect x="15" y="16" width="1" height="1" fill="#ff0e0e"/>
<rect x="16" y="16" width="1" height="1" fill="#b60000"/>
<rect x="17" y="16" width="1" height="1" fill="#ff0e0e"/>
<rect x="18" y="16" width="1" height="1" fill="#b60000"/>
<rect x="19" y="16" width="1" height="1" fill="#ff8182"/>
<rect x="20" y="16" width="1" height="1" fill="#ff8182"/>
<rect x="21" y="16" width="1" height="1" fill="#ae0000"/>
<rect x="22" y="16" width="1" height="1" fill="#ff4e4e"/>
<rect x="23" y="16" width="1" height="1" fill="#a60000"/>
<rect x="0" y="17" width="1" height="1" fill="#b60000"/>
<rect x="1" y="17" width="1" height="1" fill="#b60000"/>
<rect x="2" y="17" width="1" height="1" fill="#b60000"/>
<rect x="3" y="17" width="1" height="1" fill="#b60000"/>
<rect x="4" y="17" width="1" height="1" fill="#b60000"/>
<rect x="5" y="17" width="1" height="1" fill="#b60000"/>
<rect x="6" y="17" width="1" height="1" fill="#b60000"/>
<rect x="7" y="17" width="1" height="1" fill="#b60000"/>
<rect x="8" y="17" width="1" height="1" fill="#b60000"/>
<rect x="9" y="17" width="1" height="1" fill="#b60000"/>
<rect x="10" y="17" width="1" height="1" fill="#b60000"/>
<rect x="11" y="17" width="1" height="1" fill="#b60000"/>
<rect x="12" y="17" width="1" height="1" fill="#b60000"/>
<rect x="13" y="17" width="1" height="1" fill="#ff0e0e"/>
<rect x="14" y="17" width="1" height="1" fill="#b60000"/>
<rect x="15" y="17" width="1" height="1" fill="#b60000"/>
<rect x="16" y="17" width="1" height="1" fill="#ff0e0e"/>
<rect x="17" y="17" width="1" height="1" fill="#b60000"/>
<rect x="18" y="17" width="1" height="1" fill="#ae0000"/>
<rect x="19" y="17" width="1" height="1" fill="#ae0000"/>
<rect x="20" y="17" width="1" height="1" fill="#ae0000"/>
<rect x="21" y="17" width="1" height="1" fill="#ff4e4e"/>
<rect x="22" y="17" width="1" height="1" fill="#a60000"/>
<rect x="23" y="17" width="1" height="1" fill="#cc0000"/>
<rect x="0" y="18" width="1" height="1" fill="#b60000"/>
<rect x="1" y="18" width="1" height="1" fill="#ff5b5b"/>
<rect x="2" y="18" width="1" height="1" fill="#ff5b5b"/>
<rect x="3" y="18" width="1" height="1" fill="#ff5b5b"/>
<rect x="4" y="18" width="1" height="1" fill="#ff5b5b"/>
<rect x="5" y="18" width="1" height="1" fill="#ff5b5b"/>
<rect x="6" y="18" width="1" height="1" fill="#ff5b5b"/>
<rect x="7" y="18" width="1" height="1" fill="#ff5b5b"/>
<rect x="8" y="18" width="1" height="1" fill="#ff5757"/>
<rect x="9" y="18" width="1" height="1" fill="#ff4646"/>
<rect x="10" y="18" width="1" height="1" fill="#ff4545"/>
<rect x="11" y="18" width="1" height="1" fill="#ff3c3c"/>
<rect x="12" y="18" width="1" height="1" fill="#ff2424"/>
<rect x="13" y="18" width="1" height="1" fill="#b60000"/>
<rect x="14" y="18" width="1" height="1" fill="#ff0e0e"/>
<rect x="15" y="18" width="1" height="1" fill="#ff0e0e"/>
<rect x="16" y="18" width="1" height="1" fill="#b60000"/>
<rect x="17" y="18" width="1" height="1" fill="#ff3c3c"/>
<rect x="18" y="18" width="1" height="1" fill="#ff3c3c"/>
<rect x="19" y="18" width="1" height="1" fill="#ff3c3c"/>
<rect x="20" y="18" width="1" height="1" fill="#a60000"/>
<rect x="21" y="18" width="1" height="1" fill="#a60000"/>
<rect x="22" y="18" width="1" height="1" fill="#ff0000"/>
<rect x="23" y="18" width="1" height="1" fill="#dd0101"/>
<rect x="0" y="19" width="1" height="1" fill="#b60000"/>
<rect x="1" y="19" width="1" height="1" fill="#b60000"/>
<rect x="2" y="19" width="1" height="1" fill="#b60000"/>
<rect x="3" y="19" width="1" height="1" fill="#b60000"/>
<rect x="4" y="19" width="1" height="1" fill="#b60000"/>
<rect x="5" y="19" width="1" height="1" fill="#b60000"/>
<rect x="6" y="19" width="1" height="1" fill="#b60000"/>
<rect x="7" y="19" width="1" height="1" fill="#b60000"/>
<rect x="8" y="19" width="1" height="1" fill="#b60000"/>
<rect x="9" y="19" width="1" height="1" fill="#b60000"/>
<rect x="10" y="19" width="1" height="1" fill="#b60000"/>
<rect x="11" y="19" width="1" height="1" fill="#b60000"/>
<rect x="12" y="19" width="1" height="1" fill="#b60000"/>
<rect x="14" y="19" width="1" height="1" fill="#b60000"/>
<rect x="15" y="19" width="1" height="1" fill="#b60000"/>
<rect x="17" y="19" width="1" height="1" fill="#a60000"/>
<rect x="18" y="19" width="1" height="1" fill="#a60000"/>
<rect x="19" y="19" width="1" height="1" fill="#a60000"/>
<rect x="20" y="19" width="1" height="1" fill="#c40000"/>
<rect x="21" y="19" width="1" height="1" fill="#c40000"/>
<rect x="22" y="19" width="1" height="1" fill="#c40000"/>
<rect x="23" y="19" width="1" height="1" fill="#c40000"/>
</svg>