<?xml version="1.0" encoding="UTF-8" standalone="no"?>
<svg xmlns="http://www.w3.org/2000/svg" width="26" height="21" shape-rendering="crispEdges">
<rect x="3" y="0" width="1" height="1" fill="#f3b70b"/>
<rect x="7" y="0" width="1" height="1" fill="#f3b70b"/>
<rect x="14" y="0" width="1" height="1" fill="#c18809"/>
<rect x="15" y="0" width="1" height="1" fill="#c18809"/>
<rect x="16" y="0" width="1" height="1" fill="#c18809"/>
<rect x="17" y="0" width="1" height="1" fill="#c18809"/>
<rect x="18" y="0" width="1" height="1" fill="#c18809"/>
<rect x="2" y="1" width="1" height="1" fill="#f3b70b"/>
<rect x="3" y="1" width="1" height="1" fill="#f4c112"/>
<rect x="4" y="1" width="1" height="1" fill="#f3b70b"/>
<rect x="6" y="1" width="1" height="1" fill="#f3b70b"/>
<rect x="7" y="1" width="1" height="1" fill="#f4c112"/>
<rect x="8" y="1" width="1" height="1" fill="#f3b70b"/>
<rect x="13" y="1" width="1" height="1" fill="#e6a50b"/>
<rect x="14" y="1" width="1" height="1" fill="#c18809"/>
<rect x="15" y="1" width="1" height="1" fill="#fbefb4"/>
<rect x="16" y="1" width="1" height="1" fill="#fbefb4"/>
<rect x="17" y="1" width="1" height="1" fill="#fbecaf"/>
<rect x="18" y="1" width="1" height="1" fill="#fbecaf"/>
<rect x="19" y="1" width="1" height="1" fill="#c18809"/>
<rect x="20" y="1" width="1" height="1" fill="#e6a50b"/>
<rect x="21" y="1" width="1" height="1" fill="#e6a50b"/>
<rect x="22" y="1" width="1" height="1" fill="#e6a50b"/>
<rect x="23" y="1" width="1" height="1" fill="#e6a50b"/>
<rect x="1" y="2" width="1" height="1" fill="#f3b70b"/>
<rect x="2" y="2" width="1" height="1" fill="#f4c112"/>
<rect x="3" y="2" width="1" height="1" fill="#f4c112"/>
<rect x="4" y="2" width="1" height="1" fill="#f4c112"/>
<rect x="5" y="2" width="1" height="1" fill="#f3b70b"/>
<rect x="7" y="2" width="1" height="1" fill="#f3b70b"/>
<rect x="12" y="2" width="1" height="1" fill="#e6a50b"/>
<rect x="13" y="2" width="1" height="1" fill="#ffff08"/>
<rect x="14" y="2" width="1" height="1" fill="#ffff08"/>
<rect x="15" y="2" width="1" height="1" fill="#c18809"/>
<rect x="16" y="2" width="1" height="1" fill="#fdf8e1"/>
<rect x="17" y="2" width="1" height="1" fill="#fdf8e1"/>
<rect x="18" y="2" width="1" height="1" fill="#fdf8e1"/>
<rect x="19" y="2" width="1" height="1" fill="#fcf0c0"/>
<rect x="20" y="2" width="1" height="1" fill="#c18809"/>
<rect x="21" y="2" width="1" height="1" fill="#ffaf00"/>
<rect x="22" y="2" width="1" height="1" fill="#ffaf00"/>
<rect x="23" y="2" width="1" height="1" fill="#e6a50b"/>
<rect x="2" y="3" width="1" height="1" fill="#f3b70b"/>
<rect x="3" y="3" width="1" height="1" fill="#f4c112"/>
<rect x="4" y="3" width="1" height="1" fill="#f3b70b"/>
<rect x="11" y="3" width="1" height="1" fill="#e6a50b"/>
<rect x="12" y="3" width="1" height="1" fill="#ffff08"/>
<rect x="13" y="3" width="1" height="1" fill="#ffaf00"/>
<rect x="14" y="3" width="1" height="1" fill="#e6a50b"/>
<rect x="15" y="3" width="1" height="1" fill="#c18809"/>
<rect x="16" y="3" width="1" height="1" fill="#fef8eb"/>
<rect x="17" y="3" width="1" height="1" fill="#fef8eb"/>
<rect x="18" y="3" width="1" height="1" fill="#fef8eb"/>
<rect x="19" y="3" width="1" height="1" fill="#fefbef"/>
<rect x="20" y="3" width="1" height="1" fill="#fbedb5"/>
<rect x="21" y="3" width="1" height="1" fill="#c18809"/>
<rect x="22" y="3" width="1" height="1" fill="#e6a50b"/>
<rect x="23" y="3" width="1" height="1" fill="#e6a50b"/>
<rect x="2" y="4" width="1" height="1" fill="#f3b70b"/>
<rect x="4" y="4" width="1" height="1" fill="#f3b70b"/>
<rect x="11" y="4" width="1" height="1" fill="#e6a50b"/>
<rect x="12" y="4" width="1" height="1" fill="#e6a50b"/>
<rect x="13" y="4" width="1" height="1" fill="#e6a50b"/>
<rect x="14" y="4" width="1" height="1" fill="#c18809"/>
<rect x="15" y="4" width="1" height="1" fill="#fcf1c5"/>
<rect x="16" y="4" width="1" height="1" fill="#ffffff"/>
<rect x="17" y="4" width="1" height="1" fill="#ffffff"/>
<rect x="18" y="4" width="1" height="1" fill="#ffffff"/>
<rect x="19" y="4" width="1" height="1" fill="#fffffa"/>
<rect x="20" y="4" width="1" height="1" fill="#fcf2cb"/>
<rect x="21" y="4" width="1" height="1" fill="#c18809"/>
<rect x="22" y="4" width="1" height="1" fill="#e6a50b"/>
<rect x="1" y="5" width="1" height="1" fill="#f3b70b"/>
<rect x="11" y="5" width="1" height="1" fill="#c18809"/>
<rect x="12" y="5" width="1" height="1" fill="#c18809"/>
<rect x="13" y="5" width="1" height="1" fill="#c18809"/>
<rect x="14" y="5" width="1" height="1" fill="#fcf1c5"/>
<rect x="15" y="5" width="1" height="1" fill="#fef7e9"/>
<rect x="16" y="5" width="1" height="1" fill="#ffffff"/>
<rect x="17" y="5" width="1" height="1" fill="#ffffff"/>
<rect x="18" y="5" width="1" height="1" fill="#ffffff"/>
<rect x="19" y="5" width="1" height="1" fill="#fdf1da"/>
<rect x="20" y="5" width="1" height="1" fill="#fcf2cb"/>
<rect x="21" y="5" width="1" height="1" fill="#f9e487"/>
<rect x="22" y="5" width="1" height="1" fill="#c18809"/>
<rect x="0" y="6" width="1" height="1" fill="#f3b70b"/>
<rect x="1" y="6" width="1" height="1" fill="#f4c112"/>
<rect x="2" y="6" width="1" height="1" fill="#f3b70b"/>
<rect x="10" y="6" width="1" height="1" fill="#c18809"/>
<rect x="11" y="6" width="1" height="1" fill="#fbefb1"/>
<rect x="12" y="6" width="1" height="1" fill="#fcf4c5"/>
<rect x="13" y="6" width="1" height="1" fill="#fcf4c5"/>
<rect x="14" y="6" width="1" height="1" fill="#fef7e9"/>
<rect x="15" y="6" width="1" height="1" fill="#ffffff"/>
<rect x="16" y="6" width="1" height="1" fill="#ffffff"/>
<rect x="17" y="6" width="1" height="1" fill="#ffffff"/>
<rect x="18" y="6" width="1" height="1" fill="#fdf1da"/>
<rect x="19" y="6" width="1" height="1" fill="#fcf2cb"/>
<rect x="20" y="6" width="1" height="1" fill="#fae9a2"/>
<rect x="21" y="6" width="1" height="1" fill="#f9e38d"/>
<rect x="22" y="6" width="1" height="1" fill="#c18809"/>
<rect x="24" y="6" width="1" height="1" fill="#c18809"/>
<rect x="1" y="7" width="1" height="1" fill="#f3b70b"/>
<rect x="9" y="7" width="1" height="1" fill="#c18809"/>
<rect x="10" y="7" width="1" height="1" fill="#fae294"/>
<rect x="11" y="7" width="1" height="1" fill="#fdf9d0"/>
<rect x="12" y="7" width="1" height="1" fill="#fef7e9"/>
<rect x="13" y="7" width="1" height="1" fill="#fef7e9"/>
<rect x="14" y="7" width="1" height="1" fill="#ffffff"/>
<rect x="15" y="7" width="1" height="1" fill="#ffffff"/>
<rect x="16" y="7" width="1" height="1" fill="#fdf1da"/>
<rect x="17" y="7" width="1" height="1" fill="#fdf1da"/>
<rect x="18" y="7" width="1" height="1" fill="#fcf2cb"/>
<rect x="19" y="7" width="1" height="1" fill="#fae9a2"/>
<rect x="20" y="7" width="1" height="1" fill="#fae9a2"/>
<rect x="21" y="7" width="1" height="1" fill="#f9e18b"/>
<rect x="22" y="7" width="1" height="1" fill="#e0a30a"/>
<rect x="23" y="7" width="1" height="1" fill="#c18809"/>
<rect x="24" y="7" width="1" height="1" fill="#c18809"/>
<rect x="9" y="8" width="1" height="1" fill="#c18809"/>
<rect x="10" y="8" width="1" height="1" fill="#fbf0b1"/>
<rect x="11" y="8" width="1" height="1" fill="#fffcfa"/>
<rect x="12" y="8" width="1" height="1" fill="#ffffff"/>
<rect x="13" y="8" width="1" height="1" fill="#ffffff"/>
<rect x="14" y="8" width="1" height="1" fill="#ffffff"/>
<rect x="15" y="8" width="1" height="1" fill="#fdf1da"/>
<rect x="16" y="8" width="1" height="1" fill="#fdf1da"/>
<rect x="17" y="8" width="1" height="1" fill="#f3b80b"/>
<rect x="18" y="8" width="1" height="1" fill="#f3b80b"/>
<rect x="19" y="8" width="1" height="1" fill="#f8dd6a"/>
<rect x="20" y="8" width="1" height="1" fill="#f9e385"/>
<rect x="21" y="8" width="1" height="1" fill="#f8dd6a"/>
<rect x="22" y="8" width="1" height="1" fill="#fae9a2"/>
<rect x="23" y="8" width="1" height="1" fill="#f9e385"/>
<rect x="24" y="8" width="1" height="1" fill="#c18809"/>
<rect x="7" y="9" width="1" height="1" fill="#e6a50b"/>
<rect x="8" y="9" width="1" height="1" fill="#e6a50b"/>
<rect x="9" y="9" width="1" height="1" fill="#c18809"/>
<rect x="10" y="9" width="1" height="1" fill="#fcf0c2"/>
<rect x="11" y="9" width="1" height="1" fill="#fefef8"/>
<rect x="12" y="9" width="1" height="1" fill="#ffffff"/>
<rect x="13" y="9" width="1" height="1" fill="#ffffff"/>
<rect x="14" y="9" width="1" height="1" fill="#f3b80b"/>
<rect x="15" y="9" width="1" height="1" fill="#f3b80b"/>
<rect x="16" y="9" width="1" height="1" fill="#f3b80b"/>
<rect x="17" y="9" width="1" height="1" fill="#ffffff"/>
<rect x="18" y="9" width="1" height="1" fill="#f3b80b"/>
<rect x="19" y="9" width="1" height="1" fill="#f8dd6a"/>
<rect x="20" y="9" width="1" height="1" fill="#f9e385"/>
<rect x="21" y="9" width="1" height="1" fill="#fae9a2"/>
<rect x="22" y="9" width="1" height="1" fill="#fae9a2"/>
<rect x="23" y="9" width="1" height="1" fill="#f9e385"/>
<rect x="24" y="9" width="1" height="1" fill="#c18809"/>
<rect x="0" y="10" width="1" height="1" fill="#cc9109"/>
<rect x="1" y="10" width="1" height="1" fill="#cc9109"/>
<rect x="2" y="10" width="1" height="1" fill="#cc9109"/>
<rect x="3" y="10" width="1" height="1" fill="#cc9109"/>
<rect x="5" y="10" width="1" height="1" fill="#e6a50b"/>
<rect x="6" y="10" width="1" height="1" fill="#e6a50b"/>
<rect x="7" y="10" width="1" height="1" fill="#ffff08"/>
<rect x="8" y="10" width="1" height="1" fill="#ffff08"/>
<rect x="9" y="10" width="1" height="1" fill="#e6a50b"/>
<rect x="10" y="10" width="1" height="1" fill="#fae294"/>
<rect x="11" y="10" width="1" height="1" fill="#fcf4bf"/>
<rect x="12" y="10" width="1" height="1" fill="#fdf6e2"/>
<rect x="13" y="10" width="1" height="1" fill="#f3b80b"/>
<rect x="14" y="10" width="1" height="1" fill="#fcf4ce"/>
<rect x="15" y="10" width="1" height="1" fill="#ffffff"/>
<rect x="16" y="10" width="1" height="1" fill="#ffffff"/>
<rect x="17" y="10" width="1" height="1" fill="#fbe8a9"/>
<rect x="18" y="10" width="1" height="1" fill="#f3b80b"/>
<rect x="19" y="10" width="1" height="1" fill="#f8dd6a"/>
<rect x="20" y="10" width="1" height="1" fill="#f8dd6a"/>
<rect x="21" y="10" width="1" height="1" fill="#f3b80b"/>
<rect x="22" y="10" width="1" height="1" fill="#e2a10a"/>
<rect x="23" y="10" width="1" height="1" fill="#f8dd6a"/>
<rect x="24" y="10" width="1" height="1" fill="#c18809"/>
<rect x="0" y="11" width="1" height="1" fill="#cc9109"/>
<rect x="1" y="11" width="1" height="1" fill="#ffffff"/>
<rect x="2" y="11" width="1" height="1" fill="#ffffff"/>
<rect x="3" y="11" width="1" height="1" fill="#ffffff"/>
<rect x="4" y="11" width="1" height="1" fill="#e6a50b"/>
<rect x="5" y="11" width="1" height="1" fill="#ffff08"/>
<rect x="6" y="11" width="1" height="1" fill="#ffff08"/>
<rect x="7" y="11" width="1" height="1" fill="#e6a50b"/>
<rect x="8" y="11" width="1" height="1" fill="#ffff08"/>
<rect x="9" y="11" width="1" height="1" fill="#ffe008"/>
<rect x="10" y="11" width="1" height="1" fill="#e6a50b"/>
<rect x="11" y="11" width="1" height="1" fill="#fae294"/>
<rect x="12" y="11" width="1" height="1" fill="#e2a10a"/>
<rect x="13" y="11" width="1" height="1" fill="#fcf4ce"/>
<rect x="14" y="11" width="1" height="1" fill="#fbe8a9"/>
<rect x="15" y="11" width="1" height="1" fill="#fbe8a9"/>
<rect x="16" y="11" width="1" height="1" fill="#fae694"/>
<rect x="17" y="11" width="1" height="1" fill="#fae694"/>
<rect x="18" y="11" width="1" height="1" fill="#f3b80b"/>
<rect x="19" y="11" width="1" height="1" fill="#f3b80b"/>
<rect x="20" y="11" width="1" height="1" fill="#f3b80b"/>
<rect x="21" y="11" width="1" height="1" fill="#ffffff"/>
<rect x="22" y="11" width="1" height="1" fill="#e2a10a"/>
<rect x="23" y="11" width="1" height="1" fill="#f8dd6a"/>
<rect x="24" y="11" width="1" height="1" fill="#c18809"/>
<rect x="0" y="12" width="1" height="1" fill="#cc9109"/>
<rect x="1" y="12" width="1" height="1" fill="#ffffff"/>
<rect x="2" y="12" width="1" height="1" fill="#ffffff"/>
<rect x="3" y="12" width="1" height="1" fill="#ffffff"/>
<rect x="4" y="12" width="1" height="1" fill="#fdecdb"/>
<rect x="5" y="12" width="1" height="1" fill="#e6a50b"/>
<rect x="6" y="12" width="1" height="1" fill="#ffff08"/>
<rect x="7" y="12" width="1" height="1" fill="#ffe008"/>
<rect x="8" y="12" width="1" height="1" fill="#e6a50b"/>
<rect x="9" y="12" width="1" height="1" fill="#ffe008"/>
<rect x="10" y="12" width="1" height="1" fill="#ffe008"/>
<rect x="11" y="12" width="1" height="1" fill="#e6a50b"/>
<rect x="12" y="12" width="1" height="1" fill="#c38a09"/>
<rect x="13" y="12" width="1" height="1" fill="#fbe8a9"/>
<rect x="14" y="12" width="1" height="1" fill="#cc9109"/>
<rect x="15" y="12" width="1" height="1" fill="#cc9109"/>
<rect x="16" y="12" width="1" height="1" fill="#f8df71"/>
<rect x="17" y="12" width="1" height="1" fill="#f3b80b"/>
<rect x="18" y="12" width="1" height="1" fill="#fcf4ce"/>
<rect x="19" y="12" width="1" height="1" fill="#ffffff"/>
<rect x="20" y="12" width="1" height="1" fill="#ffffff"/>
<rect x="21" y="12" width="1" height="1" fill="#fbe8a9"/>
<rect x="22" y="12" width="1" height="1" fill="#e2a10a"/>
<rect x="23" y="12" width="1" height="1" fill="#c18809"/>
<rect x="0" y="13" width="1" height="1" fill="#cc9109"/>
<rect x="1" y="13" width="1" height="1" fill="#ffffff"/>
<rect x="2" y="13" width="1" height="1" fill="#ffffff"/>
<rect x="3" y="13" width="1" height="1" fill="#fdecdb"/>
<rect x="4" y="13" width="1" height="1" fill="#fdecdb"/>
<rect x="5" y="13" width="1" height="1" fill="#fdecdb"/>
<rect x="6" y="13" width="1" height="1" fill="#e6a50b"/>
<rect x="7" y="13" width="1" height="1" fill="#ffe008"/>
<rect x="8" y="13" width="1" height="1" fill="#ffe008"/>
<rect x="9" y="13" width="1" height="1" fill="#e6a50b"/>
<rect x="10" y="13" width="1" height="1" fill="#ffe008"/>
<rect x="11" y="13" width="1" height="1" fill="#ffd008"/>
<rect x="12" y="13" width="1" height="1" fill="#e6a50b"/>
<rect x="13" y="13" width="1" height="1" fill="#cc9109"/>
<rect x="14" y="13" width="1" height="1" fill="#fae895"/>
<rect x="15" y="13" width="1" height="1" fill="#f5cf38"/>
<rect x="16" y="13" width="1" height="1" fill="#cc9109"/>
<rect x="17" y="13" width="1" height="1" fill="#fcf4ce"/>
<rect x="18" y="13" width="1" height="1" fill="#fbe8a9"/>
<rect x="19" y="13" width="1" height="1" fill="#fbe8a9"/>
<rect x="20" y="13" width="1" height="1" fill="#f3b80b"/>
<rect x="21" y="13" width="1" height="1" fill="#e2a10a"/>
<rect x="22" y="13" width="1" height="1" fill="#c38a09"/>
<rect x="23" y="13" width="1" height="1" fill="#f6d344"/>
<rect x="24" y="13" width="1" height="1" fill="#e2a10a"/>
<rect x="0" y="14" width="1" height="1" fill="#cc9109"/>
<rect x="1" y="14" width="1" height="1" fill="#fdecdb"/>
<rect x="2" y="14" width="1" height="1" fill="#fdecdb"/>
<rect x="3" y="14" width="1" height="1" fill="#fdecdb"/>
<rect x="4" y="14" width="1" height="1" fill="#fdecdb"/>
<rect x="5" y="14" width="1" height="1" fill="#fae8a2"/>
<rect x="6" y="14" width="1" height="1" fill="#fae8a2"/>
<rect x="7" y="14" width="1" height="1" fill="#e6a50b"/>
<rect x="8" y="14" width="1" height="1" fill="#ffd008"/>
<rect x="9" y="14" width="1" height="1" fill="#ffd008"/>
<rect x="10" y="14" width="1" height="1" fill="#e6a50b"/>
<rect x="11" y="14" width="1" height="1" fill="#ffd008"/>
<rect x="12" y="14" width="1" height="1" fill="#cc9109"/>
<rect x="13" y="14" width="1" height="1" fill="#fae895"/>
<rect x="14" y="14" width="1" height="1" fill="#cc9109"/>
<rect x="15" y="14" width="1" height="1" fill="#cc9109"/>
<rect x="16" y="14" width="1" height="1" fill="#f5cf38"/>
<rect x="17" y="14" width="1" height="1" fill="#cc9109"/>
<rect x="18" y="14" width="1" height="1" fill="#fae694"/>
<rect x="19" y="14" width="1" height="1" fill="#f3b80b"/>
<rect x="20" y="14" width="1" height="1" fill="#fcf4ce"/>
<rect x="21" y="14" width="1" height="1" fill="#fcf4ce"/>
<rect x="22" y="14" width="1" height="1" fill="#ffffff"/>
<rect x="23" y="14" width="1" height="1" fill="#c38a09"/>
<rect x="24" y="14" width="1" height="1" fill="#e2a10a"/>
<rect x="1" y="15" width="1" height="1" fill="#cc9109"/>
<rect x="2" y="15" width="1" height="1" fill="#fae8a2"/>
<rect x="3" y="15" width="1" height="1" fill="#fae8a2"/>
<rect x="4" y="15" width="1" height="1" fill="#fae8a2"/>
<rect x="5" y="15" width="1" height="1" fill="#fae8a2"/>
<rect x="6" y="15" width="1" height="1" fill="#f8dd67"/>
<rect x="7" y="15" width="1" height="1" fill="#f8dd67"/>
<rect x="8" y="15" width="1" height="1" fill="#e6a50b"/>
<rect x="9" y="15" width="1" height="1" fill="#ffaf00"/>
<rect x="10" y="15" width="1" height="1" fill="#ffaf00"/>
<rect x="11" y="15" width="1" height="1" fill="#cc9109"/>
<rect x="12" y="15" width="1" height="1" fill="#f6d447"/>
<rect x="13" y="15" width="1" height="1" fill="#cc9109"/>
<rect x="14" y="15" width="1" height="1" fill="#f4c219"/>
<rect x="15" y="15" width="1" height="1" fill="#f4c219"/>
<rect x="16" y="15" width="1" height="1" fill="#cc9109"/>
<rect x="17" y="15" width="1" height="1" fill="#f4c219"/>
<rect x="18" y="15" width="1" height="1" fill="#cc9109"/>
<rect x="19" y="15" width="1" height="1" fill="#fae694"/>
<rect x="20" y="15" width="1" height="1" fill="#fae694"/>
<rect x="21" y="15" width="1" height="1" fill="#fae694"/>
<rect x="22" y="15" width="1" height="1" fill="#c38a09"/>
<rect x="23" y="15" width="1" height="1" fill="#f6d344"/>
<rect x="24" y="15" width="1" height="1" fill="#e2a10a"/>
<rect x="1" y="16" width="1" height="1" fill="#cc9109"/>
<rect x="2" y="16" width="1" height="1" fill="#f8dd67"/>
<rect x="3" y="16" width="1" height="1" fill="#f8dd67"/>
<rect x="4" y="16" width="1" height="1" fill="#f8dd67"/>
<rect x="5" y="16" width="1" height="1" fill="#f8dd67"/>
<rect x="6" y="16" width="1" height="1" fill="#f8dd67"/>
<rect x="7" y="16" width="1" height="1" fill="#f6d348"/>
<rect x="8" y="16" width="1" height="1" fill="#f6d348"/>
<rect x="9" y="16" width="1" height="1" fill="#e6a50b"/>
<rect x="10" y="16" width="1" height="1" fill="#ffaf00"/>
<rect x="11" y="16" width="1" height="1" fill="#cc9109"/>
<rect x="12" y="16" width="1" height="1" fill="#f4c219"/>
<rect x="13" y="16" width="1" height="1" fill="#cc9109"/>
<rect x="14" y="16" width="1" height="1" fill="#f4c219"/>
<rect x="15" y="16" width="1" height="1" fill="#f4c219"/>
<rect x="16" y="16" width="1" height="1" fill="#cc9109"/>
<rect x="17" y="16" width="1" height="1" fill="#f4c219"/>
<rect x="18" y="16" width="1" height="1" fill="#cc9109"/>
<rect x="19" y="16" width="1" height="1" fill="#f8df71"/>
<rect x="20" y="16" width="1" height="1" fill="#f8df71"/>
<rect x="21" y="16" width="1" height="1" fill="#c38a09"/>
<rect x="22" y="16" width="1" height="1" fill="#f6d344"/>
<rect x="23" y="16" width="1" height="1" fill="#b88208"/>
<rect x="0" y="17" width="1" height="1" fill="#cc9109"/>
<rect x="1" y="17" width="1" height="1" fill="#cc9109"/>
<rect x="2" y="17" width="1" height="1" fill="#cc9109"/>
<rect x="3" y="17" width="1" height="1" fill="#cc9109"/>
<rect x="4" y="17" width="1" height="1" fill="#cc9109"/>
<rect x="5" y="17" width="1" height="1" fill="#cc9109"/>
<rect x="6" y="17" width="1" height="1" fill="#cc9109"/>
<rect x="7" y="17" width="1" height="1" fill="#cc9109"/>
<rect x="8" y="17" width="1" height="1" fill="#cc9109"/>
<rect x="9" y="17" width="1" height="1" fill="#cc9109"/>
<rect x="10" y="17" width="1" height="1" fill="#cc9109"/>
<rect x="11" y="17" width="1" height="1" fill="#cc9109"/>
<rect x="12" y="17" width="1" height="1" fill="#cc9109"/>
<rect x="13" y="17" width="1" height="1" fill="#f4c219"/>
<rect x="14" y="17" width="1" height="1" fill="#cc9109"/>
<rect x="15" y="17" width="1" height="1" fill="#cc9109"/>
<rect x="16" y="17" width="1" height="1" fill="#f4c219"/>
<rect x="17" y="17" width="1" height="1" fill="#cc9109"/>
<rect x="18" y="17" width="1" height="1" fill="#c38a09"/>
<rect x="19" y="17" width="1" height="1" fill="#c38a09"/>
<rect x="20" y="17" width="1" height="1" fill="#c38a09"/>
<rect x="21" y="17" width="1" height="1" fill="#f6d344"/>
<rect x="22" y="17" width="1" height="1" fill="#b88208"/>
<rect x="23" y="17" width="1" height="1" fill="#e6a50b"/>
<rect x="0" y="18" width="1" height="1" fill="#cc9109"/>
<rect x="1" y="18" width="1" height="1" fill="#f6d54f"/>
<rect x="2" y="18" width="1" height="1" fill="#f6d54f"/>
<rect x="3" y="18" width="1" height="1" fill="#f6d54f"/>
<rect x="4" y="18" width="1" height="1" fill="#f6d54f"/>
<rect x="5" y="18" width="1" height="1" fill="#f6d54f"/>
<rect x="6" y="18" width="1" height="1" fill="#f6d54f"/>
<rect x="7" y="18" width="1" height="1" fill="#f6d54f"/>
<rect x="8" y="18" width="1" height="1" fill="#f6d54b"/>
<rect x="9" y="18" width="1" height="1" fill="#f6d13d"/>
<rect x="10" y="18" width="1" height="1" fill="#f6d13d"/>
<rect x="11" y="18" width="1" height="1" fill="#f5ce36"/>
<rect x="12" y="18" width="1" height="1" fill="#f5c725"/>
<rect x="13" y="18" width="1" height="1" fill="#cc9109"/>
<rect x="14" y="18" width="1" height="1" fill="#f4c219"/>
<rect x="15" y="18" width="1" height="1" fill="#f4c219"/>
<rect x="16" y="18" width="1" height="1" fill="#cc9109"/>
<rect x="17" y="18" width="1" height="1" fill="#f5ce36"/>
<rect x="18" y="18" width="1" height="1" fill="#f5ce36"/>
<rect x="19" y="18" width="1" height="1" fill="#f5ce36"/>
<rect x="20" y="18" width="1" height="1" fill="#b88208"/>
<rect x="21" y="18" width="1" height="1" fill="#b88208"/>
<rect x="22" y="18" width="1" height="1" fill="#f4c112"/>
<rect x="23" y="18" width="1" height="1" fill="#f3b30b"/>
<rect x="0" y="19" width="1" height="1" fill="#cc9109"/>
<rect x="1" y="19" width="1" height="1" fill="#cc9109"/>
<rect x="2" y="19" width="1" height="1" fill="#cc9109"/>
<rect x="3" y="19" width="1" height="1" fill="#cc9109"/>
<rect x="4" y="19" width="1" height="1" fill="#cc9109"/>
<rect x="5" y="19" width="1" height="1" fill="#cc9109"/>
<rect x="6" y="19" width="1" height="1" fill="#cc9109"/>
<rect x="7" y="19" width="1" height="1" fill="#cc9109"/>
<rect x="8" y="19" width="1" height="1" fill="#cc9109"/>
<rect x="9" y="19" width="1" height="1" fill="#cc9109"/>
<rect x="10" y="19" width="1" height="1" fill="#cc9109"/>
<rect x="11" y="19" width="1" height="1" fill="#cc9109"/>
<rect x="12" y="19" width="1" height="1" fill="#cc9109"/>
<rect x="14" y="19" width="1" height="1" fill="#cc9109"/>
<rect x="15" y="19" width="1" height="1" fill="#cc9109"/>
<rect x="17" y="19" width="1" height="1" fill="#b88208"/>
<rect x="18" y="19" width="1" height="1" fill="#b88208"/>
<rect x="19" y="19" width="1" height="1" fill="#b88208"/>
<rect x="20" y="19" width="1" height="1" fill="#dd9e0a"/>
<rect x="21" y="19" width="1" height="1" fill="#dd9e0a"/>
<rect x="22" y="19" width="1" height="1" fill="#dd9e0a"/>
<rect x="23" y="19" width="1" height="1" fill="#dd9e0a"/>
</svg>