<?xml version="1.0" encoding="UTF-8" standalone="no"?>
<svg xmlns="http://www.w3.org/2000/svg" width="26" height="21" shape-rendering="crispEdges">
<rect x="3" y="0" width="1" height="1" fill="#3df000"/>
<rect x="7" y="0" width="1" height="1" fill="#3df000"/>
<rect x="14" y="0" width="1" height="1" fill="#35b500"/>
<rect x="15" y="0" width="1" height="1" fill="#35b500"/>
<rect x="16" y="0" width="1" height="1" fill="#35b500"/>
<rect x="17" y="0" width="1" height="1" fill="#35b500"/>
<rect x="18" y="0" width="1" height="1" fill="#35b500"/>
<rect x="2" y="1" width="1" height="1" fill="#3df000"/>
<rect x="3" y="1" width="1" height="1" fill="#3bf102"/>
<rect x="4" y="1" width="1" height="1" fill="#3df000"/>
<rect x="6" y="1" width="1" height="1" fill="#3df000"/>
<rect x="7" y="1" width="1" height="1" fill="#3bf102"/>
<rect x="8" y="1" width="1" height="1" fill="#3df000"/>
<rect x="13" y="1" width="1" height="1" fill="#40e100"/>
<rect x="14" y="1" width="1" height="1" fill="#35b500"/>
<rect x="15" y="1" width="1" height="1" fill="#b9faa7"/>
<rect x="16" y="1" width="1" height="1" fill="#b9faa7"/>
<rect x="17" y="1" width="1" height="1" fill="#b6faa0"/>
<rect x="18" y="1" width="1" height="1" fill="#b6faa0"/>
<rect x="19" y="1" width="1" height="1" fill="#35b500"/>
<rect x="20" y="1" width="1" height="1" fill="#40e100"/>
<rect x="21" y="1" width="1" height="1" fill="#40e100"/>
<rect x="22" y="1" width="1" height="1" fill="#40e100"/>
<rect x="23" y="1" width="1" height="1" fill="#40e100"/>
<rect x="1" y="2" width="1" height="1" fill="#3df000"/>
<rect x="2" y="2" width="1" height="1" fill="#3bf102"/>
<rect x="3" y="2" width="1" height="1" fill="#3bf102"/>
<rect x="4" y="2" width="1" height="1" fill="#3bf102"/>
<rect x="5" y="2" width="1" height="1" fill="#3df000"/>
<rect x="7" y="2" width="1" height="1" fill="#3df000"/>
<rect x="12" y="2" width="1" height="1" fill="#40e100"/>
<rect x="13" y="2" width="1" height="1" fill="#ffff08"/>
<rect x="14" y="2" width="1" height="1" fill="#ffff08"/>
<rect x="15" y="2" width="1" height="1" fill="#35b500"/>
<rect x="16" y="2" width="1" height="1" fill="#e2fddb"/>
<rect x="17" y="2" width="1" height="1" fill="#e2fddb"/>
<rect x="18" y="2" width="1" height="1" fill="#e2fddb"/>
<rect x="19" y="2" width="1" height="1" fill="#c5fcb4"/>
<rect x="20" y="2" width="1" height="1" fill="#35b500"/>
<rect x="21" y="2" width="1" height="1" fill="#ffaf00"/>
<rect x="22" y="2" width="1" height="1" fill="#ffaf00"/>
<rect x="23" y="2" width="1" height="1" fill="#40e100"/>
<rect x="2" y="3" width="1" height="1" fill="#3df000"/>
<rect x="3" y="3" width="1" height="1" fill="#3bf102"/>
<rect x="4" y="3" width="1" height="1" fill="#3df000"/>
<rect x="11" y="3" width="1" height="1" fill="#40e100"/>
<rect x="12" y="3" width="1" height="1" fill="#ffff08"/>
<rect x="13" y="3" width="1" height="1" fill="#ffaf00"/>
<rect x="14" y="3" width="1" height="1" fill="#40e100"/>
<rect x="15" y="3" width="1" height="1" fill="#35b500"/>
<rect x="16" y="3" width="1" height="1" fill="#effee7"/>
<rect x="17" y="3" width="1" height="1" fill="#effee7"/>
<rect x="18" y="3" width="1" height="1" fill="#effee7"/>
<rect x="19" y="3" width="1" height="1" fill="#f0feec"/>
<rect x="20" y="3" width="1" height="1" fill="#bbfaa8"/>
<rect x="21" y="3" width="1" height="1" fill="#35b500"/>
<rect x="22" y="3" width="1" height="1" fill="#40e100"/>
<rect x="23" y="3" width="1" height="1" fill="#40e100"/>
<rect x="2" y="4" width="1" height="1" fill="#3df000"/>
<rect x="4" y="4" width="1" height="1" fill="#3df000"/>
<rect x="11" y="4" width="1" height="1" fill="#40e100"/>
<rect x="12" y="4" width="1" height="1" fill="#40e100"/>
<rect x="13" y="4" width="1" height="1" fill="#40e100"/>
<rect x="14" y="4" width="1" height="1" fill="#35b500"/>
<rect x="15" y="4" width="1" height="1" fill="#cafcba"/>
<rect x="16" y="4" width="1" height="1" fill="#ffffff"/>
<rect x="17" y="4" width="1" height="1" fill="#ffffff"/>
<rect x="18" y="4" width="1" height="1" fill="#ffffff"/>
<rect x="19" y="4" width="1" height="1" fill="#f9fff9"/>
<rect x="20" y="4" width="1" height="1" fill="#cffcc1"/>
<rect x="21" y="4" width="1" height="1" fill="#35b500"/>
<rect x="22" y="4" width="1" height="1" fill="#40e100"/>
<rect x="1" y="5" width="1" height="1" fill="#3df000"/>
<rect x="11" y="5" width="1" height="1" fill="#35b500"/>
<rect x="12" y="5" width="1" height="1" fill="#35b500"/>
<rect x="13" y="5" width="1" height="1" fill="#35b500"/>
<rect x="14" y="5" width="1" height="1" fill="#cafcba"/>
<rect x="15" y="5" width="1" height="1" fill="#eefee5"/>
<rect x="16" y="5" width="1" height="1" fill="#ffffff"/>
<rect x="17" y="5" width="1" height="1" fill="#ffffff"/>
<rect x="18" y="5" width="1" height="1" fill="#ffffff"/>
<rect x="19" y="5" width="1" height="1" fill="#e4fdd3"/>
<rect x="20" y="5" width="1" height="1" fill="#cffcc1"/>
<rect x="21" y="5" width="1" height="1" fill="#92f873"/>
<rect x="22" y="5" width="1" height="1" fill="#35b500"/>
<rect x="0" y="6" width="1" height="1" fill="#3df000"/>
<rect x="1" y="6" width="1" height="1" fill="#3bf102"/>
<rect x="2" y="6" width="1" height="1" fill="#3df000"/>
<rect x="10" y="6" width="1" height="1" fill="#35b500"/>
<rect x="11" y="6" width="1" height="1" fill="#b5faa2"/>
<rect x="12" y="6" width="1" height="1" fill="#c6fcba"/>
<rect x="13" y="6" width="1" height="1" fill="#c6fcba"/>
<rect x="14" y="6" width="1" height="1" fill="#eefee5"/>
<rect x="15" y="6" width="1" height="1" fill="#ffffff"/>
<rect x="16" y="6" width="1" height="1" fill="#ffffff"/>
<rect x="17" y="6" width="1" height="1" fill="#ffffff"/>
<rect x="18" y="6" width="1" height="1" fill="#e4fdd3"/>
<rect x="19" y="6" width="1" height="1" fill="#cffcc1"/>
<rect x="20" y="6" width="1" height="1" fill="#aaf992"/>
<rect x="21" y="6" width="1" height="1" fill="#98f87a"/>
<rect x="22" y="6" width="1" height="1" fill="#35b500"/>
<rect x="24" y="6" width="1" height="1" fill="#35b500"/>
<rect x="1" y="7" width="1" height="1" fill="#3df000"/>
<rect x="9" y="7" width="1" height="1" fill="#35b500"/>
<rect x="10" y="7" width="1" height="1" fill="#a2f982"/>
<rect x="11" y="7" width="1" height="1" fill="#cefdc6"/>
<rect x="12" y="7" width="1" height="1" fill="#eefee5"/>
<rect x="13" y="7" width="1" height="1" fill="#eefee5"/>
<rect x="14" y="7" width="1" height="1" fill="#ffffff"/>
<rect x="15" y="7" width="1" height="1" fill="#ffffff"/>
<rect x="16" y="7" width="1" height="1" fill="#e4fdd3"/>
<rect x="17" y="7" width="1" height="1" fill="#e4fdd3"/>
<rect x="18" y="7" width="1" height="1" fill="#cffcc1"/>
<rect x="19" y="7" width="1" height="1" fill="#aaf992"/>
<rect x="20" y="7" width="1" height="1" fill="#aaf992"/>
<rect x="21" y="7" width="1" height="1" fill="#9af878"/>
<rect x="22" y="7" width="1" height="1" fill="#3cd900"/>
<rect x="23" y="7" width="1" height="1" fill="#35b500"/>
<rect x="24" y="7" width="1" height="1" fill="#35b500"/>
<rect x="9" y="8" width="1" height="1" fill="#35b500"/>
<rect x="10" y="8" width="1" height="1" fill="#b4faa2"/>
<rect x="11" y="8" width="1" height="1" fill="#fdfff9"/>
<rect x="12" y="8" width="1" height="1" fill="#ffffff"/>
<rect x="13" y="8" width="1" height="1" fill="#ffffff"/>
<rect x="14" y="8" width="1" height="1" fill="#ffffff"/>
<rect x="15" y="8" width="1" height="1" fill="#e4fdd3"/>
<rect x="16" y="8" width="1" height="1" fill="#e4fdd3"/>
<rect x="17" y="8" width="1" height="1" fill="#3cf000"/>
<rect x="18" y="8" width="1" height="1" fill="#3cf000"/>
<rect x="19" y="8" width="1" height="1" fill="#79f754"/>
<rect x="20" y="8" width="1" height="1" fill="#91f871"/>
<rect x="21" y="8" width="1" height="1" fill="#79f754"/>
<rect x="22" y="8" width="1" height="1" fill="#aaf992"/>
<rect x="23" y="8" width="1" height="1" fill="#91f871"/>
<rect x="24" y="8" width="1" height="1" fill="#35b500"/>
<rect x="7" y="9" width="1" height="1" fill="#40e100"/>
<rect x="8" y="9" width="1" height="1" fill="#40e100"/>
<rect x="9" y="9" width="1" height="1" fill="#35b500"/>
<rect x="10" y="9" width="1" height="1" fill="#c8fcb6"/>
<rect x="11" y="9" width="1" height="1" fill="#f7fef7"/>
<rect x="12" y="9" width="1" height="1" fill="#ffffff"/>
<rect x="13" y="9" width="1" height="1" fill="#ffffff"/>
<rect x="14" y="9" width="1" height="1" fill="#3cf000"/>
<rect x="15" y="9" width="1" height="1" fill="#3cf000"/>
<rect x="16" y="9" width="1" height="1" fill="#3cf000"/>
<rect x="17" y="9" width="1" height="1" fill="#ffffff"/>
<rect x="18" y="9" width="1" height="1" fill="#3cf000"/>
<rect x="19" y="9" width="1" height="1" fill="#79f754"/>
<rect x="20" y="9" width="1" height="1" fill="#91f871"/>
<rect x="21" y="9" width="1" height="1" fill="#aaf992"/>
<rect x="22" y="9" width="1" height="1" fill="#aaf992"/>
<rect x="23" y="9" width="1" height="1" fill="#91f871"/>
<rect x="24" y="9" width="1" height="1" fill="#35b500"/>
<rect x="0" y="10" width="1" height="1" fill="#38c200"/>
<rect x="1" y="10" width="1" height="1" fill="#38c200"/>
<rect x="2" y="10" width="1" height="1" fill="#38c200"/>
<rect x="3" y="10" width="1" height="1" fill="#38c200"/>
<rect x="5" y="10" width="1" height="1" fill="#40e100"/>
<rect x="6" y="10" width="1" height="1" fill="#40e100"/>
<rect x="7" y="10" width="1" height="1" fill="#ffff08"/>
<rect x="8" y="10" width="1" height="1" fill="#ffff08"/>
<rect x="9" y="10" width="1" height="1" fill="#40e100"/>
<rect x="10" y="10" width="1" height="1" fill="#a2f982"/>
<rect x="11" y="10" width="1" height="1" fill="#c0fcb3"/>
<rect x="12" y="10" width="1" height="1" fill="#e6fddc"/>
<rect x="13" y="10" width="1" height="1" fill="#3cf000"/>
<rect x="14" y="10" width="1" height="1" fill="#d0fcc4"/>
<rect x="15" y="10" width="1" height="1" fill="#ffffff"/>
<rect x="16" y="10" width="1" height="1" fill="#ffffff"/>
<rect x="17" y="10" width="1" height="1" fill="#b4fa9a"/>
<rect x="18" y="10" width="1" height="1" fill="#3cf000"/>
<rect x="19" y="10" width="1" height="1" fill="#79f754"/>
<rect x="20" y="10" width="1" height="1" fill="#79f754"/>
<rect x="21" y="10" width="1" height="1" fill="#3cf000"/>
<rect x="22" y="10" width="1" height="1" fill="#3fdc00"/>
<rect x="23" y="10" width="1" height="1" fill="#79f754"/>
<rect x="24" y="10" width="1" height="1" fill="#35b500"/>
<rect x="0" y="11" width="1" height="1" fill="#38c200"/>
<rect x="1" y="11" width="1" height="1" fill="#ffffff"/>
<rect x="2" y="11" width="1" height="1" fill="#ffffff"/>
<rect x="3" y="11" width="1" height="1" fill="#ffffff"/>
<rect x="4" y="11" width="1" height="1" fill="#40e100"/>
<rect x="5" y="11" width="1" height="1" fill="#ffff08"/>
<rect x="6" y="11" width="1" height="1" fill="#ffff08"/>
<rect x="7" y="11" width="1" height="1" fill="#40e100"/>
<rect x="8" y="11" width="1" height="1" fill="#ffff08"/>
<rect x="9" y="11" width="1" height="1" fill="#ffe008"/>
<rect x="10" y="11" width="1" height="1" fill="#40e100"/>
<rect x="11" y="11" width="1" height="1" fill="#a2f982"/>
<rect x="12" y="11" width="1" height="1" fill="#3fdc00"/>
<rect x="13" y="11" width="1" height="1" fill="#d0fcc4"/>
<rect x="14" y="11" width="1" height="1" fill="#b4fa9a"/>
<rect x="15" y="11" width="1" height="1" fill="#b4fa9a"/>
<rect x="16" y="11" width="1" height="1" fill="#9ef982"/>
<rect x="17" y="11" width="1" height="1" fill="#9ef982"/>
<rect x="18" y="11" width="1" height="1" fill="#3cf000"/>
<rect x="19" y="11" width="1" height="1" fill="#3cf000"/>
<rect x="20" y="11" width="1" height="1" fill="#3cf000"/>
<rect x="21" y="11" width="1" height="1" fill="#ffffff"/>
<rect x="22" y="11" width="1" height="1" fill="#3fdc00"/>
<rect x="23" y="11" width="1" height="1" fill="#79f754"/>
<rect x="24" y="11" width="1" height="1" fill="#35b500"/>
<rect x="0" y="12" width="1" height="1" fill="#38c200"/>
<rect x="1" y="12" width="1" height="1" fill="#ffffff"/>
<rect x="2" y="12" width="1" height="1" fill="#ffffff"/>
<rect x="3" y="12" width="1" height="1" fill="#ffffff"/>
<rect x="4" y="12" width="1" height="1" fill="#eafdd4"/>
<rect x="5" y="12" width="1" height="1" fill="#40e100"/>
<rect x="6" y="12" width="1" height="1" fill="#ffff08"/>
<rect x="7" y="12" width="1" height="1" fill="#ffe008"/>
<rect x="8" y="12" width="1" height="1" fill="#40e100"/>
<rect x="9" y="12" width="1" height="1" fill="#ffe008"/>
<rect x="10" y="12" width="1" height="1" fill="#ffe008"/>
<rect x="11" y="12" width="1" height="1" fill="#40e100"/>
<rect x="12" y="12" width="1" height="1" fill="#35b800"/>
<rect x="13" y="12" width="1" height="1" fill="#b4fa9a"/>
<rect x="14" y="12" width="1" height="1" fill="#38c200"/>
<rect x="15" y="12" width="1" height="1" fill="#38c200"/>
<rect x="16" y="12" width="1" height="1" fill="#7ff75c"/>
<rect x="17" y="12" width="1" height="1" fill="#3cf000"/>
<rect x="18" y="12" width="1" height="1" fill="#d0fcc4"/>
<rect x="19" y="12" width="1" height="1" fill="#ffffff"/>
<rect x="20" y="12" width="1" height="1" fill="#ffffff"/>
<rect x="21" y="12" width="1" height="1" fill="#b4fa9a"/>
<rect x="22" y="12" width="1" height="1" fill="#3fdc00"/>
<rect x="23" y="12" width="1" height="1" fill="#35b500"/>
<rect x="0" y="13" width="1" height="1" fill="#38c200"/>
<rect x="1" y="13" width="1" height="1" fill="#ffffff"/>
<rect x="2" y="13" width="1" height="1" fill="#ffffff"/>
<rect x="3" y="13" width="1" height="1" fill="#eafdd4"/>
<rect x="4" y="13" width="1" height="1" fill="#eafdd4"/>
<rect x="5" y="13" width="1" height="1" fill="#eafdd4"/>
<rect x="6" y="13" width="1" height="1" fill="#40e100"/>
<rect x="7" y="13" width="1" height="1" fill="#ffe008"/>
<rect x="8" y="13" width="1" height="1" fill="#ffe008"/>
<rect x="9" y="13" width="1" height="1" fill="#40e100"/>
<rect x="10" y="13" width="1" height="1" fill="#ffe008"/>
<rect x="11" y="13" width="1" height="1" fill="#ffd008"/>
<rect x="12" y="13" width="1" height="1" fill="#40e100"/>
<rect x="13" y="13" width="1" height="1" fill="#38c200"/>
<rect x="14" y="13" width="1" height="1" fill="#9df983"/>
<rect x="15" y="13" width="1" height="1" fill="#51f222"/>
<rect x="16" y="13" width="1" height="1" fill="#38c200"/>
<rect x="17" y="13" width="1" height="1" fill="#d0fcc4"/>
<rect x="18" y="13" width="1" height="1" fill="#b4fa9a"/>
<rect x="19" y="13" width="1" height="1" fill="#b4fa9a"/>
<rect x="20" y="13" width="1" height="1" fill="#3cf000"/>
<rect x="21" y="13" width="1" height="1" fill="#3fdc00"/>
<rect x="22" y="13" width="1" height="1" fill="#35b800"/>
<rect x="23" y="13" width="1" height="1" fill="#5bf42e"/>
<rect x="24" y="13" width="1" height="1" fill="#3fdc00"/>
<rect x="0" y="14" width="1" height="1" fill="#38c200"/>
<rect x="1" y="14" width="1" height="1" fill="#eafdd4"/>
<rect x="2" y="14" width="1" height="1" fill="#eafdd4"/>
<rect x="3" y="14" width="1" height="1" fill="#eafdd4"/>
<rect x="4" y="14" width="1" height="1" fill="#eafdd4"/>
<rect x="5" y="14" width="1" height="1" fill="#abf992"/>
<rect x="6" y="14" width="1" height="1" fill="#abf992"/>
<rect x="7" y="14" width="1" height="1" fill="#40e100"/>
<rect x="8" y="14" width="1" height="1" fill="#ffd008"/>
<rect x="9" y="14" width="1" height="1" fill="#ffd008"/>
<rect x="10" y="14" width="1" height="1" fill="#40e100"/>
<rect x="11" y="14" width="1" height="1" fill="#ffd008"/>
<rect x="12" y="14" width="1" height="1" fill="#38c200"/>
<rect x="13" y="14" width="1" height="1" fill="#9df983"/>
<rect x="14" y="14" width="1" height="1" fill="#38c200"/>
<rect x="15" y="14" width="1" height="1" fill="#38c200"/>
<rect x="16" y="14" width="1" height="1" fill="#51f222"/>
<rect x="17" y="14" width="1" height="1" fill="#38c200"/>
<rect x="18" y="14" width="1" height="1" fill="#9ef982"/>
<rect x="19" y="14" width="1" height="1" fill="#3cf000"/>
<rect x="20" y="14" width="1" height="1" fill="#d0fcc4"/>
<rect x="21" y="14" width="1" height="1" fill="#d0fcc4"/>
<rect x="22" y="14" width="1" height="1" fill="#ffffff"/>
<rect x="23" y="14" width="1" height="1" fill="#35b800"/>
<rect x="24" y="14" width="1" height="1" fill="#3fdc00"/>
<rect x="1" y="15" width="1" height="1" fill="#38c200"/>
<rect x="2" y="15" width="1" height="1" fill="#abf992"/>
<rect x="3" y="15" width="1" height="1" fill="#abf992"/>
<rect x="4" y="15" width="1" height="1" fill="#abf992"/>
<rect x="5" y="15" width="1" height="1" fill="#abf992"/>
<rect x="6" y="15" width="1" height="1" fill="#76f751"/>
<rect x="7" y="15" width="1" height="1" fill="#76f751"/>
<rect x="8" y="15" width="1" height="1" fill="#40e100"/>
<rect x="9" y="15" width="1" height="1" fill="#ffaf00"/>
<rect x="10" y="15" width="1" height="1" fill="#ffaf00"/>
<rect x="11" y="15" width="1" height="1" fill="#38c200"/>
<rect x="12" y="15" width="1" height="1" fill="#5df430"/>
<rect x="13" y="15" width="1" height="1" fill="#38c200"/>
<rect x="14" y="15" width="1" height="1" fill="#3ff108"/>
<rect x="15" y="15" width="1" height="1" fill="#3ff108"/>
<rect x="16" y="15" width="1" height="1" fill="#38c200"/>
<rect x="17" y="15" width="1" height="1" fill="#3ff108"/>
<rect x="18" y="15" width="1" height="1" fill="#38c200"/>
<rect x="19" y="15" width="1" height="1" fill="#9ef982"/>
<rect x="20" y="15" width="1" height="1" fill="#9ef982"/>
<rect x="21" y="15" width="1" height="1" fill="#9ef982"/>
<rect x="22" y="15" width="1" height="1" fill="#35b800"/>
<rect x="23" y="15" width="1" height="1" fill="#5bf42e"/>
<rect x="24" y="15" width="1" height="1" fill="#3fdc00"/>
<rect x="1" y="16" width="1" height="1" fill="#38c200"/>
<rect x="2" y="16" width="1" height="1" fill="#76f751"/>
<rect x="3" y="16" width="1" height="1" fill="#76f751"/>
<rect x="4" y="16" width="1" height="1" fill="#76f751"/>
<rect x="5" y="16" width="1" height="1" fill="#76f751"/>
<rect x="6" y="16" width="1" height="1" fill="#76f751"/>
<rect x="7" y="16" width="1" height="1" fill="#5ef431"/>
<rect x="8" y="16" width="1" height="1" fill="#5ef431"/>
<rect x="9" y="16" width="1" height="1" fill="#40e100"/>
<rect x="10" y="16" width="1" height="1" fill="#ffaf00"/>
<rect x="11" y="16" width="1" height="1" fill="#38c200"/>
<rect x="12" y="16" width="1" height="1" fill="#3ff108"/>
<rect x="13" y="16" width="1" height="1" fill="#38c200"/>
<rect x="14" y="16" width="1" height="1" fill="#3ff108"/>
<rect x="15" y="16" width="1" height="1" fill="#3ff108"/>
<rect x="16" y="16" width="1" height="1" fill="#38c200"/>
<rect x="17" y="16" width="1" height="1" fill="#3ff108"/>
<rect x="18" y="16" width="1" height="1" fill="#38c200"/>
<rect x="19" y="16" width="1" height="1" fill="#7ff75c"/>
<rect x="20" y="16" width="1" height="1" fill="#7ff75c"/>
<rect x="21" y="16" width="1" height="1" fill="#35b800"/>
<rect x="22" y="16" width="1" height="1" fill="#5bf42e"/>
<rect x="23" y="16" width="1" height="1" fill="#30ab00"/>
<rect x="0" y="17" width="1" height="1" fill="#38c200"/>
<rect x="1" y="17" width="1" height="1" fill="#38c200"/>
<rect x="2" y="17" width="1" height="1" fill="#38c200"/>
<rect x="3" y="17" width="1" height="1" fill="#38c200"/>
<rect x="4" y="17" width="1" height="1" fill="#38c200"/>
<rect x="5" y="17" width="1" height="1" fill="#38c200"/>
<rect x="6" y="17" width="1" height="1" fill="#38c200"/>
<rect x="7" y="17" width="1" height="1" fill="#38c200"/>
<rect x="8" y="17" width="1" height="1" fill="#38c200"/>
<rect x="9" y="17" width="1" height="1" fill="#38c200"/>
<rect x="10" y="17" width="1" height="1" fill="#38c200"/>
<rect x="11" y="17" width="1" height="1" fill="#38c200"/>
<rect x="12" y="17" width="1" height="1" fill="#38c200"/>
<rect x="13" y="17" width="1" height="1" fill="#3ff108"/>
<rect x="14" y="17" width="1" height="1" fill="#38c200"/>
<rect x="15" y="17" width="1" height="1" fill="#38c200"/>
<rect x="16" y="17" width="1" height="1" fill="#3ff108"/>
<rect x="17" y="17" width="1" height="1" fill="#38c200"/>
<rect x="18" y="17" width="1" height="1" fill="#35b800"/>
<rect x="19" y="17" width="1" height="1" fill="#35b800"/>
<rect x="20" y="17" width="1" height="1" fill="#35b800"/>
<rect x="21" y="17" width="1" height="1" fill="#5bf42e"/>
<rect x="22" y="17" width="1" height="1" fill="#30ab00"/>
<rect x="23" y="17" width="1" height="1" fill="#40e100"/>
<rect x="0" y="18" width="1" height="1" fill="#38c200"/>
<rect x="1" y="18" width="1" height="1" fill="#63f439"/>
<rect x="2" y="18" width="1" height="1" fill="#63f439"/>
<rect x="3" y="18" width="1" height="1" fill="#63f439"/>
<rect x="4" y="18" width="1" height="1" fill="#63f439"/>
<rect x="5" y="18" width="1" height="1" fill="#63f439"/>
<rect x="6" y="18" width="1" height="1" fill="#63f439"/>
<rect x="7" y="18" width="1" height="1" fill="#63f439"/>
<rect x="8" y="18" width="1" height="1" fill="#5ff435"/>
<rect x="9" y="18" width="1" height="1" fill="#55f427"/>
<rect x="10" y="18" width="1" height="1" fill="#55f427"/>
<rect x="11" y="18" width="1" height="1" fill="#50f220"/>
<rect x="12" y="18" width="1" height="1" fill="#47f211"/>
<rect x="13" y="18" width="1" height="1" fill="#38c200"/>
<rect x="14" y="18" width="1" height="1" fill="#3ff108"/>
<rect x="15" y="18" width="1" height="1" fill="#3ff108"/>
<rect x="16" y="18" width="1" height="1" fill="#38c200"/>
<rect x="17" y="18" width="1" height="1" fill="#50f220"/>
<rect x="18" y="18" width="1" height="1" fill="#50f220"/>
<rect x="19" y="18" width="1" height="1" fill="#50f220"/>
<rect x="20" y="18" width="1" height="1" fill="#30ab00"/>
<rect x="21" y="18" width="1" height="1" fill="#30ab00"/>
<rect x="22" y="18" width="1" height="1" fill="#3bf102"/>
<rect x="23" y="18" width="1" height="1" fill="#3ff000"/>
<rect x="0" y="19" width="1" height="1" fill="#38c200"/>
<rect x="1" y="19" width="1" height="1" fill="#38c200"/>
<rect x="2" y="19" width="1" height="1" fill="#38c200"/>
<rect x="3" y="19" width="1" height="1" fill="#38c200"/>
<rect x="4" y="19" width="1" height="1" fill="#38c200"/>
<rect x="5" y="19" width="1" height="1" fill="#38c200"/>
<rect x="6" y="19" width="1" height="1" fill="#38c200"/>
<rect x="7" y="19" width="1" height="1" fill="#38c200"/>
<rect x="8" y="19" width="1" height="1" fill="#38c200"/>
<rect x="9" y="19" width="1" height="1" fill="#38c200"/>
<rect x="10" y="19" width="1" height="1" fill="#38c200"/>
<rect x="11" y="19" width="1" height="1" fill="#38c200"/>
<rect x="12" y="19" width="1" height="1" fill="#38c200"/>
<rect x="14" y="19" width="1" height="1" fill="#38c200"/>
<rect x="15" y="19" width="1" height="1" fill="#38c200"/>
<rect x="17" y="19" width="1" height="1" fill="#30ab00"/>
<rect x="18" y="19" width="1" height="1" fill="#30ab00"/>
<rect x="19" y="19" width="1" height="1" fill="#30ab00"/>
<rect x="20" y="19" width="1" height="1" fill="#3dd600"/>
<rect x="21" y="19" width="1" height="1" fill="#3dd600"/>
<rect x="22" y="19" width="1" height="1" fill="#3dd600"/>
<rect x="23" y="19" width="1" height="1" fill="#3dd600"/>
</svg>