<?xml version="1.0" encoding="UTF-8" standalone="no"?>
<svg xmlns="http://www.w3.org/2000/svg" width="26" height="21" shape-rendering="crispEdges">
<rect x="3" y="0" width="1" height="1" fill="#00acfb"/>
<rect x="7" y="0" width="1" height="1" fill="#00acfb"/>
<rect x="14" y="0" width="1" height="1" fill="#008bc2"/>
<rect x="15" y="0" width="1" height="1" fill="#008bc2"/>
<rect x="16" y="0" width="1" height="1" fill="#008bc2"/>
<rect x="17" y="0" width="1" height="1" fill="#008bc2"/>
<rect x="18" y="0" width="1" height="1" fill="#008bc2"/>
<rect x="2" y="1" width="1" height="1" fill="#00acfb"/>
<rect x="3" y="1" width="1" height="1" fill="#03abfc"/>
<rect x="4" y="1" width="1" height="1" fill="#00acfb"/>
<rect x="6" y="1" width="1" height="1" fill="#00acfb"/>
<rect x="7" y="1" width="1" height="1" fill="#03abfc"/>
<rect x="8" y="1" width="1" height="1" fill="#00acfb"/>
<rect x="13" y="1" width="1" height="1" fill="#00a9ec"/>
<rect x="14" y="1" width="1" height="1" fill="#008bc2"/>
<rect x="15" y="1" width="1" height="1" fill="#b4e7ff"/>
<rect x="16" y="1" width="1" height="1" fill="#b4e7ff"/>
<rect x="17" y="1" width="1" height="1" fill="#ade6ff"/>
<rect x="18" y="1" width="1" height="1" fill="#ade6ff"/>
<rect x="19" y="1" width="1" height="1" fill="#008bc2"/>
<rect x="20" y="1" width="1" height="1" fill="#00a9ec"/>
<rect x="21" y="1" width="1" height="1" fill="#00a9ec"/>
<rect x="22" y="1" width="1" height="1" fill="#00a9ec"/>
<rect x="23" y="1" width="1" height="1" fill="#00a9ec"/>
<rect x="1" y="2" width="1" height="1" fill="#00acfb"/>
<rect x="2" y="2" width="1" height="1" fill="#03abfc"/>
<rect x="3" y="2" width="1" height="1" fill="#03abfc"/>
<rect x="4" y="2" width="1" height="1" fill="#03abfc"/>
<rect x="5" y="2" width="1" height="1" fill="#00acfb"/>
<rect x="7" y="2" width="1" height="1" fill="#00acfb"/>
<rect x="12" y="2" width="1" height="1" fill="#00a9ec"/>
<rect x="13" y="2" width="1" height="1" fill="#ffff08"/>
<rect x="14" y="2" width="1" height="1" fill="#ffff08"/>
<rect x="15" y="2" width="1" height="1" fill="#008bc2"/>
<rect x="16" y="2" width="1" height="1" fill="#e7fbff"/>
<rect x="17" y="2" width="1" height="1" fill="#e7fbff"/>
<rect x="18" y="2" width="1" height="1" fill="#e7fbff"/>
<rect x="19" y="2" width="1" height="1" fill="#c1edff"/>
<rect x="20" y="2" width="1" height="1" fill="#008bc2"/>
<rect x="21" y="2" width="1" height="1" fill="#ffaf00"/>
<rect x="22" y="2" width="1" height="1" fill="#ffaf00"/>
<rect x="23" y="2" width="1" height="1" fill="#00a9ec"/>
<rect x="2" y="3" width="1" height="1" fill="#00acfb"/>
<rect x="3" y="3" width="1" height="1" fill="#03abfc"/>
<rect x="4" y="3" width="1" height="1" fill="#00acfb"/>
<rect x="11" y="3" width="1" height="1" fill="#00a9ec"/>
<rect x="12" y="3" width="1" height="1" fill="#ffff08"/>
<rect x="13" y="3" width="1" height="1" fill="#ffaf00"/>
<rect x="14" y="3" width="1" height="1" fill="#00a9ec"/>
<rect x="15" y="3" width="1" height="1" fill="#008bc2"/>
<rect x="16" y="3" width="1" height="1" fill="#f3ffff"/>
<rect x="17" y="3" width="1" height="1" fill="#f3ffff"/>
<rect x="18" y="3" width="1" height="1" fill="#f3ffff"/>
<rect x="19" y="3" width="1" height="1" fill="#f8ffff"/>
<rect x="20" y="3" width="1" height="1" fill="#b5e8ff"/>
<rect x="21" y="3" width="1" height="1" fill="#008bc2"/>
<rect x="22" y="3" width="1" height="1" fill="#00a9ec"/>
<rect x="23" y="3" width="1" height="1" fill="#00a9ec"/>
<rect x="2" y="4" width="1" height="1" fill="#00acfb"/>
<rect x="4" y="4" width="1" height="1" fill="#00acfb"/>
<rect x="11" y="4" width="1" height="1" fill="#00a9ec"/>
<rect x="12" y="4" width="1" height="1" fill="#00a9ec"/>
<rect x="13" y="4" width="1" height="1" fill="#00a9ec"/>
<rect x="14" y="4" width="1" height="1" fill="#008bc2"/>
<rect x="15" y="4" width="1" height="1" fill="#c7f1ff"/>
<rect x="16" y="4" width="1" height="1" fill="#ffffff"/>
<rect x="17" y="4" width="1" height="1" fill="#ffffff"/>
<rect x="18" y="4" width="1" height="1" fill="#ffffff"/>
<rect x="19" y="4" width="1" height="1" fill="#ffffff"/>
<rect x="20" y="4" width="1" height="1" fill="#cdf3ff"/>
<rect x="21" y="4" width="1" height="1" fill="#008bc2"/>
<rect x="22" y="4" width="1" height="1" fill="#00a9ec"/>
<rect x="1" y="5" width="1" height="1" fill="#00acfb"/>
<rect x="11" y="5" width="1" height="1" fill="#008bc2"/>
<rect x="12" y="5" width="1" height="1" fill="#008bc2"/>
<rect x="13" y="5" width="1" height="1" fill="#008bc2"/>
<rect x="14" y="5" width="1" height="1" fill="#c7f1ff"/>
<rect x="15" y="5" width="1" height="1" fill="#f0ffff"/>
<rect x="16" y="5" width="1" height="1" fill="#ffffff"/>
<rect x="17" y="5" width="1" height="1" fill="#ffffff"/>
<rect x="18" y="5" width="1" height="1" fill="#ffffff"/>
<rect x="19" y="5" width="1" height="1" fill="#dfffff"/>
<rect x="20" y="5" width="1" height="1" fill="#cdf3ff"/>
<rect x="21" y="5" width="1" height="1" fill="#80d4ff"/>
<rect x="22" y="5" width="1" height="1" fill="#008bc2"/>
<rect x="0" y="6" width="1" height="1" fill="#00acfb"/>
<rect x="1" y="6" width="1" height="1" fill="#03abfc"/>
<rect x="2" y="6" width="1" height="1" fill="#00acfb"/>
<rect x="10" y="6" width="1" height="1" fill="#008bc2"/>
<rect x="11" y="6" width="1" height="1" fill="#afe4ff"/>
<rect x="12" y="6" width="1" height="1" fill="#c7edff"/>
<rect x="13" y="6" width="1" height="1" fill="#c7edff"/>
<rect x="14" y="6" width="1" height="1" fill="#f0ffff"/>
<rect x="15" y="6" width="1" height="1" fill="#ffffff"/>
<rect x="16" y="6" width="1" height="1" fill="#ffffff"/>
<rect x="17" y="6" width="1" height="1" fill="#ffffff"/>
<rect x="18" y="6" width="1" height="1" fill="#dfffff"/>
<rect x="19" y="6" width="1" height="1" fill="#cdf3ff"/>
<rect x="20" y="6" width="1" height="1" fill="#9fe0ff"/>
<rect x="21" y="6" width="1" height="1" fill="#87d8ff"/>
<rect x="22" y="6" width="1" height="1" fill="#008bc2"/>
<rect x="24" y="6" width="1" height="1" fill="#008bc2"/>
<rect x="1" y="7" width="1" height="1" fill="#00acfb"/>
<rect x="9" y="7" width="1" height="1" fill="#008bc2"/>
<rect x="10" y="7" width="1" height="1" fill="#8fdfff"/>
<rect x="11" y="7" width="1" height="1" fill="#d2efff"/>
<rect x="12" y="7" width="1" height="1" fill="#f0ffff"/>
<rect x="13" y="7" width="1" height="1" fill="#f0ffff"/>
<rect x="14" y="7" width="1" height="1" fill="#ffffff"/>
<rect x="15" y="7" width="1" height="1" fill="#ffffff"/>
<rect x="16" y="7" width="1" height="1" fill="#dfffff"/>
<rect x="17" y="7" width="1" height="1" fill="#dfffff"/>
<rect x="18" y="7" width="1" height="1" fill="#cdf3ff"/>
<rect x="19" y="7" width="1" height="1" fill="#9fe0ff"/>
<rect x="20" y="7" width="1" height="1" fill="#9fe0ff"/>
<rect x="21" y="7" width="1" height="1" fill="#85dbff"/>
<rect x="22" y="7" width="1" height="1" fill="#00a1e5"/>
<rect x="23" y="7" width="1" height="1" fill="#008bc2"/>
<rect x="24" y="7" width="1" height="1" fill="#008bc2"/>
<rect x="9" y="8" width="1" height="1" fill="#008bc2"/>
<rect x="10" y="8" width="1" height="1" fill="#afe4ff"/>
<rect x="11" y="8" width="1" height="1" fill="#ffffff"/>
<rect x="12" y="8" width="1" height="1" fill="#ffffff"/>
<rect x="13" y="8" width="1" height="1" fill="#ffffff"/>
<rect x="14" y="8" width="1" height="1" fill="#ffffff"/>
<rect x="15" y="8" width="1" height="1" fill="#dfffff"/>
<rect x="16" y="8" width="1" height="1" fill="#dfffff"/>
<rect x="17" y="8" width="1" height="1" fill="#00acfb"/>
<rect x="18" y="8" width="1" height="1" fill="#00acfb"/>
<rect x="19" y="8" width="1" height="1" fill="#60c8ff"/>
<rect x="20" y="8" width="1" height="1" fill="#7ed4ff"/>
<rect x="21" y="8" width="1" height="1" fill="#60c8ff"/>
<rect x="22" y="8" width="1" height="1" fill="#9fe0ff"/>
<rect x="23" y="8" width="1" height="1" fill="#7ed4ff"/>
<rect x="24" y="8" width="1" height="1" fill="#008bc2"/>
<rect x="7" y="9" width="1" height="1" fill="#00a9ec"/>
<rect x="8" y="9" width="1" height="1" fill="#00a9ec"/>
<rect x="9" y="9" width="1" height="1" fill="#008bc2"/>
<rect x="10" y="9" width="1" height="1" fill="#c3f0ff"/>
<rect x="11" y="9" width="1" height="1" fill="#ffffff"/>
<rect x="12" y="9" width="1" height="1" fill="#ffffff"/>
<rect x="13" y="9" width="1" height="1" fill="#ffffff"/>
<rect x="14" y="9" width="1" height="1" fill="#00acfb"/>
<rect x="15" y="9" width="1" height="1" fill="#00acfb"/>
<rect x="16" y="9" width="1" height="1" fill="#00acfb"/>
<rect x="17" y="9" width="1" height="1" fill="#ffffff"/>
<rect x="18" y="9" width="1" height="1" fill="#00acfb"/>
<rect x="19" y="9" width="1" height="1" fill="#60c8ff"/>
<rect x="20" y="9" width="1" height="1" fill="#7ed4ff"/>
<rect x="21" y="9" width="1" height="1" fill="#9fe0ff"/>
<rect x="22" y="9" width="1" height="1" fill="#9fe0ff"/>
<rect x="23" y="9" width="1" height="1" fill="#7ed4ff"/>
<rect x="24" y="9" width="1" height="1" fill="#008bc2"/>
<rect x="0" y="10" width="1" height="1" fill="#0094ce"/>
<rect x="1" y="10" width="1" height="1" fill="#0094ce"/>
<rect x="2" y="10" width="1" height="1" fill="#0094ce"/>
<rect x="3" y="10" width="1" height="1" fill="#0094ce"/>
<rect x="5" y="10" width="1" height="1" fill="#00a9ec"/>
<rect x="6" y="10" width="1" height="1" fill="#00a9ec"/>
<rect x="7" y="10" width="1" height="1" fill="#ffff08"/>
<rect x="8" y="10" width="1" height="1" fill="#ffff08"/>
<rect x="9" y="10" width="1" height="1" fill="#00a9ec"/>
<rect x="10" y="10" width="1" height="1" fill="#8fdfff"/>
<rect x="11" y="10" width="1" height="1" fill="#c0e9ff"/>
<rect x="12" y="10" width="1" height="1" fill="#e8ffff"/>
<rect x="13" y="10" width="1" height="1" fill="#00acfb"/>
<rect x="14" y="10" width="1" height="1" fill="#d0f3ff"/>
<rect x="15" y="10" width="1" height="1" fill="#ffffff"/>
<rect x="16" y="10" width="1" height="1" fill="#ffffff"/>
<rect x="17" y="10" width="1" height="1" fill="#a8e7ff"/>
<rect x="18" y="10" width="1" height="1" fill="#00acfb"/>
<rect x="19" y="10" width="1" height="1" fill="#60c8ff"/>
<rect x="20" y="10" width="1" height="1" fill="#60c8ff"/>
<rect x="21" y="10" width="1" height="1" fill="#00acfb"/>
<rect x="22" y="10" width="1" height="1" fill="#00a5e8"/>
<rect x="23" y="10" width="1" height="1" fill="#60c8ff"/>
<rect x="24" y="10" width="1" height="1" fill="#008bc2"/>
<rect x="0" y="11" width="1" height="1" fill="#0094ce"/>
<rect x="1" y="11" width="1" height="1" fill="#ffffff"/>
<rect x="2" y="11" width="1" height="1" fill="#ffffff"/>
<rect x="3" y="11" width="1" height="1" fill="#ffffff"/>
<rect x="4" y="11" width="1" height="1" fill="#00a9ec"/>
<rect x="5" y="11" width="1" height="1" fill="#ffff08"/>
<rect x="6" y="11" width="1" height="1" fill="#ffff08"/>
<rect x="7" y="11" width="1" height="1" fill="#00a9ec"/>
<rect x="8" y="11" width="1" height="1" fill="#ffff08"/>
<rect x="9" y="11" width="1" height="1" fill="#ffe008"/>
<rect x="10" y="11" width="1" height="1" fill="#00a9ec"/>
<rect x="11" y="11" width="1" height="1" fill="#8fdfff"/>
<rect x="12" y="11" width="1" height="1" fill="#00a5e8"/>
<rect x="13" y="11" width="1" height="1" fill="#d0f3ff"/>
<rect x="14" y="11" width="1" height="1" fill="#a8e7ff"/>
<rect x="15" y="11" width="1" height="1" fill="#a8e7ff"/>
<rect x="16" y="11" width="1" height="1" fill="#8fdbff"/>
<rect x="17" y="11" width="1" height="1" fill="#8fdbff"/>
<rect x="18" y="11" width="1" height="1" fill="#00acfb"/>
<rect x="19" y="11" width="1" height="1" fill="#00acfb"/>
<rect x="20" y="11" width="1" height="1" fill="#00acfb"/>
<rect x="21" y="11" width="1" height="1" fill="#ffffff"/>
<rect x="22" y="11" width="1" height="1" fill="#00a5e8"/>
<rect x="23" y="11" width="1" height="1" fill="#60c8ff"/>
<rect x="24" y="11" width="1" height="1" fill="#008bc2"/>
<rect x="0" y="12" width="1" height="1" fill="#0094ce"/>
<rect x="1" y="12" width="1" height="1" fill="#ffffff"/>
<rect x="2" y="12" width="1" height="1" fill="#ffffff"/>
<rect x="3" y="12" width="1" height="1" fill="#ffffff"/>
<rect x="4" y="12" width="1" height="1" fill="#e0ffff"/>
<rect x="5" y="12" width="1" height="1" fill="#00a9ec"/>
<rect x="6" y="12" width="1" height="1" fill="#ffff08"/>
<rect x="7" y="12" width="1" height="1" fill="#ffe008"/>
<rect x="8" y="12" width="1" height="1" fill="#00a9ec"/>
<rect x="9" y="12" width="1" height="1" fill="#ffe008"/>
<rect x="10" y="12" width="1" height="1" fill="#ffe008"/>
<rect x="11" y="12" width="1" height="1" fill="#00a9ec"/>
<rect x="12" y="12" width="1" height="1" fill="#008dc5"/>
<rect x="13" y="12" width="1" height="1" fill="#a8e7ff"/>
<rect x="14" y="12" width="1" height="1" fill="#0094ce"/>
<rect x="15" y="12" width="1" height="1" fill="#0094ce"/>
<rect x="16" y="12" width="1" height="1" fill="#68ccff"/>
<rect x="17" y="12" width="1" height="1" fill="#00acfb"/>
<rect x="18" y="12" width="1" height="1" fill="#d0f3ff"/>
<rect x="19" y="12" width="1" height="1" fill="#ffffff"/>
<rect x="20" y="12" width="1" height="1" fill="#ffffff"/>
<rect x="21" y="12" width="1" height="1" fill="#a8e7ff"/>
<rect x="22" y="12" width="1" height="1" fill="#00a5e8"/>
<rect x="23" y="12" width="1" height="1" fill="#008bc2"/>
<rect x="0" y="13" width="1" height="1" fill="#0094ce"/>
<rect x="1" y="13" width="1" height="1" fill="#ffffff"/>
<rect x="2" y="13" width="1" height="1" fill="#ffffff"/>
<rect x="3" y="13" width="1" height="1" fill="#e0ffff"/>
<rect x="4" y="13" width="1" height="1" fill="#e0ffff"/>
<rect x="5" y="13" width="1" height="1" fill="#e0ffff"/>
<rect x="6" y="13" width="1" height="1" fill="#00a9ec"/>
<rect x="7" y="13" width="1" height="1" fill="#ffe008"/>
<rect x="8" y="13" width="1" height="1" fill="#ffe008"/>
<rect x="9" y="13" width="1" height="1" fill="#00a9ec"/>
<rect x="10" y="13" width="1" height="1" fill="#ffe008"/>
<rect x="11" y="13" width="1" height="1" fill="#ffd008"/>
<rect x="12" y="13" width="1" height="1" fill="#00a9ec"/>
<rect x="13" y="13" width="1" height="1" fill="#0094ce"/>
<rect x="14" y="13" width="1" height="1" fill="#90daff"/>
<rect x="15" y="13" width="1" height="1" fill="#2ab3fd"/>
<rect x="16" y="13" width="1" height="1" fill="#0094ce"/>
<rect x="17" y="13" width="1" height="1" fill="#d0f3ff"/>
<rect x="18" y="13" width="1" height="1" fill="#a8e7ff"/>
<rect x="19" y="13" width="1" height="1" fill="#a8e7ff"/>
<rect x="20" y="13" width="1" height="1" fill="#00acfb"/>
<rect x="21" y="13" width="1" height="1" fill="#00a5e8"/>
<rect x="22" y="13" width="1" height="1" fill="#008dc5"/>
<rect x="23" y="13" width="1" height="1" fill="#37b8ff"/>
<rect x="24" y="13" width="1" height="1" fill="#00a5e8"/>
<rect x="0" y="14" width="1" height="1" fill="#0094ce"/>
<rect x="1" y="14" width="1" height="1" fill="#e0ffff"/>
<rect x="2" y="14" width="1" height="1" fill="#e0ffff"/>
<rect x="3" y="14" width="1" height="1" fill="#e0ffff"/>
<rect x="4" y="14" width="1" height="1" fill="#e0ffff"/>
<rect x="5" y="14" width="1" height="1" fill="#9fe1ff"/>
<rect x="6" y="14" width="1" height="1" fill="#9fe1ff"/>
<rect x="7" y="14" width="1" height="1" fill="#00a9ec"/>
<rect x="8" y="14" width="1" height="1" fill="#ffd008"/>
<rect x="9" y="14" width="1" height="1" fill="#ffd008"/>
<rect x="10" y="14" width="1" height="1" fill="#00a9ec"/>
<rect x="11" y="14" width="1" height="1" fill="#ffd008"/>
<rect x="12" y="14" width="1" height="1" fill="#0094ce"/>
<rect x="13" y="14" width="1" height="1" fill="#90daff"/>
<rect x="14" y="14" width="1" height="1" fill="#0094ce"/>
<rect x="15" y="14" width="1" height="1" fill="#0094ce"/>
<rect x="16" y="14" width="1" height="1" fill="#2ab3fd"/>
<rect x="17" y="14" width="1" height="1" fill="#0094ce"/>
<rect x="18" y="14" width="1" height="1" fill="#8fdbff"/>
<rect x="19" y="14" width="1" height="1" fill="#00acfb"/>
<rect x="20" y="14" width="1" height="1" fill="#d0f3ff"/>
<rect x="21" y="14" width="1" height="1" fill="#d0f3ff"/>
<rect x="22" y="14" width="1" height="1" fill="#ffffff"/>
<rect x="23" y="14" width="1" height="1" fill="#008dc5"/>
<rect x="24" y="14" width="1" height="1" fill="#00a5e8"/>
<rect x="1" y="15" width="1" height="1" fill="#0094ce"/>
<rect x="2" y="15" width="1" height="1" fill="#9fe1ff"/>
<rect x="3" y="15" width="1" height="1" fill="#9fe1ff"/>
<rect x="4" y="15" width="1" height="1" fill="#9fe1ff"/>
<rect x="5" y="15" width="1" height="1" fill="#9fe1ff"/>
<rect x="6" y="15" width="1" height="1" fill="#5dc7ff"/>
<rect x="7" y="15" width="1" height="1" fill="#5dc7ff"/>
<rect x="8" y="15" width="1" height="1" fill="#00a9ec"/>
<rect x="9" y="15" width="1" height="1" fill="#ffaf00"/>
<rect x="10" y="15" width="1" height="1" fill="#ffaf00"/>
<rect x="11" y="15" width="1" height="1" fill="#0094ce"/>
<rect x="12" y="15" width="1" height="1" fill="#39baff"/>
<rect x="13" y="15" width="1" height="1" fill="#0094ce"/>
<rect x="14" y="15" width="1" height="1" fill="#0bacfc"/>
<rect x="15" y="15" width="1" height="1" fill="#0bacfc"/>
<rect x="16" y="15" width="1" height="1" fill="#0094ce"/>
<rect x="17" y="15" width="1" height="1" fill="#0bacfc"/>
<rect x="18" y="15" width="1" height="1" fill="#0094ce"/>
<rect x="19" y="15" width="1" height="1" fill="#8fdbff"/>
<rect x="20" y="15" width="1" height="1" fill="#8fdbff"/>
<rect x="21" y="15" width="1" height="1" fill="#8fdbff"/>
<rect x="22" y="15" width="1" height="1" fill="#008dc5"/>
<rect x="23" y="15" width="1" height="1" fill="#37b8ff"/>
<rect x="24" y="15" width="1" height="1" fill="#00a5e8"/>
<rect x="1" y="16" width="1" height="1" fill="#0094ce"/>
<rect x="2" y="16" width="1" height="1" fill="#5dc7ff"/>
<rect x="3" y="16" width="1" height="1" fill="#5dc7ff"/>
<rect x="4" y="16" width="1" height="1" fill="#5dc7ff"/>
<rect x="5" y="16" width="1" height="1" fill="#5dc7ff"/>
<rect x="6" y="16" width="1" height="1" fill="#5dc7ff"/>
<rect x="7" y="16" width="1" height="1" fill="#3abbff"/>
<rect x="8" y="16" width="1" height="1" fill="#3abbff"/>
<rect x="9" y="16" width="1" height="1" fill="#00a9ec"/>
<rect x="10" y="16" width="1" height="1" fill="#ffaf00"/>
<rect x="11" y="16" width="1" height="1" fill="#0094ce"/>
<rect x="12" y="16" width="1" height="1" fill="#0bacfc"/>
<rect x="13" y="16" width="1" height="1" fill="#0094ce"/>
<rect x="14" y="16" width="1" height="1" fill="#0bacfc"/>
<rect x="15" y="16" width="1" height="1" fill="#0bacfc"/>
<rect x="16" y="16" width="1" height="1" fill="#0094ce"/>
<rect x="17" y="16" width="1" height="1" fill="#0bacfc"/>
<rect x="18" y="16" width="1" height="1" fill="#0094ce"/>
<rect x="19" y="16" width="1" height="1" fill="#68ccff"/>
<rect x="20" y="16" width="1" height="1" fill="#68ccff"/>
<rect x="21" y="16" width="1" height="1" fill="#008dc5"/>
<rect x="22" y="16" width="1" height="1" fill="#37b8ff"/>
<rect x="23" y="16" width="1" height="1" fill="#0081b8"/>
<rect x="0" y="17" width="1" height="1" fill="#0094ce"/>
<rect x="1" y="17" width="1" height="1" fill="#0094ce"/>
<rect x="2" y="17" width="1" height="1" fill="#0094ce"/>
<rect x="3" y="17" width="1" height="1" fill="#0094ce"/>
<rect x="4" y="17" width="1" height="1" fill="#0094ce"/>
<rect x="5" y="17" width="1" height="1" fill="#0094ce"/>
<rect x="6" y="17" width="1" height="1" fill="#0094ce"/>
<rect x="7" y="17" width="1" height="1" fill="#0094ce"/>
<rect x="8" y="17" width="1" height="1" fill="#0094ce"/>
<rect x="9" y="17" width="1" height="1" fill="#0094ce"/>
<rect x="10" y="17" width="1" height="1" fill="#0094ce"/>
<rect x="11" y="17" width="1" height="1" fill="#0094ce"/>
<rect x="12" y="17" width="1" height="1" fill="#0094ce"/>
<rect x="13" y="17" width="1" height="1" fill="#0bacfc"/>
<rect x="14" y="17" width="1" height="1" fill="#0094ce"/>
<rect x="15" y="17" width="1" height="1" fill="#0094ce"/>
<rect x="16" y="17" width="1" height="1" fill="#0bacfc"/>
<rect x="17" y="17" width="1" height="1" fill="#0094ce"/>
<rect x="18" y="17" width="1" height="1" fill="#008dc5"/>
<rect x="19" y="17" width="1" height="1" fill="#008dc5"/>
<rect x="20" y="17" width="1" height="1" fill="#008dc5"/>
<rect x="21" y="17" width="1" height="1" fill="#37b8ff"/>
<rect x="22" y="17" width="1" height="1" fill="#0081b8"/>
<rect x="23" y="17" width="1" height="1" fill="#00a9ec"/>
<rect x="0" y="18" width="1" height="1" fill="#0094ce"/>
<rect x="1" y="18" width="1" height="1" fill="#44bbff"/>
<rect x="2" y="18" width="1" height="1" fill="#44bbff"/>
<rect x="3" y="18" width="1" height="1" fill="#44bbff"/>
<rect x="4" y="18" width="1" height="1" fill="#44bbff"/>
<rect x="5" y="18" width="1" height="1" fill="#44bbff"/>
<rect x="6" y="18" width="1" height="1" fill="#44bbff"/>
<rect x="7" y="18" width="1" height="1" fill="#44bbff"/>
<rect x="8" y="18" width="1" height="1" fill="#3ebaff"/>
<rect x="9" y="18" width="1" height="1" fill="#30b5ff"/>
<rect x="10" y="18" width="1" height="1" fill="#30b5ff"/>
<rect x="11" y="18" width="1" height="1" fill="#28b2fd"/>
<rect x="12" y="18" width="1" height="1" fill="#16affd"/>
<rect x="13" y="18" width="1" height="1" fill="#0094ce"/>
<rect x="14" y="18" width="1" height="1" fill="#0bacfc"/>
<rect x="15" y="18" width="1" height="1" fill="#0bacfc"/>
<rect x="16" y="18" width="1" height="1" fill="#0094ce"/>
<rect x="17" y="18" width="1" height="1" fill="#28b2fd"/>
<rect x="18" y="18" width="1" height="1" fill="#28b2fd"/>
<rect x="19" y="18" width="1" height="1" fill="#28b2fd"/>
<rect x="20" y="18" width="1" height="1" fill="#0081b8"/>
<rect x="21" y="18" width="1" height="1" fill="#0081b8"/>
<rect x="22" y="18" width="1" height="1" fill="#03abfc"/>
<rect x="23" y="18" width="1" height="1" fill="#00aefb"/>
<rect x="0" y="19" width="1" height="1" fill="#0094ce"/>
<rect x="1" y="19" width="1" height="1" fill="#0094ce"/>
<rect x="2" y="19" width="1" height="1" fill="#0094ce"/>
<rect x="3" y="19" width="1" height="1" fill="#0094ce"/>
<rect x="4" y="19" width="1" height="1" fill="#0094ce"/>
<rect x="5" y="19" width="1" height="1" fill="#0094ce"/>
<rect x="6" y="19" width="1" height="1" fill="#0094ce"/>
<rect x="7" y="19" width="1" height="1" fill="#0094ce"/>
<rect x="8" y="19" width="1" height="1" fill="#0094ce"/>
<rect x="9" y="19" width="1" height="1" fill="#0094ce"/>
<rect x="10" y="19" width="1" height="1" fill="#0094ce"/>
<rect x="11" y="19" width="1" height="1" fill="#0094ce"/>
<rect x="12" y="19" width="1" height="1" fill="#0094ce"/>
<rect x="14" y="19" width="1" height="1" fill="#0094ce"/>
<rect x="15" y="19" width="1" height="1" fill="#0094ce"/>
<rect x="17" y="19" width="1" height="1" fill="#0081b8"/>
<rect x="18" y="19" width="1" height="1" fill="#0081b8"/>
<rect x="19" y="19" width="1" height="1" fill="#0081b8"/>
<rect x="20" y="19" width="1" height="1" fill="#00a1e2"/>
<rect x="21" y="19" width="1" height="1" fill="#00a1e2"/>
<rect x="22" y="19" width="1" height="1" fill="#00a1e2"/>
<rect x="23" y="19" width="1" height="1" fill="#00a1e2"/>
</svg>