<?xml version="1.0" encoding="UTF-8" standalone="no"?>
<svg xmlns="http://www.w3.org/2000/svg" width="26" height="21" shape-rendering="crispEdges">
<rect x="12" y="1" width="1" height="1" fill="#b64b07" fill-opacity="0.016"/>
<rect x="13" y="1" width="1" height="1" fill="#af4d06" fill-opacity="0.384"/>
<rect x="14" y="1" width="1" height="1" fill="#b44d07" fill-opacity="0.098"/>
<rect x="15" y="1" width="1" height="1" fill="#7d4205" fill-opacity="0.004"/>
<rect x="16" y="1" width="1" height="1" fill="#7d4205" fill-opacity="0.008"/>
<rect x="12" y="2" width="1" height="1" fill="#ac4f06" fill-opacity="0.494"/>
<rect x="13" y="2" width="1" height="1" fill="#914c06"/>
<rect x="14" y="2" width="1" height="1" fill="#884705" fill-opacity="0.976"/>
<rect x="15" y="2" width="1" height="1" fill="#904905" fill-opacity="0.929"/>
<rect x="16" y="2" width="1" height="1" fill="#7b4105"/>
<rect x="17" y="2" width="1" height="1" fill="#944806" fill-opacity="0.467"/>
<rect x="18" y="2" width="1" height="1" fill="#b64b07" fill-opacity="0.086"/>
<rect x="19" y="2" width="1" height="1" fill="#b64c07" fill-opacity="0.071"/>
<rect x="12" y="3" width="1" height="1" fill="#a14c06" fill-opacity="0.722"/>
<rect x="13" y="3" width="1" height="1" fill="#ab5c08"/>
<rect x="14" y="3" width="1" height="1" fill="#e4780b" fill-opacity="0.996"/>
<rect x="15" y="3" width="1" height="1" fill="#d57b1e" fill-opacity="0.992"/>
<rect x="16" y="3" width="1" height="1" fill="#b05f0d" fill-opacity="0.996"/>
<rect x="17" y="3" width="1" height="1" fill="#884606" fill-opacity="0.961"/>
<rect x="18" y="3" width="1" height="1" fill="#844505" fill-opacity="0.984"/>
<rect x="19" y="3" width="1" height="1" fill="#954c05" fill-opacity="0.914"/>
<rect x="20" y="3" width="1" height="1" fill="#b74d07" fill-opacity="0.039"/>
<rect x="13" y="4" width="1" height="1" fill="#854605" fill-opacity="0.984"/>
<rect x="14" y="4" width="1" height="1" fill="#874605" fill-opacity="0.98"/>
<rect x="15" y="4" width="1" height="1" fill="#99520a" fill-opacity="0.992"/>
<rect x="16" y="4" width="1" height="1" fill="#9b5208"/>
<rect x="17" y="4" width="1" height="1" fill="#a85706" fill-opacity="0.98"/>
<rect x="18" y="4" width="1" height="1" fill="#e28424"/>
<rect x="19" y="4" width="1" height="1" fill="#7b4105"/>
<rect x="20" y="4" width="1" height="1" fill="#8c4a05" fill-opacity="0.114"/>
<rect x="21" y="4" width="1" height="1" fill="#b75f05" fill-opacity="0.2"/>
<rect x="10" y="5" width="1" height="1" fill="#b75107" fill-opacity="0.086"/>
<rect x="11" y="5" width="1" height="1" fill="#7d4205" fill-opacity="0.004"/>
<rect x="15" y="5" width="1" height="1" fill="#af5405" fill-opacity="0.443"/>
<rect x="16" y="5" width="1" height="1" fill="#ac5406" fill-opacity="0.51"/>
<rect x="17" y="5" width="1" height="1" fill="#954f06" fill-opacity="0.996"/>
<rect x="18" y="5" width="1" height="1" fill="#ef871e"/>
<rect x="19" y="5" width="1" height="1" fill="#d87208"/>
<rect x="20" y="5" width="1" height="1" fill="#7a4105"/>
<rect x="21" y="5" width="1" height="1" fill="#854605" fill-opacity="0.984"/>
<rect x="22" y="5" width="1" height="1" fill="#b05406" fill-opacity="0.396"/>
<rect x="7" y="6" width="1" height="1" fill="#b64e06" fill-opacity="0.039"/>
<rect x="8" y="6" width="1" height="1" fill="#ae4f07" fill-opacity="0.455"/>
<rect x="9" y="6" width="1" height="1" fill="#8b4805" fill-opacity="0.965"/>
<rect x="10" y="6" width="1" height="1" fill="#884705" fill-opacity="0.976"/>
<rect x="11" y="6" width="1" height="1" fill="#904905" fill-opacity="0.937"/>
<rect x="12" y="6" width="1" height="1" fill="#974b06" fill-opacity="0.894"/>
<rect x="13" y="6" width="1" height="1" fill="#974b06" fill-opacity="0.875"/>
<rect x="14" y="6" width="1" height="1" fill="#a44c06" fill-opacity="0.58"/>
<rect x="15" y="6" width="1" height="1" fill="#b34c07" fill-opacity="0.067"/>
<rect x="17" y="6" width="1" height="1" fill="#8d4a05" fill-opacity="0.875"/>
<rect x="18" y="6" width="1" height="1" fill="#7f4305" fill-opacity="0.996"/>
<rect x="19" y="6" width="1" height="1" fill="#a25506" fill-opacity="0.996"/>
<rect x="20" y="6" width="1" height="1" fill="#ee8316"/>
<rect x="21" y="6" width="1" height="1" fill="#e37b0f"/>
<rect x="22" y="6" width="1" height="1" fill="#8e4905" fill-opacity="0.957"/>
<rect x="23" y="6" width="1" height="1" fill="#b64a07" fill-opacity="0.016"/>
<rect x="6" y="7" width="1" height="1" fill="#ae4e06" fill-opacity="0.439"/>
<rect x="7" y="7" width="1" height="1" fill="#7d4205" fill-opacity="0.996"/>
<rect x="8" y="7" width="1" height="1" fill="#9a5105" fill-opacity="0.992"/>
<rect x="9" y="7" width="1" height="1" fill="#d4720c"/>
<rect x="10" y="7" width="1" height="1" fill="#e57d13"/>
<rect x="11" y="7" width="1" height="1" fill="#db7915"/>
<rect x="12" y="7" width="1" height="1" fill="#ca6f10"/>
<rect x="13" y="7" width="1" height="1" fill="#ba6208"/>
<rect x="14" y="7" width="1" height="1" fill="#974f05" fill-opacity="0.996"/>
<rect x="15" y="7" width="1" height="1" fill="#8e4805" fill-opacity="0.957"/>
<rect x="16" y="7" width="1" height="1" fill="#b14e07" fill-opacity="0.22"/>
<rect x="17" y="7" width="1" height="1" fill="#7d4205" fill-opacity="0.173"/>
<rect x="18" y="7" width="1" height="1" fill="#7d4205" fill-opacity="0.384"/>
<rect x="19" y="7" width="1" height="1" fill="#783f05"/>
<rect x="20" y="7" width="1" height="1" fill="#eb8f30"/>
<rect x="21" y="7" width="1" height="1" fill="#bd660c"/>
<rect x="22" y="7" width="1" height="1" fill="#874605" fill-opacity="0.941"/>
<rect x="23" y="7" width="1" height="1" fill="#a44b06" fill-opacity="0.059"/>
<rect x="5" y="8" width="1" height="1" fill="#a74e06" fill-opacity="0.655"/>
<rect x="6" y="8" width="1" height="1" fill="#984f07" fill-opacity="0.984"/>
<rect x="7" y="8" width="1" height="1" fill="#f68914"/>
<rect x="8" y="8" width="1" height="1" fill="#fc9227"/>
<rect x="9" y="8" width="1" height="1" fill="#ff982f"/>
<rect x="10" y="8" width="1" height="1" fill="#ff982d"/>
<rect x="11" y="8" width="1" height="1" fill="#ff982f"/>
<rect x="12" y="8" width="1" height="1" fill="#ff9a32"/>
<rect x="13" y="8" width="1" height="1" fill="#ff982e"/>
<rect x="14" y="8" width="1" height="1" fill="#f88a1a"/>
<rect x="15" y="8" width="1" height="1" fill="#c66808"/>
<rect x="16" y="8" width="1" height="1" fill="#914a05" fill-opacity="0.941"/>
<rect x="17" y="8" width="1" height="1" fill="#b54907" fill-opacity="0.016"/>
<rect x="18" y="8" width="1" height="1" fill="#a44d06" fill-opacity="0.318"/>
<rect x="19" y="8" width="1" height="1" fill="#784005"/>
<rect x="20" y="8" width="1" height="1" fill="#8e4a04" fill-opacity="0.976"/>
<rect x="21" y="8" width="1" height="1" fill="#824405" fill-opacity="0.973"/>
<rect x="22" y="8" width="1" height="1" fill="#804305" fill-opacity="0.741"/>
<rect x="23" y="8" width="1" height="1" fill="#7d4205" fill-opacity="0.012"/>
<rect x="4" y="9" width="1" height="1" fill="#a94e06" fill-opacity="0.612"/>
<rect x="5" y="9" width="1" height="1" fill="#a85706" fill-opacity="0.973"/>
<rect x="6" y="9" width="1" height="1" fill="#f68c20"/>
<rect x="7" y="9" width="1" height="1" fill="#ff9426"/>
<rect x="8" y="9" width="1" height="1" fill="#fe9931"/>
<rect x="9" y="9" width="1" height="1" fill="#fea03e"/>
<rect x="10" y="9" width="1" height="1" fill="#ffa03f"/>
<rect x="11" y="9" width="1" height="1" fill="#ffa346"/>
<rect x="12" y="9" width="1" height="1" fill="#ffa74d"/>
<rect x="13" y="9" width="1" height="1" fill="#ffa446"/>
<rect x="14" y="9" width="1" height="1" fill="#ff972c"/>
<rect x="15" y="9" width="1" height="1" fill="#fb9022"/>
<rect x="16" y="9" width="1" height="1" fill="#b45f08"/>
<rect x="17" y="9" width="1" height="1" fill="#a14e06" fill-opacity="0.761"/>
<rect x="19" y="9" width="1" height="1" fill="#7d4205" fill-opacity="0.008"/>
<rect x="20" y="9" width="1" height="1" fill="#994906" fill-opacity="0.671"/>
<rect x="21" y="9" width="1" height="1" fill="#854505" fill-opacity="0.933"/>
<rect x="22" y="9" width="1" height="1" fill="#824405" fill-opacity="0.992"/>
<rect x="23" y="9" width="1" height="1" fill="#934a06" fill-opacity="0.902"/>
<rect x="24" y="9" width="1" height="1" fill="#7d4205" fill-opacity="0.078"/>
<rect x="3" y="10" width="1" height="1" fill="#b24d07" fill-opacity="0.227"/>
<rect x="4" y="10" width="1" height="1" fill="#864605" fill-opacity="0.988"/>
<rect x="5" y="10" width="1" height="1" fill="#f58510"/>
<rect x="6" y="10" width="1" height="1" fill="#fe8f1a"/>
<rect x="7" y="10" width="1" height="1" fill="#fe9c38"/>
<rect x="8" y="10" width="1" height="1" fill="#fea242"/>
<rect x="9" y="10" width="1" height="1" fill="#ffa448"/>
<rect x="10" y="10" width="1" height="1" fill="#ffa241"/>
<rect x="11" y="10" width="1" height="1" fill="#ffa446"/>
<rect x="12" y="10" width="1" height="1" fill="#ffa548"/>
<rect x="13" y="10" width="1" height="1" fill="#ffa64b"/>
<rect x="14" y="10" width="1" height="1" fill="#ffa447"/>
<rect x="15" y="10" width="1" height="1" fill="#ff9426"/>
<rect x="16" y="10" width="1" height="1" fill="#f08417"/>
<rect x="17" y="10" width="1" height="1" fill="#834505" fill-opacity="0.992"/>
<rect x="18" y="10" width="1" height="1" fill="#8e4806" fill-opacity="0.059"/>
<rect x="19" y="10" width="1" height="1" fill="#ad4d07" fill-opacity="0.459"/>
<rect x="20" y="10" width="1" height="1" fill="#954f05"/>
<rect x="21" y="10" width="1" height="1" fill="#a95a08"/>
<rect x="22" y="10" width="1" height="1" fill="#eb8317"/>
<rect x="23" y="10" width="1" height="1" fill="#b86006"/>
<rect x="24" y="10" width="1" height="1" fill="#8e4906" fill-opacity="0.914"/>
<rect x="25" y="10" width="1" height="1" fill="#7d4205" fill-opacity="0.024"/>
<rect x="3" y="11" width="1" height="1" fill="#984c06" fill-opacity="0.886"/>
<rect x="4" y="11" width="1" height="1" fill="#ce6d08"/>
<rect x="5" y="11" width="1" height="1" fill="#fd8b16"/>
<rect x="6" y="11" width="1" height="1" fill="#fe9931"/>
<rect x="7" y="11" width="1" height="1" fill="#ffa244"/>
<rect x="8" y="11" width="1" height="1" fill="#ff9a33"/>
<rect x="9" y="11" width="1" height="1" fill="#ff8f1b"/>
<rect x="10" y="11" width="1" height="1" fill="#ff8f1d"/>
<rect x="11" y="11" width="1" height="1" fill="#fe972c"/>
<rect x="12" y="11" width="1" height="1" fill="#ffa444"/>
<rect x="13" y="11" width="1" height="1" fill="#ffa74c"/>
<rect x="14" y="11" width="1" height="1" fill="#ffa64c"/>
<rect x="15" y="11" width="1" height="1" fill="#ff962b"/>
<rect x="16" y="11" width="1" height="1" fill="#fe880e"/>
<rect x="17" y="11" width="1" height="1" fill="#944e07"/>
<rect x="18" y="11" width="1" height="1" fill="#984906" fill-opacity="0.529"/>
<rect x="19" y="11" width="1" height="1" fill="#904905" fill-opacity="0.925"/>
<rect x="20" y="11" width="1" height="1" fill="#c86806" fill-opacity="0.996"/>
<rect x="21" y="11" width="1" height="1" fill="#fe9324"/>
<rect x="22" y="11" width="1" height="1" fill="#ffa241"/>
<rect x="23" y="11" width="1" height="1" fill="#d06d06"/>
<rect x="24" y="11" width="1" height="1" fill="#8f4805" fill-opacity="0.933"/>
<rect x="25" y="11" width="1" height="1" fill="#984806" fill-opacity="0.067"/>
<rect x="2" y="12" width="1" height="1" fill="#894805" fill-opacity="0.047"/>
<rect x="3" y="12" width="1" height="1" fill="#7f4305"/>
<rect x="4" y="12" width="1" height="1" fill="#e2790d"/>
<rect x="5" y="12" width="1" height="1" fill="#fd8a14"/>
<rect x="6" y="12" width="1" height="1" fill="#ffa142"/>
<rect x="7" y="12" width="1" height="1" fill="#ffa040"/>
<rect x="8" y="12" width="1" height="1" fill="#ff8b14"/>
<rect x="9" y="12" width="1" height="1" fill="#ff8407"/>
<rect x="10" y="12" width="1" height="1" fill="#fe8406"/>
<rect x="11" y="12" width="1" height="1" fill="#fe8509" fill-opacity="0.996"/>
<rect x="12" y="12" width="1" height="1" fill="#fe9527"/>
<rect x="13" y="12" width="1" height="1" fill="#ffa242"/>
<rect x="14" y="12" width="1" height="1" fill="#ffa547"/>
<rect x="15" y="12" width="1" height="1" fill="#ff9f3e"/>
<rect x="16" y="12" width="1" height="1" fill="#fe870b"/>
<rect x="17" y="12" width="1" height="1" fill="#b25e08"/>
<rect x="18" y="12" width="1" height="1" fill="#944c06" fill-opacity="0.839"/>
<rect x="19" y="12" width="1" height="1" fill="#884605" fill-opacity="0.957"/>
<rect x="20" y="12" width="1" height="1" fill="#9d5205" fill-opacity="0.996"/>
<rect x="21" y="12" width="1" height="1" fill="#e67a09"/>
<rect x="22" y="12" width="1" height="1" fill="#dd7407"/>
<rect x="23" y="12" width="1" height="1" fill="#964e05" fill-opacity="0.996"/>
<rect x="24" y="12" width="1" height="1" fill="#9d4a06" fill-opacity="0.592"/>
<rect x="2" y="13" width="1" height="1" fill="#8a4805" fill-opacity="0.765"/>
<rect x="3" y="13" width="1" height="1" fill="#894905"/>
<rect x="4" y="13" width="1" height="1" fill="#dc780e"/>
<rect x="5" y="13" width="1" height="1" fill="#fc9428"/>
<rect x="6" y="13" width="1" height="1" fill="#ffa345"/>
<rect x="7" y="13" width="1" height="1" fill="#ff9c34"/>
<rect x="8" y="13" width="1" height="1" fill="#ff8d1a"/>
<rect x="9" y="13" width="1" height="1" fill="#ff8508"/>
<rect x="10" y="13" width="1" height="1" fill="#fa8206"/>
<rect x="11" y="13" width="1" height="1" fill="#e27606"/>
<rect x="12" y="13" width="1" height="1" fill="#e37809"/>
<rect x="13" y="13" width="1" height="1" fill="#f88611"/>
<rect x="14" y="13" width="1" height="1" fill="#ff972c"/>
<rect x="15" y="13" width="1" height="1" fill="#ff972c"/>
<rect x="16" y="13" width="1" height="1" fill="#f17f0a"/>
<rect x="17" y="13" width="1" height="1" fill="#b7610a"/>
<rect x="18" y="13" width="1" height="1" fill="#934c06" fill-opacity="0.953"/>
<rect x="19" y="13" width="1" height="1" fill="#984906" fill-opacity="0.235"/>
<rect x="20" y="13" width="1" height="1" fill="#8b4905" fill-opacity="0.925"/>
<rect x="21" y="13" width="1" height="1" fill="#7f4305" fill-opacity="0.996"/>
<rect x="22" y="13" width="1" height="1" fill="#874605" fill-opacity="0.973"/>
<rect x="23" y="13" width="1" height="1" fill="#9d4c06" fill-opacity="0.702"/>
<rect x="24" y="13" width="1" height="1" fill="#7d4205" fill-opacity="0.004"/>
<rect x="2" y="14" width="1" height="1" fill="#894805" fill-opacity="0.949"/>
<rect x="3" y="14" width="1" height="1" fill="#894905"/>
<rect x="4" y="14" width="1" height="1" fill="#e1790f"/>
<rect x="5" y="14" width="1" height="1" fill="#fb9731"/>
<rect x="6" y="14" width="1" height="1" fill="#ffa245"/>
<rect x="7" y="14" width="1" height="1" fill="#ff9e3b"/>
<rect x="8" y="14" width="1" height="1" fill="#ff911e"/>
<rect x="9" y="14" width="1" height="1" fill="#fe8509"/>
<rect x="10" y="14" width="1" height="1" fill="#e87906"/>
<rect x="11" y="14" width="1" height="1" fill="#c96a06"/>
<rect x="12" y="14" width="1" height="1" fill="#bc6308"/>
<rect x="13" y="14" width="1" height="1" fill="#d3710b"/>
<rect x="14" y="14" width="1" height="1" fill="#f0800a"/>
<rect x="15" y="14" width="1" height="1" fill="#f8830a"/>
<rect x="16" y="14" width="1" height="1" fill="#dc750c"/>
<rect x="17" y="14" width="1" height="1" fill="#9a5208"/>
<rect x="18" y="14" width="1" height="1" fill="#904a05" fill-opacity="0.961"/>
<rect x="19" y="14" width="1" height="1" fill="#934e07" fill-opacity="0.02"/>
<rect x="21" y="14" width="1" height="1" fill="#7d4205" fill-opacity="0.035"/>
<rect x="22" y="14" width="1" height="1" fill="#7d4205" fill-opacity="0.008"/>
<rect x="23" y="14" width="1" height="1" fill="#b64c07" fill-opacity="0.008"/>
<rect x="2" y="15" width="1" height="1" fill="#984b06" fill-opacity="0.698"/>
<rect x="3" y="15" width="1" height="1" fill="#884805"/>
<rect x="4" y="15" width="1" height="1" fill="#db750e"/>
<rect x="5" y="15" width="1" height="1" fill="#f38e27"/>
<rect x="6" y="15" width="1" height="1" fill="#fea142"/>
<rect x="7" y="15" width="1" height="1" fill="#ffa03f"/>
<rect x="8" y="15" width="1" height="1" fill="#fe952b"/>
<rect x="9" y="15" width="1" height="1" fill="#f48009"/>
<rect x="10" y="15" width="1" height="1" fill="#b96108"/>
<rect x="11" y="15" width="1" height="1" fill="#904b07" fill-opacity="0.996"/>
<rect x="12" y="15" width="1" height="1" fill="#8b4906"/>
<rect x="13" y="15" width="1" height="1" fill="#985007"/>
<rect x="14" y="15" width="1" height="1" fill="#9f5408"/>
<rect x="15" y="15" width="1" height="1" fill="#a5570a"/>
<rect x="16" y="15" width="1" height="1" fill="#975008"/>
<rect x="17" y="15" width="1" height="1" fill="#8b4806" fill-opacity="0.996"/>
<rect x="18" y="15" width="1" height="1" fill="#a94c07" fill-opacity="0.506"/>
<rect x="2" y="16" width="1" height="1" fill="#a44e08" fill-opacity="0.329"/>
<rect x="3" y="16" width="1" height="1" fill="#834505"/>
<rect x="4" y="16" width="1" height="1" fill="#b35f0a"/>
<rect x="5" y="16" width="1" height="1" fill="#e37c10"/>
<rect x="6" y="16" width="1" height="1" fill="#f7912b"/>
<rect x="7" y="16" width="1" height="1" fill="#fd962e"/>
<rect x="8" y="16" width="1" height="1" fill="#f98b18"/>
<rect x="9" y="16" width="1" height="1" fill="#ce6e0b"/>
<rect x="10" y="16" width="1" height="1" fill="#914c07"/>
<rect x="11" y="16" width="1" height="1" fill="#a85709" fill-opacity="0.545"/>
<rect x="12" y="16" width="1" height="1" fill="#ad5508" fill-opacity="0.357"/>
<rect x="13" y="16" width="1" height="1" fill="#9d5007" fill-opacity="0.718"/>
<rect x="14" y="16" width="1" height="1" fill="#904b07" fill-opacity="0.918"/>
<rect x="15" y="16" width="1" height="1" fill="#894806" fill-opacity="0.98"/>
<rect x="16" y="16" width="1" height="1" fill="#854606" fill-opacity="0.992"/>
<rect x="17" y="16" width="1" height="1" fill="#a3560b" fill-opacity="0.463"/>
<rect x="2" y="17" width="1" height="1" fill="#b64b07" fill-opacity="0.055"/>
<rect x="3" y="17" width="1" height="1" fill="#894806" fill-opacity="0.965"/>
<rect x="4" y="17" width="1" height="1" fill="#944e07"/>
<rect x="5" y="17" width="1" height="1" fill="#c66a0e"/>
<rect x="6" y="17" width="1" height="1" fill="#e67b0e"/>
<rect x="7" y="17" width="1" height="1" fill="#e57a10"/>
<rect x="8" y="17" width="1" height="1" fill="#d87410"/>
<rect x="9" y="17" width="1" height="1" fill="#954f06"/>
<rect x="10" y="17" width="1" height="1" fill="#9a5009" fill-opacity="0.647"/>
<rect x="15" y="17" width="1" height="1" fill="#af570b" fill-opacity="0.071"/>
<rect x="3" y="18" width="1" height="1" fill="#a64f09" fill-opacity="0.569"/>
<rect x="4" y="18" width="1" height="1" fill="#934e06"/>
<rect x="5" y="18" width="1" height="1" fill="#a25607"/>
<rect x="6" y="18" width="1" height="1" fill="#b7630f"/>
<rect x="7" y="18" width="1" height="1" fill="#c26b12"/>
<rect x="8" y="18" width="1" height="1" fill="#b35f09"/>
<rect x="9" y="18" width="1" height="1" fill="#884706" fill-opacity="0.988"/>
<rect x="10" y="18" width="1" height="1" fill="#9c520a" fill-opacity="0.09"/>
<rect x="3" y="19" width="1" height="1" fill="#b64c07" fill-opacity="0.039"/>
<rect x="4" y="19" width="1" height="1" fill="#984d08" fill-opacity="0.847"/>
<rect x="5" y="19" width="1" height="1" fill="#7d4205"/>
<rect x="6" y="19" width="1" height="1" fill="#894806"/>
<rect x="7" y="19" width="1" height="1" fill="#904b06"/>
<rect x="8" y="19" width="1" height="1" fill="#894705" fill-opacity="0.988"/>
<rect x="9" y="19" width="1" height="1" fill="#a94d07" fill-opacity="0.431"/>
<rect x="7" y="20" width="1" height="1" fill="#884706" fill-opacity="0.008"/>
<rect x="8" y="20" width="1" height="1" fill="#884706" fill-opacity="0.008"/>
</svg>