<?xml version="1.0" encoding="UTF-8" standalone="no"?>
<svg xmlns="http://www.w3.org/2000/svg" width="26" height="21" shape-rendering="crispEdges">
<rect x="3" y="0" width="1" height="1" fill="#595fff"/>
<rect x="7" y="0" width="1" height="1" fill="#595fff"/>
<rect x="14" y="0" width="1" height="1" fill="#5863da"/>
<rect x="15" y="0" width="1" height="1" fill="#5863da"/>
<rect x="16" y="0" width="1" height="1" fill="#5863da"/>
<rect x="17" y="0" width="1" height="1" fill="#5863da"/>
<rect x="18" y="0" width="1" height="1" fill="#5863da"/>
<rect x="2" y="1" width="1" height="1" fill="#595fff"/>
<rect x="3" y="1" width="1" height="1" fill="#737cff"/>
<rect x="4" y="1" width="1" height="1" fill="#595fff"/>
<rect x="6" y="1" width="1" height="1" fill="#595fff"/>
<rect x="7" y="1" width="1" height="1" fill="#737cff"/>
<rect x="8" y="1" width="1" height="1" fill="#595fff"/>
<rect x="13" y="1" width="1" height="1" fill="#5864f6"/>
<rect x="14" y="1" width="1" height="1" fill="#5863da"/>
<rect x="15" y="1" width="1" height="1" fill="#d6d9ff"/>
<rect x="16" y="1" width="1" height="1" fill="#d6d9ff"/>
<rect x="17" y="1" width="1" height="1" fill="#d2d5ff"/>
<rect x="18" y="1" width="1" height="1" fill="#d2d5ff"/>
<rect x="19" y="1" width="1" height="1" fill="#5863da"/>
<rect x="20" y="1" width="1" height="1" fill="#5864f6"/>
<rect x="21" y="1" width="1" height="1" fill="#5864f6"/>
<rect x="22" y="1" width="1" height="1" fill="#5864f6"/>
<rect x="23" y="1" width="1" height="1" fill="#5864f6"/>
<rect x="1" y="2" width="1" height="1" fill="#595fff"/>
<rect x="2" y="2" width="1" height="1" fill="#737cff"/>
<rect x="3" y="2" width="1" height="1" fill="#737cff"/>
<rect x="4" y="2" width="1" height="1" fill="#737cff"/>
<rect x="5" y="2" width="1" height="1" fill="#595fff"/>
<rect x="7" y="2" width="1" height="1" fill="#595fff"/>
<rect x="12" y="2" width="1" height="1" fill="#5864f6"/>
<rect x="13" y="2" width="1" height="1" fill="#ffff08"/>
<rect x="14" y="2" width="1" height="1" fill="#ffff08"/>
<rect x="15" y="2" width="1" height="1" fill="#5863da"/>
<rect x="16" y="2" width="1" height="1" fill="#f8fbff"/>
<rect x="17" y="2" width="1" height="1" fill="#f8fbff"/>
<rect x="18" y="2" width="1" height="1" fill="#f8fbff"/>
<rect x="19" y="2" width="1" height="1" fill="#dfe2ff"/>
<rect x="20" y="2" width="1" height="1" fill="#5863da"/>
<rect x="21" y="2" width="1" height="1" fill="#ffaf00"/>
<rect x="22" y="2" width="1" height="1" fill="#ffaf00"/>
<rect x="23" y="2" width="1" height="1" fill="#5864f6"/>
<rect x="2" y="3" width="1" height="1" fill="#595fff"/>
<rect x="3" y="3" width="1" height="1" fill="#737cff"/>
<rect x="4" y="3" width="1" height="1" fill="#595fff"/>
<rect x="11" y="3" width="1" height="1" fill="#5864f6"/>
<rect x="12" y="3" width="1" height="1" fill="#ffff08"/>
<rect x="13" y="3" width="1" height="1" fill="#ffaf00"/>
<rect x="14" y="3" width="1" height="1" fill="#5864f6"/>
<rect x="15" y="3" width="1" height="1" fill="#5863da"/>
<rect x="16" y="3" width="1" height="1" fill="#ffffff"/>
<rect x="17" y="3" width="1" height="1" fill="#ffffff"/>
<rect x="18" y="3" width="1" height="1" fill="#ffffff"/>
<rect x="19" y="3" width="1" height="1" fill="#ffffff"/>
<rect x="20" y="3" width="1" height="1" fill="#d7d8ff"/>
<rect x="21" y="3" width="1" height="1" fill="#5863da"/>
<rect x="22" y="3" width="1" height="1" fill="#5864f6"/>
<rect x="23" y="3" width="1" height="1" fill="#5864f6"/>
<rect x="2" y="4" width="1" height="1" fill="#595fff"/>
<rect x="4" y="4" width="1" height="1" fill="#595fff"/>
<rect x="11" y="4" width="1" height="1" fill="#5864f6"/>
<rect x="12" y="4" width="1" height="1" fill="#5864f6"/>
<rect x="13" y="4" width="1" height="1" fill="#5864f6"/>
<rect x="14" y="4" width="1" height="1" fill="#5863da"/>
<rect x="15" y="4" width="1" height="1" fill="#e3e8ff"/>
<rect x="16" y="4" width="1" height="1" fill="#ffffff"/>
<rect x="17" y="4" width="1" height="1" fill="#ffffff"/>
<rect x="18" y="4" width="1" height="1" fill="#ffffff"/>
<rect x="19" y="4" width="1" height="1" fill="#ffffff"/>
<rect x="20" y="4" width="1" height="1" fill="#e8eaff"/>
<rect x="21" y="4" width="1" height="1" fill="#5863da"/>
<rect x="22" y="4" width="1" height="1" fill="#5864f6"/>
<rect x="1" y="5" width="1" height="1" fill="#595fff"/>
<rect x="11" y="5" width="1" height="1" fill="#5863da"/>
<rect x="12" y="5" width="1" height="1" fill="#5863da"/>
<rect x="13" y="5" width="1" height="1" fill="#5863da"/>
<rect x="14" y="5" width="1" height="1" fill="#e3e8ff"/>
<rect x="15" y="5" width="1" height="1" fill="#feffff"/>
<rect x="16" y="5" width="1" height="1" fill="#ffffff"/>
<rect x="17" y="5" width="1" height="1" fill="#ffffff"/>
<rect x="18" y="5" width="1" height="1" fill="#ffffff"/>
<rect x="19" y="5" width="1" height="1" fill="#f2fbff"/>
<rect x="20" y="5" width="1" height="1" fill="#e8eaff"/>
<rect x="21" y="5" width="1" height="1" fill="#b3b5ff"/>
<rect x="22" y="5" width="1" height="1" fill="#5863da"/>
<rect x="0" y="6" width="1" height="1" fill="#595fff"/>
<rect x="1" y="6" width="1" height="1" fill="#737cff"/>
<rect x="2" y="6" width="1" height="1" fill="#595fff"/>
<rect x="10" y="6" width="1" height="1" fill="#5863da"/>
<rect x="11" y="6" width="1" height="1" fill="#d3d6ff"/>
<rect x="12" y="6" width="1" height="1" fill="#e3e6ff"/>
<rect x="13" y="6" width="1" height="1" fill="#e3e6ff"/>
<rect x="14" y="6" width="1" height="1" fill="#feffff"/>
<rect x="15" y="6" width="1" height="1" fill="#ffffff"/>
<rect x="16" y="6" width="1" height="1" fill="#ffffff"/>
<rect x="17" y="6" width="1" height="1" fill="#ffffff"/>
<rect x="18" y="6" width="1" height="1" fill="#f2fbff"/>
<rect x="19" y="6" width="1" height="1" fill="#e8eaff"/>
<rect x="20" y="6" width="1" height="1" fill="#c8cbff"/>
<rect x="21" y="6" width="1" height="1" fill="#b8bbff"/>
<rect x="22" y="6" width="1" height="1" fill="#5863da"/>
<rect x="24" y="6" width="1" height="1" fill="#5863da"/>
<rect x="1" y="7" width="1" height="1" fill="#595fff"/>
<rect x="9" y="7" width="1" height="1" fill="#5863da"/>
<rect x="10" y="7" width="1" height="1" fill="#bec2ff"/>
<rect x="11" y="7" width="1" height="1" fill="#eaeaff"/>
<rect x="12" y="7" width="1" height="1" fill="#feffff"/>
<rect x="13" y="7" width="1" height="1" fill="#feffff"/>
<rect x="14" y="7" width="1" height="1" fill="#ffffff"/>
<rect x="15" y="7" width="1" height="1" fill="#ffffff"/>
<rect x="16" y="7" width="1" height="1" fill="#f2fbff"/>
<rect x="17" y="7" width="1" height="1" fill="#f2fbff"/>
<rect x="18" y="7" width="1" height="1" fill="#e8eaff"/>
<rect x="19" y="7" width="1" height="1" fill="#c8cbff"/>
<rect x="20" y="7" width="1" height="1" fill="#c8cbff"/>
<rect x="21" y="7" width="1" height="1" fill="#b7bbff"/>
<rect x="22" y="7" width="1" height="1" fill="#5862f2"/>
<rect x="23" y="7" width="1" height="1" fill="#5863da"/>
<rect x="24" y="7" width="1" height="1" fill="#5863da"/>
<rect x="9" y="8" width="1" height="1" fill="#5863da"/>
<rect x="10" y="8" width="1" height="1" fill="#d3d6ff"/>
<rect x="11" y="8" width="1" height="1" fill="#ffffff"/>
<rect x="12" y="8" width="1" height="1" fill="#ffffff"/>
<rect x="13" y="8" width="1" height="1" fill="#ffffff"/>
<rect x="14" y="8" width="1" height="1" fill="#ffffff"/>
<rect x="15" y="8" width="1" height="1" fill="#f2fbff"/>
<rect x="16" y="8" width="1" height="1" fill="#f2fbff"/>
<rect x="17" y="8" width="1" height="1" fill="#595fff"/>
<rect x="18" y="8" width="1" height="1" fill="#595fff"/>
<rect x="19" y="8" width="1" height="1" fill="#9d9fff"/>
<rect x="20" y="8" width="1" height="1" fill="#b1b4ff"/>
<rect x="21" y="8" width="1" height="1" fill="#9d9fff"/>
<rect x="22" y="8" width="1" height="1" fill="#c8cbff"/>
<rect x="23" y="8" width="1" height="1" fill="#b1b4ff"/>
<rect x="24" y="8" width="1" height="1" fill="#5863da"/>
<rect x="7" y="9" width="1" height="1" fill="#5864f6"/>
<rect x="8" y="9" width="1" height="1" fill="#5864f6"/>
<rect x="9" y="9" width="1" height="1" fill="#5863da"/>
<rect x="10" y="9" width="1" height="1" fill="#e0e6ff"/>
<rect x="11" y="9" width="1" height="1" fill="#ffffff"/>
<rect x="12" y="9" width="1" height="1" fill="#ffffff"/>
<rect x="13" y="9" width="1" height="1" fill="#ffffff"/>
<rect x="14" y="9" width="1" height="1" fill="#595fff"/>
<rect x="15" y="9" width="1" height="1" fill="#595fff"/>
<rect x="16" y="9" width="1" height="1" fill="#595fff"/>
<rect x="17" y="9" width="1" height="1" fill="#ffffff"/>
<rect x="18" y="9" width="1" height="1" fill="#595fff"/>
<rect x="19" y="9" width="1" height="1" fill="#9d9fff"/>
<rect x="20" y="9" width="1" height="1" fill="#b1b4ff"/>
<rect x="21" y="9" width="1" height="1" fill="#c8cbff"/>
<rect x="22" y="9" width="1" height="1" fill="#c8cbff"/>
<rect x="23" y="9" width="1" height="1" fill="#b1b4ff"/>
<rect x="24" y="9" width="1" height="1" fill="#5863da"/>
<rect x="0" y="10" width="1" height="1" fill="#5863e3"/>
<rect x="1" y="10" width="1" height="1" fill="#5863e3"/>
<rect x="2" y="10" width="1" height="1" fill="#5863e3"/>
<rect x="3" y="10" width="1" height="1" fill="#5863e3"/>
<rect x="5" y="10" width="1" height="1" fill="#5864f6"/>
<rect x="6" y="10" width="1" height="1" fill="#5864f6"/>
<rect x="7" y="10" width="1" height="1" fill="#ffff08"/>
<rect x="8" y="10" width="1" height="1" fill="#ffff08"/>
<rect x="9" y="10" width="1" height="1" fill="#5864f6"/>
<rect x="10" y="10" width="1" height="1" fill="#bec2ff"/>
<rect x="11" y="10" width="1" height="1" fill="#dedeff"/>
<rect x="12" y="10" width="1" height="1" fill="#f8fdff"/>
<rect x="13" y="10" width="1" height="1" fill="#595fff"/>
<rect x="14" y="10" width="1" height="1" fill="#e9ecff"/>
<rect x="15" y="10" width="1" height="1" fill="#ffffff"/>
<rect x="16" y="10" width="1" height="1" fill="#ffffff"/>
<rect x="17" y="10" width="1" height="1" fill="#ced4ff"/>
<rect x="18" y="10" width="1" height="1" fill="#595fff"/>
<rect x="19" y="10" width="1" height="1" fill="#9d9fff"/>
<rect x="20" y="10" width="1" height="1" fill="#9d9fff"/>
<rect x="21" y="10" width="1" height="1" fill="#595fff"/>
<rect x="22" y="10" width="1" height="1" fill="#5863f3"/>
<rect x="23" y="10" width="1" height="1" fill="#9d9fff"/>
<rect x="24" y="10" width="1" height="1" fill="#5863da"/>
<rect x="0" y="11" width="1" height="1" fill="#5863e3"/>
<rect x="1" y="11" width="1" height="1" fill="#ffffff"/>
<rect x="2" y="11" width="1" height="1" fill="#ffffff"/>
<rect x="3" y="11" width="1" height="1" fill="#ffffff"/>
<rect x="4" y="11" width="1" height="1" fill="#5864f6"/>
<rect x="5" y="11" width="1" height="1" fill="#ffff08"/>
<rect x="6" y="11" width="1" height="1" fill="#ffff08"/>
<rect x="7" y="11" width="1" height="1" fill="#5864f6"/>
<rect x="8" y="11" width="1" height="1" fill="#ffff08"/>
<rect x="9" y="11" width="1" height="1" fill="#ffe008"/>
<rect x="10" y="11" width="1" height="1" fill="#5864f6"/>
<rect x="11" y="11" width="1" height="1" fill="#bec2ff"/>
<rect x="12" y="11" width="1" height="1" fill="#5863f3"/>
<rect x="13" y="11" width="1" height="1" fill="#e9ecff"/>
<rect x="14" y="11" width="1" height="1" fill="#ced4ff"/>
<rect x="15" y="11" width="1" height="1" fill="#ced4ff"/>
<rect x="16" y="11" width="1" height="1" fill="#bec0ff"/>
<rect x="17" y="11" width="1" height="1" fill="#bec0ff"/>
<rect x="18" y="11" width="1" height="1" fill="#595fff"/>
<rect x="19" y="11" width="1" height="1" fill="#595fff"/>
<rect x="20" y="11" width="1" height="1" fill="#595fff"/>
<rect x="21" y="11" width="1" height="1" fill="#ffffff"/>
<rect x="22" y="11" width="1" height="1" fill="#5863f3"/>
<rect x="23" y="11" width="1" height="1" fill="#9d9fff"/>
<rect x="24" y="11" width="1" height="1" fill="#5863da"/>
<rect x="0" y="12" width="1" height="1" fill="#5863e3"/>
<rect x="1" y="12" width="1" height="1" fill="#ffffff"/>
<rect x="2" y="12" width="1" height="1" fill="#ffffff"/>
<rect x="3" y="12" width="1" height="1" fill="#ffffff"/>
<rect x="4" y="12" width="1" height="1" fill="#f3fbff"/>
<rect x="5" y="12" width="1" height="1" fill="#5864f6"/>
<rect x="6" y="12" width="1" height="1" fill="#ffff08"/>
<rect x="7" y="12" width="1" height="1" fill="#ffe008"/>
<rect x="8" y="12" width="1" height="1" fill="#5864f6"/>
<rect x="9" y="12" width="1" height="1" fill="#ffe008"/>
<rect x="10" y="12" width="1" height="1" fill="#ffe008"/>
<rect x="11" y="12" width="1" height="1" fill="#5864f6"/>
<rect x="12" y="12" width="1" height="1" fill="#5863dd"/>
<rect x="13" y="12" width="1" height="1" fill="#ced4ff"/>
<rect x="14" y="12" width="1" height="1" fill="#5863e3"/>
<rect x="15" y="12" width="1" height="1" fill="#5863e3"/>
<rect x="16" y="12" width="1" height="1" fill="#a3a4ff"/>
<rect x="17" y="12" width="1" height="1" fill="#595fff"/>
<rect x="18" y="12" width="1" height="1" fill="#e9ecff"/>
<rect x="19" y="12" width="1" height="1" fill="#ffffff"/>
<rect x="20" y="12" width="1" height="1" fill="#ffffff"/>
<rect x="21" y="12" width="1" height="1" fill="#ced4ff"/>
<rect x="22" y="12" width="1" height="1" fill="#5863f3"/>
<rect x="23" y="12" width="1" height="1" fill="#5863da"/>
<rect x="0" y="13" width="1" height="1" fill="#5863e3"/>
<rect x="1" y="13" width="1" height="1" fill="#ffffff"/>
<rect x="2" y="13" width="1" height="1" fill="#ffffff"/>
<rect x="3" y="13" width="1" height="1" fill="#f3fbff"/>
<rect x="4" y="13" width="1" height="1" fill="#f3fbff"/>
<rect x="5" y="13" width="1" height="1" fill="#f3fbff"/>
<rect x="6" y="13" width="1" height="1" fill="#5864f6"/>
<rect x="7" y="13" width="1" height="1" fill="#ffe008"/>
<rect x="8" y="13" width="1" height="1" fill="#ffe008"/>
<rect x="9" y="13" width="1" height="1" fill="#5864f6"/>
<rect x="10" y="13" width="1" height="1" fill="#ffe008"/>
<rect x="11" y="13" width="1" height="1" fill="#ffd008"/>
<rect x="12" y="13" width="1" height="1" fill="#5864f6"/>
<rect x="13" y="13" width="1" height="1" fill="#5863e3"/>
<rect x="14" y="13" width="1" height="1" fill="#bec0ff"/>
<rect x="15" y="13" width="1" height="1" fill="#7878ff"/>
<rect x="16" y="13" width="1" height="1" fill="#5863e3"/>
<rect x="17" y="13" width="1" height="1" fill="#e9ecff"/>
<rect x="18" y="13" width="1" height="1" fill="#ced4ff"/>
<rect x="19" y="13" width="1" height="1" fill="#ced4ff"/>
<rect x="20" y="13" width="1" height="1" fill="#595fff"/>
<rect x="21" y="13" width="1" height="1" fill="#5863f3"/>
<rect x="22" y="13" width="1" height="1" fill="#5863dd"/>
<rect x="23" y="13" width="1" height="1" fill="#8284ff"/>
<rect x="24" y="13" width="1" height="1" fill="#5863f3"/>
<rect x="0" y="14" width="1" height="1" fill="#5863e3"/>
<rect x="1" y="14" width="1" height="1" fill="#f3fbff"/>
<rect x="2" y="14" width="1" height="1" fill="#f3fbff"/>
<rect x="3" y="14" width="1" height="1" fill="#f3fbff"/>
<rect x="4" y="14" width="1" height="1" fill="#f3fbff"/>
<rect x="5" y="14" width="1" height="1" fill="#c8cbff"/>
<rect x="6" y="14" width="1" height="1" fill="#c8cbff"/>
<rect x="7" y="14" width="1" height="1" fill="#5864f6"/>
<rect x="8" y="14" width="1" height="1" fill="#ffd008"/>
<rect x="9" y="14" width="1" height="1" fill="#ffd008"/>
<rect x="10" y="14" width="1" height="1" fill="#5864f6"/>
<rect x="11" y="14" width="1" height="1" fill="#ffd008"/>
<rect x="12" y="14" width="1" height="1" fill="#5863e3"/>
<rect x="13" y="14" width="1" height="1" fill="#bec0ff"/>
<rect x="14" y="14" width="1" height="1" fill="#5863e3"/>
<rect x="15" y="14" width="1" height="1" fill="#5863e3"/>
<rect x="16" y="14" width="1" height="1" fill="#7878ff"/>
<rect x="17" y="14" width="1" height="1" fill="#5863e3"/>
<rect x="18" y="14" width="1" height="1" fill="#bec0ff"/>
<rect x="19" y="14" width="1" height="1" fill="#595fff"/>
<rect x="20" y="14" width="1" height="1" fill="#e9ecff"/>
<rect x="21" y="14" width="1" height="1" fill="#e9ecff"/>
<rect x="22" y="14" width="1" height="1" fill="#ffffff"/>
<rect x="23" y="14" width="1" height="1" fill="#5863dd"/>
<rect x="24" y="14" width="1" height="1" fill="#5863f3"/>
<rect x="1" y="15" width="1" height="1" fill="#5863e3"/>
<rect x="2" y="15" width="1" height="1" fill="#c8cbff"/>
<rect x="3" y="15" width="1" height="1" fill="#c8cbff"/>
<rect x="4" y="15" width="1" height="1" fill="#c8cbff"/>
<rect x="5" y="15" width="1" height="1" fill="#c8cbff"/>
<rect x="6" y="15" width="1" height="1" fill="#9b9fff"/>
<rect x="7" y="15" width="1" height="1" fill="#9b9fff"/>
<rect x="8" y="15" width="1" height="1" fill="#5864f6"/>
<rect x="9" y="15" width="1" height="1" fill="#ffaf00"/>
<rect x="10" y="15" width="1" height="1" fill="#ffaf00"/>
<rect x="11" y="15" width="1" height="1" fill="#5863e3"/>
<rect x="12" y="15" width="1" height="1" fill="#8386ff"/>
<rect x="13" y="15" width="1" height="1" fill="#5863e3"/>
<rect x="14" y="15" width="1" height="1" fill="#6266ff"/>
<rect x="15" y="15" width="1" height="1" fill="#6266ff"/>
<rect x="16" y="15" width="1" height="1" fill="#5863e3"/>
<rect x="17" y="15" width="1" height="1" fill="#6266ff"/>
<rect x="18" y="15" width="1" height="1" fill="#5863e3"/>
<rect x="19" y="15" width="1" height="1" fill="#bec0ff"/>
<rect x="20" y="15" width="1" height="1" fill="#bec0ff"/>
<rect x="21" y="15" width="1" height="1" fill="#bec0ff"/>
<rect x="22" y="15" width="1" height="1" fill="#5863dd"/>
<rect x="23" y="15" width="1" height="1" fill="#8284ff"/>
<rect x="24" y="15" width="1" height="1" fill="#5863f3"/>
<rect x="1" y="16" width="1" height="1" fill="#5863e3"/>
<rect x="2" y="16" width="1" height="1" fill="#9b9fff"/>
<rect x="3" y="16" width="1" height="1" fill="#9b9fff"/>
<rect x="4" y="16" width="1" height="1" fill="#9b9fff"/>
<rect x="5" y="16" width="1" height="1" fill="#9b9fff"/>
<rect x="6" y="16" width="1" height="1" fill="#9b9fff"/>
<rect x="7" y="16" width="1" height="1" fill="#8486ff"/>
<rect x="8" y="16" width="1" height="1" fill="#8486ff"/>
<rect x="9" y="16" width="1" height="1" fill="#5864f6"/>
<rect x="10" y="16" width="1" height="1" fill="#ffaf00"/>
<rect x="11" y="16" width="1" height="1" fill="#5863e3"/>
<rect x="12" y="16" width="1" height="1" fill="#6266ff"/>
<rect x="13" y="16" width="1" height="1" fill="#5863e3"/>
<rect x="14" y="16" width="1" height="1" fill="#6266ff"/>
<rect x="15" y="16" width="1" height="1" fill="#6266ff"/>
<rect x="16" y="16" width="1" height="1" fill="#5863e3"/>
<rect x="17" y="16" width="1" height="1" fill="#6266ff"/>
<rect x="18" y="16" width="1" height="1" fill="#5863e3"/>
<rect x="19" y="16" width="1" height="1" fill="#a3a4ff"/>
<rect x="20" y="16" width="1" height="1" fill="#a3a4ff"/>
<rect x="21" y="16" width="1" height="1" fill="#5863dd"/>
<rect x="22" y="16" width="1" height="1" fill="#8284ff"/>
<rect x="23" y="16" width="1" height="1" fill="#565ed4"/>
<rect x="0" y="17" width="1" height="1" fill="#5863e3"/>
<rect x="1" y="17" width="1" height="1" fill="#5863e3"/>
<rect x="2" y="17" width="1" height="1" fill="#5863e3"/>
<rect x="3" y="17" width="1" height="1" fill="#5863e3"/>
<rect x="4" y="17" width="1" height="1" fill="#5863e3"/>
<rect x="5" y="17" width="1" height="1" fill="#5863e3"/>
<rect x="6" y="17" width="1" height="1" fill="#5863e3"/>
<rect x="7" y="17" width="1" height="1" fill="#5863e3"/>
<rect x="8" y="17" width="1" height="1" fill="#5863e3"/>
<rect x="9" y="17" width="1" height="1" fill="#5863e3"/>
<rect x="10" y="17" width="1" height="1" fill="#5863e3"/>
<rect x="11" y="17" width="1" height="1" fill="#5863e3"/>
<rect x="12" y="17" width="1" height="1" fill="#5863e3"/>
<rect x="13" y="17" width="1" height="1" fill="#6266ff"/>
<rect x="14" y="17" width="1" height="1" fill="#5863e3"/>
<rect x="15" y="17" width="1" height="1" fill="#5863e3"/>
<rect x="16" y="17" width="1" height="1" fill="#6266ff"/>
<rect x="17" y="17" width="1" height="1" fill="#5863e3"/>
<rect x="18" y="17" width="1" height="1" fill="#5863dd"/>
<rect x="19" y="17" width="1" height="1" fill="#5863dd"/>
<rect x="20" y="17" width="1" height="1" fill="#5863dd"/>
<rect x="21" y="17" width="1" height="1" fill="#8284ff"/>
<rect x="22" y="17" width="1" height="1" fill="#565ed4"/>
<rect x="23" y="17" width="1" height="1" fill="#5864f6"/>
<rect x="0" y="18" width="1" height="1" fill="#5863e3"/>
<rect x="1" y="18" width="1" height="1" fill="#8989ff"/>
<rect x="2" y="18" width="1" height="1" fill="#8989ff"/>
<rect x="3" y="18" width="1" height="1" fill="#8989ff"/>
<rect x="4" y="18" width="1" height="1" fill="#8989ff"/>
<rect x="5" y="18" width="1" height="1" fill="#8989ff"/>
<rect x="6" y="18" width="1" height="1" fill="#8989ff"/>
<rect x="7" y="18" width="1" height="1" fill="#8989ff"/>
<rect x="8" y="18" width="1" height="1" fill="#8687ff"/>
<rect x="9" y="18" width="1" height="1" fill="#7c7dff"/>
<rect x="10" y="18" width="1" height="1" fill="#7c7dff"/>
<rect x="11" y="18" width="1" height="1" fill="#7676ff"/>
<rect x="12" y="18" width="1" height="1" fill="#686aff"/>
<rect x="13" y="18" width="1" height="1" fill="#5863e3"/>
<rect x="14" y="18" width="1" height="1" fill="#6266ff"/>
<rect x="15" y="18" width="1" height="1" fill="#6266ff"/>
<rect x="16" y="18" width="1" height="1" fill="#5863e3"/>
<rect x="17" y="18" width="1" height="1" fill="#7676ff"/>
<rect x="18" y="18" width="1" height="1" fill="#7676ff"/>
<rect x="19" y="18" width="1" height="1" fill="#7676ff"/>
<rect x="20" y="18" width="1" height="1" fill="#565ed4"/>
<rect x="21" y="18" width="1" height="1" fill="#565ed4"/>
<rect x="22" y="18" width="1" height="1" fill="#737cff"/>
<rect x="23" y="18" width="1" height="1" fill="#5962ff"/>
<rect x="0" y="19" width="1" height="1" fill="#5863e3"/>
<rect x="1" y="19" width="1" height="1" fill="#5863e3"/>
<rect x="2" y="19" width="1" height="1" fill="#5863e3"/>
<rect x="3" y="19" width="1" height="1" fill="#5863e3"/>
<rect x="4" y="19" width="1" height="1" fill="#5863e3"/>
<rect x="5" y="19" width="1" height="1" fill="#5863e3"/>
<rect x="6" y="19" width="1" height="1" fill="#5863e3"/>
<rect x="7" y="19" width="1" height="1" fill="#5863e3"/>
<rect x="8" y="19" width="1" height="1" fill="#5863e3"/>
<rect x="9" y="19" width="1" height="1" fill="#5863e3"/>
<rect x="10" y="19" width="1" height="1" fill="#5863e3"/>
<rect x="11" y="19" width="1" height="1" fill="#5863e3"/>
<rect x="12" y="19" width="1" height="1" fill="#5863e3"/>
<rect x="14" y="19" width="1" height="1" fill="#5863e3"/>
<rect x="15" y="19" width="1" height="1" fill="#5863e3"/>
<rect x="17" y="19" width="1" height="1" fill="#565ed4"/>
<rect x="18" y="19" width="1" height="1" fill="#565ed4"/>
<rect x="19" y="19" width="1" height="1" fill="#565ed4"/>
<rect x="20" y="19" width="1" height="1" fill="#5863ef"/>
<rect x="21" y="19" width="1" height="1" fill="#5863ef"/>
<rect x="22" y="19" width="1" height="1" fill="#5863ef"/>
<rect x="23" y="19" width="1" height="1" fill="#5863ef"/>
</svg>