<?xml version="1.0" encoding="UTF-8" standalone="no"?>
<svg xmlns="http://www.w3.org/2000/svg" width="26" height="21" shape-rendering="crispEdges">
<rect x="3" y="0" width="1" height="1" fill="#fb00f2"/>
<rect x="7" y="0" width="1" height="1" fill="#fb00f2"/>
<rect x="14" y="0" width="1" height="1" fill="#c200c1"/>
<rect x="15" y="0" width="1" height="1" fill="#c200c1"/>
<rect x="16" y="0" width="1" height="1" fill="#c200c1"/>
<rect x="17" y="0" width="1" height="1" fill="#c200c1"/>
<rect x="18" y="0" width="1" height="1" fill="#c200c1"/>
<rect x="2" y="1" width="1" height="1" fill="#fb00f2"/>
<rect x="3" y="1" width="1" height="1" fill="#fc03f0"/>
<rect x="4" y="1" width="1" height="1" fill="#fb00f2"/>
<rect x="6" y="1" width="1" height="1" fill="#fb00f2"/>
<rect x="7" y="1" width="1" height="1" fill="#fc03f0"/>
<rect x="8" y="1" width="1" height="1" fill="#fb00f2"/>
<rect x="13" y="1" width="1" height="1" fill="#ec00eb"/>
<rect x="14" y="1" width="1" height="1" fill="#c200c1"/>
<rect x="15" y="1" width="1" height="1" fill="#ffb4fc"/>
<rect x="16" y="1" width="1" height="1" fill="#ffb4fc"/>
<rect x="17" y="1" width="1" height="1" fill="#ffadfd"/>
<rect x="18" y="1" width="1" height="1" fill="#ffadfd"/>
<rect x="19" y="1" width="1" height="1" fill="#c200c1"/>
<rect x="20" y="1" width="1" height="1" fill="#ec00eb"/>
<rect x="21" y="1" width="1" height="1" fill="#ec00eb"/>
<rect x="22" y="1" width="1" height="1" fill="#ec00eb"/>
<rect x="23" y="1" width="1" height="1" fill="#ec00eb"/>
<rect x="1" y="2" width="1" height="1" fill="#fb00f2"/>
<rect x="2" y="2" width="1" height="1" fill="#fc03f0"/>
<rect x="3" y="2" width="1" height="1" fill="#fc03f0"/>
<rect x="4" y="2" width="1" height="1" fill="#fc03f0"/>
<rect x="5" y="2" width="1" height="1" fill="#fb00f2"/>
<rect x="7" y="2" width="1" height="1" fill="#fb00f2"/>
<rect x="12" y="2" width="1" height="1" fill="#ec00eb"/>
<rect x="13" y="2" width="1" height="1" fill="#ffff08"/>
<rect x="14" y="2" width="1" height="1" fill="#ffff08"/>
<rect x="15" y="2" width="1" height="1" fill="#c200c1"/>
<rect x="16" y="2" width="1" height="1" fill="#fce7ff"/>
<rect x="17" y="2" width="1" height="1" fill="#fce7ff"/>
<rect x="18" y="2" width="1" height="1" fill="#fce7ff"/>
<rect x="19" y="2" width="1" height="1" fill="#ffc1fe"/>
<rect x="20" y="2" width="1" height="1" fill="#c200c1"/>
<rect x="21" y="2" width="1" height="1" fill="#ffaf00"/>
<rect x="22" y="2" width="1" height="1" fill="#ffaf00"/>
<rect x="23" y="2" width="1" height="1" fill="#ec00eb"/>
<rect x="2" y="3" width="1" height="1" fill="#fb00f2"/>
<rect x="3" y="3" width="1" height="1" fill="#fc03f0"/>
<rect x="4" y="3" width="1" height="1" fill="#fb00f2"/>
<rect x="11" y="3" width="1" height="1" fill="#ec00eb"/>
<rect x="12" y="3" width="1" height="1" fill="#ffff08"/>
<rect x="13" y="3" width="1" height="1" fill="#ffaf00"/>
<rect x="14" y="3" width="1" height="1" fill="#ec00eb"/>
<rect x="15" y="3" width="1" height="1" fill="#c200c1"/>
<rect x="16" y="3" width="1" height="1" fill="#fcf3ff"/>
<rect x="17" y="3" width="1" height="1" fill="#fcf3ff"/>
<rect x="18" y="3" width="1" height="1" fill="#fcf3ff"/>
<rect x="19" y="3" width="1" height="1" fill="#fdf8ff"/>
<rect x="20" y="3" width="1" height="1" fill="#ffb5fd"/>
<rect x="21" y="3" width="1" height="1" fill="#c200c1"/>
<rect x="22" y="3" width="1" height="1" fill="#ec00eb"/>
<rect x="23" y="3" width="1" height="1" fill="#ec00eb"/>
<rect x="2" y="4" width="1" height="1" fill="#fb00f2"/>
<rect x="4" y="4" width="1" height="1" fill="#fb00f2"/>
<rect x="11" y="4" width="1" height="1" fill="#ec00eb"/>
<rect x="12" y="4" width="1" height="1" fill="#ec00eb"/>
<rect x="13" y="4" width="1" height="1" fill="#ec00eb"/>
<rect x="14" y="4" width="1" height="1" fill="#c200c1"/>
<rect x="15" y="4" width="1" height="1" fill="#fdc7ff"/>
<rect x="16" y="4" width="1" height="1" fill="#ffffff"/>
<rect x="17" y="4" width="1" height="1" fill="#ffffff"/>
<rect x="18" y="4" width="1" height="1" fill="#ffffff"/>
<rect x="19" y="4" width="1" height="1" fill="#ffffff"/>
<rect x="20" y="4" width="1" height="1" fill="#fdcdff"/>
<rect x="21" y="4" width="1" height="1" fill="#c200c1"/>
<rect x="22" y="4" width="1" height="1" fill="#ec00eb"/>
<rect x="1" y="5" width="1" height="1" fill="#fb00f2"/>
<rect x="11" y="5" width="1" height="1" fill="#c200c1"/>
<rect x="12" y="5" width="1" height="1" fill="#c200c1"/>
<rect x="13" y="5" width="1" height="1" fill="#c200c1"/>
<rect x="14" y="5" width="1" height="1" fill="#fdc7ff"/>
<rect x="15" y="5" width="1" height="1" fill="#fbf0ff"/>
<rect x="16" y="5" width="1" height="1" fill="#ffffff"/>
<rect x="17" y="5" width="1" height="1" fill="#ffffff"/>
<rect x="18" y="5" width="1" height="1" fill="#ffffff"/>
<rect x="19" y="5" width="1" height="1" fill="#f6dfff"/>
<rect x="20" y="5" width="1" height="1" fill="#fdcdff"/>
<rect x="21" y="5" width="1" height="1" fill="#ff80f8"/>
<rect x="22" y="5" width="1" height="1" fill="#c200c1"/>
<rect x="0" y="6" width="1" height="1" fill="#fb00f2"/>
<rect x="1" y="6" width="1" height="1" fill="#fc03f0"/>
<rect x="2" y="6" width="1" height="1" fill="#fb00f2"/>
<rect x="10" y="6" width="1" height="1" fill="#c200c1"/>
<rect x="11" y="6" width="1" height="1" fill="#ffaffa"/>
<rect x="12" y="6" width="1" height="1" fill="#ffc7fd"/>
<rect x="13" y="6" width="1" height="1" fill="#ffc7fd"/>
<rect x="14" y="6" width="1" height="1" fill="#fbf0ff"/>
<rect x="15" y="6" width="1" height="1" fill="#ffffff"/>
<rect x="16" y="6" width="1" height="1" fill="#ffffff"/>
<rect x="17" y="6" width="1" height="1" fill="#ffffff"/>
<rect x="18" y="6" width="1" height="1" fill="#f6dfff"/>
<rect x="19" y="6" width="1" height="1" fill="#fdcdff"/>
<rect x="20" y="6" width="1" height="1" fill="#ff9ffb"/>
<rect x="21" y="6" width="1" height="1" fill="#ff87f9"/>
<rect x="22" y="6" width="1" height="1" fill="#c200c1"/>
<rect x="24" y="6" width="1" height="1" fill="#c200c1"/>
<rect x="1" y="7" width="1" height="1" fill="#fb00f2"/>
<rect x="9" y="7" width="1" height="1" fill="#c200c1"/>
<rect x="10" y="7" width="1" height="1" fill="#ff8ffe"/>
<rect x="11" y="7" width="1" height="1" fill="#ffd2fb"/>
<rect x="12" y="7" width="1" height="1" fill="#fbf0ff"/>
<rect x="13" y="7" width="1" height="1" fill="#fbf0ff"/>
<rect x="14" y="7" width="1" height="1" fill="#ffffff"/>
<rect x="15" y="7" width="1" height="1" fill="#ffffff"/>
<rect x="16" y="7" width="1" height="1" fill="#f6dfff"/>
<rect x="17" y="7" width="1" height="1" fill="#f6dfff"/>
<rect x="18" y="7" width="1" height="1" fill="#fdcdff"/>
<rect x="19" y="7" width="1" height="1" fill="#ff9ffb"/>
<rect x="20" y="7" width="1" height="1" fill="#ff9ffb"/>
<rect x="21" y="7" width="1" height="1" fill="#ff85fd"/>
<rect x="22" y="7" width="1" height="1" fill="#e500e1"/>
<rect x="23" y="7" width="1" height="1" fill="#c200c1"/>
<rect x="24" y="7" width="1" height="1" fill="#c200c1"/>
<rect x="9" y="8" width="1" height="1" fill="#c200c1"/>
<rect x="10" y="8" width="1" height="1" fill="#ffaffa"/>
<rect x="11" y="8" width="1" height="1" fill="#ffffff"/>
<rect x="12" y="8" width="1" height="1" fill="#ffffff"/>
<rect x="13" y="8" width="1" height="1" fill="#ffffff"/>
<rect x="14" y="8" width="1" height="1" fill="#ffffff"/>
<rect x="15" y="8" width="1" height="1" fill="#f6dfff"/>
<rect x="16" y="8" width="1" height="1" fill="#f6dfff"/>
<rect x="17" y="8" width="1" height="1" fill="#fb00f2"/>
<rect x="18" y="8" width="1" height="1" fill="#fb00f2"/>
<rect x="19" y="8" width="1" height="1" fill="#ff60f4"/>
<rect x="20" y="8" width="1" height="1" fill="#ff7ef8"/>
<rect x="21" y="8" width="1" height="1" fill="#ff60f4"/>
<rect x="22" y="8" width="1" height="1" fill="#ff9ffb"/>
<rect x="23" y="8" width="1" height="1" fill="#ff7ef8"/>
<rect x="24" y="8" width="1" height="1" fill="#c200c1"/>
<rect x="7" y="9" width="1" height="1" fill="#ec00eb"/>
<rect x="8" y="9" width="1" height="1" fill="#ec00eb"/>
<rect x="9" y="9" width="1" height="1" fill="#c200c1"/>
<rect x="10" y="9" width="1" height="1" fill="#fdc3ff"/>
<rect x="11" y="9" width="1" height="1" fill="#ffffff"/>
<rect x="12" y="9" width="1" height="1" fill="#ffffff"/>
<rect x="13" y="9" width="1" height="1" fill="#ffffff"/>
<rect x="14" y="9" width="1" height="1" fill="#fb00f2"/>
<rect x="15" y="9" width="1" height="1" fill="#fb00f2"/>
<rect x="16" y="9" width="1" height="1" fill="#fb00f2"/>
<rect x="17" y="9" width="1" height="1" fill="#ffffff"/>
<rect x="18" y="9" width="1" height="1" fill="#fb00f2"/>
<rect x="19" y="9" width="1" height="1" fill="#ff60f4"/>
<rect x="20" y="9" width="1" height="1" fill="#ff7ef8"/>
<rect x="21" y="9" width="1" height="1" fill="#ff9ffb"/>
<rect x="22" y="9" width="1" height="1" fill="#ff9ffb"/>
<rect x="23" y="9" width="1" height="1" fill="#ff7ef8"/>
<rect x="24" y="9" width="1" height="1" fill="#c200c1"/>
<rect x="0" y="10" width="1" height="1" fill="#ce00cd"/>
<rect x="1" y="10" width="1" height="1" fill="#ce00cd"/>
<rect x="2" y="10" width="1" height="1" fill="#ce00cd"/>
<rect x="3" y="10" width="1" height="1" fill="#ce00cd"/>
<rect x="5" y="10" width="1" height="1" fill="#ec00eb"/>
<rect x="6" y="10" width="1" height="1" fill="#ec00eb"/>
<rect x="7" y="10" width="1" height="1" fill="#ffff08"/>
<rect x="8" y="10" width="1" height="1" fill="#ffff08"/>
<rect x="9" y="10" width="1" height="1" fill="#ec00eb"/>
<rect x="10" y="10" width="1" height="1" fill="#ff8ffe"/>
<rect x="11" y="10" width="1" height="1" fill="#ffc0fb"/>
<rect x="12" y="10" width="1" height="1" fill="#f8e8ff"/>
<rect x="13" y="10" width="1" height="1" fill="#fb00f2"/>
<rect x="14" y="10" width="1" height="1" fill="#fed0ff"/>
<rect x="15" y="10" width="1" height="1" fill="#ffffff"/>
<rect x="16" y="10" width="1" height="1" fill="#ffffff"/>
<rect x="17" y="10" width="1" height="1" fill="#fea8ff"/>
<rect x="18" y="10" width="1" height="1" fill="#fb00f2"/>
<rect x="19" y="10" width="1" height="1" fill="#ff60f4"/>
<rect x="20" y="10" width="1" height="1" fill="#ff60f4"/>
<rect x="21" y="10" width="1" height="1" fill="#fb00f2"/>
<rect x="22" y="10" width="1" height="1" fill="#e800e5"/>
<rect x="23" y="10" width="1" height="1" fill="#ff60f4"/>
<rect x="24" y="10" width="1" height="1" fill="#c200c1"/>
<rect x="0" y="11" width="1" height="1" fill="#ce00cd"/>
<rect x="1" y="11" width="1" height="1" fill="#ffffff"/>
<rect x="2" y="11" width="1" height="1" fill="#ffffff"/>
<rect x="3" y="11" width="1" height="1" fill="#ffffff"/>
<rect x="4" y="11" width="1" height="1" fill="#ec00eb"/>
<rect x="5" y="11" width="1" height="1" fill="#ffff08"/>
<rect x="6" y="11" width="1" height="1" fill="#ffff08"/>
<rect x="7" y="11" width="1" height="1" fill="#ec00eb"/>
<rect x="8" y="11" width="1" height="1" fill="#ffff08"/>
<rect x="9" y="11" width="1" height="1" fill="#ffe008"/>
<rect x="10" y="11" width="1" height="1" fill="#ec00eb"/>
<rect x="11" y="11" width="1" height="1" fill="#ff8ffe"/>
<rect x="12" y="11" width="1" height="1" fill="#e800e5"/>
<rect x="13" y="11" width="1" height="1" fill="#fed0ff"/>
<rect x="14" y="11" width="1" height="1" fill="#fea8ff"/>
<rect x="15" y="11" width="1" height="1" fill="#fea8ff"/>
<rect x="16" y="11" width="1" height="1" fill="#ff8ffa"/>
<rect x="17" y="11" width="1" height="1" fill="#ff8ffa"/>
<rect x="18" y="11" width="1" height="1" fill="#fb00f2"/>
<rect x="19" y="11" width="1" height="1" fill="#fb00f2"/>
<rect x="20" y="11" width="1" height="1" fill="#fb00f2"/>
<rect x="21" y="11" width="1" height="1" fill="#ffffff"/>
<rect x="22" y="11" width="1" height="1" fill="#e800e5"/>
<rect x="23" y="11" width="1" height="1" fill="#ff60f4"/>
<rect x="24" y="11" width="1" height="1" fill="#c200c1"/>
<rect x="0" y="12" width="1" height="1" fill="#ce00cd"/>
<rect x="1" y="12" width="1" height="1" fill="#ffffff"/>
<rect x="2" y="12" width="1" height="1" fill="#ffffff"/>
<rect x="3" y="12" width="1" height="1" fill="#ffffff"/>
<rect x="4" y="12" width="1" height="1" fill="#f6e0ff"/>
<rect x="5" y="12" width="1" height="1" fill="#ec00eb"/>
<rect x="6" y="12" width="1" height="1" fill="#ffff08"/>
<rect x="7" y="12" width="1" height="1" fill="#ffe008"/>
<rect x="8" y="12" width="1" height="1" fill="#ec00eb"/>
<rect x="9" y="12" width="1" height="1" fill="#ffe008"/>
<rect x="10" y="12" width="1" height="1" fill="#ffe008"/>
<rect x="11" y="12" width="1" height="1" fill="#ec00eb"/>
<rect x="12" y="12" width="1" height="1" fill="#c500c4"/>
<rect x="13" y="12" width="1" height="1" fill="#fea8ff"/>
<rect x="14" y="12" width="1" height="1" fill="#ce00cd"/>
<rect x="15" y="12" width="1" height="1" fill="#ce00cd"/>
<rect x="16" y="12" width="1" height="1" fill="#ff68f6"/>
<rect x="17" y="12" width="1" height="1" fill="#fb00f2"/>
<rect x="18" y="12" width="1" height="1" fill="#fed0ff"/>
<rect x="19" y="12" width="1" height="1" fill="#ffffff"/>
<rect x="20" y="12" width="1" height="1" fill="#ffffff"/>
<rect x="21" y="12" width="1" height="1" fill="#fea8ff"/>
<rect x="22" y="12" width="1" height="1" fill="#e800e5"/>
<rect x="23" y="12" width="1" height="1" fill="#c200c1"/>
<rect x="0" y="13" width="1" height="1" fill="#ce00cd"/>
<rect x="1" y="13" width="1" height="1" fill="#ffffff"/>
<rect x="2" y="13" width="1" height="1" fill="#ffffff"/>
<rect x="3" y="13" width="1" height="1" fill="#f6e0ff"/>
<rect x="4" y="13" width="1" height="1" fill="#f6e0ff"/>
<rect x="5" y="13" width="1" height="1" fill="#f6e0ff"/>
<rect x="6" y="13" width="1" height="1" fill="#ec00eb"/>
<rect x="7" y="13" width="1" height="1" fill="#ffe008"/>
<rect x="8" y="13" width="1" height="1" fill="#ffe008"/>
<rect x="9" y="13" width="1" height="1" fill="#ec00eb"/>
<rect x="10" y="13" width="1" height="1" fill="#ffe008"/>
<rect x="11" y="13" width="1" height="1" fill="#ffd008"/>
<rect x="12" y="13" width="1" height="1" fill="#ec00eb"/>
<rect x="13" y="13" width="1" height="1" fill="#ce00cd"/>
<rect x="14" y="13" width="1" height="1" fill="#ff90f9"/>
<rect x="15" y="13" width="1" height="1" fill="#fd2aee"/>
<rect x="16" y="13" width="1" height="1" fill="#ce00cd"/>
<rect x="17" y="13" width="1" height="1" fill="#fed0ff"/>
<rect x="18" y="13" width="1" height="1" fill="#fea8ff"/>
<rect x="19" y="13" width="1" height="1" fill="#fea8ff"/>
<rect x="20" y="13" width="1" height="1" fill="#fb00f2"/>
<rect x="21" y="13" width="1" height="1" fill="#e800e5"/>
<rect x="22" y="13" width="1" height="1" fill="#c500c4"/>
<rect x="23" y="13" width="1" height="1" fill="#ff37ef"/>
<rect x="24" y="13" width="1" height="1" fill="#e800e5"/>
<rect x="0" y="14" width="1" height="1" fill="#ce00cd"/>
<rect x="1" y="14" width="1" height="1" fill="#f6e0ff"/>
<rect x="2" y="14" width="1" height="1" fill="#f6e0ff"/>
<rect x="3" y="14" width="1" height="1" fill="#f6e0ff"/>
<rect x="4" y="14" width="1" height="1" fill="#f6e0ff"/>
<rect x="5" y="14" width="1" height="1" fill="#ff9ffc"/>
<rect x="6" y="14" width="1" height="1" fill="#ff9ffc"/>
<rect x="7" y="14" width="1" height="1" fill="#ec00eb"/>
<rect x="8" y="14" width="1" height="1" fill="#ffd008"/>
<rect x="9" y="14" width="1" height="1" fill="#ffd008"/>
<rect x="10" y="14" width="1" height="1" fill="#ec00eb"/>
<rect x="11" y="14" width="1" height="1" fill="#ffd008"/>
<rect x="12" y="14" width="1" height="1" fill="#ce00cd"/>
<rect x="13" y="14" width="1" height="1" fill="#ff90f9"/>
<rect x="14" y="14" width="1" height="1" fill="#ce00cd"/>
<rect x="15" y="14" width="1" height="1" fill="#ce00cd"/>
<rect x="16" y="14" width="1" height="1" fill="#fd2aee"/>
<rect x="17" y="14" width="1" height="1" fill="#ce00cd"/>
<rect x="18" y="14" width="1" height="1" fill="#ff8ffa"/>
<rect x="19" y="14" width="1" height="1" fill="#fb00f2"/>
<rect x="20" y="14" width="1" height="1" fill="#fed0ff"/>
<rect x="21" y="14" width="1" height="1" fill="#fed0ff"/>
<rect x="22" y="14" width="1" height="1" fill="#ffffff"/>
<rect x="23" y="14" width="1" height="1" fill="#c500c4"/>
<rect x="24" y="14" width="1" height="1" fill="#e800e5"/>
<rect x="1" y="15" width="1" height="1" fill="#ce00cd"/>
<rect x="2" y="15" width="1" height="1" fill="#ff9ffc"/>
<rect x="3" y="15" width="1" height="1" fill="#ff9ffc"/>
<rect x="4" y="15" width="1" height="1" fill="#ff9ffc"/>
<rect x="5" y="15" width="1" height="1" fill="#ff9ffc"/>
<rect x="6" y="15" width="1" height="1" fill="#ff5df4"/>
<rect x="7" y="15" width="1" height="1" fill="#ff5df4"/>
<rect x="8" y="15" width="1" height="1" fill="#ec00eb"/>
<rect x="9" y="15" width="1" height="1" fill="#ffaf00"/>
<rect x="10" y="15" width="1" height="1" fill="#ffaf00"/>
<rect x="11" y="15" width="1" height="1" fill="#ce00cd"/>
<rect x="12" y="15" width="1" height="1" fill="#ff39f1"/>
<rect x="13" y="15" width="1" height="1" fill="#ce00cd"/>
<rect x="14" y="15" width="1" height="1" fill="#fc0bef"/>
<rect x="15" y="15" width="1" height="1" fill="#fc0bef"/>
<rect x="16" y="15" width="1" height="1" fill="#ce00cd"/>
<rect x="17" y="15" width="1" height="1" fill="#fc0bef"/>
<rect x="18" y="15" width="1" height="1" fill="#ce00cd"/>
<rect x="19" y="15" width="1" height="1" fill="#ff8ffa"/>
<rect x="20" y="15" width="1" height="1" fill="#ff8ffa"/>
<rect x="21" y="15" width="1" height="1" fill="#ff8ffa"/>
<rect x="22" y="15" width="1" height="1" fill="#c500c4"/>
<rect x="23" y="15" width="1" height="1" fill="#ff37ef"/>
<rect x="24" y="15" width="1" height="1" fill="#e800e5"/>
<rect x="1" y="16" width="1" height="1" fill="#ce00cd"/>
<rect x="2" y="16" width="1" height="1" fill="#ff5df4"/>
<rect x="3" y="16" width="1" height="1" fill="#ff5df4"/>
<rect x="4" y="16" width="1" height="1" fill="#ff5df4"/>
<rect x="5" y="16" width="1" height="1" fill="#ff5df4"/>
<rect x="6" y="16" width="1" height="1" fill="#ff5df4"/>
<rect x="7" y="16" width="1" height="1" fill="#ff3af2"/>
<rect x="8" y="16" width="1" height="1" fill="#ff3af2"/>
<rect x="9" y="16" width="1" height="1" fill="#ec00eb"/>
<rect x="10" y="16" width="1" height="1" fill="#ffaf00"/>
<rect x="11" y="16" width="1" height="1" fill="#ce00cd"/>
<rect x="12" y="16" width="1" height="1" fill="#fc0bef"/>
<rect x="13" y="16" width="1" height="1" fill="#ce00cd"/>
<rect x="14" y="16" width="1" height="1" fill="#fc0bef"/>
<rect x="15" y="16" width="1" height="1" fill="#fc0bef"/>
<rect x="16" y="16" width="1" height="1" fill="#ce00cd"/>
<rect x="17" y="16" width="1" height="1" fill="#fc0bef"/>
<rect x="18" y="16" width="1" height="1" fill="#ce00cd"/>
<rect x="19" y="16" width="1" height="1" fill="#ff68f6"/>
<rect x="20" y="16" width="1" height="1" fill="#ff68f6"/>
<rect x="21" y="16" width="1" height="1" fill="#c500c4"/>
<rect x="22" y="16" width="1" height="1" fill="#ff37ef"/>
<rect x="23" y="16" width="1" height="1" fill="#b800b4"/>
<rect x="0" y="17" width="1" height="1" fill="#ce00cd"/>
<rect x="1" y="17" width="1" height="1" fill="#ce00cd"/>
<rect x="2" y="17" width="1" height="1" fill="#ce00cd"/>
<rect x="3" y="17" width="1" height="1" fill="#ce00cd"/>
<rect x="4" y="17" width="1" height="1" fill="#ce00cd"/>
<rect x="5" y="17" width="1" height="1" fill="#ce00cd"/>
<rect x="6" y="17" width="1" height="1" fill="#ce00cd"/>
<rect x="7" y="17" width="1" height="1" fill="#ce00cd"/>
<rect x="8" y="17" width="1" height="1" fill="#ce00cd"/>
<rect x="9" y="17" width="1" height="1" fill="#ce00cd"/>
<rect x="10" y="17" width="1" height="1" fill="#ce00cd"/>
<rect x="11" y="17" width="1" height="1" fill="#ce00cd"/>
<rect x="12" y="17" width="1" height="1" fill="#ce00cd"/>
<rect x="13" y="17" width="1" height="1" fill="#fc0bef"/>
<rect x="14" y="17" width="1" height="1" fill="#ce00cd"/>
<rect x="15" y="17" width="1" height="1" fill="#ce00cd"/>
<rect x="16" y="17" width="1" height="1" fill="#fc0bef"/>
<rect x="17" y="17" width="1" height="1" fill="#ce00cd"/>
<rect x="18" y="17" width="1" height="1" fill="#c500c4"/>
<rect x="19" y="17" width="1" height="1" fill="#c500c4"/>
<rect x="20" y="17" width="1" height="1" fill="#c500c4"/>
<rect x="21" y="17" width="1" height="1" fill="#ff37ef"/>
<rect x="22" y="17" width="1" height="1" fill="#b800b4"/>
<rect x="23" y="17" width="1" height="1" fill="#ec00eb"/>
<rect x="0" y="18" width="1" height="1" fill="#ce00cd"/>
<rect x="1" y="18" width="1" height="1" fill="#ff44ef"/>
<rect x="2" y="18" width="1" height="1" fill="#ff44ef"/>
<rect x="3" y="18" width="1" height="1" fill="#ff44ef"/>
<rect x="4" y="18" width="1" height="1" fill="#ff44ef"/>
<rect x="5" y="18" width="1" height="1" fill="#ff44ef"/>
<rect x="6" y="18" width="1" height="1" fill="#ff44ef"/>
<rect x="7" y="18" width="1" height="1" fill="#ff44ef"/>
<rect x="8" y="18" width="1" height="1" fill="#ff3ef0"/>
<rect x="9" y="18" width="1" height="1" fill="#ff30ef"/>
<rect x="10" y="18" width="1" height="1" fill="#ff30ef"/>
<rect x="11" y="18" width="1" height="1" fill="#fd28ed"/>
<rect x="12" y="18" width="1" height="1" fill="#fd16ef"/>
<rect x="13" y="18" width="1" height="1" fill="#ce00cd"/>
<rect x="14" y="18" width="1" height="1" fill="#fc0bef"/>
<rect x="15" y="18" width="1" height="1" fill="#fc0bef"/>
<rect x="16" y="18" width="1" height="1" fill="#ce00cd"/>
<rect x="17" y="18" width="1" height="1" fill="#fd28ed"/>
<rect x="18" y="18" width="1" height="1" fill="#fd28ed"/>
<rect x="19" y="18" width="1" height="1" fill="#fd28ed"/>
<rect x="20" y="18" width="1" height="1" fill="#b800b4"/>
<rect x="21" y="18" width="1" height="1" fill="#b800b4"/>
<rect x="22" y="18" width="1" height="1" fill="#fc03f0"/>
<rect x="23" y="18" width="1" height="1" fill="#fb00f4"/>
<rect x="0" y="19" width="1" height="1" fill="#ce00cd"/>
<rect x="1" y="19" width="1" height="1" fill="#ce00cd"/>
<rect x="2" y="19" width="1" height="1" fill="#ce00cd"/>
<rect x="3" y="19" width="1" height="1" fill="#ce00cd"/>
<rect x="4" y="19" width="1" height="1" fill="#ce00cd"/>
<rect x="5" y="19" width="1" height="1" fill="#ce00cd"/>
<rect x="6" y="19" width="1" height="1" fill="#ce00cd"/>
<rect x="7" y="19" width="1" height="1" fill="#ce00cd"/>
<rect x="8" y="19" width="1" height="1" fill="#ce00cd"/>
<rect x="9" y="19" width="1" height="1" fill="#ce00cd"/>
<rect x="10" y="19" width="1" height="1" fill="#ce00cd"/>
<rect x="11" y="19" width="1" height="1" fill="#ce00cd"/>
<rect x="12" y="19" width="1" height="1" fill="#ce00cd"/>
<rect x="14" y="19" width="1" height="1" fill="#ce00cd"/>
<rect x="15" y="19" width="1" height="1" fill="#ce00cd"/>
<rect x="17" y="19" width="1" height="1" fill="#b800b4"/>
<rect x="18" y="19" width="1" height="1" fill="#b800b4"/>
<rect x="19" y="19" width="1" height="1" fill="#b800b4"/>
<rect x="20" y="19" width="1" height="1" fill="#e200e0"/>
<rect x="21" y="19" width="1" height="1" fill="#e200e0"/>
<rect x="22" y="19" width="1" height="1" fill="#e200e0"/>
<rect x="23" y="19" width="1" height="1" fill="#e200e0"/>
</svg>