<?xml version="1.0" encoding="UTF-8" standalone="no"?>
<svg xmlns="http://www.w3.org/2000/svg" width="26" height="21" shape-rendering="crispEdges">
<rect x="3" y="0" width="1" height="1" fill="#ff0000"/>
<rect x="4" y="0" width="1" height="1" fill="#ff0000"/>
<rect x="5" y="0" width="1" height="1" fill="#ff0000"/>
<rect x="12" y="0" width="1" height="1" fill="#b70c0c"/>
<rect x="13" y="0" width="1" height="1" fill="#b81112"/>
<rect x="14" y="0" width="1" height="1" fill="#b91511"/>
<rect x="15" y="0" width="1" height="1" fill="#b91115"/>
<rect x="16" y="0" width="1" height="1" fill="#ba1212"/>
<rect x="17" y="0" width="1" height="1" fill="#ba1512"/>
<rect x="18" y="0" width="1" height="1" fill="#ba0f0d"/>
<rect x="19" y="0" width="1" height="1" fill="#b60606"/>
<rect x="22" y="0" width="1" height="1" fill="#b50002"/>
<rect x="23" y="0" width="1" height="1" fill="#b40000"/>
<rect x="24" y="0" width="1" height="1" fill="#ae0000"/>
<rect x="2" y="1" width="1" height="1" fill="#ff0000"/>
<rect x="6" y="1" width="1" height="1" fill="#ff0000"/>
<rect x="10" y="1" width="1" height="1" fill="#b10000"/>
<rect x="11" y="1" width="1" height="1" fill="#b60606"/>
<rect x="12" y="1" width="1" height="1" fill="#f4dedf"/>
<rect x="13" y="1" width="1" height="1" fill="#f8e8e7"/>
<rect x="14" y="1" width="1" height="1" fill="#f7e6e8"/>
<rect x="15" y="1" width="1" height="1" fill="#f8e6e7"/>
<rect x="16" y="1" width="1" height="1" fill="#f8e6e8"/>
<rect x="17" y="1" width="1" height="1" fill="#f8e6e6"/>
<rect x="18" y="1" width="1" height="1" fill="#f7cfd3"/>
<rect x="19" y="1" width="1" height="1" fill="#f5c5c9"/>
<rect x="20" y="1" width="1" height="1" fill="#b60000"/>
<rect x="21" y="1" width="1" height="1" fill="#b50200"/>
<rect x="22" y="1" width="1" height="1" fill="#f6e3e3"/>
<rect x="23" y="1" width="1" height="1" fill="#f5c8cd"/>
<rect x="24" y="1" width="1" height="1" fill="#ac0000"/>
<rect x="1" y="2" width="1" height="1" fill="#ff0000"/>
<rect x="3" y="2" width="1" height="1" fill="#ff0000"/>
<rect x="4" y="2" width="1" height="1" fill="#ff0000"/>
<rect x="9" y="2" width="1" height="1" fill="#b50000"/>
<rect x="10" y="2" width="1" height="1" fill="#f4dfde"/>
<rect x="11" y="2" width="1" height="1" fill="#f9ecec"/>
<rect x="12" y="2" width="1" height="1" fill="#fdf3f4"/>
<rect x="13" y="2" width="1" height="1" fill="#ffe2e6"/>
<rect x="14" y="2" width="1" height="1" fill="#ffdde1"/>
<rect x="15" y="2" width="1" height="1" fill="#ffdcdf"/>
<rect x="16" y="2" width="1" height="1" fill="#ffdee0"/>
<rect x="17" y="2" width="1" height="1" fill="#ffdee2"/>
<rect x="18" y="2" width="1" height="1" fill="#ffe1e4"/>
<rect x="19" y="2" width="1" height="1" fill="#fddcdf"/>
<rect x="20" y="2" width="1" height="1" fill="#f9d5d8"/>
<rect x="21" y="2" width="1" height="1" fill="#fbecee"/>
<rect x="22" y="2" width="1" height="1" fill="#fef4f6"/>
<rect x="23" y="2" width="1" height="1" fill="#f8d1d5"/>
<rect x="24" y="2" width="1" height="1" fill="#ad0000"/>
<rect x="1" y="3" width="1" height="1" fill="#ff0000"/>
<rect x="3" y="3" width="1" height="1" fill="#ff0000"/>
<rect x="4" y="3" width="1" height="1" fill="#ff0000"/>
<rect x="5" y="3" width="1" height="1" fill="#ff0000"/>
<rect x="8" y="3" width="1" height="1" fill="#b70c0d"/>
<rect x="9" y="3" width="1" height="1" fill="#f5ddde"/>
<rect x="10" y="3" width="1" height="1" fill="#fdf4f4"/>
<rect x="11" y="3" width="1" height="1" fill="#ffdfe4"/>
<rect x="12" y="3" width="1" height="1" fill="#ffdbdf"/>
<rect x="13" y="3" width="1" height="1" fill="#ffd6d9"/>
<rect x="14" y="3" width="1" height="1" fill="#ff8d8f"/>
<rect x="15" y="3" width="1" height="1" fill="#ff8f8f"/>
<rect x="16" y="3" width="1" height="1" fill="#ffb9bb"/>
<rect x="17" y="3" width="1" height="1" fill="#ffbbbf"/>
<rect x="18" y="3" width="1" height="1" fill="#ffdee2"/>
<rect x="19" y="3" width="1" height="1" fill="#ffe0e4"/>
<rect x="20" y="3" width="1" height="1" fill="#fee2e5"/>
<rect x="21" y="3" width="1" height="1" fill="#ffe3e6"/>
<rect x="22" y="3" width="1" height="1" fill="#fcdce0"/>
<rect x="23" y="3" width="1" height="1" fill="#f7a1a6"/>
<rect x="24" y="3" width="1" height="1" fill="#ac0000"/>
<rect x="1" y="4" width="1" height="1" fill="#ff0000"/>
<rect x="2" y="4" width="1" height="1" fill="#ff0000"/>
<rect x="3" y="4" width="1" height="1" fill="#ff0000"/>
<rect x="5" y="4" width="1" height="1" fill="#ff0000"/>
<rect x="8" y="4" width="1" height="1" fill="#ba1512"/>
<rect x="9" y="4" width="1" height="1" fill="#f7e4e5"/>
<rect x="10" y="4" width="1" height="1" fill="#ffdde0"/>
<rect x="11" y="4" width="1" height="1" fill="#ffb1b6"/>
<rect x="12" y="4" width="1" height="1" fill="#ff8787"/>
<rect x="13" y="4" width="1" height="1" fill="#ff8c8d"/>
<rect x="14" y="4" width="1" height="1" fill="#ffebec"/>
<rect x="15" y="4" width="1" height="1" fill="#fff2f2"/>
<rect x="16" y="4" width="1" height="1" fill="#fff6f7"/>
<rect x="17" y="4" width="1" height="1" fill="#fff5f5"/>
<rect x="18" y="4" width="1" height="1" fill="#ffbfc3"/>
<rect x="19" y="4" width="1" height="1" fill="#ffe0e4"/>
<rect x="20" y="4" width="1" height="1" fill="#ffe1e5"/>
<rect x="21" y="4" width="1" height="1" fill="#ffdee4"/>
<rect x="22" y="4" width="1" height="1" fill="#fbd0d4"/>
<rect x="23" y="4" width="1" height="1" fill="#b60000"/>
<rect x="2" y="5" width="1" height="1" fill="#ff0000"/>
<rect x="3" y="5" width="1" height="1" fill="#ff0000"/>
<rect x="5" y="5" width="1" height="1" fill="#ff0000"/>
<rect x="8" y="5" width="1" height="1" fill="#b90f10"/>
<rect x="9" y="5" width="1" height="1" fill="#f6c5c6"/>
<rect x="10" y="5" width="1" height="1" fill="#faa5a9"/>
<rect x="11" y="5" width="1" height="1" fill="#f87172"/>
<rect x="12" y="5" width="1" height="1" fill="#fa9c9e"/>
<rect x="13" y="5" width="1" height="1" fill="#fcc8cd"/>
<rect x="14" y="5" width="1" height="1" fill="#ffd8db"/>
<rect x="15" y="5" width="1" height="1" fill="#fff6f6"/>
<rect x="16" y="5" width="1" height="1" fill="#fffdfc"/>
<rect x="17" y="5" width="1" height="1" fill="#fffcfc"/>
<rect x="18" y="5" width="1" height="1" fill="#fff9f9"/>
<rect x="19" y="5" width="1" height="1" fill="#ffe3e5"/>
<rect x="20" y="5" width="1" height="1" fill="#ffe0e4"/>
<rect x="21" y="5" width="1" height="1" fill="#fdd7dd"/>
<rect x="22" y="5" width="1" height="1" fill="#f49fa2"/>
<rect x="23" y="5" width="1" height="1" fill="#af0000"/>
<rect x="0" y="6" width="1" height="1" fill="#ff0000"/>
<rect x="4" y="6" width="1" height="1" fill="#ff0000"/>
<rect x="8" y="6" width="1" height="1" fill="#b70605"/>
<rect x="9" y="6" width="1" height="1" fill="#f08d91"/>
<rect x="10" y="6" width="1" height="1" fill="#c90000"/>
<rect x="11" y="6" width="1" height="1" fill="#c90000"/>
<rect x="12" y="6" width="1" height="1" fill="#c90000"/>
<rect x="13" y="6" width="1" height="1" fill="#e03a3b"/>
<rect x="14" y="6" width="1" height="1" fill="#f77576"/>
<rect x="15" y="6" width="1" height="1" fill="#fd888a"/>
<rect x="16" y="6" width="1" height="1" fill="#fcb9b9"/>
<rect x="17" y="6" width="1" height="1" fill="#fffcfc"/>
<rect x="18" y="6" width="1" height="1" fill="#fffbfc"/>
<rect x="19" y="6" width="1" height="1" fill="#ffe3e7"/>
<rect x="20" y="6" width="1" height="1" fill="#ffdee3"/>
<rect x="21" y="6" width="1" height="1" fill="#f49fa2"/>
<rect x="22" y="6" width="1" height="1" fill="#b50000"/>
<rect x="1" y="7" width="1" height="1" fill="#ff0000"/>
<rect x="2" y="7" width="1" height="1" fill="#ff0000"/>
<rect x="3" y="7" width="1" height="1" fill="#ff0000"/>
<rect x="8" y="7" width="1" height="1" fill="#b40000"/>
<rect x="9" y="7" width="1" height="1" fill="#c90000"/>
<rect x="13" y="7" width="1" height="1" fill="#c90000"/>
<rect x="14" y="7" width="1" height="1" fill="#ffb1b6"/>
<rect x="15" y="7" width="1" height="1" fill="#fe9da0"/>
<rect x="16" y="7" width="1" height="1" fill="#fd888a"/>
<rect x="17" y="7" width="1" height="1" fill="#fcb9b9"/>
<rect x="18" y="7" width="1" height="1" fill="#ffe4e7"/>
<rect x="19" y="7" width="1" height="1" fill="#ffdfe4"/>
<rect x="20" y="7" width="1" height="1" fill="#fabfc3"/>
<rect x="21" y="7" width="1" height="1" fill="#f99294"/>
<rect x="22" y="7" width="1" height="1" fill="#b30000"/>
<rect x="24" y="7" width="1" height="1" fill="#a90000"/>
<rect x="13" y="8" width="1" height="1" fill="#c90000"/>
<rect x="14" y="8" width="1" height="1" fill="#ffb1b6"/>
<rect x="15" y="8" width="1" height="1" fill="#e60202"/>
<rect x="16" y="8" width="1" height="1" fill="#e60202"/>
<rect x="17" y="8" width="1" height="1" fill="#e60202"/>
<rect x="18" y="8" width="1" height="1" fill="#c90000"/>
<rect x="19" y="8" width="1" height="1" fill="#fcaaad"/>
<rect x="20" y="8" width="1" height="1" fill="#f8acaf"/>
<rect x="21" y="8" width="1" height="1" fill="#fa7a7b"/>
<rect x="22" y="8" width="1" height="1" fill="#b50000"/>
<rect x="23" y="8" width="1" height="1" fill="#ae0000"/>
<rect x="24" y="8" width="1" height="1" fill="#ab0000"/>
<rect x="7" y="9" width="1" height="1" fill="#cc0000"/>
<rect x="8" y="9" width="1" height="1" fill="#cc0000"/>
<rect x="12" y="9" width="1" height="1" fill="#c90000"/>
<rect x="13" y="9" width="1" height="1" fill="#ffb1b6"/>
<rect x="14" y="9" width="1" height="1" fill="#e60202"/>
<rect x="15" y="9" width="1" height="1" fill="#ffffff"/>
<rect x="16" y="9" width="1" height="1" fill="#ffd4d5"/>
<rect x="17" y="9" width="1" height="1" fill="#ffa2a3"/>
<rect x="18" y="9" width="1" height="1" fill="#b60000"/>
<rect x="19" y="9" width="1" height="1" fill="#e60202"/>
<rect x="20" y="9" width="1" height="1" fill="#e60202"/>
<rect x="21" y="9" width="1" height="1" fill="#e60202"/>
<rect x="22" y="9" width="1" height="1" fill="#fb6262"/>
<rect x="23" y="9" width="1" height="1" fill="#ff8585"/>
<rect x="24" y="9" width="1" height="1" fill="#ad0000"/>
<rect x="0" y="10" width="1" height="1" fill="#b60000"/>
<rect x="1" y="10" width="1" height="1" fill="#b60000"/>
<rect x="2" y="10" width="1" height="1" fill="#b60000"/>
<rect x="3" y="10" width="1" height="1" fill="#b60000"/>
<rect x="5" y="10" width="1" height="1" fill="#cc0000"/>
<rect x="6" y="10" width="1" height="1" fill="#cc0000"/>
<rect x="7" y="10" width="1" height="1" fill="#ffff08"/>
<rect x="8" y="10" width="1" height="1" fill="#ffff08"/>
<rect x="9" y="10" width="1" height="1" fill="#cc0000"/>
<rect x="10" y="10" width="1" height="1" fill="#ae0000"/>
<rect x="11" y="10" width="1" height="1" fill="#c90000"/>
<rect x="12" y="10" width="1" height="1" fill="#ffb1b6"/>
<rect x="13" y="10" width="1" height="1" fill="#e60202"/>
<rect x="14" y="10" width="1" height="1" fill="#ffffff"/>
<rect x="15" y="10" width="1" height="1" fill="#ffd4d5"/>
<rect x="16" y="10" width="1" height="1" fill="#ffa2a3"/>
<rect x="17" y="10" width="1" height="1" fill="#ff7979"/>
<rect x="18" y="10" width="1" height="1" fill="#e60202"/>
<rect x="19" y="10" width="1" height="1" fill="#ffffff"/>
<rect x="20" y="10" width="1" height="1" fill="#ffa2a3"/>
<rect x="21" y="10" width="1" height="1" fill="#c90000"/>
<rect x="22" y="10" width="1" height="1" fill="#fb6262"/>
<rect x="23" y="10" width="1" height="1" fill="#ff8585"/>
<rect x="24" y="10" width="1" height="1" fill="#ad0000"/>
<rect x="0" y="11" width="1" height="1" fill="#b60000"/>
<rect x="1" y="11" width="1" height="1" fill="#ffffff"/>
<rect x="2" y="11" width="1" height="1" fill="#ffffff"/>
<rect x="3" y="11" width="1" height="1" fill="#ffffff"/>
<rect x="4" y="11" width="1" height="1" fill="#cc0000"/>
<rect x="5" y="11" width="1" height="1" fill="#ffff08"/>
<rect x="6" y="11" width="1" height="1" fill="#ffff08"/>
<rect x="7" y="11" width="1" height="1" fill="#cc0000"/>
<rect x="8" y="11" width="1" height="1" fill="#ffff08"/>
<rect x="9" y="11" width="1" height="1" fill="#ffe008"/>
<rect x="10" y="11" width="1" height="1" fill="#cc0000"/>
<rect x="11" y="11" width="1" height="1" fill="#ffb1b6"/>
<rect x="12" y="11" width="1" height="1" fill="#e60202"/>
<rect x="13" y="11" width="1" height="1" fill="#ffffff"/>
<rect x="14" y="11" width="1" height="1" fill="#ffd4d5"/>
<rect x="15" y="11" width="1" height="1" fill="#ffa2a3"/>
<rect x="16" y="11" width="1" height="1" fill="#ff7979"/>
<rect x="17" y="11" width="1" height="1" fill="#e60202"/>
<rect x="18" y="11" width="1" height="1" fill="#ffffff"/>
<rect x="19" y="11" width="1" height="1" fill="#ffd4d5"/>
<rect x="20" y="11" width="1" height="1" fill="#ffa2a3"/>
<rect x="21" y="11" width="1" height="1" fill="#c90000"/>
<rect x="22" y="11" width="1" height="1" fill="#fb6262"/>
<rect x="23" y="11" width="1" height="1" fill="#fb6262"/>
<rect x="24" y="11" width="1" height="1" fill="#ad0000"/>
<rect x="0" y="12" width="1" height="1" fill="#b60000"/>
<rect x="1" y="12" width="1" height="1" fill="#ffffff"/>
<rect x="2" y="12" width="1" height="1" fill="#ffffff"/>
<rect x="3" y="12" width="1" height="1" fill="#ffffff"/>
<rect x="4" y="12" width="1" height="1" fill="#ffe2eb"/>
<rect x="5" y="12" width="1" height="1" fill="#cc0000"/>
<rect x="6" y="12" width="1" height="1" fill="#ffff08"/>
<rect x="7" y="12" width="1" height="1" fill="#ffe008"/>
<rect x="8" y="12" width="1" height="1" fill="#cc0000"/>
<rect x="9" y="12" width="1" height="1" fill="#ffe008"/>
<rect x="10" y="12" width="1" height="1" fill="#ffe008"/>
<rect x="11" y="12" width="1" height="1" fill="#cc0000"/>
<rect x="12" y="12" width="1" height="1" fill="#b60000"/>
<rect x="13" y="12" width="1" height="1" fill="#ffb1b6"/>
<rect x="14" y="12" width="1" height="1" fill="#b60000"/>
<rect x="15" y="12" width="1" height="1" fill="#b60000"/>
<rect x="16" y="12" width="1" height="1" fill="#e60202"/>
<rect x="17" y="12" width="1" height="1" fill="#ffffff"/>
<rect x="18" y="12" width="1" height="1" fill="#ffd4d5"/>
<rect x="19" y="12" width="1" height="1" fill="#ffa2a3"/>
<rect x="20" y="12" width="1" height="1" fill="#ff7979"/>
<rect x="21" y="12" width="1" height="1" fill="#c90000"/>
<rect x="22" y="12" width="1" height="1" fill="#c90000"/>
<rect x="23" y="12" width="1" height="1" fill="#fb6262"/>
<rect x="24" y="12" width="1" height="1" fill="#ad0000"/>
<rect x="0" y="13" width="1" height="1" fill="#b60000"/>
<rect x="1" y="13" width="1" height="1" fill="#ffffff"/>
<rect x="2" y="13" width="1" height="1" fill="#ffffff"/>
<rect x="3" y="13" width="1" height="1" fill="#ffe2eb"/>
<rect x="4" y="13" width="1" height="1" fill="#ffe2eb"/>
<rect x="5" y="13" width="1" height="1" fill="#ffe2eb"/>
<rect x="6" y="13" width="1" height="1" fill="#cc0000"/>
<rect x="7" y="13" width="1" height="1" fill="#ffe008"/>
<rect x="8" y="13" width="1" height="1" fill="#ffe008"/>
<rect x="9" y="13" width="1" height="1" fill="#cc0000"/>
<rect x="10" y="13" width="1" height="1" fill="#ffe008"/>
<rect x="11" y="13" width="1" height="1" fill="#ffd008"/>
<rect x="12" y="13" width="1" height="1" fill="#a20000"/>
<rect x="13" y="13" width="1" height="1" fill="#b60000"/>
<rect x="14" y="13" width="1" height="1" fill="#ffa4a4"/>
<rect x="15" y="13" width="1" height="1" fill="#ff3f3f"/>
<rect x="16" y="13" width="1" height="1" fill="#b60000"/>
<rect x="17" y="13" width="1" height="1" fill="#ffd4d5"/>
<rect x="18" y="13" width="1" height="1" fill="#ffa2a3"/>
<rect x="19" y="13" width="1" height="1" fill="#ff7979"/>
<rect x="20" y="13" width="1" height="1" fill="#c90000"/>
<rect x="21" y="13" width="1" height="1" fill="#ffd4d5"/>
<rect x="22" y="13" width="1" height="1" fill="#c90000"/>
<rect x="23" y="13" width="1" height="1" fill="#af0000"/>
<rect x="0" y="14" width="1" height="1" fill="#b60000"/>
<rect x="1" y="14" width="1" height="1" fill="#ffe2eb"/>
<rect x="2" y="14" width="1" height="1" fill="#ffe2eb"/>
<rect x="3" y="14" width="1" height="1" fill="#ffe2eb"/>
<rect x="4" y="14" width="1" height="1" fill="#ffe2eb"/>
<rect x="5" y="14" width="1" height="1" fill="#ffb0b4"/>
<rect x="6" y="14" width="1" height="1" fill="#ffb0b4"/>
<rect x="7" y="14" width="1" height="1" fill="#cc0000"/>
<rect x="8" y="14" width="1" height="1" fill="#ffd008"/>
<rect x="9" y="14" width="1" height="1" fill="#ffd008"/>
<rect x="10" y="14" width="1" height="1" fill="#cc0000"/>
<rect x="11" y="14" width="1" height="1" fill="#ffd008"/>
<rect x="12" y="14" width="1" height="1" fill="#b60000"/>
<rect x="13" y="14" width="1" height="1" fill="#ffa4a4"/>
<rect x="14" y="14" width="1" height="1" fill="#ffd107"/>
<rect x="15" y="14" width="1" height="1" fill="#ffd107"/>
<rect x="16" y="14" width="1" height="1" fill="#ff3f3f"/>
<rect x="17" y="14" width="1" height="1" fill="#b60000"/>
<rect x="18" y="14" width="1" height="1" fill="#ff7979"/>
<rect x="19" y="14" width="1" height="1" fill="#c90000"/>
<rect x="20" y="14" width="1" height="1" fill="#ffd4d5"/>
<rect x="21" y="14" width="1" height="1" fill="#ffa2a3"/>
<rect x="22" y="14" width="1" height="1" fill="#c90000"/>
<rect x="23" y="14" width="1" height="1" fill="#ae0000"/>
<rect x="1" y="15" width="1" height="1" fill="#b60000"/>
<rect x="2" y="15" width="1" height="1" fill="#ffb0b4"/>
<rect x="3" y="15" width="1" height="1" fill="#ffb0b4"/>
<rect x="4" y="15" width="1" height="1" fill="#ffb0b4"/>
<rect x="5" y="15" width="1" height="1" fill="#ffb0b4"/>
<rect x="6" y="15" width="1" height="1" fill="#ff7575"/>
<rect x="7" y="15" width="1" height="1" fill="#ff7575"/>
<rect x="8" y="15" width="1" height="1" fill="#cc0000"/>
<rect x="9" y="15" width="1" height="1" fill="#ffaf00"/>
<rect x="10" y="15" width="1" height="1" fill="#ffaf00"/>
<rect x="11" y="15" width="1" height="1" fill="#b60000"/>
<rect x="12" y="15" width="1" height="1" fill="#ff5252"/>
<rect x="13" y="15" width="1" height="1" fill="#ffd107"/>
<rect x="14" y="15" width="1" height="1" fill="#ff0e0e"/>
<rect x="15" y="15" width="1" height="1" fill="#ff0e0e"/>
<rect x="16" y="15" width="1" height="1" fill="#ffd107"/>
<rect x="17" y="15" width="1" height="1" fill="#ff0e0e"/>
<rect x="18" y="15" width="1" height="1" fill="#b60000"/>
<rect x="19" y="15" width="1" height="1" fill="#ffd4d5"/>
<rect x="20" y="15" width="1" height="1" fill="#ffa2a3"/>
<rect x="21" y="15" width="1" height="1" fill="#ffa2a3"/>
<rect x="22" y="15" width="1" height="1" fill="#c90000"/>
<rect x="1" y="16" width="1" height="1" fill="#b60000"/>
<rect x="2" y="16" width="1" height="1" fill="#ff7575"/>
<rect x="3" y="16" width="1" height="1" fill="#ff7575"/>
<rect x="4" y="16" width="1" height="1" fill="#ff7575"/>
<rect x="5" y="16" width="1" height="1" fill="#ff7575"/>
<rect x="6" y="16" width="1" height="1" fill="#ff7575"/>
<rect x="7" y="16" width="1" height="1" fill="#ff5353"/>
<rect x="8" y="16" width="1" height="1" fill="#ff5353"/>
<rect x="9" y="16" width="1" height="1" fill="#cc0000"/>
<rect x="10" y="16" width="1" height="1" fill="#ffaf00"/>
<rect x="11" y="16" width="1" height="1" fill="#b60000"/>
<rect x="12" y="16" width="1" height="1" fill="#ff5252"/>
<rect x="13" y="16" width="1" height="1" fill="#ffd107"/>
<rect x="14" y="16" width="1" height="1" fill="#ff0e0e"/>
<rect x="15" y="16" width="1" height="1" fill="#ff0e0e"/>
<rect x="16" y="16" width="1" height="1" fill="#ffd107"/>
<rect x="17" y="16" width="1" height="1" fill="#ff0e0e"/>
<rect x="18" y="16" width="1" height="1" fill="#b60000"/>
<rect x="19" y="16" width="1" height="1" fill="#ffa2a3"/>
<rect x="20" y="16" width="1" height="1" fill="#ffa2a3"/>
<rect x="21" y="16" width="1" height="1" fill="#c90000"/>
<rect x="22" y="16" width="1" height="1" fill="#fb6262"/>
<rect x="23" y="16" width="1" height="1" fill="#af0000"/>
<rect x="0" y="17" width="1" height="1" fill="#b60000"/>
<rect x="1" y="17" width="1" height="1" fill="#b60000"/>
<rect x="2" y="17" width="1" height="1" fill="#b60000"/>
<rect x="3" y="17" width="1" height="1" fill="#b60000"/>
<rect x="4" y="17" width="1" height="1" fill="#b60000"/>
<rect x="5" y="17" width="1" height="1" fill="#b60000"/>
<rect x="6" y="17" width="1" height="1" fill="#b60000"/>
<rect x="7" y="17" width="1" height="1" fill="#b60000"/>
<rect x="8" y="17" width="1" height="1" fill="#b60000"/>
<rect x="9" y="17" width="1" height="1" fill="#b60000"/>
<rect x="10" y="17" width="1" height="1" fill="#b60000"/>
<rect x="11" y="17" width="1" height="1" fill="#b60000"/>
<rect x="12" y="17" width="1" height="1" fill="#b60000"/>
<rect x="13" y="17" width="1" height="1" fill="#ff0e0e"/>
<rect x="14" y="17" width="1" height="1" fill="#ffd107"/>
<rect x="15" y="17" width="1" height="1" fill="#ffd107"/>
<rect x="16" y="17" width="1" height="1" fill="#ff0e0e"/>
<rect x="17" y="17" width="1" height="1" fill="#b60000"/>
<rect x="18" y="17" width="1" height="1" fill="#a20000"/>
<rect x="19" y="17" width="1" height="1" fill="#c90000"/>
<rect x="20" y="17" width="1" height="1" fill="#c90000"/>
<rect x="21" y="17" width="1" height="1" fill="#fb6262"/>
<rect x="22" y="17" width="1" height="1" fill="#ff8585"/>
<rect x="23" y="17" width="1" height="1" fill="#af0000"/>
<rect x="0" y="18" width="1" height="1" fill="#b60000"/>
<rect x="1" y="18" width="1" height="1" fill="#ff5b5b"/>
<rect x="2" y="18" width="1" height="1" fill="#ff5b5b"/>
<rect x="3" y="18" width="1" height="1" fill="#ff5b5b"/>
<rect x="4" y="18" width="1" height="1" fill="#ff5b5b"/>
<rect x="5" y="18" width="1" height="1" fill="#ff5b5b"/>
<rect x="6" y="18" width="1" height="1" fill="#ff5b5b"/>
<rect x="7" y="18" width="1" height="1" fill="#ff5b5b"/>
<rect x="8" y="18" width="1" height="1" fill="#ff5757"/>
<rect x="9" y="18" width="1" height="1" fill="#ff4646"/>
<rect x="10" y="18" width="1" height="1" fill="#ff4545"/>
<rect x="11" y="18" width="1" height="1" fill="#ff3c3c"/>
<rect x="12" y="18" width="1" height="1" fill="#ff2424"/>
<rect x="13" y="18" width="1" height="1" fill="#b60000"/>
<rect x="14" y="18" width="1" height="1" fill="#ff0e0e"/>
<rect x="15" y="18" width="1" height="1" fill="#ff0e0e"/>
<rect x="16" y="18" width="1" height="1" fill="#b60000"/>
<rect x="17" y="18" width="1" height="1" fill="#ff0000"/>
<rect x="18" y="18" width="1" height="1" fill="#af0000"/>
<rect x="19" y="18" width="1" height="1" fill="#af0000"/>
<rect x="20" y="18" width="1" height="1" fill="#af0000"/>
<rect x="21" y="18" width="1" height="1" fill="#af0000"/>
<rect x="22" y="18" width="1" height="1" fill="#af0000"/>
<rect x="23" y="18" width="1" height="1" fill="#af0000"/>
<rect x="0" y="19" width="1" height="1" fill="#b60000"/>
<rect x="1" y="19" width="1" height="1" fill="#b60000"/>
<rect x="2" y="19" width="1" height="1" fill="#b60000"/>
<rect x="3" y="19" width="1" height="1" fill="#b60000"/>
<rect x="4" y="19" width="1" height="1" fill="#b60000"/>
<rect x="5" y="19" width="1" height="1" fill="#b60000"/>
<rect x="6" y="19" width="1" height="1" fill="#b60000"/>
<rect x="7" y="19" width="1" height="1" fill="#b60000"/>
<rect x="8" y="19" width="1" height="1" fill="#b60000"/>
<rect x="9" y="19" width="1" height="1" fill="#b60000"/>
<rect x="10" y="19" width="1" height="1" fill="#b60000"/>
<rect x="11" y="19" width="1" height="1" fill="#b60000"/>
<rect x="12" y="19" width="1" height="1" fill="#b60000"/>
<rect x="14" y="19" width="1" height="1" fill="#b60000"/>
<rect x="15" y="19" width="1" height="1" fill="#b60000"/>
<rect x="17" y="19" width="1" height="1" fill="#c40000"/>
<rect x="18" y="19" width="1" height="1" fill="#c40000"/>
<rect x="19" y="19" width="1" height="1" fill="#c40000"/>
<rect x="20" y="19" width="1" height="1" fill="#c40000"/>
<rect x="21" y="19" width="1" height="1" fill="#c40000"/>
<rect x="22" y="19" width="1" height="1" fill="#c40000"/>
<rect x="23" y="19" width="1" height="1" fill="#c40000"/>
</svg>