<?xml version="1.0" encoding="UTF-8" standalone="no"?>
<svg xmlns="http://www.w3.org/2000/svg" width="26" height="21" shape-rendering="crispEdges">
<rect x="3" y="0" width="1" height="1" fill="#ff8310"/>
<rect x="4" y="0" width="1" height="1" fill="#ff8310"/>
<rect x="5" y="0" width="1" height="1" fill="#ff8310"/>
<rect x="12" y="0" width="1" height="1" fill="#eb6600"/>
<rect x="13" y="0" width="1" height="1" fill="#ef6700"/>
<rect x="14" y="0" width="1" height="1" fill="#f06e00"/>
<rect x="15" y="0" width="1" height="1" fill="#f06400"/>
<rect x="16" y="0" width="1" height="1" fill="#f06a00"/>
<rect x="17" y="0" width="1" height="1" fill="#f06e00"/>
<rect x="18" y="0" width="1" height="1" fill="#ef6a00"/>
<rect x="19" y="0" width="1" height="1" fill="#e46300"/>
<rect x="22" y="0" width="1" height="1" fill="#dd5c00"/>
<rect x="23" y="0" width="1" height="1" fill="#dc5e00"/>
<rect x="24" y="0" width="1" height="1" fill="#d75c00"/>
<rect x="2" y="1" width="1" height="1" fill="#ff8310"/>
<rect x="6" y="1" width="1" height="1" fill="#ff8310"/>
<rect x="10" y="1" width="1" height="1" fill="#da5d00"/>
<rect x="11" y="1" width="1" height="1" fill="#e46300"/>
<rect x="12" y="1" width="1" height="1" fill="#fce9d8"/>
<rect x="13" y="1" width="1" height="1" fill="#fef1e1"/>
<rect x="14" y="1" width="1" height="1" fill="#fdeae0"/>
<rect x="15" y="1" width="1" height="1" fill="#feede0"/>
<rect x="16" y="1" width="1" height="1" fill="#feebe0"/>
<rect x="17" y="1" width="1" height="1" fill="#feefe0"/>
<rect x="18" y="1" width="1" height="1" fill="#ffdfc8"/>
<rect x="19" y="1" width="1" height="1" fill="#ffd8bb"/>
<rect x="20" y="1" width="1" height="1" fill="#df5f00"/>
<rect x="21" y="1" width="1" height="1" fill="#dd6300"/>
<rect x="22" y="1" width="1" height="1" fill="#fceddd"/>
<rect x="23" y="1" width="1" height="1" fill="#ffd8bf"/>
<rect x="24" y="1" width="1" height="1" fill="#d55b00"/>
<rect x="1" y="2" width="1" height="1" fill="#ff8310"/>
<rect x="3" y="2" width="1" height="1" fill="#ff8310"/>
<rect x="4" y="2" width="1" height="1" fill="#ff8310"/>
<rect x="9" y="2" width="1" height="1" fill="#dd5f00"/>
<rect x="10" y="2" width="1" height="1" fill="#fce9d8"/>
<rect x="11" y="2" width="1" height="1" fill="#fdf2e8"/>
<rect x="12" y="2" width="1" height="1" fill="#fff5f1"/>
<rect x="13" y="2" width="1" height="1" fill="#ffede2"/>
<rect x="14" y="2" width="1" height="1" fill="#ffebdd"/>
<rect x="15" y="2" width="1" height="1" fill="#ffebdc"/>
<rect x="16" y="2" width="1" height="1" fill="#ffeedf"/>
<rect x="17" y="2" width="1" height="1" fill="#ffebdf"/>
<rect x="18" y="2" width="1" height="1" fill="#ffede1"/>
<rect x="19" y="2" width="1" height="1" fill="#ffeada"/>
<rect x="20" y="2" width="1" height="1" fill="#ffe4d0"/>
<rect x="21" y="2" width="1" height="1" fill="#fff2e9"/>
<rect x="22" y="2" width="1" height="1" fill="#fff8f3"/>
<rect x="23" y="2" width="1" height="1" fill="#ffdfca"/>
<rect x="24" y="2" width="1" height="1" fill="#d65b00"/>
<rect x="1" y="3" width="1" height="1" fill="#ff8310"/>
<rect x="3" y="3" width="1" height="1" fill="#ff8310"/>
<rect x="4" y="3" width="1" height="1" fill="#ff8310"/>
<rect x="5" y="3" width="1" height="1" fill="#ff8310"/>
<rect x="8" y="3" width="1" height="1" fill="#eb6400"/>
<rect x="9" y="3" width="1" height="1" fill="#fce7d6"/>
<rect x="10" y="3" width="1" height="1" fill="#fff8f2"/>
<rect x="11" y="3" width="1" height="1" fill="#ffe9df"/>
<rect x="12" y="3" width="1" height="1" fill="#ffe9db"/>
<rect x="13" y="3" width="1" height="1" fill="#ffe8d7"/>
<rect x="14" y="3" width="1" height="1" fill="#ffc68f"/>
<rect x="15" y="3" width="1" height="1" fill="#ffc791"/>
<rect x="16" y="3" width="1" height="1" fill="#ffdbba"/>
<rect x="17" y="3" width="1" height="1" fill="#ffd9bb"/>
<rect x="18" y="3" width="1" height="1" fill="#ffebdf"/>
<rect x="19" y="3" width="1" height="1" fill="#ffeae0"/>
<rect x="20" y="3" width="1" height="1" fill="#ffede1"/>
<rect x="21" y="3" width="1" height="1" fill="#ffefe3"/>
<rect x="22" y="3" width="1" height="1" fill="#ffe8d9"/>
<rect x="23" y="3" width="1" height="1" fill="#ffc79b"/>
<rect x="24" y="3" width="1" height="1" fill="#d55b00"/>
<rect x="1" y="4" width="1" height="1" fill="#ff8310"/>
<rect x="2" y="4" width="1" height="1" fill="#ff8310"/>
<rect x="3" y="4" width="1" height="1" fill="#ff8310"/>
<rect x="5" y="4" width="1" height="1" fill="#ff8310"/>
<rect x="8" y="4" width="1" height="1" fill="#f06e00"/>
<rect x="9" y="4" width="1" height="1" fill="#fdebdf"/>
<rect x="10" y="4" width="1" height="1" fill="#ffebdd"/>
<rect x="11" y="4" width="1" height="1" fill="#ffd5b3"/>
<rect x="12" y="4" width="1" height="1" fill="#ffc489"/>
<rect x="13" y="4" width="1" height="1" fill="#ffc58e"/>
<rect x="14" y="4" width="1" height="1" fill="#fff4eb"/>
<rect x="15" y="4" width="1" height="1" fill="#fff8f2"/>
<rect x="16" y="4" width="1" height="1" fill="#fffaf5"/>
<rect x="17" y="4" width="1" height="1" fill="#fffaf4"/>
<rect x="18" y="4" width="1" height="1" fill="#ffdbc0"/>
<rect x="19" y="4" width="1" height="1" fill="#ffeae0"/>
<rect x="20" y="4" width="1" height="1" fill="#ffebe1"/>
<rect x="21" y="4" width="1" height="1" fill="#ffe9df"/>
<rect x="22" y="4" width="1" height="1" fill="#ffe0cc"/>
<rect x="23" y="4" width="1" height="1" fill="#df5f00"/>
<rect x="2" y="5" width="1" height="1" fill="#ff8310"/>
<rect x="3" y="5" width="1" height="1" fill="#ff8310"/>
<rect x="5" y="5" width="1" height="1" fill="#ff8310"/>
<rect x="8" y="5" width="1" height="1" fill="#f16700"/>
<rect x="9" y="5" width="1" height="1" fill="#ffdcbc"/>
<rect x="10" y="5" width="1" height="1" fill="#ffcba2"/>
<rect x="11" y="5" width="1" height="1" fill="#ffb46d"/>
<rect x="12" y="5" width="1" height="1" fill="#ffca9a"/>
<rect x="13" y="5" width="1" height="1" fill="#ffddc6"/>
<rect x="14" y="5" width="1" height="1" fill="#ffe8d8"/>
<rect x="15" y="5" width="1" height="1" fill="#fffbf5"/>
<rect x="16" y="5" width="1" height="1" fill="#fffefc"/>
<rect x="17" y="5" width="1" height="1" fill="#fffdfc"/>
<rect x="18" y="5" width="1" height="1" fill="#fffcfa"/>
<rect x="19" y="5" width="1" height="1" fill="#ffefe3"/>
<rect x="20" y="5" width="1" height="1" fill="#ffeae0"/>
<rect x="21" y="5" width="1" height="1" fill="#ffe2d5"/>
<rect x="22" y="5" width="1" height="1" fill="#ffc697"/>
<rect x="23" y="5" width="1" height="1" fill="#d85c00"/>
<rect x="0" y="6" width="1" height="1" fill="#ff8310"/>
<rect x="4" y="6" width="1" height="1" fill="#ff8310"/>
<rect x="8" y="6" width="1" height="1" fill="#e46500"/>
<rect x="9" y="6" width="1" height="1" fill="#ffbb82"/>
<rect x="10" y="6" width="1" height="1" fill="#f16800"/>
<rect x="11" y="6" width="1" height="1" fill="#f16800"/>
<rect x="12" y="6" width="1" height="1" fill="#f16800"/>
<rect x="13" y="6" width="1" height="1" fill="#ff8d27"/>
<rect x="14" y="6" width="1" height="1" fill="#ffb671"/>
<rect x="15" y="6" width="1" height="1" fill="#ffc088"/>
<rect x="16" y="6" width="1" height="1" fill="#ffdab7"/>
<rect x="17" y="6" width="1" height="1" fill="#fffdfc"/>
<rect x="18" y="6" width="1" height="1" fill="#fffdfc"/>
<rect x="19" y="6" width="1" height="1" fill="#ffeee3"/>
<rect x="20" y="6" width="1" height="1" fill="#ffeadf"/>
<rect x="21" y="6" width="1" height="1" fill="#ffc697"/>
<rect x="22" y="6" width="1" height="1" fill="#dd5f00"/>
<rect x="1" y="7" width="1" height="1" fill="#ff8310"/>
<rect x="2" y="7" width="1" height="1" fill="#ff8310"/>
<rect x="3" y="7" width="1" height="1" fill="#ff8310"/>
<rect x="8" y="7" width="1" height="1" fill="#dc5e00"/>
<rect x="9" y="7" width="1" height="1" fill="#f16800"/>
<rect x="13" y="7" width="1" height="1" fill="#f16800"/>
<rect x="14" y="7" width="1" height="1" fill="#ffd5b3"/>
<rect x="15" y="7" width="1" height="1" fill="#ffca9d"/>
<rect x="16" y="7" width="1" height="1" fill="#ffc088"/>
<rect x="17" y="7" width="1" height="1" fill="#ffdab7"/>
<rect x="18" y="7" width="1" height="1" fill="#fff0e4"/>
<rect x="19" y="7" width="1" height="1" fill="#ffe9df"/>
<rect x="20" y="7" width="1" height="1" fill="#ffd9bb"/>
<rect x="21" y="7" width="1" height="1" fill="#ffc48e"/>
<rect x="22" y="7" width="1" height="1" fill="#db5e00"/>
<rect x="24" y="7" width="1" height="1" fill="#d25a00"/>
<rect x="13" y="8" width="1" height="1" fill="#f16800"/>
<rect x="14" y="8" width="1" height="1" fill="#ffd5b3"/>
<rect x="15" y="8" width="1" height="1" fill="#ff7800"/>
<rect x="16" y="8" width="1" height="1" fill="#ff7800"/>
<rect x="17" y="8" width="1" height="1" fill="#ff7800"/>
<rect x="18" y="8" width="1" height="1" fill="#f16800"/>
<rect x="19" y="8" width="1" height="1" fill="#ffd1a8"/>
<rect x="20" y="8" width="1" height="1" fill="#ffcda6"/>
<rect x="21" y="8" width="1" height="1" fill="#ffba79"/>
<rect x="22" y="8" width="1" height="1" fill="#dd5f00"/>
<rect x="23" y="8" width="1" height="1" fill="#d75c00"/>
<rect x="24" y="8" width="1" height="1" fill="#d55b00"/>
<rect x="7" y="9" width="1" height="1" fill="#f46a00"/>
<rect x="8" y="9" width="1" height="1" fill="#f46a00"/>
<rect x="12" y="9" width="1" height="1" fill="#f16800"/>
<rect x="13" y="9" width="1" height="1" fill="#ffd5b3"/>
<rect x="14" y="9" width="1" height="1" fill="#ff7800"/>
<rect x="15" y="9" width="1" height="1" fill="#ffffff"/>
<rect x="16" y="9" width="1" height="1" fill="#ffe8d5"/>
<rect x="17" y="9" width="1" height="1" fill="#ffd0a4"/>
<rect x="18" y="9" width="1" height="1" fill="#df5f00"/>
<rect x="19" y="9" width="1" height="1" fill="#ff7800"/>
<rect x="20" y="9" width="1" height="1" fill="#ff7800"/>
<rect x="21" y="9" width="1" height="1" fill="#ff7800"/>
<rect x="22" y="9" width="1" height="1" fill="#ffb064"/>
<rect x="23" y="9" width="1" height="1" fill="#ffc288"/>
<rect x="24" y="9" width="1" height="1" fill="#d65b00"/>
<rect x="0" y="10" width="1" height="1" fill="#df5f00"/>
<rect x="1" y="10" width="1" height="1" fill="#df5f00"/>
<rect x="2" y="10" width="1" height="1" fill="#df5f00"/>
<rect x="3" y="10" width="1" height="1" fill="#df5f00"/>
<rect x="5" y="10" width="1" height="1" fill="#f46a00"/>
<rect x="6" y="10" width="1" height="1" fill="#f46a00"/>
<rect x="7" y="10" width="1" height="1" fill="#ffff08"/>
<rect x="8" y="10" width="1" height="1" fill="#ffff08"/>
<rect x="9" y="10" width="1" height="1" fill="#f46a00"/>
<rect x="10" y="10" width="1" height="1" fill="#d75c00"/>
<rect x="11" y="10" width="1" height="1" fill="#f16800"/>
<rect x="12" y="10" width="1" height="1" fill="#ffd5b3"/>
<rect x="13" y="10" width="1" height="1" fill="#ff7800"/>
<rect x="14" y="10" width="1" height="1" fill="#ffffff"/>
<rect x="15" y="10" width="1" height="1" fill="#ffe8d5"/>
<rect x="16" y="10" width="1" height="1" fill="#ffd0a4"/>
<rect x="17" y="10" width="1" height="1" fill="#ffbc7c"/>
<rect x="18" y="10" width="1" height="1" fill="#ff7800"/>
<rect x="19" y="10" width="1" height="1" fill="#ffffff"/>
<rect x="20" y="10" width="1" height="1" fill="#ffd0a4"/>
<rect x="21" y="10" width="1" height="1" fill="#f16800"/>
<rect x="22" y="10" width="1" height="1" fill="#ffb064"/>
<rect x="23" y="10" width="1" height="1" fill="#ffc288"/>
<rect x="24" y="10" width="1" height="1" fill="#d65b00"/>
<rect x="0" y="11" width="1" height="1" fill="#df5f00"/>
<rect x="1" y="11" width="1" height="1" fill="#ffffff"/>
<rect x="2" y="11" width="1" height="1" fill="#ffffff"/>
<rect x="3" y="11" width="1" height="1" fill="#ffffff"/>
<rect x="4" y="11" width="1" height="1" fill="#f46a00"/>
<rect x="5" y="11" width="1" height="1" fill="#ffff08"/>
<rect x="6" y="11" width="1" height="1" fill="#ffff08"/>
<rect x="7" y="11" width="1" height="1" fill="#f46a00"/>
<rect x="8" y="11" width="1" height="1" fill="#ffff08"/>
<rect x="9" y="11" width="1" height="1" fill="#ffe008"/>
<rect x="10" y="11" width="1" height="1" fill="#f46a00"/>
<rect x="11" y="11" width="1" height="1" fill="#ffd5b3"/>
<rect x="12" y="11" width="1" height="1" fill="#ff7800"/>
<rect x="13" y="11" width="1" height="1" fill="#ffffff"/>
<rect x="14" y="11" width="1" height="1" fill="#ffe8d5"/>
<rect x="15" y="11" width="1" height="1" fill="#ffd0a4"/>
<rect x="16" y="11" width="1" height="1" fill="#ffbc7c"/>
<rect x="17" y="11" width="1" height="1" fill="#ff7800"/>
<rect x="18" y="11" width="1" height="1" fill="#ffffff"/>
<rect x="19" y="11" width="1" height="1" fill="#ffe8d5"/>
<rect x="20" y="11" width="1" height="1" fill="#ffd0a4"/>
<rect x="21" y="11" width="1" height="1" fill="#f16800"/>
<rect x="22" y="11" width="1" height="1" fill="#ffb064"/>
<rect x="23" y="11" width="1" height="1" fill="#ffb064"/>
<rect x="24" y="11" width="1" height="1" fill="#d65b00"/>
<rect x="0" y="12" width="1" height="1" fill="#df5f00"/>
<rect x="1" y="12" width="1" height="1" fill="#ffffff"/>
<rect x="2" y="12" width="1" height="1" fill="#ffffff"/>
<rect x="3" y="12" width="1" height="1" fill="#ffffff"/>
<rect x="4" y="12" width="1" height="1" fill="#ffe7e2"/>
<rect x="5" y="12" width="1" height="1" fill="#f46a00"/>
<rect x="6" y="12" width="1" height="1" fill="#ffff08"/>
<rect x="7" y="12" width="1" height="1" fill="#ffe008"/>
<rect x="8" y="12" width="1" height="1" fill="#f46a00"/>
<rect x="9" y="12" width="1" height="1" fill="#ffe008"/>
<rect x="10" y="12" width="1" height="1" fill="#ffe008"/>
<rect x="11" y="12" width="1" height="1" fill="#f46a00"/>
<rect x="12" y="12" width="1" height="1" fill="#df5f00"/>
<rect x="13" y="12" width="1" height="1" fill="#ffd5b3"/>
<rect x="14" y="12" width="1" height="1" fill="#df5f00"/>
<rect x="15" y="12" width="1" height="1" fill="#df5f00"/>
<rect x="16" y="12" width="1" height="1" fill="#ff7800"/>
<rect x="17" y="12" width="1" height="1" fill="#ffffff"/>
<rect x="18" y="12" width="1" height="1" fill="#ffe8d5"/>
<rect x="19" y="12" width="1" height="1" fill="#ffd0a4"/>
<rect x="20" y="12" width="1" height="1" fill="#ffbc7c"/>
<rect x="21" y="12" width="1" height="1" fill="#f16800"/>
<rect x="22" y="12" width="1" height="1" fill="#f16800"/>
<rect x="23" y="12" width="1" height="1" fill="#ffb064"/>
<rect x="24" y="12" width="1" height="1" fill="#d65b00"/>
<rect x="0" y="13" width="1" height="1" fill="#df5f00"/>
<rect x="1" y="13" width="1" height="1" fill="#ffffff"/>
<rect x="2" y="13" width="1" height="1" fill="#ffffff"/>
<rect x="3" y="13" width="1" height="1" fill="#ffe7e2"/>
<rect x="4" y="13" width="1" height="1" fill="#ffe7e2"/>
<rect x="5" y="13" width="1" height="1" fill="#ffe7e2"/>
<rect x="6" y="13" width="1" height="1" fill="#f46a00"/>
<rect x="7" y="13" width="1" height="1" fill="#ffe008"/>
<rect x="8" y="13" width="1" height="1" fill="#ffe008"/>
<rect x="9" y="13" width="1" height="1" fill="#f46a00"/>
<rect x="10" y="13" width="1" height="1" fill="#ffe008"/>
<rect x="11" y="13" width="1" height="1" fill="#ffd008"/>
<rect x="12" y="13" width="1" height="1" fill="#cb5700"/>
<rect x="13" y="13" width="1" height="1" fill="#df5f00"/>
<rect x="14" y="13" width="1" height="1" fill="#ffd1a5"/>
<rect x="15" y="13" width="1" height="1" fill="#ffa046"/>
<rect x="16" y="13" width="1" height="1" fill="#df5f00"/>
<rect x="17" y="13" width="1" height="1" fill="#ffe8d5"/>
<rect x="18" y="13" width="1" height="1" fill="#ffd0a4"/>
<rect x="19" y="13" width="1" height="1" fill="#ffbc7c"/>
<rect x="20" y="13" width="1" height="1" fill="#f16800"/>
<rect x="21" y="13" width="1" height="1" fill="#ffe8d5"/>
<rect x="22" y="13" width="1" height="1" fill="#f16800"/>
<rect x="23" y="13" width="1" height="1" fill="#d85c00"/>
<rect x="0" y="14" width="1" height="1" fill="#df5f00"/>
<rect x="1" y="14" width="1" height="1" fill="#ffe7e2"/>
<rect x="2" y="14" width="1" height="1" fill="#ffe7e2"/>
<rect x="3" y="14" width="1" height="1" fill="#ffe7e2"/>
<rect x="4" y="14" width="1" height="1" fill="#ffe7e2"/>
<rect x="5" y="14" width="1" height="1" fill="#ffd5b1"/>
<rect x="6" y="14" width="1" height="1" fill="#ffd5b1"/>
<rect x="7" y="14" width="1" height="1" fill="#f46a00"/>
<rect x="8" y="14" width="1" height="1" fill="#ffd008"/>
<rect x="9" y="14" width="1" height="1" fill="#ffd008"/>
<rect x="10" y="14" width="1" height="1" fill="#f46a00"/>
<rect x="11" y="14" width="1" height="1" fill="#ffd008"/>
<rect x="12" y="14" width="1" height="1" fill="#df5f00"/>
<rect x="13" y="14" width="1" height="1" fill="#ffd1a5"/>
<rect x="14" y="14" width="1" height="1" fill="#ffd107"/>
<rect x="15" y="14" width="1" height="1" fill="#ffd107"/>
<rect x="16" y="14" width="1" height="1" fill="#ffa046"/>
<rect x="17" y="14" width="1" height="1" fill="#df5f00"/>
<rect x="18" y="14" width="1" height="1" fill="#ffbc7c"/>
<rect x="19" y="14" width="1" height="1" fill="#f16800"/>
<rect x="20" y="14" width="1" height="1" fill="#ffe8d5"/>
<rect x="21" y="14" width="1" height="1" fill="#ffd0a4"/>
<rect x="22" y="14" width="1" height="1" fill="#f16800"/>
<rect x="23" y="14" width="1" height="1" fill="#d75c00"/>
<rect x="1" y="15" width="1" height="1" fill="#df5f00"/>
<rect x="2" y="15" width="1" height="1" fill="#ffd5b1"/>
<rect x="3" y="15" width="1" height="1" fill="#ffd5b1"/>
<rect x="4" y="15" width="1" height="1" fill="#ffd5b1"/>
<rect x="5" y="15" width="1" height="1" fill="#ffd5b1"/>
<rect x="6" y="15" width="1" height="1" fill="#ffba79"/>
<rect x="7" y="15" width="1" height="1" fill="#ffba79"/>
<rect x="8" y="15" width="1" height="1" fill="#f46a00"/>
<rect x="9" y="15" width="1" height="1" fill="#ffaf00"/>
<rect x="10" y="15" width="1" height="1" fill="#ffaf00"/>
<rect x="11" y="15" width="1" height="1" fill="#df5f00"/>
<rect x="12" y="15" width="1" height="1" fill="#ffa958"/>
<rect x="13" y="15" width="1" height="1" fill="#ffd107"/>
<rect x="14" y="15" width="1" height="1" fill="#ff891c"/>
<rect x="15" y="15" width="1" height="1" fill="#ff891c"/>
<rect x="16" y="15" width="1" height="1" fill="#ffd107"/>
<rect x="17" y="15" width="1" height="1" fill="#ff891c"/>
<rect x="18" y="15" width="1" height="1" fill="#df5f00"/>
<rect x="19" y="15" width="1" height="1" fill="#ffe8d5"/>
<rect x="20" y="15" width="1" height="1" fill="#ffd0a4"/>
<rect x="21" y="15" width="1" height="1" fill="#ffd0a4"/>
<rect x="22" y="15" width="1" height="1" fill="#f16800"/>
<rect x="1" y="16" width="1" height="1" fill="#df5f00"/>
<rect x="2" y="16" width="1" height="1" fill="#ffba79"/>
<rect x="3" y="16" width="1" height="1" fill="#ffba79"/>
<rect x="4" y="16" width="1" height="1" fill="#ffba79"/>
<rect x="5" y="16" width="1" height="1" fill="#ffba79"/>
<rect x="6" y="16" width="1" height="1" fill="#ffba79"/>
<rect x="7" y="16" width="1" height="1" fill="#ffaa59"/>
<rect x="8" y="16" width="1" height="1" fill="#ffaa59"/>
<rect x="9" y="16" width="1" height="1" fill="#f46a00"/>
<rect x="10" y="16" width="1" height="1" fill="#ffaf00"/>
<rect x="11" y="16" width="1" height="1" fill="#df5f00"/>
<rect x="12" y="16" width="1" height="1" fill="#ffa958"/>
<rect x="13" y="16" width="1" height="1" fill="#ffd107"/>
<rect x="14" y="16" width="1" height="1" fill="#ff891c"/>
<rect x="15" y="16" width="1" height="1" fill="#ff891c"/>
<rect x="16" y="16" width="1" height="1" fill="#ffd107"/>
<rect x="17" y="16" width="1" height="1" fill="#ff891c"/>
<rect x="18" y="16" width="1" height="1" fill="#df5f00"/>
<rect x="19" y="16" width="1" height="1" fill="#ffd0a4"/>
<rect x="20" y="16" width="1" height="1" fill="#ffd0a4"/>
<rect x="21" y="16" width="1" height="1" fill="#f16800"/>
<rect x="22" y="16" width="1" height="1" fill="#ffb064"/>
<rect x="23" y="16" width="1" height="1" fill="#d85c00"/>
<rect x="0" y="17" width="1" height="1" fill="#df5f00"/>
<rect x="1" y="17" width="1" height="1" fill="#df5f00"/>
<rect x="2" y="17" width="1" height="1" fill="#df5f00"/>
<rect x="3" y="17" width="1" height="1" fill="#df5f00"/>
<rect x="4" y="17" width="1" height="1" fill="#df5f00"/>
<rect x="5" y="17" width="1" height="1" fill="#df5f00"/>
<rect x="6" y="17" width="1" height="1" fill="#df5f00"/>
<rect x="7" y="17" width="1" height="1" fill="#df5f00"/>
<rect x="8" y="17" width="1" height="1" fill="#df5f00"/>
<rect x="9" y="17" width="1" height="1" fill="#df5f00"/>
<rect x="10" y="17" width="1" height="1" fill="#df5f00"/>
<rect x="11" y="17" width="1" height="1" fill="#df5f00"/>
<rect x="12" y="17" width="1" height="1" fill="#df5f00"/>
<rect x="13" y="17" width="1" height="1" fill="#ff891c"/>
<rect x="14" y="17" width="1" height="1" fill="#ffd107"/>
<rect x="15" y="17" width="1" height="1" fill="#ffd107"/>
<rect x="16" y="17" width="1" height="1" fill="#ff891c"/>
<rect x="17" y="17" width="1" height="1" fill="#df5f00"/>
<rect x="18" y="17" width="1" height="1" fill="#cb5700"/>
<rect x="19" y="17" width="1" height="1" fill="#f16800"/>
<rect x="20" y="17" width="1" height="1" fill="#f16800"/>
<rect x="21" y="17" width="1" height="1" fill="#ffb064"/>
<rect x="22" y="17" width="1" height="1" fill="#ffc288"/>
<rect x="23" y="17" width="1" height="1" fill="#d85c00"/>
<rect x="0" y="18" width="1" height="1" fill="#df5f00"/>
<rect x="1" y="18" width="1" height="1" fill="#ffae61"/>
<rect x="2" y="18" width="1" height="1" fill="#ffae61"/>
<rect x="3" y="18" width="1" height="1" fill="#ffae61"/>
<rect x="4" y="18" width="1" height="1" fill="#ffae61"/>
<rect x="5" y="18" width="1" height="1" fill="#ffae61"/>
<rect x="6" y="18" width="1" height="1" fill="#ffae61"/>
<rect x="7" y="18" width="1" height="1" fill="#ffae61"/>
<rect x="8" y="18" width="1" height="1" fill="#ffab5c"/>
<rect x="9" y="18" width="1" height="1" fill="#ffa44c"/>
<rect x="10" y="18" width="1" height="1" fill="#ffa44c"/>
<rect x="11" y="18" width="1" height="1" fill="#ff9f44"/>
<rect x="12" y="18" width="1" height="1" fill="#ff932e"/>
<rect x="13" y="18" width="1" height="1" fill="#df5f00"/>
<rect x="14" y="18" width="1" height="1" fill="#ff891c"/>
<rect x="15" y="18" width="1" height="1" fill="#ff891c"/>
<rect x="16" y="18" width="1" height="1" fill="#df5f00"/>
<rect x="17" y="18" width="1" height="1" fill="#ff8310"/>
<rect x="18" y="18" width="1" height="1" fill="#d85c00"/>
<rect x="19" y="18" width="1" height="1" fill="#d85c00"/>
<rect x="20" y="18" width="1" height="1" fill="#d85c00"/>
<rect x="21" y="18" width="1" height="1" fill="#d85c00"/>
<rect x="22" y="18" width="1" height="1" fill="#d85c00"/>
<rect x="23" y="18" width="1" height="1" fill="#d85c00"/>
<rect x="0" y="19" width="1" height="1" fill="#df5f00"/>
<rect x="1" y="19" width="1" height="1" fill="#df5f00"/>
<rect x="2" y="19" width="1" height="1" fill="#df5f00"/>
<rect x="3" y="19" width="1" height="1" fill="#df5f00"/>
<rect x="4" y="19" width="1" height="1" fill="#df5f00"/>
<rect x="5" y="19" width="1" height="1" fill="#df5f00"/>
<rect x="6" y="19" width="1" height="1" fill="#df5f00"/>
<rect x="7" y="19" width="1" height="1" fill="#df5f00"/>
<rect x="8" y="19" width="1" height="1" fill="#df5f00"/>
<rect x="9" y="19" width="1" height="1" fill="#df5f00"/>
<rect x="10" y="19" width="1" height="1" fill="#df5f00"/>
<rect x="11" y="19" width="1" height="1" fill="#df5f00"/>
<rect x="12" y="19" width="1" height="1" fill="#df5f00"/>
<rect x="14" y="19" width="1" height="1" fill="#df5f00"/>
<rect x="15" y="19" width="1" height="1" fill="#df5f00"/>
<rect x="17" y="19" width="1" height="1" fill="#ed6600"/>
<rect x="18" y="19" width="1" height="1" fill="#ed6600"/>
<rect x="19" y="19" width="1" height="1" fill="#ed6600"/>
<rect x="20" y="19" width="1" height="1" fill="#ed6600"/>
<rect x="21" y="19" width="1" height="1" fill="#ed6600"/>
<rect x="22" y="19" width="1" height="1" fill="#ed6600"/>
<rect x="23" y="19" width="1" height="1" fill="#ed6600"/>
</svg>