<?xml version="1.0" encoding="UTF-8" standalone="no"?>
<svg xmlns="http://www.w3.org/2000/svg" width="26" height="21" shape-rendering="crispEdges">
<rect x="3" y="0" width="1" height="1" fill="#f4c112"/>
<rect x="4" y="0" width="1" height="1" fill="#f4c112"/>
<rect x="5" y="0" width="1" height="1" fill="#f4c112"/>
<rect x="12" y="0" width="1" height="1" fill="#da9d0a"/>
<rect x="13" y="0" width="1" height="1" fill="#dfa00a"/>
<rect x="14" y="0" width="1" height="1" fill="#e0a70a"/>
<rect x="15" y="0" width="1" height="1" fill="#e09c0a"/>
<rect x="16" y="0" width="1" height="1" fill="#e0a30a"/>
<rect x="17" y="0" width="1" height="1" fill="#e0a70a"/>
<rect x="18" y="0" width="1" height="1" fill="#dfa30a"/>
<rect x="19" y="0" width="1" height="1" fill="#d2980a"/>
<rect x="22" y="0" width="1" height="1" fill="#c98c09"/>
<rect x="23" y="0" width="1" height="1" fill="#c88f09"/>
<rect x="24" y="0" width="1" height="1" fill="#c38a09"/>
<rect x="2" y="1" width="1" height="1" fill="#f4c112"/>
<rect x="6" y="1" width="1" height="1" fill="#f4c112"/>
<rect x="10" y="1" width="1" height="1" fill="#c58c09"/>
<rect x="11" y="1" width="1" height="1" fill="#d2980a"/>
<rect x="12" y="1" width="1" height="1" fill="#f9f1cf"/>
<rect x="13" y="1" width="1" height="1" fill="#fcf8d9"/>
<rect x="14" y="1" width="1" height="1" fill="#faefd8"/>
<rect x="15" y="1" width="1" height="1" fill="#fcf4d9"/>
<rect x="16" y="1" width="1" height="1" fill="#fcf1d9"/>
<rect x="17" y="1" width="1" height="1" fill="#fcf6d9"/>
<rect x="18" y="1" width="1" height="1" fill="#fcecbc"/>
<rect x="19" y="1" width="1" height="1" fill="#fbe8ae"/>
<rect x="20" y="1" width="1" height="1" fill="#cc9109"/>
<rect x="21" y="1" width="1" height="1" fill="#c99409"/>
<rect x="22" y="1" width="1" height="1" fill="#f9f4d5"/>
<rect x="23" y="1" width="1" height="1" fill="#fbe7b1"/>
<rect x="24" y="1" width="1" height="1" fill="#c08909"/>
<rect x="1" y="2" width="1" height="1" fill="#f4c112"/>
<rect x="3" y="2" width="1" height="1" fill="#f4c112"/>
<rect x="4" y="2" width="1" height="1" fill="#f4c112"/>
<rect x="9" y="2" width="1" height="1" fill="#c99009"/>
<rect x="10" y="2" width="1" height="1" fill="#f9f1cf"/>
<rect x="11" y="2" width="1" height="1" fill="#fbf7e2"/>
<rect x="12" y="2" width="1" height="1" fill="#fef8ee"/>
<rect x="13" y="2" width="1" height="1" fill="#fdf3db"/>
<rect x="14" y="2" width="1" height="1" fill="#fdf4d5"/>
<rect x="15" y="2" width="1" height="1" fill="#fdf4d4"/>
<rect x="16" y="2" width="1" height="1" fill="#fdf6d8"/>
<rect x="17" y="2" width="1" height="1" fill="#fdf3d8"/>
<rect x="18" y="2" width="1" height="1" fill="#fdf4da"/>
<rect x="19" y="2" width="1" height="1" fill="#fdf3d1"/>
<rect x="20" y="2" width="1" height="1" fill="#fcefc5"/>
<rect x="21" y="2" width="1" height="1" fill="#fdf7e3"/>
<rect x="22" y="2" width="1" height="1" fill="#fefaef"/>
<rect x="23" y="2" width="1" height="1" fill="#fcecbf"/>
<rect x="24" y="2" width="1" height="1" fill="#c18809"/>
<rect x="1" y="3" width="1" height="1" fill="#f4c112"/>
<rect x="3" y="3" width="1" height="1" fill="#f4c112"/>
<rect x="4" y="3" width="1" height="1" fill="#f4c112"/>
<rect x="5" y="3" width="1" height="1" fill="#f4c112"/>
<rect x="8" y="3" width="1" height="1" fill="#da9b0a"/>
<rect x="9" y="3" width="1" height="1" fill="#f9f0cc"/>
<rect x="10" y="3" width="1" height="1" fill="#fefbef"/>
<rect x="11" y="3" width="1" height="1" fill="#fdf0d8"/>
<rect x="12" y="3" width="1" height="1" fill="#fdf1d3"/>
<rect x="13" y="3" width="1" height="1" fill="#fcf0ce"/>
<rect x="14" y="3" width="1" height="1" fill="#f9e27d"/>
<rect x="15" y="3" width="1" height="1" fill="#f9e47f"/>
<rect x="16" y="3" width="1" height="1" fill="#fbecac"/>
<rect x="17" y="3" width="1" height="1" fill="#fbe9ae"/>
<rect x="18" y="3" width="1" height="1" fill="#fdf3d8"/>
<rect x="19" y="3" width="1" height="1" fill="#fdf1d9"/>
<rect x="20" y="3" width="1" height="1" fill="#fdf4da"/>
<rect x="21" y="3" width="1" height="1" fill="#fdf6dc"/>
<rect x="22" y="3" width="1" height="1" fill="#fdf1d0"/>
<rect x="23" y="3" width="1" height="1" fill="#f9df89"/>
<rect x="24" y="3" width="1" height="1" fill="#c08909"/>
<rect x="1" y="4" width="1" height="1" fill="#f4c112"/>
<rect x="2" y="4" width="1" height="1" fill="#f4c112"/>
<rect x="3" y="4" width="1" height="1" fill="#f4c112"/>
<rect x="5" y="4" width="1" height="1" fill="#f4c112"/>
<rect x="8" y="4" width="1" height="1" fill="#e0a70a"/>
<rect x="9" y="4" width="1" height="1" fill="#faf0d7"/>
<rect x="10" y="4" width="1" height="1" fill="#fdf4d5"/>
<rect x="11" y="4" width="1" height="1" fill="#fae7a4"/>
<rect x="12" y="4" width="1" height="1" fill="#f8e177"/>
<rect x="13" y="4" width="1" height="1" fill="#f9e27c"/>
<rect x="14" y="4" width="1" height="1" fill="#fef9e6"/>
<rect x="15" y="4" width="1" height="1" fill="#fefbef"/>
<rect x="16" y="4" width="1" height="1" fill="#fefcf2"/>
<rect x="17" y="4" width="1" height="1" fill="#fefcf1"/>
<rect x="18" y="4" width="1" height="1" fill="#fbebb3"/>
<rect x="19" y="4" width="1" height="1" fill="#fdf1d9"/>
<rect x="20" y="4" width="1" height="1" fill="#fdf1da"/>
<rect x="21" y="4" width="1" height="1" fill="#fdf0d8"/>
<rect x="22" y="4" width="1" height="1" fill="#fcecc1"/>
<rect x="23" y="4" width="1" height="1" fill="#cc9109"/>
<rect x="2" y="5" width="1" height="1" fill="#f4c112"/>
<rect x="3" y="5" width="1" height="1" fill="#f4c112"/>
<rect x="5" y="5" width="1" height="1" fill="#f4c112"/>
<rect x="8" y="5" width="1" height="1" fill="#e2a00a"/>
<rect x="9" y="5" width="1" height="1" fill="#fbedaf"/>
<rect x="10" y="5" width="1" height="1" fill="#fae291"/>
<rect x="11" y="5" width="1" height="1" fill="#f7d95a"/>
<rect x="12" y="5" width="1" height="1" fill="#f9e388"/>
<rect x="13" y="5" width="1" height="1" fill="#fcebba"/>
<rect x="14" y="5" width="1" height="1" fill="#fdf1cf"/>
<rect x="15" y="5" width="1" height="1" fill="#fefef2"/>
<rect x="16" y="5" width="1" height="1" fill="#fffffb"/>
<rect x="17" y="5" width="1" height="1" fill="#fffefb"/>
<rect x="18" y="5" width="1" height="1" fill="#fefcf8"/>
<rect x="19" y="5" width="1" height="1" fill="#fdf6dc"/>
<rect x="20" y="5" width="1" height="1" fill="#fdf1d9"/>
<rect x="21" y="5" width="1" height="1" fill="#fcebcb"/>
<rect x="22" y="5" width="1" height="1" fill="#f9e085"/>
<rect x="23" y="5" width="1" height="1" fill="#c48c09"/>
<rect x="0" y="6" width="1" height="1" fill="#f4c112"/>
<rect x="4" y="6" width="1" height="1" fill="#f4c112"/>
<rect x="8" y="6" width="1" height="1" fill="#d29a0a"/>
<rect x="9" y="6" width="1" height="1" fill="#f8d96f"/>
<rect x="10" y="6" width="1" height="1" fill="#e2a10a"/>
<rect x="11" y="6" width="1" height="1" fill="#e2a10a"/>
<rect x="12" y="6" width="1" height="1" fill="#e2a10a"/>
<rect x="13" y="6" width="1" height="1" fill="#f4c220"/>
<rect x="14" y="6" width="1" height="1" fill="#f7da5e"/>
<rect x="15" y="6" width="1" height="1" fill="#f8dd76"/>
<rect x="16" y="6" width="1" height="1" fill="#fbeca9"/>
<rect x="17" y="6" width="1" height="1" fill="#fffefb"/>
<rect x="18" y="6" width="1" height="1" fill="#fffefb"/>
<rect x="19" y="6" width="1" height="1" fill="#fdf4dc"/>
<rect x="20" y="6" width="1" height="1" fill="#fdf1d8"/>
<rect x="21" y="6" width="1" height="1" fill="#f9e085"/>
<rect x="22" y="6" width="1" height="1" fill="#c99009"/>
<rect x="1" y="7" width="1" height="1" fill="#f4c112"/>
<rect x="2" y="7" width="1" height="1" fill="#f4c112"/>
<rect x="3" y="7" width="1" height="1" fill="#f4c112"/>
<rect x="8" y="7" width="1" height="1" fill="#c88f09"/>
<rect x="9" y="7" width="1" height="1" fill="#e2a10a"/>
<rect x="13" y="7" width="1" height="1" fill="#e2a10a"/>
<rect x="14" y="7" width="1" height="1" fill="#fae7a4"/>
<rect x="15" y="7" width="1" height="1" fill="#f9e18c"/>
<rect x="16" y="7" width="1" height="1" fill="#f8dd76"/>
<rect x="17" y="7" width="1" height="1" fill="#fbeca9"/>
<rect x="18" y="7" width="1" height="1" fill="#fdf7dd"/>
<rect x="19" y="7" width="1" height="1" fill="#fdf0d8"/>
<rect x="20" y="7" width="1" height="1" fill="#fbe9ae"/>
<rect x="21" y="7" width="1" height="1" fill="#f9e17c"/>
<rect x="22" y="7" width="1" height="1" fill="#c78d09"/>
<rect x="24" y="7" width="1" height="1" fill="#bd8609"/>
<rect x="13" y="8" width="1" height="1" fill="#e2a10a"/>
<rect x="14" y="8" width="1" height="1" fill="#fae7a4"/>
<rect x="15" y="8" width="1" height="1" fill="#f3b80b"/>
<rect x="16" y="8" width="1" height="1" fill="#f3b80b"/>
<rect x="17" y="8" width="1" height="1" fill="#f3b80b"/>
<rect x="18" y="8" width="1" height="1" fill="#e2a10a"/>
<rect x="19" y="8" width="1" height="1" fill="#fae698"/>
<rect x="20" y="8" width="1" height="1" fill="#fae396"/>
<rect x="21" y="8" width="1" height="1" fill="#f8dd67"/>
<rect x="22" y="8" width="1" height="1" fill="#c99009"/>
<rect x="23" y="8" width="1" height="1" fill="#c38a09"/>
<rect x="24" y="8" width="1" height="1" fill="#c08909"/>
<rect x="7" y="9" width="1" height="1" fill="#e6a50b"/>
<rect x="8" y="9" width="1" height="1" fill="#e6a50b"/>
<rect x="12" y="9" width="1" height="1" fill="#e2a10a"/>
<rect x="13" y="9" width="1" height="1" fill="#fae7a4"/>
<rect x="14" y="9" width="1" height="1" fill="#f3b80b"/>
<rect x="15" y="9" width="1" height="1" fill="#ffffff"/>
<rect x="16" y="9" width="1" height="1" fill="#fcf2cb"/>
<rect x="17" y="9" width="1" height="1" fill="#fae694"/>
<rect x="18" y="9" width="1" height="1" fill="#cc9109"/>
<rect x="19" y="9" width="1" height="1" fill="#f3b80b"/>
<rect x="20" y="9" width="1" height="1" fill="#f3b80b"/>
<rect x="21" y="9" width="1" height="1" fill="#f3b80b"/>
<rect x="22" y="9" width="1" height="1" fill="#f7d752"/>
<rect x="23" y="9" width="1" height="1" fill="#f8e076"/>
<rect x="24" y="9" width="1" height="1" fill="#c18809"/>
<rect x="0" y="10" width="1" height="1" fill="#cc9109"/>
<rect x="1" y="10" width="1" height="1" fill="#cc9109"/>
<rect x="2" y="10" width="1" height="1" fill="#cc9109"/>
<rect x="3" y="10" width="1" height="1" fill="#cc9109"/>
<rect x="5" y="10" width="1" height="1" fill="#e6a50b"/>
<rect x="6" y="10" width="1" height="1" fill="#e6a50b"/>
<rect x="7" y="10" width="1" height="1" fill="#ffff08"/>
<rect x="8" y="10" width="1" height="1" fill="#ffff08"/>
<rect x="9" y="10" width="1" height="1" fill="#e6a50b"/>
<rect x="10" y="10" width="1" height="1" fill="#c38a09"/>
<rect x="11" y="10" width="1" height="1" fill="#e2a10a"/>
<rect x="12" y="10" width="1" height="1" fill="#fae7a4"/>
<rect x="13" y="10" width="1" height="1" fill="#f3b80b"/>
<rect x="14" y="10" width="1" height="1" fill="#ffffff"/>
<rect x="15" y="10" width="1" height="1" fill="#fcf2cb"/>
<rect x="16" y="10" width="1" height="1" fill="#fae694"/>
<rect x="17" y="10" width="1" height="1" fill="#f8dd6a"/>
<rect x="18" y="10" width="1" height="1" fill="#f3b80b"/>
<rect x="19" y="10" width="1" height="1" fill="#ffffff"/>
<rect x="20" y="10" width="1" height="1" fill="#fae694"/>
<rect x="21" y="10" width="1" height="1" fill="#e2a10a"/>
<rect x="22" y="10" width="1" height="1" fill="#f7d752"/>
<rect x="23" y="10" width="1" height="1" fill="#f8e076"/>
<rect x="24" y="10" width="1" height="1" fill="#c18809"/>
<rect x="0" y="11" width="1" height="1" fill="#cc9109"/>
<rect x="1" y="11" width="1" height="1" fill="#ffffff"/>
<rect x="2" y="11" width="1" height="1" fill="#ffffff"/>
<rect x="3" y="11" width="1" height="1" fill="#ffffff"/>
<rect x="4" y="11" width="1" height="1" fill="#e6a50b"/>
<rect x="5" y="11" width="1" height="1" fill="#ffff08"/>
<rect x="6" y="11" width="1" height="1" fill="#ffff08"/>
<rect x="7" y="11" width="1" height="1" fill="#e6a50b"/>
<rect x="8" y="11" width="1" height="1" fill="#ffff08"/>
<rect x="9" y="11" width="1" height="1" fill="#ffe008"/>
<rect x="10" y="11" width="1" height="1" fill="#e6a50b"/>
<rect x="11" y="11" width="1" height="1" fill="#fae7a4"/>
<rect x="12" y="11" width="1" height="1" fill="#f3b80b"/>
<rect x="13" y="11" width="1" height="1" fill="#ffffff"/>
<rect x="14" y="11" width="1" height="1" fill="#fcf2cb"/>
<rect x="15" y="11" width="1" height="1" fill="#fae694"/>
<rect x="16" y="11" width="1" height="1" fill="#f8dd6a"/>
<rect x="17" y="11" width="1" height="1" fill="#f3b80b"/>
<rect x="18" y="11" width="1" height="1" fill="#ffffff"/>
<rect x="19" y="11" width="1" height="1" fill="#fcf2cb"/>
<rect x="20" y="11" width="1" height="1" fill="#fae694"/>
<rect x="21" y="11" width="1" height="1" fill="#e2a10a"/>
<rect x="22" y="11" width="1" height="1" fill="#f7d752"/>
<rect x="23" y="11" width="1" height="1" fill="#f7d752"/>
<rect x="24" y="11" width="1" height="1" fill="#c18809"/>
<rect x="0" y="12" width="1" height="1" fill="#cc9109"/>
<rect x="1" y="12" width="1" height="1" fill="#ffffff"/>
<rect x="2" y="12" width="1" height="1" fill="#ffffff"/>
<rect x="3" y="12" width="1" height="1" fill="#ffffff"/>
<rect x="4" y="12" width="1" height="1" fill="#fdecdb"/>
<rect x="5" y="12" width="1" height="1" fill="#e6a50b"/>
<rect x="6" y="12" width="1" height="1" fill="#ffff08"/>
<rect x="7" y="12" width="1" height="1" fill="#ffe008"/>
<rect x="8" y="12" width="1" height="1" fill="#e6a50b"/>
<rect x="9" y="12" width="1" height="1" fill="#ffe008"/>
<rect x="10" y="12" width="1" height="1" fill="#ffe008"/>
<rect x="11" y="12" width="1" height="1" fill="#e6a50b"/>
<rect x="12" y="12" width="1" height="1" fill="#cc9109"/>
<rect x="13" y="12" width="1" height="1" fill="#fae7a4"/>
<rect x="14" y="12" width="1" height="1" fill="#cc9109"/>
<rect x="15" y="12" width="1" height="1" fill="#cc9109"/>
<rect x="16" y="12" width="1" height="1" fill="#f3b80b"/>
<rect x="17" y="12" width="1" height="1" fill="#ffffff"/>
<rect x="18" y="12" width="1" height="1" fill="#fcf2cb"/>
<rect x="19" y="12" width="1" height="1" fill="#fae694"/>
<rect x="20" y="12" width="1" height="1" fill="#f8dd6a"/>
<rect x="21" y="12" width="1" height="1" fill="#e2a10a"/>
<rect x="22" y="12" width="1" height="1" fill="#e2a10a"/>
<rect x="23" y="12" width="1" height="1" fill="#f7d752"/>
<rect x="24" y="12" width="1" height="1" fill="#c18809"/>
<rect x="0" y="13" width="1" height="1" fill="#cc9109"/>
<rect x="1" y="13" width="1" height="1" fill="#ffffff"/>
<rect x="2" y="13" width="1" height="1" fill="#ffffff"/>
<rect x="3" y="13" width="1" height="1" fill="#fdecdb"/>
<rect x="4" y="13" width="1" height="1" fill="#fdecdb"/>
<rect x="5" y="13" width="1" height="1" fill="#fdecdb"/>
<rect x="6" y="13" width="1" height="1" fill="#e6a50b"/>
<rect x="7" y="13" width="1" height="1" fill="#ffe008"/>
<rect x="8" y="13" width="1" height="1" fill="#ffe008"/>
<rect x="9" y="13" width="1" height="1" fill="#e6a50b"/>
<rect x="10" y="13" width="1" height="1" fill="#ffe008"/>
<rect x="11" y="13" width="1" height="1" fill="#ffd008"/>
<rect x="12" y="13" width="1" height="1" fill="#b48008"/>
<rect x="13" y="13" width="1" height="1" fill="#cc9109"/>
<rect x="14" y="13" width="1" height="1" fill="#fae895"/>
<rect x="15" y="13" width="1" height="1" fill="#f5cf38"/>
<rect x="16" y="13" width="1" height="1" fill="#cc9109"/>
<rect x="17" y="13" width="1" height="1" fill="#fcf2cb"/>
<rect x="18" y="13" width="1" height="1" fill="#fae694"/>
<rect x="19" y="13" width="1" height="1" fill="#f8dd6a"/>
<rect x="20" y="13" width="1" height="1" fill="#e2a10a"/>
<rect x="21" y="13" width="1" height="1" fill="#fcf2cb"/>
<rect x="22" y="13" width="1" height="1" fill="#e2a10a"/>
<rect x="23" y="13" width="1" height="1" fill="#c48c09"/>
<rect x="0" y="14" width="1" height="1" fill="#cc9109"/>
<rect x="1" y="14" width="1" height="1" fill="#fdecdb"/>
<rect x="2" y="14" width="1" height="1" fill="#fdecdb"/>
<rect x="3" y="14" width="1" height="1" fill="#fdecdb"/>
<rect x="4" y="14" width="1" height="1" fill="#fdecdb"/>
<rect x="5" y="14" width="1" height="1" fill="#fae8a2"/>
<rect x="6" y="14" width="1" height="1" fill="#fae8a2"/>
<rect x="7" y="14" width="1" height="1" fill="#e6a50b"/>
<rect x="8" y="14" width="1" height="1" fill="#ffd008"/>
<rect x="9" y="14" width="1" height="1" fill="#ffd008"/>
<rect x="10" y="14" width="1" height="1" fill="#e6a50b"/>
<rect x="11" y="14" width="1" height="1" fill="#ffd008"/>
<rect x="12" y="14" width="1" height="1" fill="#cc9109"/>
<rect x="13" y="14" width="1" height="1" fill="#fae895"/>
<rect x="14" y="14" width="1" height="1" fill="#ffd107"/>
<rect x="15" y="14" width="1" height="1" fill="#ffd107"/>
<rect x="16" y="14" width="1" height="1" fill="#f5cf38"/>
<rect x="17" y="14" width="1" height="1" fill="#cc9109"/>
<rect x="18" y="14" width="1" height="1" fill="#f8dd6a"/>
<rect x="19" y="14" width="1" height="1" fill="#e2a10a"/>
<rect x="20" y="14" width="1" height="1" fill="#fcf2cb"/>
<rect x="21" y="14" width="1" height="1" fill="#fae694"/>
<rect x="22" y="14" width="1" height="1" fill="#e2a10a"/>
<rect x="23" y="14" width="1" height="1" fill="#c38a09"/>
<rect x="1" y="15" width="1" height="1" fill="#cc9109"/>
<rect x="2" y="15" width="1" height="1" fill="#fae8a2"/>
<rect x="3" y="15" width="1" height="1" fill="#fae8a2"/>
<rect x="4" y="15" width="1" height="1" fill="#fae8a2"/>
<rect x="5" y="15" width="1" height="1" fill="#fae8a2"/>
<rect x="6" y="15" width="1" height="1" fill="#f8dd67"/>
<rect x="7" y="15" width="1" height="1" fill="#f8dd67"/>
<rect x="8" y="15" width="1" height="1" fill="#e6a50b"/>
<rect x="9" y="15" width="1" height="1" fill="#ffaf00"/>
<rect x="10" y="15" width="1" height="1" fill="#ffaf00"/>
<rect x="11" y="15" width="1" height="1" fill="#cc9109"/>
<rect x="12" y="15" width="1" height="1" fill="#f6d447"/>
<rect x="13" y="15" width="1" height="1" fill="#ffd107"/>
<rect x="14" y="15" width="1" height="1" fill="#f4c219"/>
<rect x="15" y="15" width="1" height="1" fill="#f4c219"/>
<rect x="16" y="15" width="1" height="1" fill="#ffd107"/>
<rect x="17" y="15" width="1" height="1" fill="#f4c219"/>
<rect x="18" y="15" width="1" height="1" fill="#cc9109"/>
<rect x="19" y="15" width="1" height="1" fill="#fcf2cb"/>
<rect x="20" y="15" width="1" height="1" fill="#fae694"/>
<rect x="21" y="15" width="1" height="1" fill="#fae694"/>
<rect x="22" y="15" width="1" height="1" fill="#e2a10a"/>
<rect x="1" y="16" width="1" height="1" fill="#cc9109"/>
<rect x="2" y="16" width="1" height="1" fill="#f8dd67"/>
<rect x="3" y="16" width="1" height="1" fill="#f8dd67"/>
<rect x="4" y="16" width="1" height="1" fill="#f8dd67"/>
<rect x="5" y="16" width="1" height="1" fill="#f8dd67"/>
<rect x="6" y="16" width="1" height="1" fill="#f8dd67"/>
<rect x="7" y="16" width="1" height="1" fill="#f6d348"/>
<rect x="8" y="16" width="1" height="1" fill="#f6d348"/>
<rect x="9" y="16" width="1" height="1" fill="#e6a50b"/>
<rect x="10" y="16" width="1" height="1" fill="#ffaf00"/>
<rect x="11" y="16" width="1" height="1" fill="#cc9109"/>
<rect x="12" y="16" width="1" height="1" fill="#f6d447"/>
<rect x="13" y="16" width="1" height="1" fill="#ffd107"/>
<rect x="14" y="16" width="1" height="1" fill="#f4c219"/>
<rect x="15" y="16" width="1" height="1" fill="#f4c219"/>
<rect x="16" y="16" width="1" height="1" fill="#ffd107"/>
<rect x="17" y="16" width="1" height="1" fill="#f4c219"/>
<rect x="18" y="16" width="1" height="1" fill="#cc9109"/>
<rect x="19" y="16" width="1" height="1" fill="#fae694"/>
<rect x="20" y="16" width="1" height="1" fill="#fae694"/>
<rect x="21" y="16" width="1" height="1" fill="#e2a10a"/>
<rect x="22" y="16" width="1" height="1" fill="#f7d752"/>
<rect x="23" y="16" width="1" height="1" fill="#c48c09"/>
<rect x="0" y="17" width="1" height="1" fill="#cc9109"/>
<rect x="1" y="17" width="1" height="1" fill="#cc9109"/>
<rect x="2" y="17" width="1" height="1" fill="#cc9109"/>
<rect x="3" y="17" width="1" height="1" fill="#cc9109"/>
<rect x="4" y="17" width="1" height="1" fill="#cc9109"/>
<rect x="5" y="17" width="1" height="1" fill="#cc9109"/>
<rect x="6" y="17" width="1" height="1" fill="#cc9109"/>
<rect x="7" y="17" width="1" height="1" fill="#cc9109"/>
<rect x="8" y="17" width="1" height="1" fill="#cc9109"/>
<rect x="9" y="17" width="1" height="1" fill="#cc9109"/>
<rect x="10" y="17" width="1" height="1" fill="#cc9109"/>
<rect x="11" y="17" width="1" height="1" fill="#cc9109"/>
<rect x="12" y="17" width="1" height="1" fill="#cc9109"/>
<rect x="13" y="17" width="1" height="1" fill="#f4c219"/>
<rect x="14" y="17" width="1" height="1" fill="#ffd107"/>
<rect x="15" y="17" width="1" height="1" fill="#ffd107"/>
<rect x="16" y="17" width="1" height="1" fill="#f4c219"/>
<rect x="17" y="17" width="1" height="1" fill="#cc9109"/>
<rect x="18" y="17" width="1" height="1" fill="#b48008"/>
<rect x="19" y="17" width="1" height="1" fill="#e2a10a"/>
<rect x="20" y="17" width="1" height="1" fill="#e2a10a"/>
<rect x="21" y="17" width="1" height="1" fill="#f7d752"/>
<rect x="22" y="17" width="1" height="1" fill="#f8e076"/>
<rect x="23" y="17" width="1" height="1" fill="#c48c09"/>
<rect x="0" y="18" width="1" height="1" fill="#cc9109"/>
<rect x="1" y="18" width="1" height="1" fill="#f6d54f"/>
<rect x="2" y="18" width="1" height="1" fill="#f6d54f"/>
<rect x="3" y="18" width="1" height="1" fill="#f6d54f"/>
<rect x="4" y="18" width="1" height="1" fill="#f6d54f"/>
<rect x="5" y="18" width="1" height="1" fill="#f6d54f"/>
<rect x="6" y="18" width="1" height="1" fill="#f6d54f"/>
<rect x="7" y="18" width="1" height="1" fill="#f6d54f"/>
<rect x="8" y="18" width="1" height="1" fill="#f6d54b"/>
<rect x="9" y="18" width="1" height="1" fill="#f6d13d"/>
<rect x="10" y="18" width="1" height="1" fill="#f6d13d"/>
<rect x="11" y="18" width="1" height="1" fill="#f5ce36"/>
<rect x="12" y="18" width="1" height="1" fill="#f5c725"/>
<rect x="13" y="18" width="1" height="1" fill="#cc9109"/>
<rect x="14" y="18" width="1" height="1" fill="#f4c219"/>
<rect x="15" y="18" width="1" height="1" fill="#f4c219"/>
<rect x="16" y="18" width="1" height="1" fill="#cc9109"/>
<rect x="17" y="18" width="1" height="1" fill="#f4c112"/>
<rect x="18" y="18" width="1" height="1" fill="#c48c09"/>
<rect x="19" y="18" width="1" height="1" fill="#c48c09"/>
<rect x="20" y="18" width="1" height="1" fill="#c48c09"/>
<rect x="21" y="18" width="1" height="1" fill="#c48c09"/>
<rect x="22" y="18" width="1" height="1" fill="#c48c09"/>
<rect x="23" y="18" width="1" height="1" fill="#c48c09"/>
<rect x="0" y="19" width="1" height="1" fill="#cc9109"/>
<rect x="1" y="19" width="1" height="1" fill="#cc9109"/>
<rect x="2" y="19" width="1" height="1" fill="#cc9109"/>
<rect x="3" y="19" width="1" height="1" fill="#cc9109"/>
<rect x="4" y="19" width="1" height="1" fill="#cc9109"/>
<rect x="5" y="19" width="1" height="1" fill="#cc9109"/>
<rect x="6" y="19" width="1" height="1" fill="#cc9109"/>
<rect x="7" y="19" width="1" height="1" fill="#cc9109"/>
<rect x="8" y="19" width="1" height="1" fill="#cc9109"/>
<rect x="9" y="19" width="1" height="1" fill="#cc9109"/>
<rect x="10" y="19" width="1" height="1" fill="#cc9109"/>
<rect x="11" y="19" width="1" height="1" fill="#cc9109"/>
<rect x="12" y="19" width="1" height="1" fill="#cc9109"/>
<rect x="14" y="19" width="1" height="1" fill="#cc9109"/>
<rect x="15" y="19" width="1" height="1" fill="#cc9109"/>
<rect x="17" y="19" width="1" height="1" fill="#dd9e0a"/>
<rect x="18" y="19" width="1" height="1" fill="#dd9e0a"/>
<rect x="19" y="19" width="1" height="1" fill="#dd9e0a"/>
<rect x="20" y="19" width="1" height="1" fill="#dd9e0a"/>
<rect x="21" y="19" width="1" height="1" fill="#dd9e0a"/>
<rect x="22" y="19" width="1" height="1" fill="#dd9e0a"/>
<rect x="23" y="19" width="1" height="1" fill="#dd9e0a"/>
</svg>