<?xml version="1.0" encoding="UTF-8" standalone="no"?>
<svg xmlns="http://www.w3.org/2000/svg" width="26" height="21" shape-rendering="crispEdges">
<rect x="3" y="0" width="1" height="1" fill="#3bf102"/>
<rect x="4" y="0" width="1" height="1" fill="#3bf102"/>
<rect x="5" y="0" width="1" height="1" fill="#3bf102"/>
<rect x="12" y="0" width="1" height="1" fill="#3bd300"/>
<rect x="13" y="0" width="1" height="1" fill="#3dd800"/>
<rect x="14" y="0" width="1" height="1" fill="#38d900"/>
<rect x="15" y="0" width="1" height="1" fill="#42d900"/>
<rect x="16" y="0" width="1" height="1" fill="#3cd900"/>
<rect x="17" y="0" width="1" height="1" fill="#38d900"/>
<rect x="18" y="0" width="1" height="1" fill="#3bd800"/>
<rect x="19" y="0" width="1" height="1" fill="#38c900"/>
<rect x="22" y="0" width="1" height="1" fill="#39bf00"/>
<rect x="23" y="0" width="1" height="1" fill="#35be00"/>
<rect x="24" y="0" width="1" height="1" fill="#35b800"/>
<rect x="2" y="1" width="1" height="1" fill="#3bf102"/>
<rect x="6" y="1" width="1" height="1" fill="#3bf102"/>
<rect x="10" y="1" width="1" height="1" fill="#35ba00"/>
<rect x="11" y="1" width="1" height="1" fill="#38c900"/>
<rect x="12" y="1" width="1" height="1" fill="#d2f8c5"/>
<rect x="13" y="1" width="1" height="1" fill="#d8fcd2"/>
<rect x="14" y="1" width="1" height="1" fill="#dff9d0"/>
<rect x="15" y="1" width="1" height="1" fill="#ddfcd2"/>
<rect x="16" y="1" width="1" height="1" fill="#e1fcd2"/>
<rect x="17" y="1" width="1" height="1" fill="#dbfcd2"/>
<rect x="18" y="1" width="1" height="1" fill="#c5fcaf"/>
<rect x="19" y="1" width="1" height="1" fill="#bafa9f"/>
<rect x="20" y="1" width="1" height="1" fill="#38c200"/>
<rect x="21" y="1" width="1" height="1" fill="#30bf00"/>
<rect x="22" y="1" width="1" height="1" fill="#d5f8cd"/>
<rect x="23" y="1" width="1" height="1" fill="#bffaa2"/>
<rect x="24" y="1" width="1" height="1" fill="#32b400"/>
<rect x="1" y="2" width="1" height="1" fill="#3bf102"/>
<rect x="3" y="2" width="1" height="1" fill="#3bf102"/>
<rect x="4" y="2" width="1" height="1" fill="#3bf102"/>
<rect x="9" y="2" width="1" height="1" fill="#36bf00"/>
<rect x="10" y="2" width="1" height="1" fill="#d2f8c5"/>
<rect x="11" y="2" width="1" height="1" fill="#e2fadc"/>
<rect x="12" y="2" width="1" height="1" fill="#f2feea"/>
<rect x="13" y="2" width="1" height="1" fill="#e2fdd4"/>
<rect x="14" y="2" width="1" height="1" fill="#d9fdcd"/>
<rect x="15" y="2" width="1" height="1" fill="#d8fdcc"/>
<rect x="16" y="2" width="1" height="1" fill="#dbfdd0"/>
<rect x="17" y="2" width="1" height="1" fill="#defdd0"/>
<rect x="18" y="2" width="1" height="1" fill="#dffdd3"/>
<rect x="19" y="2" width="1" height="1" fill="#d6fdc8"/>
<rect x="20" y="2" width="1" height="1" fill="#cdfcba"/>
<rect x="21" y="2" width="1" height="1" fill="#e6fddd"/>
<rect x="22" y="2" width="1" height="1" fill="#f1feec"/>
<rect x="23" y="2" width="1" height="1" fill="#c9fcb3"/>
<rect x="24" y="2" width="1" height="1" fill="#35b500"/>
<rect x="1" y="3" width="1" height="1" fill="#3bf102"/>
<rect x="3" y="3" width="1" height="1" fill="#3bf102"/>
<rect x="4" y="3" width="1" height="1" fill="#3bf102"/>
<rect x="5" y="3" width="1" height="1" fill="#3bf102"/>
<rect x="8" y="3" width="1" height="1" fill="#3dd300"/>
<rect x="9" y="3" width="1" height="1" fill="#cff8c2"/>
<rect x="10" y="3" width="1" height="1" fill="#f0feec"/>
<rect x="11" y="3" width="1" height="1" fill="#e2fdd0"/>
<rect x="12" y="3" width="1" height="1" fill="#dbfdca"/>
<rect x="13" y="3" width="1" height="1" fill="#d5fcc4"/>
<rect x="14" y="3" width="1" height="1" fill="#88f868"/>
<rect x="15" y="3" width="1" height="1" fill="#88f86b"/>
<rect x="16" y="3" width="1" height="1" fill="#b3fa9d"/>
<rect x="17" y="3" width="1" height="1" fill="#b9fa9f"/>
<rect x="18" y="3" width="1" height="1" fill="#defdd0"/>
<rect x="19" y="3" width="1" height="1" fill="#e2fdd2"/>
<rect x="20" y="3" width="1" height="1" fill="#dffdd3"/>
<rect x="21" y="3" width="1" height="1" fill="#dffdd5"/>
<rect x="22" y="3" width="1" height="1" fill="#d7fdc6"/>
<rect x="23" y="3" width="1" height="1" fill="#98f876"/>
<rect x="24" y="3" width="1" height="1" fill="#32b400"/>
<rect x="1" y="4" width="1" height="1" fill="#3bf102"/>
<rect x="2" y="4" width="1" height="1" fill="#3bf102"/>
<rect x="3" y="4" width="1" height="1" fill="#3bf102"/>
<rect x="5" y="4" width="1" height="1" fill="#3bf102"/>
<rect x="8" y="4" width="1" height="1" fill="#38d900"/>
<rect x="9" y="4" width="1" height="1" fill="#ddf9cf"/>
<rect x="10" y="4" width="1" height="1" fill="#d9fdcd"/>
<rect x="11" y="4" width="1" height="1" fill="#aef994"/>
<rect x="12" y="4" width="1" height="1" fill="#82f762"/>
<rect x="13" y="4" width="1" height="1" fill="#87f867"/>
<rect x="14" y="4" width="1" height="1" fill="#e8fee1"/>
<rect x="15" y="4" width="1" height="1" fill="#f0feec"/>
<rect x="16" y="4" width="1" height="1" fill="#f2feef"/>
<rect x="17" y="4" width="1" height="1" fill="#f1feee"/>
<rect x="18" y="4" width="1" height="1" fill="#bcfaa5"/>
<rect x="19" y="4" width="1" height="1" fill="#e2fdd2"/>
<rect x="20" y="4" width="1" height="1" fill="#e4fdd3"/>
<rect x="21" y="4" width="1" height="1" fill="#e2fdd0"/>
<rect x="22" y="4" width="1" height="1" fill="#ccfcb5"/>
<rect x="23" y="4" width="1" height="1" fill="#38c200"/>
<rect x="2" y="5" width="1" height="1" fill="#3bf102"/>
<rect x="3" y="5" width="1" height="1" fill="#3bf102"/>
<rect x="5" y="5" width="1" height="1" fill="#3bf102"/>
<rect x="8" y="5" width="1" height="1" fill="#40dc00"/>
<rect x="9" y="5" width="1" height="1" fill="#b5faa0"/>
<rect x="10" y="5" width="1" height="1" fill="#9ff97f"/>
<rect x="11" y="5" width="1" height="1" fill="#6cf643"/>
<rect x="12" y="5" width="1" height="1" fill="#94f875"/>
<rect x="13" y="5" width="1" height="1" fill="#c4fcad"/>
<rect x="14" y="5" width="1" height="1" fill="#d6fdc5"/>
<rect x="15" y="5" width="1" height="1" fill="#f0feef"/>
<rect x="16" y="5" width="1" height="1" fill="#fafffa"/>
<rect x="17" y="5" width="1" height="1" fill="#fcfffa"/>
<rect x="18" y="5" width="1" height="1" fill="#f9fef7"/>
<rect x="19" y="5" width="1" height="1" fill="#dffdd5"/>
<rect x="20" y="5" width="1" height="1" fill="#e2fdd2"/>
<rect x="21" y="5" width="1" height="1" fill="#d7fcc1"/>
<rect x="22" y="5" width="1" height="1" fill="#94f871"/>
<rect x="23" y="5" width="1" height="1" fill="#33b900"/>
<rect x="0" y="6" width="1" height="1" fill="#3bf102"/>
<rect x="4" y="6" width="1" height="1" fill="#3bf102"/>
<rect x="8" y="6" width="1" height="1" fill="#36c900"/>
<rect x="9" y="6" width="1" height="1" fill="#83f75a"/>
<rect x="10" y="6" width="1" height="1" fill="#3fdc00"/>
<rect x="11" y="6" width="1" height="1" fill="#3fdc00"/>
<rect x="12" y="6" width="1" height="1" fill="#3fdc00"/>
<rect x="13" y="6" width="1" height="1" fill="#46f10d"/>
<rect x="14" y="6" width="1" height="1" fill="#6ef648"/>
<rect x="15" y="6" width="1" height="1" fill="#86f761"/>
<rect x="16" y="6" width="1" height="1" fill="#affa9a"/>
<rect x="17" y="6" width="1" height="1" fill="#fcfffa"/>
<rect x="18" y="6" width="1" height="1" fill="#fcfffa"/>
<rect x="19" y="6" width="1" height="1" fill="#e2fdd5"/>
<rect x="20" y="6" width="1" height="1" fill="#e1fdd0"/>
<rect x="21" y="6" width="1" height="1" fill="#94f871"/>
<rect x="22" y="6" width="1" height="1" fill="#36bf00"/>
<rect x="1" y="7" width="1" height="1" fill="#3bf102"/>
<rect x="2" y="7" width="1" height="1" fill="#3bf102"/>
<rect x="3" y="7" width="1" height="1" fill="#3bf102"/>
<rect x="8" y="7" width="1" height="1" fill="#35be00"/>
<rect x="9" y="7" width="1" height="1" fill="#3fdc00"/>
<rect x="13" y="7" width="1" height="1" fill="#3fdc00"/>
<rect x="14" y="7" width="1" height="1" fill="#aef994"/>
<rect x="15" y="7" width="1" height="1" fill="#9af879"/>
<rect x="16" y="7" width="1" height="1" fill="#86f761"/>
<rect x="17" y="7" width="1" height="1" fill="#affa9a"/>
<rect x="18" y="7" width="1" height="1" fill="#dffdd6"/>
<rect x="19" y="7" width="1" height="1" fill="#e2fdd0"/>
<rect x="20" y="7" width="1" height="1" fill="#b9fa9f"/>
<rect x="21" y="7" width="1" height="1" fill="#88f867"/>
<rect x="22" y="7" width="1" height="1" fill="#37bc00"/>
<rect x="24" y="7" width="1" height="1" fill="#32b000"/>
<rect x="13" y="8" width="1" height="1" fill="#3fdc00"/>
<rect x="14" y="8" width="1" height="1" fill="#aef994"/>
<rect x="15" y="8" width="1" height="1" fill="#3cf000"/>
<rect x="16" y="8" width="1" height="1" fill="#3cf000"/>
<rect x="17" y="8" width="1" height="1" fill="#3cf000"/>
<rect x="18" y="8" width="1" height="1" fill="#3fdc00"/>
<rect x="19" y="8" width="1" height="1" fill="#a2f986"/>
<rect x="20" y="8" width="1" height="1" fill="#a4f984"/>
<rect x="21" y="8" width="1" height="1" fill="#76f751"/>
<rect x="22" y="8" width="1" height="1" fill="#36bf00"/>
<rect x="23" y="8" width="1" height="1" fill="#35b800"/>
<rect x="24" y="8" width="1" height="1" fill="#32b400"/>
<rect x="7" y="9" width="1" height="1" fill="#40e100"/>
<rect x="8" y="9" width="1" height="1" fill="#40e100"/>
<rect x="12" y="9" width="1" height="1" fill="#3fdc00"/>
<rect x="13" y="9" width="1" height="1" fill="#aef994"/>
<rect x="14" y="9" width="1" height="1" fill="#3cf000"/>
<rect x="15" y="9" width="1" height="1" fill="#ffffff"/>
<rect x="16" y="9" width="1" height="1" fill="#cffcc1"/>
<rect x="17" y="9" width="1" height="1" fill="#9ef982"/>
<rect x="18" y="9" width="1" height="1" fill="#38c200"/>
<rect x="19" y="9" width="1" height="1" fill="#3cf000"/>
<rect x="20" y="9" width="1" height="1" fill="#3cf000"/>
<rect x="21" y="9" width="1" height="1" fill="#3cf000"/>
<rect x="22" y="9" width="1" height="1" fill="#65f63c"/>
<rect x="23" y="9" width="1" height="1" fill="#82f761"/>
<rect x="24" y="9" width="1" height="1" fill="#35b500"/>
<rect x="0" y="10" width="1" height="1" fill="#38c200"/>
<rect x="1" y="10" width="1" height="1" fill="#38c200"/>
<rect x="2" y="10" width="1" height="1" fill="#38c200"/>
<rect x="3" y="10" width="1" height="1" fill="#38c200"/>
<rect x="5" y="10" width="1" height="1" fill="#40e100"/>
<rect x="6" y="10" width="1" height="1" fill="#40e100"/>
<rect x="7" y="10" width="1" height="1" fill="#ffff08"/>
<rect x="8" y="10" width="1" height="1" fill="#ffff08"/>
<rect x="9" y="10" width="1" height="1" fill="#40e100"/>
<rect x="10" y="10" width="1" height="1" fill="#35b800"/>
<rect x="11" y="10" width="1" height="1" fill="#3fdc00"/>
<rect x="12" y="10" width="1" height="1" fill="#aef994"/>
<rect x="13" y="10" width="1" height="1" fill="#3cf000"/>
<rect x="14" y="10" width="1" height="1" fill="#ffffff"/>
<rect x="15" y="10" width="1" height="1" fill="#cffcc1"/>
<rect x="16" y="10" width="1" height="1" fill="#9ef982"/>
<rect x="17" y="10" width="1" height="1" fill="#79f754"/>
<rect x="18" y="10" width="1" height="1" fill="#3cf000"/>
<rect x="19" y="10" width="1" height="1" fill="#ffffff"/>
<rect x="20" y="10" width="1" height="1" fill="#9ef982"/>
<rect x="21" y="10" width="1" height="1" fill="#3fdc00"/>
<rect x="22" y="10" width="1" height="1" fill="#65f63c"/>
<rect x="23" y="10" width="1" height="1" fill="#82f761"/>
<rect x="24" y="10" width="1" height="1" fill="#35b500"/>
<rect x="0" y="11" width="1" height="1" fill="#38c200"/>
<rect x="1" y="11" width="1" height="1" fill="#ffffff"/>
<rect x="2" y="11" width="1" height="1" fill="#ffffff"/>
<rect x="3" y="11" width="1" height="1" fill="#ffffff"/>
<rect x="4" y="11" width="1" height="1" fill="#40e100"/>
<rect x="5" y="11" width="1" height="1" fill="#ffff08"/>
<rect x="6" y="11" width="1" height="1" fill="#ffff08"/>
<rect x="7" y="11" width="1" height="1" fill="#40e100"/>
<rect x="8" y="11" width="1" height="1" fill="#ffff08"/>
<rect x="9" y="11" width="1" height="1" fill="#ffe008"/>
<rect x="10" y="11" width="1" height="1" fill="#40e100"/>
<rect x="11" y="11" width="1" height="1" fill="#aef994"/>
<rect x="12" y="11" width="1" height="1" fill="#3cf000"/>
<rect x="13" y="11" width="1" height="1" fill="#ffffff"/>
<rect x="14" y="11" width="1" height="1" fill="#cffcc1"/>
<rect x="15" y="11" width="1" height="1" fill="#9ef982"/>
<rect x="16" y="11" width="1" height="1" fill="#79f754"/>
<rect x="17" y="11" width="1" height="1" fill="#3cf000"/>
<rect x="18" y="11" width="1" height="1" fill="#ffffff"/>
<rect x="19" y="11" width="1" height="1" fill="#cffcc1"/>
<rect x="20" y="11" width="1" height="1" fill="#9ef982"/>
<rect x="21" y="11" width="1" height="1" fill="#3fdc00"/>
<rect x="22" y="11" width="1" height="1" fill="#65f63c"/>
<rect x="23" y="11" width="1" height="1" fill="#65f63c"/>
<rect x="24" y="11" width="1" height="1" fill="#35b500"/>
<rect x="0" y="12" width="1" height="1" fill="#38c200"/>
<rect x="1" y="12" width="1" height="1" fill="#ffffff"/>
<rect x="2" y="12" width="1" height="1" fill="#ffffff"/>
<rect x="3" y="12" width="1" height="1" fill="#ffffff"/>
<rect x="4" y="12" width="1" height="1" fill="#eafdd4"/>
<rect x="5" y="12" width="1" height="1" fill="#40e100"/>
<rect x="6" y="12" width="1" height="1" fill="#ffff08"/>
<rect x="7" y="12" width="1" height="1" fill="#ffe008"/>
<rect x="8" y="12" width="1" height="1" fill="#40e100"/>
<rect x="9" y="12" width="1" height="1" fill="#ffe008"/>
<rect x="10" y="12" width="1" height="1" fill="#ffe008"/>
<rect x="11" y="12" width="1" height="1" fill="#40e100"/>
<rect x="12" y="12" width="1" height="1" fill="#38c200"/>
<rect x="13" y="12" width="1" height="1" fill="#aef994"/>
<rect x="14" y="12" width="1" height="1" fill="#38c200"/>
<rect x="15" y="12" width="1" height="1" fill="#38c200"/>
<rect x="16" y="12" width="1" height="1" fill="#3cf000"/>
<rect x="17" y="12" width="1" height="1" fill="#ffffff"/>
<rect x="18" y="12" width="1" height="1" fill="#cffcc1"/>
<rect x="19" y="12" width="1" height="1" fill="#9ef982"/>
<rect x="20" y="12" width="1" height="1" fill="#79f754"/>
<rect x="21" y="12" width="1" height="1" fill="#3fdc00"/>
<rect x="22" y="12" width="1" height="1" fill="#3fdc00"/>
<rect x="23" y="12" width="1" height="1" fill="#65f63c"/>
<rect x="24" y="12" width="1" height="1" fill="#35b500"/>
<rect x="0" y="13" width="1" height="1" fill="#38c200"/>
<rect x="1" y="13" width="1" height="1" fill="#ffffff"/>
<rect x="2" y="13" width="1" height="1" fill="#ffffff"/>
<rect x="3" y="13" width="1" height="1" fill="#eafdd4"/>
<rect x="4" y="13" width="1" height="1" fill="#eafdd4"/>
<rect x="5" y="13" width="1" height="1" fill="#eafdd4"/>
<rect x="6" y="13" width="1" height="1" fill="#40e100"/>
<rect x="7" y="13" width="1" height="1" fill="#ffe008"/>
<rect x="8" y="13" width="1" height="1" fill="#ffe008"/>
<rect x="9" y="13" width="1" height="1" fill="#40e100"/>
<rect x="10" y="13" width="1" height="1" fill="#ffe008"/>
<rect x="11" y="13" width="1" height="1" fill="#ffd008"/>
<rect x="12" y="13" width="1" height="1" fill="#2ea700"/>
<rect x="13" y="13" width="1" height="1" fill="#38c200"/>
<rect x="14" y="13" width="1" height="1" fill="#9df983"/>
<rect x="15" y="13" width="1" height="1" fill="#51f222"/>
<rect x="16" y="13" width="1" height="1" fill="#38c200"/>
<rect x="17" y="13" width="1" height="1" fill="#cffcc1"/>
<rect x="18" y="13" width="1" height="1" fill="#9ef982"/>
<rect x="19" y="13" width="1" height="1" fill="#79f754"/>
<rect x="20" y="13" width="1" height="1" fill="#3fdc00"/>
<rect x="21" y="13" width="1" height="1" fill="#cffcc1"/>
<rect x="22" y="13" width="1" height="1" fill="#3fdc00"/>
<rect x="23" y="13" width="1" height="1" fill="#33b900"/>
<rect x="0" y="14" width="1" height="1" fill="#38c200"/>
<rect x="1" y="14" width="1" height="1" fill="#eafdd4"/>
<rect x="2" y="14" width="1" height="1" fill="#eafdd4"/>
<rect x="3" y="14" width="1" height="1" fill="#eafdd4"/>
<rect x="4" y="14" width="1" height="1" fill="#eafdd4"/>
<rect x="5" y="14" width="1" height="1" fill="#abf992"/>
<rect x="6" y="14" width="1" height="1" fill="#abf992"/>
<rect x="7" y="14" width="1" height="1" fill="#40e100"/>
<rect x="8" y="14" width="1" height="1" fill="#ffd008"/>
<rect x="9" y="14" width="1" height="1" fill="#ffd008"/>
<rect x="10" y="14" width="1" height="1" fill="#40e100"/>
<rect x="11" y="14" width="1" height="1" fill="#ffd008"/>
<rect x="12" y="14" width="1" height="1" fill="#38c200"/>
<rect x="13" y="14" width="1" height="1" fill="#9df983"/>
<rect x="14" y="14" width="1" height="1" fill="#ffd107"/>
<rect x="15" y="14" width="1" height="1" fill="#ffd107"/>
<rect x="16" y="14" width="1" height="1" fill="#51f222"/>
<rect x="17" y="14" width="1" height="1" fill="#38c200"/>
<rect x="18" y="14" width="1" height="1" fill="#79f754"/>
<rect x="19" y="14" width="1" height="1" fill="#3fdc00"/>
<rect x="20" y="14" width="1" height="1" fill="#cffcc1"/>
<rect x="21" y="14" width="1" height="1" fill="#9ef982"/>
<rect x="22" y="14" width="1" height="1" fill="#3fdc00"/>
<rect x="23" y="14" width="1" height="1" fill="#35b800"/>
<rect x="1" y="15" width="1" height="1" fill="#38c200"/>
<rect x="2" y="15" width="1" height="1" fill="#abf992"/>
<rect x="3" y="15" width="1" height="1" fill="#abf992"/>
<rect x="4" y="15" width="1" height="1" fill="#abf992"/>
<rect x="5" y="15" width="1" height="1" fill="#abf992"/>
<rect x="6" y="15" width="1" height="1" fill="#76f751"/>
<rect x="7" y="15" width="1" height="1" fill="#76f751"/>
<rect x="8" y="15" width="1" height="1" fill="#40e100"/>
<rect x="9" y="15" width="1" height="1" fill="#ffaf00"/>
<rect x="10" y="15" width="1" height="1" fill="#ffaf00"/>
<rect x="11" y="15" width="1" height="1" fill="#38c200"/>
<rect x="12" y="15" width="1" height="1" fill="#5df430"/>
<rect x="13" y="15" width="1" height="1" fill="#ffd107"/>
<rect x="14" y="15" width="1" height="1" fill="#3ff108"/>
<rect x="15" y="15" width="1" height="1" fill="#3ff108"/>
<rect x="16" y="15" width="1" height="1" fill="#ffd107"/>
<rect x="17" y="15" width="1" height="1" fill="#3ff108"/>
<rect x="18" y="15" width="1" height="1" fill="#38c200"/>
<rect x="19" y="15" width="1" height="1" fill="#cffcc1"/>
<rect x="20" y="15" width="1" height="1" fill="#9ef982"/>
<rect x="21" y="15" width="1" height="1" fill="#9ef982"/>
<rect x="22" y="15" width="1" height="1" fill="#3fdc00"/>
<rect x="1" y="16" width="1" height="1" fill="#38c200"/>
<rect x="2" y="16" width="1" height="1" fill="#76f751"/>
<rect x="3" y="16" width="1" height="1" fill="#76f751"/>
<rect x="4" y="16" width="1" height="1" fill="#76f751"/>
<rect x="5" y="16" width="1" height="1" fill="#76f751"/>
<rect x="6" y="16" width="1" height="1" fill="#76f751"/>
<rect x="7" y="16" width="1" height="1" fill="#5ef431"/>
<rect x="8" y="16" width="1" height="1" fill="#5ef431"/>
<rect x="9" y="16" width="1" height="1" fill="#40e100"/>
<rect x="10" y="16" width="1" height="1" fill="#ffaf00"/>
<rect x="11" y="16" width="1" height="1" fill="#38c200"/>
<rect x="12" y="16" width="1" height="1" fill="#5df430"/>
<rect x="13" y="16" width="1" height="1" fill="#ffd107"/>
<rect x="14" y="16" width="1" height="1" fill="#3ff108"/>
<rect x="15" y="16" width="1" height="1" fill="#3ff108"/>
<rect x="16" y="16" width="1" height="1" fill="#ffd107"/>
<rect x="17" y="16" width="1" height="1" fill="#3ff108"/>
<rect x="18" y="16" width="1" height="1" fill="#38c200"/>
<rect x="19" y="16" width="1" height="1" fill="#9ef982"/>
<rect x="20" y="16" width="1" height="1" fill="#9ef982"/>
<rect x="21" y="16" width="1" height="1" fill="#3fdc00"/>
<rect x="22" y="16" width="1" height="1" fill="#65f63c"/>
<rect x="23" y="16" width="1" height="1" fill="#33b900"/>
<rect x="0" y="17" width="1" height="1" fill="#38c200"/>
<rect x="1" y="17" width="1" height="1" fill="#38c200"/>
<rect x="2" y="17" width="1" height="1" fill="#38c200"/>
<rect x="3" y="17" width="1" height="1" fill="#38c200"/>
<rect x="4" y="17" width="1" height="1" fill="#38c200"/>
<rect x="5" y="17" width="1" height="1" fill="#38c200"/>
<rect x="6" y="17" width="1" height="1" fill="#38c200"/>
<rect x="7" y="17" width="1" height="1" fill="#38c200"/>
<rect x="8" y="17" width="1" height="1" fill="#38c200"/>
<rect x="9" y="17" width="1" height="1" fill="#38c200"/>
<rect x="10" y="17" width="1" height="1" fill="#38c200"/>
<rect x="11" y="17" width="1" height="1" fill="#38c200"/>
<rect x="12" y="17" width="1" height="1" fill="#38c200"/>
<rect x="13" y="17" width="1" height="1" fill="#3ff108"/>
<rect x="14" y="17" width="1" height="1" fill="#ffd107"/>
<rect x="15" y="17" width="1" height="1" fill="#ffd107"/>
<rect x="16" y="17" width="1" height="1" fill="#3ff108"/>
<rect x="17" y="17" width="1" height="1" fill="#38c200"/>
<rect x="18" y="17" width="1" height="1" fill="#2ea700"/>
<rect x="19" y="17" width="1" height="1" fill="#3fdc00"/>
<rect x="20" y="17" width="1" height="1" fill="#3fdc00"/>
<rect x="21" y="17" width="1" height="1" fill="#65f63c"/>
<rect x="22" y="17" width="1" height="1" fill="#82f761"/>
<rect x="23" y="17" width="1" height="1" fill="#33b900"/>
<rect x="0" y="18" width="1" height="1" fill="#38c200"/>
<rect x="1" y="18" width="1" height="1" fill="#63f439"/>
<rect x="2" y="18" width="1" height="1" fill="#63f439"/>
<rect x="3" y="18" width="1" height="1" fill="#63f439"/>
<rect x="4" y="18" width="1" height="1" fill="#63f439"/>
<rect x="5" y="18" width="1" height="1" fill="#63f439"/>
<rect x="6" y="18" width="1" height="1" fill="#63f439"/>
<rect x="7" y="18" width="1" height="1" fill="#63f439"/>
<rect x="8" y="18" width="1" height="1" fill="#5ff435"/>
<rect x="9" y="18" width="1" height="1" fill="#55f427"/>
<rect x="10" y="18" width="1" height="1" fill="#55f427"/>
<rect x="11" y="18" width="1" height="1" fill="#50f220"/>
<rect x="12" y="18" width="1" height="1" fill="#47f211"/>
<rect x="13" y="18" width="1" height="1" fill="#38c200"/>
<rect x="14" y="18" width="1" height="1" fill="#3ff108"/>
<rect x="15" y="18" width="1" height="1" fill="#3ff108"/>
<rect x="16" y="18" width="1" height="1" fill="#38c200"/>
<rect x="17" y="18" width="1" height="1" fill="#3bf102"/>
<rect x="18" y="18" width="1" height="1" fill="#33b900"/>
<rect x="19" y="18" width="1" height="1" fill="#33b900"/>
<rect x="20" y="18" width="1" height="1" fill="#33b900"/>
<rect x="21" y="18" width="1" height="1" fill="#33b900"/>
<rect x="22" y="18" width="1" height="1" fill="#33b900"/>
<rect x="23" y="18" width="1" height="1" fill="#33b900"/>
<rect x="0" y="19" width="1" height="1" fill="#38c200"/>
<rect x="1" y="19" width="1" height="1" fill="#38c200"/>
<rect x="2" y="19" width="1" height="1" fill="#38c200"/>
<rect x="3" y="19" width="1" height="1" fill="#38c200"/>
<rect x="4" y="19" width="1" height="1" fill="#38c200"/>
<rect x="5" y="19" width="1" height="1" fill="#38c200"/>
<rect x="6" y="19" width="1" height="1" fill="#38c200"/>
<rect x="7" y="19" width="1" height="1" fill="#38c200"/>
<rect x="8" y="19" width="1" height="1" fill="#38c200"/>
<rect x="9" y="19" width="1" height="1" fill="#38c200"/>
<rect x="10" y="19" width="1" height="1" fill="#38c200"/>
<rect x="11" y="19" width="1" height="1" fill="#38c200"/>
<rect x="12" y="19" width="1" height="1" fill="#38c200"/>
<rect x="14" y="19" width="1" height="1" fill="#38c200"/>
<rect x="15" y="19" width="1" height="1" fill="#38c200"/>
<rect x="17" y="19" width="1" height="1" fill="#3dd600"/>
<rect x="18" y="19" width="1" height="1" fill="#3dd600"/>
<rect x="19" y="19" width="1" height="1" fill="#3dd600"/>
<rect x="20" y="19" width="1" height="1" fill="#3dd600"/>
<rect x="21" y="19" width="1" height="1" fill="#3dd600"/>
<rect x="22" y="19" width="1" height="1" fill="#3dd600"/>
<rect x="23" y="19" width="1" height="1" fill="#3dd600"/>
</svg>