<?xml version="1.0" encoding="UTF-8" standalone="no"?>
<svg xmlns="http://www.w3.org/2000/svg" width="26" height="21" shape-rendering="crispEdges">
<rect x="3" y="0" width="1" height="1" fill="#03abfc"/>
<rect x="4" y="0" width="1" height="1" fill="#03abfc"/>
<rect x="5" y="0" width="1" height="1" fill="#03abfc"/>
<rect x="12" y="0" width="1" height="1" fill="#009ddf"/>
<rect x="13" y="0" width="1" height="1" fill="#00a2e4"/>
<rect x="14" y="0" width="1" height="1" fill="#009ce5"/>
<rect x="15" y="0" width="1" height="1" fill="#00a8e5"/>
<rect x="16" y="0" width="1" height="1" fill="#00a1e5"/>
<rect x="17" y="0" width="1" height="1" fill="#009ce5"/>
<rect x="18" y="0" width="1" height="1" fill="#00a0e4"/>
<rect x="19" y="0" width="1" height="1" fill="#0097d5"/>
<rect x="22" y="0" width="1" height="1" fill="#0094cc"/>
<rect x="23" y="0" width="1" height="1" fill="#008fcb"/>
<rect x="24" y="0" width="1" height="1" fill="#008dc5"/>
<rect x="2" y="1" width="1" height="1" fill="#03abfc"/>
<rect x="6" y="1" width="1" height="1" fill="#03abfc"/>
<rect x="10" y="1" width="1" height="1" fill="#008ec7"/>
<rect x="11" y="1" width="1" height="1" fill="#0097d5"/>
<rect x="12" y="1" width="1" height="1" fill="#d1f3ff"/>
<rect x="13" y="1" width="1" height="1" fill="#def5ff"/>
<rect x="14" y="1" width="1" height="1" fill="#ddfbff"/>
<rect x="15" y="1" width="1" height="1" fill="#def9ff"/>
<rect x="16" y="1" width="1" height="1" fill="#defdff"/>
<rect x="17" y="1" width="1" height="1" fill="#def7ff"/>
<rect x="18" y="1" width="1" height="1" fill="#bcf0ff"/>
<rect x="19" y="1" width="1" height="1" fill="#acebff"/>
<rect x="20" y="1" width="1" height="1" fill="#0094ce"/>
<rect x="21" y="1" width="1" height="1" fill="#008acc"/>
<rect x="22" y="1" width="1" height="1" fill="#daf3ff"/>
<rect x="23" y="1" width="1" height="1" fill="#afeeff"/>
<rect x="24" y="1" width="1" height="1" fill="#0087c1"/>
<rect x="1" y="2" width="1" height="1" fill="#03abfc"/>
<rect x="3" y="2" width="1" height="1" fill="#03abfc"/>
<rect x="4" y="2" width="1" height="1" fill="#03abfc"/>
<rect x="9" y="2" width="1" height="1" fill="#0091cc"/>
<rect x="10" y="2" width="1" height="1" fill="#d1f3ff"/>
<rect x="11" y="2" width="1" height="1" fill="#e8f9ff"/>
<rect x="12" y="2" width="1" height="1" fill="#f6ffff"/>
<rect x="13" y="2" width="1" height="1" fill="#e0feff"/>
<rect x="14" y="2" width="1" height="1" fill="#daf8ff"/>
<rect x="15" y="2" width="1" height="1" fill="#d8f7ff"/>
<rect x="16" y="2" width="1" height="1" fill="#ddf9ff"/>
<rect x="17" y="2" width="1" height="1" fill="#ddfcff"/>
<rect x="18" y="2" width="1" height="1" fill="#dffbff"/>
<rect x="19" y="2" width="1" height="1" fill="#d4f7ff"/>
<rect x="20" y="2" width="1" height="1" fill="#c7f4ff"/>
<rect x="21" y="2" width="1" height="1" fill="#e9feff"/>
<rect x="22" y="2" width="1" height="1" fill="#f8ffff"/>
<rect x="23" y="2" width="1" height="1" fill="#c0f3ff"/>
<rect x="24" y="2" width="1" height="1" fill="#008bc2"/>
<rect x="1" y="3" width="1" height="1" fill="#03abfc"/>
<rect x="3" y="3" width="1" height="1" fill="#03abfc"/>
<rect x="4" y="3" width="1" height="1" fill="#03abfc"/>
<rect x="5" y="3" width="1" height="1" fill="#03abfc"/>
<rect x="8" y="3" width="1" height="1" fill="#009fdf"/>
<rect x="9" y="3" width="1" height="1" fill="#cef0ff"/>
<rect x="10" y="3" width="1" height="1" fill="#f8ffff"/>
<rect x="11" y="3" width="1" height="1" fill="#ddffff"/>
<rect x="12" y="3" width="1" height="1" fill="#d6fbff"/>
<rect x="13" y="3" width="1" height="1" fill="#d0f7ff"/>
<rect x="14" y="3" width="1" height="1" fill="#75d0ff"/>
<rect x="15" y="3" width="1" height="1" fill="#78ceff"/>
<rect x="16" y="3" width="1" height="1" fill="#aae4ff"/>
<rect x="17" y="3" width="1" height="1" fill="#aceaff"/>
<rect x="18" y="3" width="1" height="1" fill="#ddfcff"/>
<rect x="19" y="3" width="1" height="1" fill="#deffff"/>
<rect x="20" y="3" width="1" height="1" fill="#dffbff"/>
<rect x="21" y="3" width="1" height="1" fill="#e1faff"/>
<rect x="22" y="3" width="1" height="1" fill="#d2f8ff"/>
<rect x="23" y="3" width="1" height="1" fill="#83daff"/>
<rect x="24" y="3" width="1" height="1" fill="#0087c1"/>
<rect x="1" y="4" width="1" height="1" fill="#03abfc"/>
<rect x="2" y="4" width="1" height="1" fill="#03abfc"/>
<rect x="3" y="4" width="1" height="1" fill="#03abfc"/>
<rect x="5" y="4" width="1" height="1" fill="#03abfc"/>
<rect x="8" y="4" width="1" height="1" fill="#009ce5"/>
<rect x="9" y="4" width="1" height="1" fill="#dcf9ff"/>
<rect x="10" y="4" width="1" height="1" fill="#daf8ff"/>
<rect x="11" y="4" width="1" height="1" fill="#a1e4ff"/>
<rect x="12" y="4" width="1" height="1" fill="#6eccff"/>
<rect x="13" y="4" width="1" height="1" fill="#74ceff"/>
<rect x="14" y="4" width="1" height="1" fill="#ecffff"/>
<rect x="15" y="4" width="1" height="1" fill="#f8ffff"/>
<rect x="16" y="4" width="1" height="1" fill="#faffff"/>
<rect x="17" y="4" width="1" height="1" fill="#f9ffff"/>
<rect x="18" y="4" width="1" height="1" fill="#b2ebff"/>
<rect x="19" y="4" width="1" height="1" fill="#deffff"/>
<rect x="20" y="4" width="1" height="1" fill="#dfffff"/>
<rect x="21" y="4" width="1" height="1" fill="#ddffff"/>
<rect x="22" y="4" width="1" height="1" fill="#c2f4ff"/>
<rect x="23" y="4" width="1" height="1" fill="#0094ce"/>
<rect x="2" y="5" width="1" height="1" fill="#03abfc"/>
<rect x="3" y="5" width="1" height="1" fill="#03abfc"/>
<rect x="5" y="5" width="1" height="1" fill="#03abfc"/>
<rect x="8" y="5" width="1" height="1" fill="#00a5e8"/>
<rect x="9" y="5" width="1" height="1" fill="#ade5ff"/>
<rect x="10" y="5" width="1" height="1" fill="#8ddeff"/>
<rect x="11" y="5" width="1" height="1" fill="#4ec2ff"/>
<rect x="12" y="5" width="1" height="1" fill="#82d5ff"/>
<rect x="13" y="5" width="1" height="1" fill="#baf0ff"/>
<rect x="14" y="5" width="1" height="1" fill="#d1f8ff"/>
<rect x="15" y="5" width="1" height="1" fill="#faffff"/>
<rect x="16" y="5" width="1" height="1" fill="#ffffff"/>
<rect x="17" y="5" width="1" height="1" fill="#ffffff"/>
<rect x="18" y="5" width="1" height="1" fill="#ffffff"/>
<rect x="19" y="5" width="1" height="1" fill="#e1faff"/>
<rect x="20" y="5" width="1" height="1" fill="#deffff"/>
<rect x="21" y="5" width="1" height="1" fill="#cdfaff"/>
<rect x="22" y="5" width="1" height="1" fill="#7ed7ff"/>
<rect x="23" y="5" width="1" height="1" fill="#008ac6"/>
<rect x="0" y="6" width="1" height="1" fill="#03abfc"/>
<rect x="4" y="6" width="1" height="1" fill="#03abfc"/>
<rect x="8" y="6" width="1" height="1" fill="#0096d5"/>
<rect x="9" y="6" width="1" height="1" fill="#66d1ff"/>
<rect x="10" y="6" width="1" height="1" fill="#00a5e8"/>
<rect x="11" y="6" width="1" height="1" fill="#00a5e8"/>
<rect x="12" y="6" width="1" height="1" fill="#00a5e8"/>
<rect x="13" y="6" width="1" height="1" fill="#12b0fc"/>
<rect x="14" y="6" width="1" height="1" fill="#53c2ff"/>
<rect x="15" y="6" width="1" height="1" fill="#6dd0ff"/>
<rect x="16" y="6" width="1" height="1" fill="#a8e3ff"/>
<rect x="17" y="6" width="1" height="1" fill="#ffffff"/>
<rect x="18" y="6" width="1" height="1" fill="#ffffff"/>
<rect x="19" y="6" width="1" height="1" fill="#e1fdff"/>
<rect x="20" y="6" width="1" height="1" fill="#ddfeff"/>
<rect x="21" y="6" width="1" height="1" fill="#7ed7ff"/>
<rect x="22" y="6" width="1" height="1" fill="#0091cc"/>
<rect x="1" y="7" width="1" height="1" fill="#03abfc"/>
<rect x="2" y="7" width="1" height="1" fill="#03abfc"/>
<rect x="3" y="7" width="1" height="1" fill="#03abfc"/>
<rect x="8" y="7" width="1" height="1" fill="#008fcb"/>
<rect x="9" y="7" width="1" height="1" fill="#00a5e8"/>
<rect x="13" y="7" width="1" height="1" fill="#00a5e8"/>
<rect x="14" y="7" width="1" height="1" fill="#a1e4ff"/>
<rect x="15" y="7" width="1" height="1" fill="#86dbff"/>
<rect x="16" y="7" width="1" height="1" fill="#6dd0ff"/>
<rect x="17" y="7" width="1" height="1" fill="#a8e3ff"/>
<rect x="18" y="7" width="1" height="1" fill="#e2faff"/>
<rect x="19" y="7" width="1" height="1" fill="#ddffff"/>
<rect x="20" y="7" width="1" height="1" fill="#aceaff"/>
<rect x="21" y="7" width="1" height="1" fill="#74d0ff"/>
<rect x="22" y="7" width="1" height="1" fill="#0091c9"/>
<rect x="24" y="7" width="1" height="1" fill="#0086bc"/>
<rect x="13" y="8" width="1" height="1" fill="#00a5e8"/>
<rect x="14" y="8" width="1" height="1" fill="#a1e4ff"/>
<rect x="15" y="8" width="1" height="1" fill="#00acfb"/>
<rect x="16" y="8" width="1" height="1" fill="#00acfb"/>
<rect x="17" y="8" width="1" height="1" fill="#00acfb"/>
<rect x="18" y="8" width="1" height="1" fill="#00a5e8"/>
<rect x="19" y="8" width="1" height="1" fill="#93deff"/>
<rect x="20" y="8" width="1" height="1" fill="#91e0ff"/>
<rect x="21" y="8" width="1" height="1" fill="#5dc7ff"/>
<rect x="22" y="8" width="1" height="1" fill="#0091cc"/>
<rect x="23" y="8" width="1" height="1" fill="#008dc5"/>
<rect x="24" y="8" width="1" height="1" fill="#0087c1"/>
<rect x="7" y="9" width="1" height="1" fill="#00a9ec"/>
<rect x="8" y="9" width="1" height="1" fill="#00a9ec"/>
<rect x="12" y="9" width="1" height="1" fill="#00a5e8"/>
<rect x="13" y="9" width="1" height="1" fill="#a1e4ff"/>
<rect x="14" y="9" width="1" height="1" fill="#00acfb"/>
<rect x="15" y="9" width="1" height="1" fill="#ffffff"/>
<rect x="16" y="9" width="1" height="1" fill="#cdf3ff"/>
<rect x="17" y="9" width="1" height="1" fill="#8fdbff"/>
<rect x="18" y="9" width="1" height="1" fill="#0094ce"/>
<rect x="19" y="9" width="1" height="1" fill="#00acfb"/>
<rect x="20" y="9" width="1" height="1" fill="#00acfb"/>
<rect x="21" y="9" width="1" height="1" fill="#00acfb"/>
<rect x="22" y="9" width="1" height="1" fill="#47beff"/>
<rect x="23" y="9" width="1" height="1" fill="#6dccff"/>
<rect x="24" y="9" width="1" height="1" fill="#008bc2"/>
<rect x="0" y="10" width="1" height="1" fill="#0094ce"/>
<rect x="1" y="10" width="1" height="1" fill="#0094ce"/>
<rect x="2" y="10" width="1" height="1" fill="#0094ce"/>
<rect x="3" y="10" width="1" height="1" fill="#0094ce"/>
<rect x="5" y="10" width="1" height="1" fill="#00a9ec"/>
<rect x="6" y="10" width="1" height="1" fill="#00a9ec"/>
<rect x="7" y="10" width="1" height="1" fill="#ffff08"/>
<rect x="8" y="10" width="1" height="1" fill="#ffff08"/>
<rect x="9" y="10" width="1" height="1" fill="#00a9ec"/>
<rect x="10" y="10" width="1" height="1" fill="#008dc5"/>
<rect x="11" y="10" width="1" height="1" fill="#00a5e8"/>
<rect x="12" y="10" width="1" height="1" fill="#a1e4ff"/>
<rect x="13" y="10" width="1" height="1" fill="#00acfb"/>
<rect x="14" y="10" width="1" height="1" fill="#ffffff"/>
<rect x="15" y="10" width="1" height="1" fill="#cdf3ff"/>
<rect x="16" y="10" width="1" height="1" fill="#8fdbff"/>
<rect x="17" y="10" width="1" height="1" fill="#60c8ff"/>
<rect x="18" y="10" width="1" height="1" fill="#00acfb"/>
<rect x="19" y="10" width="1" height="1" fill="#ffffff"/>
<rect x="20" y="10" width="1" height="1" fill="#8fdbff"/>
<rect x="21" y="10" width="1" height="1" fill="#00a5e8"/>
<rect x="22" y="10" width="1" height="1" fill="#47beff"/>
<rect x="23" y="10" width="1" height="1" fill="#6dccff"/>
<rect x="24" y="10" width="1" height="1" fill="#008bc2"/>
<rect x="0" y="11" width="1" height="1" fill="#0094ce"/>
<rect x="1" y="11" width="1" height="1" fill="#ffffff"/>
<rect x="2" y="11" width="1" height="1" fill="#ffffff"/>
<rect x="3" y="11" width="1" height="1" fill="#ffffff"/>
<rect x="4" y="11" width="1" height="1" fill="#00a9ec"/>
<rect x="5" y="11" width="1" height="1" fill="#ffff08"/>
<rect x="6" y="11" width="1" height="1" fill="#ffff08"/>
<rect x="7" y="11" width="1" height="1" fill="#00a9ec"/>
<rect x="8" y="11" width="1" height="1" fill="#ffff08"/>
<rect x="9" y="11" width="1" height="1" fill="#ffe008"/>
<rect x="10" y="11" width="1" height="1" fill="#00a9ec"/>
<rect x="11" y="11" width="1" height="1" fill="#a1e4ff"/>
<rect x="12" y="11" width="1" height="1" fill="#00acfb"/>
<rect x="13" y="11" width="1" height="1" fill="#ffffff"/>
<rect x="14" y="11" width="1" height="1" fill="#cdf3ff"/>
<rect x="15" y="11" width="1" height="1" fill="#8fdbff"/>
<rect x="16" y="11" width="1" height="1" fill="#60c8ff"/>
<rect x="17" y="11" width="1" height="1" fill="#00acfb"/>
<rect x="18" y="11" width="1" height="1" fill="#ffffff"/>
<rect x="19" y="11" width="1" height="1" fill="#cdf3ff"/>
<rect x="20" y="11" width="1" height="1" fill="#8fdbff"/>
<rect x="21" y="11" width="1" height="1" fill="#00a5e8"/>
<rect x="22" y="11" width="1" height="1" fill="#47beff"/>
<rect x="23" y="11" width="1" height="1" fill="#47beff"/>
<rect x="24" y="11" width="1" height="1" fill="#008bc2"/>
<rect x="0" y="12" width="1" height="1" fill="#0094ce"/>
<rect x="1" y="12" width="1" height="1" fill="#ffffff"/>
<rect x="2" y="12" width="1" height="1" fill="#ffffff"/>
<rect x="3" y="12" width="1" height="1" fill="#ffffff"/>
<rect x="4" y="12" width="1" height="1" fill="#e0ffff"/>
<rect x="5" y="12" width="1" height="1" fill="#00a9ec"/>
<rect x="6" y="12" width="1" height="1" fill="#ffff08"/>
<rect x="7" y="12" width="1" height="1" fill="#ffe008"/>
<rect x="8" y="12" width="1" height="1" fill="#00a9ec"/>
<rect x="9" y="12" width="1" height="1" fill="#ffe008"/>
<rect x="10" y="12" width="1" height="1" fill="#ffe008"/>
<rect x="11" y="12" width="1" height="1" fill="#00a9ec"/>
<rect x="12" y="12" width="1" height="1" fill="#0094ce"/>
<rect x="13" y="12" width="1" height="1" fill="#a1e4ff"/>
<rect x="14" y="12" width="1" height="1" fill="#0094ce"/>
<rect x="15" y="12" width="1" height="1" fill="#0094ce"/>
<rect x="16" y="12" width="1" height="1" fill="#00acfb"/>
<rect x="17" y="12" width="1" height="1" fill="#ffffff"/>
<rect x="18" y="12" width="1" height="1" fill="#cdf3ff"/>
<rect x="19" y="12" width="1" height="1" fill="#8fdbff"/>
<rect x="20" y="12" width="1" height="1" fill="#60c8ff"/>
<rect x="21" y="12" width="1" height="1" fill="#00a5e8"/>
<rect x="22" y="12" width="1" height="1" fill="#00a5e8"/>
<rect x="23" y="12" width="1" height="1" fill="#47beff"/>
<rect x="24" y="12" width="1" height="1" fill="#008bc2"/>
<rect x="0" y="13" width="1" height="1" fill="#0094ce"/>
<rect x="1" y="13" width="1" height="1" fill="#ffffff"/>
<rect x="2" y="13" width="1" height="1" fill="#ffffff"/>
<rect x="3" y="13" width="1" height="1" fill="#e0ffff"/>
<rect x="4" y="13" width="1" height="1" fill="#e0ffff"/>
<rect x="5" y="13" width="1" height="1" fill="#e0ffff"/>
<rect x="6" y="13" width="1" height="1" fill="#00a9ec"/>
<rect x="7" y="13" width="1" height="1" fill="#ffe008"/>
<rect x="8" y="13" width="1" height="1" fill="#ffe008"/>
<rect x="9" y="13" width="1" height="1" fill="#00a9ec"/>
<rect x="10" y="13" width="1" height="1" fill="#ffe008"/>
<rect x="11" y="13" width="1" height="1" fill="#ffd008"/>
<rect x="12" y="13" width="1" height="1" fill="#007fb4"/>
<rect x="13" y="13" width="1" height="1" fill="#0094ce"/>
<rect x="14" y="13" width="1" height="1" fill="#90daff"/>
<rect x="15" y="13" width="1" height="1" fill="#2ab3fd"/>
<rect x="16" y="13" width="1" height="1" fill="#0094ce"/>
<rect x="17" y="13" width="1" height="1" fill="#cdf3ff"/>
<rect x="18" y="13" width="1" height="1" fill="#8fdbff"/>
<rect x="19" y="13" width="1" height="1" fill="#60c8ff"/>
<rect x="20" y="13" width="1" height="1" fill="#00a5e8"/>
<rect x="21" y="13" width="1" height="1" fill="#cdf3ff"/>
<rect x="22" y="13" width="1" height="1" fill="#00a5e8"/>
<rect x="23" y="13" width="1" height="1" fill="#008ac6"/>
<rect x="0" y="14" width="1" height="1" fill="#0094ce"/>
<rect x="1" y="14" width="1" height="1" fill="#e0ffff"/>
<rect x="2" y="14" width="1" height="1" fill="#e0ffff"/>
<rect x="3" y="14" width="1" height="1" fill="#e0ffff"/>
<rect x="4" y="14" width="1" height="1" fill="#e0ffff"/>
<rect x="5" y="14" width="1" height="1" fill="#9fe1ff"/>
<rect x="6" y="14" width="1" height="1" fill="#9fe1ff"/>
<rect x="7" y="14" width="1" height="1" fill="#00a9ec"/>
<rect x="8" y="14" width="1" height="1" fill="#ffd008"/>
<rect x="9" y="14" width="1" height="1" fill="#ffd008"/>
<rect x="10" y="14" width="1" height="1" fill="#00a9ec"/>
<rect x="11" y="14" width="1" height="1" fill="#ffd008"/>
<rect x="12" y="14" width="1" height="1" fill="#0094ce"/>
<rect x="13" y="14" width="1" height="1" fill="#90daff"/>
<rect x="14" y="14" width="1" height="1" fill="#ffd107"/>
<rect x="15" y="14" width="1" height="1" fill="#ffd107"/>
<rect x="16" y="14" width="1" height="1" fill="#2ab3fd"/>
<rect x="17" y="14" width="1" height="1" fill="#0094ce"/>
<rect x="18" y="14" width="1" height="1" fill="#60c8ff"/>
<rect x="19" y="14" width="1" height="1" fill="#00a5e8"/>
<rect x="20" y="14" width="1" height="1" fill="#cdf3ff"/>
<rect x="21" y="14" width="1" height="1" fill="#8fdbff"/>
<rect x="22" y="14" width="1" height="1" fill="#00a5e8"/>
<rect x="23" y="14" width="1" height="1" fill="#008dc5"/>
<rect x="1" y="15" width="1" height="1" fill="#0094ce"/>
<rect x="2" y="15" width="1" height="1" fill="#9fe1ff"/>
<rect x="3" y="15" width="1" height="1" fill="#9fe1ff"/>
<rect x="4" y="15" width="1" height="1" fill="#9fe1ff"/>
<rect x="5" y="15" width="1" height="1" fill="#9fe1ff"/>
<rect x="6" y="15" width="1" height="1" fill="#5dc7ff"/>
<rect x="7" y="15" width="1" height="1" fill="#5dc7ff"/>
<rect x="8" y="15" width="1" height="1" fill="#00a9ec"/>
<rect x="9" y="15" width="1" height="1" fill="#ffaf00"/>
<rect x="10" y="15" width="1" height="1" fill="#ffaf00"/>
<rect x="11" y="15" width="1" height="1" fill="#0094ce"/>
<rect x="12" y="15" width="1" height="1" fill="#39baff"/>
<rect x="13" y="15" width="1" height="1" fill="#ffd107"/>
<rect x="14" y="15" width="1" height="1" fill="#0bacfc"/>
<rect x="15" y="15" width="1" height="1" fill="#0bacfc"/>
<rect x="16" y="15" width="1" height="1" fill="#ffd107"/>
<rect x="17" y="15" width="1" height="1" fill="#0bacfc"/>
<rect x="18" y="15" width="1" height="1" fill="#0094ce"/>
<rect x="19" y="15" width="1" height="1" fill="#cdf3ff"/>
<rect x="20" y="15" width="1" height="1" fill="#8fdbff"/>
<rect x="21" y="15" width="1" height="1" fill="#8fdbff"/>
<rect x="22" y="15" width="1" height="1" fill="#00a5e8"/>
<rect x="1" y="16" width="1" height="1" fill="#0094ce"/>
<rect x="2" y="16" width="1" height="1" fill="#5dc7ff"/>
<rect x="3" y="16" width="1" height="1" fill="#5dc7ff"/>
<rect x="4" y="16" width="1" height="1" fill="#5dc7ff"/>
<rect x="5" y="16" width="1" height="1" fill="#5dc7ff"/>
<rect x="6" y="16" width="1" height="1" fill="#5dc7ff"/>
<rect x="7" y="16" width="1" height="1" fill="#3abbff"/>
<rect x="8" y="16" width="1" height="1" fill="#3abbff"/>
<rect x="9" y="16" width="1" height="1" fill="#00a9ec"/>
<rect x="10" y="16" width="1" height="1" fill="#ffaf00"/>
<rect x="11" y="16" width="1" height="1" fill="#0094ce"/>
<rect x="12" y="16" width="1" height="1" fill="#39baff"/>
<rect x="13" y="16" width="1" height="1" fill="#ffd107"/>
<rect x="14" y="16" width="1" height="1" fill="#0bacfc"/>
<rect x="15" y="16" width="1" height="1" fill="#0bacfc"/>
<rect x="16" y="16" width="1" height="1" fill="#ffd107"/>
<rect x="17" y="16" width="1" height="1" fill="#0bacfc"/>
<rect x="18" y="16" width="1" height="1" fill="#0094ce"/>
<rect x="19" y="16" width="1" height="1" fill="#8fdbff"/>
<rect x="20" y="16" width="1" height="1" fill="#8fdbff"/>
<rect x="21" y="16" width="1" height="1" fill="#00a5e8"/>
<rect x="22" y="16" width="1" height="1" fill="#47beff"/>
<rect x="23" y="16" width="1" height="1" fill="#008ac6"/>
<rect x="0" y="17" width="1" height="1" fill="#0094ce"/>
<rect x="1" y="17" width="1" height="1" fill="#0094ce"/>
<rect x="2" y="17" width="1" height="1" fill="#0094ce"/>
<rect x="3" y="17" width="1" height="1" fill="#0094ce"/>
<rect x="4" y="17" width="1" height="1" fill="#0094ce"/>
<rect x="5" y="17" width="1" height="1" fill="#0094ce"/>
<rect x="6" y="17" width="1" height="1" fill="#0094ce"/>
<rect x="7" y="17" width="1" height="1" fill="#0094ce"/>
<rect x="8" y="17" width="1" height="1" fill="#0094ce"/>
<rect x="9" y="17" width="1" height="1" fill="#0094ce"/>
<rect x="10" y="17" width="1" height="1" fill="#0094ce"/>
<rect x="11" y="17" width="1" height="1" fill="#0094ce"/>
<rect x="12" y="17" width="1" height="1" fill="#0094ce"/>
<rect x="13" y="17" width="1" height="1" fill="#0bacfc"/>
<rect x="14" y="17" width="1" height="1" fill="#ffd107"/>
<rect x="15" y="17" width="1" height="1" fill="#ffd107"/>
<rect x="16" y="17" width="1" height="1" fill="#0bacfc"/>
<rect x="17" y="17" width="1" height="1" fill="#0094ce"/>
<rect x="18" y="17" width="1" height="1" fill="#007fb4"/>
<rect x="19" y="17" width="1" height="1" fill="#00a5e8"/>
<rect x="20" y="17" width="1" height="1" fill="#00a5e8"/>
<rect x="21" y="17" width="1" height="1" fill="#47beff"/>
<rect x="22" y="17" width="1" height="1" fill="#6dccff"/>
<rect x="23" y="17" width="1" height="1" fill="#008ac6"/>
<rect x="0" y="18" width="1" height="1" fill="#0094ce"/>
<rect x="1" y="18" width="1" height="1" fill="#44bbff"/>
<rect x="2" y="18" width="1" height="1" fill="#44bbff"/>
<rect x="3" y="18" width="1" height="1" fill="#44bbff"/>
<rect x="4" y="18" width="1" height="1" fill="#44bbff"/>
<rect x="5" y="18" width="1" height="1" fill="#44bbff"/>
<rect x="6" y="18" width="1" height="1" fill="#44bbff"/>
<rect x="7" y="18" width="1" height="1" fill="#44bbff"/>
<rect x="8" y="18" width="1" height="1" fill="#3ebaff"/>
<rect x="9" y="18" width="1" height="1" fill="#30b5ff"/>
<rect x="10" y="18" width="1" height="1" fill="#30b5ff"/>
<rect x="11" y="18" width="1" height="1" fill="#28b2fd"/>
<rect x="12" y="18" width="1" height="1" fill="#16affd"/>
<rect x="13" y="18" width="1" height="1" fill="#0094ce"/>
<rect x="14" y="18" width="1" height="1" fill="#0bacfc"/>
<rect x="15" y="18" width="1" height="1" fill="#0bacfc"/>
<rect x="16" y="18" width="1" height="1" fill="#0094ce"/>
<rect x="17" y="18" width="1" height="1" fill="#03abfc"/>
<rect x="18" y="18" width="1" height="1" fill="#008ac6"/>
<rect x="19" y="18" width="1" height="1" fill="#008ac6"/>
<rect x="20" y="18" width="1" height="1" fill="#008ac6"/>
<rect x="21" y="18" width="1" height="1" fill="#008ac6"/>
<rect x="22" y="18" width="1" height="1" fill="#008ac6"/>
<rect x="23" y="18" width="1" height="1" fill="#008ac6"/>
<rect x="0" y="19" width="1" height="1" fill="#0094ce"/>
<rect x="1" y="19" width="1" height="1" fill="#0094ce"/>
<rect x="2" y="19" width="1" height="1" fill="#0094ce"/>
<rect x="3" y="19" width="1" height="1" fill="#0094ce"/>
<rect x="4" y="19" width="1" height="1" fill="#0094ce"/>
<rect x="5" y="19" width="1" height="1" fill="#0094ce"/>
<rect x="6" y="19" width="1" height="1" fill="#0094ce"/>
<rect x="7" y="19" width="1" height="1" fill="#0094ce"/>
<rect x="8" y="19" width="1" height="1" fill="#0094ce"/>
<rect x="9" y="19" width="1" height="1" fill="#0094ce"/>
<rect x="10" y="19" width="1" height="1" fill="#0094ce"/>
<rect x="11" y="19" width="1" height="1" fill="#0094ce"/>
<rect x="12" y="19" width="1" height="1" fill="#0094ce"/>
<rect x="14" y="19" width="1" height="1" fill="#0094ce"/>
<rect x="15" y="19" width="1" height="1" fill="#0094ce"/>
<rect x="17" y="19" width="1" height="1" fill="#00a1e2"/>
<rect x="18" y="19" width="1" height="1" fill="#00a1e2"/>
<rect x="19" y="19" width="1" height="1" fill="#00a1e2"/>
<rect x="20" y="19" width="1" height="1" fill="#00a1e2"/>
<rect x="21" y="19" width="1" height="1" fill="#00a1e2"/>
<rect x="22" y="19" width="1" height="1" fill="#00a1e2"/>
<rect x="23" y="19" width="1" height="1" fill="#00a1e2"/>
</svg>