<?xml version="1.0" encoding="UTF-8" standalone="no"?>
<svg xmlns="http://www.w3.org/2000/svg" width="26" height="21" shape-rendering="crispEdges">
<rect x="3" y="0" width="1" height="1" fill="#fc03f0"/>
<rect x="4" y="0" width="1" height="1" fill="#fc03f0"/>
<rect x="5" y="0" width="1" height="1" fill="#fc03f0"/>
<rect x="12" y="0" width="1" height="1" fill="#df00dc"/>
<rect x="13" y="0" width="1" height="1" fill="#e400e1"/>
<rect x="14" y="0" width="1" height="1" fill="#e500dc"/>
<rect x="15" y="0" width="1" height="1" fill="#e100e5"/>
<rect x="16" y="0" width="1" height="1" fill="#e500e1"/>
<rect x="17" y="0" width="1" height="1" fill="#e500dc"/>
<rect x="18" y="0" width="1" height="1" fill="#e400e0"/>
<rect x="19" y="0" width="1" height="1" fill="#d500d3"/>
<rect x="22" y="0" width="1" height="1" fill="#ca00cc"/>
<rect x="23" y="0" width="1" height="1" fill="#cb00c8"/>
<rect x="24" y="0" width="1" height="1" fill="#c500c4"/>
<rect x="2" y="1" width="1" height="1" fill="#fc03f0"/>
<rect x="6" y="1" width="1" height="1" fill="#fc03f0"/>
<rect x="10" y="1" width="1" height="1" fill="#c700c5"/>
<rect x="11" y="1" width="1" height="1" fill="#d500d3"/>
<rect x="12" y="1" width="1" height="1" fill="#fed1ff"/>
<rect x="13" y="1" width="1" height="1" fill="#ffdefe"/>
<rect x="14" y="1" width="1" height="1" fill="#f9ddff"/>
<rect x="15" y="1" width="1" height="1" fill="#fcdeff"/>
<rect x="16" y="1" width="1" height="1" fill="#f8deff"/>
<rect x="17" y="1" width="1" height="1" fill="#fedeff"/>
<rect x="18" y="1" width="1" height="1" fill="#fbbcff"/>
<rect x="19" y="1" width="1" height="1" fill="#fbacff"/>
<rect x="20" y="1" width="1" height="1" fill="#ce00cd"/>
<rect x="21" y="1" width="1" height="1" fill="#cc00c3"/>
<rect x="22" y="1" width="1" height="1" fill="#ffdafd"/>
<rect x="23" y="1" width="1" height="1" fill="#f9afff"/>
<rect x="24" y="1" width="1" height="1" fill="#c100bc"/>
<rect x="1" y="2" width="1" height="1" fill="#fc03f0"/>
<rect x="3" y="2" width="1" height="1" fill="#fc03f0"/>
<rect x="4" y="2" width="1" height="1" fill="#fc03f0"/>
<rect x="9" y="2" width="1" height="1" fill="#cc00ca"/>
<rect x="10" y="2" width="1" height="1" fill="#fed1ff"/>
<rect x="11" y="2" width="1" height="1" fill="#fee8ff"/>
<rect x="12" y="2" width="1" height="1" fill="#fcf6ff"/>
<rect x="13" y="2" width="1" height="1" fill="#f7e0ff"/>
<rect x="14" y="2" width="1" height="1" fill="#fbdaff"/>
<rect x="15" y="2" width="1" height="1" fill="#fcd8ff"/>
<rect x="16" y="2" width="1" height="1" fill="#fbddff"/>
<rect x="17" y="2" width="1" height="1" fill="#f8ddff"/>
<rect x="18" y="2" width="1" height="1" fill="#fadfff"/>
<rect x="19" y="2" width="1" height="1" fill="#fbd4ff"/>
<rect x="20" y="2" width="1" height="1" fill="#fac7ff"/>
<rect x="21" y="2" width="1" height="1" fill="#fae9ff"/>
<rect x="22" y="2" width="1" height="1" fill="#fdf8ff"/>
<rect x="23" y="2" width="1" height="1" fill="#f9c0ff"/>
<rect x="24" y="2" width="1" height="1" fill="#c200c1"/>
<rect x="1" y="3" width="1" height="1" fill="#fc03f0"/>
<rect x="3" y="3" width="1" height="1" fill="#fc03f0"/>
<rect x="4" y="3" width="1" height="1" fill="#fc03f0"/>
<rect x="5" y="3" width="1" height="1" fill="#fc03f0"/>
<rect x="8" y="3" width="1" height="1" fill="#df00dd"/>
<rect x="9" y="3" width="1" height="1" fill="#ffcefe"/>
<rect x="10" y="3" width="1" height="1" fill="#fdf8ff"/>
<rect x="11" y="3" width="1" height="1" fill="#f5ddff"/>
<rect x="12" y="3" width="1" height="1" fill="#f7d6ff"/>
<rect x="13" y="3" width="1" height="1" fill="#f9d0ff"/>
<rect x="14" y="3" width="1" height="1" fill="#ff75f6"/>
<rect x="15" y="3" width="1" height="1" fill="#ff78f3"/>
<rect x="16" y="3" width="1" height="1" fill="#ffaafc"/>
<rect x="17" y="3" width="1" height="1" fill="#fcacff"/>
<rect x="18" y="3" width="1" height="1" fill="#f8ddff"/>
<rect x="19" y="3" width="1" height="1" fill="#f6deff"/>
<rect x="20" y="3" width="1" height="1" fill="#fadfff"/>
<rect x="21" y="3" width="1" height="1" fill="#fbe1ff"/>
<rect x="22" y="3" width="1" height="1" fill="#f9d2ff"/>
<rect x="23" y="3" width="1" height="1" fill="#ff83fd"/>
<rect x="24" y="3" width="1" height="1" fill="#c100bc"/>
<rect x="1" y="4" width="1" height="1" fill="#fc03f0"/>
<rect x="2" y="4" width="1" height="1" fill="#fc03f0"/>
<rect x="3" y="4" width="1" height="1" fill="#fc03f0"/>
<rect x="5" y="4" width="1" height="1" fill="#fc03f0"/>
<rect x="8" y="4" width="1" height="1" fill="#e500dc"/>
<rect x="9" y="4" width="1" height="1" fill="#fbdcff"/>
<rect x="10" y="4" width="1" height="1" fill="#fbdaff"/>
<rect x="11" y="4" width="1" height="1" fill="#ffa1fe"/>
<rect x="12" y="4" width="1" height="1" fill="#ff6ef4"/>
<rect x="13" y="4" width="1" height="1" fill="#ff74f5"/>
<rect x="14" y="4" width="1" height="1" fill="#faecff"/>
<rect x="15" y="4" width="1" height="1" fill="#fdf8ff"/>
<rect x="16" y="4" width="1" height="1" fill="#fefaff"/>
<rect x="17" y="4" width="1" height="1" fill="#fdf9ff"/>
<rect x="18" y="4" width="1" height="1" fill="#fdb2ff"/>
<rect x="19" y="4" width="1" height="1" fill="#f6deff"/>
<rect x="20" y="4" width="1" height="1" fill="#f6dfff"/>
<rect x="21" y="4" width="1" height="1" fill="#f5ddff"/>
<rect x="22" y="4" width="1" height="1" fill="#f9c2ff"/>
<rect x="23" y="4" width="1" height="1" fill="#ce00cd"/>
<rect x="2" y="5" width="1" height="1" fill="#fc03f0"/>
<rect x="3" y="5" width="1" height="1" fill="#fc03f0"/>
<rect x="5" y="5" width="1" height="1" fill="#fc03f0"/>
<rect x="8" y="5" width="1" height="1" fill="#e800e5"/>
<rect x="9" y="5" width="1" height="1" fill="#ffadfc"/>
<rect x="10" y="5" width="1" height="1" fill="#ff8dfe"/>
<rect x="11" y="5" width="1" height="1" fill="#ff4ef3"/>
<rect x="12" y="5" width="1" height="1" fill="#ff82f8"/>
<rect x="13" y="5" width="1" height="1" fill="#fabaff"/>
<rect x="14" y="5" width="1" height="1" fill="#f9d1ff"/>
<rect x="15" y="5" width="1" height="1" fill="#fefaff"/>
<rect x="16" y="5" width="1" height="1" fill="#ffffff"/>
<rect x="17" y="5" width="1" height="1" fill="#ffffff"/>
<rect x="18" y="5" width="1" height="1" fill="#ffffff"/>
<rect x="19" y="5" width="1" height="1" fill="#fbe1ff"/>
<rect x="20" y="5" width="1" height="1" fill="#f6deff"/>
<rect x="21" y="5" width="1" height="1" fill="#f6cdff"/>
<rect x="22" y="5" width="1" height="1" fill="#ff7efb"/>
<rect x="23" y="5" width="1" height="1" fill="#c600c1"/>
<rect x="0" y="6" width="1" height="1" fill="#fc03f0"/>
<rect x="4" y="6" width="1" height="1" fill="#fc03f0"/>
<rect x="8" y="6" width="1" height="1" fill="#d500d2"/>
<rect x="9" y="6" width="1" height="1" fill="#ff66fb"/>
<rect x="10" y="6" width="1" height="1" fill="#e800e5"/>
<rect x="11" y="6" width="1" height="1" fill="#e800e5"/>
<rect x="12" y="6" width="1" height="1" fill="#e800e5"/>
<rect x="13" y="6" width="1" height="1" fill="#fc12f1"/>
<rect x="14" y="6" width="1" height="1" fill="#ff53f2"/>
<rect x="15" y="6" width="1" height="1" fill="#ff6df9"/>
<rect x="16" y="6" width="1" height="1" fill="#ffa8fb"/>
<rect x="17" y="6" width="1" height="1" fill="#ffffff"/>
<rect x="18" y="6" width="1" height="1" fill="#ffffff"/>
<rect x="19" y="6" width="1" height="1" fill="#f8e1ff"/>
<rect x="20" y="6" width="1" height="1" fill="#f6ddff"/>
<rect x="21" y="6" width="1" height="1" fill="#ff7efb"/>
<rect x="22" y="6" width="1" height="1" fill="#cc00ca"/>
<rect x="1" y="7" width="1" height="1" fill="#fc03f0"/>
<rect x="2" y="7" width="1" height="1" fill="#fc03f0"/>
<rect x="3" y="7" width="1" height="1" fill="#fc03f0"/>
<rect x="8" y="7" width="1" height="1" fill="#cb00c8"/>
<rect x="9" y="7" width="1" height="1" fill="#e800e5"/>
<rect x="13" y="7" width="1" height="1" fill="#e800e5"/>
<rect x="14" y="7" width="1" height="1" fill="#ffa1fe"/>
<rect x="15" y="7" width="1" height="1" fill="#ff86fd"/>
<rect x="16" y="7" width="1" height="1" fill="#ff6df9"/>
<rect x="17" y="7" width="1" height="1" fill="#ffa8fb"/>
<rect x="18" y="7" width="1" height="1" fill="#fce2ff"/>
<rect x="19" y="7" width="1" height="1" fill="#f5ddff"/>
<rect x="20" y="7" width="1" height="1" fill="#fcacff"/>
<rect x="21" y="7" width="1" height="1" fill="#ff74f7"/>
<rect x="22" y="7" width="1" height="1" fill="#c700c9"/>
<rect x="24" y="7" width="1" height="1" fill="#bc00bb"/>
<rect x="13" y="8" width="1" height="1" fill="#e800e5"/>
<rect x="14" y="8" width="1" height="1" fill="#ffa1fe"/>
<rect x="15" y="8" width="1" height="1" fill="#fb00f2"/>
<rect x="16" y="8" width="1" height="1" fill="#fb00f2"/>
<rect x="17" y="8" width="1" height="1" fill="#fb00f2"/>
<rect x="18" y="8" width="1" height="1" fill="#e800e5"/>
<rect x="19" y="8" width="1" height="1" fill="#ff93fc"/>
<rect x="20" y="8" width="1" height="1" fill="#ff91ff"/>
<rect x="21" y="8" width="1" height="1" fill="#ff5df4"/>
<rect x="22" y="8" width="1" height="1" fill="#cc00ca"/>
<rect x="23" y="8" width="1" height="1" fill="#c500c4"/>
<rect x="24" y="8" width="1" height="1" fill="#c100bc"/>
<rect x="7" y="9" width="1" height="1" fill="#ec00eb"/>
<rect x="8" y="9" width="1" height="1" fill="#ec00eb"/>
<rect x="12" y="9" width="1" height="1" fill="#e800e5"/>
<rect x="13" y="9" width="1" height="1" fill="#ffa1fe"/>
<rect x="14" y="9" width="1" height="1" fill="#fb00f2"/>
<rect x="15" y="9" width="1" height="1" fill="#ffffff"/>
<rect x="16" y="9" width="1" height="1" fill="#fdcdff"/>
<rect x="17" y="9" width="1" height="1" fill="#ff8ffa"/>
<rect x="18" y="9" width="1" height="1" fill="#ce00cd"/>
<rect x="19" y="9" width="1" height="1" fill="#fb00f2"/>
<rect x="20" y="9" width="1" height="1" fill="#fb00f2"/>
<rect x="21" y="9" width="1" height="1" fill="#fb00f2"/>
<rect x="22" y="9" width="1" height="1" fill="#ff47f1"/>
<rect x="23" y="9" width="1" height="1" fill="#ff6df5"/>
<rect x="24" y="9" width="1" height="1" fill="#c200c1"/>
<rect x="0" y="10" width="1" height="1" fill="#ce00cd"/>
<rect x="1" y="10" width="1" height="1" fill="#ce00cd"/>
<rect x="2" y="10" width="1" height="1" fill="#ce00cd"/>
<rect x="3" y="10" width="1" height="1" fill="#ce00cd"/>
<rect x="5" y="10" width="1" height="1" fill="#ec00eb"/>
<rect x="6" y="10" width="1" height="1" fill="#ec00eb"/>
<rect x="7" y="10" width="1" height="1" fill="#ffff08"/>
<rect x="8" y="10" width="1" height="1" fill="#ffff08"/>
<rect x="9" y="10" width="1" height="1" fill="#ec00eb"/>
<rect x="10" y="10" width="1" height="1" fill="#c500c4"/>
<rect x="11" y="10" width="1" height="1" fill="#e800e5"/>
<rect x="12" y="10" width="1" height="1" fill="#ffa1fe"/>
<rect x="13" y="10" width="1" height="1" fill="#fb00f2"/>
<rect x="14" y="10" width="1" height="1" fill="#ffffff"/>
<rect x="15" y="10" width="1" height="1" fill="#fdcdff"/>
<rect x="16" y="10" width="1" height="1" fill="#ff8ffa"/>
<rect x="17" y="10" width="1" height="1" fill="#ff60f4"/>
<rect x="18" y="10" width="1" height="1" fill="#fb00f2"/>
<rect x="19" y="10" width="1" height="1" fill="#ffffff"/>
<rect x="20" y="10" width="1" height="1" fill="#ff8ffa"/>
<rect x="21" y="10" width="1" height="1" fill="#e800e5"/>
<rect x="22" y="10" width="1" height="1" fill="#ff47f1"/>
<rect x="23" y="10" width="1" height="1" fill="#ff6df5"/>
<rect x="24" y="10" width="1" height="1" fill="#c200c1"/>
<rect x="0" y="11" width="1" height="1" fill="#ce00cd"/>
<rect x="1" y="11" width="1" height="1" fill="#ffffff"/>
<rect x="2" y="11" width="1" height="1" fill="#ffffff"/>
<rect x="3" y="11" width="1" height="1" fill="#ffffff"/>
<rect x="4" y="11" width="1" height="1" fill="#ec00eb"/>
<rect x="5" y="11" width="1" height="1" fill="#ffff08"/>
<rect x="6" y="11" width="1" height="1" fill="#ffff08"/>
<rect x="7" y="11" width="1" height="1" fill="#ec00eb"/>
<rect x="8" y="11" width="1" height="1" fill="#ffff08"/>
<rect x="9" y="11" width="1" height="1" fill="#ffe008"/>
<rect x="10" y="11" width="1" height="1" fill="#ec00eb"/>
<rect x="11" y="11" width="1" height="1" fill="#ffa1fe"/>
<rect x="12" y="11" width="1" height="1" fill="#fb00f2"/>
<rect x="13" y="11" width="1" height="1" fill="#ffffff"/>
<rect x="14" y="11" width="1" height="1" fill="#fdcdff"/>
<rect x="15" y="11" width="1" height="1" fill="#ff8ffa"/>
<rect x="16" y="11" width="1" height="1" fill="#ff60f4"/>
<rect x="17" y="11" width="1" height="1" fill="#fb00f2"/>
<rect x="18" y="11" width="1" height="1" fill="#ffffff"/>
<rect x="19" y="11" width="1" height="1" fill="#fdcdff"/>
<rect x="20" y="11" width="1" height="1" fill="#ff8ffa"/>
<rect x="21" y="11" width="1" height="1" fill="#e800e5"/>
<rect x="22" y="11" width="1" height="1" fill="#ff47f1"/>
<rect x="23" y="11" width="1" height="1" fill="#ff47f1"/>
<rect x="24" y="11" width="1" height="1" fill="#c200c1"/>
<rect x="0" y="12" width="1" height="1" fill="#ce00cd"/>
<rect x="1" y="12" width="1" height="1" fill="#ffffff"/>
<rect x="2" y="12" width="1" height="1" fill="#ffffff"/>
<rect x="3" y="12" width="1" height="1" fill="#ffffff"/>
<rect x="4" y="12" width="1" height="1" fill="#f6e0ff"/>
<rect x="5" y="12" width="1" height="1" fill="#ec00eb"/>
<rect x="6" y="12" width="1" height="1" fill="#ffff08"/>
<rect x="7" y="12" width="1" height="1" fill="#ffe008"/>
<rect x="8" y="12" width="1" height="1" fill="#ec00eb"/>
<rect x="9" y="12" width="1" height="1" fill="#ffe008"/>
<rect x="10" y="12" width="1" height="1" fill="#ffe008"/>
<rect x="11" y="12" width="1" height="1" fill="#ec00eb"/>
<rect x="12" y="12" width="1" height="1" fill="#ce00cd"/>
<rect x="13" y="12" width="1" height="1" fill="#ffa1fe"/>
<rect x="14" y="12" width="1" height="1" fill="#ce00cd"/>
<rect x="15" y="12" width="1" height="1" fill="#ce00cd"/>
<rect x="16" y="12" width="1" height="1" fill="#fb00f2"/>
<rect x="17" y="12" width="1" height="1" fill="#ffffff"/>
<rect x="18" y="12" width="1" height="1" fill="#fdcdff"/>
<rect x="19" y="12" width="1" height="1" fill="#ff8ffa"/>
<rect x="20" y="12" width="1" height="1" fill="#ff60f4"/>
<rect x="21" y="12" width="1" height="1" fill="#e800e5"/>
<rect x="22" y="12" width="1" height="1" fill="#e800e5"/>
<rect x="23" y="12" width="1" height="1" fill="#ff47f1"/>
<rect x="24" y="12" width="1" height="1" fill="#c200c1"/>
<rect x="0" y="13" width="1" height="1" fill="#ce00cd"/>
<rect x="1" y="13" width="1" height="1" fill="#ffffff"/>
<rect x="2" y="13" width="1" height="1" fill="#ffffff"/>
<rect x="3" y="13" width="1" height="1" fill="#f6e0ff"/>
<rect x="4" y="13" width="1" height="1" fill="#f6e0ff"/>
<rect x="5" y="13" width="1" height="1" fill="#f6e0ff"/>
<rect x="6" y="13" width="1" height="1" fill="#ec00eb"/>
<rect x="7" y="13" width="1" height="1" fill="#ffe008"/>
<rect x="8" y="13" width="1" height="1" fill="#ffe008"/>
<rect x="9" y="13" width="1" height="1" fill="#ec00eb"/>
<rect x="10" y="13" width="1" height="1" fill="#ffe008"/>
<rect x="11" y="13" width="1" height="1" fill="#ffd008"/>
<rect x="12" y="13" width="1" height="1" fill="#b400b1"/>
<rect x="13" y="13" width="1" height="1" fill="#ce00cd"/>
<rect x="14" y="13" width="1" height="1" fill="#ff90f9"/>
<rect x="15" y="13" width="1" height="1" fill="#fd2aee"/>
<rect x="16" y="13" width="1" height="1" fill="#ce00cd"/>
<rect x="17" y="13" width="1" height="1" fill="#fdcdff"/>
<rect x="18" y="13" width="1" height="1" fill="#ff8ffa"/>
<rect x="19" y="13" width="1" height="1" fill="#ff60f4"/>
<rect x="20" y="13" width="1" height="1" fill="#e800e5"/>
<rect x="21" y="13" width="1" height="1" fill="#fdcdff"/>
<rect x="22" y="13" width="1" height="1" fill="#e800e5"/>
<rect x="23" y="13" width="1" height="1" fill="#c600c1"/>
<rect x="0" y="14" width="1" height="1" fill="#ce00cd"/>
<rect x="1" y="14" width="1" height="1" fill="#f6e0ff"/>
<rect x="2" y="14" width="1" height="1" fill="#f6e0ff"/>
<rect x="3" y="14" width="1" height="1" fill="#f6e0ff"/>
<rect x="4" y="14" width="1" height="1" fill="#f6e0ff"/>
<rect x="5" y="14" width="1" height="1" fill="#ff9ffc"/>
<rect x="6" y="14" width="1" height="1" fill="#ff9ffc"/>
<rect x="7" y="14" width="1" height="1" fill="#ec00eb"/>
<rect x="8" y="14" width="1" height="1" fill="#ffd008"/>
<rect x="9" y="14" width="1" height="1" fill="#ffd008"/>
<rect x="10" y="14" width="1" height="1" fill="#ec00eb"/>
<rect x="11" y="14" width="1" height="1" fill="#ffd008"/>
<rect x="12" y="14" width="1" height="1" fill="#ce00cd"/>
<rect x="13" y="14" width="1" height="1" fill="#ff90f9"/>
<rect x="14" y="14" width="1" height="1" fill="#ffd107"/>
<rect x="15" y="14" width="1" height="1" fill="#ffd107"/>
<rect x="16" y="14" width="1" height="1" fill="#fd2aee"/>
<rect x="17" y="14" width="1" height="1" fill="#ce00cd"/>
<rect x="18" y="14" width="1" height="1" fill="#ff60f4"/>
<rect x="19" y="14" width="1" height="1" fill="#e800e5"/>
<rect x="20" y="14" width="1" height="1" fill="#fdcdff"/>
<rect x="21" y="14" width="1" height="1" fill="#ff8ffa"/>
<rect x="22" y="14" width="1" height="1" fill="#e800e5"/>
<rect x="23" y="14" width="1" height="1" fill="#c500c4"/>
<rect x="1" y="15" width="1" height="1" fill="#ce00cd"/>
<rect x="2" y="15" width="1" height="1" fill="#ff9ffc"/>
<rect x="3" y="15" width="1" height="1" fill="#ff9ffc"/>
<rect x="4" y="15" width="1" height="1" fill="#ff9ffc"/>
<rect x="5" y="15" width="1" height="1" fill="#ff9ffc"/>
<rect x="6" y="15" width="1" height="1" fill="#ff5df4"/>
<rect x="7" y="15" width="1" height="1" fill="#ff5df4"/>
<rect x="8" y="15" width="1" height="1" fill="#ec00eb"/>
<rect x="9" y="15" width="1" height="1" fill="#ffaf00"/>
<rect x="10" y="15" width="1" height="1" fill="#ffaf00"/>
<rect x="11" y="15" width="1" height="1" fill="#ce00cd"/>
<rect x="12" y="15" width="1" height="1" fill="#ff39f1"/>
<rect x="13" y="15" width="1" height="1" fill="#ffd107"/>
<rect x="14" y="15" width="1" height="1" fill="#fc0bef"/>
<rect x="15" y="15" width="1" height="1" fill="#fc0bef"/>
<rect x="16" y="15" width="1" height="1" fill="#ffd107"/>
<rect x="17" y="15" width="1" height="1" fill="#fc0bef"/>
<rect x="18" y="15" width="1" height="1" fill="#ce00cd"/>
<rect x="19" y="15" width="1" height="1" fill="#fdcdff"/>
<rect x="20" y="15" width="1" height="1" fill="#ff8ffa"/>
<rect x="21" y="15" width="1" height="1" fill="#ff8ffa"/>
<rect x="22" y="15" width="1" height="1" fill="#e800e5"/>
<rect x="1" y="16" width="1" height="1" fill="#ce00cd"/>
<rect x="2" y="16" width="1" height="1" fill="#ff5df4"/>
<rect x="3" y="16" width="1" height="1" fill="#ff5df4"/>
<rect x="4" y="16" width="1" height="1" fill="#ff5df4"/>
<rect x="5" y="16" width="1" height="1" fill="#ff5df4"/>
<rect x="6" y="16" width="1" height="1" fill="#ff5df4"/>
<rect x="7" y="16" width="1" height="1" fill="#ff3af2"/>
<rect x="8" y="16" width="1" height="1" fill="#ff3af2"/>
<rect x="9" y="16" width="1" height="1" fill="#ec00eb"/>
<rect x="10" y="16" width="1" height="1" fill="#ffaf00"/>
<rect x="11" y="16" width="1" height="1" fill="#ce00cd"/>
<rect x="12" y="16" width="1" height="1" fill="#ff39f1"/>
<rect x="13" y="16" width="1" height="1" fill="#ffd107"/>
<rect x="14" y="16" width="1" height="1" fill="#fc0bef"/>
<rect x="15" y="16" width="1" height="1" fill="#fc0bef"/>
<rect x="16" y="16" width="1" height="1" fill="#ffd107"/>
<rect x="17" y="16" width="1" height="1" fill="#fc0bef"/>
<rect x="18" y="16" width="1" height="1" fill="#ce00cd"/>
<rect x="19" y="16" width="1" height="1" fill="#ff8ffa"/>
<rect x="20" y="16" width="1" height="1" fill="#ff8ffa"/>
<rect x="21" y="16" width="1" height="1" fill="#e800e5"/>
<rect x="22" y="16" width="1" height="1" fill="#ff47f1"/>
<rect x="23" y="16" width="1" height="1" fill="#c600c1"/>
<rect x="0" y="17" width="1" height="1" fill="#ce00cd"/>
<rect x="1" y="17" width="1" height="1" fill="#ce00cd"/>
<rect x="2" y="17" width="1" height="1" fill="#ce00cd"/>
<rect x="3" y="17" width="1" height="1" fill="#ce00cd"/>
<rect x="4" y="17" width="1" height="1" fill="#ce00cd"/>
<rect x="5" y="17" width="1" height="1" fill="#ce00cd"/>
<rect x="6" y="17" width="1" height="1" fill="#ce00cd"/>
<rect x="7" y="17" width="1" height="1" fill="#ce00cd"/>
<rect x="8" y="17" width="1" height="1" fill="#ce00cd"/>
<rect x="9" y="17" width="1" height="1" fill="#ce00cd"/>
<rect x="10" y="17" width="1" height="1" fill="#ce00cd"/>
<rect x="11" y="17" width="1" height="1" fill="#ce00cd"/>
<rect x="12" y="17" width="1" height="1" fill="#ce00cd"/>
<rect x="13" y="17" width="1" height="1" fill="#fc0bef"/>
<rect x="14" y="17" width="1" height="1" fill="#ffd107"/>
<rect x="15" y="17" width="1" height="1" fill="#ffd107"/>
<rect x="16" y="17" width="1" height="1" fill="#fc0bef"/>
<rect x="17" y="17" width="1" height="1" fill="#ce00cd"/>
<rect x="18" y="17" width="1" height="1" fill="#b400b1"/>
<rect x="19" y="17" width="1" height="1" fill="#e800e5"/>
<rect x="20" y="17" width="1" height="1" fill="#e800e5"/>
<rect x="21" y="17" width="1" height="1" fill="#ff47f1"/>
<rect x="22" y="17" width="1" height="1" fill="#ff6df5"/>
<rect x="23" y="17" width="1" height="1" fill="#c600c1"/>
<rect x="0" y="18" width="1" height="1" fill="#ce00cd"/>
<rect x="1" y="18" width="1" height="1" fill="#ff44ef"/>
<rect x="2" y="18" width="1" height="1" fill="#ff44ef"/>
<rect x="3" y="18" width="1" height="1" fill="#ff44ef"/>
<rect x="4" y="18" width="1" height="1" fill="#ff44ef"/>
<rect x="5" y="18" width="1" height="1" fill="#ff44ef"/>
<rect x="6" y="18" width="1" height="1" fill="#ff44ef"/>
<rect x="7" y="18" width="1" height="1" fill="#ff44ef"/>
<rect x="8" y="18" width="1" height="1" fill="#ff3ef0"/>
<rect x="9" y="18" width="1" height="1" fill="#ff30ef"/>
<rect x="10" y="18" width="1" height="1" fill="#ff30ef"/>
<rect x="11" y="18" width="1" height="1" fill="#fd28ed"/>
<rect x="12" y="18" width="1" height="1" fill="#fd16ef"/>
<rect x="13" y="18" width="1" height="1" fill="#ce00cd"/>
<rect x="14" y="18" width="1" height="1" fill="#fc0bef"/>
<rect x="15" y="18" width="1" height="1" fill="#fc0bef"/>
<rect x="16" y="18" width="1" height="1" fill="#ce00cd"/>
<rect x="17" y="18" width="1" height="1" fill="#fc03f0"/>
<rect x="18" y="18" width="1" height="1" fill="#c600c1"/>
<rect x="19" y="18" width="1" height="1" fill="#c600c1"/>
<rect x="20" y="18" width="1" height="1" fill="#c600c1"/>
<rect x="21" y="18" width="1" height="1" fill="#c600c1"/>
<rect x="22" y="18" width="1" height="1" fill="#c600c1"/>
<rect x="23" y="18" width="1" height="1" fill="#c600c1"/>
<rect x="0" y="19" width="1" height="1" fill="#ce00cd"/>
<rect x="1" y="19" width="1" height="1" fill="#ce00cd"/>
<rect x="2" y="19" width="1" height="1" fill="#ce00cd"/>
<rect x="3" y="19" width="1" height="1" fill="#ce00cd"/>
<rect x="4" y="19" width="1" height="1" fill="#ce00cd"/>
<rect x="5" y="19" width="1" height="1" fill="#ce00cd"/>
<rect x="6" y="19" width="1" height="1" fill="#ce00cd"/>
<rect x="7" y="19" width="1" height="1" fill="#ce00cd"/>
<rect x="8" y="19" width="1" height="1" fill="#ce00cd"/>
<rect x="9" y="19" width="1" height="1" fill="#ce00cd"/>
<rect x="10" y="19" width="1" height="1" fill="#ce00cd"/>
<rect x="11" y="19" width="1" height="1" fill="#ce00cd"/>
<rect x="12" y="19" width="1" height="1" fill="#ce00cd"/>
<rect x="14" y="19" width="1" height="1" fill="#ce00cd"/>
<rect x="15" y="19" width="1" height="1" fill="#ce00cd"/>
<rect x="17" y="19" width="1" height="1" fill="#e200e0"/>
<rect x="18" y="19" width="1" height="1" fill="#e200e0"/>
<rect x="19" y="19" width="1" height="1" fill="#e200e0"/>
<rect x="20" y="19" width="1" height="1" fill="#e200e0"/>
<rect x="21" y="19" width="1" height="1" fill="#e200e0"/>
<rect x="22" y="19" width="1" height="1" fill="#e200e0"/>
<rect x="23" y="19" width="1" height="1" fill="#e200e0"/>
</svg>