<?xml version="1.0" encoding="UTF-8" standalone="no"?>
<svg xmlns="http://www.w3.org/2000/svg" width="26" height="21" shape-rendering="crispEdges">
<rect x="10" y="0" width="1" height="1" fill="#ffde00" fill-opacity="0.165"/>
<rect x="11" y="0" width="1" height="1" fill="#ffde00" fill-opacity="0.576"/>
<rect x="12" y="0" width="1" height="1" fill="#ffde00" fill-opacity="0.988"/>
<rect x="13" y="0" width="1" height="1" fill="#ffde00" fill-opacity="0.576"/>
<rect x="14" y="0" width="1" height="1" fill="#ffde00" fill-opacity="0.165"/>
<rect x="20" y="0" width="1" height="1" fill="#ffde00"/>
<rect x="9" y="1" width="1" height="1" fill="#ffde00" fill-opacity="0.176"/>
<rect x="10" y="1" width="1" height="1" fill="#ffde00"/>
<rect x="11" y="1" width="1" height="1" fill="#ffde00"/>
<rect x="12" y="1" width="1" height="1" fill="#ffde00"/>
<rect x="13" y="1" width="1" height="1" fill="#ffde00"/>
<rect x="14" y="1" width="1" height="1" fill="#ffde00"/>
<rect x="15" y="1" width="1" height="1" fill="#ffde00" fill-opacity="0.588"/>
<rect x="18" y="1" width="1" height="1" fill="#ffde00"/>
<rect x="19" y="1" width="1" height="1" fill="#ffde00"/>
<rect x="20" y="1" width="1" height="1" fill="#ffde00"/>
<rect x="21" y="1" width="1" height="1" fill="#ffde00"/>
<rect x="22" y="1" width="1" height="1" fill="#ffde00"/>
<rect x="9" y="2" width="1" height="1" fill="#ffde00" fill-opacity="0.588"/>
<rect x="10" y="2" width="1" height="1" fill="#ffde00"/>
<rect x="11" y="2" width="1" height="1" fill="#bf7300"/>
<rect x="12" y="2" width="1" height="1" fill="#912700"/>
<rect x="13" y="2" width="1" height="1" fill="#bf7300"/>
<rect x="14" y="2" width="1" height="1" fill="#fbd700"/>
<rect x="15" y="2" width="1" height="1" fill="#ffde00"/>
<rect x="16" y="2" width="1" height="1" fill="#ffde00" fill-opacity="0.176"/>
<rect x="19" y="2" width="1" height="1" fill="#ffde00"/>
<rect x="20" y="2" width="1" height="1" fill="#ffde00"/>
<rect x="21" y="2" width="1" height="1" fill="#ffde00"/>
<rect x="8" y="3" width="1" height="1" fill="#ffde00" fill-opacity="0.282"/>
<rect x="9" y="3" width="1" height="1" fill="#ffde00"/>
<rect x="10" y="3" width="1" height="1" fill="#e0aa00"/>
<rect x="11" y="3" width="1" height="1" fill="#a03e00"/>
<rect x="12" y="3" width="1" height="1" fill="#fed600"/>
<rect x="13" y="3" width="1" height="1" fill="#c27500"/>
<rect x="14" y="3" width="1" height="1" fill="#c67e00"/>
<rect x="15" y="3" width="1" height="1" fill="#ffde00"/>
<rect x="16" y="3" width="1" height="1" fill="#ffde00" fill-opacity="0.588"/>
<rect x="19" y="3" width="1" height="1" fill="#ffde00"/>
<rect x="21" y="3" width="1" height="1" fill="#ffde00"/>
<rect x="5" y="4" width="1" height="1" fill="#ffde00" fill-opacity="0.212"/>
<rect x="6" y="4" width="1" height="1" fill="#ffde00" fill-opacity="0.4"/>
<rect x="7" y="4" width="1" height="1" fill="#ffde00" fill-opacity="0.6"/>
<rect x="8" y="4" width="1" height="1" fill="#ffde00" fill-opacity="0.788"/>
<rect x="9" y="4" width="1" height="1" fill="#ffde00"/>
<rect x="10" y="4" width="1" height="1" fill="#b25e00"/>
<rect x="11" y="4" width="1" height="1" fill="#dd9e00"/>
<rect x="12" y="4" width="1" height="1" fill="#ffd300"/>
<rect x="13" y="4" width="1" height="1" fill="#f7c700"/>
<rect x="14" y="4" width="1" height="1" fill="#983100"/>
<rect x="15" y="4" width="1" height="1" fill="#f1c600"/>
<rect x="16" y="4" width="1" height="1" fill="#ffde00"/>
<rect x="17" y="4" width="1" height="1" fill="#ffde00" fill-opacity="0.647"/>
<rect x="18" y="4" width="1" height="1" fill="#ffde00" fill-opacity="0.459"/>
<rect x="19" y="4" width="1" height="1" fill="#ffde00" fill-opacity="0.271"/>
<rect x="3" y="5" width="1" height="1" fill="#ffde00" fill-opacity="0.176"/>
<rect x="4" y="5" width="1" height="1" fill="#ffde00" fill-opacity="0.588"/>
<rect x="5" y="5" width="1" height="1" fill="#ffde00"/>
<rect x="6" y="5" width="1" height="1" fill="#ffde00"/>
<rect x="7" y="5" width="1" height="1" fill="#ffde00"/>
<rect x="8" y="5" width="1" height="1" fill="#ffde00"/>
<rect x="9" y="5" width="1" height="1" fill="#bd6000"/>
<rect x="10" y="5" width="1" height="1" fill="#991500"/>
<rect x="11" y="5" width="1" height="1" fill="#ae3500"/>
<rect x="12" y="5" width="1" height="1" fill="#ae3500"/>
<rect x="13" y="5" width="1" height="1" fill="#ae3500"/>
<rect x="14" y="5" width="1" height="1" fill="#a22200"/>
<rect x="15" y="5" width="1" height="1" fill="#a22700"/>
<rect x="16" y="5" width="1" height="1" fill="#d78c00"/>
<rect x="17" y="5" width="1" height="1" fill="#ffde00"/>
<rect x="18" y="5" width="1" height="1" fill="#ffde00"/>
<rect x="19" y="5" width="1" height="1" fill="#ffde00"/>
<rect x="20" y="5" width="1" height="1" fill="#ffde00" fill-opacity="0.588"/>
<rect x="21" y="5" width="1" height="1" fill="#ffde00" fill-opacity="0.176"/>
<rect x="2" y="6" width="1" height="1" fill="#ffde00" fill-opacity="0.071"/>
<rect x="3" y="6" width="1" height="1" fill="#ffde00"/>
<rect x="4" y="6" width="1" height="1" fill="#ffde00"/>
<rect x="5" y="6" width="1" height="1" fill="#e7b700"/>
<rect x="6" y="6" width="1" height="1" fill="#d39400"/>
<rect x="7" y="6" width="1" height="1" fill="#bc6f00"/>
<rect x="8" y="6" width="1" height="1" fill="#a03100"/>
<rect x="9" y="6" width="1" height="1" fill="#bc6260"/>
<rect x="10" y="6" width="1" height="1" fill="#e5c1c0"/>
<rect x="11" y="6" width="1" height="1" fill="#e5c1c0"/>
<rect x="12" y="6" width="1" height="1" fill="#e5c1c0"/>
<rect x="13" y="6" width="1" height="1" fill="#e5c1c0"/>
<rect x="14" y="6" width="1" height="1" fill="#e5c1c0"/>
<rect x="15" y="6" width="1" height="1" fill="#deb1b0"/>
<rect x="16" y="6" width="1" height="1" fill="#bc6260"/>
<rect x="17" y="6" width="1" height="1" fill="#a22c00"/>
<rect x="18" y="6" width="1" height="1" fill="#cc8900"/>
<rect x="19" y="6" width="1" height="1" fill="#e1ac00"/>
<rect x="20" y="6" width="1" height="1" fill="#ffde00"/>
<rect x="21" y="6" width="1" height="1" fill="#ffde00"/>
<rect x="22" y="6" width="1" height="1" fill="#ffde00" fill-opacity="0.165"/>
<rect x="2" y="7" width="1" height="1" fill="#ffde00" fill-opacity="0.482"/>
<rect x="3" y="7" width="1" height="1" fill="#ffde00"/>
<rect x="4" y="7" width="1" height="1" fill="#c98500"/>
<rect x="5" y="7" width="1" height="1" fill="#a84500"/>
<rect x="6" y="7" width="1" height="1" fill="#bc6200"/>
<rect x="7" y="7" width="1" height="1" fill="#d38100"/>
<rect x="8" y="7" width="1" height="1" fill="#bd5000"/>
<rect x="9" y="7" width="1" height="1" fill="#ca8180"/>
<rect x="10" y="7" width="1" height="1" fill="#ffffff"/>
<rect x="11" y="7" width="1" height="1" fill="#ffffff"/>
<rect x="12" y="7" width="1" height="1" fill="#ffffff"/>
<rect x="13" y="7" width="1" height="1" fill="#ffffff"/>
<rect x="14" y="7" width="1" height="1" fill="#ffffff"/>
<rect x="15" y="7" width="1" height="1" fill="#ffffff"/>
<rect x="16" y="7" width="1" height="1" fill="#ffffff"/>
<rect x="17" y="7" width="1" height="1" fill="#af4240"/>
<rect x="18" y="7" width="1" height="1" fill="#b75100"/>
<rect x="19" y="7" width="1" height="1" fill="#ae4e00"/>
<rect x="20" y="7" width="1" height="1" fill="#bf7300"/>
<rect x="21" y="7" width="1" height="1" fill="#ffde00"/>
<rect x="22" y="7" width="1" height="1" fill="#ffde00" fill-opacity="0.576"/>
<rect x="2" y="8" width="1" height="1" fill="#ffde00" fill-opacity="0.894"/>
<rect x="3" y="8" width="1" height="1" fill="#ffde00"/>
<rect x="4" y="8" width="1" height="1" fill="#9c3900"/>
<rect x="5" y="8" width="1" height="1" fill="#f3a701"/>
<rect x="6" y="8" width="1" height="1" fill="#ffb601"/>
<rect x="7" y="8" width="1" height="1" fill="#ffb601"/>
<rect x="8" y="8" width="1" height="1" fill="#c95c00"/>
<rect x="9" y="8" width="1" height="1" fill="#ca8180"/>
<rect x="10" y="8" width="1" height="1" fill="#ffffff"/>
<rect x="11" y="8" width="1" height="1" fill="#ffffff"/>
<rect x="12" y="8" width="1" height="1" fill="#ebd1d0"/>
<rect x="13" y="8" width="1" height="1" fill="#b65250"/>
<rect x="14" y="8" width="1" height="1" fill="#e5c1c0"/>
<rect x="15" y="8" width="1" height="1" fill="#ffffff"/>
<rect x="16" y="8" width="1" height="1" fill="#ffffff"/>
<rect x="17" y="8" width="1" height="1" fill="#d7a1a0"/>
<rect x="18" y="8" width="1" height="1" fill="#bc4600"/>
<rect x="19" y="8" width="1" height="1" fill="#feb401"/>
<rect x="20" y="8" width="1" height="1" fill="#912700"/>
<rect x="21" y="8" width="1" height="1" fill="#ffde00"/>
<rect x="22" y="8" width="1" height="1" fill="#ffde00" fill-opacity="0.988"/>
<rect x="2" y="9" width="1" height="1" fill="#ffde00" fill-opacity="0.482"/>
<rect x="3" y="9" width="1" height="1" fill="#ffde00"/>
<rect x="4" y="9" width="1" height="1" fill="#c98500"/>
<rect x="5" y="9" width="1" height="1" fill="#a03800"/>
<rect x="6" y="9" width="1" height="1" fill="#f6a201"/>
<rect x="7" y="9" width="1" height="1" fill="#ffad01"/>
<rect x="8" y="9" width="1" height="1" fill="#c95800"/>
<rect x="9" y="9" width="1" height="1" fill="#ca8180"/>
<rect x="10" y="9" width="1" height="1" fill="#ffffff"/>
<rect x="11" y="9" width="1" height="1" fill="#ffffff"/>
<rect x="12" y="9" width="1" height="1" fill="#e5c1c0"/>
<rect x="13" y="9" width="1" height="1" fill="#a12320"/>
<rect x="14" y="9" width="1" height="1" fill="#d09190"/>
<rect x="15" y="9" width="1" height="1" fill="#ffffff"/>
<rect x="16" y="9" width="1" height="1" fill="#ffffff"/>
<rect x="17" y="9" width="1" height="1" fill="#deb1b0"/>
<rect x="18" y="9" width="1" height="1" fill="#b53800"/>
<rect x="19" y="9" width="1" height="1" fill="#ba5800"/>
<rect x="20" y="9" width="1" height="1" fill="#bf7300"/>
<rect x="21" y="9" width="1" height="1" fill="#ffde00"/>
<rect x="22" y="9" width="1" height="1" fill="#ffde00" fill-opacity="0.576"/>
<rect x="2" y="10" width="1" height="1" fill="#ffde00" fill-opacity="0.071"/>
<rect x="3" y="10" width="1" height="1" fill="#ffde00"/>
<rect x="4" y="10" width="1" height="1" fill="#ffde00"/>
<rect x="5" y="10" width="1" height="1" fill="#c78000"/>
<rect x="6" y="10" width="1" height="1" fill="#a43b00"/>
<rect x="7" y="10" width="1" height="1" fill="#f89c01"/>
<rect x="8" y="10" width="1" height="1" fill="#c95300"/>
<rect x="9" y="10" width="1" height="1" fill="#ca8180"/>
<rect x="10" y="10" width="1" height="1" fill="#ffffff"/>
<rect x="11" y="10" width="1" height="1" fill="#ffffff"/>
<rect x="12" y="10" width="1" height="1" fill="#ffffff"/>
<rect x="13" y="10" width="1" height="1" fill="#ffffff"/>
<rect x="14" y="10" width="1" height="1" fill="#ffffff"/>
<rect x="15" y="10" width="1" height="1" fill="#ffffff"/>
<rect x="16" y="10" width="1" height="1" fill="#ffffff"/>
<rect x="17" y="10" width="1" height="1" fill="#af4240"/>
<rect x="18" y="10" width="1" height="1" fill="#b44300"/>
<rect x="19" y="10" width="1" height="1" fill="#be7100"/>
<rect x="20" y="10" width="1" height="1" fill="#ffde00"/>
<rect x="21" y="10" width="1" height="1" fill="#ffde00"/>
<rect x="22" y="10" width="1" height="1" fill="#ffde00" fill-opacity="0.165"/>
<rect x="3" y="11" width="1" height="1" fill="#ffde00" fill-opacity="0.176"/>
<rect x="4" y="11" width="1" height="1" fill="#ffde00"/>
<rect x="5" y="11" width="1" height="1" fill="#ffde00"/>
<rect x="6" y="11" width="1" height="1" fill="#c47c00"/>
<rect x="7" y="11" width="1" height="1" fill="#a93f00"/>
<rect x="8" y="11" width="1" height="1" fill="#c74c00"/>
<rect x="9" y="11" width="1" height="1" fill="#ca8180"/>
<rect x="10" y="11" width="1" height="1" fill="#ffffff"/>
<rect x="11" y="11" width="1" height="1" fill="#ffffff"/>
<rect x="12" y="11" width="1" height="1" fill="#ffffff"/>
<rect x="13" y="11" width="1" height="1" fill="#ffffff"/>
<rect x="14" y="11" width="1" height="1" fill="#ffffff"/>
<rect x="15" y="11" width="1" height="1" fill="#ebd1d0"/>
<rect x="16" y="11" width="1" height="1" fill="#ca8180"/>
<rect x="17" y="11" width="1" height="1" fill="#a92900"/>
<rect x="18" y="11" width="1" height="1" fill="#be7100"/>
<rect x="19" y="11" width="1" height="1" fill="#fcda00"/>
<rect x="20" y="11" width="1" height="1" fill="#ffde00"/>
<rect x="21" y="11" width="1" height="1" fill="#ffde00" fill-opacity="0.176"/>
<rect x="4" y="12" width="1" height="1" fill="#ffde00" fill-opacity="0.176"/>
<rect x="5" y="12" width="1" height="1" fill="#ffde00"/>
<rect x="6" y="12" width="1" height="1" fill="#ffde00"/>
<rect x="7" y="12" width="1" height="1" fill="#ad5500"/>
<rect x="8" y="12" width="1" height="1" fill="#bb3c00"/>
<rect x="9" y="12" width="1" height="1" fill="#ca8180"/>
<rect x="10" y="12" width="1" height="1" fill="#ffffff"/>
<rect x="11" y="12" width="1" height="1" fill="#ffffff"/>
<rect x="12" y="12" width="1" height="1" fill="#e5c1c0"/>
<rect x="13" y="12" width="1" height="1" fill="#940300"/>
<rect x="14" y="12" width="1" height="1" fill="#940300"/>
<rect x="15" y="12" width="1" height="1" fill="#a81d00"/>
<rect x="16" y="12" width="1" height="1" fill="#c94a00"/>
<rect x="17" y="12" width="1" height="1" fill="#972700"/>
<rect x="18" y="12" width="1" height="1" fill="#f6cf00"/>
<rect x="19" y="12" width="1" height="1" fill="#ffde00"/>
<rect x="20" y="12" width="1" height="1" fill="#ffde00" fill-opacity="0.588"/>
<rect x="5" y="13" width="1" height="1" fill="#ffde00" fill-opacity="0.871"/>
<rect x="6" y="13" width="1" height="1" fill="#ffde00"/>
<rect x="7" y="13" width="1" height="1" fill="#9e3d00"/>
<rect x="8" y="13" width="1" height="1" fill="#c23f01"/>
<rect x="9" y="13" width="1" height="1" fill="#ca8180"/>
<rect x="10" y="13" width="1" height="1" fill="#ffffff"/>
<rect x="11" y="13" width="1" height="1" fill="#ffffff"/>
<rect x="12" y="13" width="1" height="1" fill="#e5c1c0"/>
<rect x="13" y="13" width="1" height="1" fill="#ae2400"/>
<rect x="14" y="13" width="1" height="1" fill="#ff8802"/>
<rect x="15" y="13" width="1" height="1" fill="#ff8802"/>
<rect x="16" y="13" width="1" height="1" fill="#ff8802"/>
<rect x="17" y="13" width="1" height="1" fill="#a53800"/>
<rect x="18" y="13" width="1" height="1" fill="#eabb00"/>
<rect x="19" y="13" width="1" height="1" fill="#ffde00"/>
<rect x="20" y="13" width="1" height="1" fill="#ffde00" fill-opacity="0.188"/>
<rect x="4" y="14" width="1" height="1" fill="#ffde00" fill-opacity="0.012"/>
<rect x="5" y="14" width="1" height="1" fill="#ffde00"/>
<rect x="6" y="14" width="1" height="1" fill="#fedc00"/>
<rect x="7" y="14" width="1" height="1" fill="#912600"/>
<rect x="8" y="14" width="1" height="1" fill="#c84001"/>
<rect x="9" y="14" width="1" height="1" fill="#ca8180"/>
<rect x="10" y="14" width="1" height="1" fill="#ffffff"/>
<rect x="11" y="14" width="1" height="1" fill="#ffffff"/>
<rect x="12" y="14" width="1" height="1" fill="#e5c1c0"/>
<rect x="13" y="14" width="1" height="1" fill="#ae2200"/>
<rect x="14" y="14" width="1" height="1" fill="#ff8002"/>
<rect x="15" y="14" width="1" height="1" fill="#ff8002"/>
<rect x="16" y="14" width="1" height="1" fill="#ff8002"/>
<rect x="17" y="14" width="1" height="1" fill="#b24101"/>
<rect x="18" y="14" width="1" height="1" fill="#dda500"/>
<rect x="19" y="14" width="1" height="1" fill="#ffde00"/>
<rect x="20" y="14" width="1" height="1" fill="#ffde00" fill-opacity="0.306"/>
<rect x="2" y="15" width="1" height="1" fill="#ffde00"/>
<rect x="4" y="15" width="1" height="1" fill="#ffde00" fill-opacity="0.118"/>
<rect x="5" y="15" width="1" height="1" fill="#ffde00"/>
<rect x="6" y="15" width="1" height="1" fill="#f2c800"/>
<rect x="7" y="15" width="1" height="1" fill="#9d2f00"/>
<rect x="8" y="15" width="1" height="1" fill="#f56e02"/>
<rect x="9" y="15" width="1" height="1" fill="#c03401"/>
<rect x="10" y="15" width="1" height="1" fill="#940300"/>
<rect x="11" y="15" width="1" height="1" fill="#940300"/>
<rect x="12" y="15" width="1" height="1" fill="#9c1300"/>
<rect x="13" y="15" width="1" height="1" fill="#be3b01"/>
<rect x="14" y="15" width="1" height="1" fill="#fc7702"/>
<rect x="15" y="15" width="1" height="1" fill="#ff7902"/>
<rect x="16" y="15" width="1" height="1" fill="#ff7902"/>
<rect x="17" y="15" width="1" height="1" fill="#bf4901"/>
<rect x="18" y="15" width="1" height="1" fill="#d09000"/>
<rect x="19" y="15" width="1" height="1" fill="#ffde00"/>
<rect x="20" y="15" width="1" height="1" fill="#ffde00" fill-opacity="0.424"/>
<rect x="0" y="16" width="1" height="1" fill="#ffde00"/>
<rect x="1" y="16" width="1" height="1" fill="#ffde00"/>
<rect x="2" y="16" width="1" height="1" fill="#ffde00"/>
<rect x="3" y="16" width="1" height="1" fill="#ffde00"/>
<rect x="4" y="16" width="1" height="1" fill="#ffde00"/>
<rect x="5" y="16" width="1" height="1" fill="#ffde00"/>
<rect x="6" y="16" width="1" height="1" fill="#e4b000"/>
<rect x="7" y="16" width="1" height="1" fill="#ab3800"/>
<rect x="8" y="16" width="1" height="1" fill="#ff7302"/>
<rect x="9" y="16" width="1" height="1" fill="#dd5b01"/>
<rect x="10" y="16" width="1" height="1" fill="#a93600"/>
<rect x="11" y="16" width="1" height="1" fill="#aa5100"/>
<rect x="12" y="16" width="1" height="1" fill="#d89d00"/>
<rect x="13" y="16" width="1" height="1" fill="#bb6d00"/>
<rect x="14" y="16" width="1" height="1" fill="#9a2c00"/>
<rect x="15" y="16" width="1" height="1" fill="#cd5001"/>
<rect x="16" y="16" width="1" height="1" fill="#fa6f02"/>
<rect x="17" y="16" width="1" height="1" fill="#cd5001"/>
<rect x="18" y="16" width="1" height="1" fill="#c27800"/>
<rect x="19" y="16" width="1" height="1" fill="#ffde00"/>
<rect x="20" y="16" width="1" height="1" fill="#ffde00" fill-opacity="0.553"/>
<rect x="1" y="17" width="1" height="1" fill="#ffde00"/>
<rect x="2" y="17" width="1" height="1" fill="#ffde00"/>
<rect x="3" y="17" width="1" height="1" fill="#ffde00"/>
<rect x="5" y="17" width="1" height="1" fill="#ffde00" fill-opacity="0.588"/>
<rect x="6" y="17" width="1" height="1" fill="#ffde00"/>
<rect x="7" y="17" width="1" height="1" fill="#be7100"/>
<rect x="8" y="17" width="1" height="1" fill="#902500"/>
<rect x="9" y="17" width="1" height="1" fill="#b25e00"/>
<rect x="10" y="17" width="1" height="1" fill="#e0aa00"/>
<rect x="11" y="17" width="1" height="1" fill="#ffde00"/>
<rect x="12" y="17" width="1" height="1" fill="#ffde00"/>
<rect x="13" y="17" width="1" height="1" fill="#ffde00"/>
<rect x="14" y="17" width="1" height="1" fill="#efc400"/>
<rect x="15" y="17" width="1" height="1" fill="#c27800"/>
<rect x="16" y="17" width="1" height="1" fill="#952e00"/>
<rect x="17" y="17" width="1" height="1" fill="#c27800"/>
<rect x="18" y="17" width="1" height="1" fill="#efc400"/>
<rect x="19" y="17" width="1" height="1" fill="#ffde00"/>
<rect x="20" y="17" width="1" height="1" fill="#ffde00" fill-opacity="0.141"/>
<rect x="1" y="18" width="1" height="1" fill="#ffde00"/>
<rect x="3" y="18" width="1" height="1" fill="#ffde00"/>
<rect x="5" y="18" width="1" height="1" fill="#ffde00" fill-opacity="0.176"/>
<rect x="6" y="18" width="1" height="1" fill="#ffde00"/>
<rect x="7" y="18" width="1" height="1" fill="#ffde00"/>
<rect x="8" y="18" width="1" height="1" fill="#ffde00"/>
<rect x="9" y="18" width="1" height="1" fill="#ffde00"/>
<rect x="10" y="18" width="1" height="1" fill="#ffde00"/>
<rect x="11" y="18" width="1" height="1" fill="#ffde00" fill-opacity="0.765"/>
<rect x="12" y="18" width="1" height="1" fill="#ffde00" fill-opacity="0.353"/>
<rect x="13" y="18" width="1" height="1" fill="#ffde00" fill-opacity="0.612"/>
<rect x="14" y="18" width="1" height="1" fill="#ffde00"/>
<rect x="15" y="18" width="1" height="1" fill="#ffde00"/>
<rect x="16" y="18" width="1" height="1" fill="#ffde00"/>
<rect x="17" y="18" width="1" height="1" fill="#ffde00"/>
<rect x="18" y="18" width="1" height="1" fill="#ffde00"/>
<rect x="19" y="18" width="1" height="1" fill="#ffde00" fill-opacity="0.588"/>
<rect x="6" y="19" width="1" height="1" fill="#ffde00" fill-opacity="0.176"/>
<rect x="7" y="19" width="1" height="1" fill="#ffde00" fill-opacity="0.588"/>
<rect x="8" y="19" width="1" height="1" fill="#ffde00"/>
<rect x="9" y="19" width="1" height="1" fill="#ffde00" fill-opacity="0.694"/>
<rect x="10" y="19" width="1" height="1" fill="#ffde00" fill-opacity="0.282"/>
<rect x="14" y="19" width="1" height="1" fill="#ffde00" fill-opacity="0.141"/>
<rect x="15" y="19" width="1" height="1" fill="#ffde00" fill-opacity="0.553"/>
<rect x="16" y="19" width="1" height="1" fill="#ffde00" fill-opacity="0.953"/>
<rect x="17" y="19" width="1" height="1" fill="#ffde00" fill-opacity="0.553"/>
<rect x="18" y="19" width="1" height="1" fill="#ffde00" fill-opacity="0.141"/>
</svg>